<?xml version="1.0" encoding="utf-8"?>
<!-- Generator: Adobe Illustrator 16.0.0, SVG Export Plug-In . SVG Version: 6.00 Build 0)  -->
<!DOCTYPE svg PUBLIC "-//W3C//DTD SVG 1.1//EN" "http://www.w3.org/Graphics/SVG/1.1/DTD/svg11.dtd">
<svg version="1.1" id="Layer_1"  fill="#326ED1" xmlns="http://www.w3.org/2000/svg" xmlns:xlink="http://www.w3.org/1999/xlink" x="0px" y="0px"
	 width="64px" height="64px" viewBox="0 0 64 64" enable-background="new 0 0 64 64" xml:space="preserve">
<g>
	<path  d="M55.039,5.5H8.96C7.68,5.5,6.4,6.78,6.4,8.06V43.9c0,1.535,1.28,2.56,2.56,2.56h20.48v5.12h-6.144
		c-2.304,0-4.096,1.792-4.096,4.096V56.7h25.599v-1.024c0-2.304-1.791-4.096-4.096-4.096h-6.143v-5.12h20.479
		c1.537,0,2.561-1.024,2.561-2.56V8.06C57.6,6.78,56.576,5.5,55.039,5.5z M52.48,36.22H11.52v-25.6h40.96V36.22z"/>
	<path  d="M24.32,19.58c0,2.121-1.719,3.84-3.84,3.84s-3.84-1.719-3.84-3.84s1.719-3.84,3.84-3.84
		S24.32,17.459,24.32,19.58"/>
	<path  d="M29.44,28.54c0,1.414-1.146,2.56-2.56,2.56s-2.56-1.146-2.56-2.56s1.146-2.56,2.56-2.56
		S29.44,27.126,29.44,28.54"/>
	<path  d="M47.359,22.14c0,3.535-2.865,6.4-6.4,6.4c-3.533,0-6.398-2.865-6.398-6.4s2.865-6.4,6.398-6.4
		C44.494,15.74,47.359,18.605,47.359,22.14"/>
</g>
</svg>
