<?xml version="1.0" encoding="utf-8"?>
<!-- Generator: Adobe Illustrator 16.0.0, SVG Export Plug-In . SVG Version: 6.00 Build 0)  -->
<!DOCTYPE svg PUBLIC "-//W3C//DTD SVG 1.1//EN" "http://www.w3.org/Graphics/SVG/1.1/DTD/svg11.dtd">
<svg version="1.1" id="Layer_1" xmlns="http://www.w3.org/2000/svg" xmlns:xlink="http://www.w3.org/1999/xlink" x="0px" y="0px"
	 width="64px" height="64px" viewBox="0 0 64 64" enable-background="new 0 0 64 64" xml:space="preserve">
<g>
	<path fill="#EC008C" d="M32,46.441c3.352-1.811,6.123-4.344,8.047-7.356c1.926-3.014,2.941-6.408,2.952-9.864v-4.019L32,21.984
		l-11,3.219v4.019c0.01,3.456,1.027,6.85,2.953,9.864C25.877,42.098,28.647,44.631,32,46.441z M25.149,35.564
		c-0.183-0.259-0.2-0.582-0.044-0.854l6-10.532c0.207-0.365,0.672-0.557,1.125-0.463c0.452,0.093,0.77,0.448,0.769,0.855v6.144h5
		c0.349-0.002,0.672,0.155,0.855,0.414c0.185,0.259,0.2,0.583,0.044,0.856L32.9,42.517c-0.205,0.369-0.674,0.565-1.129,0.473
		c-0.456-0.096-0.776-0.455-0.771-0.866v-6.144h-5C25.653,35.979,25.331,35.822,25.149,35.564z"/>
	<path fill="#EC008C" d="M32.999,35.103v3.304l3.384-5.937H32c-0.552,0-1-0.393-1-0.878v-3.304l-3.383,5.937H32
		c0.265,0,0.52,0.093,0.707,0.258C32.896,34.646,32.999,34.869,32.999,35.103z"/>
	<path fill="#EC008C" d="M18,56.167h28.001c0.265,0,0.519-0.092,0.706-0.257S47,55.522,47,55.289V13.16
		c0-0.232-0.105-0.456-0.293-0.62c-0.188-0.164-0.441-0.257-0.706-0.257H18c-0.552,0-1,0.393-1,0.877v42.129
		c0,0.233,0.106,0.456,0.293,0.621S17.734,56.167,18,56.167z M19,24.57c0-0.378,0.275-0.713,0.684-0.833l12-3.511
		c0.205-0.06,0.427-0.06,0.632,0l12,3.511C44.725,23.857,45,24.192,45,24.57v4.651c-0.012,3.8-1.143,7.532-3.282,10.836
		c-2.14,3.302-5.216,6.064-8.929,8.016l-0.278,0.146l0,0c-0.314,0.163-0.707,0.163-1.022,0l-0.276-0.145v-0.001
		c-3.714-1.951-6.79-4.714-8.93-8.016c-2.14-3.304-3.271-7.036-3.282-10.836V24.57z"/>
	<path fill="#EC008C" d="M26,10.527h11.999V7.895c0-0.233-0.104-0.456-0.292-0.622C37.52,7.109,37.265,7.017,37,7.017H27
		c-0.552,0-1,0.393-1,0.878V10.527z"/>
</g>
</svg>
