<?xml version="1.0" encoding="utf-8"?>
<!-- Generator: Adobe Illustrator 16.0.0, SVG Export Plug-In . SVG Version: 6.00 Build 0)  -->
<!DOCTYPE svg PUBLIC "-//W3C//DTD SVG 1.1//EN" "http://www.w3.org/Graphics/SVG/1.1/DTD/svg11.dtd">
<svg version="1.1" id="Layer_1" xmlns="http://www.w3.org/2000/svg" xmlns:xlink="http://www.w3.org/1999/xlink" x="0px" y="0px"
	 width="64px" height="64px" viewBox="0 0 64 64" enable-background="new 0 0 64 64" xml:space="preserve">
<g>
	<path fill="#F9812A" d="M32.002,18.12c1.974,0,3.573-1.536,3.573-3.433c0-1.896-1.599-3.432-3.573-3.432
		c-1.972,0-3.571,1.537-3.571,3.432C28.431,16.582,30.029,18.12,32.002,18.12z M22.524,20.244c0.25,0.18,0.562,0.292,0.905,0.292
		c0.814,0,1.473-0.606,1.473-1.355c0-0.569-0.383-1.054-0.924-1.255c-0.726-0.799-1.193-1.868-1.193-3.047
		c0-1.215,0.499-2.314,1.259-3.12c0.528-0.207,0.898-0.688,0.898-1.248c0-0.749-0.66-1.355-1.474-1.355
		c-0.344,0-0.656,0.113-0.908,0.295l-0.012-0.014c-0.033,0.031-0.063,0.066-0.096,0.097c-0.033,0.028-0.061,0.06-0.09,0.091
		c-1.34,1.32-2.191,3.182-2.191,5.256c0,2.142,0.902,4.066,2.318,5.392L22.524,20.244z M39.954,11.757
		c0.76,0.806,1.259,1.905,1.259,3.12c0,1.179-0.467,2.248-1.192,3.047c-0.541,0.2-0.925,0.687-0.925,1.256
		c0,0.748,0.661,1.355,1.473,1.355c0.343,0,0.654-0.111,0.905-0.292l0.033,0.029c1.418-1.326,2.32-3.25,2.32-5.393
		c0-2.074-0.853-3.939-2.192-5.258c-0.03-0.03-0.058-0.061-0.089-0.089C41.513,9.5,41.484,9.465,41.45,9.435l-0.012,0.015
		c-0.251-0.182-0.563-0.295-0.908-0.295c-0.813,0-1.473,0.607-1.473,1.355C39.057,11.07,39.427,11.551,39.954,11.757L39.954,11.757z
		 M16.153,5.296c-0.46,0-0.866,0.198-1.136,0.502L14.99,5.778c-2.321,2.368-3.702,5.574-3.702,9.104
		c0,3.494,1.363,6.665,3.643,9.027c0.265,0.361,0.713,0.598,1.222,0.598c0.814,0,1.473-0.606,1.473-1.355
		c0-0.302-0.111-0.578-0.292-0.803l0.071-0.057c-1.986-1.88-3.219-4.505-3.219-7.412c0-2.849,1.186-5.429,3.103-7.3l-0.04-0.03
		c0.233-0.24,0.378-0.553,0.378-0.899C17.627,5.904,16.968,5.297,16.153,5.296L16.153,5.296z M31.285,20.862
		C27.476,41.905,18.906,57,18.906,57h2.38l5.696-3.647L31.284,57h1.904l4.333-3.468L42.712,57h2.381
		c-7.31-13.643-12.38-36.138-12.38-36.138H31.285z M28.809,38.34l1.932,3.565h-3.104C28.075,40.619,28.467,39.419,28.809,38.34z
		 M30.393,42.82l-1.687,1.728l-1.349-1.728H30.393z M31.047,49.224H25.54l3.054-3.143L31.047,49.224z M26.924,43.942l1.056,1.352
		l-2.543,2.605C25.967,46.554,26.464,45.224,26.924,43.942L26.924,43.942z M22.218,55.204c0.682-1.365,1.336-2.787,1.955-4.232
		l2.04,1.729L22.218,55.204z M24.747,50.139h5.555l-3.194,2.001L24.747,50.139z M31.285,55.682l-3.417-2.896l3.417-2.188V55.682z
		 M31.285,47.852l-1.965-2.518l1.965-2.024V47.852z M31.285,40.955l-2.09-3.855c0.729-2.37,1.138-3.886,1.138-3.886h0.952V40.955z
		 M41.827,55.194l-3.51-2.299l1.822-1.459C40.798,52.979,41.383,54.255,41.827,55.194z M39.752,50.516l-2.295,1.815l-3.348-2.192
		h5.485C39.647,50.268,39.7,50.392,39.752,50.516L39.752,50.516z M33.427,49.224l2.248-2.881l2.812,2.881H33.427z M38.787,48.131
		l-2.503-2.565l1.048-1.344C37.819,45.608,38.31,46.914,38.787,48.131L38.787,48.131z M36.931,43.059l-1.374,1.762l-1.951-2h3.244
		C36.876,42.9,36.903,42.978,36.931,43.059L36.931,43.059z M36.546,41.905H33.54l1.922-3.548
		C35.812,39.57,36.173,40.761,36.546,41.905z M33.189,33.214h0.953c0.291,1.309,0.617,2.593,0.96,3.854l-1.913,3.531V33.214z
		 M33.189,43.795l1.759,1.803l-1.759,2.254V43.795z M33.189,50.636l3.476,2.323l-3.476,2.75V50.636z M49.008,5.778L48.98,5.799
		c-0.271-0.304-0.676-0.502-1.136-0.502c-0.813,0-1.473,0.607-1.473,1.354c0,0.347,0.146,0.659,0.379,0.899l-0.04,0.031
		c1.918,1.871,3.104,4.451,3.104,7.3c0,2.906-1.233,5.533-3.22,7.411l0.071,0.057c-0.183,0.226-0.293,0.501-0.293,0.803
		c0,0.749,0.66,1.355,1.473,1.355c0.501,0,0.939-0.23,1.206-0.58c2.289-2.364,3.659-5.542,3.659-9.046
		C52.711,11.353,51.33,8.146,49.008,5.778L49.008,5.778z"/>
</g>
</svg>
