<?xml version="1.0" encoding="utf-8"?>
<!-- Generator: Adobe Illustrator 16.0.0, SVG Export Plug-In . SVG Version: 6.00 Build 0)  -->
<!DOCTYPE svg PUBLIC "-//W3C//DTD SVG 1.1//EN" "http://www.w3.org/Graphics/SVG/1.1/DTD/svg11.dtd">
<svg version="1.1" id="Layer_1" xmlns="http://www.w3.org/2000/svg" xmlns:xlink="http://www.w3.org/1999/xlink" x="0px" y="0px"
	 width="64px" height="64px" viewBox="0 0 64 64" enable-background="new 0 0 64 64" xml:space="preserve">
<g>
	<path fill="#09821D" d="M48.387,51.953c1.839-0.199,3.534-1.037,4.769-2.356c1.232-1.319,1.917-3.026,1.919-4.797
		c0-0.212-0.088-0.415-0.245-0.565S54.46,44,54.237,44c-2.273,0.001-4.427,0.988-5.851,2.685V43.2h0.837
		c1.107-0.001,2.169-0.423,2.952-1.173c0.784-0.75,1.225-1.768,1.227-2.827c0-0.212-0.088-0.416-0.245-0.565
		c-0.156-0.15-0.369-0.234-0.592-0.234h-1.671c-1.108,0.001-2.171,0.423-2.955,1.172c-0.781,0.75-1.222,1.768-1.225,2.828v1.52
		c-0.63-1.179-1.587-2.168-2.767-2.859s-2.536-1.059-3.92-1.061c-0.461,0-0.835,0.358-0.835,0.8
		c0.002,1.909,0.796,3.739,2.206,5.089s3.322,2.109,5.315,2.111v6.4h-6.454l-3.981-2.286l0,0c-0.328-0.188-0.751-0.14-1.022,0.12
		L33.831,53.6h-3.833V48h1.671c0.222,0,0.435-0.084,0.592-0.234c0.156-0.15,0.244-0.354,0.244-0.565V34.4
		c0-0.213-0.088-0.416-0.244-0.566c-0.157-0.149-0.37-0.234-0.592-0.234H9.938c-0.462,0-0.836,0.359-0.836,0.801v12.8
		c0,0.212,0.088,0.415,0.245,0.565C9.503,47.916,9.716,48,9.938,48h1.671v5.264l-1.554,0.298l-3.087-1.478L6.221,53.52l3.344,1.601
		c0.116,0.054,0.244,0.081,0.374,0.08c0.056,0,0.112-0.005,0.167-0.017l1.505-0.287V55.2c0,0.212,0.088,0.415,0.245,0.565
		C12.012,55.916,12.224,56,12.446,56h3.343c0.222,0,0.435-0.084,0.591-0.234c0.157-0.15,0.245-0.354,0.245-0.565v-0.56l1.672,0.159
		v0.4c0,0.212,0.087,0.415,0.245,0.565c0.157,0.15,0.37,0.234,0.591,0.234h3.344c0.221,0,0.434-0.084,0.591-0.234
		s0.245-0.354,0.245-0.565h1.672c0,0.212,0.088,0.415,0.245,0.565c0.156,0.15,0.369,0.234,0.59,0.234h3.344
		c0.222,0,0.434-0.084,0.591-0.234c0.157-0.15,0.245-0.354,0.245-0.565h4.179c0.223,0,0.435-0.085,0.592-0.234l1.21-1.159
		l3.618,2.08l0,0C39.729,55.961,39.877,56,40.028,56h16.717v-1.6h-8.358V51.953z M12.446,37.601c0-0.442,0.374-0.8,0.835-0.8h15.045
		c0.222,0,0.435,0.084,0.591,0.234c0.156,0.149,0.245,0.354,0.245,0.565v3.2c0,0.212-0.088,0.416-0.245,0.565
		c-0.157,0.149-0.37,0.234-0.591,0.234H13.281c-0.461,0-0.835-0.358-0.835-0.8V37.601z M19.968,44.801V43.2h1.672v1.601H19.968z
		 M18.297,44.801h-1.672V43.2h1.672V44.801z M13.281,44.801V43.2h1.672v1.601H13.281z M13.281,54.4V51l1.672-2v5.4H13.281z
		 M16.625,53.041V48h1.672v5.2L16.625,53.041z M19.968,54.4V51l1.672-2v5.4H19.968z M23.312,53.601V48h1.672v5.601H23.312z
		 M26.655,54.4V51l1.671-2v5.4H26.655z"/>
	<path fill="#09821D" d="M18.292,31.188c0.721-0.502,1.59-0.773,2.481-0.773c0.892,0,1.761,0.271,2.482,0.773l0.995-1.286h0
		c-1.011-0.702-2.228-1.081-3.477-1.081c-1.249,0-2.465,0.378-3.476,1.081L18.292,31.188z"/>
	<path fill="#09821D" d="M26.571,27.574c-1.639-1.277-3.687-1.974-5.799-1.974s-4.161,0.697-5.799,1.974l1.055,1.242l0,0
		c1.34-1.044,3.015-1.615,4.744-1.615s3.404,0.57,4.744,1.615L26.571,27.574z"/>
	<path fill="#09821D" d="M20.772,24c2.569,0.002,5.054,0.875,7.014,2.464l1.08-1.221c-2.26-1.836-5.129-2.843-8.094-2.843
		c-2.964,0-5.833,1.007-8.094,2.843l1.081,1.221C15.72,24.876,18.205,24.002,20.772,24L20.772,24z"/>
	<path fill="#09821D" d="M46.715,34.4h1.672V36h-1.672V34.4z"/>
	<path fill="#09821D" d="M46.715,28h1.672v1.6h-1.672V28z"/>
	<path fill="#09821D" d="M46.715,31.2h1.672v1.601h-1.672V31.2z"/>
	<path fill="#09821D" d="M23.312,13.601h1.672v1.6h-1.672V13.601z"/>
	<path fill="#09821D" d="M21.64,13.601h-0.835c-0.462,0-0.836,0.358-0.836,0.8v0.8h1.672V13.601z"/>
	<path fill="#09821D" d="M26.655,13.601h1.671v1.6h-1.671V13.601z"/>
	<path fill="#09821D" d="M29.999,13.601h1.671v1.6h-1.671V13.601z"/>
	<path fill="#09821D" d="M19.968,16.8h1.672v1.6h-1.672V16.8z"/>
	<path fill="#09821D" d="M49.327,12.412l-3.761,6.48l-3.438-1.974c-0.365-0.211-0.839-0.124-1.096,0.202l-2.508,3.2l1.336,0.96
		l2.056-2.623l3.532,2.029c0.195,0.111,0.429,0.143,0.646,0.087c0.219-0.056,0.404-0.195,0.515-0.384l3.94-6.789h2.853V12h-3.345
		C49.756,12,49.475,12.158,49.327,12.412L49.327,12.412z"/>
	<path fill="#09821D" d="M55.91,8H35.849c-0.461,0-0.834,0.358-0.834,0.8v4.8h-1.673v1.6h1.673v9.6c0,0.212,0.087,0.416,0.242,0.566
		c0.157,0.15,0.372,0.234,0.592,0.234h10.866v0.8h1.672v-0.8h7.523c0.221,0,0.433-0.084,0.59-0.234s0.245-0.354,0.245-0.566v-16
		c0-0.212-0.088-0.416-0.245-0.565C56.343,8.084,56.131,8,55.91,8z M54.237,22.4c0,0.212-0.088,0.416-0.245,0.566
		c-0.155,0.15-0.369,0.234-0.59,0.234H38.356c-0.461,0-0.836-0.358-0.836-0.8V11.2c0-0.441,0.375-0.8,0.836-0.8h15.046
		c0.221,0,0.435,0.084,0.59,0.234c0.157,0.15,0.245,0.354,0.245,0.565V22.4z"/>
</g>
</svg>
