<?xml version="1.0" encoding="utf-8"?>
<!-- Generator: Adobe Illustrator 16.0.0, SVG Export Plug-In . SVG Version: 6.00 Build 0)  -->
<!DOCTYPE svg PUBLIC "-//W3C//DTD SVG 1.1//EN" "http://www.w3.org/Graphics/SVG/1.1/DTD/svg11.dtd">
<svg version="1.1" id="Layer_1" xmlns="http://www.w3.org/2000/svg" xmlns:xlink="http://www.w3.org/1999/xlink" x="0px" y="0px"
	 width="64px" height="64px" viewBox="0 0 64 64" enable-background="new 0 0 64 64" xml:space="preserve">
<g>
	<path fill="#01A89E" d="M19.281,27.037l3.398,3.29c-0.384,0.668-0.658,1.449-0.877,2.175l-4.056-3.848
		c-0.549,0.334-1.207,0.558-1.919,0.558c-2.138,0-3.836-1.728-3.836-3.903s1.698-3.903,3.836-3.903c2.138,0,3.837,1.729,3.837,3.903
		C19.665,25.922,19.5,26.536,19.281,27.037L19.281,27.037z M46.523,46.496c-1.754,0-3.178,1.172-3.671,2.789h-5.538l-1.206-2.176
		c-0.713,0.223-1.479,0.391-2.303,0.445l1.92,3.402c0.056,0.111,0.109,0.168,0.165,0.223c0.055,0.055,0.11,0.111,0.164,0.168
		c0,0,0.054,0,0.054,0.055c0.056,0.057,0.11,0.057,0.166,0.057h0.054c0.054,0,0.166,0.055,0.273,0.055h6.195
		c0.493,1.617,1.973,2.789,3.672,2.789c2.137,0,3.839-1.73,3.839-3.904S48.662,46.496,46.523,46.496L46.523,46.496z M15.664,34.787
		C15.17,33.172,13.69,32,11.991,32c-2.138,0-3.837,1.729-3.837,3.903s1.7,3.902,3.837,3.902c1.754,0,3.179-1.17,3.672-2.787h5.7
		c-0.055-0.391-0.055-0.725-0.055-1.115s0-0.725,0.055-1.115H15.664z M28.435,17.503c0-2.454,1.974-4.46,4.385-4.46
		c2.411,0,4.387,2.007,4.387,4.46v7.583c1.204,0.502,2.301,1.227,3.289,2.119l-0.002-9.702c0-4.293-3.453-7.806-7.674-7.806
		s-7.673,3.513-7.673,7.806v9.702c0.986-0.893,2.083-1.617,3.289-2.119L28.435,17.503z M30.627,17.503v6.914
		c0.713-0.111,1.425-0.223,2.192-0.223c0.767,0,1.479,0.056,2.192,0.223v-6.914c0-1.227-0.986-2.23-2.191-2.23
		C31.615,15.273,30.627,16.276,30.627,17.503z M32.82,45.383c-5.153,0-9.318-4.238-9.318-9.48c0-5.241,4.166-9.479,9.318-9.479
		c5.153,0,9.319,4.237,9.319,9.479C42.14,41.145,37.972,45.383,32.82,45.383z M36.658,33.115c0-2.175-1.7-3.903-3.838-3.903
		s-3.837,1.728-3.837,3.903c0,1.783,1.151,3.234,2.74,3.736v4.07c0,0.613,0.493,1.115,1.096,1.115c0.604,0,1.097-0.502,1.097-1.115
		v-4.07C35.506,36.35,36.658,34.898,36.658,33.115L36.658,33.115z M32.82,31.442c-0.932,0-1.645,0.726-1.645,1.673
		c0,0.893,0.713,1.672,1.645,1.672s1.645-0.779,1.645-1.672C34.465,32.167,33.752,31.442,32.82,31.442z M49.813,20.291
		c-2.137,0-3.837,1.729-3.837,3.903c0,1.785,1.15,3.234,2.742,3.736v4.517l-4.441,2.285l-1.534,0.781
		c-0.549,0.279-0.767,0.947-0.493,1.506c0.164,0.391,0.604,0.613,0.985,0.613c0.165,0,0.329-0.055,0.493-0.111l6.58-3.346
		c0,0,0.054,0,0.054-0.057c0.054,0,0.054-0.055,0.109-0.055c0.055,0,0.055-0.055,0.11-0.055l0.054-0.057
		c0,0,0.054-0.057,0.054-0.111c0-0.057,0.057-0.057,0.057-0.111s0.054-0.055,0.054-0.113c0-0.055,0.056-0.055,0.056-0.109
		c0-0.057,0-0.057,0.054-0.113v-0.111V33.17v-0.057v-5.184c1.59-0.502,2.74-1.952,2.74-3.736
		C53.65,22.02,51.951,20.291,49.813,20.291L49.813,20.291z"/>
</g>
</svg>
