<?xml version="1.0" encoding="utf-8"?>
<!-- Generator: Adobe Illustrator 16.0.0, SVG Export Plug-In . SVG Version: 6.00 Build 0)  -->
<!DOCTYPE svg PUBLIC "-//W3C//DTD SVG 1.1//EN" "http://www.w3.org/Graphics/SVG/1.1/DTD/svg11.dtd">
<svg version="1.1" id="Layer_1" xmlns="http://www.w3.org/2000/svg" xmlns:xlink="http://www.w3.org/1999/xlink" x="0px" y="0px"
	 width="64px" height="64px" viewBox="0 0 64 64" enable-background="new 0 0 64 64" xml:space="preserve">
<g>
	<path fill="#8F00FF" d="M50.722,14.676l-1.289-1.034l-2.021,2.601l1.288,1.034v0c2.737,2.033,4.399,5.247,4.501,8.705
		c-0.102,3.457-1.764,6.671-4.501,8.704l-1.288,1.034l2.021,2.602l1.289-1.034l0,0c3.53-2.647,5.653-6.829,5.739-11.306
		C56.375,21.504,54.252,17.324,50.722,14.676L50.722,14.676z"/>
	<path fill="#8F00FF" d="M45.129,19.678l-1.288-1.034l-2.056,2.602l1.288,1.034v0c1.185,0.854,1.914,2.222,1.974,3.702
		c-0.052,1.475-0.769,2.841-1.94,3.702l-1.288,1.034l2.022,2.601l1.288-1.034l0,0c1.966-1.476,3.142-3.809,3.179-6.303
		C48.271,23.487,47.095,21.154,45.129,19.678L45.129,19.678z"/>
	<path fill="#8F00FF" d="M10.801,25.981c0.102-3.458,1.763-6.671,4.501-8.705l1.288-1.034l-2.022-2.601l-1.288,1.034
		c-3.532,2.648-5.654,6.829-5.741,11.306c0.086,4.477,2.209,8.658,5.741,11.305l1.288,1.034l2.022-2.602l-1.288-1.034l0,0
		C12.564,32.653,10.902,29.439,10.801,25.981L10.801,25.981z"/>
	<path fill="#8F00FF" d="M20.895,29.683c-1.172-0.86-1.889-2.228-1.94-3.702c0.052-1.475,0.768-2.842,1.94-3.702l1.288-1.034
		l-2.022-2.601l-1.206,1.034c-1.997,1.458-3.206,3.793-3.262,6.303c0.056,2.508,1.265,4.844,3.262,6.303l1.288,1.034l1.974-2.602
		L20.895,29.683z"/>
	<path fill="#8F00FF" d="M38.523,34.752v-22.11c0-2.383-1.244-4.585-3.262-5.776s-4.505-1.191-6.523,0
		c-2.018,1.191-3.261,3.393-3.261,5.776v22.11c-2.677,1.906-4.429,4.893-4.813,8.204s0.635,6.634,2.802,9.128
		c2.166,2.493,5.272,3.92,8.534,3.92s6.368-1.427,8.534-3.92c2.166-2.494,3.186-5.816,2.802-9.128S41.2,36.658,38.523,34.752z
		 M32,52.661c-2.41,0-4.697-1.091-6.246-2.979c-1.549-1.888-2.202-4.379-1.784-6.807c0.419-2.428,1.866-4.54,3.953-5.771
		c0.501-0.298,0.812-0.843,0.815-1.436V12.641c0-1.191,0.622-2.292,1.631-2.889c1.009-0.595,2.252-0.595,3.262,0
		c1.009,0.596,1.631,1.697,1.631,2.889v23.028c0.003,0.593,0.313,1.138,0.815,1.436c2.087,1.231,3.533,3.344,3.953,5.771
		c0.418,2.428-0.234,4.919-1.783,6.807C36.697,51.57,34.411,52.661,32,52.661z"/>
	<path fill="#8F00FF" d="M33.631,38.755V22.646h-3.262v16.108c-1.766,0.537-3.17,1.916-3.768,3.698
		c-0.598,1.783-0.317,3.752,0.754,5.287c1.071,1.532,2.801,2.443,4.645,2.443c1.844,0,3.573-0.911,4.645-2.443
		c1.072-1.535,1.353-3.504,0.754-5.287C36.802,40.671,35.398,39.292,33.631,38.755L33.631,38.755z M32,46.825
		c-0.648,0-1.271-0.264-1.729-0.732c-0.458-0.47-0.716-1.106-0.716-1.769c0-0.664,0.258-1.301,0.716-1.769
		c0.458-0.47,1.081-0.733,1.729-0.733c0.649,0,1.271,0.264,1.73,0.733c0.457,0.468,0.716,1.104,0.716,1.769
		c0,0.662-0.259,1.299-0.716,1.769C33.271,46.562,32.649,46.825,32,46.825z"/>
	<path fill="#8F00FF" d="M30.369,15.977h3.262v4.169h-3.262V15.977z"/>
</g>
</svg>
