<?xml version="1.0" encoding="utf-8"?>
<!-- Generator: Adobe Illustrator 16.0.0, SVG Export Plug-In . SVG Version: 6.00 Build 0)  -->
<!DOCTYPE svg PUBLIC "-//W3C//DTD SVG 1.1//EN" "http://www.w3.org/Graphics/SVG/1.1/DTD/svg11.dtd">
<svg version="1.1" id="Layer_1" xmlns="http://www.w3.org/2000/svg" xmlns:xlink="http://www.w3.org/1999/xlink" x="0px" y="0px"
	 width="64px" height="64px" viewBox="0 0 64 64" enable-background="new 0 0 64 64" xml:space="preserve">
<g>
	<path fill="#326ED1" d="M10.482,32.462c-0.069-2.716,0.347-5.432,1.315-8.147c0.138-0.357-0.069-0.786-0.415-0.929
		c-0.346-0.143-0.762,0.072-0.9,0.429c-1.039,2.859-1.454,5.789-1.385,8.647c0,0.357,0.346,0.715,0.692,0.715
		C10.205,33.177,10.482,32.891,10.482,32.462L10.482,32.462z"/>
	<path fill="#326ED1" d="M11.104,37.25c-0.069-0.357-0.485-0.643-0.831-0.499c-0.346,0.07-0.623,0.499-0.484,0.857
		c0.692,2.858,1.869,5.574,3.53,8.004c0.208,0.358,0.624,0.429,0.969,0.143c0.346-0.214,0.415-0.644,0.138-1.001
		C12.904,42.467,11.728,39.967,11.104,37.25L11.104,37.25z"/>
	<path fill="#326ED1" d="M23.218,11.665c0,0,3.738-1.715,8.099-1.858c0.415,0,0.692-0.357,0.692-0.714
		c0-0.358-0.346-0.715-0.692-0.715c-2.769,0.072-5.676,0.715-8.307,1.93c-0.346,0.143-0.484,0.571-0.346,0.929
		C22.665,11.521,22.941,11.665,23.218,11.665L23.218,11.665z"/>
	<path fill="#326ED1" d="M35.955,10.164c2.631,0.5,5.122,1.572,7.406,3.002c0.346,0.214,0.763,0.143,0.97-0.214
		c0.207-0.358,0.139-0.787-0.207-1.001C41.7,10.378,39,9.306,36.231,8.734c-0.346-0.071-0.761,0.215-0.831,0.572
		C35.332,9.735,35.54,10.092,35.955,10.164L35.955,10.164z"/>
	<path fill="#326ED1" d="M51.6,23.028c0.138,0.357,0.553,0.5,0.899,0.357c0.346-0.143,0.484-0.572,0.346-0.929
		c-1.177-2.716-2.77-5.146-4.846-7.219c-0.276-0.285-0.691-0.285-0.968,0c-0.277,0.286-0.277,0.715,0,1.001
		C48.97,18.168,50.492,20.456,51.6,23.028L51.6,23.028z"/>
	<path fill="#326ED1" d="M12.904,20.241c0.346,0.214,0.761,0.143,0.969-0.214c1.453-2.358,3.322-4.36,5.468-6.003
		c0.277-0.214,0.346-0.643,0.139-1s-0.624-0.357-0.969-0.143c-2.354,1.715-4.292,3.859-5.815,6.361
		C12.489,19.526,12.627,20.026,12.904,20.241L12.904,20.241z"/>
	<path fill="#326ED1" d="M54.368,27.388c-0.07-0.357-0.416-0.643-0.831-0.572c-0.347,0.072-0.622,0.429-0.554,0.857
		c0.554,2.716,0.554,5.503,0.069,8.291c-0.069,0.43,0.276,0.857,0.692,0.857c0.346,0,0.623-0.214,0.692-0.571
		C54.922,33.32,54.922,30.318,54.368,27.388L54.368,27.388z"/>
	<path fill="#326ED1" d="M43.707,50.472c-4.43,3.002-9.759,4.146-14.743,3.358c-0.347-0.07-0.762,0.215-0.762,0.572
		c0,0.358,0.208,0.786,0.554,0.786c5.538,0.786,11.145-0.501,15.713-3.645c0.347-0.215,0.416-0.643,0.208-1
		C44.4,50.4,43.985,50.258,43.707,50.472L43.707,50.472z"/>
	<path fill="#326ED1" d="M52.638,40.181c-0.347-0.143-0.763,0-0.9,0.357c-1.038,2.572-2.561,4.859-4.431,6.86
		c-0.276,0.287-0.276,0.715,0,1.001c0.277,0.286,0.692,0.286,0.97,0c2.008-2.145,3.599-4.573,4.707-7.361
		C53.122,40.752,52.983,40.323,52.638,40.181L52.638,40.181z"/>
	<path fill="#326ED1" d="M24.395,52.688c-2.492-1.001-4.845-2.43-6.853-4.288c-0.277-0.286-0.692-0.214-0.969,0.071
		c-0.277,0.286-0.208,0.715,0.069,1c2.146,2.001,4.569,3.502,7.269,4.574c0.346,0.143,0.762-0.071,0.9-0.429
		C24.88,53.26,24.741,52.83,24.395,52.688L24.395,52.688z"/>
	<path fill="#326ED1" d="M37.756,47.185c0.138,0.357,0.553,0.501,0.898,0.357c1.731-0.787,3.393-1.93,4.776-3.359
		c0.276-0.286,0.276-0.714,0-1s-0.692-0.286-0.969,0c-1.246,1.287-2.769,2.287-4.36,3.072
		C37.756,46.398,37.617,46.828,37.756,47.185L37.756,47.185z"/>
	<path fill="#326ED1" d="M47.03,30.747c0,0.429,0.347,0.715,0.761,0.643c0.417,0,0.692-0.357,0.624-0.786
		c-0.139-2.001-0.624-3.931-1.454-5.718c-0.138-0.357-0.553-0.5-0.898-0.357c-0.348,0.143-0.485,0.572-0.348,0.929
		C46.477,27.174,46.893,28.96,47.03,30.747L47.03,30.747z"/>
	<path fill="#326ED1" d="M47.584,34.319c-0.346-0.071-0.761,0.214-0.83,0.572c-0.346,1.786-0.97,3.502-1.869,5.075
		c-0.208,0.356-0.069,0.784,0.208,0.999c0.346,0.215,0.761,0.072,0.97-0.214c0.968-1.716,1.66-3.573,2.006-5.575
		C48.208,34.748,47.999,34.392,47.584,34.319L47.584,34.319z"/>
	<path fill="#326ED1" d="M19.55,40.895c-0.208-0.357-0.624-0.429-0.969-0.144c-0.346,0.215-0.415,0.644-0.138,1.001
		c1.107,1.645,2.492,3.073,4.084,4.217c0.346,0.215,0.762,0.143,0.969-0.143c0.208-0.358,0.138-0.786-0.138-1.001
		C21.765,43.683,20.519,42.396,19.55,40.895L19.55,40.895z"/>
	<path fill="#326ED1" d="M30.002,15.738c0,0.357,0.346,0.644,0.762,0.644c1.8-0.144,3.529,0,5.261,0.5
		c0.346,0.072,0.761-0.143,0.83-0.5c0.069-0.358-0.139-0.787-0.484-0.858c-1.869-0.5-3.807-0.715-5.746-0.572
		C30.279,15.023,29.933,15.309,30.002,15.738L30.002,15.738z"/>
	<path fill="#326ED1" d="M17.266,38.179c0.346-0.142,0.554-0.57,0.415-0.928c-0.623-1.716-0.9-3.502-0.9-5.36
		c0-0.429-0.276-0.715-0.691-0.715c-0.416,0-0.692,0.357-0.692,0.715c0,2.001,0.346,3.93,0.969,5.788
		C16.504,38.108,16.919,38.322,17.266,38.179L17.266,38.179z"/>
	<path fill="#326ED1" d="M34.57,48.827c0.347-0.07,0.623-0.428,0.555-0.786c-0.07-0.356-0.416-0.643-0.762-0.571
		c-2.561,0.429-5.191,0.143-7.614-0.786c-0.347-0.143-0.762,0.071-0.9,0.429s0.069,0.786,0.415,0.929
		C29.033,49.042,31.872,49.257,34.57,48.827L34.57,48.827z"/>
	<path fill="#326ED1" d="M22.319,19.954c1.384-1.144,2.907-2.072,4.568-2.715c0.346-0.144,0.553-0.572,0.415-0.929
		c-0.139-0.357-0.554-0.572-0.9-0.429c-1.799,0.644-3.53,1.644-4.984,2.931c-0.277,0.285-0.347,0.714-0.069,1
		C21.557,20.169,21.972,20.169,22.319,19.954L22.319,19.954z"/>
	<path fill="#326ED1" d="M40.316,17.239c-0.347-0.214-0.762-0.072-0.97,0.286c-0.208,0.357-0.069,0.786,0.276,1
		c1.524,0.928,2.84,2.144,4.016,3.573c0.278,0.286,0.692,0.358,0.97,0.072c0.276-0.286,0.346-0.715,0.068-1
		C43.432,19.598,41.979,18.311,40.316,17.239L40.316,17.239z"/>
	<path fill="#326ED1" d="M18.442,22.099c-1.107,1.644-1.938,3.43-2.492,5.36c-0.07,0.358,0.138,0.787,0.484,0.858
		c0.346,0.072,0.762-0.143,0.831-0.5c0.484-1.787,1.246-3.43,2.284-4.931c0.208-0.358,0.138-0.786-0.138-1.001
		C19.134,21.67,18.719,21.813,18.442,22.099L18.442,22.099z"/>
	<path fill="#326ED1" d="M39.139,24.529c-1.869-1.93-4.361-3.073-7.199-3.073c-5.607,0-10.175,4.717-10.175,10.505
		s4.568,10.505,10.175,10.505s10.175-4.717,10.175-10.505C42.115,29.031,41.008,26.458,39.139,24.529L39.139,24.529z M31.94,41.038
		c-4.846,0-8.792-4.073-8.792-9.077c0-5.002,3.946-9.076,8.792-9.076c2.146,0,4.154,0.858,5.677,2.215l-3.946,4.002
		c0,0,0,0.071-0.069,0.071c-0.485-0.357-1.108-0.5-1.73-0.5c-1.731,0-3.185,1.501-3.185,3.288c0,1.787,1.384,3.288,3.185,3.288
		c1.73,0,3.184-1.501,3.184-3.288c0-0.644-0.207-1.287-0.484-1.787c0,0,0.069,0,0.069-0.071l3.946-4.074
		c1.315,1.573,2.146,3.645,2.146,5.861C40.731,36.965,36.785,41.038,31.94,41.038z"/>
	<path fill="#326ED1" d="M32.632,25.387c0-0.929-1.522-0.929-1.522,0C31.11,26.387,32.632,26.387,32.632,25.387z"/>
	<path fill="#326ED1" d="M29.933,25.673c-0.138-0.358-0.554-0.5-0.9-0.358c-2.492,1.215-4.084,3.789-4.084,6.576
		c0,0.429,0.277,0.714,0.692,0.714c0.415,0,0.692-0.285,0.692-0.714c0-2.288,1.315-4.36,3.322-5.289
		C29.933,26.459,30.071,26.03,29.933,25.673L29.933,25.673z"/>
</g>
</svg>
