<?xml version="1.0" encoding="utf-8"?>
<!-- Generator: Adobe Illustrator 16.0.0, SVG Export Plug-In . SVG Version: 6.00 Build 0)  -->
<!DOCTYPE svg PUBLIC "-//W3C//DTD SVG 1.1//EN" "http://www.w3.org/Graphics/SVG/1.1/DTD/svg11.dtd">
<svg version="1.1" id="Layer_1" xmlns="http://www.w3.org/2000/svg" xmlns:xlink="http://www.w3.org/1999/xlink" x="0px" y="0px"
	 width="64px" height="64px" viewBox="0 0 64 64" enable-background="new 0 0 64 64" xml:space="preserve">
<g>
	<path fill="#DC4437" d="M42.203,48.259v0.679c0,0.571-0.487,1.033-1.088,1.033H21.67c-0.603,0-1.09-0.462-1.09-1.033v-0.679
		c0-0.473-0.405-0.854-0.904-0.854c-0.5,0-0.904,0.382-0.904,0.854v0.679c0,1.516,1.298,2.746,2.899,2.746h19.445
		c1.598,0,2.897-1.23,2.897-2.746v-0.679c0-0.473-0.405-0.854-0.904-0.854S42.203,47.786,42.203,48.259z M12.707,46.546h11.968
		c1.196,0,2.166-0.917,2.166-2.048V27.246c0-0.543-0.228-1.064-0.634-1.448c-0.407-0.384-0.957-0.602-1.531-0.602h-1.916
		c-0.134,0-0.258-0.071-0.318-0.185l-0.632-1.181c-0.368-0.69-1.116-1.125-1.933-1.125H17.49c-0.817,0-1.565,0.435-1.933,1.126
		l-0.628,1.18c-0.061,0.114-0.184,0.185-0.319,0.185h-1.903c-1.196,0-2.165,0.918-2.165,2.05v17.251
		c0,0.543,0.229,1.064,0.635,1.448C11.582,46.331,12.133,46.546,12.707,46.546L12.707,46.546z M33.647,27.554L31.33,37.796
		c-0.058,0.253,0.01,0.516,0.182,0.717c0.171,0.2,0.429,0.316,0.702,0.316h8.113l-0.003,3.454h-2.64
		c-0.498,0-0.905,0.383-0.905,0.854v2.532c0,0.473,0.407,0.855,0.905,0.855h9.947c0.5,0,0.904-0.383,0.904-0.855v-2.532
		c0-0.472-0.404-0.854-0.904-0.854h-2.671v-3.454h8.098c0.273,0,0.533-0.116,0.704-0.316c0.172-0.201,0.236-0.464,0.182-0.717
		l-1.155-5.099c-0.002-0.017-0.006-0.031-0.011-0.046l-1.152-5.098c-0.091-0.394-0.457-0.676-0.885-0.676h-16.21
		C34.104,26.877,33.736,27.16,33.647,27.554L33.647,27.554z M12.707,44.835h11.968c0.197,0,0.357-0.15,0.357-0.337V27.246
		c0-0.09-0.038-0.176-0.105-0.238c-0.067-0.063-0.157-0.1-0.252-0.1h-1.916c-0.816,0-1.564-0.435-1.932-1.125l-0.631-1.181
		c-0.06-0.114-0.184-0.186-0.319-0.186H17.49c-0.135,0-0.258,0.072-0.318,0.186l-0.628,1.179c-0.368,0.691-1.115,1.126-1.933,1.126
		h-1.903c-0.196,0-0.357,0.151-0.357,0.338v17.252c0,0.09,0.038,0.176,0.106,0.238C12.521,44.799,12.612,44.835,12.707,44.835
		L12.707,44.835z M46.729,43.995v0.819H38.59v-0.819H46.729z M24.072,28.556c0-0.472-0.404-0.856-0.904-0.856h-9.009
		c-0.499,0-0.904,0.384-0.904,0.856v14.566c0,0.472,0.405,0.855,0.904,0.855h9.009c0.5,0,0.904-0.384,0.904-0.855V28.556z
		 M42.135,38.829l-0.002,3.452h1.02v-3.452H42.135z M22.264,29.411v12.854h-7.201V29.411H22.264z M18.577,32.33l-2.405,3.037
		c-0.206,0.261-0.239,0.606-0.085,0.896c0.153,0.291,0.466,0.474,0.808,0.474h1.776l-1.294,1.605
		c-0.303,0.374-0.227,0.911,0.17,1.198s0.965,0.214,1.268-0.161l2.403-2.98c0.208-0.258,0.244-0.606,0.091-0.898
		c-0.152-0.292-0.466-0.476-0.81-0.476h-1.796l1.322-1.67c0.3-0.378,0.218-0.914-0.182-1.197
		C19.444,31.874,18.876,31.951,18.577,32.33L18.577,32.33z M37.773,37.118l0.494-3.409h-4.163l-0.772,3.409H37.773z M40.094,33.709
		l-0.498,3.409h6.387l-0.497-3.409H40.094z M51.169,33.709h-3.857l0.496,3.409h4.135L51.169,33.709z M34.49,31.998h4.027l0.496-3.41
		h-3.75L34.49,31.998z M40.342,31.998h4.896l-0.496-3.41H40.84L40.342,31.998z M46.567,28.588l0.496,3.41h3.72l-0.773-3.41H46.567z
		 M33.151,24.921v-0.799c0-0.472-0.407-0.855-0.905-0.855s-0.904,0.384-0.904,0.855v0.799c0,0.473,0.406,0.856,0.904,0.856
		S33.151,25.394,33.151,24.921z M27.092,21.618l-0.596,0.563c-0.352,0.334-0.352,0.877,0,1.21c0.353,0.335,0.926,0.335,1.279,0
		l0.595-0.563c0.353-0.334,0.353-0.877,0-1.21C28.017,21.284,27.444,21.284,27.092,21.618z M36.146,22.828l0.596,0.563
		c0.354,0.335,0.927,0.335,1.28,0c0.351-0.333,0.351-0.876,0-1.21l-0.596-0.563c-0.353-0.334-0.927-0.334-1.28,0
		C35.795,21.951,35.795,22.494,36.146,22.828z M36.318,19.003c0-2.114-1.814-3.832-4.053-3.832c-2.238,0-4.053,1.718-4.053,3.832
		s1.815,3.83,4.053,3.83S36.318,21.117,36.318,19.003z M34.512,19.003c0,1.169-1.008,2.119-2.246,2.119s-2.246-0.949-2.246-2.119
		c0-1.171,1.007-2.12,2.246-2.12S34.512,17.833,34.512,19.003z M37.634,19.868h0.844c0.498,0,0.905-0.383,0.905-0.855
		s-0.407-0.856-0.905-0.856h-0.844c-0.498,0-0.902,0.384-0.902,0.856S37.136,19.868,37.634,19.868z M26.884,18.138H26.04
		c-0.499,0-0.904,0.383-0.904,0.855c0,0.473,0.405,0.856,0.904,0.856h0.844c0.498,0,0.903-0.383,0.903-0.856
		C27.787,18.521,27.382,18.138,26.884,18.138z M37.427,16.388l0.596-0.563c0.354-0.334,0.354-0.876,0-1.21s-0.925-0.334-1.278,0
		l-0.595,0.564c-0.354,0.333-0.354,0.876,0,1.21C36.502,16.722,37.074,16.722,37.427,16.388z M28.371,15.178l-0.596-0.564
		c-0.353-0.334-0.926-0.334-1.279,0c-0.352,0.334-0.352,0.876,0,1.21l0.596,0.563c0.352,0.334,0.926,0.334,1.278,0
		C28.723,16.054,28.723,15.511,28.371,15.178z M33.151,13.971v-0.798c0-0.472-0.405-0.856-0.904-0.856s-0.904,0.384-0.904,0.856
		v0.798c0,0.473,0.405,0.856,0.904,0.856S33.151,14.443,33.151,13.971z"/>
</g>
</svg>
