<?xml version="1.0" encoding="utf-8"?>
<!-- Generator: Adobe Illustrator 16.0.0, SVG Export Plug-In . SVG Version: 6.00 Build 0)  -->
<!DOCTYPE svg PUBLIC "-//W3C//DTD SVG 1.1//EN" "http://www.w3.org/Graphics/SVG/1.1/DTD/svg11.dtd">
<svg version="1.1" id="Layer_1" xmlns="http://www.w3.org/2000/svg" xmlns:xlink="http://www.w3.org/1999/xlink" x="0px" y="0px"
	 width="64px" height="64px" fill="#09821D" viewBox="0 0 64 64" enable-background="new 0 0 64 64" xml:space="preserve">
<g>
	<path  d="M21.628,29.238c-2.864,0-5.186,2.262-5.186,5.054v3.369c0,2.791,2.322,5.054,5.186,5.054h20.743
		c2.864,0,5.187-2.263,5.187-5.054v-3.369c0-2.792-2.322-5.054-5.187-5.054H21.628z M26.814,35.977c0,0.93-0.774,1.685-1.729,1.685
		c-0.955,0-1.729-0.755-1.729-1.685s0.773-1.685,1.729-1.685C26.04,34.292,26.814,35.047,26.814,35.977z M32,37.661
		c0.955,0,1.729-0.755,1.729-1.685S32.955,34.292,32,34.292s-1.729,0.755-1.729,1.685S31.045,37.661,32,37.661z M40.643,35.977
		c0,0.93-0.774,1.685-1.728,1.685c-0.955,0-1.729-0.755-1.729-1.685s0.774-1.685,1.729-1.685
		C39.868,34.292,40.643,35.047,40.643,35.977z"/>
	<path  d="M7.8,14.077c0-2.792,2.322-5.054,5.186-5.054h38.028c2.864,0,5.187,2.263,5.187,5.054v33.692
		c0,2.792-2.322,5.055-5.187,5.055H12.986c-2.864,0-5.186-2.263-5.186-5.055V14.077z M11.257,22.5v25.269
		c0,0.931,0.774,1.686,1.729,1.686h38.028c0.955,0,1.729-0.755,1.729-1.686V22.5H11.257z M17.874,15.761
		c0,0.93-0.748,1.685-1.669,1.685c-0.922,0-1.669-0.754-1.669-1.685s0.747-1.685,1.669-1.685
		C17.126,14.077,17.874,14.831,17.874,15.761z M21.211,17.446c0.921,0,1.669-0.754,1.669-1.685s-0.748-1.685-1.669-1.685
		c-0.922,0-1.669,0.754-1.669,1.685S20.29,17.446,21.211,17.446z M27.888,15.761c0,0.93-0.748,1.685-1.669,1.685
		s-1.669-0.754-1.669-1.685s0.748-1.685,1.669-1.685S27.888,14.831,27.888,15.761z"/>
</g>
</svg>
