<?xml version="1.0" encoding="utf-8"?>
<!-- Generator: Adobe Illustrator 16.0.0, SVG Export Plug-In . SVG Version: 6.00 Build 0)  -->
<!DOCTYPE svg PUBLIC "-//W3C//DTD SVG 1.1//EN" "http://www.w3.org/Graphics/SVG/1.1/DTD/svg11.dtd">
<svg version="1.1" id="Layer_1" xmlns="http://www.w3.org/2000/svg" xmlns:xlink="http://www.w3.org/1999/xlink" x="0px" y="0px"
	 width="64px" height="64px" viewBox="0 0 64 64" enable-background="new 0 0 64 64" xml:space="preserve">
<g>
	<path fill="#2064D4" d="M59.893,2.956h-46.89c-0.682,0-1.234,0.479-1.234,1.068v49.097c0,0.283,0.129,0.556,0.361,0.756
		c0.231,0.2,0.544,0.313,0.873,0.313h46.89c0.326,0,0.64-0.113,0.871-0.313s0.361-0.473,0.361-0.756V4.024
		c0-0.283-0.13-0.555-0.361-0.755S60.219,2.956,59.893,2.956z M31.512,16.832c0-0.589,0.552-1.066,1.232-1.066h7.404
		c0.327,0,0.641,0.112,0.873,0.312c0.23,0.2,0.362,0.472,0.362,0.754v10.674c0,0.283-0.132,0.554-0.362,0.755
		c-0.232,0.199-0.546,0.312-0.873,0.312h-7.404c-0.68,0-1.232-0.478-1.232-1.067V16.832z M19.172,21.101
		c0-0.589,0.552-1.067,1.234-1.067h7.403c0.328,0,0.643,0.112,0.874,0.312c0.232,0.201,0.36,0.472,0.36,0.755v6.405
		c0,0.283-0.128,0.554-0.36,0.755c-0.231,0.199-0.545,0.312-0.874,0.312h-7.403c-0.682,0-1.234-0.478-1.234-1.067V21.101z
		 M52.488,47.784H20.406c-0.682,0-1.234-0.478-1.234-1.066s0.552-1.068,1.234-1.068h32.083c0.68,0,1.232,0.479,1.232,1.068
		S53.168,47.784,52.488,47.784z M52.488,41.381H20.406c-0.682,0-1.234-0.477-1.234-1.067c0-0.59,0.552-1.067,1.234-1.067h32.083
		c0.68,0,1.232,0.478,1.232,1.067C53.721,40.904,53.168,41.381,52.488,41.381z M52.488,34.978H20.406
		c-0.682,0-1.234-0.478-1.234-1.068c0-0.59,0.552-1.067,1.234-1.067h32.083c0.68,0,1.232,0.478,1.232,1.067
		C53.721,34.5,53.168,34.978,52.488,34.978z M53.721,27.506c0,0.283-0.129,0.554-0.36,0.755c-0.23,0.199-0.546,0.312-0.872,0.312
		h-7.405c-0.68,0-1.232-0.478-1.232-1.067V10.428c0-0.59,0.553-1.068,1.232-1.068h7.405c0.326,0,0.642,0.113,0.872,0.313
		c0.231,0.199,0.36,0.472,0.36,0.755V27.506z"/>
	<path fill="#2064D4" d="M9.3,55.256V11.495H3.131c-0.681,0-1.234,0.478-1.234,1.066v49.1c0,0.283,0.128,0.555,0.362,0.754
		c0.231,0.2,0.544,0.313,0.873,0.313h45.655c0.327,0,0.641-0.112,0.872-0.313c0.232-0.199,0.362-0.471,0.362-0.754v-5.337H10.534
		C9.853,56.324,9.3,55.847,9.3,55.256z"/>
</g>
</svg>
