<?xml version="1.0" encoding="utf-8"?>
<!-- Generator: Adobe Illustrator 16.0.0, SVG Export Plug-In . SVG Version: 6.00 Build 0)  -->
<!DOCTYPE svg PUBLIC "-//W3C//DTD SVG 1.1//EN" "http://www.w3.org/Graphics/SVG/1.1/DTD/svg11.dtd">
<svg version="1.1" id="Layer_1" xmlns="http://www.w3.org/2000/svg" xmlns:xlink="http://www.w3.org/1999/xlink" x="0px" y="0px"
	 width="64px" height="64px" viewBox="0 0 64 64" enable-background="new 0 0 64 64" xml:space="preserve">
<g transform="translate(0.000000,1080.000000) scale(0.100000,-0.100000)">
	<path fill="#9838F4" d="M171.982,10701.034c-38.457-3.613-73.242-19.907-100.146-46.934
		c-24.414-24.473-39.941-55.288-45.391-89.951c-1.304-8.359-1.782-30.459-0.894-40.181c4.805-51.079,31.704-110.161,78.936-173.569
		c20.088-26.963,41.362-51.611,66.846-77.393c14.399-14.521,14.517-14.639,15.703-13.574c0.713,0.654,1.66,1.25,2.134,1.426
		s28.56,16.475,62.397,36.211l61.514,35.908l2.075-1.416c6.099-4.16,15.41-1.904,19.492,4.668c1.543,2.559,1.777,3.496,1.777,7.178
		c0,3.73-0.234,4.619-1.836,7.168l-1.836,2.959l20.039,28.984l19.961,29.043l5.098-0.244c5.996-0.234,9.238,1.006,12.207,4.561
		c1.895,2.314,3.555,6.875,3.555,9.727c0,0.879,0.234,1.66,0.586,1.66c0.313,0,13.867,2.422,30.176,5.332
		c16.348,2.959,29.922,5.332,30.273,5.332c0.293,0,0.605-0.361,0.605-0.84c0-1.475,4.668-6.152,7.227-7.168
		c6.211-2.48,13.574-0.352,17.07,4.922c2.07,3.145,2.656,5.684,2.129,9.482c-0.176,1.543-0.41,3.32-0.488,4.033
		c-0.117,1.006,4.922,5.215,26.504,21.865c14.688,11.318,27.012,20.859,27.422,21.211c0.547,0.415,1.133,0.239,2.148-0.708
		l1.367-1.245l9.414,9.6c30.039,30.635,52.676,64.888,62.051,93.809c4.023,12.5,4.785,17.539,4.785,30.811
		c0.059,10.493-0.117,12.505-1.348,17.485c-3.75,15.049-9.902,25.952-20.742,36.797c-14.355,14.341-30.762,21.572-50.605,22.285
		c-17.91,0.649-32.012-3.203-46.172-12.622c-24.473-16.24-37.324-45.039-33.418-74.609c4.375-33.423,27.91-73.838,66.074-113.657
		c4.922-5.098,5.508-5.928,4.746-6.699c-0.488-0.474-12.754-10.015-27.207-21.216l-26.367-20.381l-1.953,1.719
		c-6.289,5.566-14.355,5.332-19.863-0.596c-2.832-3.027-3.965-5.801-3.965-9.961c0-1.416-0.117-2.539-0.293-2.539
		s-13.633-2.373-30-5.332c-16.289-2.91-29.863-5.332-30.156-5.332s-1.055,0.996-1.719,2.246c-2.48,4.863-6.875,7.461-12.5,7.461
		c-12.324,0-18.613-14.395-10.137-23.34l2.246-2.373l-19.492-28.271c-10.723-15.586-19.844-28.672-20.254-29.092
		c-0.605-0.596-1.25-0.537-3.379,0.42c-2.91,1.357-6.772,1.533-10.2,0.586c-2.905-0.762-6.816-4.326-8.179-7.344
		c-1.362-2.91-1.484-8.418-0.239-11.387c0.771-1.777,0.771-2.305,0.181-2.832c-0.596-0.605-48.774-28.75-105.659-61.816
		l-6.519-3.789l4.204,4.385c34.609,35.908,60.625,67.617,83.735,102.1c35.142,52.324,55.234,100.449,60.566,145.19
		c1.133,9.419,0.996,30.815-0.293,40c-4.102,29.863-15.762,57.065-34.497,80.591c-5.156,6.46-17.48,18.784-23.94,23.94
		c-22.935,18.252-49.36,29.81-78.223,34.136C200.132,10701.273,180.815,10701.864,171.982,10701.034z M545.43,10655.346
		c14.297-2.9,25.371-16.709,25.371-31.348c0-8.652-3.203-16.235-9.473-22.578c-6.289-6.338-13.633-9.419-22.52-9.419
		c-9.258,0-16.484,2.9-22.754,9.243c-10.684,10.605-12.637,27.378-4.629,39.644
		C518.945,10652.445,532.227,10658.075,545.43,10655.346z M193.022,10607.406c26.606-3.022,48.237-20.444,56.948-45.864
		c3.198-9.248,4.146-22.993,2.31-33.066c-4.917-27.676-27.378-49.722-55.405-54.404c-5.811-1.006-16.299-1.006-21.929,0
		c-9.897,1.66-21.333,6.582-29.038,12.388c-4.917,3.735-12.622,11.733-15.703,16.353c-3.379,5.156-6.636,11.797-8.296,17.07
		c-10.249,32.295,4.683,66.606,35.376,81.304C168.901,10606.757,180.693,10608.769,193.022,10607.406z"/>
</g>
</svg>
