<?xml version="1.0" encoding="utf-8"?>
<!-- Generator: Adobe Illustrator 16.0.0, SVG Export Plug-In . SVG Version: 6.00 Build 0)  -->
<!DOCTYPE svg PUBLIC "-//W3C//DTD SVG 1.1//EN" "http://www.w3.org/Graphics/SVG/1.1/DTD/svg11.dtd">
<svg version="1.1" id="Layer_1" xmlns="http://www.w3.org/2000/svg" xmlns:xlink="http://www.w3.org/1999/xlink" x="0px" y="0px"
	 width="64px" height="64px" viewBox="0 0 64 64" enable-background="new 0 0 64 64" xml:space="preserve">
<g>
	<path fill="#FFBC04" d="M31.867,50.663l0.817,0.925l0.797-0.942c0.578-0.686,14.367-17.013,15.322-25.021
		c0.249-2.222-0.039-4.464-0.845-6.586s-2.112-4.078-3.837-5.744C41.24,10.44,37.076,8.786,32.684,8.75
		c-4.287,0.046-8.348,1.654-11.179,4.424c-1.757,1.678-3.102,3.644-3.955,5.781c-0.853,2.136-1.194,4.398-1.006,6.652
		C17.281,33.753,31.268,49.978,31.867,50.663L31.867,50.663z M32.684,15.403c2.231,0,4.369,0.763,5.945,2.12
		c1.578,1.357,2.464,3.198,2.464,5.118s-0.886,3.76-2.464,5.117c-1.576,1.357-3.714,2.12-5.945,2.12c-2.23,0-4.369-0.763-5.946-2.12
		c-1.577-1.357-2.463-3.198-2.463-5.117s0.886-3.76,2.463-5.118C28.314,16.166,30.453,15.403,32.684,15.403z"/>
	<path fill="#FFBC04" d="M40.874,47.268l-0.199,1.714c6.835,0.583,9.486,1.715,9.705,2.109c-0.418,0.909-6.676,2.521-17.694,2.521
		c-11.019,0-17.277-1.611-17.695-2.436c0.199-0.429,2.67-1.527,9.047-2.127l-0.22-1.715c-7.173,0.687-10.819,1.955-10.819,3.808
		c0,4.151,18.871,4.201,19.667,4.201s19.667,0,19.667-4.201C52.353,48.759,46.116,47.713,40.874,47.268L40.874,47.268z"/>
</g>
</svg>
