<?xml version="1.0" encoding="utf-8"?>
<!-- Generator: Adobe Illustrator 16.0.0, SVG Export Plug-In . SVG Version: 6.00 Build 0)  -->
<!DOCTYPE svg PUBLIC "-//W3C//DTD SVG 1.1//EN" "http://www.w3.org/Graphics/SVG/1.1/DTD/svg11.dtd">
<svg version="1.1" id="Layer_1" xmlns="http://www.w3.org/2000/svg" xmlns:xlink="http://www.w3.org/1999/xlink" x="0px" y="0px"
	 width="64px" height="64px" viewBox="0 0 64 64" enable-background="new 0 0 64 64" xml:space="preserve">
<g>
	<path fill="#F01C24" d="M13.972,34.287h38.403c3.202-0.038,6.147-1.543,7.765-3.968c1.615-2.426,1.668-5.417,0.136-7.884
		s-4.423-4.05-7.622-4.172c-0.074-2.083-1.069-4.059-2.773-5.509c-1.705-1.451-3.986-2.263-6.361-2.264
		c-1.042,0-2.079,0.158-3.06,0.47c-1.254-2.402-3.528-4.281-6.336-5.238c-2.809-0.957-5.929-0.916-8.704,0.113
		c-2.774,1.03-4.982,2.967-6.156,5.402c-2.355-0.587-4.889-0.17-6.841,1.125c-1.953,1.298-3.099,3.323-3.097,5.473
		c-0.004,0.494,0.053,0.986,0.172,1.469c-2.361,1.167-4.009,3.196-4.5,5.534c-0.49,2.34,0.229,4.75,1.962,6.579
		c1.733,1.828,4.303,2.886,7.013,2.889L13.972,34.287L13.972,34.287z"/>
	<path fill="#F01C24" d="M61.865,47.575c-0.025-0.043-0.056-0.085-0.086-0.125c-0.032-0.057-0.065-0.115-0.106-0.168l-3.824-4.038
		c-0.237-0.249-0.59-0.391-0.958-0.387c-0.286,0.002-0.564,0.091-0.784,0.251c-0.247,0.182-0.401,0.44-0.432,0.723
		c-0.027,0.279,0.07,0.558,0.279,0.774l2.17,2.292H47.604v-8.286c0-0.588-0.545-1.066-1.215-1.066s-1.214,0.478-1.214,1.066v9.352
		c0,0.588,0.544,1.065,1.214,1.065h11.735l-2.17,2.291l0,0c-0.205,0.218-0.302,0.498-0.27,0.779c0.032,0.28,0.19,0.538,0.44,0.718
		c0.217,0.158,0.491,0.246,0.774,0.25c0.37,0.006,0.723-0.137,0.956-0.386l3.827-4.038c0.04-0.054,0.077-0.109,0.105-0.167
		c0.03-0.04,0.056-0.083,0.077-0.126c0.103-0.25,0.103-0.522,0-0.771V47.575z"/>
	<path fill="#F01C24" d="M19.931,37.502c-0.33,0-0.646,0.118-0.875,0.327c-0.229,0.209-0.351,0.491-0.339,0.78v8.328H8.197
		l2.171-2.291l0,0c0.22-0.219,0.33-0.508,0.302-0.798c-0.029-0.291-0.194-0.559-0.456-0.74c-0.22-0.16-0.498-0.249-0.785-0.251
		c-0.368-0.004-0.721,0.138-0.956,0.387l-3.826,4.038c-0.041,0.053-0.076,0.111-0.105,0.168c-0.032,0.04-0.06,0.082-0.086,0.125
		c-0.104,0.25-0.104,0.522,0,0.773c0.024,0.044,0.052,0.087,0.086,0.125c0.03,0.058,0.065,0.114,0.105,0.167l3.826,4.038
		c0.235,0.249,0.588,0.393,0.956,0.386c0.284-0.003,0.558-0.091,0.775-0.251c0.247-0.182,0.402-0.439,0.431-0.72
		c0.03-0.281-0.07-0.56-0.276-0.776l-2.144-2.29h11.716c0.672,0,1.215-0.479,1.215-1.066v-9.352c0.015-0.289-0.109-0.573-0.338-0.78
		C20.579,37.62,20.263,37.502,19.931,37.502L19.931,37.502z"/>
	<path fill="#F01C24" d="M37.771,53.274c-0.284-0.002-0.559,0.084-0.775,0.244l-2.611,1.879v-16.98c0-0.588-0.544-1.067-1.214-1.067
		c-0.671,0-1.215,0.478-1.215,1.067v16.98l-2.611-1.879c-0.513-0.374-1.273-0.313-1.703,0.134c-0.208,0.218-0.307,0.496-0.279,0.778
		s0.185,0.542,0.432,0.724l4.602,3.358l0,0c0.063,0.039,0.131,0.071,0.2,0.101l0.134,0.067c0.142,0.046,0.291,0.072,0.441,0.075
		c0.149-0.005,0.296-0.029,0.438-0.075c0.048-0.02,0.094-0.047,0.135-0.076c0.071-0.021,0.138-0.053,0.2-0.092l4.601-3.358l0,0
		c0.389-0.287,0.532-0.758,0.359-1.176C38.731,53.559,38.281,53.278,37.771,53.274L37.771,53.274z"/>
</g>
</svg>
