<?xml version="1.0" encoding="utf-8"?>
<!-- Generator: Adobe Illustrator 16.0.0, SVG Export Plug-In . SVG Version: 6.00 Build 0)  -->
<!DOCTYPE svg PUBLIC "-//W3C//DTD SVG 1.1//EN" "http://www.w3.org/Graphics/SVG/1.1/DTD/svg11.dtd">
<svg version="1.1" id="Layer_1" xmlns="http://www.w3.org/2000/svg" xmlns:xlink="http://www.w3.org/1999/xlink" x="0px" y="0px"
	 width="64px" height="64px" viewBox="0 0 64 64" enable-background="new 0 0 64 64" xml:space="preserve">
<g>
	<path fill="#109C5C" d="M32.741,14.179c-15.118,0-27.323,12.189-27.323,27.29c0,1.031,0.062,2.06,0.183,3.031h54.28
		c0.12-0.972,0.179-2.001,0.179-3.031C60.062,26.368,47.857,14.179,32.741,14.179L32.741,14.179z M32.133,15.998h1.214v6.064h-1.214
		V15.998z M13.311,42.076H7.239v-1.214h6.072V42.076z M14.585,34.494L9,32.129l0.485-1.09l5.587,2.365L14.585,34.494z
		 M18.594,28.188l-4.312-4.305l0.851-0.849l4.311,4.305L18.594,28.188z M24.848,23.7l-2.307-5.64l1.154-0.485l2.306,5.639
		L24.848,23.7z M35.653,40.317c-1.092,1.757-3.521,2.06-4.978,0.606c-1.459-1.457-1.154-3.941,0.607-4.973l10.93-6.611
		L35.653,40.317z M40.876,23.821l-1.094-0.486l2.367-5.578l1.093,0.484L40.876,23.821z M46.037,27.338l4.31-4.306l0.851,0.849
		l-4.311,4.305L46.037,27.338z M50.529,33.585l5.646-2.304l0.486,1.152l-5.708,2.304L50.529,33.585z M58.24,42.076h-6.072v-1.214
		h6.072V42.076z"/>
</g>
</svg>
