<?xml version="1.0" encoding="utf-8"?>
<!-- Generator: Adobe Illustrator 16.0.0, SVG Export Plug-In . SVG Version: 6.00 Build 0)  -->
<!DOCTYPE svg PUBLIC "-//W3C//DTD SVG 1.1//EN" "http://www.w3.org/Graphics/SVG/1.1/DTD/svg11.dtd">
<svg version="1.1" id="Layer_1" xmlns="http://www.w3.org/2000/svg" xmlns:xlink="http://www.w3.org/1999/xlink" x="0px" y="0px"
	 width="64px" height="64px" viewBox="0 0 64 64" enable-background="new 0 0 64 64" xml:space="preserve">
<g>
	<path fill="#1775E8" d="M32,15.128c-13.33,0-24.817,6.91-30.083,16.871C7.182,41.964,18.668,48.871,32,48.871
		s24.813-6.91,30.084-16.872C56.814,22.038,45.332,15.128,32,15.128z M32,44.52c-7.875,0-14.253-5.604-14.253-12.521
		c0-6.909,6.378-12.512,14.253-12.512c7.873,0,14.256,5.603,14.256,12.512C46.256,38.916,39.873,44.52,32,44.52z"/>
	<path fill="#1775E8" d="M31.776,22.642c-1.246,0-2.432,0.215-3.527,0.591c1.11,0.644,1.847,1.756,1.847,3.024
		c0,1.994-1.822,3.614-4.066,3.614c-1.427,0-2.674-0.651-3.397-1.642c-0.425,0.975-0.667,2.031-0.667,3.139
		c0,4.819,4.393,8.727,9.81,8.727c5.419,0,9.81-3.907,9.81-8.727C41.586,26.549,37.195,22.642,31.776,22.642L31.776,22.642z"/>
</g>
</svg>
