<?xml version="1.0" encoding="utf-8"?>
<!-- Generator: Adobe Illustrator 16.0.0, SVG Export Plug-In . SVG Version: 6.00 Build 0)  -->
<!DOCTYPE svg PUBLIC "-//W3C//DTD SVG 1.1//EN" "http://www.w3.org/Graphics/SVG/1.1/DTD/svg11.dtd">
<svg version="1.1" id="Layer_1" xmlns="http://www.w3.org/2000/svg" xmlns:xlink="http://www.w3.org/1999/xlink" x="0px" y="0px"
	 width="64px" height="64px" viewBox="0 0 64 64" enable-background="new 0 0 64 64" xml:space="preserve">
<g>
	<path fill="#F9812A" d="M31.669,3.333c-15.716,0-28.503,12.669-28.503,28.254c0,15.579,12.787,28.247,28.503,28.247
		c15.71,0,28.498-12.668,28.498-28.247C60.167,16.004,47.38,3.333,31.669,3.333z M28.148,48.339v-3.806
		c-2.251-0.282-4.354-0.929-5.809-1.782l-1.408-0.821l2.611-5.975l2.303,1.263c1.437,0.793,3.366,1.26,5.166,1.26
		c1.85,0,3.046-0.66,3.046-1.681c0-0.516,0-1.383-3.589-2.577c-4.291-1.38-8.679-3.419-8.679-8.032c0-3.426,2.547-6.207,6.671-7.308
		v-4.051h7.136v3.681c1.696,0.226,3.213,0.667,4.628,1.346l1.657,0.799l-2.719,5.886l-2.198-1.028
		c-0.69-0.326-2.125-1.003-4.498-1.003c-1.549,0-2.478,0.467-2.478,1.248c0,0.474,0,1.008,4.093,2.401
		c3.829,1.287,8.228,3.409,8.227,8.387c0,3.565-2.668,6.473-6.981,7.635h-0.001v4.161h-7.177V48.339z M31.669,54.589v-0.712
		c12.397,0,22.483-9.994,22.483-22.288h0.722C54.875,44.275,44.463,54.589,31.669,54.589L31.669,54.589z"/>
</g>
</svg>
