<?xml version="1.0" encoding="utf-8"?>
<!-- Generator: Adobe Illustrator 16.0.0, SVG Export Plug-In . SVG Version: 6.00 Build 0)  -->
<!DOCTYPE svg PUBLIC "-//W3C//DTD SVG 1.1//EN" "http://www.w3.org/Graphics/SVG/1.1/DTD/svg11.dtd">
<svg version="1.1" id="Layer_1" xmlns="http://www.w3.org/2000/svg" xmlns:xlink="http://www.w3.org/1999/xlink" x="0px" y="0px"
	 width="64px" height="64px" viewBox="0 0 64 64" enable-background="new 0 0 64 64" xml:space="preserve">
<g>
	<path fill="#2064D4" d="M58.063,39.753c0.234-0.267,0.38-0.63,0.38-1.028V15.312c0-0.814-0.603-1.479-1.34-1.479H24.407
		c-0.739,0-1.342,0.664-1.342,1.479v23.413c0,0.398,0.146,0.765,0.382,1.029h-4.331v0.286h-0.114
		c-0.068-0.164-0.137-0.354-0.305-0.354h-1.194c-0.244,0-0.442,0.229-0.442,0.51c0,0.13,0.137,0.146,0.207,0.236
		c-0.107,5.348-1.823,7.53-3.264,8.386c-1.714,1.015-4.033,0.762-6.051-0.657c-1.323-0.934-2.088-2.21-2.542-3.541h1.954v-5.859
		H2.042v5.859h2.915c0.464,1.494,1.291,2.929,2.75,3.957c1.271,0.894,2.658,1.35,3.962,1.35c0.911,0,1.782-0.222,2.544-0.674
		c1.516-0.895,3.27-3.215,3.451-8.55h1.029c0.172,0,0.245-0.189,0.312-0.357h0.108v0.267c0,0,0.263,0.631,2.504,0.631h38.287
		c2.243,0,2.506-0.631,2.506-0.631v-0.859H58.063z M5.15,43.571h0.083c0.405,0,0.735-0.363,0.735-0.812v-2.074
		c0-0.448-0.33-0.81-0.735-0.81H4.106c-0.406,0-0.735,0.361-0.735,0.81v2.074c0,0.448,0.329,0.812,0.735,0.812h0.598
		c0.034,0.186,0.092,0.367,0.134,0.554H2.49v-4.866H6.91v4.866H5.286C5.24,43.938,5.192,43.756,5.15,43.571L5.15,43.571z
		 M57.184,38.092H24.122V15.333h33.062V38.092z"/>
	<path fill="#2064D4" d="M52.442,32.439h2.87V21.722h-2.87v-2.948H26.124v16.614h26.318V32.439L52.442,32.439z M52.442,23.374h1.366
		v7.412h-1.366V23.374z M50.943,33.734H27.626V20.427h23.317V33.734L50.943,33.734z"/>
	<path fill="#2064D4" d="M28.466,21.401h6.426V32.76h-6.426V21.401z"/>
	<path fill="#2064D4" d="M35.803,21.401h6.424V32.76h-6.424V21.401z"/>
</g>
</svg>
