<?xml version="1.0" encoding="utf-8"?>
<!-- Generator: Adobe Illustrator 16.0.0, SVG Export Plug-In . SVG Version: 6.00 Build 0)  -->
<!DOCTYPE svg PUBLIC "-//W3C//DTD SVG 1.1//EN" "http://www.w3.org/Graphics/SVG/1.1/DTD/svg11.dtd">
<svg version="1.1" id="Layer_1" xmlns="http://www.w3.org/2000/svg" xmlns:xlink="http://www.w3.org/1999/xlink" x="0px" y="0px"
	 width="64px" height="64px" viewBox="0 0 64 64" enable-background="new 0 0 64 64" xml:space="preserve">
<g>
	<path fill="#9834E4" d="M57.599,45.018H38.977c0,1.061-0.969,1.92-2.16,1.92h-8.133c-1.189,0-2.151-0.859-2.151-1.92H7.901
		c-1.151,0-2.151,0.834-2.151,1.919c0,1.069,0.962,1.928,2.151,1.928h49.697c1.19,0,2.151-0.858,2.151-1.928
		C59.751,45.875,58.789,45.018,57.599,45.018L57.599,45.018z M48.14,47.569c-0.388,0-0.7-0.278-0.7-0.633
		c0-0.347,0.313-0.625,0.7-0.625c0.398,0,0.709,0.278,0.709,0.625C48.849,47.291,48.538,47.569,48.14,47.569z M50.803,47.569
		c-0.388,0-0.7-0.278-0.7-0.633c0-0.347,0.313-0.625,0.7-0.625c0.396,0,0.709,0.278,0.709,0.625
		C51.512,47.291,51.199,47.569,50.803,47.569z M53.466,47.569c-0.388,0-0.7-0.278-0.7-0.633c0-0.347,0.313-0.625,0.7-0.625
		c0.396,0,0.71,0.278,0.71,0.625C54.176,47.291,53.862,47.569,53.466,47.569z"/>
	<path fill="#9834E4" d="M53.29,14.375H12.209c-1.361,0-2.459,1.042-2.459,2.334v26.776c0,0.428,0.361,0.778,0.82,0.778h44.362
		c0.451,0,0.818-0.351,0.818-0.778V16.709c0-1.292-1.105-2.334-2.458-2.334H53.29z M52.19,17.384v23.871H13.308V17.384H52.19z"/>
	<path fill="#9834E4" d="M39.961,29.958v-0.447c0-0.671,0.455-1.254,1.102-1.433l-0.627-1.932c-0.641,0.243-1.369,0.026-1.76-0.537
		c-0.07-0.115-0.152-0.224-0.236-0.333c-0.205-0.269-0.307-0.582-0.307-0.902c0-0.326,0.115-0.665,0.332-0.933l-1.648-1.202
		l-0.014,0.032c-0.365,0.55-1.063,0.799-1.688,0.576c-0.141-0.057-0.283-0.096-0.43-0.141c-0.646-0.191-1.08-0.787-1.049-1.452
		v-0.052h-2.039c0.032,0.684-0.396,1.311-1.049,1.503c-0.134,0.038-0.262,0.077-0.396,0.128c-0.16,0.057-0.326,0.089-0.486,0.089
		c-0.493,0-0.966-0.255-1.247-0.684l-1.65,1.202c0.428,0.531,0.447,1.292,0.025,1.835c-0.077,0.108-0.16,0.217-0.237,0.332
		c-0.288,0.41-0.742,0.633-1.221,0.633c-0.179,0-0.365-0.032-0.531-0.096l-0.633,1.931c0.665,0.186,1.119,0.787,1.106,1.471
		c-0.006,0.07-0.006,0.134-0.006,0.205s0,0.141,0.006,0.205v0.039c0,0.671-0.46,1.26-1.106,1.439l0.633,1.932
		c0.633-0.25,1.369-0.033,1.752,0.53c0.077,0.122,0.16,0.23,0.237,0.339c0.211,0.262,0.307,0.576,0.307,0.895
		c0,0.334-0.115,0.666-0.333,0.941l1.65,1.195l0.013-0.02c0.365-0.557,1.068-0.813,1.695-0.582c0.141,0.051,0.281,0.09,0.422,0.135
		c0.646,0.191,1.087,0.785,1.055,1.457v0.045h2.033v-0.045c-0.031-0.672,0.402-1.266,1.049-1.451c0.146-0.045,0.289-0.09,0.43-0.141
		c0.625-0.23,1.322,0.025,1.688,0.582l0.014,0.02l1.648-1.195c-0.428-0.531-0.447-1.293-0.025-1.836
		c0.084-0.108,0.166-0.217,0.242-0.339c0.283-0.403,0.736-0.634,1.223-0.634c0.172,0,0.357,0.033,0.531,0.104l0.625-1.932
		C40.402,31.25,39.943,30.643,39.961,29.958L39.961,29.958z M32.615,33.782c-2.223,0-4.029-1.8-4.029-4.028s1.805-4.028,4.029-4.028
		c2.227,0,4.033,1.8,4.033,4.028C36.648,31.982,34.844,33.782,32.615,33.782z"/>
</g>
</svg>
