<?xml version="1.0" encoding="utf-8"?>
<!-- Generator: Adobe Illustrator 16.0.0, SVG Export Plug-In . SVG Version: 6.00 Build 0)  -->
<!DOCTYPE svg PUBLIC "-//W3C//DTD SVG 1.1//EN" "http://www.w3.org/Graphics/SVG/1.1/DTD/svg11.dtd">
<svg version="1.1" id="Layer_1" xmlns="http://www.w3.org/2000/svg" xmlns:xlink="http://www.w3.org/1999/xlink" x="0px" y="0px"
	 width="64px" height="64px" viewBox="0 0 64 64" enable-background="new 0 0 64 64" xml:space="preserve">
<g>
	<path fill="#FF7C14" d="M20.375,53.402c3.607-1.354,4.694-2.759,4.211-5.478c2.089,0.181,3.966-0.158,5.454-1.327
		c1.497-1.175,1.922-2.578,1.515-4.075c1.042-0.104,2.084-0.1,3.029-0.326c4.202-0.999,5.469-4.922,2.352-7.262
		c-1.962-1.474-4.006-2.887-6.02-4.322c-5.339-3.809-10.679-7.615-16.018-11.421c-0.702-0.5-1.422-0.986-2.099-1.503
		c-1.616-1.235-1.645-3.149-0.089-4.373c1.55-1.22,4.122-1.312,5.826-0.136c2.549,1.759,5.043,3.564,7.56,5.352
		c3.671,2.607,7.339,5.219,11.015,7.824c1.006,0.712,2.12,1.306,3.41,1.704c1.758,0.544,3.387,0.388,4.781-0.578
		c0.701-0.486,1.329-1.06,1.844-1.663c1.212-1.418,2.283-2.902,3.512-4.313c1.654-1.904,5.012-2.263,7.379-0.849
		c1.95,1.165,2.41,3.24,1.055,4.944c-1.917,2.413-3.862,4.813-5.796,7.218c-0.95,1.182-1.891,2.368-2.864,3.542
		c-0.264,0.315-0.263,0.566-0.041,0.899c0.902,1.361,1.749,2.742,2.637,4.109c2.921,4.513,0.694,9.521-5.282,11.733
		c-4.056,1.503-8.131,2.969-12.231,4.396c-5.328,1.854-11.607,0.386-14.622-3.373C20.703,53.892,20.545,53.644,20.375,53.402
		L20.375,53.402z"/>
	<path fill="#FF7C14" d="M14.046,31.817c0.647,0.009,1.604,0.262,2.388,0.814c4.094,2.884,8.194,5.764,12.263,8.67
		c1.661,1.186,1.688,3.138,0.146,4.368c-1.594,1.272-4.163,1.365-5.887,0.158c-3.582-2.506-7.132-5.037-10.696-7.56
		c-0.5-0.354-1.016-0.693-1.504-1.055c-1.26-0.937-1.627-2.288-0.965-3.495C10.42,32.573,11.939,31.82,14.046,31.817L14.046,31.817z
		"/>
	<path fill="#FF7C14" d="M36.913,38.436c-0.041,0.873-0.81,1.874-2.402,2.417c-1.544,0.527-3.102,0.424-4.386-0.428
		c-1.916-1.271-3.738-2.622-5.598-3.941c-2.223-1.574-4.448-3.148-6.662-4.729c-1.149-0.82-1.627-1.826-1.27-2.996
		c0.743-2.428,4.516-3.268,6.986-1.561c1.537,1.063,3.038,2.156,4.557,3.234c2.312,1.641,4.612,3.292,6.94,4.919
		C36.116,36.077,36.933,36.869,36.913,38.436L36.913,38.436z"/>
	<path fill="#FF7C14" d="M8.658,38.613c1.122-0.01,2.107,0.397,2.975,1.017c2.757,1.966,5.518,3.929,8.279,5.892
		c0.565,0.402,1.146,0.793,1.702,1.203c1.771,1.305,1.853,3.258,0.203,4.522c-1.629,1.247-4.2,1.254-5.968,0.005
		c-3.244-2.296-6.466-4.607-9.723-6.893c-1.259-0.886-2.057-1.875-1.698-3.222C4.83,39.614,6.486,38.604,8.658,38.613L8.658,38.613z
		"/>
	<path fill="#FF7C14" d="M46.679,16.902c-0.848-0.058-1.371-0.276-1.669-0.741c-0.315-0.497-0.194-0.961,0.27-1.37
		c0.179-0.157,0.418-0.28,0.642-0.404c1.483-0.817,2.962-1.637,4.457-2.441c0.905-0.487,1.912-0.399,2.481,0.189
		c0.588,0.607,0.418,1.329-0.482,1.833c-1.549,0.867-3.109,1.723-4.683,2.563C47.351,16.715,46.929,16.813,46.679,16.902
		L46.679,16.902z"/>
	<path fill="#FF7C14" d="M32.763,13.023c0,0.64-0.422,1.118-1.021,1.3c-0.628,0.191-1.476,0.098-1.886-0.31
		c-1.312-1.307-2.608-2.623-3.844-3.969c-0.524-0.57-0.244-1.302,0.483-1.67c0.72-0.364,1.709-0.272,2.26,0.277
		c1.256,1.25,2.476,2.52,3.688,3.794C32.632,12.645,32.701,12.909,32.763,13.023L32.763,13.023z"/>
	<path fill="#FF7C14" d="M42.221,13.963c-1.247-0.004-1.973-0.849-1.501-1.79c0.26-0.524,0.596-1.027,0.897-1.539
		c0.516-0.875,1.007-1.757,1.55-2.623c0.419-0.667,1.24-0.937,2.072-0.729c0.921,0.23,1.425,0.92,1.032,1.635
		c-0.816,1.488-1.71,2.954-2.602,4.418C43.402,13.783,42.861,13.959,42.221,13.963L42.221,13.963z"/>
	<path fill="#FF7C14" d="M38.227,11.56c0.025,0.904-0.546,1.452-1.494,1.52c-0.924,0.066-1.713-0.424-1.834-1.199
		c-0.229-1.462-0.434-2.926-0.604-4.393c-0.036-0.309,0.028-0.668,0.219-0.938c0.333-0.473,0.951-0.676,1.663-0.58
		c0.742,0.099,1.26,0.433,1.363,1.011c0.189,1.064,0.334,2.134,0.493,3.202C38.107,10.67,38.171,11.159,38.227,11.56L38.227,11.56z"
		/>
</g>
</svg>
