<?xml version="1.0" encoding="utf-8"?>
<!-- Generator: Adobe Illustrator 16.0.0, SVG Export Plug-In . SVG Version: 6.00 Build 0)  -->
<!DOCTYPE svg PUBLIC "-//W3C//DTD SVG 1.1//EN" "http://www.w3.org/Graphics/SVG/1.1/DTD/svg11.dtd">
<svg version="1.1" id="Layer_1" xmlns="http://www.w3.org/2000/svg" xmlns:xlink="http://www.w3.org/1999/xlink" x="0px" y="0px"
	 width="64px" height="64px" viewBox="0 0 64 64" enable-background="new 0 0 64 64" xml:space="preserve">
<g>
	<path fill="#FFBC04" d="M45.194,29.956c1.263-3.082,0.818-6.591-1.168-9.201c-1.981-2.612-5.204-3.931-8.451-3.46
		c-3.246,0.469-6.022,2.658-7.285,5.742l-3.532,8.625l-1.204-0.492l-1.011,2.468l3.626,1.483l-1.011,2.471l1.205,0.493
		l-8.068,19.711l2.417,0.988l8.07-19.718l1.207,0.494L31,37.093l2.418,0.988l-1.01,2.468l1.205,0.493l-8.07,19.721l2.419,0.989
		l8.069-19.721l1.206,0.493l1.012-2.465l3.622,1.482l1.011-2.463l-1.217-0.498L45.194,29.956L45.194,29.956z"/>
	<path fill="#FFBC04" d="M41.283,15.4c0.668,0.274,1.434-0.057,1.71-0.737l3.027-7.397c0.279-0.682-0.035-1.455-0.704-1.727
		c-0.667-0.275-1.434,0.056-1.714,0.736l-3.027,7.396c-0.134,0.33-0.135,0.694-0.001,1.021C40.71,15.015,40.962,15.271,41.283,15.4
		L41.283,15.4z"/>
	<path fill="#FFBC04" d="M32.29,14.523c0.667-0.288,0.986-1.066,0.711-1.743L30.02,5.458l0,0c-0.28-0.678-1.047-0.99-1.72-0.696
		c-0.672,0.291-0.99,1.078-0.712,1.753l2.983,7.323c0.135,0.324,0.392,0.579,0.71,0.706C31.609,14.675,31.968,14.666,32.29,14.523
		L32.29,14.523z"/>
	<path fill="#FFBC04" d="M58.083,16.942c-0.276-0.671-1.04-0.985-1.709-0.695l-7.265,3.128c-0.657,0.293-0.968,1.067-0.696,1.734
		s1.023,0.981,1.689,0.704l7.262-3.113c0.325-0.135,0.585-0.399,0.72-0.729C58.221,17.64,58.219,17.269,58.083,16.942L58.083,16.942
		z"/>
	<path fill="#FFBC04" d="M25.172,20.316l-7.24-2.962c-0.667-0.273-1.434,0.059-1.715,0.739c-0.278,0.68,0.038,1.455,0.705,1.727
		l7.241,2.965c0.667,0.273,1.436-0.058,1.714-0.738C26.156,21.366,25.842,20.59,25.172,20.316z"/>
	<path fill="#FFBC04" d="M56.565,33.165l-7.241-2.962c-0.665-0.273-1.436,0.057-1.714,0.737c-0.278,0.682,0.039,1.458,0.704,1.729
		l7.242,2.965c0.667,0.272,1.435-0.06,1.713-0.737C57.549,34.211,57.232,33.438,56.565,33.165z"/>
</g>
</svg>
