<?xml version="1.0" encoding="utf-8"?>
<!-- Generator: Adobe Illustrator 16.0.0, SVG Export Plug-In . SVG Version: 6.00 Build 0)  -->
<!DOCTYPE svg PUBLIC "-//W3C//DTD SVG 1.1//EN" "http://www.w3.org/Graphics/SVG/1.1/DTD/svg11.dtd">
<svg version="1.1" id="Layer_1" xmlns="http://www.w3.org/2000/svg" xmlns:xlink="http://www.w3.org/1999/xlink" x="0px" y="0px"
	 width="64px" height="64px" viewBox="0 0 64 64" enable-background="new 0 0 64 64" xml:space="preserve">
<g>
	<path fill="#2064D4" d="M56.118,6.083H16.271c-0.579,0-1.048,0.414-1.048,0.926v42.579c0,0.244,0.11,0.48,0.306,0.653
		c0.196,0.173,0.464,0.27,0.741,0.27h39.848c0.278,0,0.545-0.098,0.741-0.27c0.196-0.173,0.309-0.409,0.309-0.653V7.009
		c0-0.246-0.112-0.481-0.308-0.655C56.662,6.182,56.397,6.083,56.118,6.083z M32,18.117c0-0.511,0.469-0.925,1.049-0.925h6.291
		c0.28,0,0.545,0.097,0.741,0.271c0.199,0.175,0.308,0.41,0.308,0.655v9.256c0,0.246-0.108,0.482-0.308,0.656
		c-0.196,0.173-0.462,0.271-0.741,0.271h-6.291c-0.58,0-1.049-0.415-1.049-0.926V18.117z M21.515,21.819
		c0-0.512,0.47-0.925,1.048-0.925h6.292c0.277,0,0.544,0.097,0.741,0.271c0.197,0.173,0.308,0.409,0.308,0.654v5.553
		c0,0.246-0.11,0.482-0.308,0.656c-0.196,0.173-0.463,0.271-0.741,0.271h-6.292c-0.579,0-1.048-0.415-1.048-0.926V21.819z
		 M49.826,44.96H22.562c-0.578,0-1.048-0.417-1.048-0.926c0-0.512,0.47-0.925,1.048-0.925h27.264c0.579,0,1.05,0.414,1.05,0.925
		C50.876,44.543,50.405,44.96,49.826,44.96z M49.826,39.404H22.562c-0.578,0-1.048-0.414-1.048-0.925
		c0-0.512,0.47-0.925,1.048-0.925h27.264c0.579,0,1.05,0.415,1.05,0.925C50.876,38.99,50.405,39.404,49.826,39.404z M49.826,33.852
		H22.562c-0.578,0-1.048-0.414-1.048-0.926c0-0.51,0.47-0.925,1.048-0.925h27.264c0.579,0,1.05,0.416,1.05,0.925
		C50.876,33.438,50.405,33.852,49.826,33.852z M50.876,27.372c0,0.246-0.113,0.482-0.308,0.656
		c-0.199,0.173-0.464,0.271-0.742,0.271h-6.291c-0.579,0-1.047-0.415-1.047-0.926v-14.81c0-0.512,0.47-0.925,1.047-0.925h6.291
		c0.279,0,0.544,0.098,0.742,0.271c0.194,0.175,0.308,0.41,0.308,0.656V27.372z"/>
	<path fill="#2064D4" d="M13.125,51.438V13.488H7.882c-0.579,0-1.048,0.415-1.048,0.926v42.578c0,0.246,0.111,0.48,0.307,0.653
		c0.196,0.174,0.463,0.271,0.741,0.271h38.798c0.279,0,0.545-0.098,0.74-0.271c0.199-0.173,0.309-0.407,0.309-0.653v-4.629H14.174
		C13.595,52.363,13.125,51.95,13.125,51.438z"/>
</g>
</svg>
