<?xml version="1.0" encoding="utf-8"?>
<!-- Generator: Adobe Illustrator 16.0.0, SVG Export Plug-In . SVG Version: 6.00 Build 0)  -->
<!DOCTYPE svg PUBLIC "-//W3C//DTD SVG 1.1//EN" "http://www.w3.org/Graphics/SVG/1.1/DTD/svg11.dtd">
<svg version="1.1" id="Layer_1" xmlns="http://www.w3.org/2000/svg" xmlns:xlink="http://www.w3.org/1999/xlink" x="0px" y="0px"
	 width="64px" height="64px" viewBox="0 0 64 64" enable-background="new 0 0 64 64" xml:space="preserve">
<g>
	<path fill="#9834E4" d="M19.718,14.813c-0.661-0.584-1.54-0.884-2.421-0.884c-0.789,0-1.58,0.239-2.226,0.727l-0.224,0.17
		c-0.698,0.529-1.123,1.267-1.196,2.08c-0.057,0.632,0.105,1.251,0.462,1.787C15.697,17.116,17.613,15.79,19.718,14.813z"/>
	<path fill="#9834E4" d="M7.547,50.824c0.987,0,1.79-0.713,1.79-1.59c0-0.879-0.802-1.592-1.79-1.592
		c-0.988,0-1.791,0.713-1.791,1.592C5.756,50.111,6.559,50.824,7.547,50.824z"/>
	<path fill="#9834E4" d="M48.747,18.609c0.318-0.516,0.461-1.104,0.406-1.703c-0.072-0.813-0.496-1.55-1.195-2.079l-0.223-0.17
		c-1.351-1.022-3.343-0.952-4.599,0.114C45.237,15.735,47.154,17.047,48.747,18.609L48.747,18.609z"/>
	<path fill="#9834E4" d="M26.647,11.591c1.317,0,2.388-0.951,2.388-2.12c0-1.17-1.071-2.121-2.388-2.121
		c-1.316,0-2.387,0.951-2.387,2.121C24.26,10.64,25.331,11.591,26.647,11.591z"/>
	<path fill="#9834E4" d="M54.701,43.4c0,0.586,0.535,1.062,1.193,1.062c0.657,0,1.194-0.476,1.194-1.062
		c0-0.584-0.537-1.061-1.194-1.061C55.236,42.341,54.701,42.816,54.701,43.4z"/>
	<path fill="#9834E4" d="M54.104,11.591c0.987,0,1.79-0.713,1.79-1.59s-0.803-1.591-1.79-1.591c-0.988,0-1.791,0.713-1.791,1.591
		C52.313,10.878,53.116,11.591,54.104,11.591z"/>
	<path fill="#9834E4" d="M56.492,55.064H6.354c-0.33,0-0.598,0.236-0.598,0.529s0.268,0.53,0.598,0.53h50.139
		c0.329,0,0.597-0.237,0.597-0.53S56.821,55.064,56.492,55.064z"/>
	<path fill="#9834E4" d="M17.733,33.329c0,0.293-0.267,0.528-0.597,0.528h-4.246c0.161,4.228,2.127,8.053,5.235,10.89l3.146-2.796
		c0.233-0.207,0.61-0.207,0.843,0s0.233,0.543,0,0.75l-3.131,2.781c0.55,0.442,1.132,0.854,1.74,1.236L15.53,50.41
		c-0.258,0.183-0.299,0.516-0.094,0.744c0.118,0.132,0.291,0.199,0.466,0.199c0.132,0,0.262-0.037,0.373-0.114l5.497-3.907
		c2.744,1.486,5.956,2.357,9.391,2.395c-0.222-0.078-0.378-0.269-0.378-0.492v-3.182c0-0.293,0.268-0.529,0.597-0.529
		c0.329,0,0.596,0.236,0.596,0.529v3.182c0,0.225-0.157,0.414-0.377,0.492c3.451-0.037,6.683-0.916,9.436-2.418l5.532,3.932
		c0.108,0.076,0.241,0.115,0.37,0.115c0.177,0,0.349-0.068,0.468-0.199c0.205-0.229,0.165-0.563-0.094-0.745l-5.232-3.718
		c0.61-0.385,1.188-0.799,1.741-1.242l-3.096-2.75c-0.232-0.207-0.232-0.543,0-0.75c0.231-0.207,0.609-0.207,0.844,0l3.105,2.761
		c3.085-2.834,5.036-6.646,5.195-10.853l-0.543-0.002h-1.079c-1.345,0-2.438-0.236-2.438-0.528c0-0.294,1.093-0.531,2.438-0.531
		h1.627c-0.14-4.137-2.006-7.895-4.983-10.721l-2.961,2.629c-0.114,0.104-0.269,0.156-0.421,0.156c-0.151,0-0.307-0.052-0.422-0.156
		c-0.233-0.207-0.233-0.542,0-0.749l2.963-2.631c-3.171-2.648-7.387-4.316-12.033-4.457v3.735c0,0.292-0.268,0.53-0.597,0.53
		c-0.007,0-0.013-0.001-0.021-0.001c-0.006,0-0.012,0.001-0.02,0.001c-0.33,0-0.597-0.238-0.597-0.53v-3.737
		C26.124,17,21.891,18.67,18.713,21.325l2.961,2.631c0.233,0.207,0.233,0.542,0,0.749c-0.116,0.104-0.269,0.156-0.422,0.156
		s-0.306-0.052-0.423-0.156l-2.959-2.628c-2.976,2.827-4.844,6.584-4.982,10.721h4.249C17.466,32.798,17.732,33.036,17.733,33.329
		L17.733,33.329z"/>
</g>
</svg>
