<?xml version="1.0" encoding="utf-8"?>
<!-- Generator: Adobe Illustrator 16.0.0, SVG Export Plug-In . SVG Version: 6.00 Build 0)  -->
<!DOCTYPE svg PUBLIC "-//W3C//DTD SVG 1.1//EN" "http://www.w3.org/Graphics/SVG/1.1/DTD/svg11.dtd">
<svg version="1.1" id="Layer_1" xmlns="http://www.w3.org/2000/svg" xmlns:xlink="http://www.w3.org/1999/xlink" x="0px" y="0px"
	 width="64px" height="64px" viewBox="0 0 64 64" enable-background="new 0 0 64 64" xml:space="preserve">
<g>
	<path fill="#FFBC04" d="M57.981,45.706H38.261c0,1.192-1.027,2.159-2.288,2.159H27.36c-1.26,0-2.279-0.967-2.279-2.159H5.351
		c-1.22,0-2.278,0.938-2.278,2.158c0,1.202,1.019,2.167,2.278,2.167h52.63c1.261,0,2.278-0.965,2.278-2.167
		C60.261,46.67,59.242,45.706,57.981,45.706L57.981,45.706z M47.965,48.575c-0.412,0-0.742-0.313-0.742-0.711
		c0-0.391,0.33-0.703,0.742-0.703c0.42,0,0.751,0.313,0.751,0.703C48.716,48.263,48.385,48.575,47.965,48.575z M50.784,48.575
		c-0.409,0-0.741-0.313-0.741-0.711c0-0.391,0.332-0.703,0.741-0.703c0.421,0,0.751,0.313,0.751,0.703
		C51.535,48.263,51.205,48.575,50.784,48.575z M53.605,48.575c-0.412,0-0.742-0.313-0.742-0.711c0-0.391,0.33-0.703,0.742-0.703
		c0.419,0,0.751,0.313,0.751,0.703C54.356,48.263,54.024,48.575,53.605,48.575z"/>
	<path fill="#FFBC04" d="M54.063,12.333H9.278c-1.484,0-2.681,1.134-2.681,2.54v29.139c0,0.466,0.393,0.847,0.894,0.847h48.36
		c0.492,0,0.894-0.381,0.894-0.847V14.873c0-1.405-1.206-2.54-2.68-2.54H54.063z M52.863,15.608v25.976H10.476V15.608H52.863z"/>
	<path fill="#FFBC04" d="M40.382,28.826v-0.503c0-0.755,0.539-1.41,1.307-1.61l-0.744-2.172c-0.76,0.273-1.624,0.029-2.088-0.604
		c-0.083-0.129-0.181-0.251-0.281-0.374c-0.243-0.302-0.363-0.654-0.363-1.014c0-0.366,0.138-0.748,0.395-1.049l-1.957-1.352
		l-0.016,0.036c-0.434,0.619-1.261,0.899-2.004,0.647c-0.166-0.064-0.335-0.108-0.509-0.158c-0.767-0.215-1.281-0.884-1.245-1.632
		v-0.058h-2.42c0.038,0.769-0.471,1.474-1.245,1.69c-0.16,0.042-0.311,0.086-0.471,0.144c-0.189,0.064-0.386,0.101-0.577,0.101
		c-0.584,0-1.146-0.287-1.479-0.769L24.726,21.5c0.508,0.597,0.531,1.452,0.03,2.063c-0.091,0.122-0.189,0.245-0.281,0.374
		c-0.341,0.46-0.88,0.712-1.449,0.712c-0.212,0-0.433-0.036-0.63-0.107l-0.751,2.171c0.789,0.208,1.328,0.884,1.313,1.653
		c-0.008,0.079-0.008,0.151-0.008,0.23s0,0.159,0.008,0.23v0.043c0,0.755-0.547,1.417-1.313,1.618l0.751,2.172
		c0.752-0.281,1.625-0.038,2.079,0.596c0.092,0.138,0.19,0.26,0.281,0.381c0.25,0.295,0.364,0.648,0.364,1.007
		c0,0.375-0.137,0.748-0.395,1.058l1.958,1.344l0.015-0.021c0.433-0.626,1.268-0.914,2.011-0.654
		c0.167,0.057,0.334,0.101,0.501,0.151c0.767,0.215,1.291,0.884,1.252,1.638v0.051h2.413v-0.051
		c-0.036-0.754,0.479-1.423,1.245-1.631c0.174-0.051,0.343-0.102,0.509-0.158c0.743-0.26,1.57,0.028,2.004,0.654l0.016,0.021
		l1.957-1.344c-0.508-0.598-0.531-1.454-0.031-2.064c0.1-0.121,0.198-0.243,0.288-0.381c0.335-0.453,0.874-0.712,1.451-0.712
		c0.204,0,0.425,0.037,0.629,0.116l0.743-2.172C40.905,30.279,40.361,29.596,40.382,28.826L40.382,28.826z M31.663,33.126
		c-2.638,0-4.781-2.024-4.781-4.53c0-2.505,2.143-4.529,4.781-4.529c2.644,0,4.788,2.023,4.788,4.529
		C36.451,31.102,34.308,33.126,31.663,33.126z"/>
</g>
</svg>
