<?xml version="1.0" encoding="utf-8"?>
<!-- Generator: Adobe Illustrator 16.0.0, SVG Export Plug-In . SVG Version: 6.00 Build 0)  -->
<!DOCTYPE svg PUBLIC "-//W3C//DTD SVG 1.1//EN" "http://www.w3.org/Graphics/SVG/1.1/DTD/svg11.dtd">
<svg version="1.1" id="Layer_1" xmlns="http://www.w3.org/2000/svg" xmlns:xlink="http://www.w3.org/1999/xlink" x="0px" y="0px"
	 width="64px" height="64px" viewBox="0 0 64 64" enable-background="new 0 0 64 64" xml:space="preserve">
<path fill="#FFBC04" d="M26.037,5.501c-0.563,0.042-1.062,0.376-1.314,0.88c-0.253,0.504-0.222,1.104,0.082,1.58
	c0.303,0.475,0.835,0.756,1.398,0.74H36.81h-0.001c0.432,0.01,0.848-0.155,1.155-0.456c0.308-0.301,0.481-0.713,0.481-1.144
	s-0.174-0.843-0.481-1.145c-0.308-0.301-0.724-0.465-1.155-0.456H26.204C26.148,5.498,26.093,5.498,26.037,5.501L26.037,5.501z
	 M26.037,11.407c-0.395,0.04-0.761,0.225-1.027,0.519c-0.267,0.295-0.414,0.678-0.413,1.075v18.828h-7.381
	c-0.41,0.002-0.803,0.16-1.1,0.444c-0.296,0.283-0.472,0.669-0.492,1.078c-0.02,0.409,0.118,0.811,0.385,1.121L30.29,51.044h0
	c0.304,0.353,0.746,0.554,1.21,0.554c0.465,0,0.907-0.201,1.212-0.554l14.289-16.571c0.269-0.312,0.406-0.714,0.386-1.125
	c-0.021-0.41-0.198-0.796-0.497-1.079c-0.298-0.282-0.693-0.44-1.104-0.439h-7.385V13.001c-0.002-0.422-0.17-0.826-0.469-1.125
	c-0.299-0.298-0.703-0.467-1.125-0.469H26.203C26.147,11.404,26.092,11.404,26.037,11.407L26.037,11.407z M7.505,43.319
	c-0.424-0.001-0.832,0.166-1.133,0.464c-0.301,0.299-0.471,0.706-0.473,1.13v10.182c-0.002,0.427,0.167,0.836,0.469,1.138
	s0.711,0.471,1.137,0.469h48c0.424-0.002,0.83-0.172,1.129-0.473c0.299-0.302,0.467-0.709,0.465-1.134V44.913
	c-0.002-0.422-0.17-0.826-0.469-1.125c-0.299-0.298-0.703-0.467-1.125-0.469H43.6l-8.466,9.815c-1.876,2.172-5.389,2.172-7.266,0
	l0,0c-0.001-0.001-0.002-0.002-0.003-0.003l-8.457-9.812L7.505,43.319z"/>
</svg>
