<?xml version="1.0" encoding="utf-8"?>
<!-- Generator: Adobe Illustrator 16.0.0, SVG Export Plug-In . SVG Version: 6.00 Build 0)  -->
<!DOCTYPE svg PUBLIC "-//W3C//DTD SVG 1.1//EN" "http://www.w3.org/Graphics/SVG/1.1/DTD/svg11.dtd">
<svg version="1.1" id="Layer_1" xmlns="http://www.w3.org/2000/svg" xmlns:xlink="http://www.w3.org/1999/xlink" x="0px" y="0px"
	 width="64px" height="64px" viewBox="0 0 64 64" enable-background="new 0 0 64 64" xml:space="preserve">
<g>
	<path fill="#FF7C14" d="M60.282,16H3.72c-0.502,0-0.981,0.221-1.334,0.615c-0.353,0.394-0.552,0.926-0.552,1.483v28.306
		c0,0.556,0.199,1.091,0.552,1.481C2.739,48.278,3.218,48.5,3.72,48.5h56.563c0.497,0,0.979-0.222,1.332-0.615
		c0.354-0.391,0.553-0.926,0.553-1.481V18.098c0-0.557-0.199-1.089-0.553-1.483C61.263,16.221,60.779,16,60.282,16z M50.854,19.67
		c0.382,0,0.726,0.255,0.869,0.647c0.148,0.393,0.066,0.843-0.202,1.144c-0.27,0.3-0.675,0.389-1.028,0.228
		c-0.351-0.163-0.58-0.545-0.58-0.97C49.913,20.14,50.332,19.671,50.854,19.67z M41.427,19.67c0.384,0,0.726,0.255,0.871,0.647
		c0.146,0.393,0.067,0.843-0.202,1.144c-0.271,0.3-0.677,0.389-1.029,0.228c-0.352-0.163-0.579-0.545-0.579-0.97
		C40.487,20.14,40.907,19.671,41.427,19.67z M32.001,19.67c0.382,0,0.726,0.255,0.869,0.647c0.148,0.393,0.068,0.843-0.202,1.144
		c-0.27,0.3-0.675,0.389-1.028,0.228c-0.351-0.163-0.581-0.545-0.581-0.97C31.06,20.14,31.48,19.671,32.001,19.67z M22.574,19.67
		c0.381,0,0.724,0.255,0.87,0.647c0.146,0.393,0.065,0.843-0.204,1.144c-0.27,0.3-0.676,0.389-1.028,0.228
		c-0.352-0.163-0.582-0.545-0.582-0.97C21.632,20.14,22.054,19.671,22.574,19.67z M13.146,19.67c0.381,0,0.726,0.255,0.87,0.647
		c0.147,0.393,0.066,0.843-0.204,1.144c-0.269,0.3-0.675,0.389-1.028,0.228c-0.351-0.163-0.581-0.545-0.581-0.97
		C12.206,20.14,12.626,19.671,13.146,19.67z M6.548,33.3c-0.381,0-0.726-0.256-0.87-0.646c-0.146-0.392-0.066-0.842,0.205-1.142
		c0.27-0.3,0.675-0.39,1.026-0.228c0.352,0.163,0.582,0.544,0.582,0.969C7.489,32.83,7.068,33.297,6.548,33.3z M13.146,44.833
		c-0.382,0-0.726-0.259-0.871-0.648c-0.146-0.391-0.066-0.842,0.205-1.141c0.27-0.304,0.675-0.392,1.027-0.229
		s0.581,0.545,0.581,0.967C14.086,44.36,13.667,44.83,13.146,44.833z M15.974,40.114c0,0.288-0.21,0.522-0.47,0.522H10.79
		c-0.261,0-0.472-0.231-0.472-0.522V24.388c0-0.289,0.211-0.523,0.472-0.524h4.714c0.26,0.001,0.47,0.234,0.47,0.524V40.114z
		 M22.574,44.833c-0.382,0-0.726-0.259-0.872-0.648c-0.145-0.391-0.065-0.842,0.205-1.141c0.27-0.304,0.675-0.392,1.028-0.229
		s0.582,0.545,0.582,0.967C23.514,44.36,23.092,44.83,22.574,44.833z M25.401,40.114c0,0.288-0.211,0.522-0.471,0.522h-4.714
		c-0.26,0-0.47-0.231-0.471-0.522V24.388c0.001-0.289,0.211-0.523,0.471-0.524h4.714c0.26,0.001,0.471,0.234,0.471,0.524V40.114z
		 M32.001,44.833c-0.381,0-0.725-0.259-0.87-0.648c-0.147-0.391-0.066-0.842,0.203-1.141c0.271-0.304,0.675-0.392,1.028-0.229
		c0.353,0.162,0.581,0.545,0.581,0.967C32.942,44.36,32.521,44.83,32.001,44.833z M34.829,40.114
		c-0.003,0.288-0.212,0.522-0.474,0.522h-4.713c-0.26,0-0.471-0.231-0.471-0.522V24.388c0-0.289,0.211-0.523,0.471-0.524h4.713
		c0.261,0.001,0.471,0.234,0.474,0.524V40.114z M41.427,44.833c-0.381,0-0.724-0.259-0.868-0.648
		c-0.149-0.391-0.067-0.842,0.201-1.141c0.272-0.304,0.679-0.392,1.029-0.229c0.353,0.162,0.581,0.545,0.581,0.967
		C42.369,44.36,41.947,44.83,41.427,44.833z M44.255,40.114c-0.001,0.288-0.209,0.522-0.471,0.522H39.07
		c-0.26,0-0.472-0.231-0.473-0.522V24.388c0.001-0.289,0.212-0.523,0.473-0.524h4.714c0.26,0.001,0.47,0.234,0.471,0.524V40.114z
		 M50.854,44.833c-0.383,0-0.725-0.259-0.869-0.648c-0.148-0.391-0.066-0.842,0.202-1.141c0.271-0.304,0.676-0.392,1.027-0.229
		c0.354,0.162,0.583,0.545,0.583,0.967C51.798,44.36,51.376,44.83,50.854,44.833z M53.683,40.114
		c-0.001,0.288-0.209,0.522-0.472,0.522h-4.715c-0.258,0-0.47-0.231-0.471-0.522V24.388c0.001-0.289,0.211-0.523,0.471-0.524h4.715
		c0.26,0.001,0.471,0.234,0.472,0.524V40.114z M57.454,33.3c-0.382,0-0.726-0.256-0.871-0.646c-0.146-0.392-0.067-0.842,0.205-1.142
		c0.271-0.3,0.674-0.39,1.026-0.228c0.351,0.163,0.581,0.544,0.581,0.969C58.394,32.83,57.974,33.297,57.454,33.3z"/>
</g>
</svg>
