<?xml version="1.0" encoding="utf-8"?>
<!-- Generator: Adobe Illustrator 16.0.0, SVG Export Plug-In . SVG Version: 6.00 Build 0)  -->
<!DOCTYPE svg PUBLIC "-//W3C//DTD SVG 1.1//EN" "http://www.w3.org/Graphics/SVG/1.1/DTD/svg11.dtd">
<svg version="1.1" id="Layer_1" xmlns="http://www.w3.org/2000/svg" xmlns:xlink="http://www.w3.org/1999/xlink" x="0px" y="0px"
	 width="64px" height="64px" viewBox="0 0 64 64" enable-background="new 0 0 64 64" xml:space="preserve">
<g>
	<path fill="#9834E4" d="M53.584,10c2.424,0,4.395,1.702,4.395,3.794v24.662c0,2.093-1.971,3.795-4.395,3.795h-6.591v-3.795h6.591
		V13.794H9.644v24.662h17.577v3.795H9.644c-2.423,0-4.394-1.702-4.394-3.795V13.794C5.25,11.702,7.221,10,9.644,10H53.584z
		 M34.91,45.097c-0.607,0-1.1,0.425-1.1,0.948c0,0.521,0.492,0.949,1.1,0.949c0.604,0,1.099-0.428,1.099-0.949
		C36.009,45.521,35.515,45.097,34.91,45.097z M34.91,41.302c-0.607,0-1.1,0.426-1.1,0.949c0,0.521,0.492,0.947,1.1,0.947
		c0.604,0,1.099-0.426,1.099-0.947C36.009,41.728,35.515,41.302,34.91,41.302z M34.91,37.508c-0.607,0-1.1,0.425-1.1,0.948
		c0,0.522,0.492,0.949,1.1,0.949c0.604,0,1.099-0.427,1.099-0.949C36.009,37.933,35.515,37.508,34.91,37.508z M39.304,45.097
		c-0.606,0-1.098,0.425-1.098,0.948c0,0.521,0.491,0.949,1.098,0.949c0.604,0,1.099-0.428,1.099-0.949
		C40.402,45.521,39.908,45.097,39.304,45.097z M39.304,41.302c-0.606,0-1.098,0.426-1.098,0.949c0,0.521,0.491,0.947,1.098,0.947
		c0.604,0,1.099-0.426,1.099-0.947C40.402,41.728,39.908,41.302,39.304,41.302z M39.304,37.509c-0.606,0-1.098,0.424-1.098,0.947
		c0,0.522,0.491,0.949,1.098,0.949c0.604,0,1.099-0.427,1.099-0.949C40.402,37.933,39.908,37.509,39.304,37.509z M29.417,53.634
		V32.766h15.379v20.868H29.417z M45.135,22.402c0.517,0.273,0.68,0.857,0.36,1.303c-0.208,0.292-0.567,0.454-0.938,0.454
		c-0.196,0-0.394-0.048-0.57-0.141c-4.044-2.144-9.134-2.239-13.278-0.247c-0.535,0.252-1.201,0.089-1.496-0.368
		c-0.294-0.459-0.105-1.036,0.426-1.29C34.479,19.79,40.418,19.899,45.135,22.402L45.135,22.402z M42.267,27.389
		c-0.195,0-0.394-0.044-0.572-0.139c-2.698-1.428-6.089-1.491-8.855-0.165c-0.527,0.254-1.196,0.089-1.493-0.368
		c-0.292-0.459-0.104-1.036,0.427-1.291c3.458-1.66,7.701-1.578,11.07,0.206c0.516,0.275,0.679,0.856,0.362,1.305
		C42.999,27.228,42.637,27.389,42.267,27.389L42.267,27.389z M33.916,28.756c2.071-0.994,4.614-0.95,6.627,0.116
		c0.515,0.273,0.678,0.859,0.361,1.303c-0.204,0.292-0.567,0.453-0.938,0.453c-0.195,0-0.394-0.043-0.573-0.139
		c-1.339-0.709-3.029-0.738-4.411-0.073c-0.528,0.252-1.199,0.089-1.493-0.368C33.196,29.589,33.387,29.01,33.916,28.756
		L33.916,28.756z"/>
</g>
</svg>
