<?xml version="1.0" encoding="utf-8"?>
<!-- Generator: Adobe Illustrator 16.0.0, SVG Export Plug-In . SVG Version: 6.00 Build 0)  -->
<!DOCTYPE svg PUBLIC "-//W3C//DTD SVG 1.1//EN" "http://www.w3.org/Graphics/SVG/1.1/DTD/svg11.dtd">
<svg version="1.1" id="Layer_1" xmlns="http://www.w3.org/2000/svg" xmlns:xlink="http://www.w3.org/1999/xlink" x="0px" y="0px"
	 width="64px" height="64px" viewBox="0 0 64 64" enable-background="new 0 0 64 64" xml:space="preserve">
<g>
	<path fill="#F01C24" d="M4.261,21.181L31.42,36.109l27.16-14.928L31.419,6.25L4.261,21.181z"/>
	<path fill="#F01C24" d="M54.313,30.479L31.419,43.062L8.527,30.479c-0.77-0.419-1.691-0.043-2.059,0.848
		c-0.367,0.891-0.038,1.958,0.733,2.383l23.555,12.943c0.21,0.118,0.438,0.175,0.664,0.175c0.226,0,0.454-0.057,0.663-0.175
		l23.558-12.943c0.772-0.422,1.099-1.493,0.734-2.383C56.008,30.436,55.087,30.06,54.313,30.479L54.313,30.479z"/>
	<path fill="#F01C24" d="M54.313,41.396L31.419,53.977L8.526,41.396c-0.769-0.419-1.692-0.041-2.06,0.85
		C6.1,43.136,6.429,44.2,7.198,44.631l23.557,12.944c0.209,0.116,0.438,0.175,0.662,0.175c0.227,0,0.455-0.059,0.663-0.175
		l23.558-12.944c0.771-0.425,1.1-1.495,0.733-2.386C56.006,41.354,55.083,40.977,54.313,41.396L54.313,41.396z"/>
</g>
</svg>
