<?xml version="1.0" encoding="utf-8"?>
<!-- Generator: Adobe Illustrator 16.0.0, SVG Export Plug-In . SVG Version: 6.00 Build 0)  -->
<!DOCTYPE svg PUBLIC "-//W3C//DTD SVG 1.1//EN" "http://www.w3.org/Graphics/SVG/1.1/DTD/svg11.dtd">
<svg version="1.1" id="Layer_1" xmlns="http://www.w3.org/2000/svg" xmlns:xlink="http://www.w3.org/1999/xlink" x="0px" y="0px"
	 width="64px" height="64px" viewBox="0 0 64 64" enable-background="new 0 0 64 64" xml:space="preserve">
<g>
	<path fill="#2064D4" d="M8.642,37.032h1.844c0.002,2.679,0.626,5.328,1.833,7.775c1.208,2.448,2.97,4.639,5.173,6.433l0.101,0.084
		c3.882,3.119,8.898,4.843,14.095,4.843c5.196,0,10.213-1.724,14.095-4.843l0.093-0.084c2.208-1.789,3.975-3.98,5.183-6.429
		c1.209-2.449,1.832-5.099,1.832-7.779h1.843v-6.659H8.642V37.032z M31.688,52.847c-1.468,0-2.874-0.527-3.912-1.461
		c-1.037-0.937-1.62-2.207-1.62-3.532c0-1.324,0.583-2.595,1.62-3.531c1.038-0.938,2.444-1.464,3.912-1.464s2.874,0.526,3.912,1.464
		c1.037,0.937,1.617,2.207,1.617,3.531c0,1.325-0.58,2.596-1.617,3.532C34.562,52.319,33.155,52.847,31.688,52.847z M51.045,37.032
		c-0.003,4.438-1.882,8.708-5.253,11.937c-1.241-3.659-4.166-6.661-8.027-8.238c-3.864-1.577-8.291-1.577-12.154,0
		c-3.863,1.577-6.787,4.579-8.028,8.238c-3.372-3.229-5.251-7.498-5.253-11.937H51.045z"/>
	<path fill="#2064D4" d="M31.688,44.522c-0.978,0-1.916,0.352-2.607,0.977C28.388,46.124,28,46.97,28,47.854
		c0,0.882,0.389,1.729,1.081,2.354c0.691,0.626,1.629,0.975,2.607,0.975c0.977,0,1.915-0.349,2.606-0.975
		c0.693-0.625,1.08-1.472,1.08-2.354c0-0.884-0.387-1.729-1.08-2.354C33.603,44.874,32.664,44.522,31.688,44.522z M31.688,49.518
		c-0.49,0-0.958-0.175-1.304-0.487c-0.346-0.313-0.54-0.735-0.54-1.177s0.194-0.866,0.54-1.179c0.346-0.311,0.814-0.486,1.304-0.486
		c0.488,0,0.959,0.176,1.303,0.486c0.348,0.313,0.54,0.737,0.54,1.179s-0.192,0.863-0.54,1.177
		C32.646,49.343,32.176,49.518,31.688,49.518z"/>
	<path fill="#2064D4" d="M45.515,21.218c0.243,0,0.479-0.088,0.652-0.244c0.172-0.156,0.268-0.368,0.268-0.589v-2.497h8.298
		c0.51,0,0.921-0.373,0.921-0.833s-0.411-0.833-0.921-0.833h-9.218c-0.508,0-0.923,0.373-0.923,0.833v2.497h-7.375v-1.665h-2.764
		v-7.492h10.398c0.326,0.512,0.931,0.829,1.583,0.833c0.659,0,1.271-0.317,1.599-0.833c0.329-0.515,0.329-1.15,0-1.665
		c-0.328-0.515-0.939-0.833-1.599-0.833c-0.652,0.003-1.257,0.321-1.583,0.833H33.53c-0.508,0-0.922,0.373-0.922,0.833v8.324h-1.843
		V9.564c0-0.221-0.097-0.433-0.27-0.589s-0.408-0.244-0.652-0.244h-11.32c-0.328-0.512-0.931-0.829-1.585-0.833
		c-0.659,0-1.268,0.317-1.597,0.833c-0.329,0.515-0.329,1.15,0,1.665c0.329,0.515,0.938,0.833,1.597,0.833
		c0.654-0.003,1.258-0.32,1.585-0.833h10.398v7.492h-2.766v1.665h-7.374v-2.497c0-0.221-0.098-0.433-0.271-0.589
		c-0.172-0.156-0.407-0.244-0.651-0.244H8.642c-0.509,0-0.922,0.373-0.922,0.833s0.413,0.833,0.922,0.833h8.296v2.497
		c0,0.221,0.097,0.433,0.27,0.589c0.172,0.155,0.407,0.244,0.652,0.244h8.296v0.832H12.071c-0.328-0.512-0.931-0.829-1.586-0.832
		c-0.659,0-1.268,0.316-1.596,0.832c-0.329,0.515-0.329,1.149,0,1.665c0.329,0.515,0.938,0.832,1.596,0.832
		c0.655-0.003,1.258-0.319,1.586-0.832h14.085v0.832H17.86c-0.509,0-0.922,0.373-0.922,0.833v2.497H8.642
		c-0.509,0-0.922,0.372-0.922,0.832c0,0.459,0.413,0.833,0.922,0.833h9.218c0.244,0,0.479-0.088,0.651-0.244
		c0.173-0.156,0.271-0.368,0.271-0.589v-2.497h7.374v1.665h11.061v-1.665h7.375v2.497c0,0.221,0.097,0.433,0.27,0.589
		c0.175,0.156,0.407,0.244,0.653,0.244h9.218c0.51,0,0.921-0.373,0.921-0.833c0-0.46-0.411-0.832-0.921-0.832h-8.298v-2.497
		c0-0.221-0.096-0.433-0.27-0.589c-0.171-0.156-0.407-0.244-0.65-0.244h-8.298v-0.832h14.086c0.329,0.513,0.932,0.829,1.587,0.832
		c0.657,0,1.267-0.316,1.596-0.832c0.328-0.515,0.328-1.149,0-1.665c-0.329-0.516-0.938-0.832-1.596-0.832
		c-0.655,0.003-1.258,0.32-1.587,0.832H37.217v-0.832H45.515z M33.53,25.379h-3.687c-0.509,0-0.921-0.373-0.921-0.833
		c0-0.459,0.412-0.832,0.921-0.832h3.687c0.51,0,0.923,0.373,0.923,0.832C34.453,25.007,34.04,25.379,33.53,25.379z M33.53,22.05
		h-3.687c-0.509,0-0.921-0.373-0.921-0.832c0-0.46,0.412-0.833,0.921-0.833h3.687c0.51,0,0.923,0.373,0.923,0.833
		C34.453,21.677,34.04,22.05,33.53,22.05z"/>
</g>
</svg>
