<?xml version="1.0" encoding="utf-8"?>
<!-- Generator: Adobe Illustrator 16.0.0, SVG Export Plug-In . SVG Version: 6.00 Build 0)  -->
<!DOCTYPE svg PUBLIC "-//W3C//DTD SVG 1.1//EN" "http://www.w3.org/Graphics/SVG/1.1/DTD/svg11.dtd">
<svg version="1.1" id="Layer_1" xmlns="http://www.w3.org/2000/svg" xmlns:xlink="http://www.w3.org/1999/xlink" x="0px" y="0px"
	 width="64px" height="64px" viewBox="0 0 64 64" enable-background="new 0 0 64 64" xml:space="preserve">
<g>
	<path fill="#FFBC04" d="M57.479,34.275v0.774L31.089,48.383v-0.774L57.479,34.275 M57.644,33.944L30.925,47.442v1.272
		l26.719-13.556V33.944z"/>
	<path fill="#FFBC04" d="M5.848,34.221l24.967,13.388v0.774L5.848,35.05V34.221 M5.629,33.887v1.329L30.925,48.77v-1.272
		L5.629,33.887z"/>
	<path fill="#FFBC04" d="M25.832,43.791H24.08l6.845,3.651l6.953-3.541l0.164-2.877c-0.328,0.167-0.657,0.389-0.985,0.553
		C34.044,43.127,29.994,43.957,25.832,43.791L25.832,43.791z"/>
	<path fill="#FFBC04" d="M24.682,24.261L5.629,33.943l5.476,2.932l15.769-8.021C25.832,27.305,24.956,25.645,24.682,24.261
		L24.682,24.261z"/>
	<path fill="#FFBC04" d="M36.18,30.125c-1.806,2.379-3.668,4.372-3.832,4.481l-0.383,0.389l-0.383-0.389
		c-0.165-0.165-1.807-1.88-3.504-4.093l-14.783,7.468l7.61,4.094h5.092c3.23,0.112,6.46-0.498,8.815-1.715
		c1.972-0.995,3.176-2.323,3.449-3.706l0.056-0.83l0.108-1.715C38.699,32.727,37.878,31.288,36.18,30.125L36.18,30.125z"/>
	<path fill="#FFBC04" d="M41.656,34.221h7.774l0.219-4.538l-9.581-5.145l-0.985,0.498c-0.328,1.052-0.933,2.213-1.644,3.32
		l0.385,0.221C40.616,30.015,41.984,32.063,41.656,34.221L41.656,34.221z"/>
	<path fill="#FFBC04" d="M52.826,31.343l-0.165,2.878h4.436l0.548-0.276L52.826,31.343z"/>
	<path fill="#FFBC04" d="M49.321,35.879h-7.774c0,0.276,0,0.609-0.055,0.886l-0.274,5.478l12.538-6.363h-1.203H49.321z"/>
	<path fill="#FFBC04" d="M31.964,16.406c-3.778,0-6.844,3.153-6.844,6.97c0,3.818,6.899,10.899,6.899,10.899
		s6.897-7.027,6.897-10.899C38.862,19.559,35.798,16.406,31.964,16.406L31.964,16.406z M31.964,25.313
		c-1.643,0-3.011-1.328-3.011-3.043c0-1.715,1.314-3.042,3.011-3.042c1.643,0,3.013,1.328,3.013,3.042
		C34.978,23.985,33.607,25.313,31.964,25.313z"/>
</g>
</svg>
