<?xml version="1.0" encoding="utf-8"?>
<!-- Generator: Adobe Illustrator 16.0.0, SVG Export Plug-In . SVG Version: 6.00 Build 0)  -->
<!DOCTYPE svg PUBLIC "-//W3C//DTD SVG 1.1//EN" "http://www.w3.org/Graphics/SVG/1.1/DTD/svg11.dtd">
<svg version="1.1" id="Layer_1" xmlns="http://www.w3.org/2000/svg" xmlns:xlink="http://www.w3.org/1999/xlink" x="0px" y="0px"
	 width="64px" height="64px" viewBox="0 0 64 64" enable-background="new 0 0 64 64" xml:space="preserve">
<g>
	<path fill="#E04434" d="M15.388,28.808c0.196,0,0.383-0.092,0.497-0.245c0.31-0.405,7.516-9.965,7.516-13.938
		c0-4.149-3.591-7.527-8.013-7.527c-4.421,0-8.012,3.377-8.012,7.527c0,3.974,7.206,13.533,7.516,13.938
		C15.005,28.717,15.192,28.808,15.388,28.808L15.388,28.808z M11.936,14.465c0-1.796,1.538-3.248,3.452-3.248
		c1.906,0,3.461,1.452,3.461,3.248c0,1.781-1.556,3.232-3.461,3.232C13.474,17.697,11.936,16.246,11.936,14.465z"/>
	<path fill="#E04434" d="M48.136,52.353c0.196,0,0.383-0.092,0.498-0.244c0.302-0.405,7.515-9.965,7.515-13.938
		c0-4.15-3.599-7.52-8.013-7.52c-4.42,0-8.021,3.369-8.021,7.52c0,3.974,7.216,13.533,7.518,13.938
		C47.745,52.261,47.932,52.353,48.136,52.353L48.136,52.353z M44.675,38.009c0-1.796,1.54-3.248,3.453-3.248
		c1.914,0,3.461,1.452,3.461,3.248c0,1.78-1.547,3.24-3.461,3.24C46.215,41.249,44.675,39.789,44.675,38.009z"/>
	<path fill="#E04434" d="M22.195,28.228c0-1.2-0.928-2.285-2.492-2.988c-1.458,2.193-2.704,3.829-2.826,3.989
		c-0.333,0.451-0.896,0.726-1.49,0.726c-0.595,0-1.156-0.275-1.498-0.733c-0.123-0.161-1.36-1.796-2.809-3.981
		c-1.572,0.703-2.508,1.78-2.508,2.988c0,2.163,2.996,3.852,6.815,3.852S22.195,30.39,22.195,28.228z"/>
	<path fill="#E04434" d="M52.436,48.792c-1.124,1.696-2.175,3.133-2.768,3.936c-0.375,0.496-0.937,0.771-1.532,0.771
		c-0.602,0-1.163-0.275-1.507-0.733c-0.609-0.817-1.669-2.262-2.801-3.974c-1.571,0.703-2.508,1.781-2.508,2.988
		c0,2.154,2.997,3.844,6.815,3.844c3.819,0,6.808-1.689,6.808-3.844C54.943,50.572,54.007,49.495,52.436,48.792z"/>
	<path fill="#E04434" d="M29.685,40.173h-0.577c-0.337,0-0.611,0.257-0.611,0.573s0.273,0.573,0.611,0.573h0.577
		c0.987,0,1.945-0.183,2.846-0.542c0.312-0.124,0.456-0.46,0.323-0.751c-0.133-0.293-0.493-0.426-0.8-0.305
		C31.304,40.021,30.508,40.173,29.685,40.173L29.685,40.173z"/>
	<path fill="#E04434" d="M28.418,28.804h1.267c0.607,0,1.207,0.083,1.782,0.25c0.06,0.017,0.12,0.025,0.179,0.025
		c0.261,0,0.504-0.158,0.584-0.405c0.099-0.302-0.082-0.624-0.405-0.716c-0.691-0.199-1.411-0.3-2.14-0.3h-1.267
		c-0.337,0-0.611,0.257-0.611,0.573S28.081,28.804,28.418,28.804z"/>
	<path fill="#E04434" d="M35.479,32.831c0.081,0.247,0.325,0.405,0.585,0.405c0.061,0,0.118-0.008,0.179-0.023
		c0.323-0.093,0.504-0.414,0.406-0.716c-0.346-1.062-0.972-2.041-1.811-2.832c-0.239-0.225-0.625-0.225-0.863-0.001
		c-0.239,0.224-0.239,0.586-0.002,0.811C34.671,31.133,35.193,31.947,35.479,32.831L35.479,32.831z"/>
	<path fill="#E04434" d="M21.983,40.745c0,0.316,0.274,0.573,0.611,0.573h3.257c0.337,0,0.611-0.257,0.611-0.573
		s-0.273-0.573-0.611-0.573h-3.257C22.257,40.172,21.983,40.429,21.983,40.745z"/>
	<path fill="#E04434" d="M29.478,51.315h-3.257c-0.337,0-0.611,0.256-0.611,0.572s0.274,0.574,0.611,0.574h3.257
		c0.337,0,0.611-0.258,0.611-0.574S29.815,51.315,29.478,51.315z"/>
	<path fill="#E04434" d="M13.756,46.468l-0.002-0.15c0-0.869,0.241-1.724,0.695-2.473c0.167-0.275,0.065-0.625-0.229-0.781
		c-0.293-0.16-0.665-0.063-0.832,0.214c-0.561,0.921-0.856,1.974-0.856,3.04l0.003,0.195c0.013,0.309,0.284,0.551,0.609,0.551
		c0.009,0,0.017,0,0.025-0.002C13.507,47.05,13.77,46.784,13.756,46.468L13.756,46.468z"/>
	<path fill="#E04434" d="M36.347,35.122c-0.323-0.06-0.651,0.143-0.716,0.454c-0.188,0.908-0.616,1.768-1.238,2.488
		c-0.213,0.245-0.173,0.606,0.089,0.806c0.112,0.087,0.25,0.129,0.386,0.129c0.177,0,0.354-0.072,0.474-0.212
		c0.747-0.866,1.264-1.901,1.488-2.993C36.894,35.483,36.678,35.183,36.347,35.122L36.347,35.122z"/>
	<path fill="#E04434" d="M35.99,51.315h-3.256c-0.337,0-0.611,0.256-0.611,0.572s0.273,0.574,0.611,0.574h3.256
		c0.338,0,0.612-0.258,0.612-0.574S36.328,51.315,35.99,51.315z"/>
	<path fill="#E04434" d="M16.796,50.834c-0.885-0.394-1.635-1.009-2.174-1.78c-0.184-0.264-0.563-0.34-0.845-0.164
		c-0.282,0.173-0.361,0.527-0.176,0.793c0.661,0.947,1.585,1.703,2.672,2.188c0.084,0.037,0.173,0.055,0.261,0.055
		c0.229,0,0.447-0.121,0.552-0.328C17.231,51.312,17.102,50.97,16.796,50.834L16.796,50.834z"/>
	<path fill="#E04434" d="M19.947,40.745c0-0.316-0.274-0.573-0.611-0.573h-0.257c-1.109,0-2.205,0.266-3.169,0.767
		c-0.295,0.154-0.401,0.504-0.238,0.779c0.112,0.189,0.32,0.295,0.535,0.295c0.1,0,0.202-0.022,0.295-0.071
		c0.784-0.408,1.675-0.624,2.577-0.624h0.257C19.673,41.318,19.947,41.062,19.947,40.745L19.947,40.745z"/>
	<path fill="#E04434" d="M22.963,51.315h-3.257c-0.337,0-0.611,0.256-0.611,0.572s0.274,0.574,0.611,0.574h3.257
		c0.337,0,0.611-0.258,0.611-0.574S23.3,51.315,22.963,51.315z"/>
</g>
</svg>
