<?xml version="1.0" encoding="utf-8"?>
<!-- Generator: Adobe Illustrator 16.0.0, SVG Export Plug-In . SVG Version: 6.00 Build 0)  -->
<!DOCTYPE svg PUBLIC "-//W3C//DTD SVG 1.1//EN" "http://www.w3.org/Graphics/SVG/1.1/DTD/svg11.dtd">
<svg version="1.1" id="Layer_1" xmlns="http://www.w3.org/2000/svg" xmlns:xlink="http://www.w3.org/1999/xlink" x="0px" y="0px"
	 width="64px" height="64px" viewBox="0 0 64 64" enable-background="new 0 0 64 64" xml:space="preserve">
<g>
	<path fill="#9834E4" d="M56,0H7.999C3.601,0,0,3.601,0,8v32c0,4.401,3.601,8.001,7.999,8.001H56c4.399,0,8-3.6,8-8.001V8
		C64,3.601,60.399,0,56,0z M23.999,46C22.799,46,22,45.199,22,44s0.799-2,1.999-2c1.201,0,2,0.801,2,2S25.2,46,23.999,46z M32,46
		c-1.202,0-2.001-0.801-2.001-2s0.799-2,2.001-2c1.199,0,2,0.801,2,2S33.199,46,32,46z M39.999,46c-1.2,0-2-0.801-2-2s0.8-2,2-2
		C41.198,42,42,42.801,42,44S41.198,46,39.999,46z M56,40H7.999c-2.199,0-4-1.8-4-4V8c0-2.2,1.801-4,4-4H56c2.2,0,3.999,1.8,3.999,4
		v28C59.999,38.2,58.2,40,56,40z"/>
	<path fill="#9834E4" d="M45,58h-3l-2.001-6h-16l-1,3.202c-0.6,1.6-2,2.798-3.8,2.798H19c-1.6,0-3,1.399-3,3.002
		c0,1.6,1.4,2.998,3,2.998h26c1.601,0,2.998-1.398,2.998-2.998C47.998,59.399,46.601,58,45,58L45,58z"/>
	<path fill="#9834E4" d="M20,8H10c-1.2,0-2.001,0.8-2.001,2v8.001c0,1.2,0.801,2,2.001,2h10c1.2,0,2-0.8,2-2V10
		C22,8.8,21.199,8,20,8z"/>
	<path fill="#9834E4" d="M17.999,24H10c-1.2,0-2.001,0.8-2.001,2v8c0,1.199,0.801,2,2.001,2h7.999c1.201,0,2-0.801,2-2v-8
		C20,24.8,19.2,24,17.999,24z"/>
	<path fill="#9834E4" d="M35.998,8H28c-1.2,0-2.001,0.8-2.001,2v8.001c0,1.2,0.801,2,2.001,2h7.999c1.202,0,2.001-0.8,2.001-2V10
		C37.999,8.8,37.2,8,35.998,8z"/>
	<path fill="#9834E4" d="M37.999,24h-12c-1.199,0-2,0.8-2,2v8c0,1.199,0.801,2,2,2h12c1.201,0,2-0.801,2-2v-8
		C39.999,24.8,39.2,24,37.999,24z"/>
	<path fill="#9834E4" d="M54,8H43.999C42.798,8,42,8.8,42,10v8.001c0,1.2,0.798,2,1.999,2H54c1.199,0,2-0.8,2-2V10
		C56,8.8,55.199,8,54,8z"/>
	<path fill="#9834E4" d="M54,24h-8c-1.201,0-2.001,0.8-2.001,2v8c0,1.199,0.8,2,2.001,2h8c1.199,0,2-0.801,2-2v-8
		C56,24.8,55.199,24,54,24z"/>
</g>
</svg>
