<?xml version="1.0" encoding="utf-8"?>
<!-- Generator: Adobe Illustrator 16.0.0, SVG Export Plug-In . SVG Version: 6.00 Build 0)  -->
<!DOCTYPE svg PUBLIC "-//W3C//DTD SVG 1.1//EN" "http://www.w3.org/Graphics/SVG/1.1/DTD/svg11.dtd">
<svg version="1.1" id="Layer_1" xmlns="http://www.w3.org/2000/svg" xmlns:xlink="http://www.w3.org/1999/xlink" x="0px" y="0px"
	 width="64px" height="64px" viewBox="0 0 55 55" enable-background="new 0 0 55 55" xml:space="preserve">
<g>
	<path fill="#9834E4" d="M52.312,21.013l-2.639-2.639H35.96l-4.041,6.997h-8.842l-4.42-7.655l4.42-7.657h8.842l4.041,6.997h12.395
		L33.985,2.686C32.252,0.954,29.949,0,27.499,0s-4.754,0.954-6.486,2.687L2.687,21.013C0.954,22.746,0,25.049,0,27.499
		c0,2.451,0.954,4.754,2.687,6.486l2.901,2.901H19.04l4.04-6.998h8.84l4.421,7.656l-4.421,7.657h-8.84l-4.04-6.998L6.906,38.205
		l14.107,14.108C22.745,54.043,25.049,55,27.499,55s4.753-0.957,6.487-2.687l18.326-18.328C54.046,32.252,55,29.948,55,27.499
		C54.999,25.048,54.045,22.746,52.312,21.013L52.312,21.013z M42.868,33.354h-6.76l-2.941-5.096l-11.336-0.001l-2.942,5.097h-6.761
		L8.748,27.5l3.38-5.855h6.76l2.942,5.098h11.337l2.938-5.098h6.763L46.25,27.5L42.868,33.354z"/>
	<path fill="#9834E4" d="M30.55,42.834l3.052-5.289l-3.052-5.281h-6.103l-3.051,5.281l3.051,5.289H30.55z"/>
	<path fill="#9834E4" d="M24.448,12.431l-3.051,5.285L24.448,23h6.102l3.053-5.284l-3.053-5.285H24.448z"/>
</g>
</svg>
