<?xml version="1.0" encoding="utf-8"?>
<!-- Generator: Adobe Illustrator 16.0.0, SVG Export Plug-In . SVG Version: 6.00 Build 0)  -->
<!DOCTYPE svg PUBLIC "-//W3C//DTD SVG 1.1//EN" "http://www.w3.org/Graphics/SVG/1.1/DTD/svg11.dtd">
<svg version="1.1" id="Layer_1" xmlns="http://www.w3.org/2000/svg" xmlns:xlink="http://www.w3.org/1999/xlink" x="0px" y="0px"
	 width="64px" height="64px" viewBox="0 0 64 64" enable-background="new 0 0 64 64" xml:space="preserve">
<g>
	<path fill="#2064D4" d="M20.389,22.55v18.9c0,0.557,0.223,1.09,0.618,1.485c0.396,0.393,0.934,0.614,1.493,0.614h18.998
		c0.561,0,1.098-0.222,1.492-0.614c0.396-0.396,0.619-0.929,0.619-1.485v-18.9c0-0.557-0.223-1.091-0.619-1.485
		c-0.395-0.394-0.932-0.615-1.492-0.615H22.5c-0.559,0-1.097,0.221-1.493,0.615C20.612,21.459,20.389,21.993,20.389,22.55z
		 M23.556,25.7c0-0.557,0.222-1.091,0.618-1.485c0.396-0.394,0.933-0.615,1.492-0.615h7.388c0.584,0,1.055,0.47,1.055,1.05
		c0,0.58-0.471,1.05-1.055,1.05h-7.388v3.15c0,0.579-0.472,1.049-1.055,1.049s-1.055-0.47-1.055-1.049V25.7z M23.556,33.051
		c0-0.581,0.472-1.051,1.055-1.051s1.055,0.47,1.055,1.051V36.2c0,0.58-0.472,1.051-1.055,1.051s-1.055-0.471-1.055-1.051V33.051z"
		/>
	<path fill="#2064D4" d="M1.393,5.75c0.279,0,0.547-0.111,0.745-0.307c0.199-0.198,0.31-0.464,0.31-0.743V2.6h2.111
		c0.583,0,1.056-0.47,1.056-1.05c0-0.58-0.473-1.05-1.056-1.05H2.447c-0.56,0-1.096,0.221-1.492,0.616
		C0.558,1.51,0.336,2.043,0.336,2.6v2.1c0,0.279,0.112,0.545,0.309,0.743C0.844,5.64,1.112,5.75,1.393,5.75L1.393,5.75z"/>
	<path fill="#2064D4" d="M29.888,2.6c0.584,0,1.056-0.47,1.056-1.05c0-0.58-0.472-1.05-1.056-1.05h-2.11
		c-0.584,0-1.056,0.47-1.056,1.05c0,0.581,0.472,1.05,1.056,1.05H29.888z"/>
	<path fill="#2064D4" d="M23.556,0.5h-2.111c-0.583,0-1.056,0.47-1.056,1.05c0,0.581,0.473,1.05,1.056,1.05h2.111l0,0
		c0.582,0,1.055-0.47,1.055-1.05C24.611,0.97,24.138,0.5,23.556,0.5z"/>
	<path fill="#2064D4" d="M17.223,0.5h-2.111c-0.583,0-1.056,0.47-1.056,1.05c0,0.581,0.473,1.05,1.056,1.05h2.112h-0.001
		c0.583,0,1.055-0.47,1.055-1.05C18.278,0.97,17.806,0.5,17.223,0.5z"/>
	<path fill="#2064D4" d="M10.891,2.6c0.583,0,1.056-0.47,1.056-1.05c0-0.58-0.472-1.05-1.056-1.05H8.78
		c-0.584,0-1.056,0.47-1.056,1.05c0,0.581,0.472,1.05,1.056,1.05H10.891z"/>
	<path fill="#2064D4" d="M61.553,0.5h-2.111c-0.584,0-1.055,0.47-1.055,1.05c0,0.581,0.471,1.05,1.055,1.05h2.111v2.1
		c0,0.579,0.471,1.05,1.055,1.05c0.582,0,1.055-0.471,1.055-1.05V2.6c0-0.558-0.221-1.09-0.617-1.484
		C62.65,0.721,62.111,0.5,61.553,0.5L61.553,0.5z"/>
	<path fill="#2064D4" d="M36.223,2.6c0.582,0,1.053-0.47,1.053-1.05c0-0.58-0.471-1.05-1.053-1.05h-2.113
		c-0.582,0-1.055,0.47-1.055,1.05c0,0.581,0.473,1.05,1.055,1.05H36.223z"/>
	<path fill="#2064D4" d="M42.555,2.6c0.584,0,1.055-0.47,1.055-1.05c0-0.58-0.471-1.05-1.055-1.05h-2.111
		c-0.584,0-1.055,0.47-1.055,1.05c0,0.581,0.471,1.05,1.055,1.05H42.555z"/>
	<path fill="#2064D4" d="M48.887,2.6c0.584,0,1.055-0.47,1.055-1.05c0-0.58-0.471-1.05-1.055-1.05h-2.111
		c-0.584,0-1.055,0.47-1.055,1.05c0,0.581,0.471,1.05,1.055,1.05H48.887z"/>
	<path fill="#2064D4" d="M55.221,2.6c0.582,0,1.053-0.47,1.053-1.05c0-0.58-0.471-1.05-1.053-1.05h-2.113
		c-0.582,0-1.055,0.47-1.055,1.05c0,0.581,0.473,1.05,1.055,1.05H55.221z"/>
	<path fill="#2064D4" d="M1.393,30.951c0.279,0,0.547-0.111,0.745-0.308c0.199-0.197,0.31-0.463,0.31-0.742V27.8
		c0-0.579-0.473-1.05-1.055-1.05c-0.584,0-1.056,0.471-1.056,1.05v2.101l0,0c0,0.278,0.112,0.544,0.309,0.742
		C0.844,30.84,1.112,30.951,1.393,30.951L1.393,30.951z"/>
	<path fill="#2064D4" d="M1.393,24.651c0.279,0,0.547-0.112,0.745-0.309c0.199-0.196,0.31-0.463,0.31-0.742v-2.1
		c0-0.58-0.473-1.05-1.055-1.05c-0.584,0-1.056,0.47-1.056,1.05v2.1v0c0,0.279,0.112,0.546,0.309,0.742
		C0.844,24.539,1.112,24.651,1.393,24.651L1.393,24.651z"/>
	<path fill="#2064D4" d="M1.393,18.351c0.279,0,0.547-0.111,0.745-0.308c0.199-0.196,0.31-0.463,0.31-0.742v-2.1
		c0-0.581-0.473-1.05-1.055-1.05c-0.584,0-1.056,0.47-1.056,1.05v2.1v0c0,0.279,0.112,0.546,0.309,0.742
		C0.844,18.24,1.112,18.351,1.393,18.351L1.393,18.351z"/>
	<path fill="#2064D4" d="M1.393,12.05c0.279,0,0.547-0.11,0.745-0.308c0.199-0.197,0.31-0.464,0.31-0.743V8.9
		c0-0.581-0.473-1.05-1.055-1.05c-0.584,0-1.056,0.469-1.056,1.05V11v0c0,0.279,0.112,0.546,0.309,0.743
		C0.844,11.94,1.112,12.05,1.393,12.05L1.393,12.05z"/>
	<path fill="#2064D4" d="M1.393,37.251c0.279,0,0.547-0.11,0.745-0.309c0.199-0.196,0.31-0.464,0.31-0.742v-2.1
		c0-0.58-0.473-1.05-1.055-1.05c-0.584,0-1.056,0.47-1.056,1.05v2.1l0,0c0,0.278,0.112,0.546,0.309,0.742
		C0.844,37.141,1.112,37.251,1.393,37.251L1.393,37.251z"/>
	<path fill="#2064D4" d="M1.393,43.55c0.279,0,0.547-0.11,0.745-0.306c0.199-0.197,0.31-0.466,0.31-0.744v-2.099
		c0-0.581-0.473-1.053-1.055-1.053c-0.584,0-1.056,0.472-1.056,1.053V42.5l0,0c0,0.278,0.112,0.547,0.309,0.744
		C0.844,43.439,1.112,43.55,1.393,43.55L1.393,43.55z"/>
	<path fill="#2064D4" d="M1.393,49.851c0.279,0,0.547-0.111,0.745-0.309c0.199-0.195,0.31-0.462,0.31-0.741V46.7
		c0-0.578-0.473-1.05-1.055-1.05c-0.584,0-1.056,0.472-1.056,1.05v2.101l0,0c0,0.279,0.112,0.546,0.309,0.741
		C0.844,49.739,1.112,49.851,1.393,49.851L1.393,49.851z"/>
	<path fill="#2064D4" d="M1.393,56.151c0.279,0,0.547-0.112,0.745-0.308c0.199-0.198,0.31-0.466,0.31-0.745v-2.098
		c0-0.581-0.473-1.051-1.055-1.051c-0.584,0-1.056,0.47-1.056,1.051v2.098l0,0c0,0.279,0.112,0.547,0.309,0.745
		C0.844,56.039,1.112,56.151,1.393,56.151L1.393,56.151z"/>
	<path fill="#2064D4" d="M62.607,26.75c-0.584,0-1.055,0.471-1.055,1.049v2.102V29.9c0,0.58,0.471,1.05,1.055,1.05
		c0.582,0,1.057-0.47,1.057-1.05v-2.101c0-0.277-0.111-0.544-0.311-0.742C63.156,26.86,62.887,26.75,62.607,26.75z"/>
	<path fill="#2064D4" d="M62.607,20.45c-0.584,0-1.055,0.47-1.055,1.05v2.1v0c0,0.581,0.471,1.051,1.055,1.051
		c0.582,0,1.057-0.47,1.057-1.051v-2.1c0-0.278-0.111-0.545-0.311-0.742C63.156,20.561,62.887,20.45,62.607,20.45z"/>
	<path fill="#2064D4" d="M62.607,14.15c-0.584,0-1.055,0.47-1.055,1.05v2.1v0c0,0.58,0.471,1.05,1.055,1.05
		c0.582,0,1.057-0.47,1.057-1.05v-2.1c0-0.278-0.111-0.546-0.311-0.742C63.156,14.26,62.887,14.15,62.607,14.15z"/>
	<path fill="#2064D4" d="M62.607,7.85c-0.584,0-1.055,0.469-1.055,1.05V11v0c0,0.58,0.471,1.051,1.055,1.051
		c0.582,0,1.057-0.471,1.057-1.051V8.9c0-0.278-0.111-0.546-0.311-0.742C63.156,7.961,62.887,7.85,62.607,7.85z"/>
	<path fill="#2064D4" d="M62.607,33.05c-0.584,0-1.055,0.471-1.055,1.05V36.2l0,0c0,0.58,0.471,1.051,1.055,1.051
		c0.582,0,1.057-0.471,1.057-1.051V34.1c0-0.278-0.111-0.546-0.311-0.742C63.156,33.161,62.887,33.05,62.607,33.05z"/>
	<path fill="#2064D4" d="M62.607,39.349c-0.584,0-1.055,0.471-1.055,1.053v2.098l0,0c0,0.581,0.471,1.051,1.055,1.051
		c0.582,0,1.057-0.47,1.057-1.051v-2.098c0-0.28-0.111-0.547-0.311-0.745C63.156,39.46,62.887,39.349,62.607,39.349z"/>
	<path fill="#2064D4" d="M62.607,45.649c-0.584,0-1.055,0.472-1.055,1.05v2.102V48.8c0,0.579,0.471,1.05,1.055,1.05
		c0.582,0,1.057-0.471,1.057-1.05v-2.101c0-0.277-0.111-0.545-0.311-0.741C63.156,45.761,62.887,45.649,62.607,45.649z"/>
	<path fill="#2064D4" d="M62.607,51.95c-0.584,0-1.055,0.47-1.055,1.05v2.099l0,0c0,0.581,0.471,1.053,1.055,1.053
		c0.582,0,1.057-0.472,1.057-1.053V53c0-0.279-0.111-0.547-0.311-0.743C63.156,52.061,62.887,51.95,62.607,51.95z"/>
	<path fill="#2064D4" d="M4.559,63.5c0.582,0,1.055-0.471,1.055-1.05s-0.473-1.051-1.055-1.051H2.447v-2.1
		c0-0.58-0.473-1.049-1.056-1.049c-0.583,0-1.055,0.469-1.055,1.049V61.4v-0.001c0,0.558,0.222,1.093,0.618,1.484
		C1.351,63.278,1.887,63.5,2.447,63.5H4.559z"/>
	<path fill="#2064D4" d="M29.888,63.5c0.584,0,1.056-0.471,1.056-1.05s-0.472-1.051-1.056-1.051h-2.11
		c-0.584,0-1.056,0.472-1.056,1.051s0.472,1.05,1.056,1.05H29.888z"/>
	<path fill="#2064D4" d="M24.612,62.45c0-0.278-0.112-0.546-0.31-0.742S23.836,61.4,23.556,61.4h-2.11
		c-0.584,0-1.056,0.472-1.056,1.05c0,0.58,0.472,1.05,1.056,1.05h2.11l0,0c0.28,0,0.549-0.111,0.747-0.308
		C24.5,62.995,24.612,62.727,24.612,62.45L24.612,62.45z"/>
	<path fill="#2064D4" d="M15.112,61.399c-0.582,0-1.055,0.472-1.055,1.051s0.473,1.05,1.055,1.05h2.112l0,0
		c0.582,0,1.055-0.471,1.055-1.05s-0.473-1.051-1.055-1.051H15.112z"/>
	<path fill="#2064D4" d="M8.78,63.5h2.111h-0.001c0.583,0,1.056-0.471,1.056-1.05s-0.472-1.051-1.056-1.051H8.78
		c-0.583,0-1.056,0.472-1.056,1.051S8.198,63.5,8.78,63.5L8.78,63.5z"/>
	<path fill="#2064D4" d="M62.607,58.251c-0.584,0-1.055,0.468-1.055,1.049V61.4l-2.111-0.001c-0.584,0-1.055,0.472-1.055,1.051
		s0.471,1.05,1.055,1.05h2.111l0,0c0.561,0,1.098-0.222,1.492-0.616c0.396-0.392,0.619-0.927,0.619-1.484v-2.1
		c0-0.279-0.111-0.545-0.311-0.742C63.156,58.36,62.887,58.251,62.607,58.251z"/>
	<path fill="#2064D4" d="M36.223,63.5c0.582,0,1.053-0.471,1.053-1.05s-0.471-1.051-1.053-1.051h-2.113
		c-0.582,0-1.055,0.472-1.055,1.051s0.473,1.05,1.055,1.05H36.223z"/>
	<path fill="#2064D4" d="M43.609,62.45c0-0.278-0.111-0.546-0.309-0.742S42.834,61.4,42.555,61.4h-2.111
		c-0.584,0-1.055,0.472-1.055,1.05c0,0.58,0.471,1.05,1.055,1.05h2.111l0,0c0.279,0,0.549-0.111,0.746-0.308
		C43.498,62.995,43.609,62.727,43.609,62.45L43.609,62.45z"/>
	<path fill="#2064D4" d="M48.887,63.5c0.584,0,1.055-0.471,1.055-1.05s-0.471-1.051-1.055-1.051h-2.111
		c-0.584,0-1.055,0.472-1.055,1.051s0.471,1.05,1.055,1.05H48.887z"/>
	<path fill="#2064D4" d="M56.275,62.45c0-0.278-0.111-0.546-0.311-0.742C55.77,61.512,55.5,61.4,55.221,61.4h-2.111
		c-0.584,0-1.055,0.472-1.055,1.05c0,0.58,0.471,1.05,1.055,1.05h2.111l0,0c0.279,0,0.549-0.111,0.744-0.308
		C56.164,62.995,56.275,62.727,56.275,62.45L56.275,62.45z"/>
	<path fill="#2064D4" d="M6.668,7.85v5.25c0,0.579,0.473,1.05,1.056,1.05c0.583,0,1.056-0.471,1.056-1.05v-2.716l7.697,7.658l0,0
		c0.414,0.398,1.072,0.392,1.479-0.013c0.407-0.405,0.413-1.061,0.013-1.472L10.272,8.9h2.73c0.582,0,1.054-0.47,1.054-1.05
		c0-0.58-0.472-1.05-1.054-1.05H7.725C7.142,6.8,6.668,7.271,6.668,7.85z"/>
	<path fill="#2064D4" d="M7.725,57.201h5.277c0.583,0,1.055-0.472,1.055-1.05c0-0.581-0.472-1.053-1.055-1.053h-2.729l7.697-7.656
		l0,0c0.4-0.412,0.394-1.065-0.013-1.473c-0.407-0.405-1.065-0.41-1.479-0.012L8.78,53.614v-2.715c0-0.579-0.473-1.049-1.056-1.049
		c-0.583,0-1.056,0.47-1.056,1.049v5.252c0,0.277,0.112,0.544,0.31,0.742C7.176,57.09,7.445,57.201,7.725,57.201L7.725,57.201z"/>
	<path fill="#2064D4" d="M57.33,56.151v-5.252c0-0.579-0.473-1.049-1.055-1.049c-0.584,0-1.055,0.47-1.055,1.049v2.716l-7.699-7.657
		l0,0c-0.414-0.398-1.072-0.394-1.479,0.012c-0.408,0.407-0.412,1.062-0.012,1.474l7.695,7.655h-2.729
		c-0.584,0-1.057,0.472-1.057,1.053c0,0.578,0.473,1.05,1.057,1.05h5.277c0.281,0,0.547-0.111,0.746-0.308
		C57.219,56.696,57.33,56.429,57.33,56.151z"/>
	<path fill="#2064D4" d="M57.33,7.85c0-0.278-0.111-0.546-0.309-0.742C56.822,6.911,56.557,6.8,56.275,6.8h-5.277
		c-0.584,0-1.057,0.47-1.057,1.05c0,0.581,0.473,1.05,1.057,1.05h2.729l-7.695,7.658l0,0c-0.205,0.195-0.322,0.464-0.324,0.746
		s0.111,0.553,0.309,0.751c0.201,0.199,0.473,0.311,0.756,0.309c0.285-0.003,0.553-0.119,0.75-0.321l7.699-7.658V13.1
		c0,0.579,0.471,1.05,1.055,1.05c0.582,0,1.055-0.471,1.055-1.05V7.85z"/>
</g>
</svg>
