<?xml version="1.0" encoding="utf-8"?>
<!-- Generator: Adobe Illustrator 16.0.0, SVG Export Plug-In . SVG Version: 6.00 Build 0)  -->
<!DOCTYPE svg PUBLIC "-//W3C//DTD SVG 1.1//EN" "http://www.w3.org/Graphics/SVG/1.1/DTD/svg11.dtd">
<svg version="1.1" id="Layer_1" xmlns="http://www.w3.org/2000/svg" xmlns:xlink="http://www.w3.org/1999/xlink" x="0px" y="0px"
	 width="64px" height="64px" viewBox="0 0 64 64" enable-background="new 0 0 64 64" xml:space="preserve">
<g>
	<path fill="#FF7C14" d="M60.087,29.988v-4.34c0-0.28-0.111-0.549-0.313-0.749c-0.199-0.198-0.474-0.31-0.753-0.31h-6.858
		c0.457-2.083,0.572-4.228,0.34-6.349h6.519c0.279,0,0.554-0.111,0.753-0.311c0.201-0.198,0.313-0.467,0.313-0.748v-6.456
		c1.743-0.352,3.192-1.544,3.868-3.176c0.676-1.633,0.483-3.491-0.505-4.956c-0.991-1.465-2.651-2.344-4.429-2.344
		c-1.779,0-3.439,0.879-4.431,2.344c-0.991,1.465-1.18,3.323-0.504,4.956c0.674,1.632,2.126,2.824,3.866,3.176v5.397h-5.79
		c-0.98-4.49-3.481-8.512-7.086-11.396c-3.602-2.884-8.094-4.458-12.723-4.458c-4.63,0-9.12,1.574-12.724,4.458
		c-3.604,2.885-6.104,6.906-7.083,11.396H6.754v-5.397c1.744-0.352,3.193-1.544,3.868-3.176c0.674-1.633,0.486-3.491-0.504-4.956
		C9.127,1.129,7.465,0.25,5.689,0.25c-1.778,0-3.439,0.879-4.43,2.344C0.268,4.059,0.08,5.917,0.754,7.55
		c0.676,1.632,2.125,2.824,3.867,3.176v6.456c0,0.281,0.113,0.55,0.313,0.748c0.2,0.199,0.472,0.311,0.755,0.311h6.517
		c-0.233,2.121-0.12,4.266,0.341,6.349H5.689c-0.59,0-1.068,0.474-1.068,1.059v4.34c-1.741,0.354-3.192,1.544-3.867,3.176
		c-0.675,1.633-0.487,3.49,0.504,4.955c0.991,1.467,2.652,2.346,4.43,2.346c1.776,0,3.438-0.879,4.429-2.346
		c0.99-1.465,1.179-3.322,0.504-4.955c-0.675-1.632-2.124-2.822-3.868-3.176v-3.281h6.401c1.281,3.836,3.694,7.199,6.929,9.654
		c3.235,2.453,7.14,3.885,11.204,4.104v6.352h-2.132c-0.589,0-1.067,0.475-1.067,1.057v11.643c0,1.514,0.814,2.91,2.134,3.666
		c1.32,0.758,2.946,0.758,4.267,0c1.319-0.756,2.133-2.152,2.133-3.666V47.873c0-0.281-0.112-0.549-0.313-0.746
		c-0.199-0.199-0.47-0.311-0.754-0.311h-2.132v-6.352c4.065-0.219,7.97-1.65,11.205-4.104c3.233-2.455,5.649-5.818,6.929-9.654
		h6.399v3.281c-1.742,0.354-3.193,1.544-3.868,3.176c-0.675,1.633-0.486,3.49,0.504,4.955c0.991,1.467,2.651,2.346,4.433,2.346
		c1.775,0,3.437-0.879,4.427-2.346c0.99-1.465,1.182-3.322,0.505-4.955C63.28,31.532,61.83,30.342,60.087,29.988L60.087,29.988z
		 M43.563,26.168c-1.696-1.686-3.999-2.634-6.398-2.635c-0.185,0-0.366,0.048-0.522,0.137l-4.289,2.402l-4.269-2.402
		c-0.161-0.091-0.345-0.138-0.532-0.137c-2.853,0.01-5.534,1.356-7.231,3.63c-1.202-2.07-1.836-4.416-1.835-6.805
		c-0.012-4.275,1.98-8.313,5.39-10.925c3.409-2.614,7.849-3.506,12.017-2.416c4.162,1.091,7.581,4.041,9.25,7.982
		c1.664,3.942,1.391,8.429-0.746,12.141c-0.254-0.343-0.533-0.668-0.834-0.972V26.168z"/>
	<path fill="#FF7C14" d="M39.819,16.123c0,4.092-3.342,7.408-7.465,7.408c-4.125,0-7.466-3.316-7.466-7.408s3.342-7.408,7.466-7.408
		C36.478,8.715,39.819,12.031,39.819,16.123"/>
</g>
</svg>
