<?xml version="1.0" encoding="utf-8"?>
<!-- Generator: Adobe Illustrator 16.0.0, SVG Export Plug-In . SVG Version: 6.00 Build 0)  -->
<!DOCTYPE svg PUBLIC "-//W3C//DTD SVG 1.1//EN" "http://www.w3.org/Graphics/SVG/1.1/DTD/svg11.dtd">
<svg version="1.1" id="Layer_1" xmlns="http://www.w3.org/2000/svg" xmlns:xlink="http://www.w3.org/1999/xlink" x="0px" y="0px"
	 width="64px" height="64px" viewBox="0 0 64 64" enable-background="new 0 0 64 64" xml:space="preserve">
<g>
	<path fill="#2064D4" d="M47.836,12.357l-0.416,0.248c-1.335,0.66-2.751,1.319-4.167,1.979c-3.418-2.227-7.334-3.382-11.5-3.382
		c-11.833,0-21.417,9.485-21.417,21.2c0,4.949,1.75,9.815,5,13.609l0.833,0.908l-3.417,2.886l-0.75-0.906
		C8.086,44.279,5.92,38.423,5.92,32.402C5.92,18.215,17.586,6.75,31.835,6.75c5.75,0,11.499,1.979,16,5.609L47.836,12.357z"/>
	<path fill="#2064D4" d="M57.667,32.402v1.236h-4.499v-1.236c0-3.052-0.666-6.104-2-8.909l2.833-4.124
		C56.418,23.328,57.667,27.782,57.667,32.402z"/>
	<path fill="#2064D4" d="M19.213,50.25c1.044,0.173,1.748,1.151,1.573,2.185s-1.164,1.729-2.208,1.557
		c-1.043-0.173-1.748-1.152-1.572-2.185C17.181,50.773,18.17,50.076,19.213,50.25"/>
	<path fill="#2064D4" d="M57.334,41.639c0,2.097-1.716,3.794-3.834,3.794c-2.115,0-3.832-1.697-3.832-3.794
		c0-2.094,1.717-3.794,3.832-3.794C55.618,37.845,57.334,39.545,57.334,41.639"/>
	<path fill="#2064D4" d="M46.502,49.475c-0.499-0.33-1.082-0.496-1.666-0.496c-1,0-2,0.496-2.5,1.321
		c-0.917,1.401-0.5,3.216,0.834,4.124c0.499,0.33,1.082,0.496,1.666,0.496c1,0,2-0.496,2.5-1.321
		C48.252,52.197,47.919,50.383,46.502,49.475z"/>
	<path fill="#2064D4" d="M31.919,53.188c-0.417,0-0.75,0.083-1.083,0.246c-0.667,0.247-1.167,0.825-1.417,1.486
		c-0.25,0.658-0.25,1.401,0,2.062c0.417,0.989,1.417,1.649,2.5,1.649c0.417,0,0.75-0.083,1.083-0.248
		c0.667-0.247,1.167-0.825,1.418-1.483c0.249-0.661,0.249-1.404,0-2.063C33.919,53.846,33.002,53.188,31.919,53.188z"/>
	<path fill="#2064D4" d="M52.169,16.398c0.166-0.33,0.249-0.825,0-1.154c0-0.083-0.083-0.083-0.083-0.165l-0.167-0.166
		c-0.333-0.33-0.917-0.412-1.417-0.247c-0.084,0-0.167,0.083-0.25,0.083l-1.083,0.578c-2.25,1.072-4.5,2.144-6.667,3.216
		c-1.249,0.578-2.5,1.237-3.749,1.815c-3.25,1.567-6.583,3.134-9.833,4.784c-3.333,1.65-4.917,5.279-3.833,8.826
		c1,3.217,3.917,5.278,7.25,5.278c0.334,0,0.584,0,0.917-0.082c2.25-0.248,4.166-1.484,5.667-3.629
		c2.916-4.207,5.916-8.414,8.832-12.703L52.169,16.398z"/>
</g>
</svg>
