<?xml version="1.0" encoding="utf-8"?>
<!-- Generator: Adobe Illustrator 16.0.0, SVG Export Plug-In . SVG Version: 6.00 Build 0)  -->
<!DOCTYPE svg PUBLIC "-//W3C//DTD SVG 1.1//EN" "http://www.w3.org/Graphics/SVG/1.1/DTD/svg11.dtd">
<svg version="1.1" id="Layer_1" xmlns="http://www.w3.org/2000/svg" xmlns:xlink="http://www.w3.org/1999/xlink" x="0px" y="0px"
	 width="64px" height="64px" viewBox="0 0 64 64" enable-background="new 0 0 64 64" xml:space="preserve">
<g>
	<path fill="#9834E4" d="M53.057,8.941c2.359,0,4.277,1.692,4.277,3.773v24.525c0,2.082-1.918,3.773-4.277,3.773h-6.416v-3.773
		h6.416V12.714H10.278v24.525h17.111v3.773H10.278C7.919,41.013,6,39.321,6,37.239V12.714c0-2.081,1.919-3.773,4.278-3.773H53.057z
		 M34.875,43.843c-0.59,0-1.068,0.423-1.068,0.943c0,0.519,0.479,0.943,1.068,0.943s1.07-0.425,1.07-0.943
		C35.945,44.266,35.465,43.843,34.875,43.843z M34.875,40.069c-0.59,0-1.068,0.423-1.068,0.943c0,0.52,0.479,0.943,1.068,0.943
		s1.07-0.424,1.07-0.943C35.945,40.492,35.465,40.069,34.875,40.069z M34.875,36.296c-0.59,0-1.068,0.423-1.068,0.943
		c0,0.52,0.479,0.944,1.068,0.944s1.07-0.425,1.07-0.944C35.945,36.719,35.465,36.296,34.875,36.296z M39.154,43.843
		c-0.592,0-1.07,0.423-1.07,0.943c0,0.519,0.479,0.943,1.07,0.943c0.586,0,1.07-0.425,1.07-0.943
		C40.225,44.266,39.74,43.843,39.154,43.843z M39.154,40.069c-0.592,0-1.07,0.423-1.07,0.943c0,0.52,0.479,0.943,1.07,0.943
		c0.586,0,1.07-0.424,1.07-0.943C40.225,40.492,39.74,40.069,39.154,40.069z M39.154,36.296c-0.592,0-1.07,0.423-1.07,0.943
		c0,0.52,0.479,0.944,1.07,0.944c0.586,0,1.07-0.425,1.07-0.944C40.225,36.719,39.74,36.296,39.154,36.296z M29.528,52.333V31.58
		H44.5v20.753H29.528z M44.83,21.274c0.502,0.272,0.66,0.853,0.352,1.296c-0.203,0.291-0.555,0.451-0.914,0.451
		c-0.191,0-0.383-0.047-0.557-0.14c-3.936-2.132-8.891-2.226-12.925-0.245c-0.522,0.251-1.17,0.088-1.457-0.366
		c-0.287-0.457-0.102-1.03,0.415-1.283c4.712-2.311,10.492-2.202,15.087,0.287H44.83z M42.037,26.234
		c-0.191,0-0.383-0.043-0.559-0.138c-2.625-1.42-5.926-1.483-8.619-0.164c-0.513,0.253-1.165,0.089-1.454-0.366
		c-0.285-0.457-0.101-1.03,0.417-1.283c3.365-1.651,7.494-1.569,10.777,0.204c0.5,0.273,0.658,0.852,0.35,1.297
		C42.75,26.073,42.398,26.234,42.037,26.234L42.037,26.234z M33.908,27.593c2.016-0.989,4.492-0.945,6.451,0.115
		c0.502,0.271,0.66,0.854,0.352,1.296c-0.199,0.291-0.553,0.451-0.914,0.451c-0.188,0-0.383-0.043-0.557-0.138
		c-1.303-0.705-2.949-0.734-4.295-0.073c-0.514,0.251-1.166,0.089-1.453-0.366C33.207,28.422,33.395,27.846,33.908,27.593
		L33.908,27.593z"/>
</g>
</svg>
