<?xml version="1.0" encoding="utf-8"?>
<!-- Generator: Adobe Illustrator 16.0.0, SVG Export Plug-In . SVG Version: 6.00 Build 0)  -->
<!DOCTYPE svg PUBLIC "-//W3C//DTD SVG 1.1//EN" "http://www.w3.org/Graphics/SVG/1.1/DTD/svg11.dtd">
<svg version="1.1" id="Layer_1" xmlns="http://www.w3.org/2000/svg" xmlns:xlink="http://www.w3.org/1999/xlink" x="0px" y="0px"
	 width="64px" height="64px" viewBox="0 0 64 64" enable-background="new 0 0 64 64" xml:space="preserve">
<g>
	<path fill="#E04434" d="M18.668,25.018c1.197,0,2.346-0.442,3.193-1.229c0.847-0.788,1.322-1.856,1.322-2.969
		c0-1.612-2.529-5.349-4.515-7.842c-1.987,2.519-4.516,6.23-4.516,7.842c0,1.113,0.476,2.181,1.322,2.969
		C16.322,24.576,17.471,25.018,18.668,25.018z"/>
	<path fill="#E04434" d="M33.117,30.895c1.197,0,2.346-0.442,3.193-1.229c0.847-0.787,1.322-1.855,1.322-2.968
		c0-1.612-2.529-5.348-4.516-7.842c-1.986,2.519-4.516,6.23-4.516,7.842c0,1.113,0.476,2.181,1.323,2.968
		C30.771,30.453,31.92,30.895,33.117,30.895z"/>
	<path fill="#E04434" d="M48.47,25.018c1.197,0,2.346-0.442,3.192-1.229c0.847-0.788,1.322-1.856,1.322-2.969
		c0-1.612-2.528-5.349-4.515-7.842c-1.987,2.519-4.516,6.23-4.516,7.842c0,1.113,0.477,2.181,1.323,2.969
		C46.123,24.576,47.272,25.018,48.47,25.018z"/>
	<path fill="#E04434" d="M57.5,46.009H8.734v1.679h2.276l2.564,2.385l1.273-1.185l-1.282-1.2h1.959l2.564,2.385l1.273-1.185
		l-1.282-1.2h1.959l2.565,2.385l1.273-1.185l-1.282-1.2h1.959l2.564,2.385l1.273-1.185l-1.282-1.2h1.959l2.565,2.385l1.273-1.185
		l-1.282-1.2h1.959l2.564,2.385l1.274-1.185l-1.283-1.2h1.96l2.564,2.385l1.274-1.185l-1.283-1.2h1.96l2.563,2.385l1.274-1.185
		l-1.283-1.2h1.96l2.564,2.385l1.274-1.185l-1.283-1.2h1.96l2.564,2.385l1.274-1.185l-1.283-1.2H57.5V46.009z"/>
	<path fill="#E04434" d="M29.035,41.97l4.037,2.519l19.326-9.681l0.388,2.519l0,0c0.935-2.045,2.223-3.934,3.813-5.592
		c-2.344,0.331-4.731,0.299-7.064-0.092l2.007,1.679l-7.75,3.87c0.937-1.995,2.211-3.838,3.776-5.457
		c-2.344,0.331-4.731,0.299-7.063-0.092l2.006,1.679l-13.375,6.717l-14.449-8.976c-0.198-0.148-0.454-0.212-0.705-0.176
		s-0.475,0.169-0.615,0.366c-0.141,0.197-0.185,0.439-0.123,0.668c0.062,0.229,0.225,0.424,0.449,0.535l13.672,8.48l-3.169,1.586
		L7.461,31.055c-0.194-0.131-0.436-0.186-0.673-0.151c-0.238,0.034-0.45,0.155-0.591,0.335c-0.294,0.376-0.206,0.903,0.198,1.176
		L24.014,44.48L29.035,41.97z M43.367,34.791l0.38,2.419l-10.585,5.296l-2.33-1.443L43.367,34.791z"/>
</g>
</svg>
