<?xml version="1.0" encoding="utf-8"?>
<!-- Generator: Adobe Illustrator 16.0.0, SVG Export Plug-In . SVG Version: 6.00 Build 0)  -->
<!DOCTYPE svg PUBLIC "-//W3C//DTD SVG 1.1//EN" "http://www.w3.org/Graphics/SVG/1.1/DTD/svg11.dtd">
<svg version="1.1" id="Layer_1" xmlns="http://www.w3.org/2000/svg" xmlns:xlink="http://www.w3.org/1999/xlink" x="0px" y="0px"
	 width="64px" height="64px" viewBox="0 0 64 64" enable-background="new 0 0 64 64" xml:space="preserve">
<g>
	<path fill="#FFBC04" d="M41.5,27.321c0-1.085-0.216-2.118-0.596-3.075c-0.689,1.055-1.911,1.766-3.313,1.766
		c-2.16,0-3.909-1.665-3.909-3.719c0-1.334,0.745-2.497,1.856-3.151c-1.009-0.36-2.095-0.566-3.234-0.566
		c-5.081,0-9.199,3.915-9.199,8.749c0,4.832,4.118,8.749,9.199,8.749C37.384,36.072,41.5,32.152,41.5,27.321L41.5,27.321z"/>
	<path fill="#FFBC04" d="M53.897,27.321c0-11.347-9.669-20.545-21.596-20.545s-21.596,9.198-21.596,20.545
		c0,9.454,6.722,17.396,15.859,19.788v3.55c-3.296,0.065-5.948,2.617-5.948,5.765h23.37c0-3.147-2.653-5.699-5.948-5.765v-3.55
		C47.175,44.717,53.896,36.775,53.897,27.321L53.897,27.321z M32.302,7.845c1.058,0,1.914,0.814,1.914,1.82s-0.856,1.82-1.914,1.82
		c-1.057,0-1.913-0.814-1.913-1.82S31.245,7.845,32.302,7.845z M17.412,27.321c0-7.824,6.667-14.165,14.89-14.165
		c8.223,0,14.891,6.341,14.891,14.165c0,7.823-6.665,14.164-14.891,14.164C24.079,41.484,17.412,35.145,17.412,27.321z"/>
</g>
</svg>
