<?xml version="1.0" encoding="utf-8"?>
<!-- Generator: Adobe Illustrator 16.0.0, SVG Export Plug-In . SVG Version: 6.00 Build 0)  -->
<!DOCTYPE svg PUBLIC "-//W3C//DTD SVG 1.1//EN" "http://www.w3.org/Graphics/SVG/1.1/DTD/svg11.dtd">
<svg version="1.1" id="Layer_1" xmlns="http://www.w3.org/2000/svg" xmlns:xlink="http://www.w3.org/1999/xlink" x="0px" y="0px"
	 width="64px" height="64px" viewBox="0 0 64 64" enable-background="new 0 0 64 64" xml:space="preserve">
<g>
	<path fill="#FFBC04" d="M63.532,43.71l-2.351-1.176c-1.489-0.744-3.229-0.816-4.778-0.198l-1.355,0.542
		c-0.98,0.394-2.086,0.347-3.029-0.125L51.8,42.644c-0.527-0.266-1.168-0.051-1.432,0.476s-0.051,1.168,0.475,1.431l0.221,0.11
		c1.49,0.745,3.23,0.818,4.777,0.198l1.355-0.541c0.98-0.395,2.086-0.348,3.031,0.125l2.35,1.176
		c0.154,0.076,0.317,0.113,0.478,0.113c0.392,0,0.769-0.217,0.954-0.59C64.272,44.614,64.06,43.974,63.532,43.71"/>
	<path fill="#FFBC04" d="M43.266,43.146c-1.636-0.818-3.587-0.815-5.222,0c-1.037,0.52-2.273,0.519-3.313,0
		c-1.635-0.817-3.585-0.817-5.22,0c-0.527,0.264-0.74,0.905-0.477,1.432c0.263,0.525,0.903,0.742,1.43,0.477
		c1.037-0.519,2.276-0.519,3.313,0.001c0.818,0.408,1.713,0.612,2.61,0.612s1.793-0.204,2.61-0.613c1.037-0.519,2.275-0.519,3.313,0
		c0.528,0.266,1.167,0.049,1.431-0.477C44.006,44.052,43.792,43.41,43.266,43.146"/>
	<path fill="#FFBC04" d="M21.932,44.552c0.526-0.264,0.741-0.903,0.478-1.431c-0.264-0.526-0.901-0.742-1.431-0.478
		c-1.037,0.518-2.275,0.519-3.313-0.002c-1.634-0.814-3.586-0.816-5.221,0.002c-1.036,0.518-2.273,0.519-3.312-0.002l-0.218-0.107
		c-1.489-0.745-3.229-0.818-4.777-0.199l-3.344,1.338c-0.547,0.22-0.814,0.84-0.596,1.388c0.167,0.416,0.569,0.67,0.992,0.67
		c0.131,0,0.266-0.024,0.396-0.077l3.344-1.338c0.982-0.393,2.086-0.346,3.033,0.127l0.217,0.109
		c1.635,0.816,3.586,0.816,5.221-0.001c1.037-0.519,2.274-0.519,3.313,0.001C18.347,45.368,20.297,45.368,21.932,44.552"/>
	<path fill="#FFBC04" d="M63.532,49.043l-2.351-1.176c-1.489-0.744-3.229-0.817-4.778-0.198l-1.355,0.542
		c-0.98,0.392-2.086,0.347-3.03-0.126c-0.528-0.264-1.169-0.051-1.431,0.477c-0.264,0.527-0.051,1.168,0.477,1.432
		c1.49,0.744,3.23,0.818,4.777,0.198l1.355-0.542c0.98-0.394,2.086-0.347,3.031,0.126l2.35,1.176
		c0.154,0.077,0.317,0.112,0.477,0.112c0.393,0,0.77-0.216,0.955-0.59C64.272,49.947,64.06,49.306,63.532,49.043"/>
	<path fill="#FFBC04" d="M43.266,47.976c-1.635-0.816-3.587-0.816-5.222,0.002c-1.035,0.518-2.274,0.518-3.313-0.002
		c-0.527-0.262-1.166-0.049-1.43,0.479c-0.264,0.526-0.049,1.168,0.478,1.432c0.817,0.408,1.714,0.611,2.609,0.611
		c0.896,0,1.794-0.205,2.61-0.613c1.039-0.518,2.275-0.518,3.313,0c0.529,0.264,1.168,0.049,1.432-0.478
		C44.007,48.879,43.792,48.239,43.266,47.976"/>
	<path fill="#FFBC04" d="M26.198,47.976c-1.635-0.816-3.586-0.816-5.221,0.002c-1.037,0.517-2.275,0.518-3.313-0.002
		c-0.528-0.262-1.167-0.049-1.43,0.479c-0.264,0.526-0.05,1.166,0.477,1.432c0.817,0.406,1.713,0.611,2.609,0.611
		c0.897,0,1.794-0.205,2.613-0.613c1.037-0.519,2.275-0.519,3.311,0c0.528,0.264,1.168,0.049,1.432-0.477
		C26.938,48.88,26.726,48.239,26.198,47.976"/>
	<path fill="#FFBC04" d="M9.132,47.976l-0.218-0.109c-1.489-0.744-3.229-0.816-4.777-0.197l-3.344,1.338
		c-0.547,0.219-0.814,0.839-0.594,1.387c0.166,0.416,0.567,0.672,0.991,0.672c0.131,0,0.266-0.026,0.396-0.078l3.344-1.338
		c0.982-0.393,2.086-0.347,3.033,0.127l0.218,0.109c0.527,0.262,1.167,0.047,1.431-0.479C9.874,48.879,9.659,48.239,9.132,47.976"/>
	<path fill="#FFBC04" d="M61.989,38.265h-1.882l-0.299-0.15c0.001-0.01,0-0.021,0.001-0.03c0.03-0.3,0.046-0.594,0.046-0.887
		c0-0.422-0.036-0.834-0.09-1.241c-0.013-0.098-0.028-0.195-0.044-0.292c-0.059-0.363-0.136-0.72-0.234-1.069
		c-0.013-0.047-0.021-0.095-0.036-0.142c-0.119-0.397-0.265-0.784-0.433-1.157c-0.035-0.079-0.074-0.156-0.113-0.234
		c-0.145-0.305-0.307-0.599-0.483-0.885c-0.032-0.055-0.057-0.113-0.092-0.168l3.659-2.425V38.265z M33.044,36.705
		c0.029-0.001,0.058-0.007,0.086-0.007c-0.227-0.937-1.069-1.634-2.075-1.634c-1.176,0-2.133,0.956-2.133,2.133
		c0,0.165,0.022,0.331,0.065,0.494c-0.591,0.011-1.183-0.112-1.722-0.382c-0.152-0.076-0.31-0.138-0.468-0.199
		c0.048-2.313,1.936-4.18,4.258-4.18c2.317,0,4.201,1.859,4.256,4.164C34.587,36.813,33.815,36.686,33.044,36.705L33.044,36.705z
		 M15.055,32.931c2.353,0,4.267,1.914,4.267,4.267c0,0.104-0.018,0.21-0.027,0.315c-0.19-0.059-0.383-0.112-0.564-0.203
		c-0.538-0.268-1.11-0.439-1.694-0.532c0.039,0.007,0.076,0.005,0.112,0.012c-0.19-0.981-1.057-1.725-2.094-1.725
		c-1.176,0-2.133,0.956-2.133,2.133c0,0.106,0.011,0.21,0.028,0.315c-0.699,0.217-1.439,0.224-2.139,0.019
		c-0.009-0.112-0.022-0.222-0.022-0.334C10.789,34.845,12.702,32.931,15.055,32.931L15.055,32.931z M29.989,25.464h6.4v2.133h-6.4
		V25.464z M47.056,32.931c2.353,0,4.266,1.914,4.266,4.267c0,0.17-0.014,0.339-0.033,0.505c-0.712,0.161-1.449,0.104-2.132-0.156
		c0.021-0.115,0.032-0.232,0.032-0.349c0-1.177-0.957-2.133-2.133-2.133c-1.037,0-1.903,0.743-2.094,1.725
		c0.03-0.005,0.063-0.003,0.096-0.009c-0.578,0.093-1.146,0.264-1.68,0.53c-0.18,0.09-0.371,0.144-0.563,0.202
		c-0.009-0.105-0.027-0.211-0.027-0.315C42.788,34.845,44.702,32.931,47.056,32.931L47.056,32.931z M63.56,26.658
		c-0.347-0.185-0.766-0.167-1.093,0.052l-5.496,3.64c-1.733-1.699-4.103-2.752-6.716-2.752H38.522v-3.2
		c0-0.589-0.479-1.066-1.066-1.066H36.39v-3.2c0-4.705-3.829-8.533-8.534-8.533c0-0.589-0.478-1.066-1.066-1.066h-4.267
		c-0.589,0-1.066,0.478-1.066,1.066v6.4c0,0.589,0.478,1.067,1.066,1.067h4.267c0.588,0,1.066-0.478,1.066-1.067
		c1.177,0,2.133,0.957,2.133,2.133v3.2h-1.066c-0.589,0-1.067,0.478-1.067,1.066v3.2h-16c-5.293,0-9.6,4.308-9.6,9.6
		c0,0.319,0.019,0.642,0.053,0.964L2.05,38.265H1.189c-0.589,0-1.067,0.478-1.067,1.066c0,0.588,0.478,1.066,1.067,1.066h1.066
		c0.136,0,0.27-0.025,0.396-0.076c0,0,1.228-0.491,1.229-0.491c0,0,2.117-0.847,2.115-0.847c0.982-0.395,2.086-0.348,3.032,0.126
		l0.217,0.109c0.225,0.112,0.456,0.205,0.69,0.286c0.05,0.017,0.101,0.028,0.15,0.045c0.195,0.062,0.392,0.114,0.59,0.155
		c0.04,0.008,0.078,0.013,0.117,0.02c0.22,0.04,0.441,0.069,0.664,0.084c0.018,0.001,0.036,0.001,0.053,0.003
		c0.249,0.015,0.496,0.014,0.743-0.003c0.763-0.052,1.517-0.241,2.214-0.591c0.923-0.463,2.002-0.488,2.961-0.126
		c0.117,0.044,0.239,0.071,0.351,0.127c1.634,0.816,3.586,0.817,5.222,0c0.259-0.13,0.531-0.228,0.81-0.292
		c0.834-0.194,1.725-0.098,2.503,0.292c0.262,0.132,0.534,0.233,0.811,0.322c0.046,0.014,0.092,0.028,0.138,0.04
		c0.271,0.08,0.546,0.144,0.824,0.183c1.167,0.167,2.375-0.011,3.449-0.546c0.55-0.275,1.157-0.394,1.761-0.377
		c0.261,0.008,0.52,0.037,0.775,0.098c0.266,0.064,0.526,0.156,0.775,0.28c0.15,0.075,0.314,0.112,0.478,0.112
		s0.327-0.037,0.477-0.112c0.962-0.481,2.09-0.496,3.077-0.085c0.078,0.031,0.16,0.047,0.236,0.085
		c0.41,0.204,0.837,0.357,1.275,0.46c0.438,0.102,0.887,0.152,1.334,0.152c0.896,0,1.793-0.205,2.611-0.613
		c1.033-0.516,2.277-0.512,3.312-0.001c1.089,0.536,2.241,0.813,3.462,0.685c0.523-0.055,1.047-0.18,1.534-0.375l1.356-0.543
		c0.979-0.395,2.085-0.348,3.031,0.126l1.139,0.57l1.211,0.606c0.153,0.075,0.316,0.111,0.478,0.111h3.2
		c0.588,0,1.066-0.479,1.066-1.066V27.597C64.122,27.205,63.905,26.843,63.56,26.658L63.56,26.658z"/>
</g>
</svg>
