<?xml version="1.0" encoding="utf-8"?>
<!-- Generator: Adobe Illustrator 16.0.0, SVG Export Plug-In . SVG Version: 6.00 Build 0)  -->
<!DOCTYPE svg PUBLIC "-//W3C//DTD SVG 1.1//EN" "http://www.w3.org/Graphics/SVG/1.1/DTD/svg11.dtd">
<svg version="1.1" id="Layer_1" xmlns="http://www.w3.org/2000/svg" xmlns:xlink="http://www.w3.org/1999/xlink" x="0px" y="0px"
	 width="64px" height="64px" viewBox="0 0 64 64" enable-background="new 0 0 64 64" xml:space="preserve">
<g>
	<path fill="#2064D4" d="M44.657,25.125l-7.408-9.243c-0.386,1.681-1.345,3.187-2.725,4.267c-1.379,1.081-3.095,1.673-4.865,1.681
		h-0.461l7.313,9.122c0.594-1.657,1.69-3.101,3.145-4.141C41.11,25.771,42.853,25.184,44.657,25.125L44.657,25.125z"/>
	<path fill="#2064D4" d="M22.08,16.03l-4.098,3.101c1.874,0.949,3.116,2.766,3.291,4.814l4.337-3.264
		C23.848,19.645,22.579,17.973,22.08,16.03z"/>
	<path fill="#2064D4" d="M36.818,33.81V46.2H53.08V33.81c0-2.826-1.551-5.437-4.065-6.85c-2.515-1.413-5.615-1.413-8.131,0
		C38.369,28.373,36.818,30.984,36.818,33.81z M39.605,31.083l1.377-1.339c0.122-0.119,0.308-0.151,0.466-0.079l0.878,0.406
		c0.301-0.154,0.614-0.281,0.937-0.379l0.326-0.892c0.059-0.158,0.212-0.263,0.387-0.263h1.95c0.17,0,0.322,0.105,0.378,0.263
		l0.332,0.892c0.322,0.101,0.637,0.228,0.937,0.379l0.878-0.406l0,0c0.156-0.074,0.343-0.042,0.463,0.079l1.38,1.339
		c0.12,0.119,0.152,0.298,0.076,0.448l-0.416,0.865c0.152,0.289,0.28,0.59,0.38,0.901l0.927,0.322l0,0
		c0.16,0.057,0.27,0.207,0.27,0.374v1.894v-0.001c0,0.168-0.109,0.317-0.27,0.374l-0.938,0.328c-0.101,0.304-0.227,0.598-0.38,0.881
		l0.428,0.88c0.078,0.149,0.046,0.33-0.076,0.448l-1.376,1.339c-0.118,0.122-0.307,0.154-0.46,0.079l-0.911-0.422
		c-0.286,0.147-0.586,0.27-0.894,0.364l-0.343,0.923l0,0c-0.054,0.157-0.208,0.264-0.38,0.264h-1.95l0,0
		c-0.173-0.001-0.326-0.106-0.387-0.264l-0.34-0.944c-0.311-0.096-0.612-0.218-0.9-0.363l-0.904,0.422
		c-0.158,0.073-0.344,0.041-0.466-0.08l-1.377-1.338l0,0c-0.12-0.12-0.154-0.297-0.082-0.449l0.429-0.881
		c-0.15-0.282-0.278-0.577-0.381-0.88l-0.952-0.307c-0.16-0.059-0.268-0.207-0.268-0.374v-1.893c0-0.166,0.107-0.315,0.268-0.374
		l0.948-0.338c0.097-0.312,0.225-0.613,0.379-0.901l-0.423-0.865l0,0C39.46,31.369,39.494,31.199,39.605,31.083L39.605,31.083z"/>
	<path fill="#2064D4" d="M39.161,35.613l0.86,0.295c0.126,0.044,0.221,0.145,0.257,0.269c0.12,0.382,0.29,0.748,0.508,1.086
		c0.062,0.114,0.062,0.251,0,0.363l-0.396,0.808l0.977,0.949l0.841-0.386v0.001c0.117-0.062,0.258-0.062,0.374,0
		c0.34,0.192,0.704,0.341,1.084,0.442c0.126,0.037,0.226,0.132,0.271,0.253l0.313,0.85h1.417l0.308-0.85
		c0.038-0.108,0.124-0.197,0.234-0.241c0.378-0.103,0.742-0.252,1.082-0.444c0.118-0.061,0.259-0.061,0.374,0l0.841,0.386
		l0.97-0.949l-0.396-0.806v-0.001c-0.061-0.116-0.061-0.253,0-0.369c0.202-0.332,0.355-0.687,0.466-1.054
		c0.034-0.127,0.13-0.228,0.256-0.27l0.86-0.296l0.002-1.376l-0.852-0.296c-0.127-0.046-0.223-0.147-0.261-0.273
		c-0.105-0.384-0.262-0.753-0.466-1.097c-0.064-0.116-0.064-0.254,0-0.369l0.386-0.791l-0.972-0.949l-0.813,0.375v0
		c-0.116,0.063-0.256,0.063-0.374,0c-0.347-0.203-0.719-0.362-1.104-0.475c-0.13-0.034-0.234-0.129-0.278-0.253l-0.264-0.818h-1.404
		l-0.299,0.823h-0.002c-0.046,0.12-0.147,0.211-0.273,0.248c-0.402,0.104-0.785,0.258-1.145,0.459c-0.118,0.063-0.263,0.063-0.381,0
		l-0.806-0.375l-0.977,0.949l0.406,0.797c0.062,0.115,0.062,0.253,0,0.369c-0.2,0.346-0.356,0.714-0.466,1.098
		c-0.034,0.126-0.128,0.228-0.255,0.273l-0.904,0.306V35.613z M44.89,32.127c0.756,0,1.479,0.292,2.013,0.81
		c0.534,0.52,0.834,1.224,0.834,1.957c0,0.734-0.3,1.439-0.834,1.959c-0.534,0.519-1.257,0.811-2.013,0.811
		c-0.755,0-1.479-0.292-2.013-0.811c-0.532-0.52-0.832-1.225-0.832-1.959c0-0.735,0.304-1.442,0.842-1.962s1.267-0.81,2.024-0.805
		H44.89z"/>
	<path fill="#2064D4" d="M44.911,36.874c0.54,0,1.057-0.209,1.437-0.579c0.383-0.372,0.597-0.874,0.597-1.399
		c0-0.523-0.214-1.026-0.597-1.397c-0.38-0.371-0.896-0.579-1.437-0.579s-1.056,0.208-1.438,0.579
		c-0.38,0.371-0.594,0.874-0.594,1.397c0,0.524,0.216,1.027,0.596,1.397C43.857,36.663,44.373,36.872,44.911,36.874L44.911,36.874z"
		/>
	<path fill="#2064D4" d="M34.11,46.991h21.681v7.91H34.11V46.991z"/>
	<path fill="#2064D4" d="M15.137,30.409c-0.701,0-1.396-0.12-2.055-0.353v3.333h4.104l0-3.333
		C16.53,30.289,15.836,30.409,15.137,30.409L15.137,30.409z"/>
	<path fill="#2064D4" d="M36.619,14.232c0-1.8-0.736-3.526-2.043-4.798c-1.309-1.273-3.083-1.988-4.933-1.988
		c-1.851,0-3.625,0.715-4.933,1.988c-1.309,1.272-2.044,2.999-2.044,4.798c0,1.799,0.735,3.526,2.044,4.798
		c1.308,1.273,3.083,1.987,4.933,1.987c1.85,0,3.625-0.715,4.933-1.987C35.883,17.758,36.619,16.031,36.619,14.232z M25.87,14.232
		c0-0.979,0.4-1.918,1.111-2.61c0.712-0.691,1.677-1.081,2.684-1.081s1.971,0.389,2.683,1.081c0.712,0.692,1.111,1.631,1.111,2.61
		s-0.399,1.917-1.111,2.61c-0.711,0.692-1.676,1.081-2.683,1.081s-1.972-0.389-2.684-1.081C26.27,16.149,25.87,15.211,25.87,14.232z
		"/>
	<path fill="#2064D4" d="M10.302,37.916l-1.865,3.803l2.379,3.785l1.366-0.68l-1.133-3.105l1.691-2.315h-0.498
		c-0.448-0.002-0.882-0.148-1.233-0.418S10.409,38.34,10.302,37.916z"/>
	<path fill="#2064D4" d="M17.641,39.403l1.686,2.315l-1.133,3.105l1.366,0.68l2.379-3.785l-1.865-3.802h0
		c-0.106,0.423-0.354,0.8-0.706,1.069c-0.352,0.27-0.787,0.417-1.234,0.417H17.641z"/>
	<path fill="#2064D4" d="M32.596,14.232c0,1.587-1.323,2.874-2.954,2.874c-1.632,0-2.955-1.287-2.955-2.874
		c0-1.587,1.323-2.874,2.955-2.874C31.273,11.358,32.596,12.645,32.596,14.232"/>
	<path fill="#2064D4" d="M20.471,24.424c0,2.866-2.388,5.188-5.333,5.188c-2.946,0-5.334-2.322-5.334-5.188
		c0-2.866,2.389-5.188,5.334-5.188C18.083,19.236,20.471,21.559,20.471,24.424"/>
	<path fill="#2064D4" d="M12.242,34.179h5.892c0.659,0,1.192,0.641,1.192,1.16v2.114c0,0.641-0.534,1.16-1.192,1.16h-5.892
		c-0.659,0-1.192-0.641-1.192-1.16v-2.114C11.049,34.698,11.583,34.179,12.242,34.179z"/>
</g>
</svg>
