<?xml version="1.0" encoding="utf-8"?>
<!-- Generator: Adobe Illustrator 16.0.0, SVG Export Plug-In . SVG Version: 6.00 Build 0)  -->
<!DOCTYPE svg PUBLIC "-//W3C//DTD SVG 1.1//EN" "http://www.w3.org/Graphics/SVG/1.1/DTD/svg11.dtd">
<svg version="1.1" id="Layer_1" xmlns="http://www.w3.org/2000/svg" xmlns:xlink="http://www.w3.org/1999/xlink" x="0px" y="0px"
	 width="64px" height="64px" viewBox="0 0 64 64" enable-background="new 0 0 64 64" xml:space="preserve">
<g>
	<path fill="#FFFFFF" d="M21.283,40.715c0.931,0,1.707-0.775,1.707-1.707c0-0.931-0.776-1.707-1.707-1.707s-1.707,0.776-1.707,1.707
		C19.654,39.939,20.352,40.715,21.283,40.715z"/>
	<path fill="#FFFFFF" d="M21.283,43.507c2.482,0,4.5-2.017,4.5-4.499s-2.017-4.422-4.5-4.422s-4.499,2.018-4.499,4.422
		C16.861,41.49,18.878,43.507,21.283,43.507z M21.283,36.215c1.551,0,2.871,1.241,2.871,2.871c0,1.551-1.241,2.869-2.871,2.869
		c-1.629,0-2.87-1.24-2.87-2.869C18.49,37.457,19.732,36.215,21.283,36.215z"/>
	<path fill="#FFFFFF" d="M16.396,25.199c0-2.172-1.707-3.879-3.879-3.879c-2.172,0-3.879,1.707-3.879,3.879
		c0,2.172,1.707,3.879,3.879,3.879C14.689,29.078,16.396,27.294,16.396,25.199z M9.958,25.199c0-1.396,1.164-2.56,2.56-2.56
		s2.56,1.164,2.56,2.56s-1.164,2.56-2.56,2.56S9.958,26.596,9.958,25.199z"/>
	<path fill="#FFFFFF" d="M13.913,25.199c0,0.771-0.625,1.396-1.396,1.396s-1.396-0.625-1.396-1.396c0-0.771,0.625-1.396,1.396-1.396
		S13.913,24.428,13.913,25.199"/>
	<path fill="#FFFFFF" d="M34.237,15.192c0-1.707-1.396-3.181-3.18-3.181c-1.707,0-3.181,1.396-3.181,3.181
		c0,1.707,1.396,3.181,3.181,3.181C32.842,18.295,34.237,16.899,34.237,15.192z M31.058,17.365c-1.241,0-2.172-1.009-2.172-2.172
		s1.009-2.172,2.172-2.172c1.24,0,2.172,1.008,2.172,2.172S32.298,17.365,31.058,17.365z"/>
	<path fill="#FFFFFF" d="M32.066,15.192c0,0.557-0.452,1.009-1.008,1.009c-0.557,0-1.008-0.452-1.008-1.009
		c0-0.557,0.451-1.008,1.008-1.008C31.614,14.184,32.066,14.635,32.066,15.192"/>
	<path fill="#FFFFFF" d="M17.327,26.751c-0.621,1.862-2.25,3.181-4.267,3.413l2.948,6.904c0.698-1.784,2.25-3.181,4.189-3.568
		L17.327,26.751z"/>
	<path fill="#FFFFFF" d="M17.56,25.122l11.713-6.051c-1.474-0.698-2.56-2.172-2.56-3.956c0-0.388,0.077-0.776,0.155-1.086
		l-12.412,6.517C16.24,21.32,17.559,23.105,17.56,25.122L17.56,25.122z"/>
	<path fill="#FFFFFF" d="M32.919,19.071l3.336,2.715c0.078-1.552,1.241-2.793,2.715-3.025l-3.646-3.026
		C35.169,17.208,34.16,18.45,32.919,19.071L32.919,19.071z"/>
	<path fill="#FFFFFF" d="M30.049,45.68h-2.87l-1.785-2.715c-1.008,1.086-2.482,1.783-4.034,1.783c-1.629,0-3.025-0.697-4.034-1.783
		l-1.861,2.715h-2.871c-0.311,0-0.621,0.232-0.621,0.62v3.025c0,0.311,0.233,0.621,0.621,0.621h17.455
		c0.311,0,0.621-0.233,0.621-0.621V46.3C30.67,45.912,30.36,45.68,30.049,45.68L30.049,45.68z"/>
	<path fill="#FFFFFF" d="M37.342,22.02c0,0.388,0.077,0.775,0.311,1.086c0,0-0.077,0-0.077,0.078l-1.63,1.551
		c-0.155,0.155-0.233,0.311-0.155,0.543l0.699,3.103c0.076,0.31,0.387,0.542,0.697,0.465c0.311-0.078,0.543-0.388,0.466-0.698
		l-0.621-2.793l1.396-1.396c0,0,0-0.078,0.077-0.078c0.311,0.155,0.621,0.31,1.009,0.31s0.698-0.077,1.009-0.31
		c0,0,0,0.078,0.078,0.078l1.396,1.396l-0.62,2.793c-0.078,0.311,0.154,0.621,0.465,0.698c0.311,0.078,0.621-0.154,0.698-0.465
		l0.698-3.103c0.078-0.233,0-0.388-0.154-0.542l-1.629-1.629c0,0-0.078,0-0.078-0.078c0.154-0.311,0.311-0.698,0.311-1.086
		c0-1.164-0.932-2.095-2.095-2.095C38.272,19.847,37.342,20.855,37.342,22.02L37.342,22.02z"/>
	<path fill="#FFFFFF" d="M34.937,42.111h-0.389v7.215c0,0.31,0.233,0.62,0.621,0.62h19.705c0.311,0,0.621-0.233,0.621-0.62v-7.215
		h-0.389H34.937z"/>
	<path fill="#FFFFFF" d="M55.106,36.525h-20.17c-1.241,0-2.172,1.009-2.172,2.172c0,1.241,1.008,2.172,2.172,2.172h20.17
		c1.24,0,2.172-1.008,2.172-2.172C57.356,37.534,56.348,36.525,55.106,36.525z"/>
	<path fill="#FFFFFF" d="M42.073,31.639v3.724h6.051v-3.724c0-0.311-0.232-0.621-0.621-0.621h-4.887
		C42.306,31.018,42.073,31.328,42.073,31.639L42.073,31.639z"/>
	<path fill="#FFFFFF" d="M40.755,31.018h-4.887c-0.311,0-0.621,0.233-0.621,0.621v3.724h6.051v-3.724
		C41.298,31.328,41.065,31.018,40.755,31.018L40.755,31.018z"/>
	<path fill="#FFFFFF" d="M54.796,31.639c0-0.311-0.232-0.621-0.62-0.621h-4.888c-0.311,0-0.62,0.233-0.62,0.621v3.724h6.051v-3.724
		H54.796z"/>
</g>
</svg>
