<?xml version="1.0" encoding="utf-8"?>
<!-- Generator: Adobe Illustrator 16.0.0, SVG Export Plug-In . SVG Version: 6.00 Build 0)  -->
<!DOCTYPE svg PUBLIC "-//W3C//DTD SVG 1.1//EN" "http://www.w3.org/Graphics/SVG/1.1/DTD/svg11.dtd">
<svg version="1.1" id="Layer_1" xmlns="http://www.w3.org/2000/svg" xmlns:xlink="http://www.w3.org/1999/xlink" x="0px" y="0px"
	 width="64px" height="64px" viewBox="0 0 64 64" enable-background="new 0 0 64 64" xml:space="preserve">
<g>
	<path fill="#FFFFFF" d="M11.821,34.201V17.663c0-0.666,0.236-1.331,0.177-2.048c-0.059-0.256,0.119-0.359,0.414-0.359h3.075
		c0.296,0,0.415,0.103,0.415,0.359v0.666c0,0.307,0.117,0.461,0.473,0.461h7.095c0.533,0,0.533-0.359,0.592-0.615
		c0.296-1.229,0.77-2.406,1.656-3.43c1.301-1.536,3.075-2.406,5.204-2.765c2.72-0.41,5.085,0.41,7.333,1.587
		c2.07,1.075,3.844,2.457,5.795,3.686c0.827,0.512,1.714,0.973,2.603,1.383c0.177,0.051,0.355,0.153,0.532,0.153
		c0.887,0.103,1.004,0.051,0.946-0.717c-0.059-0.563,0.177-0.768,0.827-0.717c0.829,0.051,1.656,0.051,2.426,0
		c0.472,0,0.591,0.103,0.648,0.563c0.237,3.481,0.119,6.963,0.119,10.445v24.678c0,0.41-0.119,0.82-0.177,1.28
		c0,0.205-0.119,0.308-0.354,0.308h-0.474H12.827c-0.591,0-0.946-0.051-0.887-0.666c0-0.256-0.059-0.563-0.059-0.819
		C11.82,45.413,11.82,39.833,11.821,34.201L11.821,34.201z M21.164,28.722c0.769-0.205,1.36-0.41,1.951-0.563
		c0.473-0.103,0.651-0.307,0.592-0.717v-4.301c0-0.41,0.059-0.819-0.65-0.717c-0.177,0-0.296-0.154-0.415-0.307
		c-0.236-0.359-0.236-0.717-0.236-1.126c0.059-0.41-0.177-0.512-0.592-0.512c-1.714,0-3.429,0.051-5.084,0
		c-0.592,0-0.77,0.154-0.77,0.666v26.368c0,0.563,0.178,0.666,0.77,0.666h30.335c0.591,0,0.769-0.103,0.769-0.666V21.247
		c0-0.563-0.178-0.717-0.827-0.717H29.325c-0.592,0-0.828,0.103-0.828,0.666c0,0.512,0,1.229-1.005,1.28
		c-0.295,0-0.236,0.256-0.236,0.461v2.969c0,0.973,0,0.973,1.064,0.666c0.354-0.103,0.65-0.256,1.005,0
		c0.354,0.256,0.65,0.512,1.005,0.717c0.414,0.256,0.236,0.41-0.119,0.512c-0.236,0.051-0.473,0.102-0.709,0.205
		c-0.769,0.307-1.656,0.41-2.483,0.819c0.118,0.103,0.178,0.153,0.295,0.153c1.42,0.461,2.839,0.922,4.2,1.434
		c0.532,0.205,1.063,0.103,1.537-0.103c0.769-0.256,1.537-0.513,2.365-0.768c0.592-0.205,1.183-0.41,1.951-0.614
		c-1.479-0.461-2.779-0.922-4.139-1.383c0.413-0.307,0.769-0.563,1.124-0.819c0.473-0.358,0.887-0.41,1.477-0.205
		c1.244,0.41,2.484,0.768,3.726,1.229c1.063,0.358,2.248,0.614,3.312,1.126c-0.118,0.051-0.235,0.103-0.295,0.153
		c-3.371,1.126-6.742,2.202-10.112,3.328c-0.296,0.104-0.473,0.051-0.708-0.051c-1.243-0.41-2.484-0.87-3.786-1.279
		C25.776,30.31,23.529,29.542,21.164,28.722L21.164,28.722z M40.264,16.741c0-0.051,0.059-0.102,0.059-0.102
		c-0.414-0.307-0.828-0.615-1.301-0.871c-1.597-1.024-3.134-2.099-5.085-2.56c-3.193-0.717-5.617,0.307-6.328,3.124
		c-0.118,0.409,0.059,0.46,0.414,0.46C32.104,16.741,36.185,16.741,40.264,16.741L40.264,16.741z M38.135,19.045h2.78h6.208
		c0.414,0,0.649-0.051,0.649-0.461c0-0.46-0.354-0.358-0.708-0.358H29.087c-0.354,0-0.709,0-0.65,0.461
		c0,0.512,0.415,0.41,0.709,0.41C32.221,19.045,35.178,19.045,38.135,19.045L38.135,19.045z M19.153,19.147h2.779
		c0.532,0,0.532-0.256,0.532-0.563s-0.059-0.512-0.532-0.512h-5.559c-0.473,0-0.59,0.153-0.59,0.563c0,0.359,0.118,0.563,0.59,0.563
		C17.32,19.147,18.207,19.147,19.153,19.147L19.153,19.147z M24.297,25.087v2.304c0,0.307,0.06,0.41,0.415,0.307
		c0.414-0.103,0.532-0.256,0.532-0.666v-4.045c0-0.307,0.059-0.563-0.473-0.563c-0.473,0-0.532,0.205-0.532,0.512
		C24.297,23.653,24.297,24.37,24.297,25.087L24.297,25.087z M25.835,24.831v1.895c0,0.205-0.178,0.563,0.236,0.563
		c0.354,0,0.709-0.103,0.709-0.563v-3.789c0-0.307-0.119-0.41-0.473-0.46c-0.414,0-0.532,0.103-0.532,0.46
		C25.835,23.5,25.835,24.166,25.835,24.831L25.835,24.831z"/>
	<path fill="#FFFFFF" d="M31.453,38.502v4.761c0,0.409-0.118,0.461-0.531,0.308c-3.017-1.229-6.032-2.458-9.048-3.636
		c-0.473-0.204-0.65-0.409-0.65-0.87V30.36c0-0.717,0.059-0.717,0.769-0.46c2.957,1.023,5.913,2.099,8.929,3.123
		c0.414,0.153,0.532,0.358,0.532,0.717C31.453,35.326,31.453,36.914,31.453,38.502L31.453,38.502z M29.501,41.01v-6.349
		c0-0.204-0.119-0.308-0.355-0.409c-1.774-0.615-3.548-1.229-5.262-1.895c-0.415-0.154-0.532-0.051-0.532,0.358v5.427
		c0,0.307,0.118,0.512,0.473,0.666c0.946,0.358,1.833,0.768,2.779,1.127C27.55,40.242,28.378,40.805,29.501,41.01z"/>
	<path fill="#FFFFFF" d="M32.871,38.398V33.74c0-0.359,0.12-0.513,0.475-0.615c3.016-0.973,6.031-1.945,8.987-2.969
		c0.473-0.154,0.593-0.104,0.593,0.357v8.961c0,0.409-0.237,0.563-0.593,0.717c-2.128,0.768-4.258,1.587-6.327,2.355
		c-0.828,0.307-1.656,0.613-2.483,0.921c-0.473,0.204-0.651,0.103-0.651-0.358V38.398L32.871,38.398z M34.823,37.733v2.919
		c0,0.307,0,0.512,0.473,0.307c1.775-0.666,3.549-1.331,5.321-1.997c0.355-0.103,0.355-0.308,0.355-0.563v-5.375
		c0-0.461-0.177-0.564-0.65-0.41c-1.715,0.563-3.429,1.127-5.145,1.689c-0.295,0.103-0.414,0.256-0.414,0.563
		C34.823,35.839,34.823,36.76,34.823,37.733L34.823,37.733z"/>
	<path fill="#FFFFFF" d="M32.104,45.926H19.686c-0.236,0-0.532,0.102-0.65-0.154c-0.119-0.307-0.119-0.614,0-0.973
		c0-0.103,0.177-0.103,0.295-0.103h0.355h24.896c0.531,0,0.769,0.052,0.769,0.563s-0.177,0.666-0.769,0.666H32.104L32.104,45.926z"
		/>
</g>
</svg>
