<?xml version="1.0" encoding="utf-8"?>
<!-- Generator: Adobe Illustrator 16.0.0, SVG Export Plug-In . SVG Version: 6.00 Build 0)  -->
<!DOCTYPE svg PUBLIC "-//W3C//DTD SVG 1.1//EN" "http://www.w3.org/Graphics/SVG/1.1/DTD/svg11.dtd">
<svg version="1.1" id="Layer_1" xmlns="http://www.w3.org/2000/svg" xmlns:xlink="http://www.w3.org/1999/xlink" x="0px" y="0px"
	 width="64px" height="64px" viewBox="0 0 64 64" enable-background="new 0 0 64 64" xml:space="preserve">
<g>
	<path fill="#FFFFFF" d="M14.376,28.229l3.908-4.235l-0.035-5.406l-6.246,6.77l-1.108,2.482c0.416-0.139,0.859-0.217,1.32-0.217
		C13.007,27.623,13.745,27.848,14.376,28.229L14.376,28.229z"/>
	<path fill="#FFFFFF" d="M23.519,19.336l0.167-4.032l-4.794,2.587l0.033,5.409L23.519,19.336z"/>
	<path fill="#FFFFFF" d="M28.416,13.656l-4.115,1.468l-0.066,3.756c0,0,0.624-0.163,2.02-0.623
		C29.233,16.923,28.416,13.656,28.416,13.656L28.416,13.656z"/>
	<path fill="#FFFFFF" d="M22.647,26.326l-2.224,1.873l-1.832-0.612l-0.107-3.05l-3.679,3.988c0.973,0.768,1.602,1.955,1.602,3.289
		c0,0.492-0.09,0.964-0.247,1.404l4.397-0.938l5.203-5.625C24.146,24.731,22.647,26.326,22.647,26.326L22.647,26.326z"/>
	<path fill="#FFFFFF" d="M8.933,34.411H8.861v10.732h2.243V35.85C10.235,35.609,9.479,35.099,8.933,34.411L8.933,34.411z"/>
	<path fill="#FFFFFF" d="M13.229,35.875v9.27h2.244V34.445C14.908,35.142,14.125,35.65,13.229,35.875L13.229,35.875z"/>
	<path fill="#FFFFFF" d="M12.215,28.395c-1.884,0-3.417,1.533-3.417,3.419c0,1.884,1.533,3.417,3.417,3.417
		c1.885,0,3.418-1.533,3.418-3.417C15.633,29.928,14.1,28.395,12.215,28.395z"/>
	<path fill="#FFFFFF" d="M51.787,27.623c0.461,0,0.904,0.077,1.32,0.216l-1.109-2.481l-6.246-6.77l-0.035,5.406l3.908,4.235
		C50.258,27.847,50.994,27.623,51.787,27.623L51.787,27.623z"/>
	<path fill="#FFFFFF" d="M45.078,23.3l0.031-5.409l-4.793-2.587l0.166,4.032L45.078,23.3z"/>
	<path fill="#FFFFFF" d="M37.746,18.256c1.396,0.46,2.02,0.624,2.02,0.624l-0.064-3.757l-4.115-1.467
		C35.586,13.656,34.768,16.922,37.746,18.256L37.746,18.256z"/>
	<path fill="#FFFFFF" d="M49.195,28.525l-3.68-3.988l-0.105,3.05L43.578,28.2l-2.225-1.874c0,0-1.498-1.595-3.111,0.331l5.203,5.624
		l4.396,0.938c-0.158-0.439-0.248-0.911-0.248-1.404c0.002-1.334,0.629-2.521,1.604-3.289H49.195z"/>
	<path fill="#FFFFFF" d="M52.896,35.85v9.295h2.244V34.412h-0.072C54.521,35.1,53.766,35.611,52.896,35.85L52.896,35.85z"/>
	<path fill="#FFFFFF" d="M48.529,34.445v10.699h2.242v-9.27C49.877,35.65,49.094,35.142,48.529,34.445L48.529,34.445z"/>
	<path fill="#FFFFFF" d="M55.203,31.813c0-1.885-1.533-3.418-3.418-3.418s-3.418,1.533-3.418,3.418s1.533,3.418,3.418,3.418
		S55.203,33.698,55.203,31.813z"/>
	<path fill="#FFFFFF" d="M40.23,21.058c0-0.661-0.299-1.048-0.551-1.257c-0.346-0.288-0.822-0.433-1.414-0.433
		c-0.875,0-2.035,0.34-3.332,0.94c-0.645-1.863-1.631-3.152-2.933-3.152c-1.3,0-2.287,1.29-2.932,3.152
		c-1.298-0.601-2.458-0.94-3.333-0.94c-0.592,0-1.067,0.146-1.414,0.433c-0.251,0.209-0.551,0.596-0.551,1.257
		c0,1.279,1.153,3.184,3.074,5.204c-1.921,2.02-3.074,3.924-3.074,5.204c0,0.66,0.299,1.048,0.551,1.257
		c0.346,0.287,0.822,0.433,1.414,0.433c0.875,0,2.035-0.34,3.333-0.939c0.645,1.862,1.631,3.152,2.932,3.152
		c1.302,0,2.288-1.29,2.933-3.152c1.297,0.6,2.457,0.939,3.332,0.939c0.592,0,1.068-0.146,1.414-0.433
		c0.252-0.209,0.551-0.597,0.551-1.257c0-1.279-1.152-3.185-3.072-5.204C39.078,24.242,40.23,22.337,40.23,21.058z M25.735,32.028
		c-0.194,0-0.458-0.025-0.603-0.146c-0.036-0.03-0.146-0.121-0.146-0.417c0-0.857,0.919-2.48,2.689-4.369
		c0.177,0.17,0.359,0.342,0.546,0.512c0.074,1.221,0.249,2.423,0.52,3.504C27.452,31.729,26.403,32.028,25.735,32.028L25.735,32.028
		z M28.222,24.915c-0.188,0.17-0.369,0.341-0.546,0.511c-1.77-1.888-2.689-3.512-2.689-4.368c0-0.296,0.11-0.388,0.146-0.417
		c0.115-0.096,0.323-0.146,0.603-0.146c0.667,0,1.717,0.3,3.006,0.917C28.47,22.492,28.296,23.694,28.222,24.915L28.222,24.915z
		 M34.469,23.785c-0.479-0.392-0.963-0.763-1.447-1.114c0.395-0.253,0.777-0.483,1.146-0.691
		C34.291,22.529,34.395,23.131,34.469,23.785L34.469,23.785z M32.001,18.282c0.597,0,1.325,0.919,1.86,2.566
		c-0.605,0.327-1.23,0.701-1.86,1.118c-0.632-0.417-1.255-0.792-1.86-1.118C30.675,19.2,31.403,18.282,32.001,18.282z M29.833,21.98
		c0.369,0.208,0.752,0.438,1.147,0.691c-0.485,0.351-0.969,0.722-1.449,1.114C29.606,23.132,29.709,22.529,29.833,21.98
		L29.833,21.98z M29.531,28.736c0.48,0.393,0.964,0.764,1.449,1.113c-0.395,0.254-0.778,0.484-1.147,0.691
		C29.709,29.994,29.606,29.391,29.531,28.736L29.531,28.736z M32.001,34.24c-0.599,0-1.326-0.918-1.86-2.565
		c0.604-0.327,1.229-0.702,1.86-1.118c0.632,0.416,1.255,0.791,1.86,1.118C33.326,33.322,32.6,34.24,32.001,34.24z M34.168,30.541
		c-0.369-0.207-0.752-0.438-1.146-0.69c0.484-0.351,0.969-0.722,1.449-1.113C34.395,29.391,34.293,29.994,34.168,30.541
		L34.168,30.541z M34.59,27.106c-0.232,0.206-0.471,0.414-0.723,0.622c-0.639,0.531-1.262,1.007-1.866,1.435
		c-0.605-0.428-1.229-0.904-1.867-1.435c-0.251-0.209-0.491-0.416-0.724-0.622c-0.01-0.275-0.016-0.557-0.016-0.845
		c0-0.289,0.005-0.57,0.016-0.846c0.233-0.207,0.472-0.414,0.724-0.622c0.638-0.53,1.263-1.007,1.867-1.435
		c0.604,0.428,1.228,0.904,1.866,1.435c0.252,0.208,0.49,0.415,0.723,0.622c0.012,0.275,0.018,0.557,0.018,0.846
		C34.607,26.55,34.602,26.832,34.59,27.106z M38.266,20.494c0.279,0,0.488,0.05,0.604,0.146c0.035,0.03,0.146,0.122,0.146,0.418
		c0,0.856-0.92,2.48-2.689,4.368c-0.178-0.17-0.359-0.341-0.547-0.512c-0.074-1.22-0.248-2.422-0.52-3.503
		C36.549,20.794,37.6,20.494,38.266,20.494L38.266,20.494z M39.016,31.465c0,0.295-0.111,0.387-0.146,0.417
		c-0.115,0.096-0.324,0.146-0.604,0.146c-0.666,0-1.715-0.3-3.006-0.917c0.271-1.081,0.445-2.283,0.52-3.504
		c0.188-0.17,0.369-0.341,0.547-0.512C38.096,28.984,39.016,30.608,39.016,31.465L39.016,31.465z"/>
</g>
</svg>
