<?xml version="1.0" encoding="utf-8"?>
<!-- Generator: Adobe Illustrator 16.0.0, SVG Export Plug-In . SVG Version: 6.00 Build 0)  -->
<!DOCTYPE svg PUBLIC "-//W3C//DTD SVG 1.1//EN" "http://www.w3.org/Graphics/SVG/1.1/DTD/svg11.dtd">
<svg version="1.1" id="Layer_1" xmlns="http://www.w3.org/2000/svg" xmlns:xlink="http://www.w3.org/1999/xlink" x="0px" y="0px"
	 width="64px" height="64px" viewBox="0 0 64 64" enable-background="new 0 0 64 64" xml:space="preserve">
<g>
	<path fill="#FFFFFF" d="M31.401,13.732v2.105h1.199v-2.109c0.518-0.191,0.914-0.615,1.07-1.144
		c0.156-0.529,0.053-1.101-0.277-1.542c-0.332-0.441-0.852-0.7-1.403-0.698c-0.552,0.001-1.07,0.264-1.398,0.707
		c-0.328,0.443-0.428,1.016-0.269,1.544C30.483,13.123,30.883,13.544,31.401,13.732L31.401,13.732z"/>
	<path fill="#FFFFFF" d="M16.352,40.82c-0.829,0-1.624,0.33-2.21,0.916s-0.915,1.381-0.915,2.209c0,0.829,0.329,1.624,0.915,2.21
		c0.586,0.587,1.381,0.915,2.21,0.915c0.829,0,1.624-0.328,2.209-0.915c0.586-0.586,0.916-1.381,0.916-2.21
		c-0.001-0.828-0.331-1.623-0.917-2.209C17.975,41.151,17.18,40.821,16.352,40.82L16.352,40.82z"/>
	<path fill="#FFFFFF" d="M37.217,40.82c-0.829,0-1.624,0.33-2.21,0.916s-0.915,1.381-0.915,2.209c0,0.829,0.329,1.624,0.915,2.21
		c0.586,0.587,1.381,0.915,2.21,0.915s1.624-0.328,2.21-0.915c0.586-0.586,0.915-1.381,0.915-2.21
		c-0.001-0.828-0.33-1.623-0.916-2.209C38.84,41.151,38.046,40.821,37.217,40.82z"/>
	<path fill="#FFFFFF" d="M26.785,40.82c-0.829,0-1.624,0.329-2.21,0.916c-0.586,0.586-0.916,1.381-0.916,2.209
		c0,0.829,0.329,1.624,0.916,2.21c0.586,0.587,1.381,0.915,2.209,0.915c0.829,0,1.624-0.328,2.21-0.915
		c0.586-0.586,0.915-1.381,0.915-2.21c-0.001-0.828-0.331-1.623-0.916-2.208C28.407,41.151,27.613,40.821,26.785,40.82L26.785,40.82
		z"/>
	<path fill="#FFFFFF" d="M49.058,37.637H14.945c-2.269,0-4.365,1.21-5.499,3.175c-1.134,1.964-1.134,4.386,0,6.35
		c1.134,1.965,3.23,3.175,5.499,3.175h34.113c2.268,0,4.364-1.21,5.498-3.175c1.135-1.964,1.135-4.386,0-6.35
		C53.422,38.847,51.325,37.637,49.058,37.637z M16.352,48.271c-1.147,0-2.247-0.456-3.058-1.267
		c-0.812-0.812-1.267-1.912-1.267-3.059s0.456-2.247,1.267-3.059c0.811-0.811,1.911-1.267,3.058-1.267
		c1.147,0.001,2.247,0.456,3.058,1.268s1.267,1.911,1.267,3.058c-0.001,1.146-0.457,2.246-1.268,3.057
		C18.598,47.813,17.499,48.27,16.352,48.271L16.352,48.271z M26.785,48.271c-1.147,0-2.247-0.456-3.059-1.267
		c-0.811-0.811-1.267-1.912-1.267-3.059s0.456-2.246,1.267-3.059c0.811-0.811,1.911-1.267,3.058-1.267
		c1.147,0.001,2.248,0.456,3.059,1.268s1.267,1.911,1.267,3.058c-0.001,1.146-0.458,2.246-1.269,3.057
		C29.031,47.813,27.932,48.27,26.785,48.271z M37.218,48.271L37.218,48.271c-1.146,0-2.248-0.456-3.059-1.267
		c-0.811-0.812-1.267-1.912-1.267-3.059s0.456-2.247,1.267-3.059c0.811-0.811,1.912-1.267,3.059-1.267
		c1.146,0.001,2.247,0.456,3.059,1.268c0.811,0.812,1.266,1.911,1.266,3.058s-0.457,2.246-1.268,3.057
		C39.464,47.813,38.364,48.27,37.218,48.271L37.218,48.271z M47.651,48.271L47.651,48.271c-1.148,0-2.248-0.456-3.059-1.267
		c-0.812-0.812-1.268-1.912-1.268-3.059s0.456-2.247,1.268-3.059c0.811-0.811,1.91-1.267,3.059-1.267
		c1.146,0.001,2.246,0.456,3.058,1.268s1.267,1.911,1.267,3.058c-0.001,1.146-0.457,2.246-1.269,3.057
		C49.896,47.813,48.798,48.27,47.651,48.271L47.651,48.271z"/>
	<path fill="#FFFFFF" d="M47.649,40.82c-0.828,0-1.623,0.33-2.209,0.916s-0.916,1.381-0.916,2.209c0,0.829,0.33,1.624,0.916,2.21
		c0.586,0.587,1.381,0.915,2.209,0.915c0.83,0,1.625-0.328,2.211-0.915c0.586-0.586,0.914-1.381,0.914-2.21
		c0-0.828-0.33-1.623-0.916-2.209C49.272,41.151,48.479,40.821,47.649,40.82z"/>
	<path fill="#FFFFFF" d="M30,28.336h1.4v3.301H30V28.336z"/>
	<path fill="#FFFFFF" d="M35.201,28.336h1.3v3.301h-1.3V28.336z"/>
	<path fill="#FFFFFF" d="M43.785,25.819c0.004-0.32-0.087-0.633-0.263-0.9c-0.176-0.268-0.427-0.476-0.722-0.6v2.999
		c0.294-0.124,0.546-0.332,0.722-0.599C43.697,26.452,43.789,26.139,43.785,25.819z"/>
	<path fill="#FFFFFF" d="M26.601,16.637h10.8v1.5h-10.8V16.637z"/>
	<path fill="#FFFFFF" d="M27.501,28.336h1.3v3.301h-1.3V28.336z"/>
	<path fill="#FFFFFF" d="M32.601,28.336h1.4v3.301h-1.4V28.336z"/>
	<path fill="#FFFFFF" d="M27.102,22.937h1.7v1.7h-1.7V22.937z"/>
	<path fill="#FFFFFF" d="M23.449,34.236h17.105c0.578-0.01,1.042-0.479,1.048-1.056V20.322c0-0.569-0.479-0.985-1.048-0.985H23.449
		c-0.569,0-1.047,0.416-1.047,0.985v12.858C22.407,33.758,22.871,34.227,23.449,34.236z M37.601,32.137c0,0.332-0.268,0.6-0.6,0.6
		h-10.1c-0.332,0-0.6-0.268-0.6-0.6v-4.4c0-0.332,0.269-0.6,0.6-0.6h10.1c0.332,0,0.6,0.269,0.6,0.6V32.137z M34.001,22.337
		c0-0.332,0.269-0.6,0.6-0.6h2.9c0.332,0,0.6,0.269,0.6,0.6v2.9c0,0.332-0.268,0.6-0.6,0.6h-2.9c-0.331,0-0.6-0.269-0.6-0.6V22.337z
		 M25.901,22.337c0-0.332,0.269-0.6,0.6-0.6h2.9c0.332,0,0.6,0.269,0.6,0.6v2.9c0,0.332-0.269,0.6-0.6,0.6h-2.9
		c-0.332,0-0.6-0.269-0.6-0.6V22.337z"/>
	<path fill="#FFFFFF" d="M21.202,27.318V24.32c-0.393,0.169-0.702,0.486-0.864,0.882c-0.162,0.396-0.162,0.839,0,1.235
		C20.5,26.832,20.809,27.148,21.202,27.318L21.202,27.318z"/>
	<path fill="#FFFFFF" d="M35.201,22.937h1.7v1.7h-1.7V22.937z"/>
</g>
</svg>
