<?xml version="1.0" encoding="utf-8"?>
<!-- Generator: Adobe Illustrator 16.0.0, SVG Export Plug-In . SVG Version: 6.00 Build 0)  -->
<!DOCTYPE svg PUBLIC "-//W3C//DTD SVG 1.1//EN" "http://www.w3.org/Graphics/SVG/1.1/DTD/svg11.dtd">
<svg version="1.1" id="Layer_1" xmlns="http://www.w3.org/2000/svg" xmlns:xlink="http://www.w3.org/1999/xlink" x="0px" y="0px"
	 width="64px" height="64px" viewBox="0 0 64 64" enable-background="new 0 0 64 64" xml:space="preserve">
<g>
	<path fill="#FFFFFF" d="M32.002,35.867c-2.131,0-3.865-1.734-3.865-3.868c0-2.132,1.734-3.866,3.865-3.866
		c2.133,0,3.867,1.734,3.867,3.866C35.869,34.131,34.135,35.867,32.002,35.867z M32.002,26.517c-3.022,0-5.481,2.459-5.481,5.481
		c0,3.023,2.458,5.484,5.481,5.484c3.023,0,5.483-2.461,5.483-5.484S35.025,26.517,32.002,26.517z M37.029,38.271l1.125,0.5
		l0.155-0.156c0.019-0.02,0.039-0.041,0.06-0.059l0.404-0.404l-0.499-1.125c-0.113-0.254-0.087-0.549,0.067-0.779
		c0.568-0.85,0.954-1.779,1.147-2.768c0.054-0.273,0.244-0.5,0.505-0.6l1.148-0.442V31.56l-1.148-0.439
		c-0.261-0.1-0.451-0.326-0.505-0.601c-0.194-0.992-0.579-1.923-1.147-2.766c-0.154-0.23-0.18-0.524-0.068-0.778l0.5-1.127
		l-0.426-0.427c-0.006-0.005-0.012-0.012-0.018-0.018l-0.177-0.176l-1.12,0.5c-0.254,0.116-0.552,0.091-0.784-0.066
		c-0.842-0.566-1.772-0.952-2.767-1.146c-0.273-0.053-0.501-0.244-0.6-0.505l-0.441-1.148h-0.879l-0.444,1.152
		c-0.1,0.258-0.326,0.447-0.598,0.5c-0.991,0.194-1.921,0.58-2.764,1.147c-0.232,0.156-0.527,0.181-0.782,0.067l-1.122-0.5
		l-0.623,0.623l0.5,1.126c0.112,0.253,0.086,0.546-0.068,0.776c-0.565,0.844-0.951,1.776-1.148,2.77
		c-0.054,0.272-0.243,0.498-0.502,0.598l-1.147,0.44v0.879l1.147,0.443c0.259,0.1,0.448,0.324,0.502,0.598
		c0.197,0.994,0.583,1.926,1.148,2.77c0.154,0.23,0.179,0.525,0.066,0.777l-0.499,1.125l0.431,0.43l0.008,0.01l0.183,0.182
		l1.127-0.502c0.253-0.111,0.546-0.086,0.776,0.068c0.849,0.568,1.78,0.955,2.766,1.148c0.272,0.053,0.497,0.24,0.598,0.5
		l0.444,1.152h0.878l0.441-1.148c0.1-0.26,0.326-0.451,0.6-0.506c0.994-0.193,1.925-0.578,2.768-1.146
		C36.48,38.184,36.775,38.158,37.029,38.271L37.029,38.271z"/>
	<path fill="#FFFFFF" d="M56.262,38.348H40.545c0.002-0.117-0.02-0.234-0.068-0.346l-0.549-1.238
		c0.478-0.793,0.829-1.641,1.049-2.529l1.264-0.488c0.313-0.121,0.518-0.42,0.518-0.754v-1.989c0-0.334-0.206-0.635-0.518-0.754
		l-1.262-0.484c-0.221-0.893-0.572-1.742-1.051-2.533l0.549-1.236c0.051-0.112,0.072-0.231,0.069-0.348h15.716V38.348z"/>
	<path fill="#FFFFFF" d="M7.743,25.649h15.717c-0.003,0.117,0.019,0.236,0.069,0.348l0.549,1.237
		c-0.477,0.79-0.828,1.639-1.05,2.533l-1.26,0.482c-0.313,0.12-0.519,0.42-0.519,0.754v1.989c0,0.334,0.206,0.633,0.518,0.754
		l1.262,0.486c0.222,0.895,0.573,1.742,1.049,2.531l-0.549,1.238c-0.049,0.111-0.071,0.229-0.068,0.346H7.743V25.649z"/>
	<path fill="#FFFFFF" d="M14.718,23.054v-1.995c0-0.339,0.275-0.614,0.614-0.614c0.339,0,0.614,0.275,0.614,0.614v1.995h7.775
		v-1.995c0-0.339,0.274-0.614,0.614-0.614s0.614,0.275,0.614,0.614v1.995h2.52V19.65c0-1.733-1.897-2.463-3.028-2.744
		c-3.111-0.771-6.209-0.772-9.208-0.001c-1.384,0.356-3.034,1.121-3.034,2.745v3.403L14.718,23.054L14.718,23.054z M16.735,10.993
		c0-2.828,1.941-3.251,3.098-3.251c1.157,0,3.098,0.423,3.098,3.251c0,2.351-1.39,4.264-3.098,4.264
		C18.125,15.255,16.735,13.343,16.735,10.993z"/>
	<path fill="#FFFFFF" d="M39.158,23.054v-1.995c0-0.339,0.274-0.614,0.613-0.614c0.34,0,0.614,0.275,0.614,0.614v1.995h7.775v-1.995
		c0-0.339,0.274-0.614,0.614-0.614c0.339,0,0.613,0.275,0.613,0.614v1.995h2.52V19.65c0-1.733-1.897-2.463-3.028-2.744
		c-3.11-0.771-6.209-0.772-9.208-0.001c-1.384,0.356-3.033,1.121-3.033,2.745v3.403L39.158,23.054L39.158,23.054z M41.176,10.993
		c0-2.828,1.941-3.251,3.098-3.251c1.158,0,3.099,0.423,3.099,3.251c0,2.351-1.39,4.264-3.099,4.264
		C42.565,15.255,41.176,13.343,41.176,10.993z"/>
	<path fill="#FFFFFF" d="M14.718,40.941v2c0,0.34,0.275,0.613,0.614,0.613c0.339,0,0.614-0.273,0.614-0.613v-2h7.775v2
		c0,0.34,0.274,0.613,0.614,0.613s0.614-0.273,0.614-0.613v-2h2.52v3.408c0,1.732-1.897,2.463-3.028,2.744
		c-3.111,0.771-6.209,0.771-9.208,0c-1.384-0.355-3.034-1.119-3.034-2.744v-3.408H14.718L14.718,40.941z M16.735,53.008
		c0,2.828,1.941,3.25,3.098,3.25c1.157,0,3.098-0.422,3.098-3.25c0-2.352-1.39-4.264-3.098-4.264
		C18.125,48.744,16.735,50.658,16.735,53.008z"/>
	<path fill="#FFFFFF" d="M39.158,40.941v2c0,0.34,0.274,0.613,0.613,0.613c0.34,0,0.614-0.273,0.614-0.613v-2h7.775v2
		c0,0.34,0.274,0.613,0.614,0.613c0.339,0,0.613-0.273,0.613-0.613v-2h2.52v3.408c0,1.732-1.897,2.463-3.028,2.744
		c-3.11,0.771-6.209,0.771-9.208,0c-1.384-0.355-3.033-1.119-3.033-2.744v-3.408H39.158L39.158,40.941z M41.176,53.008
		c0,2.828,1.941,3.25,3.098,3.25c1.158,0,3.099-0.422,3.099-3.25c0-2.352-1.39-4.264-3.099-4.264
		C42.565,48.744,41.176,50.658,41.176,53.008z"/>
</g>
</svg>
