<?xml version="1.0" encoding="utf-8"?>
<!-- Generator: Adobe Illustrator 16.0.0, SVG Export Plug-In . SVG Version: 6.00 Build 0)  -->
<!DOCTYPE svg PUBLIC "-//W3C//DTD SVG 1.1//EN" "http://www.w3.org/Graphics/SVG/1.1/DTD/svg11.dtd">
<svg version="1.1" id="Layer_1" xmlns="http://www.w3.org/2000/svg" xmlns:xlink="http://www.w3.org/1999/xlink" x="0px" y="0px"
	 width="64px" height="64px" viewBox="0 0 64 64" enable-background="new 0 0 64 64" xml:space="preserve">
<path fill="#F4B400" d="M49.354,14.857H38.521v-3.036c0-0.482-0.193-0.945-0.533-1.287c-0.342-0.341-0.805-0.533-1.287-0.534h-9.612
	c-0.483,0-0.946,0.192-1.287,0.534c-0.341,0.341-0.533,0.804-0.534,1.287v3.036H14.436c-0.448,0.001-0.811,0.365-0.81,0.813v2.951
	c0,0.448,0.362,0.811,0.81,0.813h34.92c0.449-0.002,0.811-0.365,0.811-0.813V15.67c0-0.215-0.084-0.422-0.236-0.575
	c-0.152-0.152-0.359-0.238-0.574-0.238H49.354z M26.091,11.821c0-0.55,0.447-0.996,0.997-0.997h9.611
	c0.551,0,0.996,0.446,0.998,0.997v2.968l-11.606,0V11.821z"/>
<path fill="#F4B400" d="M20.105,54c-0.532,0.002-0.978-0.404-1.026-0.934L16.024,20.12h31.74l-3.053,32.946
	c-0.049,0.529-0.494,0.936-1.027,0.934H20.105z"/>
<path fill="#FFFFFF" d="M31.791,26.388c-1.963,0.002-3.845,0.783-5.233,2.171s-2.169,3.271-2.171,5.233
	c-0.002,1.604,0.522,3.165,1.492,4.442c0,0,0.202,0.266,0.235,0.305l5.678,6.696l5.68-6.7c0.031-0.035,0.232-0.301,0.232-0.301
	l0.002-0.002c0.969-1.277,1.492-2.837,1.49-4.44c-0.002-1.963-0.783-3.845-2.172-5.233C35.637,27.17,33.754,26.39,31.791,26.388
	L31.791,26.388z M31.791,36.484c-0.533,0-1.053-0.158-1.496-0.453c-0.442-0.297-0.788-0.717-0.991-1.209
	c-0.204-0.492-0.257-1.033-0.153-1.556c0.104-0.522,0.36-1.002,0.737-1.378s0.856-0.633,1.378-0.737
	c0.522-0.104,1.063-0.051,1.555,0.153c0.492,0.204,0.914,0.549,1.209,0.991c0.297,0.442,0.453,0.964,0.453,1.496
	c0,0.714-0.283,1.398-0.789,1.903C33.189,36.199,32.504,36.484,31.791,36.484L31.791,36.484z"/>
</svg>
