<?xml version="1.0" encoding="utf-8"?>
<!-- Generator: Adobe Illustrator 16.0.0, SVG Export Plug-In . SVG Version: 6.00 Build 0)  -->
<!DOCTYPE svg PUBLIC "-//W3C//DTD SVG 1.1//EN" "http://www.w3.org/Graphics/SVG/1.1/DTD/svg11.dtd">
<svg version="1.1" id="Layer_1" xmlns="http://www.w3.org/2000/svg" xmlns:xlink="http://www.w3.org/1999/xlink" x="0px" y="0px"
	 width="64px" height="64px" viewBox="0 0 64 64" enable-background="new 0 0 64 64" xml:space="preserve">
<path fill="#FFBC04" d="M27.206,6.4c-0.562,0.04-1.063,0.372-1.317,0.875c-0.254,0.503-0.226,1.103,0.076,1.58
	c0.302,0.477,0.831,0.76,1.395,0.746h10.606c0.43,0.009,0.848-0.155,1.154-0.456C39.428,8.843,39.602,8.431,39.602,8
	c0-0.431-0.174-0.843-0.482-1.145c-0.307-0.301-0.725-0.465-1.154-0.456H27.359C27.308,6.398,27.256,6.398,27.206,6.4L27.206,6.4z
	 M27.359,12.578c-0.425,0.001-0.832,0.171-1.132,0.472c-0.299,0.302-0.467,0.709-0.465,1.134v17.219H18.38
	c-0.411-0.001-0.808,0.156-1.106,0.439c-0.298,0.284-0.477,0.671-0.497,1.082c-0.021,0.411,0.119,0.814,0.388,1.126l14.291,16.568h0
	c0.304,0.353,0.746,0.554,1.211,0.554s0.906-0.201,1.211-0.554l14.277-16.568c0.27-0.311,0.408-0.712,0.389-1.122
	c-0.02-0.409-0.195-0.796-0.492-1.08c-0.295-0.284-0.689-0.443-1.1-0.445H39.57V14.185c0.002-0.426-0.168-0.836-0.469-1.137
	c-0.301-0.302-0.711-0.471-1.137-0.469H27.359z M8.637,40.382c-0.422,0.008-0.824,0.182-1.118,0.484
	c-0.295,0.303-0.458,0.709-0.454,1.131v10.605c0,2.743,2.255,4.998,4.997,4.998h41.209c2.742,0,4.996-2.255,4.996-4.997V41.997
	c0-0.572-0.305-1.102-0.801-1.387c-0.494-0.286-1.105-0.286-1.602,0c-0.494,0.285-0.801,0.814-0.801,1.387v10.605
	c0,1.025-0.768,1.797-1.793,1.797H12.062c-1.025,0-1.794-0.771-1.794-1.797V41.996c0.004-0.433-0.166-0.849-0.474-1.152
	C9.487,40.539,9.07,40.372,8.637,40.382L8.637,40.382z"/>
</svg>
