<?xml version="1.0" encoding="UTF-8"?>
<svg width="64pt" height="64pt" version="1.1" fill="#326ED1" viewBox="0 0 700 700" xmlns="http://www.w3.org/2000/svg" xmlns:xlink="http://www.w3.org/1999/xlink">

 <g>
  <path d="m375.88 152.58c-4.4883-10.297-14.648-16.957-25.883-16.957s-21.395 6.6602-25.883 16.949c-23.598 51.422-61.32 141.79-61.32 188.8 0 45.676 38.945 83.004 87.203 83.004 48.266 0 87.211-37.328 87.211-83.004 0-47.004-37.73-137.38-61.328-188.8zm-16.02 7.0352c0.027344 0.0625 0.050781 0.12109 0.078125 0.18359 22.715 49.48 59.77 136.31 59.77 181.57 0 36.285-31.367 65.504-69.711 65.504s-69.703-29.215-69.703-65.504c0-45.266 37.047-132.09 59.762-181.57 0.027344-0.0625 0.050781-0.12109 0.078125-0.19141 1.6992-3.9297 5.5742-6.4844 9.8594-6.4844 4.2891 0 8.1641 2.5547 9.8594 6.4922z" fill-rule="evenodd"/>
  <path d="m350 26.25c-140.05 0-253.75 113.7-253.75 253.75s113.7 253.75 253.75 253.75 253.75-113.7 253.75-253.75-113.7-253.75-253.75-253.75zm-192.47 256.73c-13.535 7.6914-30.215 7.6992-43.758 0.027344 1.5391 122.79 96.934 223.12 217.69 232.53l2.8086-3.0898c9.3086-10.246 9.3086-25.891 0-36.145l-4.4102-4.8398c-95.82-9.9844-170.84-90.387-172.33-188.48zm192.47-177.98c96.582 0 175 78.418 175 175s-78.418 175-175 175-175-78.418-175-175 78.418-175 175-175zm18.543-60.531-2.8008 3.0898c-9.3203 10.246-9.3203 25.891 0 36.145l4.4023 4.8398c95.812 9.9766 170.84 90.379 172.33 188.48 13.535-7.6914 30.223-7.6992 43.758-0.027344-1.5391-122.8-96.941-223.14-217.69-232.53z" fill-rule="evenodd"/>
  <path d="m277.52 311.15c-2.4766-1.1992-5.3711-1.1641-7.8125 0.097656-2.4414 1.2617-4.1562 3.5977-4.6211 6.3008-1.4883 8.7148-2.293 16.738-2.293 23.828 0 45.676 38.945 83.004 87.203 83.004 48.266 0 87.211-37.328 87.211-83.004 0-8.6641-1.2148-18.734-3.3945-29.734-0.64062-3.1953-2.9844-5.7656-6.0977-6.6953-9.5898-2.8359-19.75-4.3672-30.258-4.3672-17.578 0-34.176 4.2695-48.809 11.82-21.543 11.016-47.059 11.016-68.602 0.007812-0.8125-0.42188-1.6719-0.84766-2.5273-1.2617z" fill-rule="evenodd"/>
  <path d="m268.18 302.43c4.2969-1.4336 9.0117-1.1562 13.152 0.83984l2.7109 1.3555c19.039 9.7305 41.59 9.7305 60.629-0.007813 4.2891-2.2148 8.7344-4.1641 13.309-5.8359-6.4844-5.8984-13.328-11.656-20.668-16.957-15.883-11.488-33.285-17.359-49.648-19.977-4.2617-0.68359-8.3828 1.8477-9.7031 5.9492-3.875 12.004-7.2266 23.695-9.7812 34.633z" fill-rule="evenodd"/>
  <use x="70" y="691.25" xlink:href="#n"/>
  <use x="102.109375" y="691.25" xlink:href="#h"/>
  <use x="123.683594" y="691.25" xlink:href="#a"/>
  <use x="153.355469" y="691.25" xlink:href="#c"/>
  <use x="182.878906" y="691.25" xlink:href="#g"/>
  <use x="203.792969" y="691.25" xlink:href="#a"/>
  <use x="233.464844" y="691.25" xlink:href="#b"/>
  <use x="280.011719" y="691.25" xlink:href="#f"/>
  <use x="311.328125" y="691.25" xlink:href="#e"/>
  <use x="355.078125" y="691.25" xlink:href="#d"/>
  <use x="380.542969" y="691.25" xlink:href="#c"/>
  <use x="410.066406" y="691.25" xlink:href="#m"/>
  <use x="429.101562" y="691.25" xlink:href="#b"/>
  <use x="460.417969" y="691.25" xlink:href="#a"/>
  <use x="490.089844" y="691.25" xlink:href="#l"/>
  <use x="516.128906" y="691.25" xlink:href="#k"/>
  <use x="531.125" y="691.25" xlink:href="#j"/>
  <use x="562.445312" y="691.25" xlink:href="#i"/>
 </g>
</svg>
