<?xml version="1.0" encoding="utf-8"?>
<!-- Generator: Adobe Illustrator 16.0.0, SVG Export Plug-In . SVG Version: 6.00 Build 0)  -->
<!DOCTYPE svg PUBLIC "-//W3C//DTD SVG 1.1//EN" "http://www.w3.org/Graphics/SVG/1.1/DTD/svg11.dtd">
<svg version="1.1" id="Layer_1" xmlns="http://www.w3.org/2000/svg" xmlns:xlink="http://www.w3.org/1999/xlink" x="0px" y="0px"
	 width="64px" height="64px" viewBox="0 0 64 64" enable-background="new 0 0 64 64" xml:space="preserve">
<g>
	<path fill="#09821D" d="M38.3,21.898H25.277c-1.747,0-3.123,1.401-3.123,3.18v13.26c0,1.779,1.376,3.18,3.123,3.18H38.3
		c1.746,0,3.122-1.4,3.122-3.18v-13.26C41.422,23.354,40.046,21.898,38.3,21.898z M31.788,36.56c-2.593,0-4.764-2.156-4.764-4.851
		c0-2.695,2.117-4.851,4.764-4.851c2.647,0,4.765,2.156,4.765,4.851C36.553,34.403,34.382,36.56,31.788,36.56z"/>
	<path fill="#09821D" d="M50.792,24.701c0-3.18-1.218-6.198-3.44-8.462c-2.224-2.264-5.188-3.503-8.312-3.503v1.994
		c2.595,0,5.082,1.024,6.935,2.911c1.854,1.887,2.858,4.366,2.858,7.061L50.792,24.701z"/>
	<path fill="#09821D" d="M50.211,13.328c-2.965-3.019-6.935-4.689-11.171-4.689v1.994c3.706,0,7.2,1.456,9.793,4.15
		c2.595,2.642,4.077,6.199,4.077,9.972h1.958C54.868,20.389,53.228,16.346,50.211,13.328L50.211,13.328z"/>
	<path fill="#09821D" d="M39.04,16.508v1.994c1.642,0,3.123,0.646,4.288,1.833s1.8,2.695,1.8,4.366h1.959
		c0-2.21-0.848-4.258-2.33-5.768C43.222,17.371,41.21,16.508,39.04,16.508L39.04,16.508z"/>
	<path fill="#09821D" d="M13.208,38.607c0,3.18,1.217,6.198,3.44,8.462c2.223,2.264,5.188,3.504,8.311,3.504v-1.994
		c-2.594,0-5.082-1.024-6.935-2.91c-1.853-1.888-2.858-4.365-2.858-7.061L13.208,38.607z"/>
	<path fill="#09821D" d="M13.79,49.981c2.964,3.018,6.935,4.689,11.169,4.689v-1.994c-3.706,0-7.2-1.456-9.793-4.151
		c-2.594-2.641-4.076-6.197-4.076-9.973l-1.958,0.001C9.132,42.92,10.773,46.963,13.79,49.981L13.79,49.981z"/>
	<path fill="#09821D" d="M24.959,46.8v-1.994c-1.641,0-3.123-0.646-4.288-1.832s-1.8-2.695-1.8-4.365h-1.958
		c0,2.21,0.847,4.258,2.329,5.768C20.778,45.938,22.789,46.8,24.959,46.8L24.959,46.8z"/>
	<path fill="#09821D" d="M25.171,12.519c-3.123,0-6.087,1.24-8.311,3.504c-2.223,2.264-3.44,5.282-3.44,8.462h1.958
		c0-2.641,1.006-5.174,2.858-7.061c1.853-1.886,4.288-2.91,6.935-2.91V12.519z"/>
	<path fill="#09821D" d="M14.001,13.112c-2.964,3.019-4.605,7.061-4.605,11.373h1.958c0-3.772,1.429-7.33,4.076-9.971
		c2.594-2.641,6.087-4.15,9.793-4.15V8.369C20.936,8.369,16.966,10.04,14.001,13.112L14.001,13.112z"/>
	<path fill="#09821D" d="M17.125,24.485h1.958c0-1.671,0.635-3.18,1.8-4.366c1.165-1.186,2.646-1.833,4.288-1.833v-1.994
		c-2.171,0-4.182,0.863-5.664,2.372C17.972,20.227,17.125,22.275,17.125,24.485L17.125,24.485z"/>
	<path fill="#09821D" d="M38.829,50.789c3.122,0,6.087-1.24,8.311-3.504s3.44-5.282,3.44-8.462h-1.959
		c0,2.641-1.006,5.174-2.857,7.062c-1.854,1.886-4.288,2.91-6.935,2.91V50.789z"/>
	<path fill="#09821D" d="M49.998,50.197c2.965-3.019,4.605-7.062,4.605-11.374h-1.959c0,3.774-1.429,7.331-4.076,9.972
		c-2.594,2.642-6.087,4.151-9.792,4.151v1.994C43.064,54.94,47.034,53.269,49.998,50.197L49.998,50.197z"/>
	<path fill="#09821D" d="M46.875,38.823h-1.959c0,1.671-0.635,3.18-1.8,4.366c-1.164,1.187-2.646,1.832-4.287,1.832v1.994
		c2.171,0,4.183-0.861,5.665-2.37C46.028,43.08,46.875,41.032,46.875,38.823L46.875,38.823z"/>
</g>
</svg>
