<?xml version="1.0" encoding="utf-8"?>
<!-- Generator: Adobe Illustrator 16.0.0, SVG Export Plug-In . SVG Version: 6.00 Build 0)  -->
<!DOCTYPE svg PUBLIC "-//W3C//DTD SVG 1.1//EN" "http://www.w3.org/Graphics/SVG/1.1/DTD/svg11.dtd">
<svg version="1.1" id="Layer_1" xmlns="http://www.w3.org/2000/svg" xmlns:xlink="http://www.w3.org/1999/xlink" x="0px" y="0px"
	 width="64px" height="64px" viewBox="0 0 64 64" enable-background="new 0 0 64 64" xml:space="preserve">
<g>
	<path fill="#DC4437" d="M56.815,35.229v7.022H53.1c-0.6-3.337-3.537-5.852-7.072-5.852c-3.536,0-6.534,2.515-7.074,5.852H25.527
		c-0.599-3.337-3.536-5.852-7.072-5.852s-6.533,2.515-7.073,5.852H7.667v-7.022h3.597c0.659,0,1.198-0.526,1.198-1.171
		c0-0.644-0.54-1.17-1.198-1.17H7.667v-3.511h44.352c2.217,0,4.076,1.521,4.616,3.511H53.22c-0.66,0-1.2,0.526-1.2,1.17
		s0.54,1.171,1.2,1.171H56.815z M23.25,43.421c0,2.576-2.158,4.682-4.794,4.682c-2.638,0-4.795-2.105-4.795-4.682
		c0-2.574,2.157-4.682,4.795-4.682C21.093,38.739,23.25,40.847,23.25,43.421z M19.655,43.421c0-0.291-0.121-0.584-0.36-0.818
		c-0.42-0.47-1.259-0.47-1.678,0c-0.24,0.234-0.36,0.527-0.36,0.818c0,0.293,0.12,0.585,0.36,0.82c0.239,0.234,0.54,0.35,0.839,0.35
		c0.18,0,0.3,0,0.479-0.115c0.12-0.06,0.3-0.119,0.36-0.234C19.534,44.006,19.654,43.714,19.655,43.421L19.655,43.421z
		 M50.819,43.421c0,2.576-2.155,4.682-4.793,4.682s-4.795-2.105-4.795-4.682c0-2.574,2.157-4.682,4.795-4.682
		S50.819,40.847,50.819,43.421z M47.225,43.421v-0.233c0-0.058-0.061-0.176-0.061-0.233c0-0.06-0.06-0.117-0.118-0.175
		c-0.061-0.059-0.061-0.119-0.122-0.177c-0.059-0.058-0.119-0.116-0.178-0.116c-0.061,0-0.121-0.06-0.182-0.118
		c-0.059,0-0.119-0.059-0.239-0.059h-0.479c-0.06,0-0.18,0.059-0.239,0.059c-0.061,0.059-0.121,0.059-0.181,0.118
		c-0.06,0.059-0.119,0.116-0.18,0.116c-0.061,0.058-0.119,0.118-0.119,0.177c-0.061,0.058-0.061,0.115-0.121,0.175
		c-0.059,0.058-0.059,0.116-0.059,0.233v0.233v0.234c0,0.059,0.059,0.176,0.059,0.234s0.061,0.116,0.121,0.175
		c0.059,0.059,0.119,0.118,0.18,0.177c0.119,0.234,0.418,0.35,0.719,0.35c0.181,0,0.299,0,0.479-0.115
		c0.12-0.06,0.299-0.119,0.359-0.234c0.059-0.059,0.12-0.117,0.12-0.177c0.061-0.059,0.061-0.116,0.119-0.174
		c0.06-0.06,0.06-0.118,0.06-0.235C47.225,43.597,47.225,43.48,47.225,43.421z M36.438,15.333H32.84v11.704h3.598V15.333z
		 M42.909,15.333h-4.075v11.704h10.068L42.909,15.333z M30.443,19.196L13.66,23.292v3.745h16.783V19.196z"/>
</g>
</svg>
