<?xml version="1.0" encoding="utf-8"?>
<!-- Generator: Adobe Illustrator 16.0.0, SVG Export Plug-In . SVG Version: 6.00 Build 0)  -->
<!DOCTYPE svg PUBLIC "-//W3C//DTD SVG 1.1//EN" "http://www.w3.org/Graphics/SVG/1.1/DTD/svg11.dtd">
<svg version="1.1" id="Layer_1" xmlns="http://www.w3.org/2000/svg" xmlns:xlink="http://www.w3.org/1999/xlink" x="0px" y="0px"
	 width="64px" height="64px" viewBox="0 0 64 64" enable-background="new 0 0 64 64" xml:space="preserve">
<g>
	<path  fill="#F9812A" d="M12.75,6.98v52.205c0,1.416,1.217,2.564,2.71,2.564h32.081c1.492,0,2.709-1.15,2.709-2.564V14.283
		L39.824,4.417H15.462C13.967,4.416,12.75,5.564,12.75,6.98L12.75,6.98z M18.57,35.854v-6.446c0-1.745,1.37-3.187,3.141-3.442v9.889
		H18.57z M18.57,45.686v-8.783h3.465l4.639,4.392l-4.639,4.392H18.57L18.57,45.686z M18.57,53.18v-6.445h3.141v9.888
		C19.942,56.366,18.57,54.922,18.57,53.18z M22.819,56.676v-10.25l4.086-3.867v14.117H22.819z M28.015,36.596h6.974v9.44h-6.974
		V36.596z M28.015,56.676v-9.593h2.932v9.593H28.015z M32.056,56.676v-9.593h2.932v9.593H32.056z M44.43,46.732v6.447
		c0,1.743-1.371,3.188-3.143,3.444v-9.89L44.43,46.732L44.43,46.732z M40.18,56.676h-4.086V42.559l4.086,3.869V56.676z
		 M44.43,36.902v8.783h-3.467l-4.639-4.391l4.639-4.391L44.43,36.902z M44.43,29.407v6.444h-3.143v-9.89
		C43.059,26.221,44.43,27.662,44.43,29.407z M40.18,25.911V36.16l-4.086,3.867V25.912L40.18,25.911L40.18,25.911z M34.986,25.911
		v9.636h-2.932v-9.636H34.986z M30.945,25.911v9.636h-2.931v-9.636H30.945z M26.905,25.911v14.116l-4.086-3.868V25.91L26.905,25.911
		L26.905,25.911z"/>
</g>
<g>
	<path fill="#F7F5F5" d="M38.441,16.061c-1.906-2.092-4.426-3.227-7.111-3.227c-2.683,0-5.204,1.156-7.108,3.227
		c-0.2,0.219-0.2,0.558,0,0.777c0.199,0.219,0.507,0.219,0.707,0c1.705-1.873,3.99-2.908,6.401-2.908
		c2.429,0,4.699,1.036,6.404,2.908c0.09,0.1,0.217,0.159,0.342,0.159c0.127,0,0.256-0.059,0.346-0.159
		C38.639,16.618,38.639,16.279,38.441,16.061L38.441,16.061z"/>
	<path fill="#F7F5F5" d="M26.09,18.112c-0.2,0.219-0.2,0.558,0,0.777c0.2,0.219,0.508,0.219,0.707,0c2.503-2.75,6.583-2.75,9.086,0
		c0.092,0.099,0.217,0.159,0.344,0.159s0.256-0.06,0.346-0.159c0.199-0.219,0.199-0.558,0-0.777
		C33.688,14.925,28.974,14.925,26.09,18.112L26.09,18.112z"/>
	<path fill="#F7F5F5" d="M27.958,20.164c-0.199,0.218-0.199,0.557,0,0.776c0.091,0.1,0.218,0.16,0.345,0.16
		c0.127,0,0.254-0.06,0.345-0.16c1.468-1.613,3.88-1.613,5.368,0c0.199,0.219,0.508,0.219,0.707,0c0.199-0.219,0.199-0.558,0-0.776
		C32.855,18.112,29.808,18.112,27.958,20.164L27.958,20.164z"/>
	<path fill="#F7F5F5" d="M32.329,23.15c0,0.606-0.447,1.096-0.999,1.096c-0.55,0-0.997-0.49-0.997-1.096
		c0-0.604,0.447-1.095,0.997-1.095C31.882,22.056,32.329,22.546,32.329,23.15"/>
</g>
</svg>
