<?xml version="1.0" encoding="utf-8"?>
<!-- Generator: Adobe Illustrator 16.0.0, SVG Export Plug-In . SVG Version: 6.00 Build 0)  -->
<!DOCTYPE svg PUBLIC "-//W3C//DTD SVG 1.1//EN" "http://www.w3.org/Graphics/SVG/1.1/DTD/svg11.dtd">
<svg version="1.1" id="Layer_1" xmlns="http://www.w3.org/2000/svg" xmlns:xlink="http://www.w3.org/1999/xlink" x="0px" y="0px"
	 width="64px" height="64px" viewBox="0 0 64 64" enable-background="new 0 0 64 64" xml:space="preserve">
<g>
	<path fill="#109C5C" d="M32.968,8.47v3.427c5.29,0.22,10.303,2.365,14.048,6.009c3.743,3.644,5.946,8.522,6.174,13.671h3.521
		c-0.229-6.057-2.806-11.805-7.209-16.091C45.099,11.2,39.192,8.694,32.968,8.47L32.968,8.47z"/>
	<path fill="#109C5C" d="M37.359,32.628c-0.016,0.4-0.078,0.8-0.188,1.187c0.99,0.326,2.008,0.575,3.039,0.745
		c2.523,0.383,5.097,0.302,7.589-0.241c0.318-2.333,0.059-4.708-0.756-6.925c-1.828,1.699-3.941,3.08-6.248,4.084
		C39.685,31.954,38.535,32.339,37.359,32.628L37.359,32.628z"/>
	<path fill="#109C5C" d="M36.614,29.799c0.215,0.345,0.387,0.713,0.514,1.098c1.01-0.252,1.999-0.582,2.955-0.986
		c2.331-1.016,4.442-2.451,6.228-4.227c-1.063-2.11-2.604-3.957-4.506-5.402c-0.585,2.388-1.584,4.662-2.951,6.725
		C38.191,27.999,37.442,28.934,36.614,29.799L36.614,29.799z"/>
	<path fill="#109C5C" d="M31.208,11.897V8.47c-6.223,0.224-12.13,2.729-16.534,7.015S7.695,25.519,7.466,31.577h3.521
		c0.227-5.149,2.43-10.027,6.174-13.671C20.905,14.261,25.917,12.117,31.208,11.897L31.208,11.897z"/>
	<path fill="#109C5C" d="M56.71,33.289h-3.521c-0.228,5.148-2.431,10.026-6.174,13.671c-3.745,3.646-8.758,5.789-14.049,6.01v3.427
		c6.225-0.224,12.131-2.73,16.534-7.016C53.904,45.095,56.479,39.347,56.71,33.289L56.71,33.289z"/>
	<path fill="#109C5C" d="M31.208,56.396V52.97c-5.291-0.222-10.303-2.365-14.047-6.01c-3.745-3.645-5.948-8.522-6.174-13.671H7.466
		c0.229,6.057,2.805,11.805,7.208,16.091C19.077,53.665,24.984,56.172,31.208,56.396L31.208,56.396z"/>
	<path fill="#109C5C" d="M39.933,36.251c-1.201-0.189-2.383-0.478-3.531-0.862c-0.24,0.33-0.519,0.63-0.828,0.896
		c0.648,0.799,1.361,1.548,2.132,2.238c1.905,1.654,4.108,2.951,6.5,3.822c1.554-1.8,2.663-3.922,3.243-6.205
		c-1.355,0.248-2.731,0.373-4.111,0.372C42.196,36.513,41.059,36.426,39.933,36.251L39.933,36.251z"/>
	<path fill="#109C5C" d="M34.406,27.823c0.373,0.176,0.724,0.394,1.044,0.65c0.707-0.748,1.352-1.55,1.928-2.398
		c1.378-2.089,2.347-4.408,2.856-6.84c-2.069-1.219-4.4-1.957-6.811-2.154c0.852,2.315,1.294,4.755,1.304,7.215
		C34.723,25.478,34.616,26.658,34.406,27.823L34.406,27.823z"/>
	<path fill="#109C5C" d="M51.451,32.433c0-4.998-2.041-9.791-5.672-13.324c-3.631-3.535-8.557-5.52-13.691-5.52
		c-5.135,0-10.061,1.985-13.691,5.52c-3.632,3.534-5.672,8.327-5.672,13.324c0,4.998,2.04,9.791,5.672,13.326
		c3.631,3.533,8.556,5.519,13.691,5.519c5.133-0.006,10.056-1.993,13.685-5.524C49.402,42.219,51.445,37.429,51.451,32.433
		L51.451,32.433z M14.485,32.433c0-4.543,1.855-8.901,5.156-12.113c3.301-3.213,7.778-5.018,12.447-5.018s9.146,1.805,12.447,5.018
		s5.156,7.57,5.156,12.113c0,4.545-1.855,8.901-5.156,12.114c-3.301,3.212-7.778,5.018-12.447,5.018
		c-4.667-0.006-9.141-1.813-12.441-5.023C16.346,41.33,14.49,36.976,14.485,32.433L14.485,32.433z"/>
	<path fill="#109C5C" d="M28.919,28.332c0.336-0.25,0.703-0.458,1.091-0.622c-0.361-0.954-0.799-1.879-1.31-2.766
		c-1.278-2.148-2.956-4.047-4.946-5.599c-2.051,1.242-3.786,2.921-5.072,4.911c2.504,0.321,4.932,1.057,7.182,2.173
		C26.938,26.977,27.959,27.613,28.919,28.332z"/>
	<path fill="#109C5C" d="M23.922,35.535c0.947-0.738,1.957-1.397,3.018-1.971c-0.088-0.371-0.132-0.751-0.134-1.132v-0.085
		c-1.042-0.063-2.088-0.044-3.127,0.057c-2.54,0.266-5.006,0.99-7.273,2.134c0.324,2.332,1.196,4.561,2.547,6.511
		C20.275,38.949,21.956,37.085,23.922,35.535z"/>
	<path fill="#109C5C" d="M30.229,24.093c0.594,1.03,1.097,2.106,1.507,3.217c0.117-0.008,0.233-0.017,0.352-0.017
		c0.208,0.001,0.416,0.014,0.622,0.039c0.17-1.003,0.255-2.019,0.258-3.037c-0.012-2.484-0.502-4.944-1.444-7.252
		c-2.11,0.069-4.183,0.553-6.096,1.42C27.344,20.062,28.968,21.965,30.229,24.093L30.229,24.093z"/>
	<path fill="#109C5C" d="M28.406,36.11c-0.302-0.286-0.568-0.605-0.792-0.952c-0.909,0.502-1.775,1.074-2.589,1.712
		c-1.98,1.567-3.643,3.481-4.904,5.642c1.581,1.782,3.557,3.189,5.78,4.117c-0.071-2.464,0.291-4.92,1.069-7.266
		C27.352,38.242,27.832,37.152,28.406,36.11L28.406,36.11z"/>
	<path fill="#109C5C" d="M27.14,30.653c0.143-0.377,0.33-0.736,0.558-1.071c-0.833-0.612-1.716-1.156-2.641-1.627
		c-2.276-1.126-4.749-1.828-7.289-2.07c-1,2.046-1.519,4.282-1.522,6.548c0,0.086,0.012,0.172,0.013,0.257
		c2.281-1.06,4.732-1.734,7.246-1.994C24.713,30.581,25.93,30.566,27.14,30.653L27.14,30.653z"/>
	<path fill="#109C5C" d="M34.848,47.602c-1.435-2.022-2.504-4.269-3.162-6.64c-0.309-1.144-0.517-2.311-0.622-3.488
		c-0.415-0.081-0.817-0.21-1.2-0.387c-0.483,0.902-0.89,1.841-1.216,2.807c-0.781,2.369-1.103,4.859-0.949,7.342
		C30.019,47.905,32.468,48.031,34.848,47.602L34.848,47.602z"/>
	<path fill="#109C5C" d="M35.608,32.433c0-0.908-0.372-1.78-1.03-2.422c-0.661-0.643-1.557-1.004-2.49-1.004
		s-1.83,0.361-2.489,1.004c-0.66,0.643-1.032,1.514-1.032,2.422c0,0.91,0.372,1.78,1.032,2.423s1.556,1.004,2.489,1.004
		s1.829-0.361,2.49-1.004C35.236,34.213,35.608,33.343,35.608,32.433z M32.968,33.289h-1.76c-0.486,0-0.88-0.383-0.88-0.856
		c0-0.473,0.395-0.856,0.88-0.856h1.76l0,0c0.486,0,0.881,0.383,0.881,0.856C33.849,32.906,33.454,33.289,32.968,33.289z"/>
	<path fill="#109C5C" d="M34.067,37.194c-0.396,0.155-0.81,0.263-1.232,0.32c0.101,1.016,0.287,2.021,0.556,3.005
		c0.667,2.404,1.794,4.662,3.318,6.658c2.306-0.689,4.419-1.886,6.178-3.493c-2.332-0.938-4.481-2.254-6.361-3.892
		C35.634,38.994,34.812,38.126,34.067,37.194L34.067,37.194z"/>
</g>
</svg>
