<?xml version="1.0" encoding="utf-8"?>
<!-- Generator: Adobe Illustrator 16.0.0, SVG Export Plug-In . SVG Version: 6.00 Build 0)  -->
<!DOCTYPE svg PUBLIC "-//W3C//DTD SVG 1.1//EN" "http://www.w3.org/Graphics/SVG/1.1/DTD/svg11.dtd">
<svg version="1.1" id="Layer_1" xmlns="http://www.w3.org/2000/svg" xmlns:xlink="http://www.w3.org/1999/xlink" x="0px" y="0px"
	 width="64px" height="64px" viewBox="0 0 64 64" enable-background="new 0 0 64 64" xml:space="preserve">
<g>
	<path fill="#9838F4" d="M31.867,4.667h1.773L18.861,30.12l-8.474-14.798C15.314,8.811,23,4.667,31.867,4.667z M35.02,4.864
		c9.263,1.184,16.949,6.906,20.889,14.798H26.545L35.02,4.864z M56.5,21.043c1.38,3.157,2.167,6.709,2.167,10.458
		c0,5.526-1.772,10.655-4.531,14.798L39.356,21.043H56.5L56.5,21.043z M53.15,47.482c-4.729,6.512-12.614,10.852-21.283,10.852
		c-0.591,0-1.183-0.198-1.774-0.198l14.582-25.452L53.15,47.482L53.15,47.482z M28.518,58.137
		c-9.065-1.182-16.75-6.904-20.692-14.797h29.362L28.518,58.137z M7.234,41.958C5.855,38.801,5.067,35.25,5.067,31.5
		c0-5.524,1.577-10.655,4.532-14.995l14.583,25.453H7.234L7.234,41.958z"/>
</g>
</svg>
