<?xml version="1.0" encoding="utf-8"?>
<!-- Generator: Adobe Illustrator 16.0.0, SVG Export Plug-In . SVG Version: 6.00 Build 0)  -->
<!DOCTYPE svg PUBLIC "-//W3C//DTD SVG 1.1//EN" "http://www.w3.org/Graphics/SVG/1.1/DTD/svg11.dtd">
<svg version="1.1" id="Layer_1" xmlns="http://www.w3.org/2000/svg" xmlns:xlink="http://www.w3.org/1999/xlink" x="0px" y="0px"
	 width="64px" height="64px" viewBox="0 0 64 64" enable-background="new 0 0 64 64" xml:space="preserve">
<g transform="translate(0.000000,1080.000000) scale(0.100000,-0.100000)">
	<path fill="#9838F4" d="M317.319,10777.362c-3.462-1.836-73.184-66.431-74.399-68.921c-2.305-4.8-1.763-9.419,1.577-13.154
		c3.706-4.087,9.233-5.391,14.15-3.198c1.641,0.713,10.938,8.945,26.602,23.408l24.053,22.339v-5.864
		c0-3.203-0.85-36.328-1.821-73.662c-1.035-37.275-1.704-68.384-1.523-69.038c0.244-1.182-0.059-1.362-4.731-1.953
		c-31.948-4.385-60.435-21.099-79.805-46.934c-2.188-2.905-4.072-5.273-4.194-5.273c-0.176,0-27.632,16.475-61.035,36.563
		c-45.43,27.378-60.425,36.738-59.639,37.036c0.61,0.239,15.181,3.672,32.373,7.646c17.188,3.911,32.007,7.524,32.856,7.998
		c4.189,2.075,7.104,8.237,6.069,12.681c-1.396,6.104-5.703,9.6-11.841,9.6c-2.612-0.059-90.854-20.029-97.295-22.046
		c-3.823-1.24-7.529-6.572-7.529-10.84c0-2.607,22.104-94.048,23.262-96.24c5.586-10.43,22.896-6.396,22.896,5.332
		c0,1.426-3.398,16.597-7.534,33.662c-4.126,17.065-7.471,31.113-7.407,31.172c0.063,0.117,27.568-16.416,61.157-36.626
		c33.525-20.205,61.343-36.978,61.831-37.212c0.664-0.415,0.483-1.836-1.338-8.003c-2.856-9.6-4.072-16.65-4.561-25.776
		c-1.089-20.088,2.554-39.053,10.815-56.23l2.974-6.055h-3.159c-2.91,0-5.645-1.182-32.305-13.926
		c-87.759-42.012-106.895-51.074-107.075-50.957c-0.063,0.059,4.678,13.809,10.566,30.576c11.963,34.131,12.085,34.609,8.926,39.521
		c-4.004,6.289-13.174,7.412-18.882,2.256c-0.791-0.654-1.704-1.719-2.007-2.314c-1.035-1.777-31.646-89.473-32.129-91.914
		c-0.972-4.736,1.763-10.303,6.133-12.5c2.188-1.123,92.134-31.172,94.38-31.523c2.793-0.41,6.743,0.83,9.233,2.969
		c5.464,4.678,5.83,11.963,0.913,17.119c-2.188,2.256-3.462,2.725-34.136,12.979c-17.49,5.869-31.885,10.723-32.007,10.84
		c-0.117,0.059,30.366,14.766,67.656,32.598c37.354,17.832,68.569,33.008,69.36,33.721c0.786,0.713,2.002,2.49,2.607,3.916
		c0.669,1.416,1.401,2.305,1.641,2.07c10.205-11.855,15.244-16.719,24.111-23.115c13.242-9.541,30.918-17.246,46.099-20.088
		c3.037-0.586,5.645-1.25,5.889-1.426c0.308-0.293-2.793-126.572-3.276-133.564l-0.186-2.256l-23.013,23.711
		c-14.277,14.629-23.872,24.111-25.21,24.707c-5.586,2.607-12.388,0.889-15.605-3.906c-2.31-3.438-2.734-8.301-0.913-11.738
		c0.732-1.426,15.488-17.07,35.347-37.393c28.789-29.57,34.434-35.146,36.748-35.967c3.154-1.191,7.104-0.898,10.2,0.703
		c2.734,1.484,71.235,64.834,73.296,67.852c6.807,9.902-5.029,22.695-15.723,17.012c-1.328-0.771-13.184-11.318-26.289-23.467
		c-13.076-12.148-23.882-21.982-23.94-21.924c-0.122,0.176,3.042,119.707,3.462,130.547l0.181,4.678l7.163,0.83
		c24.238,2.607,49.619,14.043,66.387,29.863l3.096,2.91l0.742-1.719c0.42-0.947,1.641-2.549,2.656-3.496
		c1.104-1.016,30.43-18.965,65.293-39.883c34.795-20.977,63.096-38.34,62.861-38.574c-0.303-0.176-14.697-3.672-32.07-7.646
		s-32.246-7.588-33.096-7.998c-3.77-1.895-6.68-6.641-6.68-10.85c0-1.24,0.723-3.613,1.582-5.332
		c2.119-4.15,5.762-6.338,10.557-6.279c3.652,0.059,94.873,21.035,98.271,22.578c2.783,1.299,5.41,4.619,6.191,7.881
		c0.664,2.666,0.176,4.971-10.322,48.35c-6.016,25.068-11.24,46.582-11.602,47.832c-1.279,4.619-6.738,8.711-11.787,8.711
		c-6.24,0-12.451-5.938-12.451-11.914c0-0.537,3.408-15.059,7.598-32.305c4.189-17.236,7.539-31.523,7.48-31.758
		c-0.127-0.234-29.16,17.012-64.57,38.34c-35.4,21.328-64.863,38.818-65.4,38.818c-1.826,0-1.641,0.889,1.152,5.029
		c3.457,5.273,9.951,18.203,11.953,24.063c4.688,13.516,6.152,22.637,6.074,38.164c0,11.558-0.723,18.965-2.432,25.068
		c-0.234,0.83-0.117,1.304,0.371,1.304s31.279,14.575,68.506,32.354c37.178,17.778,67.783,32.178,67.959,32.002
		c0.186-0.176-4.492-14.106-10.391-30.991c-5.879-16.89-10.684-31.348-10.684-32.178c0.059-6.875,5.342-11.855,12.627-11.855
		c2.861,0,4.072,0.356,6.328,1.719c1.582,1.011,3.281,2.607,3.828,3.618c2.178,4.087,32.061,90.488,32.363,93.452
		c0.303,3.73-1.406,7.764-4.365,9.951c-1.221,0.894-19.375,7.29-48.037,16.953c-51.631,17.3-50.605,17.065-55.879,13.862
		c-7.295-4.385-7.773-15.171-0.908-19.614c1.211-0.83,16.152-6.104,33.096-11.792s30.977-10.43,31.094-10.605
		c0.186-0.122-0.303-0.532-0.977-0.889c-3.516-1.841-132.695-63.467-132.998-63.467c-0.244,0-1.396,2.012-2.676,4.443
		c-5.166,10.19-12.51,19.731-22.344,29.038c-18.896,17.837-39.6,27.671-67.412,31.997l-2.188,0.298l0.244,6.699
		c0.117,3.613,1.016,37.153,2.002,74.429c1.025,37.271,1.875,67.852,2.002,67.969c0.059,0.059,10.449-10.488,23.076-23.467
		c14.033-14.399,23.799-23.999,25.078-24.595c4.805-2.192,9.6-1.597,13.428,1.66c4.189,3.618,5.537,9.067,3.281,13.75
		c-1.582,3.379-67.715,71.23-71.182,73.066c-1.582,0.83-3.643,1.304-5.405,1.304
		C320.84,10778.666,318.892,10778.192,317.319,10777.362z"/>
</g>
</svg>
