<?xml version="1.0" encoding="utf-8"?>
<!-- Generator: Adobe Illustrator 16.0.0, SVG Export Plug-In . SVG Version: 6.00 Build 0)  -->
<!DOCTYPE svg PUBLIC "-//W3C//DTD SVG 1.1//EN" "http://www.w3.org/Graphics/SVG/1.1/DTD/svg11.dtd">
<svg version="1.1" id="Layer_1" xmlns="http://www.w3.org/2000/svg" xmlns:xlink="http://www.w3.org/1999/xlink" x="0px" y="0px"
	 width="64px" height="64px" viewBox="0 0 64 64" enable-background="new 0 0 64 64" xml:space="preserve">
<g>
	<path fill="#FF7C14" d="M55.307,25.975h-1.861v-5.102c0-1.409-1.109-2.551-2.479-2.551H11.274c-1.37,0-2.48,1.142-2.48,2.551
		v20.409c0,1.409,1.11,2.552,2.48,2.552h39.693c1.369,0,2.479-1.143,2.479-2.552V36.18h1.861c1.027,0,1.859-0.857,1.859-1.912
		v-6.379C57.166,26.833,56.334,25.975,55.307,25.975z M49.727,40.007H12.514V22.149h37.212V40.007z"/>
	<path fill="#FF7C14" d="M14.913,24.615V37.54H27.38l-6.233-12.925H14.913z"/>
	<path fill="#FF7C14" d="M23.016,24.615L29.25,37.54h9.974L32.99,24.615H23.016z"/>
</g>
</svg>
