<?xml version="1.0" encoding="utf-8"?>
<!-- Generator: Adobe Illustrator 16.0.0, SVG Export Plug-In . SVG Version: 6.00 Build 0)  -->
<!DOCTYPE svg PUBLIC "-//W3C//DTD SVG 1.1//EN" "http://www.w3.org/Graphics/SVG/1.1/DTD/svg11.dtd">
<svg version="1.1" id="Layer_1" xmlns="http://www.w3.org/2000/svg" xmlns:xlink="http://www.w3.org/1999/xlink" x="0px" y="0px"
	 width="64px" height="64px" viewBox="0 0 64 64" enable-background="new 0 0 64 64" xml:space="preserve">
<g>
	<path fill="#FFBC04" d="M32.446,15.674c-4.934,0-9.667,1.718-13.153,4.782c-3.488,3.061-5.448,7.214-5.448,11.545
		c0,4.329,1.959,8.482,5.448,11.544c3.486,3.063,8.219,4.782,13.153,4.782c4.93,0,9.664-1.72,13.15-4.782
		c3.489-3.063,5.45-7.216,5.45-11.544c0-4.332-1.961-8.484-5.45-11.545C42.11,17.393,37.376,15.674,32.446,15.674z M32.446,20.303
		c0.683,0,1.3,0.361,1.561,0.917c0.261,0.555,0.116,1.192-0.366,1.616c-0.482,0.424-1.212,0.552-1.841,0.322
		c-0.633-0.23-1.045-0.771-1.045-1.372C30.754,20.967,31.512,20.303,32.446,20.303L32.446,20.303z M20.829,33.486
		c-0.934,0-1.691-0.666-1.691-1.486c0-0.82,0.757-1.485,1.691-1.485c0.933,0,1.69,0.665,1.69,1.485
		C22.52,32.82,21.761,33.486,20.829,33.486z M25.428,40.271L25.428,40.271c-0.485,0.421-1.212,0.546-1.841,0.313
		c-0.631-0.23-1.042-0.769-1.042-1.37s0.411-1.14,1.042-1.37c0.63-0.23,1.356-0.106,1.841,0.317c0.32,0.276,0.5,0.657,0.5,1.053
		C25.927,39.608,25.749,39.988,25.428,40.271L25.428,40.271z M25.428,25.84L25.428,25.84c-0.485,0.422-1.212,0.546-1.841,0.315
		c-0.631-0.229-1.042-0.77-1.042-1.369c0-0.599,0.411-1.14,1.042-1.371c0.63-0.23,1.356-0.106,1.841,0.317
		c0.32,0.279,0.5,0.659,0.5,1.055C25.927,25.182,25.749,25.562,25.428,25.84L25.428,25.84z M32.446,43.652L32.446,43.652
		c-0.935,0-1.692-0.663-1.692-1.484c0-0.818,0.757-1.484,1.692-1.484c0.932,0,1.689,0.664,1.689,1.484
		c0.011,0.398-0.165,0.783-0.481,1.066c-0.319,0.286-0.754,0.448-1.208,0.448V43.652z M32.446,36.053L32.446,36.053
		c-1.237,0-2.421-0.433-3.293-1.2c-0.872-0.767-1.361-1.809-1.358-2.892c0.002-1.084,0.498-2.124,1.375-2.888
		c0.876-0.763,2.062-1.19,3.299-1.185c1.235,0.005,2.416,0.442,3.287,1.212c0.867,0.771,1.351,1.815,1.339,2.9
		c0,1.081-0.489,2.12-1.363,2.887c-0.871,0.764-2.052,1.193-3.284,1.193V36.053z M41.862,40.238L41.862,40.238
		c-0.481,0.422-1.21,0.549-1.842,0.317c-0.629-0.233-1.039-0.773-1.039-1.371c0-0.601,0.41-1.14,1.039-1.371
		c0.632-0.229,1.36-0.104,1.842,0.316c0.332,0.28,0.518,0.666,0.518,1.067c0,0.405-0.187,0.79-0.518,1.071V40.238z M41.862,25.811
		L41.862,25.811c-0.481,0.422-1.21,0.548-1.842,0.315c-0.629-0.231-1.039-0.77-1.039-1.369c0-0.601,0.41-1.14,1.039-1.371
		c0.632-0.232,1.36-0.106,1.842,0.317c0.332,0.279,0.518,0.665,0.518,1.068c0,0.402-0.187,0.789-0.518,1.069V25.811z M44.076,33.486
		c-0.934,0-1.691-0.667-1.691-1.486c0-0.82,0.758-1.487,1.691-1.487c0.938,0,1.694,0.666,1.694,1.487
		C45.771,32.819,45.014,33.486,44.076,33.486z"/>
	<path fill="#FFBC04" d="M32.446,14.01c0.448,0,0.878-0.157,1.194-0.435c0.316-0.278,0.495-0.656,0.495-1.05v-2.79
		c0-0.819-0.758-1.485-1.689-1.485c-0.935,0-1.692,0.666-1.692,1.485v2.79c0,0.394,0.178,0.772,0.495,1.05
		C31.566,13.854,31.996,14.01,32.446,14.01z"/>
	<path fill="#FFBC04" d="M49.186,15.213l-2.246,1.943c-0.321,0.278-0.503,0.66-0.503,1.054c0,0.396,0.182,0.776,0.503,1.054
		c0.313,0.278,0.746,0.433,1.196,0.43c0.451,0.001,0.884-0.153,1.203-0.43l2.232-1.974c0.357-0.27,0.573-0.658,0.59-1.071
		c0.018-0.414-0.163-0.816-0.493-1.106c-0.335-0.293-0.788-0.45-1.264-0.434c-0.466,0.015-0.91,0.203-1.219,0.517V15.213z"/>
	<path fill="#FFBC04" d="M57.809,30.516h-3.162c-0.934,0-1.69,0.665-1.69,1.485c0,0.818,0.757,1.486,1.69,1.486h3.164
		c0.934,0,1.689-0.667,1.689-1.486C59.499,31.18,58.742,30.516,57.809,30.516z"/>
	<path fill="#FFBC04" d="M49.355,44.721c-0.67-0.589-1.754-0.589-2.418,0c-0.669,0.585-0.669,1.535,0,2.123l2.248,1.957
		c0.659,0.576,1.724,0.576,2.384,0c0.657-0.579,0.657-1.511,0-2.09L49.355,44.721z"/>
	<path fill="#FFBC04" d="M32.446,50.005c-0.935,0-1.692,0.663-1.692,1.484v2.776c0,0.819,0.757,1.484,1.692,1.484
		c0.932,0,1.689-0.664,1.689-1.484v-2.776c0-0.394-0.179-0.771-0.495-1.05C33.324,50.162,32.895,50.005,32.446,50.005z"/>
	<path fill="#FFBC04" d="M15.534,44.721l-2.216,1.974c-0.656,0.58-0.656,1.514,0,2.094c0.66,0.574,1.726,0.574,2.385,0l2.249-1.944
		c0.668-0.588,0.668-1.538,0-2.123C17.287,44.132,16.203,44.132,15.534,44.721z"/>
	<path fill="#FFBC04" d="M10.259,30.516H7.08c-0.933,0-1.691,0.665-1.691,1.485c0,0.818,0.758,1.486,1.691,1.486h3.179
		c0.934,0,1.691-0.667,1.691-1.486C11.95,31.18,11.193,30.516,10.259,30.516z"/>
	<path fill="#FFBC04" d="M15.534,19.28c0.321,0.278,0.752,0.432,1.2,0.43c0.451,0.002,0.882-0.152,1.201-0.43
		c0.32-0.278,0.501-0.659,0.501-1.053c0-0.396-0.181-0.775-0.501-1.054l-2.232-1.959c-0.672-0.504-1.671-0.47-2.296,0.078
		c-0.624,0.548-0.663,1.426-0.088,2.016L15.534,19.28z"/>
</g>
</svg>
