<?xml version="1.0" encoding="utf-8"?>
<!-- Generator: Adobe Illustrator 16.0.0, SVG Export Plug-In . SVG Version: 6.00 Build 0)  -->
<!DOCTYPE svg PUBLIC "-//W3C//DTD SVG 1.1//EN" "http://www.w3.org/Graphics/SVG/1.1/DTD/svg11.dtd">
<svg version="1.1" id="Layer_1" xmlns="http://www.w3.org/2000/svg" xmlns:xlink="http://www.w3.org/1999/xlink" x="0px" y="0px"
	 width="64px" height="64px" viewBox="0 0 64 64" enable-background="new 0 0 64 64" xml:space="preserve">
<g>
	<path fill="#F04C40" d="M14.772,15.039c0.471,0,0.994-0.205,1.36-0.563c2.564-2.509,6.017-3.942,9.68-3.942
		c3.663,0,7.116,1.382,9.681,3.891c0.732,0.717,1.989,0.717,2.722,0s0.732-1.946,0-2.663c-3.298-3.174-7.693-4.966-12.402-4.966
		s-9.105,1.792-12.401,5.018c-0.732,0.716-0.732,1.945,0,2.662C13.778,14.885,14.249,15.039,14.772,15.039L14.772,15.039z"/>
	<path fill="#F04C40" d="M33.086,19.544c0.733-0.717,0.733-1.946,0-2.663c-4.029-3.891-10.517-3.891-14.546,0
		c-0.732,0.717-0.732,1.946,0,2.663c0.367,0.358,0.89,0.563,1.361,0.563c0.471,0,0.994-0.205,1.36-0.563
		c2.512-2.458,6.593-2.458,9.104,0C31.098,20.261,32.301,20.261,33.086,19.544z"/>
	<path fill="#F04C40" d="M28.796,23.948c0,1.612-1.335,2.918-2.983,2.918c-1.647,0-2.982-1.306-2.982-2.918s1.335-2.918,2.982-2.918
		C27.46,21.029,28.796,22.336,28.796,23.948"/>
	<path fill="#F04C40" d="M53.702,33.881l-7.168,3.225c-0.576,0.257-0.891,0.769-0.891,1.383v8.039c0,0.614,0.367,1.126,0.891,1.383
		l7.168,3.174c1.047,0.461,2.197-0.256,2.197-1.383V35.263C55.951,34.137,54.749,33.42,53.702,33.881L53.702,33.881z"/>
	<path fill="#F04C40" d="M38.895,29.528H12.679c-1.832,0-3.296,1.434-3.296,3.226V52.21c0,1.792,1.465,3.226,3.296,3.226h26.215
		c1.831,0,3.296-1.434,3.296-3.226V32.754C42.19,31.013,40.726,29.528,38.895,29.528L38.895,29.528z M25.813,50.265
		c-4.395,0-7.954-3.481-7.954-7.782s3.558-7.783,7.954-7.783s7.901,3.482,7.901,7.783S30.208,50.265,25.813,50.265z"/>
	<path fill="#F04C40" d="M24.452,38.898c-0.575-0.41-1.36,0.051-1.36,0.717v5.734c0,0.717,0.785,1.126,1.36,0.717l4.396-2.867
		c0.523-0.359,0.523-1.127,0-1.434L24.452,38.898z"/>
</g>
</svg>
