<?xml version="1.0" encoding="utf-8"?>
<!-- Generator: Adobe Illustrator 16.0.0, SVG Export Plug-In . SVG Version: 6.00 Build 0)  -->
<!DOCTYPE svg PUBLIC "-//W3C//DTD SVG 1.1//EN" "http://www.w3.org/Graphics/SVG/1.1/DTD/svg11.dtd">
<svg version="1.1" id="Layer_1" xmlns="http://www.w3.org/2000/svg" xmlns:xlink="http://www.w3.org/1999/xlink" x="0px" y="0px"
	 width="64px" height="64px" viewBox="0 0 64 64" enable-background="new 0 0 64 64" xml:space="preserve">
<g>
	<path fill="#9838F4" d="M10.852,31.801H7.354c-0.933,0-1.457-1.088-0.874-1.833l0.641-0.916c1.69-2.291,3.555-4.523,5.537-6.527
		l0.058-0.057c0.583-0.745,1.749-0.745,2.332,0c2.04,2.062,3.904,4.238,5.595,6.584l0.641,0.859
		c0.583,0.744,0.058,1.832-0.874,1.832h-3.438c0.174,9.276,7.926,16.72,17.424,16.72c9.618,0,17.429-7.673,17.429-17.121
		c-0.002-9.446-7.811-17.005-17.429-17.005c-3.206,0-6.352,0.858-9.033,2.461c-1.457,0.859-3.38,0.401-4.253-1.031
		c-0.875-1.431-0.409-3.32,1.048-4.179c3.671-2.176,7.926-3.378,12.238-3.378C47.393,8.211,58,18.631,58,31.4
		c0,12.769-10.55,23.246-23.604,23.246C21.516,54.646,11.025,44.455,10.852,31.801L10.852,31.801z M35.563,18.746v8.589
		c1.865,0.515,3.207,2.176,3.207,4.18c0,0.801-0.234,1.488-0.585,2.175l4.313,4.236c0.467,0.459,0.467,1.146,0,1.604
		c-0.466,0.458-1.165,0.458-1.632,0l-4.313-4.237c-0.641,0.345-1.398,0.573-2.215,0.573c-2.447,0-4.37-1.947-4.37-4.294
		c0-2.004,1.398-3.664,3.263-4.179v-8.646c0-0.629,0.525-1.145,1.167-1.145C35.038,17.602,35.563,18.117,35.563,18.746
		L35.563,18.746z M34.397,29.396c-1.167,0-2.098,0.916-2.098,2.061s0.931,2.061,2.098,2.061c0.583,0,1.107-0.229,1.457-0.572
		c0.349-0.401,0.583-0.859,0.583-1.432C36.495,30.369,35.563,29.396,34.397,29.396L34.397,29.396z"/>
</g>
</svg>
