<?xml version="1.0" encoding="utf-8"?>
<!-- Generator: Adobe Illustrator 16.0.0, SVG Export Plug-In . SVG Version: 6.00 Build 0)  -->
<!DOCTYPE svg PUBLIC "-//W3C//DTD SVG 1.1//EN" "http://www.w3.org/Graphics/SVG/1.1/DTD/svg11.dtd">
<svg version="1.1" id="Layer_1" xmlns="http://www.w3.org/2000/svg" xmlns:xlink="http://www.w3.org/1999/xlink" x="0px" y="0px"
	 width="64px" height="64px" viewBox="0 0 64 64" enable-background="new 0 0 64 64" xml:space="preserve">
<g>
	<path fill="#09821D" d="M52.518,7.749H18.007c-0.501,0-0.908,0.396-0.908,0.883v40.591c0,0.236,0.095,0.46,0.265,0.625
		c0.171,0.164,0.402,0.257,0.643,0.257h34.511c0.24,0,0.472-0.093,0.642-0.257c0.169-0.165,0.266-0.389,0.266-0.625V8.631
		c0-0.234-0.097-0.458-0.266-0.625C52.989,7.842,52.758,7.749,52.518,7.749z M31.629,19.22c0-0.487,0.407-0.882,0.907-0.882h5.45
		c0.241,0,0.472,0.093,0.643,0.258c0.171,0.166,0.266,0.39,0.266,0.624v8.824c0,0.234-0.095,0.459-0.266,0.625
		c-0.171,0.165-0.401,0.258-0.643,0.258h-5.45c-0.5,0-0.907-0.395-0.907-0.882V19.22z M22.548,22.75
		c0-0.487,0.407-0.883,0.908-0.883h5.449c0.241,0,0.472,0.093,0.642,0.259s0.266,0.39,0.266,0.624v5.294
		c0,0.234-0.096,0.459-0.266,0.625c-0.17,0.165-0.401,0.258-0.642,0.258h-5.449c-0.501,0-0.908-0.395-0.908-0.882V22.75z
		 M47.067,44.811H23.456c-0.501,0-0.908-0.396-0.908-0.883c0-0.487,0.407-0.882,0.908-0.882h23.611c0.502,0,0.908,0.395,0.908,0.882
		C47.976,44.414,47.569,44.811,47.067,44.811z M47.067,39.515H23.456c-0.501,0-0.908-0.394-0.908-0.881
		c0-0.486,0.407-0.883,0.908-0.883h23.611c0.502,0,0.908,0.396,0.908,0.883C47.976,39.121,47.569,39.515,47.067,39.515z
		 M47.067,34.222H23.456c-0.501,0-0.908-0.396-0.908-0.884c0-0.485,0.407-0.883,0.908-0.883h23.611c0.502,0,0.908,0.398,0.908,0.883
		C47.976,33.826,47.569,34.222,47.067,34.222z M47.976,28.044c0,0.234-0.096,0.459-0.265,0.625
		c-0.172,0.165-0.401,0.258-0.644,0.258h-5.448c-0.501,0-0.908-0.395-0.908-0.882V13.926c0-0.487,0.407-0.882,0.908-0.882h5.448
		c0.242,0,0.472,0.092,0.644,0.257c0.169,0.166,0.265,0.391,0.265,0.625V28.044z"/>
	<path fill="#09821D" d="M15.282,50.987V14.808h-4.54c-0.502,0-0.909,0.396-0.909,0.883v40.591c0,0.233,0.096,0.46,0.266,0.624
		c0.17,0.165,0.401,0.258,0.643,0.258h33.601c0.241,0,0.472-0.093,0.643-0.258c0.171-0.164,0.266-0.391,0.266-0.624v-4.411H16.19
		C15.689,51.871,15.282,51.475,15.282,50.987z"/>
</g>
</svg>
