<?xml version="1.0" encoding="utf-8"?>
<!-- Generator: Adobe Illustrator 16.0.0, SVG Export Plug-In . SVG Version: 6.00 Build 0)  -->
<!DOCTYPE svg PUBLIC "-//W3C//DTD SVG 1.1//EN" "http://www.w3.org/Graphics/SVG/1.1/DTD/svg11.dtd">
<svg version="1.1" id="Layer_1" xmlns="http://www.w3.org/2000/svg" xmlns:xlink="http://www.w3.org/1999/xlink" x="0px" y="0px"
	 width="64px" height="64px" viewBox="0 0 64 64" enable-background="new 0 0 64 64" xml:space="preserve">
<desc>Created with Fabric.js 3.5.0</desc>
<g id="_x39_8624" transform="matrix(-10.6534 0 0 10.6534 499.9994 499.9994)">
	<g vector-effect="non-scaling-stroke">
		<g transform="matrix(0.1219 0 0 0.1219 6.0622 -18.5756)">
			<path fill="#109C5C" d="M320.609-212.212l-5.924-6.958c-0.307,1.266-1.074,2.399-2.177,3.212c-1.102,0.814-2.474,1.26-3.89,1.265
				h-0.368l5.845,6.867c0.476-1.248,1.352-2.334,2.515-3.117C317.774-211.725,319.167-212.168,320.609-212.212L320.609-212.212z"/>
		</g>
		<g transform="matrix(0.1219 0 0 0.1219 -12.9952 -23.0161)">
			<path fill="#109C5C" d="M458.896-182.631l-3.275,2.334c1.499,0.714,2.491,2.082,2.629,3.624l3.467-2.457
				C460.309-179.91,459.296-181.169,458.896-182.631z"/>
		</g>
		<g transform="matrix(0.1219 0 0 0.1219 16.1654 -2.2191)">
			<path fill="#109C5C" d="M231.462-339.854v9.327h12.999v-9.327c0-2.127-1.239-4.093-3.249-5.156c-2.012-1.063-4.489-1.063-6.5,0
				C232.701-343.947,231.462-341.982,231.462-339.854z M233.689-341.906l1.101-1.008c0.098-0.09,0.247-0.114,0.373-0.06l0.702,0.306
				c0.24-0.116,0.491-0.212,0.75-0.286l0.26-0.671c0.047-0.118,0.17-0.198,0.308-0.198h1.56c0.138,0,0.259,0.08,0.304,0.198
				l0.264,0.671c0.258,0.076,0.509,0.172,0.75,0.286l0.702-0.306h0.001c0.123-0.056,0.272-0.032,0.368,0.06l1.105,1.008
				c0.096,0.089,0.12,0.224,0.061,0.337l-0.334,0.65c0.122,0.218,0.224,0.445,0.303,0.679l0.741,0.242h0
				c0.13,0.044,0.216,0.156,0.217,0.282v1.425v-0.001c-0.001,0.126-0.087,0.238-0.217,0.282l-0.75,0.246
				c-0.079,0.229-0.181,0.451-0.303,0.663l0.343,0.663c0.06,0.113,0.036,0.248-0.061,0.338l-1.101,1.008
				c-0.096,0.092-0.244,0.116-0.368,0.06l-0.728-0.318c-0.229,0.111-0.468,0.203-0.715,0.274l-0.274,0.695v-0.001
				c-0.044,0.119-0.166,0.199-0.303,0.199h-1.56h0.001c-0.138-0.001-0.261-0.08-0.308-0.199l-0.273-0.711
				c-0.248-0.071-0.489-0.163-0.719-0.273l-0.723,0.317c-0.126,0.055-0.276,0.031-0.373-0.059l-1.101-1.008l0,0
				c-0.096-0.089-0.122-0.224-0.065-0.337l0.342-0.663c-0.12-0.213-0.222-0.435-0.303-0.663l-0.763-0.231
				c-0.127-0.044-0.212-0.156-0.212-0.282v-1.424c0-0.125,0.085-0.238,0.212-0.282l0.758-0.254c0.077-0.235,0.179-0.462,0.303-0.678
				l-0.338-0.651l0,0C233.574-341.691,233.6-341.819,233.689-341.906L233.689-341.906z"/>
		</g>
		<g transform="matrix(0.1219 0 0 0.1219 16.1174 -3.6632)">
			<path fill="#109C5C" d="M233.728-326.65l0.689,0.223c0.1,0.033,0.176,0.108,0.204,0.202c0.095,0.287,0.232,0.562,0.407,0.817
				c0.05,0.086,0.05,0.189,0,0.275l-0.316,0.606l0.779,0.714l0.672-0.29l0,0.001c0.094-0.046,0.206-0.046,0.299,0
				c0.273,0.144,0.563,0.256,0.866,0.333c0.102,0.028,0.181,0.099,0.217,0.19l0.251,0.639h1.131l0.247-0.639
				c0.03-0.083,0.099-0.149,0.186-0.183c0.303-0.077,0.594-0.189,0.867-0.333c0.093-0.046,0.206-0.046,0.299,0l0.672,0.289
				l0.776-0.714l-0.317-0.606l0-0.001c-0.047-0.088-0.047-0.191,0-0.278c0.159-0.249,0.285-0.516,0.373-0.794
				c0.026-0.094,0.103-0.169,0.203-0.202l0.689-0.222v-1.036l-0.68-0.222c-0.101-0.035-0.177-0.112-0.208-0.207
				c-0.084-0.289-0.209-0.566-0.372-0.826c-0.05-0.086-0.05-0.19,0-0.277l0.308-0.595l-0.776-0.715l-0.65,0.282l0,0
				c-0.093,0.047-0.206,0.047-0.299,0c-0.277-0.153-0.574-0.273-0.884-0.357c-0.104-0.026-0.186-0.097-0.221-0.191l-0.212-0.615
				h-1.123l-0.238,0.619l0,0c-0.038,0.09-0.12,0.159-0.221,0.187c-0.319,0.079-0.627,0.195-0.914,0.346
				c-0.095,0.047-0.209,0.047-0.303,0l-0.645-0.282l-0.781,0.714l0.325,0.599c0.05,0.088,0.05,0.191,0,0.278
				c-0.16,0.26-0.285,0.538-0.373,0.826c-0.027,0.095-0.103,0.171-0.204,0.206l-0.723,0.23V-326.65z M238.308-329.274
				c0.603,0,1.181,0.22,1.608,0.61c0.426,0.391,0.666,0.921,0.666,1.473c0,0.553-0.24,1.084-0.666,1.475
				c-0.427,0.391-1.005,0.61-1.608,0.61s-1.182-0.219-1.608-0.61c-0.427-0.391-0.666-0.921-0.666-1.475
				c0.001-0.554,0.243-1.086,0.673-1.477c0.431-0.391,1.012-0.609,1.619-0.606H238.308z"/>
		</g>
		<g transform="matrix(0.1219 0 0 0.1219 16.1169 -3.7134)">
			<path fill="#109C5C" d="M238.329-325.29c0.431,0,0.845-0.156,1.149-0.435c0.305-0.28,0.476-0.658,0.476-1.052
				c0-0.396-0.171-0.774-0.476-1.054c-0.305-0.279-0.719-0.435-1.149-0.435s-0.844,0.156-1.149,0.435
				c-0.305,0.279-0.476,0.658-0.476,1.054c0.001,0.393,0.173,0.772,0.476,1.051C237.486-325.447,237.899-325.291,238.329-325.29
				L238.329-325.29z"/>
		</g>
		<g transform="matrix(0.1219 0 0 0.1219 16.1653 17.0664)">
			<path fill="#109C5C" d="M229.296-488.139h17.333v5.953h-17.333V-488.139z"/>
		</g>
		<g transform="matrix(0.1219 0 0 0.1219 -21.3846 -7.8233)">
			<path fill="#109C5C" d="M522.168-296.44c-0.559-0.001-1.116-0.091-1.642-0.266v2.508h3.281v-2.508
				C523.282-296.53,522.727-296.44,522.168-296.44z"/>
		</g>
		<g transform="matrix(0.1219 0 0 0.1219 -3.1128 -30.4678)">
			<path fill="#109C5C" d="M389.449-122.855c0-1.355-0.587-2.654-1.633-3.612c-1.046-0.958-2.464-1.496-3.943-1.496
				c-1.479,0-2.897,0.538-3.942,1.496c-1.047,0.958-1.635,2.257-1.635,3.612c0,1.355,0.587,2.654,1.635,3.612
				c1.045,0.958,2.463,1.496,3.942,1.496c1.479,0,2.898-0.538,3.943-1.496C388.862-120.201,389.449-121.5,389.449-122.855z
				 M380.857-122.855c0-0.737,0.318-1.444,0.887-1.965c0.57-0.521,1.341-0.814,2.146-0.814c0.803,0,1.575,0.293,2.144,0.814
				c0.569,0.521,0.888,1.228,0.888,1.965c0,0.737-0.319,1.443-0.888,1.965c-0.569,0.521-1.341,0.814-2.144,0.814
				c-0.805,0-1.576-0.293-2.146-0.814C381.175-121.412,380.857-122.118,380.857-122.855z"/>
		</g>
		<g transform="matrix(0.1219 0 0 0.1219 -27.1085 5.1089)">
			<path fill="#109C5C" d="M565.259-396.877l-1.491,2.861l1.903,2.85l1.092-0.513l-0.905-2.337l1.352-1.742h-0.4
				c-0.356-0.002-0.703-0.112-0.986-0.314C565.544-396.276,565.344-396.559,565.259-396.877z"/>
		</g>
		<g transform="matrix(0.1219 0 0 0.1219 -15.5207 5.109)">
			<path fill="#109C5C" d="M476.067-395.759l1.348,1.742l-0.905,2.339l1.093,0.511l1.902-2.85l-1.491-2.861l0,0
				c-0.085,0.318-0.283,0.602-0.565,0.805c-0.28,0.203-0.627,0.314-0.986,0.314H476.067z"/>
		</g>
		<g transform="matrix(0.1219 0 0 0.1219 -3.1136 -30.4676)">
			<path fill="#109C5C" d="M386.241-122.857c0,1.195-1.057,2.163-2.361,2.163c-1.304,0-2.362-0.969-2.362-2.163
				c0-1.195,1.058-2.163,2.362-2.163C385.183-125.02,386.241-124.051,386.241-122.857"/>
		</g>
		<g transform="matrix(0.1219 0 0 0.1219 -21.3815 -17.2718)">
			<path fill="#109C5C" d="M526.407-223.435c0,2.157-1.909,3.906-4.264,3.906c-2.354,0-4.264-1.749-4.264-3.906
				c0-2.157,1.91-3.905,4.264-3.905C524.498-227.341,526.407-225.592,526.407-223.435"/>
		</g>
		<g transform="matrix(0.1219 0 0 0.1219 -21.3171 -1.7716)">
			<path fill="#109C5C" d="M519.3-343.247h4.71c0.527,0,0.955,0.482,0.955,0.874v1.591c0,0.482-0.428,0.872-0.955,0.872h-4.71
				c-0.525,0-0.952-0.482-0.952-0.872v-1.591C518.348-342.857,518.775-343.247,519.3-343.247z"/>
		</g>
	</g>
</g>
</svg>
