<?xml version="1.0" encoding="utf-8"?>
<!-- Generator: Adobe Illustrator 16.0.0, SVG Export Plug-In . SVG Version: 6.00 Build 0)  -->
<!DOCTYPE svg PUBLIC "-//W3C//DTD SVG 1.1//EN" "http://www.w3.org/Graphics/SVG/1.1/DTD/svg11.dtd">
<svg version="1.1" id="Layer_1" xmlns="http://www.w3.org/2000/svg" xmlns:xlink="http://www.w3.org/1999/xlink" x="0px" y="0px"
	 width="64px" height="64px" viewBox="0 0 64 64" enable-background="new 0 0 64 64" xml:space="preserve">
<g>
	<path fill="#02B151" d="M50.717,49.653c0.364-0.591,0.424-1.3,0.364-2.007c-0.123-0.711-0.364-1.358-0.668-1.949
		c-0.363-0.888-0.727-1.715-1.151-2.6c-0.184-0.354-0.365-0.648-0.667-0.885c-0.061-0.059-0.184-0.12-0.305-0.179
		c-0.607-0.236-1.516-0.059-2.123-0.059h-2.669h-3.396v-2.893l-5.762,7.499l5.762,7.205v-2.775h6.43c0.787,0,1.575,0,2.304-0.178
		C49.625,50.655,50.292,50.243,50.717,49.653L50.717,49.653z"/>
	<path fill="#02B151" d="M42.044,28.983c1.76,2.954,3.517,5.905,5.276,8.858c1.758,3.012,3.82,6.141,4.731,9.507
		c0,0.061,0.06,0.119,0.121,0.119c0.909-0.709,1.455-1.89,2.063-2.895c1.152-1.771,2.488-3.897,2.79-6.024
		c0.242-1.534-0.789-2.834-1.457-4.132c-0.787-1.418-1.517-2.834-2.303-4.193c-1.032-1.949-2.063-3.838-3.155-5.787
		c-2.366,1.358-4.791,2.717-7.157,4.015c-0.303,0.237-0.607,0.355-0.909,0.533V28.983z"/>
	<path fill="#02B151" d="M8.683,39.791c0.667,0.236,1.395,0.354,2.063,0.415c0.97,0.116,1.941,0.233,2.851,0.294
		c0.364,0,0.788,0,1.152-0.119c0.122-0.059,0.182-0.117,0.303-0.175c0.486-0.415,0.789-1.243,1.092-1.773
		c0.425-0.769,0.85-1.477,1.334-2.244c0.545-0.946,1.152-1.948,1.698-2.895l2.549,1.478l-3.761-8.503l-9.281,1.24l2.426,1.418
		c0,0-2.972,4.961-3.214,5.373c-0.364,0.65-0.789,1.3-0.971,2.009c-0.182,0.707-0.182,1.593,0.182,2.241
		C7.41,39.142,8.016,39.554,8.683,39.791L8.683,39.791z"/>
	<path fill="#02B151" d="M19.237,41.502c-3.579,0-7.339,0.12-10.796-0.768H8.259c0.182,1.125,0.97,2.186,1.517,3.19
		c1.031,1.89,2.244,4.015,3.941,5.373c1.274,0.945,2.912,0.768,4.428,0.826c1.638,0.062,3.275,0.119,4.913,0.178
		c2.245,0.059,4.489,0.179,6.733,0.237v-8.031v-1.006C26.273,41.502,22.754,41.502,19.237,41.502L19.237,41.502z"/>
	<path fill="#02B151" d="M33.673,11.799c-0.182,0.295-0.424,0.649-0.485,1.063v0.354c0.121,0.649,0.729,1.299,1.031,1.772
		c0.426,0.768,0.909,1.476,1.335,2.244c0.546,0.945,1.152,1.89,1.699,2.894l-2.608,1.417l9.583,1.063l3.517-8.444l-2.486,1.357
		c0,0-2.912-4.96-3.214-5.433c-0.365-0.649-0.789-1.299-1.336-1.83c-0.546-0.532-1.273-0.945-2-0.945
		c-0.729,0-1.396,0.294-1.942,0.708c-0.547,0.414-0.971,1.003-1.455,1.536C34.824,10.263,34.219,11.031,33.673,11.799L33.673,11.799
		z"/>
	<path fill="#02B151" d="M24.757,24.909c1.758-2.953,3.518-5.905,5.276-8.858c1.82-3.012,3.518-6.26,6.066-8.74
		c0.06-0.06,0.06-0.119,0.06-0.177c-1.091-0.415-2.426-0.237-3.578-0.296c-2.184-0.119-4.731-0.177-6.793,0.649
		c-1.516,0.59-2.123,2.067-2.972,3.307c-0.849,1.358-1.758,2.717-2.608,4.016c-1.212,1.831-2.365,3.661-3.579,5.551
		c2.366,1.359,4.792,2.658,7.158,4.016C24.15,24.555,24.453,24.732,24.757,24.909L24.757,24.909z"/>
</g>
</svg>
