<?xml version="1.0" encoding="utf-8"?>
<!-- Generator: Adobe Illustrator 16.0.0, SVG Export Plug-In . SVG Version: 6.00 Build 0)  -->
<!DOCTYPE svg PUBLIC "-//W3C//DTD SVG 1.1//EN" "http://www.w3.org/Graphics/SVG/1.1/DTD/svg11.dtd">
<svg version="1.1" id="Layer_1" xmlns="http://www.w3.org/2000/svg" xmlns:xlink="http://www.w3.org/1999/xlink" x="0px" y="0px"
	 width="64px" height="64px" viewBox="0 0 64 64" enable-background="new 0 0 64 64" xml:space="preserve">
<g>
	<path fill="#ffbc04" d="M34.968,21.067c1.242,0.292,2.428,0.777,3.516,1.438l2.284-1.001l2.692,2.656l-1.013,2.253
		c0.669,1.072,1.161,2.243,1.456,3.468l2.331,0.884v3.756l-2.331,0.885c-0.296,1.226-0.787,2.396-1.457,3.468l1.014,2.254
		l-2.692,2.655l-2.283-0.999c-1.088,0.659-2.274,1.146-3.517,1.438l-0.898,2.299h-3.807l-0.897-2.3
		c-1.242-0.292-2.429-0.777-3.516-1.438l-2.284,1l-2.693-2.655l1.015-2.252c-0.67-1.073-1.162-2.244-1.458-3.47l-2.331-0.885v-3.755
		l2.331-0.885c0.296-1.225,0.789-2.396,1.458-3.468l-1.015-2.253l2.692-2.656l2.285,1.001c1.087-0.661,2.273-1.146,3.516-1.438
		l0.896-2.3h3.808L34.968,21.067z M53.36,34.207c0.382,0.255,0.482,0.768,0.225,1.145c-0.259,0.376-0.78,0.475-1.161,0.219
		l-3.354-2.245c-0.382-0.255-0.483-0.767-0.224-1.144c0.064-0.094,0.146-0.172,0.239-0.229l3.338-2.235
		c0.381-0.255,0.902-0.157,1.161,0.219c0.258,0.376,0.157,0.889-0.224,1.144l-1.1,0.736h5.066c0.463,0,0.839,0.37,0.839,0.828
		c0,0.457-0.376,0.827-0.839,0.827h-5.066L53.36,34.207z M46.035,48.531l-0.249-1.284l3.577,3.531c0.328,0.322,0.86,0.322,1.188,0
		c0.327-0.324,0.327-0.847,0-1.17l-3.579-3.531l1.303,0.246c0.454,0.085,0.892-0.208,0.979-0.656
		c0.086-0.447-0.212-0.88-0.665-0.966l-3.963-0.748c-0.106-0.022-0.22-0.024-0.333-0.004c-0.455,0.086-0.752,0.519-0.665,0.966
		l0.762,3.927c0.086,0.448,0.526,0.741,0.979,0.655C45.824,49.412,46.121,48.98,46.035,48.531L46.035,48.531z M30.581,53.55
		c-0.259,0.376-0.778,0.476-1.159,0.219c-0.382-0.255-0.482-0.768-0.223-1.144l2.276-3.309c0.259-0.376,0.778-0.475,1.159-0.219
		c0.096,0.063,0.174,0.145,0.233,0.233l2.266,3.295c0.259,0.377,0.158,0.889-0.223,1.143c-0.381,0.256-0.901,0.157-1.159-0.219
		l-0.746-1.085v4.997c0,0.457-0.376,0.827-0.838,0.827c-0.464,0-0.84-0.37-0.84-0.827v-4.997L30.581,53.55z M16.059,46.323
		l1.303-0.246l-3.58,3.531c-0.327,0.323-0.327,0.846,0,1.17c0.328,0.323,0.858,0.323,1.186,0l3.58-3.53l-0.25,1.283
		c-0.086,0.449,0.211,0.881,0.665,0.966c0.454,0.086,0.894-0.207,0.979-0.655l0.759-3.908c0.023-0.105,0.025-0.216,0.004-0.329
		c-0.087-0.446-0.526-0.741-0.98-0.655l-3.98,0.752c-0.454,0.087-0.752,0.519-0.666,0.966
		C15.166,46.115,15.604,46.408,16.059,46.323L16.059,46.323z M10.971,31.082c-0.382-0.255-0.482-0.768-0.222-1.145
		c0.258-0.376,0.778-0.475,1.159-0.219l3.355,2.245c0.381,0.254,0.481,0.767,0.222,1.144c-0.065,0.095-0.146,0.171-0.238,0.229
		l-3.34,2.234c-0.382,0.256-0.901,0.156-1.16-0.219c-0.258-0.377-0.159-0.89,0.223-1.144l1.099-0.736H7.005
		c-0.463,0-0.838-0.371-0.838-0.827c0-0.457,0.375-0.827,0.838-0.827h5.066L10.971,31.082z M18.297,16.757l0.25,1.285l-3.58-3.53
		c-0.327-0.323-0.858-0.323-1.186,0c-0.327,0.323-0.327,0.847,0,1.17l3.58,3.53l-1.303-0.247c-0.454-0.085-0.893,0.208-0.979,0.656
		c-0.087,0.447,0.211,0.88,0.665,0.966l3.962,0.749c0.107,0.022,0.22,0.024,0.333,0.003c0.454-0.085,0.752-0.518,0.666-0.966
		l-0.764-3.927c-0.086-0.448-0.525-0.742-0.979-0.656C18.508,15.876,18.211,16.309,18.297,16.757L18.297,16.757z M33.751,11.739
		c0.259-0.376,0.779-0.475,1.159-0.22c0.381,0.255,0.482,0.768,0.223,1.144l-2.276,3.309c-0.259,0.376-0.778,0.475-1.159,0.219
		c-0.096-0.063-0.174-0.144-0.232-0.234l-2.267-3.294c-0.259-0.376-0.159-0.889,0.223-1.144c0.381-0.255,0.9-0.157,1.159,0.219
		l0.746,1.084V7.828C31.326,7.371,31.702,7,32.166,7s0.839,0.371,0.839,0.828v4.997L33.751,11.739z M48.274,18.965l-1.303,0.246
		l3.578-3.53c0.328-0.323,0.328-0.847,0-1.17c-0.326-0.323-0.858-0.323-1.188,0l-3.576,3.53l0.248-1.285
		c0.087-0.447-0.21-0.88-0.665-0.966c-0.453-0.085-0.894,0.208-0.979,0.656l-0.759,3.909c-0.022,0.105-0.024,0.216-0.003,0.328
		c0.088,0.448,0.525,0.742,0.979,0.656l3.981-0.752c0.454-0.085,0.752-0.519,0.666-0.966C49.165,19.173,48.729,18.88,48.274,18.965
		L48.274,18.965z M32.166,25.521c-3.989,0-7.221,3.189-7.221,7.123c0,3.935,3.232,7.123,7.221,7.123
		c3.988,0,7.221-3.188,7.221-7.123C39.387,28.71,36.153,25.521,32.166,25.521z"/>
</g>
</svg>
