<?xml version="1.0" encoding="utf-8"?>
<!-- Generator: Adobe Illustrator 16.0.0, SVG Export Plug-In . SVG Version: 6.00 Build 0)  -->
<!DOCTYPE svg PUBLIC "-//W3C//DTD SVG 1.1//EN" "http://www.w3.org/Graphics/SVG/1.1/DTD/svg11.dtd">
<svg version="1.1" id="Layer_1" xmlns="http://www.w3.org/2000/svg" xmlns:xlink="http://www.w3.org/1999/xlink" x="0px" y="0px"
	 width="64px" height="64px" viewBox="0 0 64 64" enable-background="new 0 0 64 64" xml:space="preserve">
<g>
	<path fill="#8F00FF" d="M57.834,32.611c0-13.953-11.402-25.303-25.416-25.303c-4.991,0-9.181,1.668-10.588,2.309
		C13.077,13.599,7,22.419,7,32.611c0,11.372,7.578,21.017,17.971,24.19c2.251,0.727,4.357,1.063,6.845,1.111
		c0.342,0.006,0.652,0.012,0.94,0.012c1.156,0,2.512-0.154,3.451-0.299c12.266-1.873,21.625-12.307,21.625-25.015H57.834z
		 M9.2,38.569c0-0.002-0.001-0.004-0.001-0.006c-0.791-2.814-0.734-6.431-0.702-7.467C9.286,18.64,19.709,8.744,32.418,8.744
		c0.626,0,1.246,0.031,1.861,0.079c3.455,1.085,6.883,3.115,9.438,5.628c3.168,3.134,5.168,6.88,5.938,11.136
		c0.182,0.99,0.207,1.255,0.207,3.135c0.008,1.764-0.012,2.129-0.168,3.001c-0.73,4.03-2.543,7.499-5.387,10.306
		C41.197,45.095,37,47.177,32.48,47.89c-0.554,0.092-0.881,0.18-0.97,0.254c-0.146,0.117-0.185,0.24-0.185,2.488
		c0,0.846-0.008,1.541-0.015,1.914c-0.416-0.193-1.209-0.592-1.781-0.908c-3.68-2.057-6.995-5.215-8.651-8.242
		c-0.411-0.748-0.766-1.721-0.766-1.881c0.005-0.232,0.995-2.141,1.965-3.533c1.137-1.621,2.907-3.551,4.209-4.59
		c0.835-0.667,2.079-1.471,2.836-1.832c0.592-0.292,1.726-0.697,2.211-0.792l-0.008,4.462c0,0.117,0.047,0.221,0.133,0.289
		c0.173,0.139,0.47,0.139,1.132-0.002c1.229-0.254,2.214-0.691,3.632-1.619c2.213-1.462,4.582-3.878,6.496-6.63
		c0.799-1.144,1.961-3.055,1.961-3.447c0-0.575-0.857-2.314-1.592-3.427c-1.494-2.261-3.928-4.653-6.514-6.401
		c-1.354-0.914-3.98-2.369-4.542-2.369c-0.548,0-0.55,0.312-0.567,2.736l-0.021,2.125l-0.729,0.111
		c-1.96,0.289-4.256,0.996-6.144,1.892c-5.001,2.385-8.847,6.608-10.549,11.585c-0.335,0.984-0.696,2.435-0.857,3.45
		c-0.172,1.064-0.235,3.701-0.119,4.863c0.507,4.988,2.758,9.543,6.512,13.18c1.179,1.15,1.961,1.785,3.352,2.721
		c0.342,0.227,0.691,0.441,1.044,0.652C16.728,52.214,11.153,46.11,9.2,38.569L9.2,38.569z"/>
</g>
</svg>
