<?xml version="1.0" encoding="utf-8"?>
<!-- Generator: Adobe Illustrator 16.0.0, SVG Export Plug-In . SVG Version: 6.00 Build 0)  -->
<!DOCTYPE svg PUBLIC "-//W3C//DTD SVG 1.1//EN" "http://www.w3.org/Graphics/SVG/1.1/DTD/svg11.dtd">
<svg version="1.1" id="Layer_1" xmlns="http://www.w3.org/2000/svg" xmlns:xlink="http://www.w3.org/1999/xlink" x="0px" y="0px"
	 width="64px" height="64px" viewBox="0 0 64 64" enable-background="new 0 0 64 64" xml:space="preserve">
<g>
	<path fill="#FFBC04" d="M59.615,48.095H39.107c0,1.354-1.068,2.448-2.378,2.448h-8.958c-1.31,0-2.37-1.095-2.37-2.448H4.884
		c-1.27,0-2.37,1.064-2.37,2.447c0,1.363,1.059,2.458,2.37,2.458h54.731c1.311,0,2.369-1.095,2.369-2.458
		C61.984,49.188,60.926,48.095,59.615,48.095L59.615,48.095z M49.198,51.348c-0.429,0-0.771-0.354-0.771-0.806
		c0-0.441,0.343-0.797,0.771-0.797c0.437,0,0.781,0.355,0.781,0.797C49.979,50.993,49.635,51.348,49.198,51.348z M52.131,51.348
		c-0.428,0-0.771-0.354-0.771-0.806c0-0.441,0.343-0.797,0.771-0.797c0.437,0,0.78,0.355,0.78,0.797
		C52.911,50.993,52.567,51.348,52.131,51.348z M55.063,51.348c-0.427,0-0.77-0.354-0.77-0.806c0-0.441,0.343-0.797,0.77-0.797
		c0.438,0,0.781,0.355,0.781,0.797C55.844,50.993,55.501,51.348,55.063,51.348z"/>
	<path fill="#FFBC04" d="M55.539,10.25H8.968c-1.543,0-2.788,1.287-2.788,2.88v33.043c0,0.528,0.409,0.96,0.929,0.96h50.29
		c0.512,0,0.93-0.433,0.93-0.96V13.13c0-1.594-1.255-2.88-2.787-2.88H55.539z M54.293,13.964v29.457H10.214V13.964H54.293z"/>
	<path fill="#FFBC04" d="M41.313,28.953v-0.571c0-0.855,0.561-1.598,1.357-1.826l-0.773-2.462c-0.79,0.309-1.688,0.032-2.171-0.686
		c-0.086-0.146-0.189-0.286-0.292-0.424c-0.253-0.342-0.379-0.742-0.379-1.15c0-0.416,0.143-0.848,0.411-1.19l-2.037-1.532
		l-0.015,0.041c-0.45,0.701-1.31,1.019-2.085,0.734c-0.173-0.073-0.347-0.123-0.528-0.18c-0.798-0.244-1.333-1.003-1.293-1.851
		v-0.066H30.99c0.04,0.873-0.489,1.672-1.293,1.917c-0.167,0.048-0.324,0.098-0.489,0.163c-0.198,0.074-0.403,0.114-0.601,0.114
		c-0.607,0-1.191-0.326-1.538-0.873l-2.037,1.533c0.529,0.677,0.552,1.646,0.032,2.34c-0.095,0.138-0.197,0.278-0.292,0.424
		c-0.355,0.522-0.916,0.808-1.508,0.808c-0.22,0-0.449-0.041-0.655-0.122l-0.781,2.462c0.82,0.236,1.382,1.002,1.365,1.875
		c-0.008,0.09-0.008,0.171-0.008,0.261c0,0.09,0,0.18,0.008,0.261v0.049c0,0.855-0.568,1.606-1.365,1.834l0.781,2.462
		c0.782-0.318,1.69-0.041,2.163,0.676c0.095,0.156,0.197,0.295,0.292,0.433c0.261,0.335,0.379,0.734,0.379,1.143
		c0,0.424-0.143,0.848-0.411,1.197l2.037,1.524l0.015-0.023c0.45-0.71,1.318-1.035,2.092-0.742c0.174,0.064,0.348,0.114,0.521,0.171
		c0.798,0.245,1.341,1.003,1.302,1.858v0.058h2.511v-0.058c-0.04-0.855,0.495-1.613,1.293-1.851
		c0.182-0.058,0.355-0.114,0.528-0.179c0.774-0.295,1.635,0.032,2.085,0.742l0.015,0.023l2.037-1.524
		c-0.528-0.676-0.552-1.647-0.032-2.34c0.103-0.138,0.206-0.276,0.3-0.433c0.348-0.513,0.907-0.807,1.507-0.807
		c0.213,0,0.442,0.041,0.655,0.131l0.774-2.462C41.858,30.601,41.29,29.826,41.313,28.953L41.313,28.953z M32.246,33.828
		c-2.744,0-4.971-2.294-4.971-5.136c0-2.841,2.228-5.136,4.971-5.136c2.75,0,4.979,2.295,4.979,5.136
		C37.225,31.533,34.996,33.828,32.246,33.828z"/>
</g>
</svg>
