<?xml version="1.0" encoding="utf-8"?>
<!-- Generator: Adobe Illustrator 16.0.0, SVG Export Plug-In . SVG Version: 6.00 Build 0)  -->
<!DOCTYPE svg PUBLIC "-//W3C//DTD SVG 1.1//EN" "http://www.w3.org/Graphics/SVG/1.1/DTD/svg11.dtd">
<svg version="1.1" id="Layer_1" xmlns="http://www.w3.org/2000/svg" xmlns:xlink="http://www.w3.org/1999/xlink" x="0px" y="0px"
	 width="64px" height="64px" viewBox="0 0 64 64" enable-background="new 0 0 64 64" xml:space="preserve">
<g>
	<path fill="#109C5C" d="M49.237,44.723l2.09,1.194l0.061-0.119c2.927-4.062,4.479-8.9,4.479-13.978
		c0.06-6.511-2.39-12.604-6.929-17.144c-4.54-4.6-10.573-7.108-17.084-7.108c-13.261,0-24.133,10.871-24.133,24.132
		c0,13.26,10.813,24.132,24.133,24.132c2.33,0,4.539-0.299,6.631-0.956l0.119-0.06l-0.479-2.39l-0.059,0.119
		c-2.031,0.598-4.122,0.957-6.213,0.957c-11.946,0-21.683-9.737-21.683-21.684c0-11.947,9.736-21.684,21.683-21.684
		c11.947,0,21.684,9.677,21.684,21.624c0,4.599-1.434,9.019-4.182,12.843L49.237,44.723z"/>
	<path fill="#109C5C" d="M52.283,11.63C46.848,6.135,39.56,3.148,31.854,3.148c-2.688,0-5.257,0.358-7.705,1.075l-0.12,0.06
		l0.419,2.21l0.179-0.06c2.39-0.657,4.839-1.016,7.228-1.016c14.635,0,26.582,11.887,26.582,26.582
		c0,14.694-11.947,26.522-26.582,26.522C17.22,58.461,5.333,46.515,5.333,31.88c0-5.555,1.673-10.812,4.898-15.352l0.119-0.12
		L8.38,15.274l-0.06,0.12c-3.405,4.838-5.257,10.573-5.257,16.546c0,15.83,12.902,28.732,28.732,28.732
		c15.889,0,28.791-12.902,28.791-28.732C60.646,24.293,57.72,17.066,52.283,11.63L52.283,11.63z"/>
	<path fill="#109C5C" d="M29.524,41.02c-0.059,0.179-0.059,0.418-0.059,0.598c0,1.313,1.074,2.389,2.389,2.389
		s2.389-1.075,2.389-2.389c0-0.239-0.059-0.419-0.059-0.598H29.524z"/>
	<path fill="#109C5C" d="M41.591,38.331c0-0.179-0.119-0.358-0.238-0.537c0,0-2.092-2.271-2.092-8.184
		c0-4.6-3.105-6.511-5.614-7.108v-1.374c0-0.956-0.776-1.732-1.732-1.732s-1.731,0.777-1.731,1.732v1.374
		c-2.568,0.598-5.615,2.509-5.615,7.108c0,5.913-2.092,8.124-2.092,8.184c-0.119,0.119-0.238,0.358-0.238,0.537v1.613l19.354-0.001
		V38.331z"/>
</g>
</svg>
