<?xml version="1.0" encoding="utf-8"?>
<!-- Generator: Adobe Illustrator 16.0.0, SVG Export Plug-In . SVG Version: 6.00 Build 0)  -->
<!DOCTYPE svg PUBLIC "-//W3C//DTD SVG 1.1//EN" "http://www.w3.org/Graphics/SVG/1.1/DTD/svg11.dtd">
<svg version="1.1" id="Layer_1" xmlns="http://www.w3.org/2000/svg" xmlns:xlink="http://www.w3.org/1999/xlink" x="0px" y="0px"
	 width="64px" height="64px" viewBox="0 0 64 64" enable-background="new 0 0 64 64" xml:space="preserve">
<g transform="translate(0.000000,1080.000000) scale(0.100000,-0.100000)">
	<path fill="#2064D4" d="M309.438,10761.488c-12.466-1.089-27.041-4.297-37.876-8.423c-15.894-5.933-32.461-16.05-43.364-26.401
		c-3.799-3.574-4.546-4.668-4.922-6.846c-0.933-5.752,4.175-10.845,10.278-10.298c3.242,0.303,3.682,0.547,10.967,6.729
		c10.898,9.199,24.922,16.895,39.185,21.499c40.938,13.262,86.724,3.633,117.749-24.717c4.307-3.931,6.914-5.449,9.6-5.449
		c6.348,0,11.211,5.942,9.463,11.567c-1.309,4.185-16.816,17.144-28.662,23.926c-15.439,8.906-33.33,14.961-51.152,17.441
		C332.373,10761.732,317.227,10762.157,309.438,10761.488z"/>
	<path fill="#2064D4" d="M303.896,10723.334c-8.223-1.46-17.261-4.243-24.8-7.637c-10.649-4.839-25.605-15.566-27.656-19.8
		c-2.251-4.604-0.498-9.692,4.111-11.875c4.917-2.3,7.349-1.694,13.765,3.691c11.089,9.331,24.36,15.449,38.623,17.813
		c8.413,1.392,23.926,0.908,31.533-0.913c14.072-3.447,23.604-8.657,38.125-20.708c6.045-5.029,15.449-0.85,15.449,6.899
		c0,3.452-1.377,5.391-7.109,10.234c-12.588,10.728-26.289,17.51-43.359,21.504
		C333.359,10724.662,313.735,10725.092,303.896,10723.334z"/>
	<path fill="#2064D4" d="M309.937,10686.688c-10.781-2.183-20.498-6.841-27.661-13.267c-3.428-3.027-4.492-5.083-4.492-8.359
		c0-4.116,2.559-7.148,7.046-8.359c3.364-0.967,6.294,0.063,11.216,3.872c15.205,11.997,36.064,11.821,50.654-0.356
		c4.658-3.872,7.227-4.971,10.449-4.424c5.547,0.85,9.287,6.118,7.861,11.147c-1.621,5.996-14.951,14.839-27.852,18.594
		C330.313,10687.538,316.851,10688.08,309.937,10686.688z"/>
	<path fill="#2064D4" d="M314.731,10649.56c-5.732-2.002-10.151-6.426-12.085-12.119c-1.06-3.091-0.435-10.234,1.182-13.267
		c7.104-13.442,27.227-13.564,34.277-0.176c6.279,11.992-1.934,25.679-15.957,26.47
		C319.16,10650.585,317.036,10650.341,314.731,10649.56z"/>
	<path fill="#2064D4" d="M295.107,10592.196c-59.81-7.021-113.325-38.94-146.533-87.515c-18.564-27.08-29.341-56.206-33.452-90.249
		c-0.996-8.174-0.996-32.402,0-40.586c4.795-39.863,19.316-74.199,44.111-104.482c6.973-8.545,22.861-23.984,31.646-30.762
		c30.527-23.682,65.664-37.92,104.98-42.578c10.21-1.221,34.707-1.396,44.229-0.313c41.055,4.668,76.27,18.721,107.48,42.891
		c8.838,6.777,25.283,22.832,32.061,31.24c21.934,27.197,35.957,57.734,41.689,90.674c2.178,12.471,2.744,19.443,2.744,33.623
		c0,23.076-3.174,42.344-10.4,63.545c-23.301,67.646-82.861,118.403-155.078,132.09c-5.967,1.152-21.738,3.33-23.906,3.33
		c-0.137,0-0.254-43.789-0.313-97.324c-0.186-89.521-0.244-97.52-1.26-99.219c-1.68-3.076-3.545-3.633-11.772-3.633
		c-6.782,0-7.412,0.127-8.843,1.387c-0.874,0.801-1.87,2.617-2.241,4.063c-0.498,1.885-0.684,30.957-0.684,98.667v96.06
		l-3.867-0.059C303.521,10592.982,298.784,10592.621,295.107,10592.196z"/>
</g>
</svg>
