<?xml version="1.0" encoding="utf-8"?>
<!-- Generator: Adobe Illustrator 16.0.0, SVG Export Plug-In . SVG Version: 6.00 Build 0)  -->
<!DOCTYPE svg PUBLIC "-//W3C//DTD SVG 1.1//EN" "http://www.w3.org/Graphics/SVG/1.1/DTD/svg11.dtd">
<svg version="1.1" id="Layer_1" xmlns="http://www.w3.org/2000/svg" xmlns:xlink="http://www.w3.org/1999/xlink" x="0px" y="0px"
	 width="64px" height="64px" viewBox="0 0 64 64" enable-background="new 0 0 64 64" xml:space="preserve">
<g>
	<g>
		<path fill="#9834E4" d="M47.264,22.188C47.263,13.685,40.369,6.79,31.867,6.79S16.47,13.683,16.47,22.188
			c0,8.503,6.894,15.396,15.397,15.396C40.369,37.584,47.264,30.689,47.264,22.188z M23.947,29.05V15.324
			c0-0.582,0.475-1.056,1.057-1.056v-0.001h4.212v5.312c0,0.582,0.476,1.056,1.056,1.056h3.191c0.582,0,1.057-0.474,1.057-1.056
			v-5.312h4.212c0.581,0,1.056,0.474,1.056,1.056v13.728c0,0.582-0.475,1.057-1.056,1.057l-13.728-0.001
			C24.421,30.106,23.947,29.632,23.947,29.05z"/>
		<path fill="#9834E4" d="M30.907,55.706c0.248,0.29,0.579,0.439,0.96,0.439c0.38,0,0.711-0.151,0.959-0.439
			c7.843-9.104,20.653-22.346,20.653-33.519c0-11.937-9.677-21.613-21.612-21.613c-11.935,0-21.61,9.676-21.61,21.613
			C10.256,33.36,23.065,46.601,30.909,55.706H30.907z M14.442,22.187c0-9.623,7.801-17.424,17.425-17.424
			c9.623,0,17.423,7.801,17.425,17.424c0,9.622-7.802,17.423-17.425,17.423C22.244,39.61,14.442,31.809,14.442,22.187z"/>
		<path fill="#9834E4" d="M39.941,50.656c-0.872,1.007-1.729,1.98-2.553,2.916c4.328,0.582,7.317,1.826,7.317,3.265
			c0,1.995-5.747,3.612-12.839,3.612c-7.092,0-12.839-1.616-12.839-3.612c0-1.439,2.99-2.683,7.318-3.265
			c-0.824-0.936-1.681-1.909-2.551-2.916c-8.847,0.931-15.153,3.347-15.153,6.181c0,3.64,10.4,6.589,23.226,6.589
			c12.828,0,23.226-2.949,23.226-6.589C55.093,54.003,48.786,51.588,39.941,50.656z"/>
		<polygon fill="#9834E4" points="39.94,50.656 39.941,50.656 39.941,50.656 		"/>
	</g>
</g>
</svg>
