<?xml version="1.0" encoding="utf-8"?>
<!-- Generator: Adobe Illustrator 16.0.0, SVG Export Plug-In . SVG Version: 6.00 Build 0)  -->
<!DOCTYPE svg PUBLIC "-//W3C//DTD SVG 1.1//EN" "http://www.w3.org/Graphics/SVG/1.1/DTD/svg11.dtd">
<svg version="1.1" id="Layer_1" xmlns="http://www.w3.org/2000/svg" xmlns:xlink="http://www.w3.org/1999/xlink" x="0px" y="0px"
	 width="64px" height="64px" viewBox="0 0 64 64" enable-background="new 0 0 64 64" xml:space="preserve">
<g>
	<path fill="#109C5C" d="M10.729,15.137c0,2.2-1.692,3.984-3.778,3.984c-2.087,0-3.777-1.783-3.777-3.984
		c0-2.203,1.689-3.99,3.777-3.99C9.037,11.147,10.729,12.934,10.729,15.137"/>
	<path fill="#109C5C" d="M35.604,11.147c0,2.205-1.691,3.99-3.778,3.99c-2.085,0-3.778-1.785-3.778-3.99
		c0-2.201,1.693-3.986,3.778-3.986C33.912,7.162,35.604,8.947,35.604,11.147"/>
	<path fill="#109C5C" d="M4.082,23.974c-0.681-4.589,5.591-5.984,6.6-1.291l1.705,8.991l6.375,0.011
		c1.862,0,2.828,1.567,2.828,3.027v12.22c0,2.967-4.002,2.952-4.002-0.051v-9.512H9.449c-1.898,0-3.088-1.378-3.388-2.945
		L4.082,23.974z"/>
	<path fill="#109C5C" d="M14.603,38.166c2.113,0,2.103,3.306,0.028,3.306H8.785c-2.84,0-5.672-2.254-6.415-5.735l-1.821-9.344
		C0.18,24.273,3.072,23.564,3.5,25.736l1.728,8.938c0.481,2.281,2.082,3.492,4.017,3.492H14.603z"/>
	<path fill="#109C5C" d="M60.477,15.137c0,2.2-1.691,3.984-3.777,3.984s-3.775-1.783-3.775-3.984c0-2.203,1.689-3.99,3.775-3.99
		S60.477,12.934,60.477,15.137"/>
	<path fill="#109C5C" d="M59.57,23.974c0.679-4.589-5.592-5.984-6.602-1.291l-1.705,8.991l-6.375,0.011
		c-1.859,0-2.827,1.567-2.827,3.027v12.22c0,2.967,4.003,2.952,4.003-0.051v-9.512h8.139c1.897,0,3.09-1.378,3.388-2.945
		L59.57,23.974z"/>
	<path fill="#109C5C" d="M49.049,38.166c-2.113,0-2.104,3.306-0.027,3.306h5.844c2.84,0,5.676-2.254,6.416-5.735l1.82-9.344
		c0.371-2.119-2.526-2.828-2.949-0.657l-1.727,8.938c-0.482,2.281-2.084,3.492-4.021,3.492H49.049z"/>
	<path fill="#109C5C" d="M36.277,16.566h-8.531c-0.003,0-0.007,0-0.009,0c-2.68,0.007-4.361,2.317-4.361,5.205v3.394h4.67v-3.549
		h7.509v3.549h5.154v-3.323C40.711,19.181,39.232,16.566,36.277,16.566L36.277,16.566z"/>
	<path fill="#109C5C" d="M46.869,26.034H16.781c-0.864,0-1.563,0.733-1.563,1.647c0,0.909,0.699,1.647,1.563,1.647H29.68v16.522
		h-4.628c-0.863,0-1.563,0.739-1.563,1.647s0.7,1.646,1.563,1.646H38.6c0.863,0,1.561-0.738,1.561-1.646s-0.697-1.647-1.561-1.647
		h-4.631v-0.862V29.583v-0.254h12.9c0.863,0,1.564-0.738,1.564-1.647C48.434,26.773,47.732,26.034,46.869,26.034L46.869,26.034z"/>
</g>
</svg>
