<?xml version="1.0" encoding="utf-8"?>
<!-- Generator: Adobe Illustrator 16.0.0, SVG Export Plug-In . SVG Version: 6.00 Build 0)  -->
<!DOCTYPE svg PUBLIC "-//W3C//DTD SVG 1.1//EN" "http://www.w3.org/Graphics/SVG/1.1/DTD/svg11.dtd">
<svg version="1.1" id="Layer_1" xmlns="http://www.w3.org/2000/svg" xmlns:xlink="http://www.w3.org/1999/xlink" x="0px" y="0px"
	 width="64px" height="64px" viewBox="0 0 64 64" enable-background="new 0 0 64 64" xml:space="preserve">
<g>
	<path fill="#ffbc04" d="M42.506,5.006H21.398c-3.629,0-6.57,2.941-6.57,6.571v38.827c0,3.629,2.941,6.57,6.57,6.57h21.107
		c3.629,0,6.571-2.941,6.571-6.57V11.577C49.076,7.948,46.135,5.006,42.506,5.006z M26.546,50.606h-4.042
		c-0.33,0-0.598-0.268-0.598-0.598v-4.819c0-0.33,0.268-0.598,0.598-0.598h4.042V50.606z M35.567,50.606h-7.229v-6.015h7.229V50.606
		z M41.998,50.009c0,0.33-0.268,0.598-0.598,0.598h-4.041v-6.015H41.4c0.33,0,0.598,0.268,0.598,0.598V50.009z M44.098,37.902
		c0,0.33-0.268,0.598-0.598,0.598l-23.096-0.001c-0.33,0-0.598-0.268-0.598-0.598V11.786c0-0.33,0.268-0.597,0.598-0.597H43.5
		c0.33,0,0.598,0.268,0.598,0.597V37.902z M31.702,14.786c-0.249,0.387-6.11,9.512-6.11,13.257c0,3.858,2.854,6.997,6.361,6.997
		s6.361-3.139,6.361-6.997c0-3.745-5.861-12.871-6.111-13.257C32.094,14.616,31.812,14.616,31.702,14.786L31.702,14.786z
		 M34.133,28.043c0-0.495,0.401-0.896,0.896-0.896c0.494,0,0.895,0.401,0.895,0.896c0,2.541-1.781,4.607-3.971,4.607
		c-0.496,0-0.896-0.4-0.896-0.896s0.4-0.896,0.896-0.896C33.154,30.858,34.133,29.595,34.133,28.043L34.133,28.043z"/>
</g>
</svg>
