<?xml version="1.0" encoding="utf-8"?>
<!-- Generator: Adobe Illustrator 16.0.0, SVG Export Plug-In . SVG Version: 6.00 Build 0)  -->
<!DOCTYPE svg PUBLIC "-//W3C//DTD SVG 1.1//EN" "http://www.w3.org/Graphics/SVG/1.1/DTD/svg11.dtd">
<svg version="1.1" id="Layer_1" xmlns="http://www.w3.org/2000/svg" xmlns:xlink="http://www.w3.org/1999/xlink" x="0px" y="0px"
	 width="64px" height="64px" viewBox="0 0 64 64" enable-background="new 0 0 64 64" xml:space="preserve">
<path fill="#326ED1" d="M44.034,40.65c-2.354,0.002-4.596,0.869-6.164,2.387l-12.517-6.481c0.544-0.968,0.83-2.029,0.834-3.105
	c-0.003-1.07-0.288-2.126-0.834-3.086l12.517-6.501c1.755,1.666,4.313,2.523,6.907,2.314c2.597-0.208,4.927-1.457,6.298-3.374
	c1.369-1.916,1.619-4.277,0.675-6.377s-2.975-3.694-5.482-4.307c-2.507-0.612-5.202-0.172-7.277,1.19
	c-2.076,1.362-3.291,3.488-3.284,5.741c0,1.07,0.286,2.125,0.832,3.086l-12.517,6.5c-1.511-1.453-3.64-2.313-5.898-2.382
	c-2.258-0.069-4.453,0.658-6.081,2.015C10.417,29.626,9.5,31.496,9.5,33.45c0,1.955,0.917,3.823,2.543,5.181
	c1.627,1.356,3.822,2.084,6.081,2.016c2.258-0.069,4.387-0.931,5.898-2.384l12.517,6.481c-1.039,1.895-1.07,4.086-0.09,6.001
	c0.981,1.917,2.881,3.369,5.201,3.977c2.32,0.606,4.83,0.31,6.878-0.814c2.047-1.121,3.425-2.961,3.776-5.035
	c0.351-2.074-0.36-4.177-1.949-5.76c-1.59-1.583-3.896-2.49-6.32-2.483V40.65z"/>
</svg>
