<?xml version="1.0" encoding="utf-8"?>
<!-- Generator: Adobe Illustrator 16.0.0, SVG Export Plug-In . SVG Version: 6.00 Build 0)  -->
<!DOCTYPE svg PUBLIC "-//W3C//DTD SVG 1.1//EN" "http://www.w3.org/Graphics/SVG/1.1/DTD/svg11.dtd">
<svg version="1.1" id="Layer_1" xmlns="http://www.w3.org/2000/svg" xmlns:xlink="http://www.w3.org/1999/xlink" x="0px" y="0px"
	 width="64px" height="64px" viewBox="0 0 64 64" enable-background="new 0 0 64 64" xml:space="preserve">
<g>
	<path fill="#09821D" d="M54.859,5.733H17.89c-0.537,0-0.973,0.418-0.973,0.934V49.6c0,0.248,0.102,0.486,0.285,0.66
		c0.182,0.176,0.43,0.273,0.688,0.273h36.97c0.259,0,0.506-0.098,0.688-0.273c0.182-0.174,0.285-0.412,0.285-0.66V6.667
		c0-0.248-0.104-0.485-0.285-0.66C55.365,5.832,55.118,5.733,54.859,5.733z M32.483,17.867c0-0.515,0.436-0.933,0.973-0.933h5.837
		c0.259,0,0.505,0.098,0.688,0.273c0.181,0.175,0.285,0.412,0.285,0.66V27.2c0,0.248-0.104,0.485-0.285,0.66
		c-0.184,0.175-0.43,0.273-0.688,0.273h-5.837c-0.537,0-0.973-0.418-0.973-0.933V17.867z M22.754,21.6
		c0-0.515,0.436-0.933,0.973-0.933h5.837c0.258,0,0.506,0.098,0.688,0.273c0.183,0.175,0.285,0.413,0.285,0.66v5.6
		c0,0.248-0.102,0.485-0.285,0.66c-0.182,0.175-0.43,0.273-0.688,0.273h-5.837c-0.538,0-0.973-0.418-0.973-0.933V21.6z
		 M49.022,44.934H23.727c-0.538,0-0.973-0.418-0.973-0.934s0.436-0.934,0.973-0.934h25.295c0.536,0,0.972,0.418,0.972,0.934
		S49.559,44.934,49.022,44.934z M49.022,39.334H23.727c-0.538,0-0.973-0.418-0.973-0.934s0.436-0.934,0.973-0.934h25.295
		c0.536,0,0.972,0.418,0.972,0.934S49.559,39.334,49.022,39.334z M49.022,33.734H23.727c-0.538,0-0.973-0.418-0.973-0.934
		c0-0.516,0.436-0.934,0.973-0.934h25.295c0.536,0,0.972,0.418,0.972,0.934C49.994,33.316,49.559,33.734,49.022,33.734z
		 M49.994,27.2c0,0.248-0.102,0.485-0.283,0.66c-0.184,0.175-0.432,0.273-0.688,0.273h-5.839c-0.535,0-0.971-0.418-0.971-0.933
		V12.267c0-0.516,0.436-0.934,0.971-0.934h5.839c0.257,0,0.505,0.098,0.688,0.273c0.182,0.175,0.283,0.413,0.283,0.66V27.2z"/>
	<path fill="#09821D" d="M14.97,51.467V13.2h-4.864c-0.538,0-0.973,0.418-0.973,0.933v42.933c0,0.248,0.102,0.486,0.285,0.66
		C9.601,57.902,9.848,58,10.106,58h35.997c0.259,0,0.505-0.098,0.688-0.273c0.184-0.174,0.285-0.412,0.285-0.66V52.4H15.943
		C15.406,52.4,14.97,51.982,14.97,51.467z"/>
</g>
</svg>
