<?xml version="1.0" encoding="utf-8"?>
<!-- Generator: Adobe Illustrator 16.0.0, SVG Export Plug-In . SVG Version: 6.00 Build 0)  -->
<!DOCTYPE svg PUBLIC "-//W3C//DTD SVG 1.1//EN" "http://www.w3.org/Graphics/SVG/1.1/DTD/svg11.dtd">
<svg version="1.1" id="Layer_1" xmlns="http://www.w3.org/2000/svg" xmlns:xlink="http://www.w3.org/1999/xlink" x="0px" y="0px"
	 width="64px" height="64px" viewBox="0 0 64 64" enable-background="new 0 0 64 64" xml:space="preserve">
<g>
	<path fill="#4884F4" d="M37.454,31.989c0,2.878-2.445,5.208-5.461,5.208c-3.015,0-5.459-2.33-5.459-5.208
		c0-2.877,2.444-5.209,5.459-5.209C35.009,26.78,37.454,29.112,37.454,31.989"/>
	<path fill="#4884F4" d="M31.993,16.91c-4.192,0-8.213,1.588-11.177,4.417c-2.964,2.828-4.629,6.664-4.629,10.664
		c0,3.999,1.666,7.834,4.629,10.663c2.964,2.828,6.985,4.415,11.177,4.415c4.192,0,8.214-1.587,11.178-4.415
		c2.963-2.829,4.629-6.664,4.629-10.663c-0.006-3.999-1.673-7.831-4.635-10.657C40.201,18.506,36.183,16.915,31.993,16.91z
		 M31.993,41.577L31.993,41.577c-2.665,0-5.221-1.01-7.105-2.809c-1.884-1.798-2.943-4.237-2.943-6.778
		c0-2.542,1.059-4.981,2.943-6.779c1.885-1.798,4.44-2.808,7.105-2.808c2.664,0,5.221,1.01,7.104,2.808
		c1.885,1.797,2.943,4.236,2.943,6.779c-0.005,2.539-1.066,4.976-2.948,6.771C37.209,40.558,34.656,41.571,31.993,41.577
		L31.993,41.577z"/>
	<path fill="#4884F4" d="M11.598,31.989c0.006-5.159,2.157-10.104,5.98-13.753c3.824-3.648,9.008-5.699,14.415-5.705
		c-6.576-0.017-13.029,1.697-18.652,4.952C7.72,20.737,3.147,25.408,0.127,30.981c-0.343,0.632-0.343,1.383,0,2.015
		c3.021,5.573,7.593,10.242,13.215,13.498c5.622,3.257,12.076,4.969,18.652,4.951c-5.407-0.006-10.591-2.059-14.415-5.704
		C13.755,42.094,11.604,37.147,11.598,31.989L11.598,31.989z"/>
	<path fill="#4884F4" d="M63.859,30.982c-3.021-5.573-7.593-10.245-13.215-13.499c-5.623-3.255-12.075-4.969-18.653-4.952
		c7.291,0,14.027,3.711,17.672,9.735c3.646,6.023,3.646,13.445,0,19.468c-3.645,6.022-10.382,9.734-17.672,9.734
		c6.578,0.016,13.03-1.697,18.653-4.952c5.621-3.256,10.193-7.926,13.215-13.499C64.21,32.381,64.21,31.619,63.859,30.982
		L63.859,30.982z"/>
</g>
</svg>
