<?xml version="1.0" encoding="utf-8"?>
<!-- Generator: Adobe Illustrator 16.0.0, SVG Export Plug-In . SVG Version: 6.00 Build 0)  -->
<!DOCTYPE svg PUBLIC "-//W3C//DTD SVG 1.1//EN" "http://www.w3.org/Graphics/SVG/1.1/DTD/svg11.dtd">
<svg version="1.1" id="Layer_1" xmlns="http://www.w3.org/2000/svg" xmlns:xlink="http://www.w3.org/1999/xlink" x="0px" y="0px"
	 width="64px" height="64px" viewBox="0 0 64 64" enable-background="new 0 0 64 64" xml:space="preserve">
<g>
	<path fill="#CF4737" d="M45.91,16.859L31.912,30.827c-0.457,0.454-0.457,1.249,0,1.703c0.454,0.454,1.25,0.454,1.705,0l14-13.969
		l4.214,0.567l7.738-7.722l-5.691-0.795l-0.796-5.678l-7.854,7.836L45.91,16.859z"/>
	<path fill="#CF4737" d="M52.741,21.401c1.707,3.18,2.729,6.814,2.729,10.789c0,12.719-10.357,23.054-23.104,23.054
		c-12.863,0-23.219-10.335-23.219-23.054c0-12.72,10.356-23.054,23.105-23.054c3.87,0,7.512,0.909,10.812,2.612l3.074-3.067
		c-4.099-2.385-8.878-3.748-13.886-3.748c-15.025,0-27.318,12.266-27.318,27.256c0,14.99,12.292,27.256,27.318,27.256
		c15.024,0,27.317-12.267,27.317-27.256c0-4.997-1.366-9.766-3.757-13.855L52.741,21.401z"/>
	<path fill="#CF4737" d="M42.953,16.631c-3.075-2.158-6.716-3.294-10.701-3.294c-10.471,0-18.895,8.404-18.895,18.852
		c0,10.449,8.422,18.853,18.895,18.853c10.47,0,18.895-8.403,18.895-18.853c0-3.974-1.254-7.609-3.301-10.675l-3.073,3.066
		c1.365,2.271,2.161,4.883,2.161,7.609c0,8.064-6.602,14.65-14.682,14.65c-8.082,0-14.683-6.586-14.683-14.65
		c0-8.063,6.602-14.649,14.683-14.649c2.845,0,5.463,0.794,7.625,2.158L42.953,16.631z"/>
	<path fill="#CF4737" d="M32.252,25.943c0.456,0,0.91,0,1.251,0.113l3.301-3.293c-1.366-0.682-2.96-1.022-4.553-1.022
		c-5.805,0-10.471,4.656-10.471,10.447c0,5.791,4.667,10.449,10.471,10.449c5.805,0,10.471-4.658,10.471-10.449
		c0-1.589-0.342-3.18-1.024-4.542l-3.301,3.293c0.115,0.455,0.115,0.795,0.115,1.249c0,3.521-2.846,6.246-6.261,6.246
		c-3.528,0-6.26-2.84-6.26-6.246C25.992,28.668,28.723,25.943,32.252,25.943L32.252,25.943z"/>
</g>
</svg>
