<?xml version="1.0" encoding="utf-8"?>
<!-- Generator: Adobe Illustrator 16.0.0, SVG Export Plug-In . SVG Version: 6.00 Build 0)  -->
<!DOCTYPE svg PUBLIC "-//W3C//DTD SVG 1.1//EN" "http://www.w3.org/Graphics/SVG/1.1/DTD/svg11.dtd">
<svg version="1.1" id="Layer_1" xmlns="http://www.w3.org/2000/svg" xmlns:xlink="http://www.w3.org/1999/xlink" x="0px" y="0px"
	 width="64px" height="64px" fill="#F01A1A" viewBox="0 0 64 64" enable-background="new 0 0 64 64" xml:space="preserve">
<g transform="translate(0.000000,793.000000) scale(0.100000,-0.100000)">
	<path d="M378.105,7860.883c-0.488-0.322-1.211-1.86-1.445-3.394c-1.133-5.322-1.377-5.972-2.188-4.761
		c-0.4,0.649-0.723,2.017-0.723,2.988c0,1.772-0.244,1.855-3.066,1.372c-2.344-0.405-3.398-0.161-4.199,0.728
		c-1.367,1.694-2.744,1.611-2.012-0.083c0.391-1.211,0.313-1.289-0.488-0.4c-1.455,1.367-2.344,1.206-2.344-0.405
		c0-1.294-14.688-3.955-126.548-22.759c-69.565-11.704-126.787-21.631-127.192-21.953c-0.322-0.322-0.728-1.616-0.806-2.905
		c-0.483-5.327-1.372-5.405-6.133-0.645c-5.41,5.488-7.666,5.811-8.799,1.372c-0.483-1.694-1.128-4.199-1.372-5.649
		c-0.322-1.455-0.728-2.583-1.05-2.583s-2.5,2.017-4.922,4.438s-5.005,4.438-5.811,4.438c-1.455,0-2.988-4.033-3.311-9.121
		c-0.161-2.583,1.938-4.761,47.056-48.989c25.986-25.42,56.494-55.444,67.793-66.582l20.576-20.337l-25.02-8.96
		c-13.716-4.922-26.631-9.36-28.647-9.766c-1.938-0.483-3.711-1.211-3.877-1.611c-0.161-0.483-0.645-0.889-1.128-0.889
		c-0.405,0-14.365-5.811-30.908-12.915c-16.626-7.1-31.479-13.389-33.174-13.955c-1.611-0.488-3.389-1.699-3.872-2.588
		s-1.211-1.855-1.533-2.1c-1.533-1.133,0.806-5.166,6.055-10.254c3.066-2.979,6.05-5.4,6.533-5.4
		c1.455-0.088,3.066-1.211,2.666-1.943c-0.566-0.879,12.91-14.043,13.882-13.477c0.4,0.244,1.45-0.313,2.261-1.367l1.533-1.777
		l-2.021,1.621c-1.128,0.801,1.616-2.188,6.055-6.699c4.438-4.531,8.477-8.076,9.038-7.91c1.211,0.479,2.744-1.377,2.017-2.422
		c-0.723-1.055-8.633-4.443-11.377-4.844c-1.133-0.166-3.311-0.488-4.761-0.645c-3.555-0.566-4.927-1.455-3.149-2.021
		c0.889-0.322-4.6-2.988-14.932-7.266c-17.271-7.1-20.015-8.877-20.015-13.076c0-2.822,3.389-6.367,6.055-6.367
		c1.694,0,11.538-7.676,11.621-9.121c0.078-0.332,7.183-10.01,15.82-21.553c8.633-11.543,15.737-21.221,15.737-21.631
		c0-0.322-3.716-1.289-8.232-2.012c-4.6-0.811-9.282-1.621-10.493-1.777c-1.289-0.244-3.472-0.645-4.844-0.889
		c-1.45-0.244-3.389-0.566-4.277-0.732c-0.889-0.156-3.228-0.479-5.244-0.723c-1.938-0.322-11.943-2.012-22.192-3.789
		c-10.171-1.855-19.37-3.311-20.42-3.398c-1.05-0.078-1.694-0.479-1.455-1.045c0.244-0.557,0.811-13.154,1.294-27.92
		c0.967-26.875,1.211-28.652,3.872-27.686c0.645,0.244,0.806,0,0.483-0.566c-0.4-0.557,0.083-0.723,1.455-0.479
		c1.289,0.234,2.017,0,2.017-0.732c0-0.557-0.889-1.045-1.938-1.045c-1.128,0-1.855-0.488-1.855-1.211
		c0-1.055,0.566-1.211,2.988-0.723c1.694,0.313,3.794,0.801,4.678,1.123c0.972,0.322,38.013-8.066,96.851-21.943
		c52.378-12.354,96.685-22.52,98.462-22.52c3.955-0.088,333.066,55.605,333.965,56.484c0.566,0.566-0.732,46.328-1.543,52.949
		l-0.4,3.223l-30.986,7.266c-23.086,5.41-30.664,7.422-29.629,7.988c0.732,0.488,1.943,0.898,2.588,1.055
		c0.732,0.078,2.744,0.801,4.443,1.533c1.777,0.811,3.789,1.533,4.434,1.611c0.723,0.166,2.578,0.811,4.277,1.533
		c1.621,0.654,3.145,1.211,3.398,1.211c0.234,0,1.689,0.566,3.301,1.211c1.621,0.654,3.711,1.211,4.688,1.211
		c6.777,0,11.455,4.678,9.434,9.521c-0.957,2.422-5.4,5.332-6.777,4.443c-0.322-0.166-7.422,6.133-15.742,14.043
		c-8.301,7.91-30.254,28.896-48.818,46.572c-19.932,18.965-33.496,32.441-33.018,32.92c0.332,0.322,1.377,0.811,2.266,1.045
		c2.5,0.488,27.031,10.742,28.242,11.787c0.645,0.488,1.133,0.732,1.133,0.4c0-0.313,1.055,0,2.422,0.732
		c1.289,0.645,2.666,1.289,2.988,1.289c0.41,0,1.934,0.811,3.477,1.777c1.523,0.967,2.9,1.611,3.066,1.455
		c0.313-0.327,6.045,1.855,13.477,5.161c4.678,2.1,7.344,3.149,10.889,4.438c3.076,1.133,3.555,1.616,3.633,3.633
		c0,2.261,0.244,2.422,4.844,3.228c4.521,0.811,4.844,0.972,4.6,2.905c-0.156,2.021,0.41,2.344,11.133,6.782
		c6.387,2.661,11.709,5.327,12.109,6.133c1.055,1.938,1.055,7.183-0.078,7.183c-0.41,0-0.645,0.322-0.41,0.728
		c0.254,0.4-0.078,1.128-0.645,1.694c-1.211,0.967-1.445,4.277-0.313,3.55c0.313-0.239,0.645,1.05,0.645,2.827
		c0,2.905-0.41,3.55-2.832,5.083c-1.523,1.05-2.988,2.339-3.223,2.983c-0.332,0.889-0.166,0.889,0.645,0.244
		c1.777-1.533,4.121,0.728,3.555,3.228c-0.566,2.183-1.699,3.311-109.766,109.194c-39.463,38.662-72.07,70.298-72.637,70.376
		C379.395,7861.444,378.594,7861.283,378.105,7860.883z M532.334,7674.936c0.4-2.261,0.244-3.55-0.645-4.521
		c-0.645-0.728-1.377-3.55-1.611-6.133c-0.244-2.661-0.977-5.244-1.543-5.811c-0.557-0.566-5.156-2.661-10.156-4.761l-9.121-3.716
		l-8.633,8.071c-4.766,4.36-9.688,9.121-10.898,10.41c-2.588,2.744-2.588,2.744,3.867,3.877c1.777,0.322,3.477,0.967,3.789,1.45
		c0.41,0.649,0.654,0.566,0.654-0.161c0-0.562,0.322-0.889,0.723-0.645s2.1,0.645,3.799,0.889c7.344,0.889,10,1.45,10,1.938
		c0,0.239,1.289,0.483,2.832,0.4c1.523-0.078,2.822,0.161,2.822,0.483c0,0.405,0.732,0.488,1.611,0.244
		c0.889-0.244,2.266-0.161,2.988,0.161c0.801,0.322,2.1,0.728,2.822,0.806c0.811,0.083,1.611,0.322,1.865,0.566
		c0.234,0.244,1.289,0.244,2.412,0.078C531.445,7678.241,531.934,7677.519,532.334,7674.936z M469.385,7653.949
		c8.799-8.555,12.354-12.427,11.543-12.832c-1.133-0.645-3.311-1.05-12.92-2.5c-3.467-0.483-6.133-1.128-5.967-1.372
		s-1.045-0.566-2.822-0.645c-4.043-0.161-4.277-0.161-14.453-2.021c-4.678-0.806-10.166-1.611-12.266-1.855l-3.867-0.483
		l-10.254,9.849c-5.732,5.405-11.387,10.811-12.676,12.104c-2.168,2.017-2.256,2.339-1.045,3.55
		c0.811,0.728,1.377,0.967,1.377,0.483s0.566-0.884,1.211-0.884s1.211,0.239,1.211,0.645c0,0.322,1.689,0.645,3.789,0.723
		c2.178,0.083,3.955,0.566,4.121,0.972c0.156,0.405,1.123,0.562,2.246,0.405c1.211-0.244,1.943,0,1.943,0.645
		c0,0.723,0.244,0.645,0.811-0.161c0.566-0.811,0.967-0.972,1.445-0.327c0.332,0.488,1.289,0.811,2.109,0.649
		c1.768-0.244,10.322,1.289,10.977,2.017c0.234,0.244,1.689,0.566,3.223,0.566c4.512,0.161,11.699,1.289,11.943,1.855
		c0.078,0.244,1.377,0.566,2.9,0.645C456.465,7666.059,457.842,7665.087,469.385,7653.949z M235.093,7642.25
		c10.576-10.576,11.948-12.349,12.432-15.254c0.322-2.344,0.161-3.955-0.728-5.249c-0.645-1.045-1.372-3.877-1.694-6.299
		c-0.244-2.422-0.889-4.834-1.455-5.322c-0.562-0.557-4.355-2.334-8.472-4.033l-7.427-2.988l-4.517,2.5
		c-2.422,1.377-4.438,2.266-4.438,2.021c0-0.322-3.394,2.666-7.427,6.611c-18.403,17.681-26.797,26.074-26.47,26.479
		c0.645,0.645,35.83,13.315,37.124,13.315C222.666,7654.11,228.56,7648.788,235.093,7642.25z M385.859,7639.184
		c7.012-6.621,12.744-12.188,12.666-12.271c-0.244-0.161-29.941-5.244-42.695-7.266c-4.355-0.723-7.91-1.523-7.91-1.855
		c0-0.4-0.723-0.488-1.533-0.234c-0.879,0.234-4.6-0.166-8.311-0.898c-3.711-0.723-14.521-2.578-24.053-4.111
		c-9.521-1.611-20.415-3.467-24.131-4.111c-9.277-1.543-8.955-1.621-8.955,2.012c0,1.934-0.649,3.877-1.694,5.332
		c-1.05,1.289-1.455,2.422-0.972,2.656c1.455,0.977,1.777,3.311,0.972,5.815c-0.488,1.289-1.133,2.422-1.372,2.422
		c-0.327,0-0.566,2.417-0.566,5.327l-0.083,5.244l2.666-0.483c1.855-0.322,2.661-0.161,2.744,0.562c0,0.811,0.161,0.811,0.483,0
		c0.161-0.483,0.645-0.806,1.05-0.562c0.322,0.239,2.261,0.562,4.116,0.806c1.934,0.244,4.678,0.645,5.972,0.967
		c1.372,0.322,2.661,0.488,3.066,0.405c0.322-0.083,0.566,0.083,0.566,0.483c0,0.322,2.095,0.645,4.6,0.728
		c2.5,0.083,5.083,0.405,5.815,0.728c1.523,0.645,2.5,0.889,6.934,1.45c1.777,0.244,4.521,0.645,6.055,0.972
		c1.533,0.239,3.633,0.4,4.6,0.4s1.943,0.244,2.256,0.645c0.244,0.405,1.133,0.566,1.943,0.322c0.811-0.239,1.768,0,2.021,0.405
		c0.234,0.483,1.211,0.645,2.012,0.405c0.801-0.244,1.777,0,2.012,0.4c0.254,0.488,1.211,0.649,2.109,0.405
		c0.879-0.239,1.611-0.078,1.611,0.322c0,0.322,1.201,0.649,2.666,0.566c3.379-0.161,12.666,1.372,12.666,2.1
		c0,0.322,0.811,0.483,1.855,0.4c0.967-0.078,2.021,0.244,2.334,0.728c0.41,0.645,0.654,0.566,0.654-0.078
		c0-0.728,0.557-0.811,1.855-0.327c0.967,0.327,2.256,0.488,2.822,0.327c0.488-0.244,0.977-0.083,0.977,0.322
		c0,0.322,1.689,0.645,3.711,0.645C373.027,7651.288,373.184,7651.127,385.859,7639.184z M161.411,7627.802
		c0.967-1.211,2.017-1.855,2.583-1.455c0.645,0.405,0.723,0.244,0.322-0.483c-0.483-0.806-0.322-0.967,0.728-0.562
		c0.723,0.322,1.206,0.239,0.967-0.083c-0.244-0.405,1.938-2.983,4.844-5.894c2.905-2.822,5.811-6.211,6.372-7.588
		c0.566-1.289,1.133-1.934,1.133-1.289c0.078,0.811,0.806,0.488,2.422-1.045c1.533-1.455,2.744-2.021,3.467-1.611
		c0.566,0.313,0.728,0.234,0.405-0.088c-0.322-0.4,2.905-4.277,7.183-8.555l7.827-7.822l-3.145-1.377
		c-18.159-7.588-19.048-7.91-19.775-6.777c-0.645,1.123-0.806,0.967-1.05-1.045c0-0.488-4.517-2.754-9.927-5.01l-9.844-3.955
		l-3.633,2.988c-2.017,1.699-3.711,2.744-3.711,2.422s-1.05,0.4-2.422,1.699c-1.294,1.211-2.178,2.5-2.017,2.9
		c0.483,0.723-10.977,11.455-11.543,10.811c-0.645-0.566-5.811,4.521-5.405,5.332c0.562,0.801-10.977,11.299-11.865,10.732
		c-0.322-0.244-0.405,0.166-0.161,0.811c0.239,0.723,0.967,1.289,1.611,1.289c0.649,0,1.133,0.4,1.133,0.801
		c0,0.488,0.239,0.732,0.645,0.645c1.289-0.234,5.005,1.211,5.005,2.021c0,0.479,0.239,0.566,0.483,0.322
		c0.322-0.234,1.289-0.078,2.261,0.41c0.889,0.566,1.934,0.879,2.339,0.801c0.322-0.078,0.566,0.244,0.566,0.811
		c0,0.479,0.239,0.645,0.483,0.4c0.322-0.234,1.289-0.078,2.261,0.41c0.889,0.557,2.178,1.045,2.744,1.123
		c0.562,0.088,1.611,0.645,2.261,1.211c0.723,0.566,2.095,1.133,2.983,1.133c5.083,0.239,7.266,0.645,6.055,0.967
		c-1.372,0.322-2.183,2.017-0.811,1.694c1.133-0.244,5.005,1.128,5.005,1.855c0,0.405,0.244,0.645,0.645,0.566
		c0.972-0.161,5.005,1.128,5.005,1.694c0,0.322,0.889,0.645,1.938,0.728C159.067,7629.818,160.361,7629.174,161.411,7627.802z
		 M478.75,7550.81l42.852-40.752l-5.898-0.488c-3.301-0.322-12.012-0.566-19.443-0.645l-13.477-0.078l-39.951,35.586
		c-22.031,19.531-40.029,35.674-40.029,35.84c0,0.156,0.566,0.156,1.289,0.078c1.533-0.244,14.043,4.678,14.775,5.801
		c0.234,0.41,1.045,0.732,1.777,0.732c1.289,0,3.457,0.811,9.6,3.711c1.533,0.732,3.467,1.211,4.277,1.133
		C435.244,7591.64,455.176,7573.241,478.75,7550.81z M400.781,7539.511c11.465-15.332,21.152-28.242,21.465-28.73
		c0.41-0.488-7.344,1.045-17.266,3.389c-9.844,2.422-18.965,4.443-20.254,4.678c-1.289,0.244-2.578,0.723-2.832,1.133
		c-0.957,1.367-4.033,2.578-4.512,1.777c-0.488-0.723,0.645-1.133,2.256-0.889c0.4,0.078,0.566-0.488,0.4-1.299
		c-0.156-0.957-1.367-1.602-3.467-2.012c-6.221-1.133-8.076-1.455-11.299-1.934c-1.777-0.244-18.32-2.988-36.719-6.133
		c-27.524-4.688-34.063-5.488-36.563-4.844s-2.822,0.566-2.1-0.332c0.483-0.645,0.811-1.123,0.649-1.123
		c-0.166,0-12.109-2.021-26.553-4.443l-26.23-4.434l-2.827,2.822c-1.611,1.611-3.145,2.666-3.306,2.422
		c-0.244-0.166-1.694,0.967-3.232,2.666l-2.739,2.988l2.822-2.422c1.616-1.289-0.566,0.879-4.844,4.922
		c-4.194,4.111-7.91,7.266-8.149,7.1c-0.244-0.166-1.694,1.045-3.228,2.744l-2.744,2.988l2.822-2.422
		c1.616-1.289-0.806,1.045-5.244,5.322s-8.315,7.666-8.555,7.51c-0.889-0.488-5.488,4.922-4.922,5.811
		c0.483,0.723,4.355,1.611,13.477,3.145c1.372,0.166,4.844,0.732,7.827,1.211c4.683,0.811,5.649,0.732,7.427-0.479
		c1.211-0.732,2.339-1.133,2.661-0.811c0.244,0.244,0.083,0.479-0.4,0.479c-2.183,0-0.811,2.344,1.694,2.832
		c1.372,0.234,5.488,1.045,9.038,1.699c3.55,0.645,7.1,1.201,7.91,1.201c0.806,0,3.145,0.732,5.166,1.611
		c2.417,1.055,3.95,1.299,4.277,0.732c0.322-0.566,3.467-0.244,9.683,0.811c5.005,0.967,10.493,1.777,12.104,1.934
		c1.694,0.156,3.311,0.488,3.716,0.723c0.4,0.244,2.583,0.645,4.761,0.889c2.261,0.244,5.166,0.654,6.455,0.889
		c1.372,0.244,3.311,0.645,4.438,0.811c1.133,0.166,2.905,0.479,4.038,0.723c2.256,0.4,7.422,1.211,10.493,1.611
		c1.133,0.166,2.656,0,3.389-0.4c0.811-0.4,1.533-0.4,1.768,0c0.332,0.4,0,0.889-0.479,1.133c-0.566,0.244,0,0.811,1.289,1.289
		c1.699,0.732,2.51,0.732,2.91,0.088c0.557-0.898,5.244-0.488,8.066,0.645c1.689,0.645,3.066,0.879,7.266,1.367
		c2.021,0.234,5.654,0.801,8.076,1.211c2.422,0.4,5.566,0.967,6.855,1.211c16.953,2.91,29.785,5.322,30.098,5.645
		C378.262,7569.608,378.35,7569.608,400.781,7539.511z M181.504,7514.813c24.78-23.643,25.586-24.453,25.103-24.854
		c-0.244-0.244-1.694-0.645-3.228-0.811c-3.633-0.479-27.28-4.443-29.541-4.922c-1.45-0.322-6.377,3.711-25.02,20.254
		c-12.749,11.377-23.403,20.986-23.486,21.387c-0.161,0.4,0.244,0.488,0.889,0.244c0.972-0.322,15.093,1.855,26.797,4.199
		c1.372,0.234,3.389,0.566,4.6,0.645s2.5,0.4,2.744,0.723c0.322,0.332,1.128,0.566,1.694,0.566
		C162.7,7532.245,171.416,7524.413,181.504,7514.813z"/>
</g>
</svg>
