<?xml version="1.0" encoding="utf-8"?>
<!-- Generator: Adobe Illustrator 16.0.0, SVG Export Plug-In . SVG Version: 6.00 Build 0)  -->
<!DOCTYPE svg PUBLIC "-//W3C//DTD SVG 1.1//EN" "http://www.w3.org/Graphics/SVG/1.1/DTD/svg11.dtd">
<svg version="1.1" id="Layer_1" xmlns="http://www.w3.org/2000/svg" xmlns:xlink="http://www.w3.org/1999/xlink" x="0px" y="0px"
	 width="64px" height="64px" viewBox="0 0 64 64" enable-background="new 0 0 64 64" xml:space="preserve">
<g>
	<path fill="#09821D" d="M21.572,30.321c-2.88,0-5.214,2.254-5.214,5.034v3.357c0,2.779,2.334,5.033,5.214,5.033h20.857
		c2.88,0,5.215-2.254,5.215-5.033v-3.357c0-2.78-2.335-5.034-5.215-5.034H21.572z M26.786,37.033c0,0.928-0.779,1.68-1.738,1.68
		c-0.96,0-1.738-0.752-1.738-1.68c0-0.926,0.778-1.678,1.738-1.678C26.007,35.355,26.786,36.107,26.786,37.033z M32,38.713
		c0.96,0,1.739-0.752,1.739-1.68c0-0.926-0.778-1.678-1.739-1.678c-0.959,0-1.737,0.752-1.737,1.678
		C30.262,37.961,31.041,38.713,32,38.713z M40.691,37.033c0,0.928-0.779,1.68-1.738,1.68c-0.96,0-1.739-0.752-1.739-1.68
		c0-0.926,0.779-1.678,1.739-1.678C39.912,35.355,40.691,36.107,40.691,37.033z"/>
	<path fill="#09821D" d="M7.667,15.218c0-2.781,2.334-5.035,5.214-5.035h38.238c2.88,0,5.215,2.254,5.215,5.035v33.563
		c0,2.779-2.335,5.035-5.215,5.035H12.881c-2.88,0-5.214-2.256-5.214-5.035V15.218z M11.143,23.609v25.172
		c0,0.926,0.779,1.678,1.739,1.678h38.238c0.96,0,1.738-0.752,1.738-1.678V23.609H11.143z M17.796,16.896
		c0,0.927-0.751,1.678-1.678,1.678c-0.927,0-1.678-0.751-1.678-1.678s0.751-1.678,1.678-1.678
		C17.044,15.218,17.796,15.969,17.796,16.896z M21.152,18.574c0.927,0,1.678-0.751,1.678-1.678s-0.751-1.678-1.678-1.678
		c-0.926,0-1.678,0.751-1.678,1.678S20.226,18.574,21.152,18.574z M27.865,16.896c0,0.927-0.751,1.678-1.678,1.678
		c-0.927,0-1.679-0.751-1.679-1.678s0.752-1.678,1.679-1.678C27.114,15.218,27.865,15.969,27.865,16.896z"/>
</g>
</svg>
