<?xml version="1.0" encoding="utf-8"?>
<!-- Generator: Adobe Illustrator 16.0.0, SVG Export Plug-In . SVG Version: 6.00 Build 0)  -->
<!DOCTYPE svg PUBLIC "-//W3C//DTD SVG 1.1//EN" "http://www.w3.org/Graphics/SVG/1.1/DTD/svg11.dtd">
<svg version="1.1" id="Layer_1" xmlns="http://www.w3.org/2000/svg" xmlns:xlink="http://www.w3.org/1999/xlink" x="0px" y="0px"
	 width="64px" height="64px" viewBox="0 0 64 64" enable-background="new 0 0 64 64" xml:space="preserve">
<g>
	<path fill="#FFBC04" d="M10.714,44.34V26.169H9V44.34c0.001,1.095,0.454,2.144,1.257,2.918c0.803,0.773,1.893,1.209,3.029,1.211
		h6.857v-1.653h-6.857c-0.682,0-1.336-0.26-1.819-0.724C10.985,45.626,10.714,44.995,10.714,44.34L10.714,44.34z"/>
	<path fill="#FFBC04" d="M29.571,52.599h6.857v1.651h-6.857V52.599z"/>
	<path fill="#FFBC04" d="M10.714,22.866H9.857C9.383,22.866,9,23.235,9,23.691v0.826h1.714V22.866z"/>
	<path fill="#FFBC04" d="M12.428,21.214H15v4.955h-2.572V21.214z"/>
	<path fill="#FFBC04" d="M20.143,36.08h25.713V11.303H20.143V36.08z M42.429,12.955h1.714v1.652h-1.714V12.955z M42.429,16.258
		h1.714v1.651h-1.714V16.258z M42.429,19.562h1.714v1.652h-1.714V19.562z M42.429,22.866h1.714v1.652h-1.714V22.866z M42.429,26.169
		h1.714v1.652h-1.714V26.169z M42.429,29.473h1.714v1.652h-1.714V29.473z M42.429,32.776h1.714v1.651h-1.714V32.776z M38.999,12.955
		h1.716v1.652h-1.716V12.955z M38.999,16.258h1.716v1.651h-1.716V16.258z M38.999,19.562h1.716v1.652h-1.716V19.562z M38.999,22.866
		h1.716v1.652h-1.716V22.866z M38.999,26.169h1.716v1.652h-1.716V26.169z M38.999,29.473h1.716v1.652h-1.716V29.473z M38.999,32.776
		h1.716v1.651h-1.716V32.776z M35.571,12.955h1.714v1.652h-1.714V12.955z M35.571,16.258h1.714v1.651h-1.714V16.258z M35.571,19.562
		h1.714v1.652h-1.714V19.562z M35.571,22.866h1.714v1.652h-1.714V22.866z M35.571,26.169h1.714v1.652h-1.714V26.169z M35.571,29.473
		h1.714v1.652h-1.714V29.473z M35.571,32.776h1.714v1.651h-1.714V32.776z M32.143,12.955h1.713v1.652h-1.713V12.955z M32.143,16.258
		h1.713v1.651h-1.713V16.258z M32.143,19.562h1.713v1.652h-1.713V19.562z M32.143,22.866h1.713v1.652h-1.713V22.866z M32.143,26.169
		h1.713v1.652h-1.713V26.169z M32.143,29.473h1.713v1.652h-1.713V29.473z M32.143,32.776h1.713v1.651h-1.713V32.776z M28.714,12.955
		h1.714v1.652h-1.714V12.955z M28.714,16.258h1.714v1.651h-1.714V16.258z M28.714,19.562h1.714v1.652h-1.714V19.562z M28.714,22.866
		h1.714v1.652h-1.714V22.866z M28.714,26.169h1.714v1.652h-1.714V26.169z M28.714,29.473h1.714v1.652h-1.714V29.473z M28.714,32.776
		h1.714v1.651h-1.714V32.776z M25.286,12.955H27v1.652h-1.714V12.955z M25.286,16.258H27v1.651h-1.714V16.258z M25.286,19.562H27
		v1.652h-1.714V19.562z M25.286,22.866H27v1.652h-1.714V22.866z M25.286,26.169H27v1.652h-1.714V26.169z M25.286,29.473H27v1.652
		h-1.714V29.473z M25.286,32.776H27v1.651h-1.714V32.776z M21.857,12.955h1.714v1.652h-1.714V12.955z M21.857,16.258h1.714v1.651
		h-1.714V16.258z M21.857,19.562h1.714v1.652h-1.714V19.562z M21.857,22.866h1.714v1.652h-1.714V22.866z M21.857,26.169h1.714v1.652
		h-1.714V26.169z M21.857,29.473h1.714v1.652h-1.714V29.473z M21.857,32.776h1.714v1.651h-1.714V32.776z"/>
	<path fill="#FFBC04" d="M49.286,8H16.714v31.384h32.572V8z M47.57,36.905c0,0.22-0.09,0.43-0.251,0.585
		c-0.16,0.154-0.378,0.242-0.605,0.242H19.286c-0.474,0-0.857-0.371-0.857-0.827V10.477c0-0.456,0.384-0.826,0.857-0.826h27.428
		c0.228,0,0.445,0.087,0.605,0.242c0.161,0.155,0.251,0.365,0.251,0.584V36.905z"/>
	<path fill="#FFBC04" d="M21.857,50.945h22.286V44.34H21.857V50.945z M40.715,46.815h1.714v1.653h-1.714V46.815z M37.285,46.815
		h1.714v1.653h-1.714V46.815z M30.428,46.815h5.143v1.653h-5.143V46.815z M27,46.815h1.714v1.653H27V46.815z M23.571,46.815h1.714
		v1.653h-1.714V46.815z"/>
	<path fill="#FFBC04" d="M56.142,22.866h-0.856v1.652H57v-0.826c0-0.219-0.09-0.429-0.252-0.584
		C56.588,22.952,56.37,22.866,56.142,22.866z"/>
	<path fill="#FFBC04" d="M55.285,44.34c0,0.657-0.271,1.286-0.753,1.752c-0.482,0.464-1.136,0.724-1.818,0.724h-6.857v1.653h6.857
		c1.137-0.002,2.225-0.438,3.028-1.211c0.804-0.774,1.256-1.823,1.258-2.918V26.169h-1.715V44.34z"/>
	<path fill="#FFBC04" d="M51,21.214h2.571v4.955H51V21.214z"/>
</g>
</svg>
