<?xml version="1.0" encoding="utf-8"?>
<!-- Generator: Adobe Illustrator 16.0.0, SVG Export Plug-In . SVG Version: 6.00 Build 0)  -->
<!DOCTYPE svg PUBLIC "-//W3C//DTD SVG 1.1//EN" "http://www.w3.org/Graphics/SVG/1.1/DTD/svg11.dtd">
<svg version="1.1" id="Layer_1" xmlns="http://www.w3.org/2000/svg" xmlns:xlink="http://www.w3.org/1999/xlink" x="0px" y="0px"
	 width="64px" height="64px" viewBox="0 0 64 64" enable-background="new 0 0 64 64" xml:space="preserve">
<g>
	<path fill="#326ED1" d="M55.041,6.399H8.961c-1.28,0-2.56,1.28-2.56,2.56V44.8c0,1.535,1.28,2.56,2.56,2.56h20.48v5.12h-6.144
		c-2.304,0-4.096,1.792-4.096,4.096V57.6h25.6v-1.024c0-2.304-1.793-4.096-4.096-4.096h-6.145v-5.12h20.48
		c1.535,0,2.559-1.024,2.559-2.56V8.959C57.6,7.68,56.576,6.399,55.041,6.399z M52.48,37.119H11.521v-25.6H52.48V37.119z"/>
	<path fill="#326ED1" d="M24.321,20.479c0,2.121-1.719,3.84-3.84,3.84s-3.84-1.719-3.84-3.84s1.719-3.84,3.84-3.84
		S24.321,18.359,24.321,20.479"/>
	<path fill="#326ED1" d="M29.441,29.439c0,1.414-1.146,2.56-2.56,2.56s-2.56-1.146-2.56-2.56s1.146-2.56,2.56-2.56
		S29.441,28.025,29.441,29.439"/>
	<path fill="#326ED1" d="M47.359,23.04c0,3.535-2.865,6.4-6.398,6.4c-3.535,0-6.4-2.865-6.4-6.4s2.865-6.4,6.4-6.4
		C44.494,16.64,47.359,19.505,47.359,23.04"/>
</g>
</svg>
