<?xml version="1.0" encoding="utf-8"?>
<!-- Generator: Adobe Illustrator 16.0.0, SVG Export Plug-In . SVG Version: 6.00 Build 0)  -->
<!DOCTYPE svg PUBLIC "-//W3C//DTD SVG 1.1//EN" "http://www.w3.org/Graphics/SVG/1.1/DTD/svg11.dtd">
<svg version="1.1" id="Layer_1" xmlns="http://www.w3.org/2000/svg" xmlns:xlink="http://www.w3.org/1999/xlink" x="0px" y="0px"
	 width="64px" height="64px" viewBox="0 0 64 64" enable-background="new 0 0 64 64" xml:space="preserve">
<g>
	<path fill="#F9812A" d="M25.43,34.956H9.286c-1.164,0-2.11,0.939-2.11,2.103v3.934c0,1.163,0.947,2.102,2.11,2.102h1.058v1.815
		H9.286c-1.164,0-2.11,0.946-2.11,2.11v3.933c0,1.155,0.947,2.103,2.11,2.103h1.058v2.668c0,0.429,0.348,0.775,0.776,0.775
		s0.775-0.348,0.775-0.775v-2.668h2.606v2.668c0,0.429,0.347,0.775,0.775,0.775s0.776-0.348,0.776-0.775v-2.668h2.606v2.668
		c0,0.429,0.348,0.775,0.776,0.775s0.776-0.348,0.776-0.775v-2.668h2.606v2.668c0,0.429,0.348,0.775,0.776,0.775
		s0.775-0.348,0.775-0.775v-2.668h1.062c1.164,0,2.102-0.946,2.102-2.103V47.02c0-1.164-0.938-2.11-2.102-2.11h-1.062v-1.815h1.062
		c1.164,0,2.102-0.938,2.102-2.102v-3.934C27.532,35.895,26.593,34.956,25.43,34.956L25.43,34.956z M20.775,38.245h2.56
		c0.427,0,0.776,0.35,0.776,0.776c0,0.434-0.349,0.775-0.776,0.775h-2.56c-0.427,0-0.776-0.342-0.776-0.775
		C19.999,38.595,20.349,38.245,20.775,38.245z M16.053,44.909v-1.815h2.606v1.815H16.053z M17.044,37.826
		c0.652,0,1.179,0.536,1.179,1.203c0,0.659-0.527,1.194-1.179,1.194s-1.179-0.536-1.179-1.194
		C15.865,38.362,16.392,37.826,17.044,37.826z M11.094,38.245h2.56c0.427,0,0.776,0.35,0.776,0.776c0,0.434-0.349,0.775-0.776,0.775
		h-2.56c-0.427,0-0.776-0.342-0.776-0.775C10.318,38.595,10.667,38.245,11.094,38.245z M11.896,43.094h2.606v1.815h-2.606V43.094z
		 M13.653,49.758h-2.56c-0.427,0-0.775-0.342-0.775-0.775c0-0.428,0.349-0.776,0.775-0.776h2.56c0.427,0,0.776,0.349,0.776,0.776
		C14.429,49.416,14.08,49.758,13.653,49.758z M17.044,50.184c-0.652,0-1.179-0.543-1.179-1.202s0.527-1.194,1.179-1.194
		s1.179,0.535,1.179,1.194C18.223,49.642,17.695,50.184,17.044,50.184z M19.999,48.982c0-0.428,0.349-0.775,0.776-0.775h2.56
		c0.427,0,0.776,0.348,0.776,0.775c0,0.434-0.349,0.775-0.776,0.775h-2.56C20.349,49.758,19.999,49.416,19.999,48.982z
		 M22.816,44.909H20.21v-1.815h2.606V44.909z"/>
	<path fill="#F9812A" d="M54.723,43.094c1.162,0,2.102-0.938,2.102-2.102V37.06c0-1.164-0.939-2.103-2.102-2.103l-16.145-0.001
		c-1.164,0-2.109,0.939-2.109,2.103v3.934c0,1.163,0.945,2.102,2.109,2.102h1.059v1.815l-1.059,0.001
		c-1.164,0-2.109,0.945-2.109,2.109v3.934c0,1.155,0.945,2.102,2.109,2.102h1.059v2.668c0,0.43,0.348,0.775,0.775,0.775
		s0.775-0.347,0.775-0.775v-2.668h2.605v2.668c0,0.43,0.348,0.775,0.777,0.775c0.428,0,0.775-0.347,0.775-0.775v-2.668h2.605v2.668
		c0,0.43,0.348,0.775,0.775,0.775c0.43,0,0.775-0.347,0.775-0.775v-2.668h2.607v2.668c0,0.43,0.348,0.775,0.775,0.775
		s0.775-0.347,0.775-0.775v-2.668h1.063c1.162,0,2.102-0.946,2.102-2.102V47.02c0-1.164-0.939-2.109-2.102-2.109H53.66v-1.816
		H54.723z M50.068,38.245h2.559c0.428,0,0.777,0.35,0.777,0.776c0,0.435-0.35,0.775-0.777,0.775h-2.559
		c-0.428,0-0.775-0.341-0.775-0.775C49.293,38.595,49.641,38.245,50.068,38.245z M45.346,44.91v-1.816h2.605v1.816H45.346z
		 M46.336,37.827c0.652,0,1.18,0.535,1.18,1.202c0,0.66-0.527,1.195-1.18,1.195c-0.65,0-1.18-0.536-1.18-1.195
		C45.156,38.362,45.686,37.827,46.336,37.827z M40.387,38.245h2.561c0.426,0,0.775,0.35,0.775,0.776c0,0.435-0.35,0.775-0.775,0.775
		h-2.561c-0.428,0-0.775-0.341-0.775-0.775C39.611,38.595,39.959,38.245,40.387,38.245z M41.188,43.094h2.607v1.816h-2.607V43.094z
		 M42.947,49.758h-2.561c-0.428,0-0.775-0.341-0.775-0.775c0-0.427,0.348-0.775,0.775-0.775h2.561c0.426,0,0.775,0.349,0.775,0.775
		C43.723,49.417,43.373,49.758,42.947,49.758z M46.336,50.185c-0.65,0-1.18-0.543-1.18-1.202c0-0.66,0.529-1.195,1.18-1.195
		c0.652,0,1.18,0.536,1.18,1.195C47.516,49.643,46.988,50.185,46.336,50.185z M49.293,48.982c0-0.427,0.348-0.775,0.775-0.775h2.559
		c0.428,0,0.777,0.349,0.777,0.775c0,0.435-0.35,0.775-0.777,0.775h-2.559C49.641,49.758,49.293,49.417,49.293,48.982z
		 M52.109,44.91h-2.605v-1.816h2.605V44.91z"/>
	<path fill="#F9812A" d="M44.459,29.883h-9.355c-0.279-1.148-1.18-2.048-2.328-2.327v-1.683h9.146c3.025,0,5.486-2.459,5.486-5.485
		c0-3.033-2.461-5.492-5.486-5.492h-0.193c-0.129-3.526-4.066-5.763-7.191-4.313c-1.342-1.916-3.545-3.08-5.918-3.08
		c-4.218,0-7.542,3.607-7.214,7.805c-2.041,0.838-3.414,2.839-3.414,5.081c0,3.025,2.467,5.484,5.5,5.484h7.735v1.683
		c-1.141,0.279-2.041,1.179-2.32,2.327l-9.363,0c-1.629,0-2.963,1.327-2.963,2.963v0.559h1.551v-0.559
		c0-0.775,0.636-1.411,1.412-1.411h9.363c0.341,1.389,1.598,2.429,3.095,2.429s2.761-1.04,3.103-2.429h9.355
		c0.783,0,1.412,0.636,1.412,1.411v0.559h1.551v-0.559C47.424,31.209,46.096,29.883,44.459,29.883L44.459,29.883z"/>
</g>
</svg>
