<?xml version="1.0" encoding="utf-8"?>
<!-- Generator: Adobe Illustrator 16.0.0, SVG Export Plug-In . SVG Version: 6.00 Build 0)  -->
<!DOCTYPE svg PUBLIC "-//W3C//DTD SVG 1.1//EN" "http://www.w3.org/Graphics/SVG/1.1/DTD/svg11.dtd">
<svg version="1.1" id="Layer_1" xmlns="http://www.w3.org/2000/svg" xmlns:xlink="http://www.w3.org/1999/xlink" x="0px" y="0px"
	 width="64px" height="64px" viewBox="0 0 64 64" enable-background="new 0 0 64 64" xml:space="preserve">
<g>
	<path fill="#326ED1" d="M32.129,20.608c-6.247,0-11.315,5.069-11.315,11.315c0,6.246,5.069,11.366,11.315,11.366
		c6.298,0,11.366-5.12,11.366-11.366C43.495,25.677,38.374,20.608,32.129,20.608z M40.729,31.975c0,4.353-3.48,8.09-7.832,8.499
		V23.425C37.249,23.834,40.729,27.572,40.729,31.975L40.729,31.975z"/>
	<path fill="#326ED1" d="M30.747,47.028h2.764v9.522h-2.764V47.028z"/>
	<path fill="#326ED1" d="M30.747,7.194h2.764v9.523h-2.764V7.194z"/>
	<path fill="#326ED1" d="M7.399,30.541h9.523v2.765H7.399V30.541z"/>
	<path fill="#326ED1" d="M47.233,30.541h9.521v2.765h-9.521V30.541z"/>
	<path fill="#326ED1" d="M20.35,41.597l1.955,1.955l-6.734,6.734l-1.955-1.955L20.35,41.597z"/>
	<path fill="#326ED1" d="M43.835,22.179l-1.957-1.955l6.734-6.735l1.955,1.955L43.835,22.179z"/>
	<path fill="#326ED1" d="M20.429,22.137l-6.734-6.734l1.955-1.955l6.734,6.734L20.429,22.137z"/>
	<path fill="#326ED1" d="M43.827,41.618l6.734,6.733l-1.955,1.955l-6.734-6.733L43.827,41.618z"/>
</g>
</svg>
