<?xml version="1.0" encoding="utf-8"?>
<!-- Generator: Adobe Illustrator 16.0.0, SVG Export Plug-In . SVG Version: 6.00 Build 0)  -->
<!DOCTYPE svg PUBLIC "-//W3C//DTD SVG 1.1//EN" "http://www.w3.org/Graphics/SVG/1.1/DTD/svg11.dtd">
<svg version="1.1" id="Layer_1" xmlns="http://www.w3.org/2000/svg" xmlns:xlink="http://www.w3.org/1999/xlink" x="0px" y="0px"
	 width="64px" height="64px" viewBox="0 0 64 64" enable-background="new 0 0 64 64" xml:space="preserve">
<g>
	<path fill="#8F00FF" d="M16.351,34.281h32.12c2.678-0.036,5.141-1.471,6.492-3.782s1.396-5.162,0.114-7.513s-3.7-3.86-6.375-3.978
		c-0.063-1.985-0.895-3.868-2.32-5.25c-1.426-1.383-3.333-2.157-5.319-2.158c-0.873-0.001-1.739,0.151-2.561,0.448
		c-1.05-2.29-2.951-4.08-5.299-4.992c-2.349-0.912-4.96-0.873-7.28,0.108s-4.167,2.828-5.149,5.147
		c-1.97-0.56-4.089-0.162-5.722,1.073c-1.634,1.236-2.593,3.167-2.59,5.215c-0.003,0.471,0.044,0.94,0.144,1.4
		c-1.975,1.113-3.354,3.045-3.764,5.274c-0.41,2.23,0.192,4.526,1.642,6.269c1.45,1.742,3.599,2.751,5.866,2.753L16.351,34.281z"/>
	<path fill="#8F00FF" d="M56.406,46.944c-0.021-0.042-0.045-0.081-0.072-0.12c-0.023-0.056-0.054-0.109-0.088-0.16l-3.199-3.848
		c-0.197-0.238-0.492-0.373-0.801-0.368c-0.24,0.001-0.472,0.087-0.656,0.24c-0.206,0.171-0.336,0.418-0.359,0.685
		c-0.024,0.268,0.059,0.533,0.232,0.74l1.815,2.184h-8.8V38.4c0-0.561-0.455-1.016-1.016-1.016c-0.562,0-1.017,0.455-1.017,1.016
		v8.912c0,0.562,0.455,1.016,1.017,1.016h9.815l-1.816,2.184v0.001c-0.171,0.208-0.251,0.475-0.225,0.741
		c0.027,0.268,0.159,0.514,0.368,0.683c0.183,0.152,0.411,0.237,0.648,0.24c0.309,0.005,0.604-0.13,0.8-0.368l3.2-3.848
		c0.034-0.051,0.063-0.104,0.088-0.16c0.025-0.037,0.047-0.078,0.064-0.12C56.494,47.443,56.494,47.182,56.406,46.944L56.406,46.944
		z"/>
	<path fill="#8F00FF" d="M21.334,37.344c-0.277,0-0.542,0.113-0.733,0.313c-0.192,0.199-0.294,0.468-0.283,0.744v7.936h-8.8
		l1.816-2.184h0c0.186-0.207,0.277-0.482,0.253-0.76c-0.024-0.277-0.162-0.532-0.38-0.704c-0.185-0.153-0.416-0.239-0.656-0.24
		c-0.309-0.005-0.603,0.13-0.8,0.368l-3.2,3.848c-0.034,0.051-0.063,0.104-0.088,0.16c-0.027,0.039-0.051,0.078-0.072,0.12
		c-0.088,0.237-0.088,0.499,0,0.736c0.02,0.042,0.044,0.083,0.072,0.12c0.024,0.056,0.054,0.109,0.088,0.16l3.2,3.848
		c0.197,0.238,0.491,0.373,0.8,0.368c0.237-0.003,0.466-0.088,0.648-0.24c0.206-0.171,0.336-0.418,0.36-0.686
		c0.024-0.267-0.06-0.533-0.232-0.738l-1.792-2.185h9.8c0.562,0,1.016-0.455,1.016-1.016V38.4c0.011-0.276-0.092-0.545-0.283-0.744
		S21.611,37.344,21.334,37.344L21.334,37.344z"/>
	<path fill="#8F00FF" d="M36.254,52.376c-0.236-0.003-0.466,0.08-0.647,0.231L33.423,54.4V38.217c0-0.562-0.455-1.017-1.016-1.017
		s-1.016,0.455-1.016,1.017V54.4l-2.184-1.793c-0.429-0.354-1.064-0.297-1.424,0.129c-0.173,0.207-0.257,0.474-0.233,0.742
		s0.154,0.517,0.361,0.689l3.848,3.2h0c0.053,0.036,0.109,0.069,0.168,0.096l0.112,0.063c0.118,0.045,0.242,0.07,0.368,0.072
		c0.125-0.004,0.25-0.027,0.368-0.072c0.04-0.019,0.078-0.043,0.112-0.071c0.061-0.021,0.116-0.051,0.168-0.088l3.848-3.2l0,0
		c0.325-0.274,0.445-0.722,0.3-1.121C37.058,52.646,36.68,52.379,36.254,52.376L36.254,52.376z"/>
</g>
</svg>
