<?xml version="1.0" encoding="utf-8"?>
<!-- Generator: Adobe Illustrator 16.0.0, SVG Export Plug-In . SVG Version: 6.00 Build 0)  -->
<!DOCTYPE svg PUBLIC "-//W3C//DTD SVG 1.1//EN" "http://www.w3.org/Graphics/SVG/1.1/DTD/svg11.dtd">
<svg version="1.1" id="Layer_1" xmlns="http://www.w3.org/2000/svg" xmlns:xlink="http://www.w3.org/1999/xlink" x="0px" y="0px"
	 width="64px" height="64px" viewBox="0 0 64 64" enable-background="new 0 0 64 64" xml:space="preserve">
<g>
	<path fill="#8F00FF" d="M32.515,54c-5.691,0-11.031-2.146-15.079-5.983c-4.049-3.896-6.22-9.032-6.22-14.509
		c0-5.475,2.229-10.613,6.22-14.508c1.349-1.298,3.461-1.298,4.811,0s1.35,3.331,0,4.629c-2.758,2.653-4.224,6.153-4.224,9.878
		c0,3.727,1.525,7.226,4.224,9.879c2.758,2.653,6.396,4.065,10.268,4.065c3.873,0,7.511-1.468,10.269-4.065
		c2.759-2.653,4.225-6.152,4.225-9.879c0-3.726-1.524-7.226-4.225-9.878c-1.348-1.298-1.348-3.331,0-4.629
		c1.35-1.298,3.462-1.298,4.812,0c4.049,3.895,6.221,9.033,6.221,14.508c0,5.477-2.229,10.613-6.221,14.509
		C43.547,51.854,38.207,54,32.515,54L32.515,54z M35.918,29.161V13.524c0-1.807-1.525-3.274-3.403-3.274
		c-1.877,0-3.403,1.467-3.403,3.274v15.637c0,1.807,1.526,3.274,3.403,3.274C34.393,32.436,35.918,30.968,35.918,29.161z"/>
</g>
</svg>
