<?xml version="1.0" encoding="utf-8"?>
<!-- Generator: Adobe Illustrator 16.0.0, SVG Export Plug-In . SVG Version: 6.00 Build 0)  -->
<!DOCTYPE svg PUBLIC "-//W3C//DTD SVG 1.1//EN" "http://www.w3.org/Graphics/SVG/1.1/DTD/svg11.dtd">
<svg version="1.1" id="Layer_1" xmlns="http://www.w3.org/2000/svg" xmlns:xlink="http://www.w3.org/1999/xlink" x="0px" y="0px"
	 width="64px" height="64px" viewBox="0 0 64 64" enable-background="new 0 0 64 64" xml:space="preserve">
<g>
	<path fill="#09821D" d="M31.075,46.679h-5.623c-0.5,0-0.875-0.362-0.875-0.848v-5.457c0-0.486,0.375-0.85,0.875-0.85h5.623
		c0.5,0,0.875-0.365,0.875-0.849V33.22c0-0.486-0.375-0.848-0.875-0.848h-5.623c-0.5,0-0.875-0.365-0.875-0.85v-5.458
		c0-0.485,0.375-0.849,0.875-0.849h5.623c0.5,0,0.875-0.363,0.875-0.849v-5.457c0-0.485-0.375-0.849-0.875-0.849h-5.623
		c-0.5,0-0.875-0.363-0.875-0.849v-5.457c0-0.485-0.375-0.848-0.875-0.848l-12.995-0.001c-0.5,0-0.874,0.363-0.874,0.849v41.231
		c0,0.486,0.375,0.85,0.874,0.85h20.367c0.5,0,0.875-0.363,0.875-0.85v-5.457C31.95,47.105,31.574,46.679,31.075,46.679
		L31.075,46.679z"/>
	<path fill="#09821D" d="M39.32,40.374c0-0.486-0.375-0.85-0.874-0.85h-5.624c-0.5,0-0.873,0.363-0.873,0.85v5.457
		c0,0.485,0.373,0.848,0.873,0.848h5.624c0.499,0,0.874-0.362,0.874-0.848V40.374z"/>
	<path fill="#09821D" d="M53.189,10.843h-5.621c-0.5,0-0.874,0.364-0.874,0.849v5.458c0,0.485,0.374,0.849,0.874,0.849h5.621
		c0.501,0,0.875-0.363,0.875-0.849v-5.458C54.126,11.268,53.69,10.843,53.189,10.843z"/>
	<path fill="#09821D" d="M45.818,32.368h-5.622c-0.499,0-0.874,0.365-0.874,0.85v5.458c0,0.483,0.375,0.849,0.874,0.849h5.622
		c0.499,0,0.874-0.365,0.874-0.849v-5.458C46.692,32.733,46.317,32.368,45.818,32.368z"/>
	<path fill="#09821D" d="M53.189,25.214h-5.621c-0.5,0-0.874,0.364-0.874,0.849v5.457c0,0.486,0.374,0.848,0.874,0.848h5.621
		c0.501,0,0.875-0.362,0.875-0.848v-5.457C54.126,25.578,53.69,25.214,53.189,25.214z"/>
	<path fill="#09821D" d="M45.818,46.679h-5.622c-0.499,0-0.874,0.363-0.874,0.849v5.457c0,0.486,0.375,0.85,0.874,0.85h5.622
		c0.499,0,0.874-0.363,0.874-0.85v-5.457C46.692,47.104,46.317,46.679,45.818,46.679z"/>
	<path fill="#09821D" d="M38.446,25.214h-5.624c-0.5,0-0.873,0.364-0.873,0.849v5.457c0,0.486,0.373,0.848,0.873,0.848h5.624
		c0.499,0,0.874-0.362,0.874-0.848v-5.457C39.32,25.578,38.945,25.214,38.446,25.214z"/>
	<path fill="#09821D" d="M32.822,18.059h5.624c0.499,0,0.874-0.363,0.874-0.849v-5.456c0-0.486-0.375-0.849-0.874-0.849h-5.624
		c-0.5,0-0.873,0.363-0.873,0.849v5.456C31.95,17.635,32.323,18.059,32.822,18.059z"/>
</g>
</svg>
