<?xml version="1.0" encoding="utf-8"?>
<!-- Generator: Adobe Illustrator 16.0.0, SVG Export Plug-In . SVG Version: 6.00 Build 0)  -->
<!DOCTYPE svg PUBLIC "-//W3C//DTD SVG 1.1//EN" "http://www.w3.org/Graphics/SVG/1.1/DTD/svg11.dtd">
<svg version="1.1" id="Layer_1" xmlns="http://www.w3.org/2000/svg" xmlns:xlink="http://www.w3.org/1999/xlink" x="0px" y="0px"
	 width="64px" height="64px" viewBox="0 0 64 64" enable-background="new 0 0 64 64" xml:space="preserve">
<g>
	<path fill="#FFBC04" d="M22.651,24.685H35.79c0.371,0,0.619-0.222,0.619-0.555v-6.105c0-0.333-0.248-0.555-0.619-0.555l-13.139,0
		c-0.372,0-0.62,0.222-0.62,0.555v6.105C22.032,24.408,22.279,24.685,22.651,24.685L22.651,24.685z"/>
	<path fill="#FFBC04" d="M40.562,33.066V15.694c0-1.276-1.115-2.275-2.541-2.275l-2.043,0v-2.165c0-1.276-1.117-2.275-2.543-2.275
		H24.82c-1.424,0-2.541,0.999-2.541,2.275v2.165h-2.045c-1.426,0-2.542,0.999-2.542,2.275v30.47c0,1.275,1.115,2.275,2.542,2.275
		h8.986c1.983,3.33,5.888,5.66,10.412,5.66c6.51,0,11.775-4.717,11.775-10.545c0-5.549-4.77-10.102-10.846-10.49V33.066z
		 M31.39,48.439c-0.372-0.5-0.682-1.055-0.993-1.666c-0.371-0.777-0.557-1.609-0.619-2.496c0-0.223-0.061-0.445-0.061-0.723
		c0-2.607,1.238-4.885,3.222-6.549c1.551-1.275,3.533-2.109,5.764-2.275c0.311,0,0.619-0.055,0.93-0.055c0.309,0,0.619,0,0.93,0.055
		c5.02,0.445,8.986,4.217,8.986,8.824c0,4.885-4.461,8.879-9.916,8.879C36.224,52.379,33.187,50.824,31.39,48.439L31.39,48.439z
		 M24.139,11.254c0-0.333,0.31-0.611,0.681-0.611h8.615c0.371,0,0.682,0.278,0.682,0.611v2.164h-9.978V11.254z M20.234,46.773
		c-0.372,0-0.682-0.277-0.682-0.609v-30.47c0-0.333,0.31-0.61,0.682-0.61h17.788c0.369,0,0.68,0.277,0.68,0.61v17.373
		c-0.807,0.055-1.547,0.166-2.293,0.389v-5.662c0-0.333-0.248-0.555-0.619-0.555H22.651c-0.372,0-0.62,0.222-0.62,0.555v6.105
		c0,0.332,0.248,0.555,0.62,0.555h11.094c-1.24,0.666-2.355,1.555-3.285,2.553h-7.809c-0.372,0-0.62,0.223-0.62,0.555v6.107
		c0,0.332,0.248,0.555,0.62,0.555l5.268-0.002c0.063,0.889,0.248,1.721,0.558,2.498h-8.243V46.773z"/>
	<path fill="#FFBC04" d="M42.173,44.609l-1.611-1.221l-0.248-0.223v-5.549c0-0.445-0.434-0.832-0.928-0.832
		c-0.25,0-0.496,0.111-0.621,0.221c-0.248,0.166-0.311,0.389-0.311,0.611v6.27l0.311,0.223l1.861,1.443l1.609,1.275
		c0.186,0.111,0.371,0.223,0.621,0.223c0.246,0,0.494-0.111,0.682-0.277c0.309-0.332,0.309-0.887-0.063-1.164L42.173,44.609z"/>
</g>
</svg>
