<?xml version="1.0" encoding="utf-8"?>
<!-- Generator: Adobe Illustrator 16.0.0, SVG Export Plug-In . SVG Version: 6.00 Build 0)  -->
<!DOCTYPE svg PUBLIC "-//W3C//DTD SVG 1.1//EN" "http://www.w3.org/Graphics/SVG/1.1/DTD/svg11.dtd">
<svg version="1.1" id="Layer_1" xmlns="http://www.w3.org/2000/svg" xmlns:xlink="http://www.w3.org/1999/xlink" x="0px" y="0px"
	 width="64px" height="64px" viewBox="0 0 64 64" enable-background="new 0 0 64 64" xml:space="preserve">
<g>
	<path fill="#FFBC04" d="M50.348,27.131c-0.354,0-0.709,0-1.064,0.058c0.06-0.407,0.12-0.872,0.12-1.278
		c0-5.115-4.198-9.241-9.4-9.241c-1.772,0-3.368,0.465-4.788,1.336c-2.364-2.848-5.97-4.707-9.99-4.707
		c-7.094,0-12.828,5.637-12.828,12.611c0,0.522,0.059,1.046,0.119,1.568c-4.493,1.163-7.804,5.173-7.804,9.938
		c0,5.695,4.669,10.287,10.463,10.287h35.233c5.793,0,10.463-4.592,10.463-10.287C60.871,31.723,56.141,27.131,50.348,27.131
		L50.348,27.131z M26.347,36.139c-0.531,0-0.946-0.348-1.123-0.813c-0.236-0.755-0.354-1.511-0.354-2.324
		c0-4.126,3.429-7.613,7.625-7.729h0.177v-1.568c0-0.232,0.119-0.465,0.355-0.582c0.117-0.058,0.237-0.058,0.353-0.058
		c0.12,0,0.239,0.058,0.357,0.116l4.256,2.674c0.178,0.116,0.295,0.349,0.295,0.581s-0.117,0.465-0.295,0.582l-4.256,2.674
		c-0.237,0.116-0.473,0.174-0.71,0c-0.236-0.117-0.355-0.349-0.355-0.582v-1.569h-0.177c-2.956,0.116-5.261,2.499-5.261,5.405
		c0,0.523,0.058,1.104,0.236,1.628c0.119,0.29,0.059,0.58-0.059,0.87c-0.119,0.291-0.414,0.466-0.709,0.582
		C26.584,36.139,26.466,36.139,26.347,36.139L26.347,36.139z M32.909,40.73h-0.178v1.57c0,0.23-0.118,0.464-0.354,0.58
		c-0.237,0.116-0.533,0.116-0.709,0l-4.257-2.674c-0.177-0.116-0.295-0.348-0.295-0.58c0-0.233,0.119-0.466,0.295-0.582l4.257-2.674
		c0.118-0.058,0.236-0.116,0.354-0.116s0.237,0,0.355,0.058c0.236,0.117,0.354,0.349,0.354,0.581v1.512h0.178
		c2.955-0.116,5.321-2.499,5.321-5.404c0-0.523-0.06-1.104-0.237-1.627c-0.118-0.291-0.059-0.582,0.06-0.872
		c0.118-0.291,0.413-0.465,0.709-0.582c0.296-0.116,0.593-0.058,0.886,0.059c0.296,0.116,0.474,0.407,0.592,0.697
		c0.235,0.755,0.354,1.511,0.354,2.325C40.595,37.185,37.166,40.614,32.909,40.73L32.909,40.73z"/>
</g>
</svg>
