<?xml version="1.0" encoding="utf-8"?>
<!-- Generator: Adobe Illustrator 16.0.0, SVG Export Plug-In . SVG Version: 6.00 Build 0)  -->
<!DOCTYPE svg PUBLIC "-//W3C//DTD SVG 1.1//EN" "http://www.w3.org/Graphics/SVG/1.1/DTD/svg11.dtd">
<svg version="1.1" id="Layer_1" xmlns="http://www.w3.org/2000/svg" xmlns:xlink="http://www.w3.org/1999/xlink" x="0px" y="0px"
	 width="64px" height="64px" viewBox="0 0 64 64" enable-background="new 0 0 64 64" xml:space="preserve">
<g>
	<path fill="#F01A1A" d="M55.954,20.419L8.747,45.669c7.846,11.9,24.625,15.656,37.471,8.389
		c8.11-4.589,13.056-12.756,13.054-21.559C59.279,28.279,58.139,24.124,55.954,20.419L55.954,20.419z M30.29,35.86
		c0.509,0.235,1.072,0.356,1.642,0.353c1.539,0,2.31-0.471,2.31-1.411c0.007-0.321-0.135-0.63-0.391-0.846l1.624-0.87
		c0.333,0.456,0.503,1.002,0.481,1.553c0,1.762-1.06,2.771-3.176,3.03v1.515h-1.683v-1.515c-0.901-0.096-1.759-0.41-2.486-0.911
		L30.29,35.86z M51.254,24.646l1.604-0.858v19.108c0,0.821-0.719,1.485-1.604,1.485H14.352l2.777-1.485 M32.011,7.25
		C16.95,7.254,4.746,18.566,4.75,32.517c0.001,4.137,1.1,8.207,3.197,11.858l47.195-25.239C50.167,11.738,41.419,7.246,32.011,7.25z
		 M33.294,29.105c-0.466-0.208-0.977-0.318-1.493-0.319c-1.24,0-1.859,0.396-1.859,1.188c-0.008,0.281,0.116,0.551,0.338,0.744
		l-1.625,0.87c-0.298-0.442-0.448-0.959-0.427-1.48c-0.025-0.696,0.267-1.369,0.803-1.856c0.566-0.5,1.292-0.817,2.068-0.906v-1.53
		h1.683v1.53c0.797,0.116,1.549,0.412,2.193,0.861L33.294,29.105z M12.768,40.082l-1.604,0.855V22.104
		c0-0.821,0.718-1.486,1.604-1.486h36.396l-2.775,1.486"/>
</g>
</svg>
