<?xml version="1.0" encoding="utf-8"?>
<!-- Generator: Adobe Illustrator 16.0.0, SVG Export Plug-In . SVG Version: 6.00 Build 0)  -->
<!DOCTYPE svg PUBLIC "-//W3C//DTD SVG 1.1//EN" "http://www.w3.org/Graphics/SVG/1.1/DTD/svg11.dtd">
<svg version="1.1" id="Layer_1" xmlns="http://www.w3.org/2000/svg" xmlns:xlink="http://www.w3.org/1999/xlink" x="0px" y="0px"
	 width="64px" height="64px" viewBox="0 0 64 64" enable-background="new 0 0 64 64" xml:space="preserve">
<g>
	<path fill="#8F00FF" d="M12.473,13.948h39.501c4.73,0,8.593,3.617,8.593,8.042v2.498H3.879V21.99
		C3.879,17.565,7.745,13.948,12.473,13.948L12.473,13.948z M52.816,43.053v3.031H49.26v-3.031h-3.24v-3.328h3.24v-3.032h3.557v3.032
		h3.238v3.328H52.816z M52.531,39.991h-2.982v2.792h2.982V39.991z M40.27,43.053v3.031h-3.557v-3.031h-3.24v-3.328h3.24v-3.032
		h3.557v3.032h3.239v3.328H40.27z M39.984,39.991h-2.983v2.792h2.983V39.991z M27.732,43.053v3.031h-3.558v-3.031h-3.239v-3.328
		h3.239v-3.032h3.558v3.032h3.239v3.328H27.732z M27.446,39.991h-2.982v2.792h2.982V39.991z M15.194,43.053v3.031h-3.557v-3.031
		H8.399v-3.328h3.239v-3.032h3.557v3.032h3.239v3.328H15.194z M14.909,39.991h-2.981v2.792h2.981V39.991z M60.354,27.813
		c-0.878,3.569-4.309,6.246-8.38,6.246H12.473c-4.07,0-7.501-2.677-8.379-6.246H60.354z"/>
</g>
</svg>
