<?xml version="1.0" encoding="utf-8"?>
<!-- Generator: Adobe Illustrator 16.0.0, SVG Export Plug-In . SVG Version: 6.00 Build 0)  -->
<!DOCTYPE svg PUBLIC "-//W3C//DTD SVG 1.1//EN" "http://www.w3.org/Graphics/SVG/1.1/DTD/svg11.dtd">
<svg version="1.1" id="Layer_1" xmlns="http://www.w3.org/2000/svg" xmlns:xlink="http://www.w3.org/1999/xlink" x="0px" y="0px"
	 width="64px" height="64px" viewBox="0 0 64 64" enable-background="new 0 0 64 64" xml:space="preserve">
<g>
	<path fill="#E04434" d="M33.978,7.258c-11.461,0-21.086,7.961-23.786,18.671h5.171c2.55-7.909,9.925-13.647,18.615-13.647
		c10.797,0,19.584,8.846,19.584,19.719c0,10.875-8.786,19.719-19.584,19.719c-7.944,0-14.786-4.799-17.848-11.663H21.5l-8.027-8.084
		l-7.457,7.513L5.45,40.057h5.324c3.33,9.695,12.46,16.687,23.203,16.687c13.552,0,24.574-11.1,24.574-24.742
		C58.551,18.357,47.528,7.257,33.978,7.258L33.978,7.258z"/>
	<path fill="#E04434" d="M43.214,31.97c0-5.176-4.172-9.373-9.312-9.373c-5.14,0-9.311,4.197-9.311,9.373
		c0,5.179,4.172,9.376,9.311,9.376C39.042,41.346,43.214,37.148,43.214,31.97z"/>
</g>
</svg>
