<?xml version="1.0" encoding="utf-8"?>
<!-- Generator: Adobe Illustrator 16.0.0, SVG Export Plug-In . SVG Version: 6.00 Build 0)  -->
<!DOCTYPE svg PUBLIC "-//W3C//DTD SVG 1.1//EN" "http://www.w3.org/Graphics/SVG/1.1/DTD/svg11.dtd">
<svg version="1.1" id="Layer_1" xmlns="http://www.w3.org/2000/svg" xmlns:xlink="http://www.w3.org/1999/xlink" x="0px" y="0px"
	 width="64px" height="64px" viewBox="0 0 64 64" enable-background="new 0 0 64 64" xml:space="preserve">
<g>
	<path fill="#FFBC04" d="M57.153,31.517l-5.815-4.504c-0.428-0.321-1.015,0-1.015,0.483v2.413H43.92
		c-0.319,0-0.586,0.269-0.586,0.59v2.949c0,0.322,0.267,0.59,0.586,0.59h6.403v2.413c0,0.536,0.587,0.804,1.015,0.481l5.815-4.503
		C57.42,32.214,57.42,31.785,57.153,31.517z"/>
	<path fill="#FFBC04" d="M20.761,33.501v-2.949c0-0.322-0.267-0.59-0.587-0.59h-6.403v-2.413c0-0.537-0.587-0.805-1.014-0.483
		l-5.87,4.45c-0.32,0.269-0.32,0.751,0,0.965l5.816,4.503c0.427,0.322,1.014,0,1.014-0.481v-2.413h6.404
		C20.441,34.091,20.761,33.822,20.761,33.501L20.761,33.501z"/>
	<path fill="#FFBC04" d="M41.037,25.029c0.214,0.269,0.642,0.269,0.855,0l4.535-4.558l1.708,1.716
		c0.374,0.375,0.961,0.161,1.066-0.375l0.908-7.292c0.053-0.376-0.267-0.751-0.694-0.697l-7.257,0.912
		c-0.48,0.053-0.694,0.697-0.375,1.072l1.708,1.716l-4.535,4.557c-0.214,0.268-0.214,0.644,0,0.858L41.037,25.029z"/>
	<path fill="#FFBC04" d="M23.002,38.97c-0.213-0.214-0.64-0.214-0.854,0l-4.535,4.558l-1.708-1.717
		c-0.374-0.374-0.96-0.16-1.067,0.377l-0.907,7.292c-0.053,0.375,0.267,0.75,0.694,0.697l7.257-0.912
		c0.48-0.054,0.694-0.696,0.374-1.072l-1.708-1.716l4.536-4.558c0.213-0.215,0.213-0.644,0-0.858L23.002,38.97z"/>
	<path fill="#FFBC04" d="M32.501,6.744c-0.268-0.321-0.747-0.321-0.961,0l-4.482,5.845c-0.32,0.429,0,1.019,0.48,1.019h2.401v6.435
		c0,0.322,0.267,0.59,0.587,0.59h2.935c0.319,0,0.586-0.268,0.586-0.59v-6.435h2.402c0.533,0,0.8-0.589,0.48-1.019L32.501,6.744z"/>
	<path fill="#FFBC04" d="M36.502,50.392h-2.399v-6.436c0-0.32-0.269-0.589-0.589-0.589H30.58c-0.32,0-0.587,0.269-0.587,0.589v6.436
		h-2.401c-0.534,0-0.8,0.589-0.48,1.019l4.483,5.844c0.267,0.322,0.747,0.322,0.959,0l4.482-5.844
		C37.302,50.98,37.035,50.392,36.502,50.392L36.502,50.392z"/>
	<path fill="#FFBC04" d="M15.905,22.187l1.708-1.716l4.536,4.558c0.213,0.214,0.64,0.214,0.854,0l2.081-2.091
		c0.214-0.269,0.214-0.644,0-0.858l-4.536-4.557l1.708-1.716c0.374-0.376,0.16-0.965-0.374-1.072l-7.257-0.912
		c-0.374-0.053-0.747,0.269-0.694,0.698l0.907,7.292C14.892,22.294,15.532,22.509,15.905,22.187L15.905,22.187z"/>
	<path fill="#FFBC04" d="M48.136,41.812l-1.708,1.716l-4.535-4.558c-0.214-0.214-0.642-0.214-0.855,0l-2.08,2.092
		c-0.267,0.214-0.267,0.643,0,0.857l4.535,4.558l-1.708,1.716c-0.372,0.377-0.158,0.966,0.375,1.073l7.257,0.911
		c0.374,0.053,0.747-0.269,0.694-0.697l-0.908-7.292C49.149,41.704,48.508,41.49,48.136,41.812L48.136,41.812z"/>
	<path fill="#FFBC04" d="M37.035,32c0,2.784-2.245,5.04-5.015,5.04c-2.771,0-5.016-2.256-5.016-5.04s2.246-5.041,5.016-5.041
		C34.79,26.959,37.035,29.216,37.035,32"/>
</g>
</svg>
