<?xml version="1.0" encoding="utf-8"?>
<!-- Generator: Adobe Illustrator 16.0.0, SVG Export Plug-In . SVG Version: 6.00 Build 0)  -->
<!DOCTYPE svg PUBLIC "-//W3C//DTD SVG 1.1//EN" "http://www.w3.org/Graphics/SVG/1.1/DTD/svg11.dtd">
<svg version="1.1" id="Layer_1" xmlns="http://www.w3.org/2000/svg" xmlns:xlink="http://www.w3.org/1999/xlink" x="0px" y="0px"
	 width="64px" height="64px" viewBox="0 0 64 64" enable-background="new 0 0 64 64" xml:space="preserve">
<g>
	<path fill="#FFBC04" d="M48.418,49.393h-1.729v4.318H32.863v-4.318h-1.727v4.318H17.31v-4.318h-1.728v4.318H6.077v3.456h51.847
		v-3.456h-9.506V49.393z"/>
	<path fill="#FFBC04" d="M14.69,17.654l-3.25,4.224c-0.338-0.084-0.688-0.129-1.043-0.129c-2.382,0-4.32,1.937-4.32,4.319
		c0,1.111,0.437,2.19,1.203,2.976c0.055,0.071,0.108,0.122,0.14,0.15c0.793,0.771,1.851,1.194,2.978,1.194
		c2.383,0,4.321-1.938,4.321-4.32c0-0.334-0.04-0.672-0.119-1.013c-0.089-0.374-0.246-0.72-0.432-1.051l3.263-4.24
		C16.292,19.392,15.33,18.637,14.69,17.654L14.69,17.654z"/>
	<path fill="#FFBC04" d="M6.077,5.333v3.455H17.31v3.073c-1.028,0.6-1.728,1.702-1.728,2.976c0,1.905,1.55,3.456,3.457,3.456
		s3.456-1.55,3.456-3.456c0-1.274-0.7-2.375-1.728-2.976V8.788h22.468v3.073c-1.029,0.6-1.73,1.702-1.73,2.976
		c0,1.905,1.553,3.456,3.457,3.456c1.906,0,3.457-1.55,3.457-3.456c0-1.274-0.699-2.375-1.729-2.976V8.788h11.234V5.333H6.077z"/>
	<path fill="#FFBC04" d="M9.533,40.739c0,0,0.053-5.951,0.021-6.377c-0.013-0.168-0.021-0.343-0.021-0.521
		c0-0.617,0.113-1.207,0.312-1.757c-1.206-0.108-2.31-0.574-3.208-1.29c-0.358,0.948-0.56,1.974-0.56,3.047
		C6.077,36.663,7.438,39.164,9.533,40.739L9.533,40.739z"/>
	<path fill="#FFBC04" d="M30.272,37.298h3.457v3.457h-3.457V37.298z"/>
	<path fill="#FFBC04" d="M26.816,37.298v10.366h10.368V37.298h-1.727v5.183h-6.914v-5.183H26.816z"/>
	<path fill="#FFBC04" d="M11.261,37.298v10.366h10.37V37.298h-1.728v5.183H12.99v-5.183H11.261z"/>
	<path fill="#FFBC04" d="M14.718,37.298h3.457v3.457h-3.457V37.298z"/>
	<path fill="#FFBC04" d="M42.369,37.298v10.366h10.369V37.298H51.01v5.183h-6.912v-5.183H42.369z"/>
	<path fill="#FFBC04" d="M45.826,37.298h3.457v3.457h-3.457V37.298z"/>
	<path fill="#FFBC04" d="M53.604,21.748c-0.357,0-0.707,0.045-1.045,0.129l-3.248-4.224c-0.639,0.983-1.602,1.738-2.74,2.108
		l3.264,4.241c-0.188,0.334-0.346,0.681-0.434,1.057c-0.078,0.334-0.117,0.673-0.117,1.007c0,2.382,1.938,4.32,4.32,4.32
		c1.127,0,2.186-0.424,2.98-1.197c0.029-0.026,0.082-0.076,0.137-0.147c0.766-0.785,1.203-1.864,1.203-2.976
		C57.924,23.685,55.984,21.748,53.604,21.748L53.604,21.748z"/>
	<path fill="#FFBC04" d="M43.113,27.795H20.886c-1.194-1.217-2.745-2.082-4.484-2.425c0.027,0.229,0.044,0.461,0.044,0.697
		c0,0.943-0.228,1.873-0.646,2.707c2.343,0.498,4.103,2.577,4.103,5.068c0,0.607-0.114,1.187-0.306,1.728h3.575
		c0.116-0.559,0.187-1.134,0.187-1.728c0-0.905-0.146-1.774-0.404-2.592h8.181v4.319h1.729V31.25h8.182
		c-0.26,0.818-0.406,1.687-0.406,2.592c0,0.594,0.072,1.169,0.188,1.728h3.576c-0.191-0.541-0.307-1.12-0.307-1.728
		c0-2.491,1.76-4.572,4.105-5.068c-0.412-0.815-0.648-1.733-0.648-2.707c0-0.231,0.014-0.463,0.041-0.696
		C45.857,25.714,44.309,26.58,43.113,27.795L43.113,27.795z"/>
	<path fill="#FFBC04" d="M54.156,32.087c0.197,0.549,0.311,1.139,0.311,1.754c0,0.231-0.012,0.456-0.035,0.675
		c-0.037,0.366,0.035,6.223,0.035,6.223c2.096-1.575,3.457-4.076,3.457-6.897c0-1.07-0.201-2.094-0.557-3.04
		C56.461,31.532,55.348,31.982,54.156,32.087L54.156,32.087z"/>
</g>
</svg>
