<?xml version="1.0" encoding="utf-8"?>
<!-- Generator: Adobe Illustrator 16.0.0, SVG Export Plug-In . SVG Version: 6.00 Build 0)  -->
<!DOCTYPE svg PUBLIC "-//W3C//DTD SVG 1.1//EN" "http://www.w3.org/Graphics/SVG/1.1/DTD/svg11.dtd">
<svg version="1.1" id="Layer_1" xmlns="http://www.w3.org/2000/svg" xmlns:xlink="http://www.w3.org/1999/xlink" x="0px" y="0px"
	 width="64px" height="64px" viewBox="0 0 64 64" enable-background="new 0 0 64 64" xml:space="preserve">
<g>
	<path fill="#9834E4" d="M17.438,43.347c-0.652,0-1.271,0.113-1.84,0.317c-2.563-3.717-5.887-9.947-4.961-16.337
		c0.651-4.493,3.307-8.449,7.894-11.782l-0.877,2.559c-0.088,0.259-0.06,0.535,0.085,0.773c0.141,0.24,0.382,0.415,0.678,0.498
		c0.138,0.035,0.282,0.049,0.427,0.037c0.24-0.02,0.462-0.101,0.645-0.242c0.159-0.122,0.279-0.286,0.346-0.475l1.871-5.466
		c0.114-0.333,0.029-0.691-0.226-0.954c-0.24-0.249-0.615-0.384-1.027-0.344l-6.355,0.8c-0.62,0.083-1.055,0.598-0.971,1.147
		c0.084,0.534,0.622,0.917,1.289,0.866h0.003l1.967-0.249c-4.627,3.563-7.321,7.78-8.017,12.576
		c-1.018,7.036,2.606,13.79,5.357,17.758c-0.788,0.782-1.268,1.813-1.268,2.947c0,2.443,2.228,4.427,4.979,4.427
		c2.749,0,4.977-1.983,4.977-4.427C22.415,45.329,20.187,43.347,17.438,43.347L17.438,43.347z"/>
	<path fill="#9834E4" d="M49.367,49.854c1.215-3.267,1.338-6.429,0.349-9.434c-1.649-5.018-6.098-8.506-9.241-10.432l2.232-0.022
		c0.304-0.001,0.588-0.109,0.805-0.304c0.21-0.194,0.328-0.449,0.325-0.719c-0.007-0.524-0.455-0.957-1.044-1.002l-6.531,0.053
		c-0.392,0.005-0.748,0.186-0.956,0.481c-0.208,0.296-0.229,0.66-0.06,0.974l2.775,5.158c0.096,0.172,0.241,0.315,0.424,0.417
		c0.152,0.085,0.324,0.139,0.505,0.151c0.2,0.017,0.406-0.017,0.591-0.095c0.276-0.118,0.483-0.323,0.583-0.581
		c0.1-0.254,0.086-0.531-0.047-0.775l-1.216-2.26c2.867,1.706,7.143,4.91,8.662,9.528c0.838,2.54,0.749,5.229-0.255,8.037
		c-0.296-0.05-0.6-0.079-0.912-0.079c-2.748,0-4.974,1.982-4.974,4.432c0,2.443,2.226,4.426,4.974,4.426
		c2.751,0,4.979-1.982,4.979-4.426C51.338,51.937,50.561,50.66,49.367,49.854L49.367,49.854z"/>
	<path fill="#9834E4" d="M37.201,38.857c0,2.447-2.229,4.431-4.98,4.431c-2.75,0-4.979-1.983-4.979-4.431
		c0-2.446,2.229-4.43,4.979-4.43C34.972,34.428,37.201,36.411,37.201,38.857"/>
	<path fill="#9834E4" d="M24.396,20.845h-7.744c-0.611,0-1.105,0.439-1.105,0.982v6.892c0,0.543,0.494,0.985,1.105,0.985h7.744
		c0.61,0,1.104-0.441,1.104-0.985v-6.892C25.5,21.284,25.006,20.845,24.396,20.845z"/>
	<path fill="#9834E4" d="M30.632,15.19h7.747c0.61,0,1.104-0.439,1.104-0.982V7.316c0-0.542-0.493-0.983-1.104-0.983h-7.747
		c-0.611,0-1.104,0.44-1.104,0.983v6.891C29.527,14.75,30.021,15.19,30.632,15.19z"/>
	<path fill="#9834E4" d="M55.206,22.698h-7.744c-0.61,0-1.104,0.439-1.104,0.983v6.891c0,0.543,0.494,0.983,1.104,0.983h7.744
		c0.611,0,1.105-0.439,1.105-0.983v-6.891C56.313,23.139,55.817,22.698,55.206,22.698z"/>
</g>
</svg>
