<?xml version="1.0" encoding="utf-8"?>
<!-- Generator: Adobe Illustrator 16.0.0, SVG Export Plug-In . SVG Version: 6.00 Build 0)  -->
<!DOCTYPE svg PUBLIC "-//W3C//DTD SVG 1.1//EN" "http://www.w3.org/Graphics/SVG/1.1/DTD/svg11.dtd">
<svg version="1.1" id="Layer_1" xmlns="http://www.w3.org/2000/svg" xmlns:xlink="http://www.w3.org/1999/xlink" x="0px" y="0px"
	 width="64px" height="64px" viewBox="0 0 64 64" enable-background="new 0 0 64 64" xml:space="preserve">
<g>
	<path fill="#0C9C54" d="M50.772,35.83c0.165-1.036,0.276-2.073,0.276-3.11c0-3.165-0.772-6.167-2.206-8.786l5.128-3.984
		c2.316,3.82,3.529,8.186,3.529,12.771c0,1.801-0.22,3.547-0.606,5.293L50.772,35.83z M32.354,57.5
		c6.672,0,13.014-2.564,17.757-7.205c1.874-1.856,3.474-3.984,4.632-6.275l-6.121-2.184c-3.254,5.566-9.319,9.332-16.268,9.277
		c-10.313-0.056-18.64-8.35-18.585-18.502c0-3.056,0.772-5.894,2.096-8.459l-5.184-3.875c-2.151,3.711-3.309,7.914-3.364,12.334
		c0,6.605,2.591,12.825,7.334,17.521c4.687,4.746,10.974,7.311,17.701,7.367H32.354z M32.464,7.833
		c-6.672,0-12.959,2.565-17.702,7.259l-0.165,0.163l5.183,3.875c3.364-3.056,7.831-4.967,12.738-4.912
		c4.798,0,9.154,1.801,12.407,4.748l5.129-3.983C45.313,10.398,39.082,7.888,32.464,7.833L32.464,7.833z M32.409,28.354
		c-2.371,0-4.356,1.911-4.356,4.311c0,2.348,1.931,4.313,4.356,4.313c2.371,0,4.357-1.912,4.357-4.313
		C36.766,30.319,34.779,28.354,32.409,28.354z M43.935,34.959c-0.331,1.527-0.938,2.944-1.765,4.202l1.544,1.528
		c0.386,0.381,0.386,0.981,0,1.365l-1.875,1.854c-0.387,0.384-0.992,0.384-1.379,0l-1.545-1.527c-1.269,0.817-2.7,1.42-4.245,1.746
		v2.184c0,0.547-0.441,0.981-0.992,0.981H31.03c-0.552,0-0.993-0.435-0.993-0.981v-2.184c-1.544-0.326-2.978-0.929-4.246-1.746
		l-1.544,1.527c-0.386,0.384-0.992,0.384-1.378,0l-1.875-1.854c-0.387-0.384-0.387-0.984,0-1.365l1.544-1.528
		c-0.827-1.257-1.434-2.675-1.765-4.202h-2.205c-0.552,0-0.993-0.438-0.993-0.982v-2.621c0-0.545,0.441-0.982,0.993-0.982h2.205
		c0.331-1.528,0.938-2.947,1.765-4.203l-1.544-1.528c-0.387-0.382-0.387-0.982,0-1.364l1.875-1.855c0.386-0.383,0.992-0.383,1.378,0
		l1.544,1.528c1.269-0.819,2.702-1.418,4.246-1.747v-2.183c0-0.546,0.441-0.982,0.993-0.982h2.647c0.551,0,0.992,0.437,0.992,0.982
		v2.183c1.545,0.327,2.977,0.927,4.245,1.747l1.545-1.528c0.387-0.383,0.992-0.383,1.379,0l1.875,1.855
		c0.386,0.382,0.386,0.982,0,1.364l-1.544,1.528c0.827,1.255,1.433,2.674,1.765,4.203h2.205c0.552,0,0.993,0.437,0.993,0.982v2.621
		c0,0.545-0.442,0.982-0.993,0.982H43.935z M39.247,32.665c0-3.71-3.088-6.767-6.838-6.767c-3.75,0-6.838,3.057-6.838,6.767
		c0,3.711,3.088,6.769,6.838,6.769C36.158,39.434,39.247,36.376,39.247,32.665z"/>
</g>
</svg>
