<?xml version="1.0" encoding="utf-8"?>
<!-- Generator: Adobe Illustrator 16.0.0, SVG Export Plug-In . SVG Version: 6.00 Build 0)  -->
<!DOCTYPE svg PUBLIC "-//W3C//DTD SVG 1.1//EN" "http://www.w3.org/Graphics/SVG/1.1/DTD/svg11.dtd">
<svg version="1.1" id="Layer_1" xmlns="http://www.w3.org/2000/svg" xmlns:xlink="http://www.w3.org/1999/xlink" x="0px" y="0px"
	 width="64px" height="64px" viewBox="0 0 64 64" enable-background="new 0 0 64 64" xml:space="preserve">
<g>
	<path fill="#4884F4" d="M41.975,38.528l-1.741-2.304c0.256-0.666,0.359-0.82,0.615-1.484l2.866-0.41
		c0.205-0.051,0.358-0.205,0.358-0.41v-3.891c0-0.205-0.153-0.359-0.358-0.41l-2.866-0.41c-0.257-0.666-0.359-0.819-0.615-1.485
		l1.741-2.304c0.103-0.153,0.103-0.41-0.052-0.512l-2.764-2.765c-0.154-0.153-0.359-0.153-0.513-0.051l-2.304,1.741
		c-0.666-0.256-0.819-0.359-1.484-0.614l-0.41-2.867c-0.051-0.205-0.205-0.359-0.41-0.359h-3.891c-0.205,0-0.358,0.154-0.41,0.359
		l-0.41,2.867c-0.666,0.256-0.819,0.358-1.484,0.614l-2.304-1.741c-0.154-0.102-0.41-0.102-0.512,0.051l-2.765,2.765
		c-0.154,0.154-0.154,0.359-0.051,0.512l1.741,2.304c-0.256,0.666-0.358,0.819-0.614,1.485l-2.867,0.41
		c-0.205,0.051-0.358,0.205-0.358,0.41v3.891c0,0.205,0.153,0.359,0.358,0.41l2.867,0.41c0.256,0.665,0.358,0.818,0.614,1.484
		l-1.741,2.304c-0.103,0.153-0.103,0.409,0.051,0.513l2.765,2.764c0.153,0.154,0.358,0.154,0.512,0.051l2.304-1.74
		c0.666,0.256,0.819,0.359,1.484,0.615l0.41,2.867c0.051,0.203,0.205,0.357,0.41,0.357h3.891c0.205,0,0.359-0.152,0.41-0.357
		l0.41-2.867c0.666-0.256,0.818-0.359,1.484-0.615l2.304,1.74c0.153,0.104,0.409,0.104,0.513-0.051l2.764-2.764
		C42.077,38.938,42.077,38.732,41.975,38.528z M32.093,36.48c-2.458,0-4.506-1.997-4.506-4.506c0-2.458,1.997-4.506,4.506-4.506
		c2.457,0,4.506,1.997,4.506,4.506C36.599,34.432,34.55,36.48,32.093,36.48z"/>
	<path fill="#4884F4" d="M29.891,12.109l1.229-1.229v5.837c0,0.512,0.41,0.921,0.921,0.921c0.512,0,0.921-0.41,0.921-0.921v-5.888
		l1.229,1.229c0.357,0.359,0.973,0.359,1.33,0c0.359-0.358,0.359-0.973,0-1.331l-2.764-2.816c-0.359-0.358-0.974-0.358-1.332,0
		l-2.867,2.867c-0.205,0.205-0.256,0.41-0.256,0.666c0,0.256,0.102,0.461,0.256,0.666C28.969,12.467,29.533,12.467,29.891,12.109
		L29.891,12.109z"/>
	<path fill="#4884F4" d="M15.555,20.403c0.512,0,0.921-0.41,0.921-0.921v-1.741l4.096,4.096c0.358,0.358,0.973,0.358,1.331,0
		c0.358-0.359,0.358-0.973,0-1.331l-4.096-4.096h1.741c0.512,0,0.921-0.41,0.921-0.921c0-0.512-0.41-0.921-0.921-0.921h-4.044
		c-0.512,0-0.921,0.41-0.921,0.921v4.044c0,0.256,0.103,0.512,0.256,0.666C15.043,20.301,15.299,20.403,15.555,20.403L15.555,20.403
		z"/>
	<path fill="#4884F4" d="M10.947,32.896h5.837c0.512,0,0.921-0.41,0.921-0.922c0-0.512-0.41-0.921-0.921-0.921h-5.837l1.229-1.229
		c0.358-0.358,0.358-0.973,0-1.331c-0.359-0.358-0.973-0.358-1.332,0l-2.816,2.816c-0.358,0.358-0.358,0.973,0,1.332l2.867,2.867
		c0.205,0.204,0.41,0.256,0.666,0.256c0.256,0,0.461-0.104,0.666-0.256c0.358-0.359,0.358-0.974,0-1.332L10.947,32.896z"/>
	<path fill="#4884F4" d="M20.624,42.113l-4.096,4.096v-1.742c0-0.512-0.41-0.92-0.921-0.92c-0.512,0-0.921,0.408-0.921,0.92v4.045
		c0,0.514,0.41,0.922,0.921,0.922h4.044c0.256,0,0.512-0.102,0.666-0.256c0.153-0.154,0.256-0.41,0.256-0.666
		c0-0.512-0.41-0.922-0.921-0.922h-1.741l4.096-4.096c0.358-0.357,0.358-0.973,0-1.33c-0.461-0.41-1.024-0.41-1.383-0.053V42.113z"
		/>
	<path fill="#4884F4" d="M34.294,51.84l-1.229,1.229v-5.785c0-0.512-0.409-0.922-0.921-0.922c-0.512,0-0.921,0.41-0.921,0.922v5.838
		l-1.229-1.23c-0.358-0.357-0.973-0.357-1.331,0c-0.359,0.359-0.359,0.975,0,1.332l2.867,2.867c0.358,0.357,0.973,0.357,1.331,0
		l2.867-2.867c0.204-0.205,0.256-0.41,0.256-0.666s-0.103-0.461-0.256-0.666C35.216,51.482,34.653,51.482,34.294,51.84L34.294,51.84
		z"/>
	<path fill="#4884F4" d="M48.63,43.547c-0.512,0-0.921,0.408-0.921,0.92v1.742l-4.097-4.098c-0.357-0.357-0.973-0.357-1.33,0
		c-0.359,0.359-0.359,0.973,0,1.332l4.096,4.096h-1.74c-0.513,0-0.922,0.41-0.922,0.922s0.41,0.922,0.922,0.922h4.044
		c0.513,0,0.921-0.41,0.921-0.922v-4.045c0-0.256-0.102-0.512-0.256-0.666C49.143,43.648,48.886,43.547,48.63,43.547L48.63,43.547z"
		/>
	<path fill="#4884F4" d="M56.157,31.309l-2.867-2.867c-0.205-0.205-0.41-0.256-0.666-0.256s-0.461,0.103-0.666,0.256
		c-0.358,0.358-0.358,0.973,0,1.331l1.229,1.229h-5.785c-0.512,0-0.921,0.41-0.921,0.921c0,0.512,0.409,0.921,0.921,0.921h5.838
		l-1.229,1.229c-0.358,0.357-0.358,0.973,0,1.33c0.358,0.359,0.973,0.359,1.331,0l2.867-2.867
		C56.516,32.282,56.516,31.667,56.157,31.309L56.157,31.309z"/>
	<path fill="#4884F4" d="M43.562,21.837l4.096-4.096v1.741c0,0.512,0.41,0.921,0.922,0.921s0.922-0.41,0.922-0.921v-4.044
		c0-0.512-0.41-0.921-0.922-0.921h-4.045c-0.256,0-0.512,0.103-0.666,0.256c-0.152,0.154-0.256,0.41-0.256,0.666
		c0,0.512,0.41,0.922,0.922,0.922h1.74l-4.096,4.096c-0.358,0.359-0.358,0.973,0,1.331C42.537,22.144,43.203,22.195,43.562,21.837
		L43.562,21.837z"/>
</g>
</svg>
