<?xml version="1.0" encoding="utf-8"?>
<!-- Generator: Adobe Illustrator 16.0.0, SVG Export Plug-In . SVG Version: 6.00 Build 0)  -->
<!DOCTYPE svg PUBLIC "-//W3C//DTD SVG 1.1//EN" "http://www.w3.org/Graphics/SVG/1.1/DTD/svg11.dtd">
<svg version="1.1" id="Layer_1" xmlns="http://www.w3.org/2000/svg" xmlns:xlink="http://www.w3.org/1999/xlink" x="0px" y="0px"
	 width="64px" height="64px" viewBox="0 0 64 64" enable-background="new 0 0 64 64" xml:space="preserve">
<g>
	<path fill="#0C9C54" d="M44.546,43.81V19.715h-4.957l-6.88,7.689l-6.882-7.689H20.87V43.81h5.919V29.502l5.92,6.619l5.918-6.619
		V43.81H44.546z"/>
	<path fill="#0C9C54" d="M56.384,14.755c0-1.503-0.623-2.946-1.733-4.009s-2.614-1.661-4.186-1.661h-8.876v5.669h8.876v8.503h5.919
		V14.755z"/>
	<path fill="#0C9C54" d="M56.384,40.267h-5.919v8.503h-8.876v5.669h8.876c1.571,0,3.075-0.597,4.186-1.662
		c1.11-1.063,1.733-2.504,1.733-4.007V40.267z"/>
	<path fill="#0C9C54" d="M9.033,48.771c0,1.502,0.623,2.942,1.733,4.006c1.111,1.065,2.616,1.662,4.186,1.662h8.878v-5.668h-8.878
		v-8.504H9.033V48.771z"/>
	<path fill="#0C9C54" d="M14.951,14.755h8.878V9.086h-8.878c-1.57,0-3.074,0.598-4.186,1.661c-1.11,1.063-1.733,2.505-1.733,4.009
		v8.503h5.919V14.755z"/>
</g>
</svg>
