<?xml version="1.0" encoding="utf-8"?>
<!-- Generator: Adobe Illustrator 16.0.0, SVG Export Plug-In . SVG Version: 6.00 Build 0)  -->
<!DOCTYPE svg PUBLIC "-//W3C//DTD SVG 1.1//EN" "http://www.w3.org/Graphics/SVG/1.1/DTD/svg11.dtd">
<svg version="1.1" id="Layer_1" xmlns="http://www.w3.org/2000/svg" xmlns:xlink="http://www.w3.org/1999/xlink" x="0px" y="0px"
	 width="64px" height="64px" viewBox="0 0 64 64" enable-background="new 0 0 64 64" xml:space="preserve">
<g>
	<path fill="#FF7C14" d="M31.685,5.354l-7.122,4.698V6.286c0.002-0.514,0.634-0.931,1.412-0.932H31.685z"/>
	<path fill="#FF7C14" d="M39.797,6.286v0.475l-11.134,7.344h-0.848l-0.001,0.001c-0.521,0-1-0.19-1.244-0.494l-1.201-1.454
		l10.316-6.803h2.697v0C39.162,5.355,39.794,5.772,39.797,6.286L39.797,6.286z"/>
	<path fill="#FF7C14" d="M32.66,14.106l7.137-4.707v1.547c0.001,0.157-0.057,0.31-0.17,0.447l-1.838,2.217v0.001
		c-0.241,0.305-0.721,0.496-1.243,0.494H32.66z"/>
	<path fill="#FF7C14" d="M28.406,39.166l-0.933-0.354v-8.501h11.247v8.501l-0.932,0.354c-2.672-0.994-2.08-0.979-4.691,0
		C30.419,38.169,31.043,38.178,28.406,39.166L28.406,39.166z"/>
	<path fill="#FF7C14" d="M49.813,30.313h-8.268v9.051c0.004,0.333-0.275,0.642-0.72,0.801c-3.44,1.299-2.635,1.303-5.382,0.271
		c-2.681,0.996-2.052,0.989-4.692,0c-2.766,1.028-1.973,1.021-5.398-0.271c-0.437-0.163-0.707-0.47-0.707-0.801v-9.051h-8.266
		c-1.123,0.003-2.199,0.297-2.993,0.821c-0.794,0.524-1.242,1.235-1.245,1.976v19.608h41.907V33.109
		c-0.002-0.741-0.453-1.451-1.246-1.976c-0.792-0.524-1.868-0.818-2.993-0.821H49.813z M17.556,42.289
		c-0.008,0.511-0.639,0.923-1.414,0.923c-0.774,0-1.404-0.412-1.413-0.923v-5.378c0-0.515,0.633-0.932,1.413-0.932
		c0.781,0,1.414,0.417,1.414,0.932V42.289z M17.556,34.218c-0.008,0.512-0.639,0.924-1.414,0.924c-0.774,0-1.404-0.412-1.413-0.924
		v-0.895c0.009-0.511,0.639-0.922,1.413-0.922c0.774,0,1.405,0.412,1.414,0.922V34.218z"/>
	<path fill="#FF7C14" d="M12.144,54.582h41.907v0.577c0,0.741-0.446,1.452-1.241,1.977c-0.796,0.523-1.873,0.819-2.996,0.819H16.383
		c-1.124,0-2.201-0.296-2.996-0.819c-0.796-0.524-1.243-1.235-1.243-1.977V54.582z"/>
	<path fill="#FF7C14" d="M38.411,19.958c-0.043-0.108-0.19-0.185-0.359-0.185c-0.173,0-0.32,0.077-0.362,0.185
		c-0.186,0.425-0.541,0.808-1.031,1.11c-1.133-0.932-3.29-3.408-5.722-1.323c-0.118-0.61,0.118-1.226,0.66-1.726
		c0.543-0.499,1.352-0.845,2.264-0.968c0.754-0.128,1.289-0.568,1.313-1.081h-5.609c-0.132,0.189-0.336,0.353-0.592,0.475
		c-1.113,0.498-1.991,1.191-2.536,2.001c-0.545,0.812-0.733,1.706-0.545,2.584c0.168,0.655,0.603,1.268,1.259,1.771
		c-2.312,1.873-0.892,0.723-6.98,5.647h3.66c4.54-3.676,3.31-2.679,5.623-4.557c3.438,1.006,8.139,0.171,9.013-2.555v0.001
		C38.613,20.881,38.592,20.41,38.411,19.958L38.411,19.958z M32.617,21.329l0.368-0.299l0.72,0.597h0.001
		C33.318,21.572,32.949,21.471,32.617,21.329z"/>
	<path fill="#FF7C14" d="M45.688,28.449h-3.631l-4.142-3.383c0.085-0.037,0.157-0.075,0.24-0.111
		c0.683-0.344,1.275-0.76,1.751-1.231L45.688,28.449z"/>
</g>
</svg>
