<?xml version="1.0" encoding="utf-8"?>
<!-- Generator: Adobe Illustrator 16.0.0, SVG Export Plug-In . SVG Version: 6.00 Build 0)  -->
<!DOCTYPE svg PUBLIC "-//W3C//DTD SVG 1.1//EN" "http://www.w3.org/Graphics/SVG/1.1/DTD/svg11.dtd">
<svg version="1.1" id="Layer_1" xmlns="http://www.w3.org/2000/svg" xmlns:xlink="http://www.w3.org/1999/xlink" x="0px" y="0px"
	 width="64px" height="64px" viewBox="0 0 64 64" enable-background="new 0 0 64 64" xml:space="preserve">
<g>
	<path fill="#9834E4" d="M28.936,52.518l0.622,4.717c0.066,0.505-0.339,0.951-0.865,0.951H8.493c-0.526,0-0.932-0.446-0.866-0.951
		l0.623-4.717c0.056-0.421,0.427-0.737,0.866-0.737h18.954c0.439,0,0.81,0.316,0.865,0.737H28.936z"/>
	<path fill="#9834E4" d="M25.878,33.846v16.667H11.302V33.846c1.518,2.356,4.213,3.918,7.284,3.918
		C21.657,37.764,24.36,36.202,25.878,33.846z"/>
	<path fill="#9834E4" d="M20.609,29.439c0,1.081-0.907,1.959-2.015,1.959c-1.117,0-2.023-0.878-2.023-1.959
		c0-1.072,0.907-1.95,2.023-1.95C19.703,27.489,20.609,28.367,20.609,29.439z"/>
	<path fill="#9834E4" d="M25.737,28.063c-0.653-3.242-3.603-5.673-7.153-5.673c-0.253,0-0.505,0.009-0.759,0.034
		c-3.655,0.372-6.524,3.368-6.524,7.016c0,3.9,3.28,7.059,7.283,7.059c4.039,0,7.293-3.158,7.293-7.059
		C25.877,28.966,25.825,28.51,25.737,28.063L25.737,28.063z M18.594,32.664c-1.84,0-3.333-1.443-3.333-3.225
		c0-1.773,1.492-3.217,3.333-3.217c1.832,0,3.323,1.444,3.323,3.217C21.917,31.221,20.425,32.664,18.594,32.664z"/>
	<path fill="#9834E4" d="M31.879,11.219c0,0.634-0.546,1.081-1.116,1.081c-1.361,0-1.529-2-0.114-2.153h0.114
		C31.384,10.147,31.879,10.633,31.879,11.219z"/>
	<path fill="#9834E4" d="M30.188,5.867c-2.712,0.27-4.867,2.448-4.98,5.125c-0.009,0.076-0.009,0.152-0.009,0.228
		c0,2.972,2.513,5.387,5.566,5.387c2.983,0,5.565-2.322,5.565-5.387C36.329,7.825,33.058,5.428,30.188,5.867z M30.764,13.567
		c-1.334,0-2.425-1.056-2.425-2.348c0-1.243,0.99-2.212,2.181-2.33c0.052-0.009,0.148-0.009,0.245-0.009
		c1.313,0,2.424,1.021,2.424,2.339C33.188,12.56,32.055,13.567,30.764,13.567L30.764,13.567z"/>
	<path fill="#9834E4" d="M48.752,10.316c0,1.811-1.527,3.224-3.331,3.224c-4.418,0-4.454-6.449,0-6.449
		C47.225,7.092,48.752,8.5,48.752,10.316z"/>
	<path fill="#9834E4" d="M32.456,17.67l-5.784,8.949c-1.195-3.225-4.379-5.462-8.007-5.497l5.408-8.375
		c0.715,2.929,3.445,5.125,6.69,5.125C31.348,17.873,31.915,17.805,32.456,17.67L32.456,17.67z"/>
	<path fill="#9834E4" d="M40.785,10.308c0,0.92,0.271,1.857,0.812,2.626H37.4c0.157-0.549,0.235-1.124,0.235-1.715
		c0-1.064-0.245-2.026-0.672-2.878h4.259C40.933,8.94,40.785,9.607,40.785,10.308L40.785,10.308z"/>
	<path fill="#9834E4" d="M47.65,14.259v3.588c-1.302-0.606-2.988-0.683-4.465,0.008V14.31c0.627,0.313,1.369,0.498,2.233,0.498
		C46.23,14.808,46.987,14.605,47.65,14.259z"/>
	<path fill="#9834E4" d="M52.589,25.69c-0.145-0.112,0.128,0.053-3.495-1.852c1.262-2.893-1.484-5.577-4.085-5.188
		c-1.915,0.188-3.463,1.727-3.556,3.65c0.014,0.049-0.045,0.735,0.271,1.548c-3.033,1.597-3.356,1.755-3.469,1.841
		c-2.422-1.954-5.354,1.819-2.816,3.58c0.681,0.464,1.484,0.534,2.128,0.304c0.073,0.165-0.111-0.077,4.37,4.315
		c0.271,0.261,0.673,0.253,0.926,0.008c0.261-0.245,0.261-0.65,0.009-0.896l-4.247-4.153c0.463-0.573,0.622-1.289,0.383-2.136
		c0-0.008,0.009-0.008,0.009-0.008l3.379-1.767c0.198,0.224,0.424,0.443,0.715,0.645c2.031,1.379,4.114,0.724,5.307-0.662
		l3.405,1.784c0.01,0,0.01,0.008,0.018,0.008c-0.241,0.597-0.176,1.478,0.383,2.136l-4.257,4.154
		c-0.253,0.244-0.253,0.65,0.009,0.895c0.254,0.246,0.654,0.253,0.925-0.008c4.568-4.464,4.335-4.203,4.389-4.322
		c0.688,0.247,1.418,0.135,1.961-0.194C58.007,27.742,55.177,23.688,52.589,25.69L52.589,25.69z"/>
</g>
</svg>
