<?xml version="1.0" encoding="utf-8"?>
<!-- Generator: Adobe Illustrator 16.0.0, SVG Export Plug-In . SVG Version: 6.00 Build 0)  -->
<!DOCTYPE svg PUBLIC "-//W3C//DTD SVG 1.1//EN" "http://www.w3.org/Graphics/SVG/1.1/DTD/svg11.dtd">
<svg version="1.1" id="Layer_1" xmlns="http://www.w3.org/2000/svg" xmlns:xlink="http://www.w3.org/1999/xlink" x="0px" y="0px"
	 width="64px" height="64px" viewBox="0 0 64 64" enable-background="new 0 0 64 64" xml:space="preserve">
<g>
	<path fill="#4884F4" d="M56.938,10.333H6.396c-0.311,0-0.563,0.247-0.563,0.55v5.319c0,0.304,0.252,0.551,0.563,0.551h50.541
		c0.312,0,0.563-0.246,0.563-0.551v-5.322C57.5,10.579,57.249,10.333,56.938,10.333L56.938,10.333z M44.219,14.692
		c-0.54,0-1.027-0.318-1.233-0.806c-0.209-0.489-0.095-1.051,0.288-1.425c0.382-0.374,0.958-0.486,1.456-0.284
		c0.5,0.203,0.826,0.68,0.826,1.208c0,0.347-0.143,0.679-0.392,0.924C44.914,14.555,44.572,14.692,44.219,14.692L44.219,14.692z
		 M48.983,14.692c-0.541-0.001-1.025-0.321-1.23-0.81c-0.206-0.488-0.093-1.05,0.29-1.423c0.383-0.373,0.958-0.483,1.457-0.281
		c0.499,0.203,0.823,0.68,0.823,1.208c0,0.347-0.141,0.679-0.392,0.924c-0.249,0.245-0.591,0.382-0.946,0.382H48.983z
		 M53.748,14.692L53.748,14.692c-0.54-0.001-1.026-0.321-1.232-0.81c-0.203-0.488-0.09-1.05,0.294-1.423
		c0.383-0.373,0.957-0.483,1.456-0.281c0.499,0.203,0.823,0.68,0.823,1.208c0,0.722-0.598,1.306-1.336,1.306H53.748z"/>
	<path fill="#4884F4" d="M56.938,17.576H6.396c-0.311,0-0.563,0.247-0.563,0.55v33.658c0,0.303,0.252,0.549,0.563,0.549h50.541
		c0.312,0,0.563-0.246,0.563-0.549V18.125C57.5,17.822,57.249,17.576,56.938,17.576L56.938,17.576z M51.464,37.371
		c-0.381,0.371-0.9,0.582-1.438,0.582c-0.539,0-1.059-0.211-1.439-0.582l-4.335-4.242l-6.749,9.832
		c-0.329,0.478-0.856,0.793-1.443,0.858c-0.128,0.015-0.258,0.019-0.385,0.01h-0.021c-0.119-0.009-0.237-0.026-0.354-0.057
		c-0.018-0.004-0.035-0.01-0.054-0.015c-0.103-0.029-0.201-0.064-0.294-0.109c-0.038-0.016-0.073-0.035-0.109-0.055
		c-0.053-0.03-0.11-0.052-0.161-0.086c-0.021-0.015-0.038-0.034-0.057-0.049c-0.048-0.032-0.089-0.071-0.134-0.107l0,0
		c-0.057-0.046-0.111-0.095-0.163-0.148c-0.045-0.044-0.082-0.097-0.121-0.146l0,0c-0.041-0.051-0.081-0.105-0.118-0.161
		c-0.014-0.02-0.028-0.034-0.04-0.056l-6.423-10.875l-6.446,10.921c-0.02,0.033-0.047,0.061-0.068,0.092
		c-0.021,0.032-0.041,0.056-0.061,0.084h0c-0.052,0.073-0.11,0.143-0.172,0.206c-0.016,0.017-0.026,0.035-0.042,0.051
		c-0.037,0.035-0.078,0.061-0.115,0.092c-0.037,0.033-0.075,0.063-0.115,0.092v-0.001c-0.39,0.286-0.872,0.425-1.359,0.391
		c-0.485-0.033-0.942-0.236-1.287-0.573l-6.092-5.957c-0.381-0.373-0.595-0.88-0.595-1.406c0-0.528,0.214-1.034,0.595-1.407
		c0.382-0.373,0.899-0.583,1.439-0.583c0.539,0,1.057,0.21,1.438,0.583l4.221,4.128L25.864,27c0.041-0.063,0.086-0.125,0.135-0.184
		c0.006-0.009,0.013-0.018,0.02-0.027c0.076-0.097,0.16-0.187,0.253-0.268l0.016-0.015h0c0.099-0.085,0.205-0.16,0.319-0.224
		l0.009-0.006h0.005c0.111-0.062,0.227-0.113,0.348-0.153l0.033-0.012c0.109-0.034,0.223-0.06,0.337-0.075
		c0.02-0.003,0.039-0.008,0.058-0.01l0,0c0.104-0.01,0.209-0.013,0.314-0.008h0.085c0.091,0.009,0.182,0.024,0.271,0.044
		c0.043,0.009,0.086,0.016,0.127,0.028c0.07,0.022,0.14,0.047,0.208,0.076c0.061,0.024,0.121,0.049,0.179,0.079
		c0.02,0.01,0.041,0.016,0.058,0.027c0.033,0.019,0.058,0.043,0.091,0.063l0,0c0.067,0.042,0.132,0.087,0.193,0.136
		c0.042,0.033,0.078,0.068,0.116,0.104v0c0.06,0.056,0.116,0.116,0.17,0.179c0.03,0.037,0.056,0.077,0.084,0.113
		c0.027,0.036,0.071,0.085,0.099,0.134l6.55,11.092l6.266-9.133c0.331-0.535,0.9-0.885,1.536-0.945
		c0.636-0.059,1.265,0.18,1.691,0.644l6.026,5.896c0.384,0.373,0.6,0.879,0.6,1.407s-0.216,1.034-0.598,1.407V37.371z"/>
</g>
</svg>
