<?xml version="1.0" encoding="utf-8"?>
<!-- Generator: Adobe Illustrator 16.0.0, SVG Export Plug-In . SVG Version: 6.00 Build 0)  -->
<!DOCTYPE svg PUBLIC "-//W3C//DTD SVG 1.1//EN" "http://www.w3.org/Graphics/SVG/1.1/DTD/svg11.dtd">
<svg version="1.1" id="Layer_1" xmlns="http://www.w3.org/2000/svg" xmlns:xlink="http://www.w3.org/1999/xlink" x="0px" y="0px"
	 width="64px" height="64px" viewBox="0 0 64 64" enable-background="new 0 0 64 64" xml:space="preserve">
<g>
	<path fill="#8F00FF" d="M10.091,24.111c0.538,0.298,1.135,0.537,1.792,0.537s1.254-0.179,1.792-0.537
		c1.016-0.598,1.673-1.732,1.673-2.987c0-1.912-1.553-3.464-3.465-3.464s-3.465,1.553-3.465,3.464
		C8.418,22.379,9.076,23.514,10.091,24.111L10.091,24.111z M11.883,20.288C11.883,20.288,11.943,20.288,11.883,20.288l0.956-1.254
		c0.179-0.179,0.418-0.239,0.657-0.12c0.179,0.179,0.238,0.418,0.119,0.657l-0.955,1.254c0.059,0.12,0.059,0.179,0.059,0.299
		c0,0.478-0.418,0.896-0.896,0.896s-0.896-0.418-0.896-0.896C10.986,20.646,11.404,20.288,11.883,20.288L11.883,20.288z"/>
	<path fill="#8F00FF" d="M5.611,21.064c0,2.271,1.135,4.301,2.986,5.436v2.867c0,0.777,0.598,1.374,1.373,1.374h0.598v0.299
		c0,3.046,2.51,5.615,5.555,5.556c2.987-0.061,5.377-2.449,5.377-5.437V13.06c0-3.405,2.629-6.212,6.033-6.332
		c3.523-0.12,6.391,2.748,6.391,6.212v0.657c0,0.239,0.18,0.418,0.419,0.418h1.313c0.239,0,0.419-0.179,0.419-0.418l-0.001-0.717
		c0-4.719-3.882-8.482-8.602-8.362c-4.6,0.12-8.184,3.942-8.184,8.542V31.1c0,1.792-1.373,3.285-3.105,3.345
		c-1.912,0.12-3.465-1.434-3.465-3.285v-0.418h1.075c0.776,0,1.374-0.597,1.374-1.374V26.5c1.792-1.135,2.986-3.106,2.986-5.316
		c0-3.584-3.047-6.511-6.689-6.272C8.238,15.091,5.611,17.839,5.611,21.064L5.611,21.064z M11.883,16.764
		c2.449,0,4.42,1.972,4.42,4.421c0,1.314-0.598,2.509-1.553,3.345c-0.776,0.657-1.792,1.075-2.867,1.075
		c-1.074,0-2.091-0.418-2.867-1.075c-0.955-0.836-1.553-2.031-1.553-3.345C7.463,18.735,9.434,16.764,11.883,16.764L11.883,16.764z"
		/>
	<path fill="#8F00FF" d="M29.026,15.569c0.119-0.239,0-0.478-0.239-0.478h-2.568c-0.955,0-1.672,0.777-1.672,1.672v26.521
		c0,0.956,0.776,1.673,1.672,1.673h2.568c0.239,0,0.418-0.299,0.239-0.478c-0.12-0.239-0.239-0.538-0.239-0.836V16.465
		C28.787,16.107,28.906,15.868,29.026,15.569L29.026,15.569z"/>
	<path fill="#8F00FF" d="M53.219,7.027c-2.211,0-4.003,1.792-4.003,4.002v4.122H32.133c-0.957,0-1.673,0.776-1.673,1.672v26.522
		c0,0.955,0.776,1.672,1.673,1.672h17.561c0.957,0,1.673-0.776,1.673-1.672V11.03c0-1.016,0.837-1.852,1.853-1.852
		c1.015,0,1.852,0.836,1.852,1.852v36.019c0,2.27-1.554,4.182-3.645,4.719v-0.18c0-0.299-0.238-0.598-0.598-0.598h-1.613
		c-1.015-1.911-3.523-3.285-6.391-3.285s-5.376,1.374-6.393,3.285h-0.955c-0.299,0-0.598,0.239-0.598,0.598h-0.418
		c-0.239,0-0.419,0.18-0.419,0.419v2.03c0,0.239,0.179,0.419,0.419,0.419h0.418c0,0.358,0.299,0.597,0.598,0.597h0.955
		c1.016,1.912,3.525,3.286,6.393,3.286s5.316-1.374,6.391-3.286h1.613c0.359,0,0.598-0.238,0.598-0.597v-0.478
		c3.285-0.598,5.854-3.465,5.854-6.93L57.28,11.03C57.221,8.819,55.429,7.027,53.219,7.027L53.219,7.027z M45.154,50.096
		c-1.016-0.239-2.21-0.12-3.345,0.478c-0.956,0.478-1.673,1.075-2.21,1.852c-0.06,0.12-0.299,0.06-0.299-0.06v-1.613
		c0-0.119,0.06-0.238,0.18-0.357c0.836-0.658,1.971-1.076,3.285-1.076c0.896,0,1.791,0.18,2.449,0.538
		C45.393,49.916,45.334,50.154,45.154,50.096L45.154,50.096z"/>
</g>
</svg>
