<?xml version="1.0" encoding="utf-8"?>
<!-- Generator: Adobe Illustrator 16.0.0, SVG Export Plug-In . SVG Version: 6.00 Build 0)  -->
<!DOCTYPE svg PUBLIC "-//W3C//DTD SVG 1.1//EN" "http://www.w3.org/Graphics/SVG/1.1/DTD/svg11.dtd">
<svg version="1.1" id="Layer_1" xmlns="http://www.w3.org/2000/svg" xmlns:xlink="http://www.w3.org/1999/xlink" x="0px" y="0px"
	 width="64px" height="64px" viewBox="0 0 64 64" enable-background="new 0 0 64 64" xml:space="preserve">
<g>
	<path fill="#FFBC04" d="M23.202,12.893c-0.923,0-1.666,0.681-1.666,1.525v5.202c0,0.847,0.743,1.528,1.666,1.528
		c0.919,0,1.663-0.681,1.663-1.528v-1.774c0.765,0.496,1.22,1.297,1.22,2.156c0,1.46-1.292,2.643-2.883,2.643
		c-1.594,0-2.885-1.183-2.885-2.643v-4.37h-2.04c-1.136,0-2.217,0.263-3.063,0.879c-0.845,0.619-1.381,1.579-1.497,2.674
		l-1.662,24.077c-0.077,1.106,0.193,2.173,0.911,2.98c0.715,0.81,1.848,1.315,3.104,1.315h20.445
		c-0.015-0.129-0.021-0.256-0.021-0.379v-1.91H16.354c-0.613,0-0.987-0.195-1.269-0.514c-0.281-0.313-0.429-0.79-0.395-1.396
		l1.059-18.784h31.106l0.791,14.02l2.695,1.633l-1.457-21.042c-0.113-1.095-0.649-2.055-1.494-2.674
		c-0.849-0.616-1.93-0.878-3.064-0.878h-3.26v-1.215c0-0.844-0.742-1.525-1.661-1.525c-0.926,0-1.666,0.681-1.666,1.525v5.202
		c0,0.847,0.74,1.528,1.666,1.528c0.919,0,1.661-0.681,1.661-1.528v-1.774c0.764,0.496,1.22,1.297,1.22,2.157
		c0,1.459-1.292,2.643-2.884,2.643c-1.591,0-2.883-1.184-2.883-2.643v-4.37H24.866v-1.215
		C24.866,13.574,24.124,12.893,23.202,12.893L23.202,12.893z"/>
	<path fill="#FFBC04" d="M20.112,28.469h4.137c0.606,0,1.094,0.448,1.094,1.003v2.96c0,0.557-0.488,1.003-1.094,1.003h-4.137
		c-0.607,0-1.094-0.447-1.094-1.003v-2.96C19.018,28.916,19.505,28.469,20.112,28.469z"/>
	<path fill="#FFBC04" d="M29.235,28.469h4.138c0.606,0,1.094,0.448,1.094,1.003v2.96c0,0.557-0.487,1.003-1.094,1.003h-4.138
		c-0.606,0-1.093-0.447-1.093-1.003v-2.96C28.142,28.916,28.629,28.469,29.235,28.469z"/>
	<path fill="#FFBC04" d="M38.36,28.469h4.138c0.606,0,1.094,0.448,1.094,1.003v2.96c0,0.557-0.489,1.003-1.094,1.003H38.36
		c-0.606,0-1.094-0.447-1.094-1.003v-2.96C37.265,28.916,37.754,28.469,38.36,28.469z"/>
	<path fill="#FFBC04" d="M20.112,36.406h4.137c0.606,0,1.094,0.449,1.094,1.007v2.959c0,0.556-0.488,1.007-1.094,1.007h-4.137
		c-0.607,0-1.094-0.451-1.094-1.007v-2.959C19.018,36.855,19.505,36.406,20.112,36.406z"/>
	<path fill="#FFBC04" d="M29.235,36.406h4.138c0.606,0,1.094,0.449,1.094,1.007v2.959c0,0.556-0.487,1.007-1.094,1.007h-4.138
		c-0.606,0-1.093-0.451-1.093-1.007v-2.959C28.142,36.855,28.629,36.406,29.235,36.406z"/>
	<path fill="#FFBC04" d="M38.443,38.191l-0.009,8.983c0,1.353,1.09,2.026,1.979,1.427l2.468-1.675l1.963,3.424
		c0.391,0.683,1.218,0.978,1.856,0.657l1.451-0.722c0.634-0.32,0.834-1.122,0.443-1.804l-1.959-3.429l3.225-1.03
		c0.792-0.252,0.694-1.472-0.525-2.28l-8.094-4.9C39.945,36.063,38.447,36.607,38.443,38.191L38.443,38.191z"/>
</g>
</svg>
