<?xml version="1.0" encoding="utf-8"?>
<!-- Generator: Adobe Illustrator 16.0.0, SVG Export Plug-In . SVG Version: 6.00 Build 0)  -->
<!DOCTYPE svg PUBLIC "-//W3C//DTD SVG 1.1//EN" "http://www.w3.org/Graphics/SVG/1.1/DTD/svg11.dtd">
<svg version="1.1" id="Layer_1" xmlns="http://www.w3.org/2000/svg" xmlns:xlink="http://www.w3.org/1999/xlink" x="0px" y="0px"
	 width="64px" height="64px" viewBox="0 0 64 64" enable-background="new 0 0 64 64" xml:space="preserve">
<g>
	<path fill="#ec008c" d="M55.587,16.467h-1.942v-0.84c0-0.533-0.215-1.045-0.598-1.423c-0.383-0.376-0.901-0.589-1.441-0.589h-2.5
		c-0.542,0-1.061,0.212-1.443,0.589c-0.382,0.378-0.597,0.89-0.597,1.423v0.84H42.28l-0.869-3.915H41.41
		c-0.088-0.393-0.307-0.744-0.624-0.997c-0.317-0.251-0.713-0.389-1.119-0.389H24.391c-0.408,0-0.802,0.137-1.12,0.389
		c-0.317,0.252-0.538,0.603-0.625,0.997l-0.87,3.915H8.47c-1.587,0-3.11,0.622-4.232,1.729c-1.123,1.106-1.753,2.609-1.752,4.174
		v26.392c-0.001,1.565,0.629,3.069,1.752,4.175c1.123,1.106,2.646,1.729,4.232,1.729h47.117c1.588,0,3.111-0.622,4.233-1.729
		c1.122-1.105,1.753-2.609,1.753-4.175V22.371c0-1.565-0.631-3.068-1.753-4.174C58.698,17.089,57.175,16.467,55.587,16.467
		L55.587,16.467z M32.029,48.626c-3.512,0-6.879-1.377-9.362-3.825c-2.483-2.449-3.878-5.769-3.878-9.233
		c0-3.463,1.394-6.784,3.877-9.233c2.483-2.449,5.85-3.825,9.361-3.825c3.511,0,6.878,1.375,9.361,3.824
		c2.483,2.448,3.879,5.77,3.879,9.232c0,3.466-1.395,6.785-3.877,9.233C38.907,47.248,35.54,48.625,32.029,48.626L32.029,48.626z
		 M54.92,25.72L54.92,25.72c-0.691,0-1.354-0.272-1.843-0.753c-0.489-0.482-0.763-1.136-0.763-1.818
		c0-0.682,0.273-1.336,0.763-1.819c0.488-0.481,1.151-0.752,1.843-0.752s1.354,0.271,1.844,0.752
		c0.488,0.483,0.763,1.137,0.763,1.819s-0.274,1.335-0.763,1.818C56.274,25.448,55.611,25.72,54.92,25.72L54.92,25.72z"/>
	<path fill="#ec008c" d="M42.348,35.566c0,5.621-4.619,10.178-10.318,10.178c-5.699,0-10.319-4.557-10.319-10.178
		S26.331,25.39,32.029,25.39C37.729,25.39,42.348,29.945,42.348,35.566"/>
</g>
</svg>
