<?xml version="1.0" encoding="utf-8"?>
<!-- Generator: Adobe Illustrator 16.0.0, SVG Export Plug-In . SVG Version: 6.00 Build 0)  -->
<!DOCTYPE svg PUBLIC "-//W3C//DTD SVG 1.1//EN" "http://www.w3.org/Graphics/SVG/1.1/DTD/svg11.dtd">
<svg version="1.1" id="Layer_1" xmlns="http://www.w3.org/2000/svg" xmlns:xlink="http://www.w3.org/1999/xlink" x="0px" y="0px"
	 width="64px" height="64px" viewBox="0 0 64 64" enable-background="new 0 0 64 64" xml:space="preserve">
<path fill="#ffbc04" d="M50.742,20.675l-2.295-2.466c-0.479-0.503-1.244-0.5-1.719,0.01c-0.473,0.509-0.475,1.332-0.008,1.846
	l2.295,2.466L37.92,34.452l-2.906-3.121c-0.477-0.503-1.244-0.5-1.717,0.009c-0.475,0.509-0.478,1.333-0.01,1.847l2.906,3.121
	l-8.654,9.297l-2.295-2.465c-0.479-0.504-1.245-0.5-1.717,0.01c-0.475,0.508-0.478,1.332-0.009,1.846l2.294,2.465l-6.452,6.934
	c-0.085,0.139-0.231,0.223-0.387,0.223s-0.301-0.086-0.386-0.225c-1.169-1.252-3.061-1.252-4.228,0l-5.593,6.01
	c-0.91,0.932-2.341,0.932-3.251,0c-0.432-0.465-0.674-1.092-0.674-1.748c0-0.654,0.242-1.283,0.674-1.746l5.593-6.008
	c1.166-1.258,1.165-3.289-0.002-4.545c-0.102-0.109-0.16-0.26-0.159-0.414c0-0.156,0.058-0.307,0.161-0.416l11.945-12.835
	l2.906,3.122c0.478,0.502,1.244,0.498,1.718-0.01c0.472-0.51,0.476-1.334,0.009-1.848l-2.906-3.121l9.266-9.953l2.904,3.122
	c0.307,0.337,0.76,0.471,1.184,0.35c0.424-0.12,0.758-0.477,0.869-0.933c0.113-0.457-0.012-0.942-0.326-1.272l-2.906-3.122
	L49.48,4.295c1.123-1.203,2.939-1.203,4.063,0l4.191,4.504c1.119,1.207,1.119,3.158,0,4.364L50.742,20.675z"/>
</svg>
