<?xml version="1.0" encoding="utf-8"?>
<!-- Generator: Adobe Illustrator 16.0.0, SVG Export Plug-In . SVG Version: 6.00 Build 0)  -->
<!DOCTYPE svg PUBLIC "-//W3C//DTD SVG 1.1//EN" "http://www.w3.org/Graphics/SVG/1.1/DTD/svg11.dtd">
<svg version="1.1" id="Layer_1" xmlns="http://www.w3.org/2000/svg" xmlns:xlink="http://www.w3.org/1999/xlink" x="0px" y="0px"
	 width="64px" height="64px" viewBox="0 0 64 64" enable-background="new 0 0 64 64" xml:space="preserve">
<g>
	<path fill="#326ED1" d="M52.965,14.541H13.988c-0.731,0-1.434,0.333-1.953,0.928c-0.519,0.593-0.81,1.399-0.81,2.238v28.584
		c0,0.842,0.292,1.646,0.811,2.24s1.223,0.928,1.955,0.928h38.974c0.734,0,1.436-0.334,1.955-0.93
		c0.518-0.594,0.807-1.396,0.807-2.238V17.707c0-0.839-0.289-1.644-0.807-2.237C54.4,14.875,53.697,14.541,52.965,14.541
		L52.965,14.541z M48.588,19.508c0.221-0.255,0.521-0.398,0.834-0.396h2.498c0.645,0.015,1.158,0.616,1.158,1.354
		c0,0.736-0.514,1.339-1.158,1.354h-2.498c-0.477-0.001-0.91-0.331-1.092-0.836C48.146,20.478,48.25,19.895,48.588,19.508
		L48.588,19.508z M48.588,24.133c0.221-0.255,0.521-0.398,0.834-0.398h2.498c0.654,0,1.182,0.607,1.182,1.355
		c0,0.749-0.527,1.354-1.182,1.354h-2.498c-0.477,0-0.91-0.33-1.092-0.836C48.146,25.102,48.25,24.52,48.588,24.133L48.588,24.133z
		 M48.588,28.756L48.588,28.756c0.221-0.254,0.521-0.397,0.834-0.396h2.498c0.654,0,1.182,0.607,1.182,1.355
		c0,0.747-0.527,1.355-1.182,1.355h-2.498c-0.479,0-0.91-0.331-1.092-0.837C48.146,29.726,48.25,29.145,48.588,28.756L48.588,28.756
		z M45.818,41.723c0,0.84-0.295,1.646-0.813,2.24c-0.516,0.594-1.221,0.928-1.953,0.928H18.23c-0.733,0-1.436-0.334-1.953-0.928
		c-0.519-0.594-0.81-1.4-0.81-2.24v-7.605h6.941c0.252,0,0.487-0.145,0.63-0.385l2.371-4.023l3.294,9.324
		c0.116,0.326,0.394,0.543,0.703,0.543h0.024c0.319-0.014,0.596-0.25,0.697-0.598l3.04-10.533l2.503,8.877
		c0.098,0.346,0.375,0.586,0.691,0.602s0.609-0.199,0.732-0.533l1.385-3.807h7.34V41.723z M45.818,31.846h-7.842
		c-0.307,0-0.58,0.211-0.701,0.532l-0.789,2.171l-2.587-9.167c-0.101-0.358-0.392-0.602-0.719-0.603
		c-0.328,0-0.619,0.24-0.721,0.596l-3.123,10.812l-3.057-8.643h0.001c-0.104-0.298-0.345-0.504-0.624-0.54
		c-0.279-0.032-0.552,0.113-0.709,0.379l-2.941,4.992h-6.54V22.277c0-0.84,0.291-1.645,0.81-2.239
		c0.518-0.593,1.222-0.927,1.955-0.927h24.822c0.732,0,1.438,0.333,1.953,0.927c0.52,0.593,0.811,1.399,0.811,2.239V31.846z
		 M50.672,44.838v-0.002c-0.775,0-1.52-0.352-2.066-0.977c-0.547-0.629-0.855-1.48-0.855-2.369c0-0.887,0.309-1.738,0.855-2.365
		s1.291-0.98,2.066-0.98s1.518,0.352,2.066,0.98c0.547,0.627,0.854,1.479,0.854,2.365c0,0.889-0.309,1.738-0.854,2.367
		c-0.549,0.627-1.291,0.979-2.066,0.979V44.838z"/>
	<path fill="#326ED1" d="M50.672,39.264c-0.516,0-1.01,0.234-1.373,0.65c-0.365,0.418-0.568,0.982-0.568,1.572
		s0.203,1.156,0.568,1.574c0.363,0.418,0.857,0.652,1.371,0.652c0.516,0,1.01-0.232,1.373-0.65c0.365-0.416,0.57-0.982,0.57-1.572
		s-0.205-1.156-0.568-1.574C51.682,39.5,51.186,39.264,50.672,39.264L50.672,39.264z"/>
</g>
</svg>
