<?xml version="1.0" encoding="utf-8"?>
<!-- Generator: Adobe Illustrator 16.0.0, SVG Export Plug-In . SVG Version: 6.00 Build 0)  -->
<!DOCTYPE svg PUBLIC "-//W3C//DTD SVG 1.1//EN" "http://www.w3.org/Graphics/SVG/1.1/DTD/svg11.dtd">
<svg version="1.1" id="Layer_1" xmlns="http://www.w3.org/2000/svg" xmlns:xlink="http://www.w3.org/1999/xlink" x="0px" y="0px"
	 width="64px" height="64px" viewBox="0 0 64 64" enable-background="new 0 0 64 64" xml:space="preserve">
<g>
	<path fill="#09821D" d="M57.343,35.84c0,0.428-0.354,0.776-0.807,0.776h-7.791l-3.382,3.142c-0.153,0.147-0.364,0.225-0.565,0.225
		c-0.209,0-0.421-0.085-0.581-0.24c-0.307-0.311-0.299-0.799,0.024-1.094l3.616-3.367c0.146-0.139,0.347-0.217,0.557-0.217h8.122
		C56.988,35.064,57.343,35.414,57.343,35.84L57.343,35.84z"/>
	<path fill="#09821D" d="M47.607,32.241c0-0.427,0.363-0.775,0.807-0.775h8.122c0.452,0,0.807,0.349,0.807,0.775
		c0,0.427-0.354,0.776-0.807,0.776h-8.122C47.971,33.017,47.607,32.668,47.607,32.241z"/>
	<path fill="#09821D" d="M44.798,39.982c-0.21,0-0.421-0.077-0.581-0.232c-0.307-0.311-0.299-0.799,0.017-1.094l3.615-3.367
		c0.153-0.139,0.355-0.217,0.565-0.217h8.122c0.443,0,0.807,0.35,0.807,0.776s-0.363,0.775-0.807,0.775h-7.799l-3.374,3.134
		C45.2,39.905,44.999,39.982,44.798,39.982L44.798,39.982z"/>
	<path fill="#09821D" d="M56.536,33.016h-8.122c-0.444,0-0.807-0.349-0.807-0.775s0.362-0.775,0.807-0.775h8.122
		c0.443,0,0.807,0.349,0.807,0.775S56.979,33.016,56.536,33.016z"/>
	<path fill="#09821D" d="M31.558,39.658l5.514-1.994c0.104-0.039,0.193-0.117,0.242-0.217c0.049-0.102,0.049-0.218,0.008-0.318
		l-0.459-1.102l-4.077,1.474l-2.245,0.814l0.452,1.087c0.048,0.115,0.129,0.201,0.234,0.248
		C31.332,39.688,31.454,39.696,31.558,39.658L31.558,39.658z"/>
	<path fill="#09821D" d="M28.217,37.492l0.993-0.357l6.539-2.365l2.294-0.822l-0.59-1.497l-9.825,3.545L28.217,37.492z"/>
	<path fill="#09821D" d="M17.858,45.297c-0.444,0-0.855,0.07-1.243,0.201c-1.284,0.42-2.252,1.459-2.535,2.716
		c-0.057,0.256-0.088,0.535-0.088,0.799v2.071h7.742v-2.071c0-0.993-0.403-1.933-1.138-2.63
		C19.852,45.685,18.883,45.297,17.858,45.297L17.858,45.297z M17.85,50.146c-0.864,0-1.566-0.675-1.566-1.505
		s0.702-1.506,1.566-1.506s1.558,0.676,1.558,1.506S18.714,50.146,17.85,50.146z"/>
	<path fill="#09821D" d="M33.439,49.238h8.323v1.854h-8.323V49.238z"/>
	<path fill="#09821D" d="M17.85,48.694v-0.101l-0.056,0.047C17.802,48.671,17.826,48.694,17.85,48.694z"/>
	<path fill="#09821D" d="M45.282,52.643H12.376c-1.163,0-2.252,0.435-3.076,1.227c-0.629,0.598-1.042,1.357-1.203,2.18h41.463
		C49.181,54.109,47.405,52.643,45.282,52.643L45.282,52.643z"/>
	<path fill="#09821D" d="M17.932,27.338c0.048,0.217,0.121,0.427,0.202,0.628c0.008,0.023,0.024,0.046,0.032,0.077
		c0.089,0.202,0.202,0.396,0.323,0.582c0.008,0.015,0.024,0.031,0.033,0.046c0.694,0.97,1.857,1.614,3.172,1.614
		c1.065,0,2.05-0.404,2.785-1.141c0.694-0.69,1.073-1.598,1.073-2.568c0-1.908-1.55-3.53-3.527-3.692
		c-0.129-0.016-0.226-0.023-0.339-0.023c-2.124,0-3.851,1.668-3.851,3.708c0,0.24,0.024,0.473,0.073,0.698
		C17.923,27.292,17.923,27.315,17.932,27.338L17.932,27.338z M21.701,25.065c0.864,0,1.566,0.675,1.566,1.505
		s-0.702,1.505-1.566,1.505c-0.864,0-1.566-0.675-1.566-1.505C20.143,25.74,20.837,25.065,21.701,25.065z"/>
	<path fill="#09821D" d="M31.21,46.755c0,0.513,0.436,0.931,0.969,0.931h0.46h9.93h0.46c0.533,0,0.969-0.418,0.969-0.931
		s-0.436-0.931-0.969-0.931H32.172C31.639,45.832,31.21,46.243,31.21,46.755L31.21,46.755z"/>
	<path fill="#09821D" d="M21.701,26.516l-0.049,0.054c0,0.031,0.024,0.046,0.048,0.046L21.701,26.516z"/>
	<path fill="#09821D" d="M22.687,21.396c0.638,0.108,1.235,0.333,1.776,0.636c0,0,0.008,0,0.008,0.008
		c0.258,0.147,0.508,0.318,0.742,0.504c0.017,0.008,0.024,0.015,0.041,0.031c0.217,0.186,0.428,0.38,0.613,0.598
		c0.016,0.023,0.032,0.039,0.048,0.062c0.178,0.209,0.347,0.435,0.493,0.667c0.016,0.031,0.032,0.054,0.048,0.085
		c0.137,0.233,0.266,0.481,0.363,0.737c0.008,0.031,0.024,0.062,0.033,0.093c0.097,0.264,0.178,0.527,0.234,0.807
		c0.008,0.023,0.008,0.046,0.008,0.07c0.048,0.287,0.081,0.582,0.081,0.884c0,0.279-0.024,0.543-0.072,0.814
		c-0.008,0.039-0.008,0.078-0.017,0.117c-0.048,0.256-0.113,0.497-0.193,0.737c-0.016,0.047-0.032,0.093-0.048,0.14
		c-0.089,0.241-0.194,0.466-0.323,0.69c-0.016,0.039-0.041,0.07-0.065,0.101c-0.137,0.233-0.291,0.458-0.46,0.667l1.744,4.46
		l8.476-3.056l-6.781-17.346l-8.477,3.057L22.687,21.396z"/>
	<path fill="#09821D" d="M21.464,12.742l4.708-1.701l0.81,2.069l-4.708,1.701L21.464,12.742z"/>
	<path fill="#09821D" d="M13.007,46.568c0.104-0.193,0.226-0.38,0.355-0.559c0.048-0.063,0.105-0.124,0.153-0.186
		c0.097-0.125,0.194-0.248,0.307-0.365c0.065-0.069,0.137-0.131,0.21-0.193c0.104-0.102,0.21-0.194,0.323-0.287
		c0.081-0.063,0.162-0.125,0.242-0.179c0.113-0.077,0.226-0.163,0.347-0.233c0.041-0.023,0.073-0.046,0.105-0.069
		c-1.38-1.769-2.124-3.917-2.124-6.159c0-3.359,1.72-6.501,4.545-8.425c-0.048-0.055-0.089-0.117-0.129-0.179
		c-0.072-0.093-0.154-0.194-0.218-0.295c-0.057-0.077-0.105-0.163-0.153-0.248c-0.065-0.108-0.122-0.217-0.178-0.326
		c-0.033-0.07-0.073-0.14-0.105-0.217c-0.081-0.178-0.153-0.364-0.21-0.559c-0.016-0.054-0.032-0.116-0.048-0.17
		c-0.041-0.147-0.081-0.303-0.105-0.458c-0.008-0.039-0.016-0.07-0.024-0.108c-3.963,2.296-6.466,6.485-6.466,10.984
		c0,3.072,1.114,5.966,3.156,8.278C12.99,46.592,12.999,46.576,13.007,46.568L13.007,46.568z"/>
	<path fill="#09821D" d="M19.61,11.761l0.517-0.186l0.008-0.008l5.74-2.071l1.018-0.365c0.323-0.117,0.492-0.465,0.371-0.784
		c-0.056-0.155-0.178-0.271-0.331-0.341c-0.081-0.038-0.169-0.054-0.258-0.054c-0.073,0-0.145,0.016-0.218,0.039l-7.29,2.63
		c-0.25,0.093-0.412,0.318-0.412,0.574c0,0.078,0.008,0.147,0.032,0.202C18.917,11.714,19.28,11.877,19.61,11.761L19.61,11.761z"/>
</g>
</svg>
