<?xml version="1.0" encoding="utf-8"?>
<!-- Generator: Adobe Illustrator 16.0.0, SVG Export Plug-In . SVG Version: 6.00 Build 0)  -->
<!DOCTYPE svg PUBLIC "-//W3C//DTD SVG 1.1//EN" "http://www.w3.org/Graphics/SVG/1.1/DTD/svg11.dtd">
<svg version="1.1" id="Layer_1" xmlns="http://www.w3.org/2000/svg" xmlns:xlink="http://www.w3.org/1999/xlink" x="0px" y="0px"
	 width="64px" height="64px" viewBox="0 0 64 64" enable-background="new 0 0 64 64" xml:space="preserve">
<g>
	<path fill="#09821D" d="M46.095,55.25h-28.2c-0.324,0-0.588,0.229-0.588,0.51s0.264,0.508,0.588,0.508h28.2
		c0.324,0,0.586-0.227,0.586-0.508S46.419,55.25,46.095,55.25z"/>
	<path fill="#09821D" d="M47.778,36.891c-0.078-0.004-0.152-0.009-0.23-0.009H16.443c-0.077,0-0.153,0.005-0.229,0.009
		c-1.467,0.103-2.627,1.167-2.627,2.463v0.059l0.012,0.057l2.582,12.962c0.039,1.334,1.306,2.409,2.856,2.409h25.92
		c1.553,0,2.818-1.075,2.857-2.409l2.582-12.962l0.012-0.057v-0.059c0-1.295-1.16-2.358-2.627-2.463H47.778z M31.996,46.927
		c-0.681,0-1.23-0.477-1.23-1.065c0-0.588,0.55-1.063,1.23-1.063c0.679,0,1.228,0.476,1.228,1.063
		C33.224,46.45,32.675,46.927,31.996,46.927z"/>
	<path fill="#09821D" d="M25.969,35.651c0-0.72-0.21-1.58-0.581-2.374c-0.166-0.064-0.301-0.178-0.379-0.319
		c-0.637-1.153-1.5-1.871-2.251-1.871c-0.768,0-1.672,0.774-2.305,1.971c-0.086,0.165-0.247,0.289-0.442,0.349
		c-0.338,0.768-0.524,1.562-0.524,2.244c0,0.071,0,0.143,0.001,0.214h6.481V35.651L25.969,35.651z"/>
	<path fill="#09821D" d="M47.778,35.875c-0.268-3.473-2.797-6.408-6.328-7.709c0.018,0.031,0.037,0.06,0.053,0.09
		c0.225,0.412,0.367,0.842,0.434,1.259c0.162,0.039,0.32,0.092,0.475,0.164c1.145,0.531,1.576,1.762,0.963,2.753
		c-0.611,0.99-2.035,1.364-3.18,0.833c-1.143-0.529-1.574-1.762-0.963-2.752c0.342-0.556,0.941-0.916,1.602-1.033
		c-0.141-0.627-0.51-1.313-1.098-1.8c-0.457-0.092-0.928-0.159-1.406-0.197c-0.041,1.646-2.861,2.976-6.333,2.976
		c-3.474,0-6.292-1.33-6.334-2.976c-0.337,0.027-0.668,0.067-0.995,0.121c-0.718,0.496-1.224,1.207-1.362,1.785
		c0.256,0.124,0.458,0.33,0.571,0.583c0.978,0.372,1.845,1.204,2.513,2.415c0.099,0.178,0.099,0.383,0.005,0.561
		c0.414,0.897,0.65,1.878,0.65,2.703c0,0.073,0,0.145,0,0.215H47.55C47.626,35.865,47.702,35.869,47.778,35.875L47.778,35.875z"/>
	<path fill="#09821D" d="M18.413,35.865c-0.001-0.07-0.002-0.139-0.002-0.214c0-0.814,0.223-1.751,0.628-2.646
		c-0.068-0.164-0.06-0.341,0.023-0.497c0.401-0.758,0.907-1.405,1.465-1.87c0.325-0.271,0.676-0.484,1.041-0.634
		c0.118-0.288,0.355-0.52,0.655-0.646c0.07-0.421,0.259-0.858,0.545-1.274c-3.649,1.256-6.284,4.244-6.554,7.791
		c0.076-0.005,0.152-0.01,0.229-0.01H18.413L18.413,35.865z"/>
	<path fill="#09821D" d="M42.476,31.472c0,0.562-0.523,1.017-1.174,1.017c-0.648,0-1.174-0.455-1.174-1.017s0.525-1.017,1.174-1.017
		C41.952,30.455,42.476,30.911,42.476,31.472"/>
	<path fill="#09821D" d="M22.984,21.743c0.234,0.055,0.48,0.085,0.737,0.085h0.506c0.121,0,0.237-0.008,0.353-0.021
		c1.143,3.772,4.031,6.45,7.416,6.45c2.898,0,5.433-1.963,6.82-4.896c0.865-0.443,1.568-0.982,2.049-1.593
		c0.029-0.005,0.061-0.008,0.09-0.015c1.156-0.246,2.008-1.099,2.008-2.117v-1.719c0-1.017-0.852-1.87-2.008-2.116v-0.266
		c0-4.029-4.031-7.308-8.986-7.308c-4.953,0-8.983,3.278-8.983,7.308v0.277c-1.128,0.261-1.956,1.104-1.956,2.106v1.719
		C21.028,20.64,21.856,21.483,22.984,21.743L22.984,21.743z M31.996,27.2c-3.533,0-6.452-3.321-6.91-7.628
		c0.311,0.066,0.692,0.198,1.108,0.449c0,0-0.789-4.054,0.877-4.622c0,0,2.298,0.965,4.925,1.028
		c2.626-0.063,4.925-1.028,4.925-1.028c1.666,0.568,0.875,4.622,0.875,4.622c0.418-0.251,0.797-0.382,1.107-0.449
		c-0.082,0.775-0.244,1.518-0.475,2.215c-1.15,0.721-2.883,1.224-4.834,1.327c-0.203-0.15-0.463-0.244-0.752-0.244h-1.559
		c-0.649,0-1.174,0.455-1.174,1.016s0.525,1.016,1.174,1.016h1.559c0.316,0,0.602-0.109,0.813-0.286
		c1.373-0.066,2.643-0.303,3.748-0.669C36.126,25.931,34.179,27.2,31.996,27.2L31.996,27.2z M31.968,9.754
		c3.584,0,6.549,2.169,7.035,4.975c-1.355-2.256-3.984-3.788-7.007-3.788c-3.085,0-5.756,1.597-7.085,3.932
		C25.315,11.997,28.325,9.754,31.968,9.754z"/>
</g>
</svg>
