<?xml version="1.0" encoding="utf-8"?>
<!-- Generator: Adobe Illustrator 16.0.0, SVG Export Plug-In . SVG Version: 6.00 Build 0)  -->
<!DOCTYPE svg PUBLIC "-//W3C//DTD SVG 1.1//EN" "http://www.w3.org/Graphics/SVG/1.1/DTD/svg11.dtd">
<svg version="1.1" id="Layer_1" xmlns="http://www.w3.org/2000/svg" xmlns:xlink="http://www.w3.org/1999/xlink" x="0px" y="0px"
	 width="64px" height="64px" viewBox="0 0 64 64" enable-background="new 0 0 64 64" xml:space="preserve">
<g>
	<path fill="#326ED1" d="M29.257,17.434c0,0.74-0.27,1.425-0.725,1.987l-5.774-4.568c0.691-0.534,1.593-0.862,2.583-0.862
		C27.5,13.991,29.257,15.536,29.257,17.434L29.257,17.434z"/>
	<path fill="#326ED1" d="M32.617,21.644l1.832-2.241l3.228,2.039l-1.833,2.241c-0.372,0.456-0.977,0.728-1.615,0.728
		c-0.418,0-0.817-0.114-1.158-0.329c-0.431-0.272-0.716-0.676-0.8-1.137C32.184,22.485,32.307,22.023,32.617,21.644L32.617,21.644z"
		/>
	<path fill="#326ED1" d="M24.821,26.653c-0.01,0.026-0.019,0.054-0.026,0.082c-0.063,0.214,0.084,0.432,0.327,0.486
		c0.039,0.009,0.076,0.012,0.114,0.012c0.203,0,0.387-0.119,0.44-0.3l0.014-0.043c0.083-0.236,0.265-0.428,0.514-0.543
		c0.248-0.115,0.532-0.138,0.801-0.065c0.238,0.064,0.494-0.053,0.568-0.264c0.075-0.211-0.059-0.434-0.3-0.5
		c-0.5-0.136-1.03-0.093-1.493,0.122C25.315,25.854,24.975,26.214,24.821,26.653L24.821,26.653z"/>
	<path fill="#326ED1" d="M49.854,7.25h-35.46C13.074,7.25,12,8.194,12,9.355v46.14c0,1.16,1.074,2.104,2.395,2.104h35.463
		c1.319,0,2.393-0.944,2.393-2.104l-0.001-46.14C52.25,8.194,51.177,7.25,49.854,7.25L49.854,7.25z M31.879,21.178l2.096-2.564
		c0-0.001,0-0.001,0.001-0.001c0.001,0,0.001-0.001,0.001-0.001l2.102-2.571c0.542-0.664,1.423-1.06,2.354-1.06
		c0.608,0,1.193,0.166,1.688,0.479c1.299,0.819,1.595,2.414,0.663,3.554l-4.2,5.137c-0.543,0.664-1.423,1.06-2.354,1.06
		c-0.608,0-1.192-0.166-1.688-0.479c-0.628-0.397-1.043-0.985-1.168-1.656C31.247,22.404,31.427,21.731,31.879,21.178L31.879,21.178
		z M21.735,14.626c0.007-0.009,0.011-0.021,0.02-0.029c0.009-0.01,0.021-0.013,0.032-0.021c0.882-0.848,2.147-1.383,3.555-1.383
		c2.661,0,4.825,1.903,4.825,4.242c0,1.077-0.463,2.059-1.219,2.808c-0.008,0.009-0.01,0.02-0.019,0.029
		c-0.018,0.017-0.038,0.03-0.057,0.043c-0.881,0.834-2.137,1.36-3.531,1.36c-2.661,0-4.825-1.902-4.825-4.241
		C20.516,16.356,20.979,15.375,21.735,14.626L21.735,14.626z M30.048,27.164c0,1.627-1.505,2.95-3.356,2.95
		c-1.851,0-3.357-1.323-3.357-2.95s1.506-2.95,3.357-2.95C28.543,24.214,30.048,25.537,30.048,27.164z M20.839,35.356H43.41
		c0.251,0,0.455,0.179,0.455,0.399s-0.204,0.398-0.455,0.398H20.839c-0.251,0-0.455-0.178-0.455-0.398S20.588,35.356,20.839,35.356z
		 M20.839,43.367H43.41c0.251,0,0.455,0.179,0.455,0.399c0,0.222-0.204,0.399-0.455,0.399H20.839c-0.251,0-0.455-0.178-0.455-0.399
		C20.384,43.546,20.588,43.367,20.839,43.367z M32.124,52.178H20.839c-0.251,0-0.455-0.179-0.455-0.399
		c0-0.222,0.204-0.401,0.455-0.401h11.285c0.252,0,0.454,0.18,0.454,0.401C32.578,51.999,32.375,52.178,32.124,52.178z M48.8,52.241
		l-4.987,0.206c-0.126,0.004-0.249-0.036-0.34-0.114s-0.139-0.186-0.137-0.297l0.037-1.046l-2.117,1.045
		c-0.156,0.078-0.35,0.067-0.494-0.028c-0.144-0.094-0.212-0.254-0.172-0.407l0.616-2.383l-4.589,4.439
		c-0.09,0.088-0.212,0.131-0.337,0.131c-0.109,0-0.218-0.034-0.306-0.104c-0.186-0.147-0.199-0.399-0.031-0.564l5.752-5.563
		c0.138-0.135,0.362-0.17,0.546-0.087c0.183,0.085,0.278,0.266,0.233,0.443l-0.771,2.987l1.923-0.951
		c0.145-0.07,0.319-0.067,0.459,0.007s0.225,0.21,0.218,0.354l-0.043,1.32l4.496-0.186c0.256-0.008,0.465,0.161,0.477,0.382
		C49.245,52.044,49.051,52.23,48.8,52.241L48.8,52.241z"/>
</g>
</svg>
