<?xml version="1.0" encoding="utf-8"?>
<!-- Generator: Adobe Illustrator 16.0.0, SVG Export Plug-In . SVG Version: 6.00 Build 0)  -->
<!DOCTYPE svg PUBLIC "-//W3C//DTD SVG 1.1//EN" "http://www.w3.org/Graphics/SVG/1.1/DTD/svg11.dtd">
<svg version="1.1" id="Layer_1" xmlns="http://www.w3.org/2000/svg" xmlns:xlink="http://www.w3.org/1999/xlink" x="0px" y="0px"
	 width="64px" height="64px" viewBox="0 0 64 64" enable-background="new 0 0 64 64" xml:space="preserve">
<g>
	<path fill="#326ED1" d="M16.263,13.434h12.138l4.391,4.52h15.286c0.164,0,0.328,0.022,0.486,0.051v-2.301
		c0-0.858-0.656-1.559-1.457-1.559H32.279l-4.123-4.241H17.231c-0.8,0-1.454,0.699-1.454,1.558v2.025
		C15.936,13.458,16.097,13.434,16.263,13.434L16.263,13.434z"/>
	<path fill="#326ED1" d="M51.322,35.699v7.957h-38.3v-7.957c-4.443,0-4.706,3.212-4.706,5.666v6.9c0,0.922,0.706,1.675,1.57,1.675
		h44.573c0.865,0,1.571-0.753,1.571-1.675v-6.9C56.028,38.911,55.766,35.699,51.322,35.699L51.322,35.699z"/>
	<path fill="#326ED1" d="M48.078,19.294H32.287l-4.393-4.52H16.263c-0.853,0-1.549,0.747-1.549,1.658v25.813h34.916l0.001-21.293
		C49.63,20.038,48.93,19.294,48.078,19.294L48.078,19.294L48.078,19.294z M23.921,20.592c1.647,0,2.985,1.361,2.985,3.496
		c0,2.135-1.336,4.231-2.985,4.231c-1.649,0-2.988-2.096-2.988-4.231C20.934,21.954,22.272,20.592,23.921,20.592z M29.489,36.432
		H18.352c-0.14-2.822,0.11-5.517,0.281-5.965c0.343-0.895,2.454-1.252,3.905-1.392l0.522,1.157l0.862,1.911l0.862-1.911l0.521-1.157
		c1.448,0.14,3.562,0.498,3.902,1.392C29.378,30.915,29.625,33.607,29.489,36.432L29.489,36.432z M45.914,32.62h-3.568v3.812h-3.324
		V32.62h-3.566v-3.55h3.566v-3.811h3.324v3.811h3.568V32.62z"/>
</g>
</svg>
