<?xml version="1.0" encoding="utf-8"?>
<!-- Generator: Adobe Illustrator 16.0.0, SVG Export Plug-In . SVG Version: 6.00 Build 0)  -->
<!DOCTYPE svg PUBLIC "-//W3C//DTD SVG 1.1//EN" "http://www.w3.org/Graphics/SVG/1.1/DTD/svg11.dtd">
<svg version="1.1" id="Layer_1" xmlns="http://www.w3.org/2000/svg" xmlns:xlink="http://www.w3.org/1999/xlink" x="0px" y="0px"
	 width="64px" height="64px" viewBox="0 0 64 64" enable-background="new 0 0 64 64" xml:space="preserve">
<g>
	<path fill="#F01A1A" d="M41.525,17.039c0-3.338-2.47-6.096-5.647-6.502v6.162l4.285,4.355
		C41.015,19.942,41.525,18.552,41.525,17.039L41.525,17.039z"/>
	<path fill="#F01A1A" d="M17.319,8.36l-6.928,7.039h6.928V8.36z"/>
	<path fill="#F01A1A" d="M54.838,42.357l-6.306-10.253c-0.121-0.194-0.326-0.31-0.552-0.31c-0.225,0-0.43,0.115-0.551,0.31
		l-6.307,10.253c-0.791,1.289-1.212,2.773-1.212,4.293c0,4.466,3.577,8.1,7.972,8.1h0.195c4.396,0,7.971-3.634,7.971-8.1
		C56.049,45.131,55.63,43.646,54.838,42.357L54.838,42.357z M52.016,48.191h-2.42v2.46h-3.229v-2.46h-2.42v-3.28h2.42v-2.458h3.229
		v2.458h2.42V48.191z"/>
	<path fill="#F01A1A" d="M35.071,23.597c1.489,0,2.857-0.52,3.951-1.384l-3.951-4.016l-3.953,4.016
		C32.212,23.077,33.581,23.597,35.071,23.597z"/>
	<path fill="#F01A1A" d="M38.298,46.651c0-1.828,0.505-3.613,1.458-5.162l4.997-8.124V7.2h-25.82v9.838H9.25V54.75h33.319
		C39.996,53.002,38.298,50.024,38.298,46.651L38.298,46.651z M35.071,8.84c4.447,0,8.069,3.678,8.069,8.198
		s-3.622,8.198-8.069,8.198c-4.45,0-8.07-3.678-8.07-8.198S30.621,8.84,35.071,8.84z M27.001,38.354v3.279h-3.227v-3.279H27.001z
		 M23.774,36.715v-3.28h3.227v3.28H23.774z M27.001,43.272v3.279h-3.227v-3.279H27.001z M27.001,31.795h-8.069v-4.099h8.069V31.795z
		 M17.319,38.354v3.279h-5.648v-3.279H17.319z M11.671,36.715v-3.28h5.648v3.28H11.671z M17.319,43.272v3.279h-5.648v-3.279H17.319z
		 M17.319,31.795h-5.648v-4.099h5.648V31.795z M18.933,38.354h3.228v3.279h-3.228V38.354z M18.933,43.272h3.228v3.279h-3.228V43.272
		z M22.161,36.715h-3.228v-3.28h3.228V36.715z M20.546,8.84h4.841v1.64h-4.841V8.84z M20.546,12.12h4.841v1.639h-4.841V12.12z
		 M20.546,15.399h4.841v1.64h-4.841V15.399z M14.092,18.678h11.296v1.64H14.092V18.678z M10.864,18.678h1.613v1.64h-1.613V18.678z
		 M10.864,21.958h14.523v1.64H10.864V21.958z M11.671,52.291v-4.099h5.648v4.099H11.671z M18.933,52.291v-4.099h3.228v4.099H18.933z
		 M23.774,52.291v-4.099h3.227v4.099H23.774z M35.878,52.291h-7.263v-4.099h7.263V52.291z M35.878,46.552h-7.263v-3.279h7.263
		V46.552z M35.878,41.633h-7.263v-3.279h7.263V41.633z M35.878,36.715h-7.263v-3.28h7.263V36.715z M35.878,31.795h-7.263v-4.099
		h7.263V31.795z"/>
	<path fill="#F01A1A" d="M34.263,16.699v-6.163c-3.178,0.406-5.647,3.164-5.647,6.502c0,1.514,0.512,2.904,1.362,4.016
		L34.263,16.699z"/>
</g>
</svg>
