<?xml version="1.0" encoding="utf-8"?>
<!-- Generator: Adobe Illustrator 16.0.0, SVG Export Plug-In . SVG Version: 6.00 Build 0)  -->
<!DOCTYPE svg PUBLIC "-//W3C//DTD SVG 1.1//EN" "http://www.w3.org/Graphics/SVG/1.1/DTD/svg11.dtd">
<svg version="1.1" id="Layer_1" xmlns="http://www.w3.org/2000/svg" xmlns:xlink="http://www.w3.org/1999/xlink" x="0px" y="0px"
	 width="64px" height="64px" viewBox="0 0 64 64" enable-background="new 0 0 64 64" xml:space="preserve">
<g>
	<path fill="#109C5C" d="M32,46.449c3.185-1.731,5.817-4.153,7.645-7.034c1.83-2.883,2.795-6.129,2.805-9.433v-3.843L32,23.062
		l-10.45,3.078v3.843c0.01,3.304,0.976,6.55,2.805,9.433C26.183,42.296,28.815,44.718,32,46.449z M25.492,36.048
		c-0.174-0.248-0.19-0.558-0.042-0.817l5.7-10.071c0.196-0.349,0.639-0.532,1.068-0.442c0.429,0.089,0.733,0.428,0.732,0.817v5.875
		h4.749c0.331-0.001,0.639,0.149,0.813,0.396c0.175,0.248,0.191,0.558,0.043,0.819l-5.699,10.071
		c-0.194,0.354-0.639,0.541-1.073,0.453c-0.433-0.093-0.737-0.435-0.732-0.828v-5.875H26.3
		C25.971,36.445,25.665,36.295,25.492,36.048z"/>
	<path fill="none" d="M32.949,35.605v3.159l3.214-5.677H32c-0.525,0-0.95-0.375-0.95-0.839V29.09l-3.214,5.678H32
		c0.252,0,0.493,0.088,0.673,0.246C32.85,35.17,32.949,35.384,32.949,35.605z"/>
	<path fill="#109C5C" d="M18.7,55.75h26.601c0.252,0,0.492-0.088,0.672-0.246c0.178-0.157,0.277-0.371,0.277-0.594V14.623
		c0-0.222-0.1-0.436-0.277-0.593c-0.18-0.157-0.42-0.246-0.672-0.246H18.7c-0.524,0-0.95,0.376-0.95,0.839V54.91
		c0,0.223,0.101,0.437,0.278,0.594C18.206,55.662,18.448,55.75,18.7,55.75z M19.65,25.535c0-0.362,0.261-0.682,0.649-0.796
		l11.4-3.357c0.195-0.058,0.406-0.058,0.601,0l11.401,3.357c0.388,0.114,0.649,0.435,0.649,0.796v4.448
		c-0.011,3.633-1.085,7.203-3.118,10.362c-2.033,3.158-4.955,5.799-8.483,7.666l-0.263,0.137l0,0c-0.3,0.158-0.672,0.158-0.972,0
		l-0.262-0.137l0,0c-3.528-1.867-6.451-4.508-8.483-7.666c-2.033-3.159-3.107-6.729-3.118-10.362V25.535z"/>
	<path fill="#109C5C" d="M26.3,12.105h11.399V9.588c0-0.223-0.1-0.436-0.276-0.594c-0.179-0.158-0.421-0.246-0.673-0.246h-9.5
		c-0.525,0-0.95,0.375-0.95,0.839V12.105z"/>
</g>
</svg>
