<?xml version="1.0" encoding="utf-8"?>
<!-- Generator: Adobe Illustrator 16.0.0, SVG Export Plug-In . SVG Version: 6.00 Build 0)  -->
<!DOCTYPE svg PUBLIC "-//W3C//DTD SVG 1.1//EN" "http://www.w3.org/Graphics/SVG/1.1/DTD/svg11.dtd">
<svg version="1.1" id="Layer_1" xmlns="http://www.w3.org/2000/svg" xmlns:xlink="http://www.w3.org/1999/xlink" x="0px" y="0px"
	 width="64px" height="64px" viewBox="0 0 64 64" enable-background="new 0 0 64 64" xml:space="preserve">
<g>
	<path fill="#FFBC04" d="M54.913,15.073l2.571-2.582l-6.217-6.235l-2.57,2.572c-3.676-2.706-7.948-4.481-12.454-5.176V0h-8.787
		v3.652c-4.505,0.695-8.777,2.47-12.454,5.176l-2.57-2.572l-6.205,6.235l2.559,2.582c-2.693,3.694-4.46,7.987-5.151,12.514H0v8.827
		h3.635c0.691,4.526,2.458,8.819,5.151,12.514l-2.559,2.581l6.205,6.234l2.57-2.569c3.677,2.704,7.948,4.479,12.454,5.175V64h8.787
		v-3.651c4.506-0.695,8.778-2.471,12.454-5.175l2.57,2.58l6.205-6.233l-2.558-2.593c2.691-3.694,4.459-7.987,5.15-12.514H63.7
		v-8.827h-3.635c-0.691-4.526-2.459-8.819-5.15-12.514H54.913z M36.243,54.796V38.622h3.294l5.492-9.932l-5.492-12.138V28.69
		l-3.294,5.518h-8.787l-3.294-5.518V16.552L18.67,28.69l5.492,9.932h3.294v16.12c-5.629-1.096-10.65-4.262-14.083-8.877
		c-3.432-4.616-5.03-10.352-4.481-16.088c0.549-5.735,3.205-11.059,7.449-14.934c4.245-3.875,9.774-6.021,15.509-6.021
		c5.735,0,11.263,2.146,15.507,6.021c4.245,3.874,6.902,9.199,7.45,14.934c0.549,5.735-1.049,11.472-4.481,16.088
		c-3.432,4.615-8.454,7.781-14.083,8.877L36.243,54.796z"/>
</g>
<rect x="213.5" y="54" fill="none" width="298.5" height="3"/>
</svg>
