<?xml version="1.0" encoding="utf-8"?>
<!-- Generator: Adobe Illustrator 16.0.0, SVG Export Plug-In . SVG Version: 6.00 Build 0)  -->
<!DOCTYPE svg PUBLIC "-//W3C//DTD SVG 1.1//EN" "http://www.w3.org/Graphics/SVG/1.1/DTD/svg11.dtd">
<svg version="1.1" id="Layer_1" xmlns="http://www.w3.org/2000/svg" xmlns:xlink="http://www.w3.org/1999/xlink" x="0px" y="0px"
	 width="64px" height="64px" viewBox="0 0 64 64" enable-background="new 0 0 64 64" xml:space="preserve">
<g>
	<path fill="#F01C24" d="M13.419,34.411h36.239c3.021-0.038,5.8-1.612,7.324-4.146c1.525-2.534,1.576-5.66,0.13-8.237
		c-1.445-2.578-4.176-4.232-7.192-4.361c-0.07-2.176-1.009-4.241-2.617-5.756c-1.609-1.517-3.762-2.365-6.003-2.366
		c-0.984-0.001-1.962,0.166-2.889,0.491c-1.185-2.51-3.331-4.474-5.978-5.473c-2.651-1-5.596-0.957-8.214,0.119
		c-2.618,1.076-4.702,3.1-5.809,5.644c-2.222-0.614-4.613-0.178-6.456,1.177c-1.843,1.354-2.925,3.471-2.922,5.717
		c-0.004,0.516,0.05,1.031,0.163,1.535c-2.229,1.22-3.784,3.339-4.247,5.782C4.486,26.982,5.165,29.5,6.8,31.41
		c1.636,1.91,4.061,3.016,6.618,3.018L13.419,34.411z"/>
	<path fill="#F01C24" d="M58.611,48.295c-0.024-0.047-0.051-0.089-0.082-0.132c-0.026-0.06-0.06-0.121-0.099-0.176l-3.609-4.219
		c-0.223-0.261-0.556-0.409-0.904-0.402c-0.271,0-0.53,0.095-0.74,0.263c-0.231,0.188-0.379,0.459-0.405,0.75
		c-0.026,0.294,0.066,0.585,0.263,0.813l2.049,2.394h-9.929v-8.658c0-0.614-0.514-1.113-1.146-1.113s-1.146,0.499-1.146,1.113v9.771
		c0,0.616,0.513,1.114,1.146,1.114h11.075l-2.049,2.394v0.002c-0.194,0.228-0.284,0.521-0.254,0.812
		c0.031,0.293,0.179,0.563,0.414,0.749c0.207,0.167,0.465,0.26,0.732,0.264c0.348,0.004,0.681-0.144,0.903-0.405l3.609-4.218
		c0.04-0.056,0.072-0.113,0.1-0.176c0.028-0.04,0.052-0.086,0.072-0.131C58.71,48.842,58.71,48.555,58.611,48.295L58.611,48.295z"/>
	<path fill="#F01C24" d="M19.042,37.77c-0.313,0-0.611,0.123-0.828,0.342c-0.216,0.218-0.332,0.515-0.319,0.815v8.7H7.967
		l2.049-2.394h0c0.209-0.228,0.313-0.528,0.285-0.833c-0.027-0.305-0.183-0.582-0.429-0.771c-0.208-0.168-0.469-0.263-0.741-0.263
		c-0.348-0.007-0.68,0.142-0.902,0.402l-3.61,4.219c-0.038,0.055-0.072,0.116-0.099,0.176c-0.031,0.043-0.058,0.085-0.082,0.132
		c-0.099,0.26-0.099,0.547,0,0.808c0.022,0.045,0.049,0.091,0.082,0.131c0.027,0.063,0.061,0.12,0.099,0.176l3.61,4.218
		c0.222,0.262,0.554,0.409,0.902,0.405c0.268-0.004,0.526-0.097,0.731-0.264c0.232-0.188,0.379-0.458,0.406-0.751
		s-0.067-0.585-0.262-0.81l-2.022-2.396h11.058c0.633,0,1.146-0.5,1.146-1.114v-9.771c0.012-0.301-0.104-0.598-0.319-0.815
		C19.653,37.893,19.354,37.77,19.042,37.77L19.042,37.77z"/>
	<path fill="#F01C24" d="M35.874,54.25c-0.267-0.004-0.524,0.089-0.729,0.253l-2.465,1.966V38.727c0-0.615-0.514-1.114-1.146-1.114
		s-1.146,0.499-1.146,1.114v17.742l-2.464-1.966c-0.484-0.388-1.201-0.325-1.606,0.142c-0.196,0.227-0.29,0.521-0.263,0.813
		c0.027,0.296,0.173,0.568,0.407,0.756l4.341,3.51h0c0.06,0.039,0.123,0.075,0.189,0.104l0.126,0.069
		c0.133,0.049,0.273,0.077,0.415,0.079c0.142-0.004,0.283-0.03,0.415-0.079c0.045-0.02,0.088-0.048,0.126-0.077
		c0.069-0.023,0.131-0.056,0.19-0.097l4.34-3.51l0,0c0.369-0.299,0.503-0.789,0.34-1.229S36.355,54.253,35.874,54.25L35.874,54.25z"
		/>
</g>
</svg>
