<?xml version="1.0" encoding="utf-8"?>
<!-- Generator: Adobe Illustrator 16.0.0, SVG Export Plug-In . SVG Version: 6.00 Build 0)  -->
<!DOCTYPE svg PUBLIC "-//W3C//DTD SVG 1.1//EN" "http://www.w3.org/Graphics/SVG/1.1/DTD/svg11.dtd">
<svg version="1.1" id="Layer_1" xmlns="http://www.w3.org/2000/svg" xmlns:xlink="http://www.w3.org/1999/xlink" x="0px" y="0px"
	 width="64px" height="64px" viewBox="0 0 64 64" enable-background="new 0 0 64 64" xml:space="preserve">
<g>
	<path fill="#109C5C" d="M35.225,18.569c-0.487-1.065-1.592-1.754-2.814-1.754c-1.221,0-2.326,0.688-2.813,1.753
		c-2.566,5.32-6.667,14.668-6.667,19.531c0,4.726,4.234,8.588,9.48,8.588c5.248,0,9.481-3.862,9.481-8.588
		C41.892,33.237,37.791,23.888,35.225,18.569L35.225,18.569z M33.482,19.296c0.004,0.007,0.007,0.013,0.009,0.02
		c2.47,5.118,6.499,14.1,6.499,18.783c0,3.753-3.41,6.775-7.58,6.775c-4.168,0-7.578-3.021-7.578-6.775
		c0-4.683,4.028-13.665,6.498-18.783c0.003-0.007,0.005-0.013,0.008-0.02c0.185-0.407,0.606-0.67,1.072-0.67
		C32.877,18.625,33.299,18.889,33.482,19.296L33.482,19.296z"/>
	<path fill="#109C5C" d="M32.411,5.5C17.184,5.5,4.822,17.262,4.822,31.75C4.822,46.238,17.184,58,32.411,58
		C47.638,58,60,46.238,60,31.75C60,17.262,47.638,5.5,32.411,5.5z M11.485,32.059c-1.472,0.795-3.286,0.795-4.758,0.002
		c0.168,12.702,10.54,23.082,23.668,24.055l0.306-0.319c1.012-1.06,1.012-2.679,0-3.739l-0.479-0.501
		C19.804,50.524,11.647,42.207,11.485,32.059L11.485,32.059z M32.411,13.646c10.5,0,19.026,8.112,19.026,18.103
		c0,9.992-8.526,18.103-19.026,18.103c-10.501,0-19.027-8.111-19.027-18.103C13.384,21.759,21.91,13.646,32.411,13.646z
		 M34.427,7.385l-0.304,0.32c-1.015,1.06-1.015,2.678,0,3.739l0.479,0.5c10.417,1.033,18.573,9.35,18.736,19.499
		c1.472-0.796,3.287-0.797,4.757-0.003C57.927,18.736,47.556,8.356,34.427,7.385L34.427,7.385z"/>
	<path fill="#109C5C" d="M24.53,34.973c-0.269-0.125-0.583-0.12-0.849,0.011c-0.266,0.13-0.453,0.371-0.503,0.651
		c-0.161,0.901-0.249,1.731-0.249,2.464c0,4.727,4.234,8.588,9.48,8.588c5.248,0,9.481-3.861,9.481-8.588
		c0-0.896-0.132-1.938-0.367-3.075c-0.07-0.33-0.325-0.597-0.663-0.692c-1.044-0.294-2.147-0.452-3.291-0.452
		c-1.91,0-3.715,0.442-5.307,1.223c-2.342,1.14-5.116,1.14-7.458,0C24.717,35.06,24.623,35.015,24.53,34.973L24.53,34.973z"/>
	<path fill="#109C5C" d="M23.516,34.07c0.467-0.148,0.979-0.12,1.429,0.087l0.295,0.141c2.07,1.006,4.522,1.006,6.592-0.001
		c0.467-0.229,0.951-0.43,1.448-0.604c-0.705-0.611-1.45-1.206-2.248-1.754c-1.727-1.189-3.619-1.795-5.397-2.066
		c-0.463-0.071-0.912,0.191-1.055,0.616C24.157,31.729,23.793,32.938,23.516,34.07L23.516,34.07z"/>
</g>
</svg>
