<?xml version="1.0" encoding="utf-8"?>
<!-- Generator: Adobe Illustrator 16.0.0, SVG Export Plug-In . SVG Version: 6.00 Build 0)  -->
<!DOCTYPE svg PUBLIC "-//W3C//DTD SVG 1.1//EN" "http://www.w3.org/Graphics/SVG/1.1/DTD/svg11.dtd">
<svg version="1.1" id="Layer_1" xmlns="http://www.w3.org/2000/svg" xmlns:xlink="http://www.w3.org/1999/xlink" x="0px" y="0px"
	 width="64px" height="64px" viewBox="0 0 64 64" enable-background="new 0 0 64 64" xml:space="preserve">
<g>
	<path fill="#326ED1" d="M52.033,34.304c-1.395-0.023-2.74,0.515-3.734,1.493c-0.992,0.98-1.55,2.317-1.546,3.712
		c-0.007,2.946,2.286,5.286,5.194,5.308l0,0c1.861-0.008,3.579-1.001,4.516-2.609c0.938-1.608,0.953-3.592,0.043-5.216
		c-0.91-1.623-2.611-2.644-4.473-2.683V34.304z M52.023,42.465c-1.045,0.013-2.016-0.533-2.548-1.432
		c-0.532-0.897-0.546-2.012-0.034-2.922s1.471-1.479,2.514-1.49c1.595-0.018,2.974,1.344,2.971,2.934
		C54.923,41.113,53.592,42.447,52.023,42.465L52.023,42.465z"/>
	<path fill="#326ED1" d="M13.614,34.304c-1.395-0.021-2.742,0.514-3.742,1.487c-1,0.973-1.572,2.303-1.59,3.699
		c-0.018,1.396,0.521,2.74,1.496,3.738c0.976,0.998,2.308,1.566,3.703,1.581s2.739-0.526,3.735-1.505
		c0.996-0.978,1.562-2.311,1.572-3.707C18.805,36.63,16.55,34.326,13.614,34.304L13.614,34.304z M13.529,42.465
		c-0.777-0.008-1.518-0.324-2.06-0.88s-0.841-1.304-0.83-2.08s0.33-1.516,0.887-2.056c0.558-0.541,1.307-0.837,2.083-0.824
		c0.776,0.014,1.515,0.335,2.054,0.895c0.539,0.559,0.833,1.309,0.817,2.084c-0.021,0.769-0.34,1.498-0.892,2.033
		C15.036,42.172,14.297,42.469,13.529,42.465L13.529,42.465z"/>
	<path fill="#326ED1" d="M63.906,35.518c-0.129-2.867-1.356-5.095-3.828-6.66l0,0c-1.715-1.092-3.635-1.818-5.643-2.133
		c-3.136-0.498-5.872-1.856-8.459-3.622c-1.813-1.237-3.653-2.442-5.535-3.565c-2.092-1.247-4.32-2.224-6.779-2.425
		c-3.169-0.26-6.353-0.155-9.527-0.354c-1.998,0-3.999-0.065-5.994,0.017c-2.647,0.108-5.174,0.636-7.041,2.736
		c-0.904,1.038-1.75,2.126-2.535,3.257c-0.627,0.886-1.352,1.528-2.438,1.805c-3.327,0.854-5.415,2.897-5.836,6.398
		c-0.176,1.451-0.381,2.918-0.345,4.37c0.039,1.48,0.299,2.964,0.579,4.425c0.136,0.722,0.544,1.425,1.426,1.454
		c1.352,0.047,2.705,0.021,4.058,0.008c0.602,0,0.918-0.315,0.93-0.951c0.011-0.562,0.083-1.122,0.14-1.685
		c0.306-2.977,2.452-5.286,5.334-5.742c3.171-0.501,5.938,0.882,7.116,3.722c0.422,1.016,0.568,2.166,0.708,3.271
		c0.104,0.821,0.455,1.11,1.249,1.117c7.38,0.063,14.76,0.134,22.14,0.216c1.408,0.014,1.829-0.391,1.813-1.774
		c-0.024-2.046,0.733-3.717,2.285-5.044c3.113-2.647,8.723-1.85,10.216,2.395c0.401,1.144,0.501,2.407,0.618,3.629
		c0.05,0.512,0.176,0.73,0.658,0.73c0.981,0,1.967,0.041,2.942-0.04c1.261-0.106,1.728-0.647,1.753-1.926
		c0.025-1.201,0.049-2.419-0.006-3.628H63.906z M4.945,28.815c-1.551,0.166-2.295,1.177-2.794,2.47
		c-0.348,0.901-0.633,1.828-0.945,2.742l-0.241-0.031c0-0.508-0.087-1.034,0.017-1.52c0.289-1.364,0.56-2.744,1.024-4.053
		c0.396-1.117,1.882-1.73,2.94-1.324c0.342,0.133,0.734,0.575,0.77,0.912c0.019,0.254-0.472,0.771-0.772,0.804H4.945z
		 M26.222,25.688l-14.101-0.001c-0.016-2.498-1.05-7.552,14.1-7.028L26.222,25.688z M35.289,25.627L35.289,25.627
		c-0.109-0.478-0.297-0.934-0.553-1.352c0.6-0.427,0.99-1.089,1.071-1.82c0.081-0.732-0.152-1.463-0.644-2.012
		c-0.49-0.549-1.191-0.862-1.928-0.862s-1.438,0.313-1.928,0.862c-0.491,0.548-0.725,1.28-0.643,2.012
		c0.082,0.731,0.471,1.394,1.071,1.82c-0.256,0.418-0.442,0.874-0.553,1.351h-2.888v-6.913c11.378,0,14.221,4.752,14.221,6.908
		L35.289,25.627z M57.534,31.273c-0.797-0.615-1.138-1.648-0.74-2.131c0.624-0.758,1.403-0.349,2.084-0.088
		c1.294,0.497,2.829,2.193,3.335,3.631c-1.697-0.147-3.32-0.371-4.68-1.418L57.534,31.273z"/>
	<path fill="#326ED1" d="M24.131,16.758C24.133,16.737,24.133,16.715,24.131,16.758z"/>
</g>
</svg>
