<?xml version="1.0" encoding="utf-8"?>
<!-- Generator: Adobe Illustrator 16.0.0, SVG Export Plug-In . SVG Version: 6.00 Build 0)  -->
<!DOCTYPE svg PUBLIC "-//W3C//DTD SVG 1.1//EN" "http://www.w3.org/Graphics/SVG/1.1/DTD/svg11.dtd">
<svg version="1.1" id="Layer_1" xmlns="http://www.w3.org/2000/svg" xmlns:xlink="http://www.w3.org/1999/xlink" x="0px" y="0px"
	 width="64px" height="64px" viewBox="0 0 64 64" enable-background="new 0 0 64 64" xml:space="preserve">
<g>
	<path fill="#4285F4" d="M18.191,14.593c0,1.917-1.494,3.471-3.337,3.471c-1.842,0-3.337-1.554-3.337-3.471
		c0-1.917,1.495-3.471,3.337-3.471C16.697,11.123,18.191,12.677,18.191,14.593"/>
	<path fill="#4285F4" d="M26.155,32.696l-8.316-3.146l-1.148-6.271l0.125-1.812c0.091-1.311-0.857-2.451-2.118-2.545
		c-1.257-0.093-2.355,0.891-2.446,2.202l-0.787,11.369L8.86,53.307c-0.104,0.826,0.457,1.584,1.251,1.69
		c0.064,0.01,0.126,0.013,0.188,0.013c0.719,0,1.342-0.554,1.438-1.313l2.273-18.153l3,5.507l-3.43,8.876
		c-0.299,0.774,0.062,1.652,0.805,1.965c0.744,0.312,1.589-0.063,1.888-0.838l3.691-9.553c0.165-0.427,0.133-0.907-0.084-1.308
		l-3.868-7.099l0.081-1.166l9.124,3.453c0.155,0.059,0.313,0.086,0.469,0.086c0.561,0,1.088-0.359,1.291-0.94
		C27.235,33.785,26.868,32.967,26.155,32.696L26.155,32.696z"/>
	<path fill="#4285F4" d="M46.513,52.768c0,0.684-0.532,1.237-1.188,1.237s-1.188-0.554-1.188-1.237c0-0.682,0.532-1.235,1.188-1.235
		S46.513,52.086,46.513,52.768"/>
	<path fill="#4285F4" d="M33.494,52.768c0,0.684-0.532,1.237-1.188,1.237s-1.188-0.554-1.188-1.237c0-0.682,0.532-1.235,1.188-1.235
		S33.494,52.086,33.494,52.768"/>
	<path fill="#4285F4" d="M56.633,53.059l-2.521-2.621c0.785-0.459,1.376-1.229,1.615-2.154l-7.635,0.001
		c-0.168,0-0.306-0.143-0.306-0.317V28.251H35.481v3.848c0,0.174-0.136,0.316-0.304,0.316h-6.796v14.958
		c0,1.938,1.509,3.511,3.373,3.511h17.262l-1.251,2.175c-0.188,0.197-0.188,0.517,0,0.714h3.08l0,0h5.787
		C56.821,53.576,56.821,53.256,56.633,53.059L56.633,53.059z"/>
	<path fill="#4285F4" d="M55.845,47.373V33.816l-5.352-5.566h-2.096v19.398h7.434C55.838,47.558,55.845,47.466,55.845,47.373
		L55.845,47.373z"/>
	<path fill="#4285F4" d="M34.872,28.283l-5.731,3.499h5.731V28.283z"/>
</g>
</svg>
