<?xml version="1.0" encoding="utf-8"?>
<!-- Generator: Adobe Illustrator 16.0.0, SVG Export Plug-In . SVG Version: 6.00 Build 0)  -->
<!DOCTYPE svg PUBLIC "-//W3C//DTD SVG 1.1//EN" "http://www.w3.org/Graphics/SVG/1.1/DTD/svg11.dtd">
<svg version="1.1" id="Layer_1" xmlns="http://www.w3.org/2000/svg" xmlns:xlink="http://www.w3.org/1999/xlink" x="0px" y="0px"
	 width="64px" height="64px" viewBox="0 0 64 64" enable-background="new 0 0 64 64" xml:space="preserve">
<g>
	<path fill="#FFBC04" d="M41.884,11.116c-1.086,0.001-2.126,0.432-2.895,1.197c-0.769,0.765-1.2,1.803-1.202,2.885
		c0,0.649-0.258,1.273-0.721,1.732c-0.46,0.459-1.086,0.717-1.737,0.717H34.51v-2.466c0.923-0.69,1.512-1.735,1.621-2.88
		c0.108-1.145-0.272-2.282-1.049-3.132s-1.876-1.335-3.031-1.335c-1.154,0-2.254,0.485-3.031,1.335s-1.157,1.988-1.048,3.132
		c0.109,1.145,0.697,2.19,1.62,2.88v2.466h-0.819c-0.652,0-1.277-0.258-1.739-0.717c-0.46-0.459-0.72-1.083-0.72-1.732
		c-0.001-1.082-0.434-2.12-1.201-2.885c-0.769-0.765-1.81-1.195-2.896-1.197H7.468v0.816c0.001,0.953,0.337,1.875,0.95,2.606
		c0.612,0.732,1.462,1.228,2.403,1.4c0.151,0.81,0.546,1.557,1.131,2.139c0.584,0.583,1.333,0.976,2.146,1.126
		c0.174,0.937,0.671,1.783,1.406,2.394s1.66,0.945,2.617,0.947h11.472v8.164h-5.735c-0.453,0-0.82-0.366-0.82-0.816
		s0.367-0.816,0.82-0.816h1.638c0.879,0,1.69-0.467,2.129-1.225c0.439-0.758,0.439-1.691,0-2.449
		c-0.439-0.757-1.25-1.224-2.129-1.224h-1.638c-1.581-0.003-3.092,0.646-4.176,1.792c-1.084,1.146-1.645,2.687-1.55,4.258
		c0.095,1.573,0.838,3.035,2.052,4.042c-0.458,1.121-0.545,2.357-0.25,3.531c0.294,1.174,0.956,2.225,1.89,3
		c-0.458,1.12-0.546,2.357-0.251,3.531c0.294,1.174,0.957,2.225,1.89,3c-0.719,1.761-0.511,3.764,0.554,5.342
		c1.066,1.578,2.85,2.524,4.759,2.524h0.819v1.633h4.917V55.2h0.819c1.911,0.003,3.696-0.943,4.763-2.522
		c1.065-1.579,1.271-3.584,0.547-5.346c0.936-0.771,1.6-1.822,1.895-2.998c0.295-1.174,0.205-2.412-0.256-3.532
		c0.937-0.772,1.601-1.823,1.896-2.998c0.294-1.175,0.204-2.412-0.256-3.532c1.214-1.008,1.957-2.47,2.054-4.042
		c0.095-1.571-0.465-3.113-1.55-4.259c-1.083-1.146-2.595-1.795-4.175-1.792h-1.639c-0.879,0-1.69,0.467-2.129,1.224
		c-0.44,0.758-0.44,1.691,0,2.449c0.438,0.757,1.25,1.225,2.129,1.225h1.639c0.452,0,0.82,0.366,0.82,0.816s-0.368,0.816-0.82,0.816
		H34.51v-8.164h11.472c0.956-0.002,1.883-0.336,2.617-0.947c0.733-0.61,1.232-1.457,1.406-2.394
		c0.813-0.151,1.562-0.543,2.146-1.126c0.584-0.583,0.979-1.329,1.13-2.139c0.94-0.173,1.791-0.668,2.403-1.4
		c0.612-0.732,0.948-1.653,0.95-2.606v-0.816H41.884z M30.822,14.04c-0.373-0.211-0.684-0.518-0.899-0.888
		c-0.216-0.37-0.33-0.791-0.329-1.219c0-0.875,0.468-1.684,1.229-2.121c0.761-0.438,1.698-0.438,2.459,0s1.229,1.246,1.229,2.121
		c0,0.428-0.114,0.849-0.329,1.219c-0.216,0.371-0.527,0.677-0.899,0.888l-0.41,0.236v3.372h-1.639v-3.372L30.822,14.04z
		 M28.774,53.568c-1.316,0.007-2.554-0.62-3.325-1.683c-0.771-1.062-0.979-2.432-0.56-3.673c0.506,0.215,1.042,0.354,1.589,0.416
		c-0.106,0.273-0.161,0.564-0.163,0.857c0,0.649,0.259,1.272,0.72,1.732c0.461,0.458,1.086,0.717,1.738,0.717h0.82
		c0.452,0,0.819,0.365,0.819,0.815c0,0.451-0.367,0.817-0.819,0.817H28.774z M28.774,50.303c-0.452,0-0.819-0.366-0.819-0.816
		s0.367-0.817,0.819-0.817h0.82v1.634H28.774z M31.232,55.2v-0.636c0.521-0.46,0.819-1.12,0.819-1.813s-0.298-1.353-0.819-1.813
		v-2.271h1.639V55.2H31.232z M34.51,48.669h0.82c0.452,0,0.818,0.367,0.818,0.817s-0.366,0.816-0.818,0.816h-0.82V48.669z
		 M35.33,53.568h-0.82v-1.633h0.82c0.879,0,1.688-0.467,2.129-1.226c0.438-0.757,0.438-1.689,0-2.448
		c-0.44-0.759-1.25-1.225-2.129-1.225h-8.195c-1.316,0.007-2.554-0.62-3.325-1.683s-0.979-2.431-0.56-3.673
		c0.507,0.215,1.042,0.355,1.59,0.417c-0.106,0.273-0.161,0.563-0.163,0.856c0,0.649,0.259,1.273,0.72,1.732
		s1.086,0.717,1.738,0.717h8.194c1.464,0,2.817,0.777,3.548,2.041c0.732,1.263,0.732,2.818,0,4.082
		C38.146,52.79,36.793,53.568,35.33,53.568L35.33,53.568z M36.969,43.772H34.51v-1.634h2.459c0.452,0,0.819,0.366,0.819,0.816
		S37.421,43.772,36.969,43.772z M32.871,43.772h-1.639v-1.634h1.639V43.772z M29.594,43.772h-2.458c-0.453,0-0.82-0.367-0.82-0.817
		s0.367-0.816,0.82-0.816h2.458V43.772z M39.792,45.905c-0.062-0.076-0.12-0.155-0.187-0.228c-0.304-0.337-0.646-0.636-1.022-0.891
		c0.507-0.438,0.811-1.063,0.841-1.73s-0.215-1.317-0.679-1.8s-1.106-0.753-1.776-0.751H25.496c-1.316,0.008-2.555-0.62-3.325-1.683
		c-0.771-1.063-0.979-2.432-0.559-3.674c0.504,0.215,1.036,0.356,1.58,0.42c-0.281,0.753-0.174,1.594,0.285,2.253
		c0.459,0.658,1.214,1.051,2.019,1.051h11.473c1.098-0.001,2.149,0.437,2.92,1.216c0.771,0.779,1.195,1.835,1.177,2.928
		C41.047,44.111,40.588,45.151,39.792,45.905L39.792,45.905z M38.607,37.241H34.51v-1.633h4.098c0.452,0,0.819,0.365,0.819,0.815
		C39.427,36.875,39.06,37.241,38.607,37.241z M32.871,37.241h-1.639v-1.633h1.639V37.241z M29.593,37.241h-4.097
		c-0.452,0-0.819-0.366-0.819-0.817c0-0.45,0.367-0.815,0.819-0.815h4.097V37.241z M40.246,27.444h-1.639
		c-0.452,0-0.82-0.366-0.82-0.817c0-0.45,0.368-0.816,0.82-0.816h1.639c1.098-0.002,2.15,0.436,2.921,1.215
		c0.77,0.779,1.194,1.834,1.176,2.928c-0.018,1.094-0.478,2.134-1.274,2.887c-0.346-0.427-0.752-0.804-1.206-1.117
		c0.506-0.438,0.81-1.063,0.839-1.73c0.03-0.667-0.215-1.317-0.679-1.799C41.559,27.713,40.916,27.442,40.246,27.444L40.246,27.444z
		 M38.607,32.342c1.099-0.001,2.15,0.437,2.921,1.216s1.194,1.835,1.176,2.929c-0.018,1.094-0.478,2.134-1.273,2.887
		c-0.347-0.428-0.753-0.805-1.207-1.118c0.505-0.438,0.809-1.063,0.839-1.729c0.03-0.668-0.215-1.317-0.679-1.8
		s-1.106-0.754-1.776-0.751h-14.75c-1.464,0-2.817-0.777-3.548-2.041c-0.732-1.263-0.732-2.819,0-4.082
		c0.731-1.262,2.084-2.041,3.548-2.041h1.639c0.452,0,0.819,0.366,0.819,0.816c0,0.451-0.367,0.817-0.819,0.817h-1.639
		c-0.878,0-1.69,0.467-2.129,1.224c-0.439,0.758-0.439,1.691,0,2.45c0.439,0.757,1.251,1.224,2.129,1.224H38.607z M32.871,30.709
		h-1.639v-8.164h1.639V30.709z M52.537,14.382h-6.556v1.633h5.586c-0.168,0.476-0.481,0.889-0.895,1.181
		c-0.412,0.292-0.906,0.45-1.412,0.452h-6.557v1.633h5.586c-0.17,0.476-0.482,0.888-0.895,1.181
		c-0.414,0.292-0.907,0.45-1.414,0.452h-27.86c-0.507-0.002-1-0.16-1.414-0.452c-0.413-0.292-0.725-0.705-0.894-1.181h5.585v-1.633
		h-6.556c-0.506-0.002-1-0.16-1.413-0.452c-0.413-0.292-0.726-0.705-0.895-1.181h5.586v-1.633h-6.556
		c-0.508,0-1.004-0.157-1.419-0.45c-0.416-0.292-0.729-0.706-0.899-1.183h12.971c0.652,0,1.277,0.258,1.738,0.717
		c0.461,0.459,0.72,1.083,0.72,1.732c0.002,1.082,0.434,2.12,1.202,2.885s1.81,1.195,2.896,1.197h6.556
		c1.086-0.001,2.128-0.432,2.896-1.197c0.768-0.765,1.2-1.803,1.201-2.885c0-0.65,0.259-1.273,0.719-1.732
		c0.462-0.458,1.087-0.717,1.738-0.717h12.972c-0.17,0.477-0.484,0.89-0.899,1.183C53.542,14.225,53.046,14.382,52.537,14.382
		L52.537,14.382z"/>
</g>
</svg>
