<?xml version="1.0" encoding="utf-8"?>
<!-- Generator: Adobe Illustrator 16.0.0, SVG Export Plug-In . SVG Version: 6.00 Build 0)  -->
<!DOCTYPE svg PUBLIC "-//W3C//DTD SVG 1.1//EN" "http://www.w3.org/Graphics/SVG/1.1/DTD/svg11.dtd">
<svg version="1.1" id="Layer_1" xmlns="http://www.w3.org/2000/svg" xmlns:xlink="http://www.w3.org/1999/xlink" x="0px" y="0px"
	 width="64px" height="64px" viewBox="0 0 64 64" enable-background="new 0 0 64 64" xml:space="preserve">
<g>
	<path fill="#F9812A" d="M50.493,56.331h-0.326V31.266L31.16,18.657L11.833,31.266v25.065h0.031c-0.42,0-0.765,0.344-0.765,0.765
		v2.292h40.157v-2.292C51.257,56.675,50.914,56.332,50.493,56.331L50.493,56.331z M34.369,39.137h10.699v10.699H34.369V39.137z
		 M17.251,39.137h10.699v10.699H17.251V39.137z"/>
	<path fill="#F9812A" d="M55.346,13.384c-2.102-2.101-4.93-3.286-7.947-3.286c-2.98,0-5.809,1.185-7.948,3.286
		c-0.153,0.153-0.153,0.382,0,0.535s0.382,0.153,0.535,0c1.987-1.987,4.585-3.057,7.374-3.057s5.426,1.07,7.375,3.057
		c0.076,0.077,0.19,0.115,0.268,0.115c0.076,0,0.19-0.038,0.268-0.115C55.498,13.766,55.498,13.537,55.346,13.384L55.346,13.384z"/>
	<path fill="#F9812A" d="M53.092,16.173c0.152-0.153,0.152-0.382,0-0.535c-1.528-1.528-3.554-2.369-5.693-2.369
		s-4.164,0.841-5.693,2.369c-0.152,0.153-0.152,0.382,0,0.535c0.076,0.076,0.191,0.115,0.268,0.115s0.191-0.039,0.268-0.115
		c1.375-1.375,3.209-2.14,5.158-2.14s3.783,0.764,5.158,2.14C52.709,16.326,52.939,16.326,53.092,16.173L53.092,16.173z"/>
	<path fill="#F9812A" d="M43.959,17.854c-0.152,0.153-0.152,0.382,0,0.535c0.076,0.076,0.191,0.115,0.268,0.115
		s0.191-0.039,0.268-0.115c0.764-0.764,1.795-1.39,2.904-1.39c1.107,0,2.139,0.625,2.903,1.39c0.153,0.153,0.382,0.153,0.535,0
		s0.153-0.382,0-0.535c-0.917-0.917-2.14-1.414-3.438-1.414C46.099,16.441,44.876,16.938,43.959,17.854L43.959,17.854z"/>
	<path fill="#F9812A" d="M47.781,23.204c0.879-0.191,1.566-0.955,1.566-1.91c0-1.07-0.879-1.949-1.949-1.949
		s-1.948,0.879-1.948,1.949c0,0.955,0.688,1.719,1.566,1.91v2.636L31.16,14.034l-22.62,16.43h2.292l20.327-13.87l20.328,13.87h2.292
		l-5.999-4.088V23.204z"/>
</g>
</svg>
