<?xml version="1.0" encoding="utf-8"?>
<!-- Generator: Adobe Illustrator 16.0.0, SVG Export Plug-In . SVG Version: 6.00 Build 0)  -->
<!DOCTYPE svg PUBLIC "-//W3C//DTD SVG 1.1//EN" "http://www.w3.org/Graphics/SVG/1.1/DTD/svg11.dtd">
<svg version="1.1" id="Layer_1" xmlns="http://www.w3.org/2000/svg" xmlns:xlink="http://www.w3.org/1999/xlink" x="0px" y="0px"
	 width="64px" height="64px" viewBox="0 0 64 64" enable-background="new 0 0 64 64" xml:space="preserve">
<g>
	<path fill="#8F00FF" d="M52.374,55.024c-3.356,0-6.084-2.793-6.084-6.228c0-3.434,2.728-6.227,6.084-6.227s6.085,2.792,6.085,6.227
		S55.73,55.024,52.374,55.024z M52.374,45.103c-1.99,0-3.608,1.657-3.608,3.694s1.618,3.693,3.608,3.693
		c1.991,0,3.609-1.656,3.609-3.693S54.365,45.103,52.374,45.103z"/>
	<path fill="#8F00FF" d="M44.307,49.884c-0.586,0-1.062-0.486-1.062-1.088c0-5.151,4.094-9.342,9.128-9.342
		c2.438,0,4.73,0.972,6.455,2.736c0.415,0.425,0.415,1.111,0,1.535c-0.414,0.425-1.088,0.425-1.501,0
		c-1.322-1.354-3.082-2.1-4.953-2.1c-3.865,0-7.006,3.218-7.006,7.17C45.369,49.397,44.893,49.883,44.307,49.884L44.307,49.884z"/>
	<path fill="#8F00FF" d="M27.272,16.602c-0.174-0.377-0.286-0.798-0.337-1.258c-0.15-1.346,0.194-2.56,1.032-3.639
		c0.838-1.079,1.915-1.696,3.232-1.85c1.123-0.132,2.149,0.105,3.079,0.712c0.93,0.608,1.597,1.419,2.006,2.436l-1.253,0.146
		c0.043,0.095,0.102,0.487,0.18,1.178c0.099,0.886-0.126,1.694-0.68,2.424c-0.552,0.731-1.279,1.148-2.176,1.252
		c-1.091,0.128-2.029-0.245-2.809-1.117c-0.155-0.215-0.271-0.384-0.349-0.509L27.272,16.602z"/>
	<path fill="#8F00FF" d="M47.511,24.835c-1.906,0.089-3.417,1.356-3.417,2.91c0,1.555,1.511,2.821,3.417,2.912V24.835z"/>
	<path fill="#8F00FF" d="M47.093,36.535c-0.19-0.648-2.746-6.264-3.524-7.969c-0.172-0.383-0.547-0.628-0.96-0.628h-1.861
		c0.375-0.275,0.623-0.725,0.623-1.234c-0.002-0.84-0.665-1.52-1.485-1.52l0,0l-5.291,0.002l-1.83-5.154
		c-0.043-0.12-0.101-0.226-0.166-0.327c-0.163-0.338-0.4-0.628-0.743-0.819c-0.779-0.436-1.942-0.563-2.689-0.344
		c-0.743,0.217-1.725,0.651-2.149,2.091l-2.332,10.121c-0.089,0.424-0.049,1.068,0.127,1.566c0.284,0.797,1.167,1.811,2.232,1.955
		l6.315,0.579c-0.237-0.005-0.554-0.005-0.951,0.002h-9.152V22.216H6.65v12.706h9.089c-0.5,0.168-0.871,0.654-0.854,1.185
		c0.017,0.561,0.737,1.712,1.283,2.505c-3.942,2.344-7.172,8.882-7.172,8.882s-0.086,0.201-0.079,0.435
		c0.018,0.6,0.475,1.088,1.061,1.088h2.144c0.112,3.331,2.79,6.009,6.074,6.009s5.962-2.678,6.075-6.01l13.916-0.001
		c0.097,0,2.376-0.025,3.842-2.274c0.348-0.482,4.782-6.678,5.077-7.891C47.363,37.796,47.36,37.45,47.093,36.535L47.093,36.535z
		 M8.662,24.276h12.58v1.507l-12.58,0V24.276z M8.662,27.844h5.465v1.915h1.73v-1.915h5.385v5.02H8.662V27.844z M18.193,52.49
		c-1.918,0-3.488-1.54-3.599-3.477h7.198C21.681,50.95,20.112,52.49,18.193,52.49z M26.185,45.98
		c-0.095,0.263-0.338,0.426-0.598,0.426c-0.074,0-0.149-0.012-0.222-0.04c-0.329-0.125-0.498-0.502-0.375-0.839
		c0.008-0.023,0.891-2.569-0.493-4.616c-0.867-1.28-3.44-1.28-4.357-1.173c-0.349,0.041-0.666-0.214-0.706-0.571
		c-0.041-0.358,0.209-0.682,0.559-0.723c0.166-0.021,4.076-0.456,5.55,1.724C27.313,42.782,26.232,45.852,26.185,45.98L26.185,45.98
		z M45.055,38.284c-0.265,0.742-3.279,5.139-4.753,7.19c-0.012,0.014-0.021,0.028-0.031,0.044c-0.821,1.272-2.049,1.321-2.087,1.323
		h-5.05c-1.531-1.14-3.225-3.033-2.912-5.721c0.354-3.043,3.919-4.729,4.105-5.577c0.084-0.394-0.111-0.556-0.281-0.626l3.456,0.315
		l-2.821,8.567c-0.284,1.156,0.602,2.099,1.131,2.279c0.948,0.324,2.478,0.182,3.043-2.279c0.121-0.523,3.008-9.561,3.008-9.561
		c0.426-1.412-0.742-3.006-2.332-3.24l-8.188-1.38l0.203-0.972c-0.023-0.031-2.319-4.765-2.319-4.765
		c-0.155-0.323-0.026-0.714,0.289-0.874c0.315-0.16,0.697-0.027,0.853,0.295l2.143,4.428c0.173,0.34,0.663,0.497,1.038,0.497
		l5.158-0.003c-0.213,0.199-0.347,0.482-0.347,0.799c0,0.6,0.475,1.087,1.061,1.087h2.509c1.465,3.217,2.991,6.628,3.126,7.047
		C45.205,37.664,45.205,37.664,45.055,38.284L45.055,38.284z"/>
</g>
</svg>
