<?xml version="1.0" encoding="utf-8"?>
<!-- Generator: Adobe Illustrator 16.0.0, SVG Export Plug-In . SVG Version: 6.00 Build 0)  -->
<!DOCTYPE svg PUBLIC "-//W3C//DTD SVG 1.1//EN" "http://www.w3.org/Graphics/SVG/1.1/DTD/svg11.dtd">
<svg version="1.1" id="Layer_1" xmlns="http://www.w3.org/2000/svg" xmlns:xlink="http://www.w3.org/1999/xlink" x="0px" y="0px"
	 width="64px" height="64px" viewBox="0 0 64 64" enable-background="new 0 0 64 64" xml:space="preserve">
<g>
	<path fill="#9838F4" d="M27.96,37.949c0.125,0,0.221-0.908,0.211-2.027c0-0.102-0.001-0.197-0.004-0.295
		c-0.068-0.016-0.137-0.021-0.206-0.021c-0.083,0-0.166,0.014-0.247,0.035c-0.001,0.092-0.001,0.188-0.001,0.283
		C27.722,37.045,27.833,37.951,27.96,37.949L27.96,37.949z"/>
	<path fill="#9838F4" d="M28.197,38.969c0.004,0.535-0.414,0.539-0.417,0.002C27.774,38.436,28.192,38.432,28.197,38.969"/>
	<path fill="#9838F4" d="M26.737,40.85c-0.036,0.07-0.07,0.143-0.104,0.211c0.095,0.23,0.206,0.434,0.328,0.609
		c0.035-0.066,0.07-0.131,0.105-0.199c0.405-0.793,0.659-1.576,0.568-1.748C27.542,39.551,27.14,40.057,26.737,40.85L26.737,40.85z"
		/>
	<path fill="#9838F4" d="M27.593,38.277c0.089-0.172-0.179-0.951-0.597-1.74c-0.036-0.07-0.073-0.139-0.111-0.203
		c-0.118,0.182-0.223,0.393-0.313,0.627c0.033,0.064,0.069,0.135,0.105,0.203C27.096,37.951,27.504,38.451,27.593,38.277
		L27.593,38.277z"/>
	<path fill="#9838F4" d="M27.458,39.012c-0.002-0.242-0.475-0.438-1.056-0.434c-0.052,0-0.103,0.004-0.153,0.008
		c-0.007,0.129-0.01,0.262-0.009,0.396c0.001,0.16,0.009,0.32,0.022,0.475c0.047,0.002,0.098,0.004,0.147,0.004
		C26.991,39.457,27.461,39.256,27.458,39.012L27.458,39.012z"/>
	<path fill="#9838F4" d="M28.342,38.219c0.091,0.17,0.492-0.334,0.897-1.129c0.036-0.07,0.07-0.143,0.104-0.213
		c-0.095-0.229-0.206-0.432-0.329-0.607c-0.034,0.064-0.069,0.131-0.104,0.199C28.506,37.264,28.251,38.047,28.342,38.219
		L28.342,38.219L28.342,38.219z"/>
	<path fill="#9838F4" d="M28.517,38.928c0.002,0.242,0.476,0.438,1.057,0.434c0.052,0,0.103-0.004,0.152-0.006
		c0.007-0.131,0.011-0.264,0.01-0.398c-0.001-0.162-0.009-0.32-0.022-0.475c-0.048-0.002-0.097-0.004-0.147-0.004
		C28.984,38.482,28.515,38.684,28.517,38.928L28.517,38.928z"/>
	<path fill="#9838F4" d="M28.017,39.99c-0.125,0-0.222,0.91-0.213,2.027c0.001,0.1,0.003,0.197,0.006,0.295
		c0.068,0.014,0.136,0.021,0.206,0.021c0.083,0,0.165-0.016,0.246-0.035c0.001-0.094,0.001-0.189,0-0.285
		C28.252,40.896,28.143,39.988,28.017,39.99L28.017,39.99z"/>
	<path fill="#9838F4" d="M28.383,39.662c-0.088,0.174,0.179,0.953,0.597,1.74c0.037,0.068,0.074,0.137,0.112,0.203
		c0.117-0.182,0.222-0.393,0.312-0.625c-0.033-0.066-0.068-0.135-0.104-0.203C28.88,39.988,28.47,39.488,28.383,39.662
		L28.383,39.662z"/>
	<path fill="#9838F4" d="M42.829,32.433c0-0.074-0.002-0.149-0.002-0.221c-0.035-0.012-0.07-0.02-0.105-0.019
		c-0.041,0-0.08,0.01-0.119,0.026c0,0.07,0,0.142,0,0.215c0.006,0.843,0.063,1.524,0.127,1.524
		C42.79,33.959,42.835,33.275,42.829,32.433L42.829,32.433z"/>
	<path fill="#9838F4" d="M42.849,34.727c0.004,0.404-0.205,0.406-0.207,0.002C42.638,34.324,42.847,34.322,42.849,34.727"/>
	<path fill="#9838F4" d="M42.126,36.141c-0.02,0.053-0.035,0.107-0.051,0.158c0.047,0.172,0.104,0.326,0.164,0.457
		c0.018-0.047,0.033-0.098,0.049-0.148c0.201-0.598,0.326-1.186,0.281-1.314S42.323,35.543,42.126,36.141L42.126,36.141
		L42.126,36.141z"/>
	<path fill="#9838F4" d="M42.548,34.207c0.043-0.131-0.092-0.717-0.301-1.313c-0.02-0.053-0.037-0.104-0.057-0.152
		c-0.059,0.137-0.109,0.295-0.154,0.471c0.018,0.051,0.033,0.104,0.053,0.154C42.298,33.961,42.503,34.336,42.548,34.207
		L42.548,34.207z"/>
	<path fill="#9838F4" d="M41.888,35.092c0.023,0,0.049,0.002,0.072,0.002c0.289-0.002,0.521-0.152,0.52-0.336
		c0-0.182-0.236-0.33-0.523-0.326c-0.025,0-0.053,0.002-0.076,0.004c-0.002,0.098-0.006,0.197-0.004,0.299
		C41.878,34.855,41.882,34.975,41.888,35.092z"/>
	<path fill="#9838F4" d="M43.362,33.316c0.02-0.055,0.035-0.107,0.051-0.16c-0.047-0.172-0.102-0.326-0.164-0.457
		c-0.018,0.047-0.033,0.098-0.051,0.148c-0.199,0.598-0.324,1.186-0.279,1.314C42.964,34.293,43.163,33.912,43.362,33.316
		L43.362,33.316z"/>
	<path fill="#9838F4" d="M43.009,34.697c0,0.182,0.236,0.328,0.525,0.326c0.025,0,0.051-0.002,0.076-0.004
		c0.002-0.1,0.004-0.197,0.002-0.299c0-0.121-0.004-0.24-0.012-0.357c-0.023-0.002-0.047-0.004-0.072-0.004
		C43.241,34.363,43.007,34.514,43.009,34.697L43.009,34.697z"/>
	<path fill="#9838F4" d="M42.661,37.021c0,0.076,0,0.15,0.002,0.221c0.033,0.012,0.068,0.02,0.102,0.02
		c0.043-0.002,0.084-0.01,0.123-0.027c0-0.07,0-0.141,0-0.213c-0.008-0.844-0.064-1.525-0.127-1.525S42.651,36.18,42.661,37.021
		L42.661,37.021z"/>
	<path fill="#9838F4" d="M42.942,35.25c-0.045,0.129,0.092,0.715,0.301,1.311c0.018,0.053,0.037,0.104,0.055,0.152
		c0.059-0.137,0.111-0.295,0.156-0.469c-0.018-0.053-0.035-0.104-0.055-0.154C43.19,35.496,42.985,35.119,42.942,35.25L42.942,35.25
		z"/>
	<path fill="#9838F4" d="M43.095,30.058c0.65-0.148,0.912,1.296,0.922,2.388c0.242-0.95-0.141-4.789-0.373-5.665
		c-0.232-0.875-0.584-1.015-1.141-1.533c-0.717-1.869-1.816-4.492-3.875-4.928c-2.059-0.435-11.906-0.15-16.592-0.116
		c-4.686,0.034-5.358,0.608-6.63,1.423c-0.746,0.478-2.304,2.394-3.467,3.898c0,0-2.739,0.082-2.636,2.206
		c-1.492,0.371-3.893,1.017-5.139,1.518c-1.715,0.693-2.598,3.197-3.136,4.767c-0.538,1.57,0.19,4.822,0.378,5.342
		c0.082,0.227,0.26,0.414,0.436,0.561c0.313,0.975,1.561,3.512,5.795,1.596c2.398,0.141,8.13,0.479,8.763,0.549
		c0.803,0.09,0.972,0.326,0.972,0.326s2.524,0.186,3.88,0.32c1.354,0.131,1.449-0.406,1.696-1.01
		c0.049-0.004,0.095-0.02,0.143-0.031c0.212,0.6,0.888,2.127,2.23,2.18c1.671,0.066,2.101,0.129,2.708-0.02
		c1.292-0.01,2.344-1.893,2.469-4.309c1.369-0.438,7.002-2.234,8.743-2.781c0.098,0.535,0.27,1.152,0.574,1.434
		c0.592,0.553,2.336,0.512,2.961,0.213c0.693-0.004,1.24-1.646,1.225-3.664s-0.592-3.651-1.283-3.646c0,0-0.252-0.038-0.607-0.038
		C42.479,30.42,42.833,30.116,43.095,30.058L43.095,30.058z M30.838,21.751l4.308-0.118c0.371,0.93,1.348,3.425,1.73,4.711
		c-0.498,0.097-0.82,0.159-0.82,0.159s-0.76-1.148-2.16-0.759c-1.401,0.389-1.295,1.226-1.295,1.226s-0.329,0.619-0.413,0.619
		c-0.083,0-1.2,0.167-1.2,0.167s-0.101,0.031-0.105-0.522L30.838,21.751L30.838,21.751z M12.014,25.789
		c1.335-1.754,3.45-4.051,3.45-4.051s12.951,0.063,13.485,0.06c0.535-0.003,0.622,0.486,0.622,0.486s-0.095,4.823-0.156,5.565
		c-0.333,0.098-4.008,0.298-6.534-0.079c-2.526-0.377-10.766-0.506-11.9-0.349C11.096,27.069,11.497,26.471,12.014,25.789
		L12.014,25.789z M9.244,29.982c0,0,0.03,0,0.084-0.001l0.016,0c0.672-0.015,4.559-0.091,5.053,0.155
		c0.152,0.142-0.421,0.643-0.946,0.79c0.374-0.204,0.599-0.335,0.598-0.408c0-0.071-3.582-0.128-4.285-0.123
		c-0.04,0-0.075-0.003-0.109-0.008c-0.481,0.21-1.031,0.401-1.032,0.265C8.622,30.497,9.244,29.982,9.244,29.982L9.244,29.982z
		 M1.765,32.404c0.672-1.648,1.692-2.622,1.692-2.622c0.673-0.4,0.737,0.318,0.478,1.159c-0.777,2.031-1.652,2.393-1.911,2.395
		C1.764,33.338,1.585,32.912,1.765,32.404L1.765,32.404z M2.145,36.568c0.333-0.002,0.605,0.318,0.608,0.715
		c0.004,0.396-0.265,0.721-0.597,0.723c-0.333,0.004-0.606-0.316-0.609-0.713C1.544,36.895,1.811,36.57,2.145,36.568z
		 M17.007,38.848c0.001,0.221,0.028,1.408-1.96,1.422c-1.988,0.014-8.272-0.098-10.149-0.67c-0.787-0.248-0.893-0.865-1.028-1.131
		c-0.136-0.268-0.326-1.088-0.008-1.09l0.451-0.004c0,0,11.334,0.645,12.421,0.779C17.202,38.293,17.003,38.627,17.007,38.848
		L17.007,38.848L17.007,38.848z M16.862,35.322c-0.769,0.006-11.449-0.217-13.123-0.615c-0.401-0.092-0.306-0.582-0.239-0.693
		c0,0,0.724-1.35,2.06-1.461c1.336-0.114,9.208,0.145,10.6,0.721c0.973,0.418,1.3,1.619,1.3,1.619S17.631,35.316,16.862,35.322
		L16.862,35.322z M20.905,39.182c-0.444,0.004-0.806-0.369-0.81-0.83c-0.004-0.463,0.354-0.84,0.796-0.844
		c0.444-0.004,0.806,0.369,0.809,0.832C21.705,38.801,21.348,39.18,20.905,39.182z M19.72,33.311
		c-0.491-0.707,0.081-1.81,0.417-2.059c0,0,2.158-1.833,3.739-0.549c0.657,0.612,0.419,2.274-0.763,2.886
		C21.932,34.195,20.631,34.6,19.72,33.311L19.72,33.311z M28.019,42.742c-1.082,0.008-1.974-1.674-1.99-3.76
		c-0.017-2.084,0.847-3.781,1.929-3.789c1.083-0.008,1.974,1.676,1.991,3.76C29.964,41.039,29.102,42.734,28.019,42.742z
		 M30.434,37.857c-0.274-2.152-1.288-3.754-2.485-3.744c0,0-0.51-0.08-1.174-0.072c0.708-1.043,1.575-1.757,2.505-1.311
		C30.618,33.371,30.609,36.039,30.434,37.857L30.434,37.857z M30.769,37.861l8.439-2.609l-0.059,0.357l-8.379,2.537L30.769,37.861
		L30.769,37.861z M37.435,28.63c-0.021-0.103,0.232-0.237,0.566-0.302s0.623-0.033,0.646,0.069c0.021,0.102-0.232,0.238-0.566,0.302
		C37.747,28.763,37.458,28.732,37.435,28.63L37.435,28.63z M42.72,31.886c0.539-0.004,0.986,1.265,1,2.833
		c0.012,1.57-0.414,2.844-0.953,2.85c-0.537,0.004-0.984-1.266-0.996-2.834C41.757,33.166,42.183,31.89,42.72,31.886z M37.462,26.23
		c-0.426-1.275-1.25-3.706-1.633-4.617l4.381-0.12c0,0,2.014,3.131,2.02,3.779C41.683,25.403,39.11,25.91,37.462,26.23L37.462,26.23
		z"/>
</g>
<g>
	<path fill="#9838F4" d="M49.689,29.603c-0.662,0.003-1.296,0.298-1.764,0.818c-0.469,0.521-0.732,1.227-0.736,1.963v11.153l0,0
		c0,0.994,0.477,1.914,1.252,2.411c0.773,0.497,1.728,0.497,2.502,0c0.773-0.497,1.25-1.417,1.25-2.411V32.385l0,0
		c-0.002-0.738-0.268-1.444-0.736-1.966C50.987,29.898,50.352,29.604,49.689,29.603L49.689,29.603z"/>
	<path fill="#9838F4" d="M52.818,39.352h4.38v1.392h-4.38V39.352z M42.209,40.743h4.379v-1.392h-4.402L42.209,40.743z"/>
	<path fill="#9838F4" d="M62.078,12.198h-1.856c-0.169-0.007-0.335,0.063-0.457,0.194s-0.191,0.312-0.19,0.501v1.424l-3.938,1.456
		v2.506l-2.947,2.171c-0.456-0.71-1.063-1.283-1.769-1.666v-1.712c0-0.374-0.266-0.682-0.601-0.695h-1.256
		c-0.167-0.002-0.327,0.071-0.445,0.201c-0.119,0.131-0.186,0.309-0.186,0.494v1.686c-0.705,0.383-1.313,0.956-1.768,1.667
		l-2.947-2.172v-2.48l-3.908-1.456v-1.424c0-0.185-0.066-0.361-0.184-0.492s-0.275-0.204-0.441-0.204h-1.881
		c-0.445,0-0.857,0.265-1.082,0.695c-0.223,0.43-0.223,0.96,0,1.391c0.224,0.431,0.637,0.695,1.082,0.695h2.329l3.489,1.313v1.154
		h-3.124v1.391h3.348l2.977,2.211h0.001c-1.129,2.193-1.693,4.69-1.633,7.217c-0.064,2.668,0.588,5.298,1.874,7.551v-3.425
		c0.047-1.208,0.653-2.302,1.602-2.891s2.103-0.589,3.051,0s1.554,1.683,1.601,2.891v3.425c1.296-2.269,1.949-4.917,1.875-7.604
		c0.061-2.526-0.504-5.023-1.633-7.216l2.977-2.211h3.348v-1.338h-3.123v-1.168l3.489-1.312h2.328c0.446,0,0.858-0.265,1.082-0.695
		s0.224-0.96,0-1.391c-0.224-0.43-0.636-0.695-1.082-0.695L62.078,12.198L62.078,12.198z M49.701,26.821L49.701,26.821
		c-0.662,0.002-1.297-0.289-1.766-0.807c-0.471-0.519-0.736-1.223-0.739-1.959c-0.003-0.736,0.255-1.444,0.72-1.968
		c0.464-0.524,1.096-0.822,1.758-0.828c0.661-0.006,1.299,0.279,1.771,0.794c0.473,0.515,0.742,1.218,0.75,1.954
		c0.008,0.744-0.253,1.461-0.724,1.99c-0.471,0.529-1.113,0.826-1.781,0.824H49.701z"/>
</g>
</svg>
