<?xml version="1.0" encoding="utf-8"?>
<!-- Generator: Adobe Illustrator 16.0.0, SVG Export Plug-In . SVG Version: 6.00 Build 0)  -->
<!DOCTYPE svg PUBLIC "-//W3C//DTD SVG 1.1//EN" "http://www.w3.org/Graphics/SVG/1.1/DTD/svg11.dtd">
<svg version="1.1" id="Layer_1" xmlns="http://www.w3.org/2000/svg" xmlns:xlink="http://www.w3.org/1999/xlink" x="0px" y="0px"
	 width="64px" height="64px" viewBox="0 0 64 64" enable-background="new 0 0 64 64" xml:space="preserve">
<g>
	<path fill="#00AAAA" d="M3,14.512v24.663c0,0.38,0.274,0.684,0.613,0.684h7.148c0.214-0.385,0.471-0.743,0.764-1.071
		c1.008-1.12,2.365-1.746,3.791-1.746c1.426,0,2.782,0.626,3.791,1.746c0.292,0.328,0.549,0.687,0.764,1.071h7.025v-0.341
		c0-1.13,0.825-2.048,1.839-2.048h11.031c1.016,0,1.839,0.918,1.839,2.048v0.341h2.188c0.203-0.354,0.442-0.684,0.715-0.987
		c1.008-1.122,2.365-1.744,3.791-1.744c1.425,0,2.782,0.622,3.789,1.744c0.273,0.304,0.513,0.634,0.716,0.987
		c0.617,0.002,1.235,0,1.854,0l-0.009,2.18c0,0.421,0.306,0.686,0.666,0.68c1.539-0.001,3.08,0,4.619,0
		c0.87,0,1.916-0.574,1.92-1.669c0.014-2.603,0.013-5.207,0.013-7.811c0-0.229,0.022-0.448-0.085-0.652l-5.034-11.364
		c-0.106-0.238-0.317-0.385-0.556-0.381H43.646v-6.328c0-0.404-0.299-0.69-0.664-0.679H3.614C3.262,13.848,3.001,14.145,3,14.512
		L3,14.512z M7.804,19.493c0-0.378,0.275-0.684,0.613-0.684c0.339,0,0.613,0.306,0.613,0.684v13.639
		c0,0.381-0.274,0.684-0.613,0.684c-0.338,0-0.613-0.306-0.613-0.684V19.493z M11.483,33.132V19.493
		c0-0.378,0.274-0.684,0.613-0.684c0.339,0,0.613,0.306,0.613,0.684v13.639c0,0.381-0.274,0.684-0.613,0.684
		C11.757,33.815,11.483,33.509,11.483,33.132z M15.161,33.132V19.493c0-0.378,0.274-0.684,0.613-0.684
		c0.338,0,0.613,0.306,0.613,0.684v13.639c0,0.381-0.275,0.684-0.613,0.684C15.435,33.813,15.161,33.509,15.161,33.132z
		 M18.839,33.132V19.493c0-0.378,0.276-0.684,0.613-0.684c0.339,0,0.613,0.306,0.613,0.684v13.639c0,0.381-0.274,0.684-0.613,0.684
		C19.114,33.813,18.839,33.509,18.839,33.132z M22.52,33.132V19.493c0-0.378,0.274-0.684,0.612-0.684
		c0.339,0,0.614,0.306,0.614,0.684v13.639c0,0.381-0.276,0.684-0.614,0.684C22.794,33.813,22.52,33.509,22.52,33.132z
		 M26.198,33.132V19.493c0-0.378,0.275-0.684,0.614-0.684c0.338,0,0.613,0.306,0.613,0.684v13.639c0,0.381-0.274,0.684-0.613,0.684
		C26.473,33.813,26.198,33.509,26.198,33.132z M29.877,33.132V19.493c0-0.378,0.274-0.684,0.613-0.684s0.612,0.306,0.612,0.684
		v13.639c0,0.381-0.273,0.684-0.612,0.684C30.151,33.813,29.877,33.509,29.877,33.132z M33.555,33.132V19.493
		c0-0.378,0.277-0.684,0.615-0.684s0.611,0.306,0.611,0.684v13.639c0,0.381-0.273,0.684-0.611,0.684
		C33.83,33.813,33.555,33.509,33.555,33.132z M37.236,33.132V19.493c0-0.378,0.274-0.684,0.612-0.684s0.611,0.306,0.611,0.684
		v13.639c0,0.381-0.275,0.684-0.611,0.684C37.509,33.813,37.236,33.509,37.236,33.132z M45.949,28.589l-0.086-4.087
		c-0.006-0.423,0.241-0.757,0.608-0.757h8.092c0.24-0.003,0.461,0.151,0.561,0.395l3.578,8.484c0.284,0.549-0.215,1.204-0.729,0.985
		l-11.574-4.378c-0.257-0.076-0.452-0.344-0.452-0.641v-0.001H45.949z M46.472,31.639h1.688c0.339,0,0.612,0.307,0.612,0.682
		c0,0.378-0.273,0.682-0.612,0.682h-1.688c-0.339,0-0.612-0.304-0.612-0.682S46.133,31.639,46.472,31.639z"/>
	<path fill="#00AAAA" d="M47.161,28.083l9.85,3.724l-2.823-6.696H47.1L47.161,28.083z"/>
	<path fill="#00AAAA" d="M47.126,41.786c-0.301,0.332-0.484,0.793-0.484,1.304c0,0.508,0.184,0.971,0.484,1.303
		c0.3,0.335,0.715,0.539,1.172,0.539c0.458,0,0.873-0.204,1.172-0.539c0.299-0.332,0.486-0.794,0.486-1.303
		c0-0.51-0.188-0.972-0.486-1.304c-0.299-0.334-0.715-0.539-1.172-0.539S47.426,41.452,47.126,41.786z"/>
	<path fill="#00AAAA" d="M45.374,46.255c0.748,0.834,1.781,1.349,2.924,1.349c1.142,0,2.175-0.515,2.924-1.349
		c0.749-0.831,1.213-1.979,1.213-3.251c0-1.27-0.464-2.42-1.213-3.251c-0.747-0.834-1.779-1.347-2.924-1.347
		c-1.143,0-2.174,0.513-2.924,1.347c-0.748,0.832-1.211,1.983-1.211,3.251C44.163,44.275,44.626,45.424,45.374,46.255z
		 M50.353,45.291c-0.523,0.586-1.251,0.948-2.055,0.948c-0.803,0-1.529-0.366-2.057-0.948c-0.525-0.584-0.852-1.395-0.852-2.287
		c0-0.895,0.326-1.703,0.852-2.285c0.527-0.588,1.254-0.949,2.057-0.949c0.804,0,1.53,0.363,2.055,0.949
		c0.527,0.584,0.854,1.391,0.854,2.285C51.207,43.896,50.88,44.707,50.353,45.291z"/>
	<path fill="#00AAAA" d="M28.125,39.518v3.361c0,0.376,0.274,0.68,0.612,0.68h11.029c0.339,0,0.613-0.304,0.613-0.68v-3.361
		c0-0.375-0.274-0.681-0.613-0.681h-11.03C28.399,38.837,28.125,39.143,28.125,39.518z"/>
	<path fill="#00AAAA" d="M13.659,43.004c0,0.511,0.185,0.97,0.486,1.305c0.299,0.331,0.714,0.539,1.171,0.539
		c0.458,0,0.872-0.208,1.172-0.539c0.3-0.333,0.486-0.794,0.486-1.305c0-0.506-0.185-0.968-0.486-1.304
		c-0.3-0.333-0.715-0.54-1.172-0.54c-0.458,0-0.873,0.209-1.171,0.54C13.844,42.033,13.659,42.495,13.659,43.004z"/>
	<path fill="#00AAAA" d="M18.225,43.004c0,0.895-0.326,1.704-0.852,2.287c-0.525,0.586-1.253,0.948-2.056,0.948
		c-0.804,0-1.531-0.366-2.058-0.948c-0.526-0.584-0.852-1.395-0.852-2.287c0-0.895,0.326-1.703,0.852-2.285
		c0.526-0.588,1.253-0.949,2.058-0.949c0.803,0,1.53,0.363,2.056,0.949C17.899,41.301,18.225,42.108,18.225,43.004z M11.182,43.004
		c0,1.271,0.462,2.421,1.211,3.251c0.748,0.834,1.782,1.349,2.924,1.349s2.174-0.515,2.923-1.349
		c0.748-0.831,1.211-1.979,1.211-3.251c0-1.27-0.463-2.42-1.211-3.251c-0.749-0.834-1.781-1.347-2.923-1.347
		s-2.175,0.513-2.924,1.347C11.645,40.584,11.182,41.734,11.182,43.004z"/>
</g>
</svg>
