<?xml version="1.0" encoding="utf-8"?>
<!-- Generator: Adobe Illustrator 16.0.0, SVG Export Plug-In . SVG Version: 6.00 Build 0)  -->
<!DOCTYPE svg PUBLIC "-//W3C//DTD SVG 1.1//EN" "http://www.w3.org/Graphics/SVG/1.1/DTD/svg11.dtd">
<svg version="1.1" id="Layer_1" xmlns="http://www.w3.org/2000/svg" xmlns:xlink="http://www.w3.org/1999/xlink" x="0px" y="0px"
	 width="64px" height="64px" viewBox="0 0 64 64" enable-background="new 0 0 64 64" xml:space="preserve">
<g>
	<path fill="#F01A1A" d="M20.547,29.729c-0.251-0.092-0.505-0.175-0.763-0.247c-0.252-0.07-0.512-0.131-0.777-0.182v-2.563
		c0-0.337-0.262-0.609-0.584-0.609h-2.392c-0.322,0-0.584,0.273-0.584,0.609V29.3c-0.266,0.051-0.525,0.11-0.776,0.182
		c-0.258,0.071-0.513,0.154-0.763,0.247l-1.201-2.168c-0.14-0.319-0.529-0.458-0.822-0.271l-2.023,1.219
		c-0.299,0.144-0.444,0.559-0.26,0.858l1.229,2.222c-0.205,0.181-0.401,0.37-0.588,0.563c-0.186,0.195-0.366,0.399-0.54,0.614
		L7.62,31.511c-0.282-0.21-0.67-0.117-0.842,0.193L5.61,33.816c-0.203,0.298-0.111,0.69,0.187,0.878l2.125,1.28
		C7.833,36.237,7.753,36.5,7.684,36.77c-0.067,0.265-0.125,0.535-0.173,0.811H5.054c-0.322,0-0.584,0.274-0.584,0.611v2.494
		c0,0.338,0.262,0.609,0.584,0.609h2.457c0.048,0.278,0.105,0.548,0.173,0.812c0.069,0.27,0.148,0.536,0.237,0.796l-2.079,1.252
		c-0.323,0.152-0.424,0.537-0.26,0.857l1.169,2.111c0.141,0.32,0.527,0.458,0.822,0.271l2.129-1.283
		c0.174,0.215,0.354,0.419,0.54,0.614c0.187,0.195,0.383,0.382,0.588,0.564l-1.201,2.171c-0.196,0.289-0.118,0.707,0.185,0.88
		c0.69,0.415,1.38,0.833,2.07,1.248c0.299,0.182,0.612,0.06,0.796-0.225l1.227-2.219c0.25,0.095,0.505,0.177,0.763,0.251
		c0.252,0.069,0.511,0.13,0.776,0.18v2.563c0,0.337,0.263,0.61,0.584,0.61h2.392c0.323,0,0.584-0.275,0.584-0.61v-2.563
		c0.266-0.05,0.525-0.11,0.777-0.18c0.258-0.074,0.512-0.156,0.763-0.251l1.201,2.17c0.137,0.313,0.539,0.452,0.822,0.272
		l2.023-1.219c0.329-0.158,0.417-0.533,0.261-0.859l-1.229-2.22c0.204-0.183,0.4-0.369,0.586-0.563
		c0.187-0.196,0.367-0.399,0.542-0.611l2.082,1.251c0.275,0.205,0.678,0.12,0.842-0.194l1.168-2.111
		c0.159-0.313,0.126-0.684-0.186-0.878L26.533,42.9c0.089-0.258,0.168-0.523,0.237-0.794c0.067-0.261,0.125-0.532,0.173-0.81h2.458
		c0.322,0,0.583-0.273,0.583-0.609v-2.496c0-0.337-0.261-0.608-0.583-0.608h-2.458c-0.048-0.277-0.105-0.548-0.172-0.812
		c-0.07-0.269-0.149-0.533-0.238-0.795l2.092-1.261c0.288-0.199,0.406-0.517,0.247-0.851l-1.169-2.112
		c-0.143-0.324-0.525-0.454-0.821-0.271l-2.129,1.283c-0.174-0.213-0.354-0.417-0.541-0.612c-0.187-0.194-0.383-0.383-0.587-0.563
		l1.208-2.184c0.155-0.286,0.113-0.688-0.194-0.868l-2.023-1.218c-0.283-0.21-0.667-0.116-0.842,0.195l-1.226,2.218L20.547,29.729z
		 M11.574,33.541c0.228-0.238,0.598-0.238,0.827,0l1.602,1.688c0.911-0.761,2.043-1.18,3.224-1.18c1.177,0,2.306,0.415,3.216,1.173
		l1.61-1.68c0.228-0.237,0.598-0.237,0.826,0c0.229,0.236,0.229,0.623,0,0.861l-1.609,1.68c0.725,0.95,1.123,2.129,1.123,3.356
		c0,1.222-0.396,2.396-1.115,3.346l1.602,1.688c0.229,0.239,0.229,0.624,0,0.862c-0.228,0.238-0.597,0.238-0.826,0l-1.6-1.687
		c-0.912,0.762-2.045,1.179-3.226,1.179c-1.178,0-2.307-0.414-3.216-1.172l-1.61,1.68c-0.229,0.238-0.599,0.238-0.827,0
		c-0.228-0.236-0.228-0.623,0-0.862l1.61-1.678c-0.726-0.949-1.124-2.129-1.124-3.356c0-1.224,0.396-2.397,1.115-3.345l-1.767-1.845
		C11.18,34.012,11.346,33.779,11.574,33.541L11.574,33.541z"/>
	<path fill="#F01A1A" d="M21.223,39.438c0,1.109-0.418,2.164-1.17,2.947c-0.751,0.786-1.763,1.223-2.826,1.223
		c-1.063,0-2.075-0.437-2.827-1.223c-0.752-0.784-1.17-1.838-1.17-2.947c0-1.111,0.418-2.165,1.17-2.949
		c0.752-0.786,1.764-1.222,2.827-1.222c1.063,0,2.075,0.436,2.826,1.222C20.805,37.274,21.223,38.327,21.223,39.438z M18.854,37.74
		c-0.434-0.452-1.015-0.704-1.627-0.704c-0.613,0-1.195,0.252-1.628,0.704c-0.434,0.452-0.675,1.058-0.675,1.698
		c0,0.639,0.241,1.246,0.675,1.698c0.433,0.452,1.015,0.702,1.628,0.702c0.612,0,1.194-0.25,1.627-0.702
		c0.434-0.452,0.674-1.06,0.674-1.698C19.528,38.798,19.288,38.191,18.854,37.74z"/>
	<path fill="#F01A1A" d="M18.652,39.438c0-0.412-0.16-0.783-0.417-1.054c-0.259-0.269-0.614-0.436-1.008-0.436
		s-0.751,0.167-1.01,0.436c-0.257,0.271-0.417,0.642-0.417,1.054c0,0.41,0.16,0.781,0.417,1.053c0.259,0.268,0.615,0.435,1.01,0.435
		c0.393,0,0.75-0.167,1.008-0.435C18.492,40.22,18.652,39.849,18.652,39.438z"/>
	<path fill="#F01A1A" d="M21.165,22.74c0.136,0.308,0.537,0.466,0.822,0.27l1.765-1.063c0.138,0.167,0.279,0.325,0.423,0.476
		c0.146,0.152,0.298,0.3,0.457,0.442l-0.992,1.793c-0.204,0.301-0.109,0.689,0.187,0.879l1.729,1.042
		c0.281,0.207,0.67,0.117,0.843-0.194l1.018-1.839c0.196,0.07,0.394,0.134,0.595,0.19c0.197,0.055,0.398,0.104,0.604,0.144v2.127
		c0,0.337,0.262,0.609,0.584,0.609h2.051c0.323,0,0.584-0.273,0.584-0.609v-2.127c0.207-0.041,0.408-0.088,0.605-0.144
		c0.201-0.056,0.4-0.121,0.595-0.191l0.99,1.791c0.144,0.325,0.525,0.453,0.822,0.271l1.729-1.041
		c0.331-0.16,0.413-0.529,0.26-0.858l-1.02-1.842c0.159-0.142,0.31-0.29,0.455-0.442c0.147-0.152,0.287-0.31,0.424-0.476
		l1.729,1.043c0.272,0.189,0.677,0.106,0.834-0.203l0.996-1.804c0.162-0.312,0.124-0.688-0.186-0.878l-1.765-1.063
		c0.068-0.203,0.13-0.41,0.184-0.62c0.053-0.205,0.1-0.416,0.138-0.631h2.038c0.323,0,0.585-0.273,0.585-0.609v-2.14
		c0-0.336-0.263-0.61-0.585-0.61h-2.038c-0.038-0.214-0.085-0.425-0.138-0.629c-0.053-0.21-0.115-0.417-0.184-0.622l1.729-1.041
		c0.294-0.174,0.422-0.537,0.248-0.851l-0.999-1.804c-0.147-0.335-0.516-0.443-0.822-0.272l-1.766,1.063
		c-0.137-0.166-0.276-0.324-0.424-0.475c-0.146-0.152-0.296-0.299-0.455-0.442l0.992-1.793c0.188-0.276,0.118-0.719-0.185-0.878
		l-1.729-1.042c-0.293-0.215-0.656-0.113-0.844,0.195l-1.017,1.839c-0.196-0.071-0.395-0.134-0.596-0.191
		c-0.196-0.055-0.397-0.103-0.604-0.144V5.22c0-0.337-0.262-0.61-0.584-0.61H29.2c-0.324,0-0.584,0.273-0.584,0.61v2.126
		c-0.207,0.042-0.409,0.089-0.605,0.144c-0.202,0.056-0.4,0.12-0.596,0.19L26.424,5.89C26.28,5.563,25.9,5.436,25.603,5.619
		L23.874,6.66c-0.323,0.155-0.424,0.536-0.26,0.857l1.02,1.842c-0.159,0.143-0.312,0.29-0.457,0.442
		c-0.145,0.152-0.286,0.309-0.422,0.476l-1.719-1.036c-0.28-0.207-0.672-0.117-0.842,0.195l-0.998,1.804
		c-0.2,0.294-0.111,0.697,0.186,0.878l1.764,1.062c-0.068,0.204-0.13,0.412-0.184,0.622c-0.052,0.205-0.098,0.416-0.137,0.632
		h-2.039c-0.323,0-0.584,0.272-0.584,0.608v2.14c0,0.336,0.262,0.609,0.584,0.609h2.039c0.039,0.215,0.085,0.426,0.137,0.631
		c0.054,0.209,0.115,0.417,0.183,0.621l-1.729,1.041c-0.311,0.159-0.414,0.538-0.247,0.851L21.165,22.74L21.165,22.74z
		 M26.618,13.212l-1.299-1.355c-0.228-0.238-0.228-0.623,0-0.862c0.228-0.237,0.598-0.237,0.825,0l1.3,1.355
		c0.792-0.638,1.767-0.988,2.781-0.988c1.014,0,1.989,0.35,2.781,0.988l1.301-1.355c0.228-0.237,0.597-0.237,0.823,0
		c0.229,0.237,0.229,0.624,0,0.862l-1.297,1.355c0.611,0.827,0.947,1.843,0.947,2.901c0,1.058-0.336,2.075-0.947,2.901l1.297,1.355
		c0.229,0.237,0.229,0.624,0,0.862c-0.226,0.237-0.595,0.237-0.823,0l-1.301-1.355c-0.792,0.639-1.767,0.988-2.781,0.988
		c-1.014,0-1.988-0.349-2.781-0.988l-1.3,1.355c-0.227,0.237-0.597,0.237-0.825,0c-0.228-0.238-0.228-0.624,0-0.862l1.299-1.355
		c-0.613-0.826-0.948-1.843-0.948-2.901S26.005,14.039,26.618,13.212z"/>
	<path fill="#F01A1A" d="M27.829,13.616c0.637-0.665,1.494-1.035,2.396-1.035c0.901,0,1.758,0.37,2.394,1.035
		c0.637,0.664,0.991,1.558,0.991,2.498c0,0.941-0.354,1.835-0.991,2.499c-0.636,0.665-1.493,1.035-2.394,1.035
		c-0.902,0-1.759-0.37-2.396-1.035c-0.636-0.664-0.992-1.558-0.992-2.499C26.837,15.174,27.191,14.279,27.829,13.616z
		 M28.799,14.627c-0.379,0.396-0.59,0.927-0.59,1.486c0,0.56,0.211,1.092,0.59,1.488s0.888,0.616,1.425,0.616
		c0.537,0,1.045-0.221,1.426-0.616c0.379-0.397,0.589-0.928,0.589-1.488c0-0.559-0.211-1.091-0.589-1.486
		c-0.38-0.396-0.889-0.616-1.426-0.616C29.687,14.011,29.178,14.231,28.799,14.627z"/>
	<path fill="#F01A1A" d="M29.418,15.271c-0.205,0.215-0.334,0.513-0.334,0.841c0,0.329,0.129,0.625,0.334,0.841
		c0.206,0.214,0.491,0.348,0.806,0.348c0.314,0,0.599-0.134,0.806-0.348c0.205-0.216,0.333-0.513,0.333-0.841
		s-0.128-0.625-0.333-0.841c-0.207-0.214-0.492-0.348-0.806-0.348C29.909,14.923,29.625,15.057,29.418,15.271z"/>
	<path fill="#F01A1A" d="M52.252,37.965l-2.19,2.286c0.781,1.002,1.25,2.282,1.25,3.677c0,1.394-0.469,2.674-1.25,3.677l2.19,2.286
		c0.229,0.237,0.229,0.623,0,0.859c-0.228,0.239-0.598,0.239-0.827,0l-2.187-2.282c-0.965,0.815-2.19,1.303-3.526,1.303
		c-1.337,0-2.563-0.487-3.527-1.303l-2.186,2.282c-0.229,0.239-0.601,0.239-0.827,0c-0.229-0.236-0.229-0.622,0-0.859l2.188-2.286
		c-0.78-1.003-1.249-2.283-1.249-3.677c0-1.395,0.469-2.675,1.249-3.677l-2.188-2.286c-0.229-0.236-0.229-0.622,0-0.859
		c0.227-0.238,0.598-0.238,0.827,0l2.186,2.282c0.964-0.814,2.19-1.304,3.527-1.304c1.336,0,2.562,0.488,3.526,1.304l2.187-2.282
		c0.229-0.238,0.6-0.238,0.827,0C52.481,37.341,52.481,37.726,52.252,37.965z M43.729,29.075v3.083
		c-0.336,0.061-0.664,0.136-0.981,0.225c-0.326,0.092-0.647,0.197-0.962,0.318l-1.45-2.62c-0.144-0.324-0.525-0.456-0.821-0.271
		l-2.375,1.43c-0.32,0.153-0.426,0.541-0.26,0.859l1.479,2.671c-0.262,0.227-0.511,0.465-0.745,0.708
		c-0.234,0.246-0.463,0.505-0.68,0.776l-2.514-1.515c-0.277-0.205-0.675-0.119-0.843,0.194l-1.37,2.478
		c-0.19,0.28-0.116,0.714,0.187,0.878l2.557,1.542c-0.114,0.326-0.218,0.662-0.303,1.002c-0.086,0.333-0.158,0.674-0.217,1.024
		h-2.956c-0.322,0-0.584,0.272-0.584,0.608v2.92c0,0.336,0.262,0.609,0.584,0.609h2.956c0.059,0.349,0.131,0.692,0.216,1.022
		c0.086,0.342,0.188,0.678,0.304,1.004l-2.524,1.521c-0.307,0.156-0.414,0.54-0.247,0.85l1.371,2.479
		c0.14,0.317,0.53,0.457,0.821,0.27l2.562-1.543c0.217,0.272,0.445,0.531,0.682,0.775c0.232,0.247,0.481,0.483,0.743,0.711
		l-1.451,2.622c-0.193,0.285-0.116,0.711,0.185,0.879l2.387,1.438c0.283,0.198,0.66,0.102,0.831-0.202l1.478-2.669
		c0.313,0.12,0.637,0.226,0.961,0.316c0.317,0.09,0.646,0.165,0.981,0.225v3.086c0,0.336,0.262,0.608,0.584,0.608h2.797
		c0.323,0,0.584-0.272,0.584-0.608v-3.086c0.335-0.061,0.663-0.135,0.983-0.225c0.324-0.091,0.646-0.196,0.961-0.316l1.449,2.62
		c0.139,0.313,0.538,0.441,0.821,0.272l2.375-1.433c0.327-0.154,0.422-0.535,0.262-0.857l-1.479-2.671
		c0.259-0.228,0.506-0.464,0.743-0.709c0.235-0.246,0.461-0.505,0.68-0.775l2.515,1.513c0.286,0.214,0.661,0.114,0.841-0.194
		l1.372-2.476c0.195-0.291,0.114-0.705-0.186-0.882l-2.559-1.54c0.115-0.326,0.214-0.66,0.302-1
		c0.087-0.333,0.157-0.674,0.217-1.026h2.956c0.323,0,0.584-0.273,0.584-0.609V42.47c0-0.339-0.262-0.61-0.584-0.61h-2.956
		c-0.06-0.351-0.13-0.693-0.217-1.024c-0.087-0.342-0.187-0.674-0.302-1.003l2.523-1.521c0.303-0.155,0.42-0.545,0.247-0.85
		l-1.372-2.479c-0.148-0.341-0.511-0.441-0.822-0.273l-2.561,1.544c-0.218-0.271-0.445-0.529-0.679-0.775
		c-0.236-0.244-0.484-0.481-0.744-0.709l1.46-2.635c0.19-0.296,0.094-0.686-0.195-0.867l-2.374-1.43
		c-0.273-0.201-0.681-0.119-0.841,0.195l-1.478,2.669c-0.314-0.121-0.637-0.226-0.961-0.316c-0.32-0.09-0.647-0.166-0.983-0.225
		v-3.085c0-0.336-0.261-0.609-0.583-0.609h-2.798C43.99,28.466,43.729,28.738,43.729,29.075L43.729,29.075z"/>
	<path fill="#F01A1A" d="M48.845,40.658c-0.802-0.838-1.908-1.354-3.133-1.354c-1.224,0-2.332,0.517-3.134,1.354
		c-0.804,0.837-1.298,1.993-1.298,3.27c0,1.275,0.494,2.434,1.298,3.27c0.802,0.838,1.91,1.354,3.134,1.354
		c1.225,0,2.331-0.516,3.133-1.354c0.805-0.836,1.3-1.994,1.3-3.27C50.145,42.651,49.649,41.495,48.845,40.658z M45.712,40.867
		c0.812,0,1.544,0.341,2.074,0.894c0.53,0.556,0.859,1.321,0.859,2.167c0,0.845-0.329,1.61-0.859,2.165
		c-0.53,0.554-1.263,0.896-2.074,0.896c-0.811,0-1.545-0.343-2.076-0.896c-0.529-0.555-0.857-1.32-0.857-2.165
		c0-0.846,0.328-1.611,0.857-2.167C44.167,41.208,44.901,40.867,45.712,40.867z"/>
	<path fill="#F01A1A" d="M46.96,42.624c-0.318-0.335-0.759-0.542-1.247-0.542s-0.93,0.207-1.25,0.542
		c-0.317,0.333-0.519,0.794-0.519,1.303c0,0.508,0.201,0.97,0.519,1.303c0.32,0.335,0.762,0.54,1.25,0.54s0.931-0.205,1.247-0.54
		c0.321-0.333,0.519-0.795,0.519-1.303C47.479,43.418,47.281,42.956,46.96,42.624z"/>
</g>
</svg>
