<?xml version="1.0" encoding="utf-8"?>
<!-- Generator: Adobe Illustrator 16.0.0, SVG Export Plug-In . SVG Version: 6.00 Build 0)  -->
<!DOCTYPE svg PUBLIC "-//W3C//DTD SVG 1.1//EN" "http://www.w3.org/Graphics/SVG/1.1/DTD/svg11.dtd">
<svg version="1.1" id="Layer_1" xmlns="http://www.w3.org/2000/svg" xmlns:xlink="http://www.w3.org/1999/xlink" x="0px" y="0px"
	 width="64px" height="64px" viewBox="0 0 64 64" enable-background="new 0 0 64 64" xml:space="preserve">
<g>
	<path fill="#2064d4" d="M52.971,20.96v4.152h3.293v-6.485h-0.845l0,0c-0.649,0-1.271,0.247-1.729,0.684
		C53.229,19.749,52.971,20.342,52.971,20.96L52.971,20.96z"/>
	<path fill="#2064d4" d="M52.23,31.98h0.929v20.365c0,1.117-0.624,2.15-1.641,2.709c-1.016,0.561-2.266,0.561-3.282,0
		c-1.015-0.559-1.64-1.592-1.64-2.709v-8.102c-0.003-1.096-0.459-2.146-1.272-2.92c-0.812-0.775-1.914-1.211-3.063-1.212h-2.31
		v-3.466h-2.986v9.111h2.986v-4.585h2.31c0.854,0,1.674,0.323,2.279,0.898c0.603,0.577,0.943,1.358,0.943,2.173v8.102
		c0,1.496,0.839,2.878,2.197,3.628c1.358,0.747,3.034,0.747,4.394,0c1.357-0.75,2.196-2.132,2.196-3.628V31.98h0.948v-2.985H52.23
		V31.98z"/>
	<path fill="#2064d4" d="M56.351,8.06l-2.047,1.951c-0.482,0.457-0.751,1.077-0.749,1.724v4.03h-1.873
		c-0.629,0-1.14,0.486-1.14,1.085v1.963c0,0.209-0.128,0.398-0.328,0.483l-0.965,0.413c-0.45,0.191-0.765,0.587-0.839,1.049
		l-0.601,3.602c-0.102,0.635,0.271,1.253,0.899,1.487l1.46,0.55c0.21,0.08,0.352,0.275,0.352,0.493v1.044h5.745v-1.764h-3.85
		c-0.307,0-0.557-0.238-0.557-0.53V20.96c0.002-0.9,0.378-1.762,1.045-2.398c0.666-0.636,1.57-0.994,2.515-0.995h0.847l-0.002-1.803
		h-1.598v-4.03c0-0.366,0.151-0.717,0.423-0.975l2.047-1.951c0.217-0.208,0.217-0.543,0-0.75C56.919,7.853,56.567,7.853,56.351,8.06
		L56.351,8.06z"/>
	<path fill="#2064d4" d="M14.612,12.428h16.897v7.032H14.612V12.428z"/>
	<path fill="#2064d4" d="M23.06,32.975l-4.037,6.568c-0.772,1.259-0.852,2.798-0.211,4.122s1.92,2.267,3.426,2.522
		c1.505,0.257,3.048-0.205,4.13-1.237l0.393,0.375l-0.393-0.375c0.731-0.697,1.2-1.606,1.332-2.585
		c0.131-0.979-0.081-1.972-0.603-2.822L23.06,32.975z M26.641,42.553c-0.244,1.148-1.108,2.09-2.27,2.472
		c-0.14,0.048-0.293,0.038-0.427-0.022c-0.134-0.062-0.236-0.171-0.284-0.305c-0.048-0.134-0.039-0.28,0.027-0.407
		c0.065-0.126,0.182-0.224,0.322-0.268c0.79-0.261,1.375-0.898,1.542-1.681c0.026-0.14,0.11-0.263,0.234-0.344
		c0.124-0.08,0.276-0.108,0.422-0.081c0.146,0.029,0.275,0.112,0.356,0.231C26.646,42.267,26.674,42.414,26.641,42.553z"/>
	<path fill="#2064d4" d="M35.854,11.992c0-0.983-0.41-1.926-1.139-2.621c-0.729-0.696-1.718-1.086-2.75-1.087h-17.81
		c-1.032,0.001-2.02,0.392-2.749,1.087c-0.729,0.694-1.139,1.637-1.141,2.621v11.612h25.591L35.854,11.992z M32.62,19.989
		L32.62,19.989c0,0.14-0.06,0.275-0.164,0.375c-0.104,0.099-0.245,0.155-0.393,0.155H14.057c-0.307,0-0.556-0.238-0.556-0.53v-8.09
		c0-0.292,0.249-0.53,0.556-0.53h18.007c0.147,0,0.289,0.055,0.393,0.155c0.104,0.1,0.164,0.234,0.164,0.375V19.989z"/>
	<path fill="#2064d4" d="M7.368,52.814h31.384v3.508H7.368V52.814z"/>
	<path fill="#2064d4" d="M35.854,24.663H10.266v27.089h25.589V24.663z M14.199,47.372c0,0.293-0.249,0.53-0.556,0.53
		c-0.308,0-0.556-0.237-0.556-0.53v-15.63c0-0.292,0.249-0.529,0.556-0.529c0.307,0,0.556,0.238,0.556,0.529V47.372z M14.199,29.845
		c0,0.292-0.249,0.53-0.556,0.53c-0.308,0-0.556-0.237-0.556-0.53v-0.829c0-0.293,0.249-0.53,0.556-0.53
		c0.307,0,0.556,0.237,0.556,0.53V29.845z M27.154,45.701c-1.339,1.275-3.247,1.848-5.11,1.529c-1.864-0.316-3.447-1.482-4.24-3.12
		c-0.792-1.639-0.694-3.544,0.261-5.102l4.517-7.35c0.099-0.162,0.282-0.262,0.479-0.262c0.197,0,0.38,0.1,0.48,0.262l4.516,7.35
		c0.646,1.053,0.91,2.281,0.746,3.493C28.638,43.713,28.059,44.837,27.154,45.701L27.154,45.701z"/>
</g>
</svg>
