<?xml version="1.0" encoding="utf-8"?>
<!-- Generator: Adobe Illustrator 16.0.0, SVG Export Plug-In . SVG Version: 6.00 Build 0)  -->
<!DOCTYPE svg PUBLIC "-//W3C//DTD SVG 1.1//EN" "http://www.w3.org/Graphics/SVG/1.1/DTD/svg11.dtd">
<svg version="1.1" id="Layer_1" xmlns="http://www.w3.org/2000/svg" xmlns:xlink="http://www.w3.org/1999/xlink" x="0px" y="0px"
	 width="64px" height="64px" viewBox="0 0 64 64" enable-background="new 0 0 64 64" xml:space="preserve">
<g>
	<path fill="#ffbc04" d="M20.739,38.104c0,0.445,0.275,0.779,0.66,0.946l9.573,3.173V28.028l-10.233-3.397V38.104z"/>
	<path fill="#ffbc04" d="M31.468,20.345l-8.307,2.728l8.912,3.006l8.913-2.951L32.677,20.4
		C32.292,20.233,31.854,20.233,31.468,20.345L31.468,20.345z"/>
	<path fill="#ffbc04" d="M42.746,39.051c0.385-0.111,0.659-0.501,0.659-0.946V24.632l-10.233,3.396v14.196L42.746,39.051z"/>
	<path fill="#ffbc04" d="M11.222,25.188c0.715,0,1.266-0.557,1.266-1.28c0-6.402,4.896-11.691,11.113-12.248v2.784
		c0,0.389,0.22,0.779,0.605,1.002c0.165,0.111,0.386,0.167,0.55,0.167c0.22,0,0.385-0.055,0.605-0.167l6.823-4.175
		c0.33-0.223,0.55-0.558,0.55-1.002c0-0.445-0.22-0.78-0.55-1.002L25.36,5.089c-0.33-0.222-0.77-0.222-1.155,0
		C23.82,5.313,23.6,5.703,23.6,6.092v3.006C15.953,9.655,9.901,16.057,9.901,23.907C9.901,24.631,10.507,25.188,11.222,25.188
		L11.222,25.188z"/>
	<path fill="#ffbc04" d="M24.701,51.188c-6.327,0-11.553-4.955-12.104-11.247h2.751c0.386,0,0.771-0.223,0.99-0.612
		s0.22-0.779,0-1.169l-4.126-6.903c-0.44-0.669-1.541-0.669-1.926,0L6.105,38.16c-0.22,0.335-0.22,0.779,0,1.169
		c0.22,0.391,0.605,0.612,0.991,0.612h2.97c0.55,7.739,6.877,13.863,14.634,13.863c0.715,0,1.265-0.557,1.265-1.28
		C25.966,51.745,25.415,51.188,24.701,51.188L24.701,51.188z"/>
	<path fill="#ffbc04" d="M52.923,37.547c-0.714,0-1.266,0.559-1.266,1.281c0,6.401-4.896,11.691-11.112,12.247v-2.783
		c0-0.39-0.221-0.779-0.604-1.001c-0.387-0.223-0.771-0.223-1.157,0l-6.82,4.176c-0.331,0.222-0.55,0.557-0.55,1.001
		c0,0.39,0.22,0.779,0.55,1.001l6.82,4.177c0.166,0.111,0.387,0.167,0.607,0.167c0.219,0,0.384-0.056,0.55-0.167
		c0.384-0.223,0.604-0.612,0.604-1.001v-3.008c7.647-0.557,13.7-6.958,13.7-14.809C54.245,38.105,53.639,37.547,52.923,37.547
		L52.923,37.547z"/>
	<path fill="#ffbc04" d="M58.039,23.407c-0.218-0.39-0.604-0.613-0.988-0.613h-2.972c-0.55-7.738-6.877-13.862-14.634-13.862
		c-0.716,0-1.266,0.557-1.266,1.28c0,0.725,0.55,1.281,1.266,1.281c6.328,0,11.554,4.955,12.103,11.246h-2.751
		c-0.385,0-0.768,0.223-0.989,0.613c-0.22,0.39-0.22,0.779,0,1.169l4.126,6.903c0.221,0.334,0.551,0.557,0.991,0.557
		c0.438,0,0.771-0.223,0.988-0.557l4.126-6.903C58.26,24.187,58.26,23.741,58.039,23.407L58.039,23.407z"/>
</g>
</svg>
