<?xml version="1.0" encoding="utf-8"?>
<!-- Generator: Adobe Illustrator 16.0.0, SVG Export Plug-In . SVG Version: 6.00 Build 0)  -->
<!DOCTYPE svg PUBLIC "-//W3C//DTD SVG 1.1//EN" "http://www.w3.org/Graphics/SVG/1.1/DTD/svg11.dtd">
<svg version="1.1" id="Layer_1" xmlns="http://www.w3.org/2000/svg" xmlns:xlink="http://www.w3.org/1999/xlink" x="0px" y="0px"
	 width="64px" height="64px" viewBox="0 0 64 64" enable-background="new 0 0 64 64" xml:space="preserve">
<g>
	<path fill="#8F00FF" d="M9.815,23.394c-0.138,0-0.275-0.01-0.414-0.02l2.314,25.245c0.099,1.318,1.211,2.354,2.53,2.354h10.93
		c-0.61-1.35-0.542-2.926,0.167-4.215c-1.959-0.551-3.397-2.354-3.397-4.48v-3.525c0-1.574,0.778-2.963,1.969-3.811v-8.545
		c0-0.542,0.443-0.985,0.985-0.985s0.985,0.443,0.985,0.985v2.54c0.267-0.306,0.091-0.101,2.717-2.747
		c0.886-0.866,2.048-1.339,3.298-1.339c0.817,0,1.595,0.197,2.274,0.571c0.217-0.768,0.631-1.467,1.191-2.028L9.815,23.394z
		 M18.568,45.971c-0.512,0-0.936-0.395-0.975-0.916l-1.349-18.588c-0.039-0.542,0.375-1.015,0.916-1.054
		c0.551-0.02,1.014,0.375,1.053,0.916l1.339,18.578C19.596,45.504,19.121,45.971,18.568,45.971z"/>
	<path fill="#8F00FF" d="M38.802,12.77h-6.239V9.721c0-1.064-0.866-1.931-1.931-1.931h-11.47c-1.064,0-1.931,0.866-1.931,1.931
		v3.048l-6.245,0c-1.802,0-3.269,1.467-3.269,3.269v3.279c0,1.162,0.935,2.107,2.097,2.107h30.169c1.152,0,2.097-0.945,2.097-2.107
		v-3.279C42.08,14.236,40.604,12.77,38.802,12.77L38.802,12.77z M19.163,9.759l11.432-0.039v3.048l-11.402,0L19.163,9.759z"/>
	<path fill="#8F00FF" d="M56.89,38.211c-0.246-1.25-1.359-2.156-2.639-2.156c-0.283,0-0.575-0.213-0.68-0.473
		c-0.107-0.295-0.227-0.582-0.354-0.857c-0.129-0.295-0.08-0.629,0.127-0.826c0.513-0.502,0.798-1.181,0.798-1.909
		c0-0.749-0.285-1.438-0.788-1.911l-2.5-2.5c-1.015-1.004-2.777-1.004-3.791,0c-0.02,0.02-0.039,0.029-0.059,0.049
		c-0.207,0.168-0.502,0.207-0.778,0.089c-0.286-0.128-0.562-0.246-0.837-0.354c-0.305-0.108-0.502-0.384-0.502-0.689
		c0-1.487-1.201-2.688-2.688-2.688h-3.535c-1.486,0-2.688,1.202-2.688,2.698c0,0.305-0.196,0.571-0.502,0.689
		c-0.266,0.099-0.552,0.217-0.837,0.345c-0.266,0.118-0.57,0.079-0.777-0.079c-0.02-0.02-0.039-0.04-0.06-0.059
		c-1.014-1.004-2.767-1.014-3.8,0l-2.501,2.511c-1.034,1.043-1.034,2.747,0,3.8c0.138,0.127,0.207,0.305,0.207,0.502
		c0,0.117-0.02,0.227-0.069,0.324c-0.118,0.266-0.236,0.553-0.364,0.857c-0.108,0.295-0.364,0.482-0.679,0.482
		c-1.477,0-2.678,1.211-2.678,2.697v3.525c0,1.486,1.201,2.688,2.698,2.688c0.305,0,0.571,0.197,0.689,0.502
		c0.099,0.277,0.217,0.563,0.345,0.828c0.118,0.275,0.089,0.57-0.088,0.787c-0.02,0.02-0.04,0.029-0.059,0.051
		c-0.896,0.904-1.034,2.332-0.325,3.406c0.088,0.137,0.207,0.275,0.325,0.402l2.511,2.502c1.014,1.004,2.757,1.023,3.811-0.01
		c0.206-0.217,0.59-0.246,0.816-0.148c0.275,0.139,0.581,0.266,0.857,0.365c0.167,0.059,0.314,0.176,0.403,0.354
		c0.049,0.1,0.078,0.207,0.078,0.326c0,0.697,0.276,1.377,0.808,1.93c0.325,0.295,0.699,0.521,1.054,0.619
		c0.256,0.1,0.521,0.139,0.827,0.139H42.2c0.314,0,0.58-0.049,0.768-0.119c1.151-0.344,1.92-1.367,1.92-2.57
		c0-0.295,0.196-0.57,0.482-0.668c0.285-0.109,0.57-0.236,0.847-0.365c0.285-0.127,0.62-0.078,0.847,0.158
		c1.023,0.984,2.767,0.994,3.801-0.01l2.501-2.512c0.905-0.916,1.044-2.342,0.325-3.396c-0.089-0.148-0.197-0.275-0.335-0.402
		c-0.206-0.207-0.281-0.523-0.128-0.887c0.045-0.1,0.395-0.818,0.395-0.916c0.092-0.186,0.334-0.365,0.64-0.365
		c1.29,0,2.393-0.914,2.629-2.186c0.03-0.166,0.06-0.334,0.06-0.502v-3.525C56.948,38.574,56.919,38.398,56.89,38.211L56.89,38.211z
		 M40.427,47.201c-1.664,0-3.189-0.611-4.361-1.625c-1.428-1.221-2.334-3.043-2.334-5.07c0-3.703,3.004-6.707,6.695-6.707
		c2.039,0,3.85,0.916,5.081,2.344c1.005,1.172,1.614,2.688,1.614,4.361C47.122,44.197,44.13,47.201,40.427,47.201L40.427,47.201z"/>
</g>
</svg>
