<?xml version="1.0" encoding="utf-8"?>
<!-- Generator: Adobe Illustrator 16.0.0, SVG Export Plug-In . SVG Version: 6.00 Build 0)  -->
<!DOCTYPE svg PUBLIC "-//W3C//DTD SVG 1.1//EN" "http://www.w3.org/Graphics/SVG/1.1/DTD/svg11.dtd">
<svg version="1.1" id="Layer_1" xmlns="http://www.w3.org/2000/svg" xmlns:xlink="http://www.w3.org/1999/xlink" x="0px" y="0px"
	 width="64px" height="64px" viewBox="0 0 64 64" enable-background="new 0 0 64 64" xml:space="preserve">
<symbol  id="a" viewBox="-5.688 -7.844 11.375 15.687">
	<path fill="#326ED1" d="M5.688-3.297C5.25-3.492,4.816-3.641,4.391-3.734c-0.418-0.102-0.84-0.156-1.266-0.156
		c-1.262,0-2.23,0.406-2.906,1.219c-0.68,0.805-1.016,1.953-1.016,3.453v7.063h-4.891V-7.469h4.891v2.516
		c0.625-1,1.344-1.727,2.156-2.188C2.18-7.609,3.16-7.844,4.297-7.844c0.164,0,0.344,0.012,0.531,0.031
		c0.195,0.012,0.477,0.039,0.844,0.078L5.688-3.297z"/>
</symbol>
<symbol  id="b" viewBox="-8.219 -8.039 16.438 16.078">
	<path fill="#326ED1" d="M8.219-0.055v1.406H-3.234C-3.109,2.5-2.695,3.359-1.984,3.93C-1.277,4.504-0.281,4.789,1,4.789
		c1.031,0,2.082-0.148,3.156-0.453c1.082-0.313,2.191-0.773,3.328-1.391v3.766C6.328,7.148,5.172,7.477,4.016,7.695
		C2.859,7.922,1.703,8.039,0.547,8.039c-2.773,0-4.93-0.703-6.469-2.109c-1.531-1.406-2.297-3.379-2.297-5.922
		c0-2.5,0.754-4.461,2.266-5.891c1.507-1.438,3.582-2.156,6.219-2.156c2.406,0,4.332,0.73,5.781,2.188
		C7.492-4.402,8.219-2.469,8.219-0.055L8.219-0.055z M3.188-1.68c0-0.926-0.273-1.672-0.813-2.234
		c-0.543-0.57-1.25-0.859-2.125-0.859c-0.949,0-1.719,0.266-2.313,0.797S-3.027-2.68-3.172-1.68H3.188z"/>
</symbol>
<symbol  id="c" viewBox="-8.414 -8.039 16.828 16.078">
	<path fill="#326ED1" d="M0.023-4.539c-1.086,0-1.914,0.391-2.484,1.172C-3.035-2.586-3.32-1.461-3.32,0.008
		s0.285,2.594,0.859,3.375c0.57,0.773,1.398,1.156,2.484,1.156c1.063,0,1.875-0.383,2.438-1.156C3.031,2.602,3.32,1.477,3.32,0.008
		S3.031-2.586,2.461-3.367C1.898-4.148,1.086-4.539,0.023-4.539z M0.023-8.039c2.633,0,4.691,0.715,6.172,2.141
		C7.672-4.48,8.414-2.512,8.414,0.008c0,2.512-0.742,4.48-2.219,5.906c-1.48,1.418-3.539,2.125-6.172,2.125
		c-2.648,0-4.715-0.707-6.203-2.125C-7.672,4.488-8.414,2.52-8.414,0.008c0-2.52,0.742-4.488,2.234-5.906
		C-4.691-7.324-2.625-8.039,0.023-8.039z"/>
</symbol>
<symbol  id="d" viewBox="-6.188 -9.828 12.375 19.657">
	<path fill="#326ED1" d="M1.141-9.828v4.344h5.047v3.5H1.141v6.5c0,0.711,0.141,1.188,0.422,1.438s0.836,0.375,1.672,0.375H5.75v3.5
		H1.563c-1.938,0-3.313-0.398-4.125-1.203c-0.805-0.813-1.203-2.18-1.203-4.109v-6.5h-2.422v-3.5h2.422v-4.344H1.141z"/>
</symbol>
<symbol  id="e" viewBox="-7.742 -8.039 15.484 16.078">
	<path fill="#326ED1" d="M0.273,0.758c-1.023,0-1.793,0.172-2.313,0.516c-0.512,0.344-0.766,0.855-0.766,1.531
		c0,0.625,0.207,1.117,0.625,1.469c0.414,0.344,0.988,0.516,1.719,0.516c0.926,0,1.703-0.328,2.328-0.984
		C2.5,3.141,2.82,2.313,2.82,1.32V0.758H0.273z M7.742-1.086v8.734H2.82V5.383c-0.656,0.93-1.398,1.605-2.219,2.031
		c-0.824,0.414-1.824,0.625-3,0.625c-1.586,0-2.871-0.457-3.859-1.375C-7.25,5.738-7.742,4.535-7.742,3.055
		c0-1.789,0.613-3.102,1.844-3.938c1.238-0.844,3.18-1.266,5.828-1.266H2.82v-0.391c0-0.77-0.309-1.332-0.922-1.688
		C1.281-4.59,0.328-4.773-0.961-4.773c-1.055,0-2.031,0.105-2.938,0.313c-0.898,0.211-1.73,0.523-2.5,0.938v-3.734
		c1.039-0.25,2.086-0.441,3.141-0.578c1.063-0.133,2.125-0.203,3.188-0.203c2.758,0,4.75,0.547,5.969,1.641
		C7.125-5.313,7.742-3.543,7.742-1.086L7.742-1.086z"/>
</symbol>
<symbol  id="f" viewBox="-7.695 -7.843 15.391 15.687">
	<path fill="#326ED1" d="M7.695-1.484v9.328H2.773V0.703c0-1.32-0.031-2.234-0.094-2.734S2.512-2.898,2.367-3.141
		C2.18-3.453,1.918-3.695,1.586-3.875C1.262-4.051,0.891-4.141,0.477-4.141c-1.023,0-1.824,0.398-2.406,1.188
		c-0.586,0.781-0.875,1.871-0.875,3.266v7.531h-4.891V-7.469h4.891v2.234c0.738-0.883,1.52-1.539,2.344-1.969
		c0.832-0.426,1.75-0.641,2.75-0.641c1.77,0,3.113,0.547,4.031,1.641C7.234-5.117,7.695-3.547,7.695-1.484L7.695-1.484z"/>
</symbol>
<symbol  id="g" viewBox="-8.688 -10.586 17.375 21.172">
	<path fill="#326ED1" d="M8.688,9.07c-0.969,0.5-1.98,0.875-3.031,1.125c-1.043,0.258-2.137,0.391-3.281,0.391
		c-3.398,0-6.09-0.945-8.078-2.844c-1.992-1.906-2.984-4.484-2.984-7.734c0-3.258,0.992-5.836,2.984-7.734
		c1.988-1.906,4.68-2.859,8.078-2.859c1.145,0,2.238,0.133,3.281,0.391C6.707-9.945,7.719-9.57,8.688-9.07v4.219
		c-0.98-0.656-1.945-1.141-2.891-1.453c-0.949-0.313-1.949-0.469-3-0.469c-1.875,0-3.352,0.605-4.422,1.813
		c-1.074,1.199-1.609,2.855-1.609,4.969c0,2.105,0.535,3.762,1.609,4.969c1.07,1.199,2.547,1.797,4.422,1.797
		c1.051,0,2.051-0.148,3-0.453c0.945-0.313,1.91-0.801,2.891-1.469V9.07z"/>
</symbol>
<symbol  id="h" viewBox="-9.766 -10.586 19.531 21.172">
	<path fill="#326ED1" d="M9.766,8.68c-1.313,0.637-2.68,1.117-4.094,1.438c-1.406,0.313-2.867,0.469-4.375,0.469
		c-3.398,0-6.09-0.945-8.078-2.844c-1.992-1.906-2.984-4.484-2.984-7.734c0-3.289,1.008-5.879,3.031-7.766
		c2.031-1.883,4.805-2.828,8.328-2.828c1.352,0,2.648,0.133,3.891,0.391C6.734-9.945,7.91-9.57,9.016-9.07v4.219
		C7.867-5.496,6.734-5.977,5.609-6.289c-1.125-0.32-2.25-0.484-3.375-0.484c-2.105,0-3.727,0.59-4.859,1.766
		C-3.75-3.84-4.313-2.168-4.313,0.008c0,2.156,0.547,3.824,1.641,5c1.094,1.18,2.645,1.766,4.656,1.766
		c0.539,0,1.047-0.031,1.516-0.094c0.477-0.07,0.898-0.18,1.266-0.328V2.383H1.563v-3.516h8.203V8.68z"/>
</symbol>
<symbol  id="i" viewBox="-8.703 -10.68 17.406 21.36">
	<path fill="#326ED1" d="M-8.703-10.68h4.891L0.313-0.289l3.5-10.391h4.891L2.266,6.086C1.617,7.781,0.863,8.969,0,9.648
		c-0.867,0.688-2,1.031-3.406,1.031H-6.25V7.461h1.531c0.832,0,1.438-0.137,1.813-0.406c0.383-0.262,0.68-0.73,0.891-1.406
		l0.141-0.422L-8.703-10.68z"/>
</symbol>
<symbol  id="j" viewBox="-8.211 -10.836 16.422 21.672">
	<path fill="#326ED1" d="M-0.07,7.289c1.051,0,1.852-0.379,2.406-1.141c0.551-0.77,0.828-1.883,0.828-3.344
		c0-1.457-0.277-2.566-0.828-3.328C1.781-1.293,0.98-1.68-0.07-1.68c-1.055,0-1.859,0.387-2.422,1.156
		C-3.047,0.25-3.32,1.359-3.32,2.805c0,1.449,0.273,2.559,0.828,3.328C-1.93,6.906-1.125,7.289-0.07,7.289L-0.07,7.289z
		 M-3.32-2.633c0.676-0.883,1.422-1.539,2.234-1.969c0.82-0.426,1.766-0.641,2.828-0.641c1.895,0,3.445,0.75,4.656,2.25
		c1.207,1.5,1.813,3.434,1.813,5.797c0,2.355-0.605,4.281-1.813,5.781c-1.211,1.5-2.762,2.25-4.656,2.25
		c-1.063,0-2.008-0.211-2.828-0.625C-1.898,9.785-2.645,9.125-3.32,8.227v2.219h-4.891v-21.281h4.891V-2.633z"/>
</symbol>
<symbol  id="k" viewBox="-8.211 -10.836 16.422 21.672">
	<path fill="#326ED1" d="M3.289-2.633v-8.203h4.922v21.281H3.289V8.227c-0.668,0.906-1.406,1.57-2.219,1.984
		c-0.813,0.414-1.758,0.625-2.828,0.625c-1.887,0-3.434-0.75-4.641-2.25c-1.211-1.5-1.813-3.426-1.813-5.781
		c0-2.363,0.602-4.297,1.813-5.797c1.207-1.5,2.754-2.25,4.641-2.25c1.063,0,2,0.215,2.813,0.641
		C1.875-4.172,2.621-3.516,3.289-2.633L3.289-2.633z M0.07,7.289c1.039,0,1.836-0.379,2.391-1.141
		c0.551-0.77,0.828-1.883,0.828-3.344c0-1.457-0.277-2.566-0.828-3.328C1.906-1.293,1.109-1.68,0.07-1.68
		c-1.043,0-1.84,0.387-2.391,1.156c-0.555,0.762-0.828,1.871-0.828,3.328c0,1.461,0.273,2.574,0.828,3.344
		C-1.77,6.91-0.973,7.289,0.07,7.289z"/>
</symbol>
<symbol  id="l" viewBox="-6.758 -8.039 13.516 16.078">
	<path fill="#326ED1" d="M6.758-7.18v3.984c-0.656-0.457-1.324-0.797-2-1.016C4.09-4.43,3.398-4.539,2.68-4.539
		c-1.367,0-2.434,0.402-3.203,1.203C-1.285-2.543-1.664-1.43-1.664,0.008c0,1.43,0.379,2.543,1.141,3.344
		c0.77,0.793,1.836,1.188,3.203,1.188c0.758,0,1.484-0.109,2.172-0.328c0.688-0.227,1.32-0.566,1.906-1.016v4
		C5.996,7.477,5.219,7.684,4.43,7.82C3.648,7.965,2.855,8.039,2.055,8.039c-2.762,0-4.922-0.707-6.484-2.125
		C-5.984,4.5-6.758,2.531-6.758,0.008c0-2.531,0.773-4.504,2.328-5.922c1.563-1.414,3.723-2.125,6.484-2.125
		c0.801,0,1.594,0.074,2.375,0.219C5.211-7.684,5.984-7.469,6.758-7.18L6.758-7.18z"/>
</symbol>
<symbol  id="m" viewBox="-4.094 -13.664 8.188 27.328">
	<path fill="#326ED1" d="M-0.797-7.695h4.891V7.336c0,2.051-0.496,3.617-1.484,4.703c-0.98,1.082-2.406,1.625-4.281,1.625h-2.422
		v-3.219h0.859c0.926,0,1.563-0.211,1.906-0.625c0.352-0.418,0.531-1.246,0.531-2.484V-7.695z M-0.797-13.664h4.891v4h-4.891
		V-13.664z"/>
</symbol>
<symbol  id="n" viewBox="-8.398 -10.203 16.797 20.407">
	<path fill="#326ED1" d="M-8.398-10.203h8.734c2.594,0,4.582,0.578,5.969,1.734C7.699-7.32,8.398-5.68,8.398-3.547
		c0,2.137-0.699,3.781-2.094,4.938C4.918,2.547,2.93,3.125,0.336,3.125h-3.484v7.078h-5.25V-10.203z M-3.148-6.391v5.703h2.922
		c1.02,0,1.805-0.25,2.359-0.75c0.563-0.5,0.844-1.203,0.844-2.109c0-0.914-0.281-1.617-0.844-2.109
		c-0.555-0.488-1.34-0.734-2.359-0.734H-3.148z"/>
</symbol>
<symbol  id="o" viewBox="-7.695 -7.852 15.391 15.703">
	<path fill="#326ED1" d="M-7.695,1.492v-9.344h4.922v1.531c0,0.836-0.008,1.875-0.016,3.125c-0.012,1.25-0.016,2.086-0.016,2.5
		c0,1.242,0.031,2.133,0.094,2.672c0.07,0.543,0.18,0.934,0.328,1.172c0.207,0.324,0.473,0.574,0.797,0.75
		c0.32,0.168,0.691,0.25,1.109,0.25c1.02,0,1.82-0.391,2.406-1.172c0.582-0.781,0.875-1.867,0.875-3.266v-7.563h4.891V7.461H2.805
		V5.242C2.063,6.141,1.281,6.801,0.461,7.227c-0.824,0.414-1.734,0.625-2.734,0.625c-1.762,0-3.105-0.539-4.031-1.625
		C-7.234,5.145-7.695,3.566-7.695,1.492L-7.695,1.492z"/>
</symbol>
<symbol  id="p" viewBox="-9.141 -10.203 18.281 20.406">
	<path fill="#326ED1" d="M-9.141-10.203h5.875l7.422,14v-14h4.984v20.406H3.266l-7.422-14v14h-4.984V-10.203z"/>
</symbol>
<symbol  id="q" viewBox="-7.695 -10.641 15.391 21.281">
	<path fill="#326ED1" d="M7.695,1.313v9.328H2.773V3.531c0-1.344-0.031-2.266-0.094-2.766S2.512-0.102,2.367-0.344
		C2.18-0.656,1.918-0.898,1.586-1.078C1.262-1.254,0.891-1.344,0.477-1.344c-1.023,0-1.824,0.398-2.406,1.188
		c-0.586,0.781-0.875,1.871-0.875,3.266v7.531h-4.891v-21.281h4.891v8.203c0.738-0.883,1.52-1.539,2.344-1.969
		c0.832-0.426,1.75-0.641,2.75-0.641c1.77,0,3.113,0.547,4.031,1.641C7.234-2.32,7.695-0.75,7.695,1.313L7.695,1.313z"/>
</symbol>
<symbol  id="r" viewBox="-12.32 -7.844 24.641 15.688">
	<path fill="#326ED1" d="M1.898-4.922c0.613-0.945,1.348-1.672,2.203-2.172c0.852-0.5,1.789-0.75,2.813-0.75
		c1.758,0,3.098,0.547,4.016,1.641c0.926,1.086,1.391,2.656,1.391,4.719v9.328H7.398v-7.984V-0.5
		c0.008-0.133,0.016-0.32,0.016-0.563c0-1.082-0.164-1.863-0.484-2.344C6.617-3.895,6.105-4.141,5.398-4.141
		c-0.93,0-1.648,0.387-2.156,1.156C2.73-2.223,2.469-1.117,2.461,0.328v7.516h-4.922v-7.984c0-1.695-0.148-2.785-0.438-3.266
		c-0.293-0.488-0.813-0.734-1.563-0.734c-0.938,0-1.664,0.387-2.172,1.156c-0.512,0.762-0.766,1.859-0.766,3.297v7.531h-4.922
		V-7.469h4.922v2.234c0.602-0.863,1.289-1.516,2.063-1.953c0.781-0.438,1.641-0.656,2.578-0.656c1.063,0,2,0.258,2.813,0.766
		C0.867-6.566,1.48-5.848,1.898-4.922L1.898-4.922z"/>
</symbol>
<symbol  id="s" viewBox="-5.945 -10.641 11.891 21.281">
	<path fill="#326ED1" d="M5.945-10.641v3.219H3.242c-0.688,0-1.172,0.125-1.453,0.375c-0.273,0.25-0.406,0.688-0.406,1.313v1.063
		H5.57v3.5H1.383v11.813h-4.891V-1.172h-2.438v-3.5h2.438v-1.063c0-1.664,0.461-2.898,1.391-3.703
		c0.926-0.801,2.367-1.203,4.328-1.203H5.945z"/>
</symbol>
<symbol  id="t" viewBox="-6.945 -8.039 13.891 16.078">
	<path fill="#326ED1" d="M5.914-7.18v3.719C4.87-3.898,3.858-4.227,2.883-4.445C1.902-4.664,0.98-4.773,0.117-4.773
		c-0.93,0-1.621,0.117-2.078,0.344c-0.449,0.23-0.672,0.59-0.672,1.078c0,0.387,0.172,0.684,0.516,0.891
		C-1.773-2.25-1.16-2.094-0.273-1.992l0.859,0.125c2.508,0.324,4.195,0.852,5.063,1.578c0.863,0.73,1.297,1.871,1.297,3.422
		C6.945,4.77,6.34,6,5.133,6.82C3.934,7.633,2.141,8.039-0.242,8.039c-1.023,0-2.074-0.078-3.156-0.234
		c-1.074-0.156-2.18-0.395-3.313-0.719V3.367c0.969,0.48,1.961,0.84,2.984,1.078c1.031,0.23,2.078,0.344,3.141,0.344
		c0.957,0,1.676-0.129,2.156-0.391c0.477-0.27,0.719-0.664,0.719-1.188c0-0.438-0.168-0.758-0.5-0.969
		c-0.336-0.219-0.996-0.383-1.984-0.5l-0.859-0.109c-2.18-0.27-3.703-0.773-4.578-1.516c-0.875-0.738-1.313-1.859-1.313-3.359
		c0-1.625,0.551-2.828,1.656-3.609c1.113-0.789,2.82-1.188,5.125-1.188c0.895,0,1.836,0.074,2.828,0.219
		C3.664-7.684,4.746-7.469,5.914-7.18L5.914-7.18z"/>
</symbol>
<symbol  id="u" viewBox="-8.211 -10.852 16.422 21.704">
	<path fill="#326ED1" d="M3.289,2.211C2.621,3.098,1.883,3.754,1.07,4.18C0.258,4.598-0.688,4.805-1.758,4.805
		c-1.867,0-3.406-0.734-4.625-2.203C-7.602,1.125-8.211-0.75-8.211-3.023c0-2.289,0.609-4.164,1.828-5.625
		c1.219-1.469,2.758-2.203,4.625-2.203c1.07,0,2.016,0.215,2.828,0.641c0.813,0.418,1.551,1.074,2.219,1.969v-2.266h4.922V3.258
		c0,2.457-0.777,4.336-2.328,5.641c-1.555,1.301-3.809,1.953-6.766,1.953c-0.949,0-1.871-0.074-2.766-0.219
		c-0.898-0.148-1.797-0.371-2.703-0.672V6.148C-5.488,6.637-4.648,7-3.836,7.242c0.82,0.238,1.648,0.359,2.484,0.359
		c1.603,0,2.773-0.352,3.516-1.047c0.75-0.699,1.125-1.797,1.125-3.297V2.211z M0.07-7.32c-1.012,0-1.805,0.375-2.375,1.125
		c-0.563,0.742-0.844,1.797-0.844,3.172c0,1.398,0.27,2.461,0.813,3.188c0.551,0.719,1.352,1.078,2.406,1.078
		c1.02,0,1.813-0.367,2.375-1.109c0.563-0.75,0.844-1.801,0.844-3.156c0-1.375-0.281-2.43-0.844-3.172
		C1.883-6.945,1.09-7.32,0.07-7.32L0.07-7.32z"/>
</symbol>
<g>
	<path fill="#326ED1" d="M48.345,34.22c0.153-0.973,0.256-1.945,0.256-2.919c0-2.969-0.717-5.785-2.048-8.243l4.762-3.737
		c2.15,3.584,3.276,7.68,3.276,11.981c0,1.689-0.204,3.326-0.563,4.965L48.345,34.22z M31.243,54.546
		c6.196,0,12.084-2.406,16.487-6.758c1.74-1.742,3.226-3.738,4.301-5.889l-5.684-2.049c-3.021,5.223-8.652,8.756-15.104,8.705
		c-9.574-0.051-17.305-7.834-17.254-17.356c0-2.867,0.717-5.529,1.946-7.936l-4.813-3.635c-1.997,3.481-3.072,7.424-3.123,11.571
		c0,6.194,2.406,12.03,6.809,16.435C19.16,52.089,24.997,54.495,31.243,54.546L31.243,54.546z M31.346,7.955
		c-6.195,0-12.032,2.406-16.435,6.81l-0.153,0.153l4.813,3.635c3.124-2.867,7.271-4.659,11.828-4.607
		c4.454,0,8.499,1.689,11.52,4.454l4.762-3.737C43.275,10.361,37.49,8.006,31.346,7.955L31.346,7.955z M31.295,27.206
		c-2.202,0-4.045,1.792-4.045,4.044c0,2.2,1.792,4.044,4.045,4.044c2.201,0,4.045-1.793,4.045-4.044
		C35.34,29.049,33.496,27.206,31.295,27.206z M41.996,33.399c-0.308,1.434-0.871,2.766-1.639,3.943l1.434,1.434
		c0.358,0.357,0.358,0.922,0,1.279l-1.741,1.74c-0.358,0.359-0.921,0.359-1.28,0l-1.434-1.434c-1.178,0.77-2.508,1.332-3.941,1.639
		v2.049c0,0.512-0.41,0.922-0.922,0.922h-2.458c-0.512,0-0.921-0.41-0.921-0.922v-2.049c-1.434-0.307-2.765-0.869-3.942-1.639
		l-1.434,1.434c-0.358,0.359-0.921,0.359-1.28,0l-1.741-1.74c-0.359-0.357-0.359-0.922,0-1.279l1.434-1.434
		c-0.768-1.178-1.331-2.51-1.639-3.943h-2.048c-0.512,0-0.921-0.408-0.921-0.922v-2.456c0-0.512,0.41-0.921,0.921-0.921h2.048
		c0.307-1.434,0.87-2.765,1.639-3.942l-1.434-1.434c-0.359-0.358-0.359-0.921,0-1.28l1.741-1.741c0.358-0.359,0.921-0.359,1.28,0
		l1.434,1.434c1.178-0.768,2.509-1.331,3.942-1.639v-2.048c0-0.512,0.41-0.921,0.921-0.921h2.458c0.512,0,0.922,0.41,0.922,0.921
		v2.048c1.434,0.307,2.764,0.87,3.941,1.639l1.434-1.434c0.359-0.359,0.922-0.359,1.28,0l1.741,1.741
		c0.358,0.358,0.358,0.921,0,1.28l-1.434,1.434c0.768,1.178,1.33,2.509,1.639,3.942h2.047c0.513,0,0.922,0.41,0.922,0.921v2.456
		c0,0.514-0.41,0.922-0.922,0.922H41.996z M37.644,31.25c0-3.481-2.866-6.349-6.349-6.349c-3.481,0-6.349,2.867-6.349,6.349
		s2.867,6.349,6.349,6.349C34.776,37.599,37.644,34.731,37.644,31.25z"/>
	
		<use xlink:href="#g"  width="17.375" height="21.172" x="-8.688" y="-10.586" transform="matrix(3.0229 0 0 3.0229 37.6953 96.5303)" overflow="visible"/>
	
		<use xlink:href="#a"  width="11.375" height="15.687" x="-5.688" y="-7.844" transform="matrix(44.6229 0 0 -44.6229 431.5059 -171.3789)" overflow="visible"/>
	
		<use xlink:href="#b"  width="16.438" height="16.078" x="-8.219" y="-8.039" transform="matrix(42.5856 0 0 -42.5856 445.3145 -171.3896)" overflow="visible"/>
	
		<use xlink:href="#e"  width="15.484" height="16.078" x="-7.742" y="-8.039" transform="matrix(43.5374 0 0 -43.5374 464.3027 -171.3896)" overflow="visible"/>
	
		<use xlink:href="#d"  width="12.375" height="19.657" x="-6.188" y="-9.828" transform="matrix(35.6112 0 0 -35.6112 483.1973 -171.3984)" overflow="visible"/>
	
		<use xlink:href="#b"  width="16.438" height="16.078" x="-8.219" y="-8.039" transform="matrix(42.5856 0 0 -42.5856 496.584 -171.3896)" overflow="visible"/>
	
		<use xlink:href="#k"  width="16.422" height="21.672" x="-8.211" y="-10.836" transform="matrix(32.2999 0 0 -32.2999 515.5723 -171.3896)" overflow="visible"/>
	
		<use xlink:href="#j"  width="16.422" height="21.672" x="-8.211" y="-10.836" transform="matrix(32.2999 0 0 -32.2999 545.3652 -171.3896)" overflow="visible"/>
	
		<use xlink:href="#i"  width="17.406" height="21.36" x="-8.703" y="-10.68" transform="matrix(32.7717 0 0 -32.7717 565.4082 -171.3818)" overflow="visible"/>
	
		<use xlink:href="#h"  width="19.531" height="21.172" x="-9.766" y="-10.586" transform="matrix(33.0627 0 0 -33.0627 593.4082 -171.3896)" overflow="visible"/>
	
		<use xlink:href="#a"  width="11.375" height="15.687" x="-5.688" y="-7.844" transform="matrix(44.6229 0 0 -44.6229 616.3887 -171.3789)" overflow="visible"/>
	
		<use xlink:href="#b"  width="16.438" height="16.078" x="-8.219" y="-8.039" transform="matrix(42.5856 0 0 -42.5856 630.1973 -171.3896)" overflow="visible"/>
	
		<use xlink:href="#u"  width="16.422" height="21.704" x="-8.211" y="-10.852" transform="matrix(32.2527 0 0 -32.2527 649.1895 -171.3975)" overflow="visible"/>
	
		<use xlink:href="#c"  width="16.828" height="16.078" x="-8.414" y="-8.039" transform="matrix(41.597 0 0 -41.597 669.2285 -171.3896)" overflow="visible"/>
	
		<use xlink:href="#a"  width="11.375" height="15.687" x="-5.688" y="-7.844" transform="matrix(44.6229 0 0 -44.6229 688.4668 -171.3789)" overflow="visible"/>
	
		<use xlink:href="#g"  width="17.375" height="21.172" x="-8.688" y="-10.586" transform="matrix(33.0627 0 0 -33.0627 712.0254 -171.3896)" overflow="visible"/>
	
		<use xlink:href="#a"  width="11.375" height="15.687" x="-5.688" y="-7.844" transform="matrix(44.6229 0 0 -44.6229 732.5723 -171.3789)" overflow="visible"/>
	
		<use xlink:href="#b"  width="16.438" height="16.078" x="-8.219" y="-8.039" transform="matrix(42.5856 0 0 -42.5856 746.3809 -171.3896)" overflow="visible"/>
	
		<use xlink:href="#t"  width="13.891" height="16.078" x="-6.945" y="-8.039" transform="matrix(43.5374 0 0 -43.5374 765.3691 -171.3896)" overflow="visible"/>
	
		<use xlink:href="#f"  width="15.391" height="15.687" x="-7.695" y="-7.843" transform="matrix(44.6229 0 0 -44.6229 782.0371 -171.4004)" overflow="visible"/>
	
		<use xlink:href="#e"  width="15.484" height="16.078" x="-7.742" y="-8.039" transform="matrix(43.5374 0 0 -43.5374 801.9707 -171.3896)" overflow="visible"/>
	
		<use xlink:href="#a"  width="11.375" height="15.687" x="-5.688" y="-7.844" transform="matrix(44.6229 0 0 -44.6229 820.8652 -171.3789)" overflow="visible"/>
	
		<use xlink:href="#s"  width="11.891" height="21.281" x="-5.945" y="-10.641" transform="matrix(32.8928 0 0 -32.8928 410.9551 -199.3896)" overflow="visible"/>
	
		<use xlink:href="#a"  width="11.375" height="15.687" x="-5.688" y="-7.844" transform="matrix(44.6229 0 0 -44.6229 423.1387 -199.3789)" overflow="visible"/>
	
		<use xlink:href="#c"  width="16.828" height="16.078" x="-8.414" y="-8.039" transform="matrix(41.597 0 0 -41.597 436.9473 -199.3896)" overflow="visible"/>
	
		<use xlink:href="#r"  width="24.641" height="15.688" x="-12.32" y="-7.844" transform="matrix(28.4084 0 0 -28.4084 456.1816 -199.3896)" overflow="visible"/>
	
		<use xlink:href="#d"  width="12.375" height="19.657" x="-6.188" y="-9.828" transform="matrix(35.6112 0 0 -35.6112 495.1074 -199.3984)" overflow="visible"/>
	
		<use xlink:href="#q"  width="15.391" height="21.281" x="-7.695" y="-10.641" transform="matrix(32.8928 0 0 -32.8928 508.4902 -199.3896)" overflow="visible"/>
	
		<use xlink:href="#b"  width="16.438" height="16.078" x="-8.219" y="-8.039" transform="matrix(42.5856 0 0 -42.5856 528.4238 -199.3896)" overflow="visible"/>
	
		<use xlink:href="#p"  width="18.281" height="20.406" x="-9.141" y="-10.203" transform="matrix(34.3032 0 0 -34.3032 557.1621 -199.3896)" overflow="visible"/>
	
		<use xlink:href="#c"  width="16.828" height="16.078" x="-8.414" y="-8.039" transform="matrix(41.597 0 0 -41.597 580.5957 -199.3896)" overflow="visible"/>
	
		<use xlink:href="#o"  width="15.391" height="15.703" x="-7.695" y="-7.852" transform="matrix(44.5785 0 0 -44.5785 599.834 -199.3789)" overflow="visible"/>
	
		<use xlink:href="#f"  width="15.391" height="15.687" x="-7.695" y="-7.843" transform="matrix(44.6229 0 0 -44.6229 619.7676 -199.4004)" overflow="visible"/>
	
		<use xlink:href="#n"  width="16.797" height="20.407" x="-8.398" y="-10.203" transform="matrix(34.3024 0 0 -34.3024 649.4473 -199.3979)" overflow="visible"/>
	
		<use xlink:href="#a"  width="11.375" height="15.687" x="-5.688" y="-7.844" transform="matrix(44.6229 0 0 -44.6229 669.9707 -199.3789)" overflow="visible"/>
	
		<use xlink:href="#c"  width="16.828" height="16.078" x="-8.414" y="-8.039" transform="matrix(41.597 0 0 -41.597 683.7754 -199.3896)" overflow="visible"/>
	
		<use xlink:href="#m"  width="8.188" height="27.328" x="-4.094" y="-13.664" transform="matrix(25.6151 0 0 -25.6151 703.0137 -199.396)" overflow="visible"/>
	
		<use xlink:href="#b"  width="16.438" height="16.078" x="-8.219" y="-8.039" transform="matrix(42.5856 0 0 -42.5856 712.6113 -199.3896)" overflow="visible"/>
	
		<use xlink:href="#l"  width="13.516" height="16.078" x="-6.758" y="-8.039" transform="matrix(43.5374 0 0 -43.5374 731.6035 -199.3896)" overflow="visible"/>
	
		<use xlink:href="#d"  width="12.375" height="19.657" x="-6.188" y="-9.828" transform="matrix(35.6112 0 0 -35.6112 748.1973 -199.3984)" overflow="visible"/>
</g>
</svg>
