<?xml version="1.0" encoding="utf-8"?>
<!-- Generator: Adobe Illustrator 16.0.0, SVG Export Plug-In . SVG Version: 6.00 Build 0)  -->
<!DOCTYPE svg PUBLIC "-//W3C//DTD SVG 1.1//EN" "http://www.w3.org/Graphics/SVG/1.1/DTD/svg11.dtd">
<svg version="1.1" id="Layer_1" xmlns="http://www.w3.org/2000/svg" xmlns:xlink="http://www.w3.org/1999/xlink" x="0px" y="0px"
	 width="64px" height="64px" viewBox="0 0 64 64" enable-background="new 0 0 64 64" xml:space="preserve">
<g>
	<path fill="#8F00FF" d="M56.687,44.7H38.748c0,1.12-0.935,2.028-2.081,2.028h-7.835c-1.146,0-2.073-0.908-2.073-2.028H8.812
		c-1.109,0-2.073,0.881-2.073,2.027c0,1.13,0.927,2.037,2.073,2.037h47.875c1.148,0,2.073-0.907,2.073-2.037
		C58.761,45.605,57.835,44.7,56.687,44.7L56.687,44.7z M47.575,47.396c-0.374,0-0.675-0.294-0.675-0.669
		c0-0.366,0.301-0.66,0.675-0.66c0.383,0,0.684,0.294,0.684,0.66C48.259,47.103,47.958,47.396,47.575,47.396z M50.141,47.396
		c-0.373,0-0.675-0.294-0.675-0.669c0-0.366,0.302-0.66,0.675-0.66c0.383,0,0.684,0.294,0.684,0.66
		C50.824,47.103,50.523,47.396,50.141,47.396z M52.707,47.396c-0.375,0-0.676-0.294-0.676-0.669c0-0.366,0.301-0.66,0.676-0.66
		c0.381,0,0.683,0.294,0.683,0.66C53.39,47.103,53.088,47.396,52.707,47.396z"/>
	<path fill="#8F00FF" d="M53.122,13.333H12.383c-1.349,0-2.439,1.066-2.439,2.387v27.387c0,0.438,0.358,0.796,0.813,0.796h43.992
		c0.447,0,0.813-0.358,0.813-0.796V15.721c0-1.321-1.097-2.387-2.438-2.387H53.122z M52.031,16.411v24.415H13.473V16.411H52.031z"/>
	<path fill="#8F00FF" d="M40.678,28.835v-0.473c0-0.709,0.49-1.325,1.188-1.514l-0.676-2.041c-0.691,0.257-1.478,0.027-1.898-0.568
		c-0.076-0.121-0.165-0.236-0.257-0.351c-0.221-0.284-0.331-0.615-0.331-0.953c0-0.344,0.125-0.702,0.359-0.986l-1.781-1.27
		l-0.013,0.033c-0.396,0.582-1.147,0.845-1.823,0.608c-0.152-0.06-0.305-0.101-0.463-0.148c-0.698-0.202-1.166-0.831-1.133-1.534
		v-0.055h-2.201c0.034,0.723-0.428,1.386-1.133,1.588c-0.145,0.04-0.283,0.081-0.428,0.135c-0.172,0.06-0.351,0.094-0.524,0.094
		c-0.532,0-1.042-0.27-1.346-0.723l-1.781,1.27c0.462,0.561,0.483,1.365,0.027,1.94c-0.083,0.114-0.172,0.229-0.255,0.351
		c-0.31,0.433-0.801,0.669-1.318,0.669c-0.193,0-0.394-0.034-0.573-0.101l-0.684,2.041c0.718,0.196,1.208,0.831,1.194,1.554
		c-0.006,0.074-0.006,0.142-0.006,0.216s0,0.149,0.006,0.216v0.041c0,0.709-0.497,1.331-1.194,1.521l0.684,2.042
		c0.684-0.264,1.478-0.035,1.892,0.56c0.083,0.129,0.172,0.243,0.255,0.358c0.229,0.276,0.332,0.608,0.332,0.946
		c0,0.352-0.125,0.702-0.359,0.993l1.781,1.264l0.014-0.021c0.394-0.589,1.153-0.858,1.83-0.615
		c0.152,0.054,0.304,0.095,0.456,0.143c0.698,0.202,1.173,0.83,1.14,1.539v0.048h2.194v-0.048c-0.033-0.709,0.435-1.337,1.133-1.533
		c0.158-0.047,0.311-0.095,0.463-0.148c0.676-0.243,1.428,0.026,1.823,0.615l0.013,0.021l1.781-1.264
		c-0.462-0.561-0.482-1.366-0.028-1.939c0.091-0.115,0.181-0.229,0.263-0.358c0.305-0.426,0.794-0.669,1.319-0.669
		c0.186,0,0.386,0.035,0.572,0.109l0.676-2.042C41.154,30.2,40.658,29.558,40.678,28.835L40.678,28.835z M32.746,32.875
		c-2.399,0-4.349-1.901-4.349-4.256s1.949-4.257,4.349-4.257c2.405,0,4.355,1.902,4.355,4.257
		C37.102,30.973,35.152,32.875,32.746,32.875z"/>
</g>
</svg>
