<?xml version="1.0" encoding="utf-8"?>
<!-- Generator: Adobe Illustrator 16.0.0, SVG Export Plug-In . SVG Version: 6.00 Build 0)  -->
<!DOCTYPE svg PUBLIC "-//W3C//DTD SVG 1.1//EN" "http://www.w3.org/Graphics/SVG/1.1/DTD/svg11.dtd">
<svg version="1.1" id="Layer_1" xmlns="http://www.w3.org/2000/svg" xmlns:xlink="http://www.w3.org/1999/xlink" x="0px" y="0px"
	 width="64px" height="64px" viewBox="0 0 64 64" enable-background="new 0 0 64 64" xml:space="preserve">
<g>
	<path fill="#8F00FF" d="M34.16,16.39c-0.08-0.111-0.209-0.178-0.348-0.178c-0.137,0-0.267,0.066-0.347,0.178
		c-0.246,0.385-2.342,3.814-1.418,5.469c0.183,0.294,0.446,0.53,0.758,0.681c0.312,0.151,0.662,0.211,1.007,0.174
		c0.346,0.037,0.695-0.023,1.008-0.174c0.312-0.151,0.575-0.387,0.758-0.681C36.502,20.204,34.403,16.776,34.16,16.39L34.16,16.39z"
		/>
	<path fill="#8F00FF" d="M46.561,31.673c0,1.15-0.938,2.083-2.096,2.083c-1.156,0-2.095-0.933-2.095-2.083s0.938-2.083,2.095-2.083
		C45.622,29.59,46.561,30.523,46.561,31.673"/>
	<path fill="#8F00FF" d="M52.486,7.241H24.625c-1.085,0.001-2.127,0.431-2.896,1.194c-0.768,0.764-1.2,1.798-1.202,2.878v17.103
		h3.278V12.127c0-0.45,0.367-0.814,0.819-0.814h27.862c0.217,0,0.426,0.086,0.58,0.239c0.152,0.153,0.238,0.36,0.238,0.576v39.906
		c0,0.217-0.086,0.424-0.238,0.576c-0.154,0.152-0.363,0.238-0.58,0.238H24.625c-0.452,0-0.819-0.365-0.819-0.814v-5.145
		l1.035-1.002c1.215,0.477,2.57,0.455,3.77-0.057c0.827-0.363,1.627-0.783,2.391-1.264c0.507-0.303,0.888-0.777,1.072-1.336
		c0.186-0.559,0.162-1.164-0.064-1.709l-2.49-5.885l3.147-3.047c0.457-0.438,0.723-1.036,0.744-1.667
		c0.02-0.631-0.205-1.245-0.633-1.713c-0.427-0.468-1.02-0.753-1.654-0.793h6.613v7.328h-4.098v1.631h15.57
		c0.217,0,0.426-0.088,0.578-0.24c0.154-0.15,0.24-0.359,0.24-0.574v-8.959c0-0.216-0.086-0.423-0.24-0.576
		c-0.152-0.153-0.361-0.238-0.578-0.238H27.903v1.629h2.892c-0.585,0.032-1.14,0.272-1.561,0.678l-1.769,1.71l0.393,5.293
		c0.119,0.625-0.012,1.273-0.366,1.805s-0.903,0.904-1.529,1.037c-0.173,0.039-0.348,0.057-0.525,0.057
		c-0.547-0.002-1.078-0.186-1.508-0.521c-0.43-0.336-0.736-0.805-0.868-1.332l-1.646-4.072c-1.102,0.521-1.915,1.502-2.221,2.674
		l-0.69,2.607l-3.758,3.523l-0.195-0.193c-0.32-0.318-0.839-0.318-1.159,0l-5.736,5.701c-0.32,0.318-0.32,0.832,0,1.15l7.375,7.332
		c0.32,0.316,0.839,0.316,1.159,0l3.278-3.26l1.059-1.049v0.477c0.001,1.08,0.434,2.115,1.202,2.879
		c0.768,0.762,1.81,1.191,2.896,1.193h27.862c1.086-0.002,2.127-0.432,2.896-1.193c0.766-0.764,1.199-1.799,1.201-2.879v-40.72
		c-0.002-1.08-0.436-2.114-1.201-2.878C54.613,7.672,53.572,7.243,52.486,7.241L52.486,7.241z M39.375,10.499h-1.639V8.87h1.639
		V10.499z M39.375,28.416h4.098v0.873h0.818v-0.873h4.098v7.329h-4.098v-0.871h-0.818v0.871h-4.098V28.416z M18.889,50.881
		l-6.217-6.176l1.3-1.293l0.178,0.178l5.873,5.838l0.164,0.162L18.889,50.881z"/>
	<path fill="#8F00FF" d="M10.148,22.771c0.735-0.979,1.131-2.167,1.129-3.388c0.001-1.221-0.395-2.409-1.129-3.387l-1.316,0.969
		c0.524,0.698,0.808,1.546,0.807,2.418c0.001,0.871-0.282,1.719-0.807,2.417L10.148,22.771z"/>
	<path fill="#8F00FF" d="M11.262,24.004l1.271,1.028l0,0c1.307-1.597,2.021-3.592,2.023-5.65c-0.003-2.058-0.716-4.053-2.023-5.65
		l-1.271,1.028c1.076,1.302,1.661,2.938,1.655,4.622C12.923,21.067,12.338,22.702,11.262,24.004z"/>
	<path fill="#8F00FF" d="M13.671,26.216l1.249,1.053c1.879-2.204,2.911-4.998,2.914-7.886c-0.003-2.889-1.035-5.682-2.914-7.886
		l-1.249,1.053c1.627,1.909,2.521,4.33,2.523,6.833C16.192,21.885,15.298,24.306,13.671,26.216L13.671,26.216z"/>
	<path fill="#8F00FF" d="M28.486,24.75h21.306c0.217,0,0.426-0.086,0.579-0.239c0.154-0.152,0.24-0.36,0.24-0.576v-8.958
		c0-0.216-0.086-0.423-0.24-0.576c-0.153-0.152-0.362-0.238-0.579-0.238H28.486c-0.453,0-0.819,0.365-0.819,0.814v8.958
		c0,0.216,0.086,0.424,0.24,0.576C28.061,24.665,28.269,24.75,28.486,24.75z M44.056,20.02v-2.11h0.819v2.111
		c0.564,0.198,0.902,0.772,0.803,1.358c-0.103,0.586-0.614,1.015-1.213,1.015c-0.598,0-1.11-0.429-1.211-1.015
		C43.152,20.792,43.491,20.219,44.056,20.02L44.056,20.02z M48.973,23.122h-3.188c0.054-0.035,0.109-0.064,0.158-0.104h0.001
		c0.582-0.457,0.915-1.16,0.899-1.897c-0.017-0.737-0.38-1.425-0.981-1.856v-2.495c-0.002-0.367-0.148-0.718-0.41-0.977h3.521
		V23.122z M39.959,15.792h3.523c-0.262,0.259-0.41,0.61-0.41,0.977v2.494c-0.386,0.277-0.678,0.663-0.84,1.107
		c-0.162,0.444-0.188,0.926-0.071,1.384c0.147,0.563,0.501,1.051,0.993,1.368h-3.195V15.792z M29.306,15.792h9.014v7.33h-9.014
		V15.792z"/>
	<path fill="#8F00FF" d="M28.486,47.553v1.63h21.306c0.217,0,0.426-0.087,0.579-0.238c0.154-0.152,0.24-0.36,0.24-0.576v-8.959
		c0-0.216-0.086-0.424-0.24-0.575c-0.153-0.152-0.362-0.239-0.579-0.239h-15.57v1.63h4.098v7.328H28.486z M39.959,40.225h9.014
		v7.328h-9.014V40.225z"/>
	<path fill="#8F00FF" d="M44.875,21.166c0,0.543-0.819,0.543-0.819,0S44.875,20.623,44.875,21.166"/>
	<path fill="#8F00FF" d="M40.532,31.266h1.124v0.814h-1.124V31.266z"/>
	<path fill="#8F00FF" d="M41.394,29.196l0.579-0.576l0.794,0.79l-0.578,0.576L41.394,29.196z"/>
	<path fill="#8F00FF" d="M41.395,34.149l0.794-0.791l0.58,0.577l-0.794,0.789L41.395,34.149z"/>
	<path fill="#8F00FF" d="M47.338,31.266h1.123v0.814h-1.123V31.266z"/>
	<path fill="#8F00FF" d="M46.225,29.411l0.795-0.79l0.578,0.576l-0.794,0.79L46.225,29.411z"/>
	<path fill="#8F00FF" d="M46.225,33.936l0.579-0.577l0.794,0.79l-0.578,0.576L46.225,33.936z"/>
	<path fill="#8F00FF" d="M47.39,42.864h-0.473c-0.025-0.062-0.053-0.121-0.082-0.18l0.341-0.339c0.16-0.159,0.16-0.416,0-0.574
		l-0.706-0.702c-0.159-0.159-0.418-0.159-0.578,0l-0.398,0.395c-0.042-0.018-0.082-0.033-0.123-0.049v-0.561
		c0-0.108-0.043-0.212-0.119-0.288c-0.078-0.075-0.182-0.119-0.29-0.119h-0.999c-0.226,0-0.409,0.183-0.409,0.407v0.564
		c-0.04,0.017-0.082,0.032-0.12,0.049l-0.402-0.398c-0.162-0.153-0.416-0.153-0.579,0l-0.704,0.702c-0.16,0.158-0.16,0.415,0,0.574
		l0.348,0.346c-0.028,0.056-0.055,0.114-0.082,0.173h-0.484c-0.228,0-0.41,0.182-0.41,0.406v0.992c0,0.107,0.043,0.212,0.12,0.288
		c0.076,0.076,0.181,0.119,0.29,0.119h0.376c0.026,0.09,0.058,0.178,0.094,0.264l-0.254,0.254c-0.16,0.159-0.16,0.416,0,0.575
		l0.704,0.702c0.16,0.159,0.42,0.159,0.579,0l0.195-0.194c0.106,0.055,0.216,0.103,0.328,0.144v0.265
		c0,0.108,0.043,0.213,0.12,0.288c0.076,0.076,0.181,0.119,0.29,0.119h0.996c0.108,0,0.212-0.043,0.29-0.119
		c0.076-0.075,0.119-0.18,0.119-0.288v-0.261c0.113-0.04,0.223-0.088,0.328-0.144l0.191,0.19c0.16,0.159,0.419,0.159,0.579,0
		l0.705-0.702l0,0c0.16-0.159,0.16-0.416,0-0.575l-0.246-0.245c0.038-0.088,0.071-0.179,0.099-0.271h0.365
		c0.108,0,0.212-0.043,0.289-0.119c0.077-0.077,0.12-0.181,0.12-0.288v-0.994C47.797,43.048,47.616,42.865,47.39,42.864
		L47.39,42.864z M44.465,45.153c-0.514,0-0.979-0.309-1.174-0.781c-0.198-0.472-0.088-1.017,0.274-1.377
		c0.363-0.362,0.912-0.471,1.386-0.273c0.477,0.195,0.786,0.656,0.786,1.167C45.735,44.587,45.167,45.151,44.465,45.153
		L44.465,45.153z"/>
	<path fill="#8F00FF" d="M24.68,36.371c0.064,0.357,0.271,0.673,0.574,0.875c0.302,0.201,0.675,0.272,1.032,0.196
		c0.356-0.077,0.666-0.294,0.858-0.603c0.192-0.308,0.25-0.68,0.159-1.031c-0.013-0.06-0.022-0.121-0.026-0.184l-1.031-5.619
		c-0.07-0.379-0.302-0.71-0.635-0.907c-0.333-0.198-0.737-0.242-1.105-0.122l-1.109,0.362v0c-0.352,0.116-0.64,0.371-0.796,0.705
		c-0.157,0.334-0.167,0.717-0.029,1.059l2.043,5.053C24.643,36.226,24.665,36.298,24.68,36.371L24.68,36.371z"/>
</g>
</svg>
