<?xml version="1.0" encoding="utf-8"?>
<!-- Generator: Adobe Illustrator 16.0.0, SVG Export Plug-In . SVG Version: 6.00 Build 0)  -->
<!DOCTYPE svg PUBLIC "-//W3C//DTD SVG 1.1//EN" "http://www.w3.org/Graphics/SVG/1.1/DTD/svg11.dtd">
<svg version="1.1" id="Layer_1" xmlns="http://www.w3.org/2000/svg" xmlns:xlink="http://www.w3.org/1999/xlink" x="0px" y="0px"
	 width="64px" height="64px" viewBox="0 0 64 64" enable-background="new 0 0 64 64" xml:space="preserve">
<g>
	<path fill="#FFBC04" d="M36.761,7.954c-5.266-1.105-10.752-0.345-15.521,2.15c-4.768,2.495-8.52,6.568-10.614,11.524
		c-2.094,4.957-2.401,10.487-0.867,15.645l1.533-0.455l0,0c-1.441-4.792-1.171-9.937,0.764-14.551
		c1.936-4.614,5.415-8.412,9.843-10.742c4.428-2.331,9.529-3.048,14.428-2.03l-0.729,2.596l5.873-2.059l-3.945-4.813L36.761,7.954z"
		/>
	<path fill="#FFBC04" d="M52.706,24.473c1.439,4.792,1.17,9.935-0.766,14.548c-1.936,4.615-5.414,8.412-9.842,10.742
		s-9.527,3.049-14.427,2.031l0.729-2.596l-5.873,2.059l3.944,4.813l0.767-2.734h0c5.266,1.105,10.752,0.346,15.52-2.15
		c4.768-2.494,8.52-6.568,10.613-11.523c2.096-4.957,2.402-10.487,0.867-15.645L52.706,24.473z"/>
	<path fill="#FFBC04" d="M38.591,36.246c1.279-0.061,2.482-0.625,3.346-1.568c0.863-0.945,1.316-2.194,1.262-3.472
		c0.055-1.279-0.398-2.527-1.262-3.472c-0.863-0.944-2.066-1.508-3.346-1.568c-0.697,0.004-1.385,0.18-2,0.512
		c0.008-1.243-0.467-2.44-1.322-3.34c-0.857-0.901-2.027-1.436-3.269-1.492c-1.242,0.057-2.413,0.591-3.269,1.492
		c-0.856,0.9-1.331,2.097-1.324,3.34c-0.615-0.332-1.301-0.508-2-0.512c-1.278,0.06-2.481,0.624-3.345,1.568
		c-0.864,0.945-1.318,2.193-1.263,3.472c-0.032,1.101,0.303,2.181,0.953,3.07c0.649,0.891,1.577,1.537,2.635,1.842l-4.108,3.52
		l1.04,1.215l11.199-9.6l1.041,1.217l-4.408,3.777H38.591z"/>
	<path fill="#FFBC04" d="M42.679,20.438l-4.857,4.16l0.008,0.016c0.252-0.035,0.508-0.052,0.762-0.052
		c0.504,0.002,1.006,0.071,1.494,0.203l3.635-3.115L42.679,20.438z"/>
	<path fill="#FFBC04" d="M50.399,5.845c-3.59,0-6.4,1.76-6.4,4v8c0,2.24,2.811,4,6.4,4c3.588,0,6.4-1.76,6.4-4v-8
		C56.8,7.605,53.987,5.845,50.399,5.845z M55.2,16.504c-1.428,0.922-3.102,1.39-4.801,1.341c-1.699,0.048-3.373-0.419-4.801-1.341
		v-2.659c0,1.135,1.973,2.4,4.801,2.4s4.801-1.265,4.801-2.4V16.504z M50.399,12.246c-2.828,0-4.801-1.265-4.801-2.4
		s1.973-2.4,4.801-2.4S55.2,8.71,55.2,9.846S53.228,12.246,50.399,12.246z"/>
	<path fill="#FFBC04" d="M20,51.445v-8c0-2.24-2.811-4-6.4-4s-6.4,1.76-6.4,4v8c0,2.24,2.811,4,6.4,4S20,53.686,20,51.445z
		 M13.6,41.045c2.829,0,4.8,1.266,4.8,2.4s-1.971,2.4-4.8,2.4c-2.829,0-4.8-1.266-4.8-2.4S10.771,41.045,13.6,41.045z M8.799,47.445
		c0,1.135,1.971,2.4,4.8,2.4c2.829,0,4.8-1.266,4.8-2.4v2.658c-1.427,0.922-3.101,1.391-4.8,1.342
		c-1.699,0.049-3.373-0.42-4.8-1.342V47.445z"/>
</g>
</svg>
