<?xml version="1.0" encoding="utf-8"?>
<!-- Generator: Adobe Illustrator 16.0.0, SVG Export Plug-In . SVG Version: 6.00 Build 0)  -->
<!DOCTYPE svg PUBLIC "-//W3C//DTD SVG 1.1//EN" "http://www.w3.org/Graphics/SVG/1.1/DTD/svg11.dtd">
<svg version="1.1" id="Layer_1" xmlns="http://www.w3.org/2000/svg" xmlns:xlink="http://www.w3.org/1999/xlink" x="0px" y="0px"
	 width="64px" height="64px" viewBox="0 0 64 64" enable-background="new 0 0 64 64" xml:space="preserve">
<g>
	<path fill="#2064D4" d="M21.457,13.967c-4.238,0-7.718,3.603-7.718,8.015s3.479,8.015,7.718,8.015c4.263,0,7.749-3.603,7.749-8.015
		S25.719,13.967,21.457,13.967z"/>
	<path fill="#2064D4" d="M21.462,38.084c3.682,0,7.363,0.563,10.409,1.669v-0.001h0.002c2.379,0.863,4.358,2.05,5.689,3.452
		c1.328,1.399,2.032,2.957,2.032,4.885v3.078H3.353v-3.078c0-2.21,0.917-3.951,2.634-5.48c1.716-1.53,4.249-2.747,7.182-3.519
		C15.733,38.415,18.598,38.08,21.462,38.084L21.462,38.084z"/>
	<path fill="#2064D4" d="M42.682,38.101c2.818,0.033,5.619,0.396,8.123,1.082c2.857,0.786,5.315,1.999,6.978,3.511
		c1.66,1.513,2.55,3.226,2.55,5.396v3.077H42.441v-3.077c0-2.734-1.109-5.134-2.855-6.978c-0.921-0.974-2.017-1.809-3.234-2.524
		C38.39,38.238,40.539,38.072,42.682,38.101L42.682,38.101z"/>
	<path fill="#2064D4" d="M42.227,13.967c-4.238,0-7.717,3.603-7.717,8.015s3.477,8.015,7.717,8.015c4.237,0,7.717-3.603,7.717-8.015
		S46.464,13.967,42.227,13.967z"/>
</g>
</svg>
