<?xml version="1.0" encoding="utf-8"?>
<!-- Generator: Adobe Illustrator 16.0.0, SVG Export Plug-In . SVG Version: 6.00 Build 0)  -->
<!DOCTYPE svg PUBLIC "-//W3C//DTD SVG 1.1//EN" "http://www.w3.org/Graphics/SVG/1.1/DTD/svg11.dtd">
<svg version="1.1" id="Layer_1" xmlns="http://www.w3.org/2000/svg" xmlns:xlink="http://www.w3.org/1999/xlink" x="0px" y="0px"
	 width="64px" height="64px" viewBox="0 0 64 64" enable-background="new 0 0 64 64" xml:space="preserve">
<g>
	<path fill="#2064D4" d="M46.775,12.477l-0.398,0.24c-1.281,0.64-2.641,1.28-4,1.92c-3.281-2.16-7.041-3.28-11.041-3.28
		c-11.36,0-20.561,9.2-20.561,20.561c0,4.8,1.68,9.52,4.8,13.2l0.8,0.881l-3.28,2.799l-0.72-0.879c-3.76-4.48-5.84-10.16-5.84-16
		c0-13.76,11.2-24.879,24.879-24.879c5.521,0,11.04,1.92,15.36,5.44V12.477z"/>
	<path fill="#2064D4" d="M56.215,31.917v1.2h-4.32v-1.2c0-2.96-0.639-5.92-1.92-8.64l2.721-4
		C55.016,23.117,56.215,27.437,56.215,31.917z"/>
	<path fill="#2064D4" d="M19.298,49.229c1.002,0.168,1.678,1.117,1.51,2.119s-1.118,1.678-2.12,1.51s-1.678-1.117-1.51-2.119
		C17.347,49.736,18.296,49.061,19.298,49.229"/>
	<path fill="#2064D4" d="M55.895,40.877c0,2.033-1.646,3.68-3.68,3.68c-2.031,0-3.68-1.646-3.68-3.68c0-2.032,1.648-3.68,3.68-3.68
		C54.248,37.197,55.895,38.845,55.895,40.877"/>
	<path fill="#2064D4" d="M45.496,48.477c-0.48-0.32-1.039-0.48-1.6-0.48c-0.961,0-1.92,0.48-2.4,1.28c-0.881,1.36-0.48,3.12,0.801,4
		c0.479,0.32,1.039,0.48,1.6,0.48c0.959,0,1.92-0.48,2.4-1.28C47.176,51.117,46.855,49.356,45.496,48.477z"/>
	<path fill="#2064D4" d="M31.496,52.077c-0.4,0-0.72,0.08-1.04,0.239c-0.64,0.24-1.12,0.801-1.36,1.44c-0.24,0.64-0.24,1.36,0,2
		c0.4,0.96,1.36,1.601,2.4,1.601c0.4,0,0.72-0.08,1.04-0.24c0.641-0.24,1.121-0.801,1.361-1.439c0.238-0.641,0.238-1.361,0-2
		C33.416,52.717,32.535,52.077,31.496,52.077z"/>
	<path fill="#2064D4" d="M50.936,16.396c0.16-0.32,0.24-0.8,0-1.12c0-0.08-0.08-0.08-0.08-0.16l-0.16-0.16
		c-0.318-0.32-0.879-0.4-1.359-0.24c-0.08,0-0.16,0.08-0.24,0.08l-1.039,0.56c-2.16,1.04-4.32,2.08-6.4,3.12
		c-1.199,0.56-2.4,1.2-3.6,1.76c-3.121,1.52-6.321,3.04-9.441,4.64c-3.2,1.6-4.72,5.12-3.68,8.56c0.96,3.121,3.76,5.121,6.96,5.121
		c0.32,0,0.561,0,0.879-0.08c2.16-0.24,4-1.44,5.441-3.521c2.799-4.08,5.68-8.16,8.479-12.32L50.936,16.396z"/>
</g>
</svg>
