<?xml version="1.0" encoding="utf-8"?>
<!-- Generator: Adobe Illustrator 16.0.0, SVG Export Plug-In . SVG Version: 6.00 Build 0)  -->
<!DOCTYPE svg PUBLIC "-//W3C//DTD SVG 1.1//EN" "http://www.w3.org/Graphics/SVG/1.1/DTD/svg11.dtd">
<svg version="1.1" id="Layer_1" xmlns="http://www.w3.org/2000/svg" xmlns:xlink="http://www.w3.org/1999/xlink" x="0px" y="0px"
	 width="64px" height="64px" viewBox="0 0 64 64" enable-background="new 0 0 64 64" xml:space="preserve">
<g>
	<path fill="#0C9C54" d="M52.597,11.5c2.336,0,4.236,1.707,4.236,3.805v24.732c0,2.099-1.9,3.807-4.236,3.807h-6.354v-3.807h6.354
		V15.305h-42.36v24.732H27.18v3.807H10.236C7.9,43.844,6,42.136,6,40.037V15.305c0-2.098,1.9-3.805,4.236-3.805H52.597z
		 M34.594,46.696c-0.585,0-1.06,0.427-1.06,0.951s0.475,0.951,1.06,0.951c0.582,0,1.06-0.427,1.06-0.951
		S35.176,46.696,34.594,46.696z M34.594,42.892c-0.585,0-1.06,0.426-1.06,0.952c0,0.521,0.475,0.949,1.06,0.949
		c0.582,0,1.06-0.428,1.06-0.949C35.653,43.317,35.176,42.892,34.594,42.892z M34.594,39.086c-0.585,0-1.06,0.427-1.06,0.951
		s0.475,0.951,1.06,0.951c0.582,0,1.06-0.427,1.06-0.951S35.176,39.086,34.594,39.086z M38.83,46.696
		c-0.585,0-1.059,0.427-1.059,0.951s0.474,0.951,1.059,0.951c0.583,0,1.06-0.427,1.06-0.951S39.413,46.696,38.83,46.696z
		 M38.83,42.892c-0.585,0-1.059,0.426-1.059,0.952c0,0.521,0.474,0.949,1.059,0.949c0.583,0,1.06-0.428,1.06-0.949
		C39.89,43.317,39.413,42.892,38.83,42.892z M38.83,39.087c-0.585,0-1.059,0.426-1.059,0.95s0.474,0.951,1.059,0.951
		c0.583,0,1.06-0.427,1.06-0.951S39.413,39.087,38.83,39.087z M29.299,55.258V34.33h14.826v20.928H29.299z M44.451,23.937
		c0.498,0.274,0.655,0.86,0.347,1.308c-0.199,0.292-0.547,0.455-0.904,0.455c-0.188,0-0.379-0.048-0.55-0.141
		c-3.897-2.15-8.804-2.245-12.8-0.247c-0.517,0.253-1.158,0.089-1.442-0.37c-0.284-0.46-0.101-1.039,0.411-1.293
		C34.178,21.317,39.904,21.428,44.451,23.937L44.451,23.937z M41.686,28.938c-0.188,0-0.379-0.043-0.552-0.139
		c-2.602-1.433-5.869-1.496-8.536-0.166c-0.508,0.255-1.154,0.09-1.44-0.369c-0.282-0.461-0.1-1.039,0.413-1.294
		c3.332-1.665,7.423-1.583,10.671,0.206c0.497,0.276,0.655,0.859,0.349,1.309C42.392,28.777,42.043,28.938,41.686,28.938
		L41.686,28.938z M33.636,30.31c1.996-0.997,4.447-0.953,6.389,0.116c0.496,0.274,0.654,0.862,0.349,1.307
		c-0.198,0.293-0.548,0.454-0.904,0.454c-0.188,0-0.38-0.043-0.552-0.139c-1.291-0.71-2.922-0.739-4.254-0.073
		c-0.508,0.252-1.156,0.089-1.438-0.37C32.941,31.145,33.126,30.564,33.636,30.31L33.636,30.31z"/>
</g>
</svg>
