<?xml version="1.0" encoding="utf-8"?>
<!-- Generator: Adobe Illustrator 16.0.0, SVG Export Plug-In . SVG Version: 6.00 Build 0)  -->
<!DOCTYPE svg PUBLIC "-//W3C//DTD SVG 1.1//EN" "http://www.w3.org/Graphics/SVG/1.1/DTD/svg11.dtd">
<svg version="1.1" id="Layer_1" xmlns="http://www.w3.org/2000/svg" xmlns:xlink="http://www.w3.org/1999/xlink" x="0px" y="0px"
	 width="64px" height="64px" viewBox="0 0 64 64" enable-background="new 0 0 64 64" xml:space="preserve">
<g>
	<path fill="#F01A1A" d="M20.277,46.693c0.563,1.429,1.211,2.756,1.925,3.966c2.691,4.541,6.335,7.345,10.301,7.345
		c3.963,0,7.608-2.804,10.295-7.345c0.721-1.21,1.365-2.537,1.93-3.966c-3.708,0.977-7.854,1.521-12.225,1.521
		C28.135,48.215,23.984,47.67,20.277,46.693L20.277,46.693z"/>
	<path fill="#F01A1A" d="M19.219,20.412c-1.009,3.49-1.576,7.424-1.576,11.593c0,4.16,0.567,8.093,1.576,11.583
		c3.893,1.221,8.428,1.929,13.284,1.929c4.859,0,9.395-0.708,13.281-1.929c1.01-3.49,1.572-7.424,1.572-11.583
		c0-4.169-0.563-8.103-1.572-11.593c-3.889-1.223-8.422-1.925-13.281-1.925C27.646,18.487,23.111,19.188,19.219,20.412z"/>
	<path fill="#F01A1A" d="M42.798,13.341c-2.688-4.54-6.332-7.35-10.295-7.35c-3.966,0-7.61,2.81-10.301,7.35
		c-0.714,1.205-1.362,2.536-1.925,3.964c3.707-0.977,7.857-1.521,12.226-1.521c4.371,0,8.517,0.544,12.224,1.521
		C44.163,15.877,43.519,14.546,42.798,13.341L42.798,13.341z"/>
	<path fill="#F01A1A" d="M17.048,18.301c0.767-2.326,1.726-4.459,2.834-6.335c0.94-1.585,1.992-2.995,3.142-4.186
		c-3.371,1.32-6.396,3.318-8.906,5.827c-2.77,2.771-4.928,6.173-6.221,9.972c1.281-1.206,2.84-2.308,4.622-3.272
		C13.897,19.558,15.419,18.883,17.048,18.301L17.048,18.301z"/>
	<path fill="#F01A1A" d="M16.134,42.456c-0.767-3.241-1.189-6.767-1.189-10.452c0-3.698,0.422-7.22,1.189-10.455
		c-0.818,0.347-1.598,0.724-2.327,1.121c-4.507,2.45-7.306,5.753-7.306,9.334c0,3.572,2.798,6.88,7.306,9.32
		C14.536,41.727,15.316,42.102,16.134,42.456L16.134,42.456z"/>
	<path fill="#F01A1A" d="M23.023,56.222c-1.149-1.197-2.202-2.6-3.142-4.188c-1.108-1.875-2.066-4.006-2.834-6.337
		c-1.628-0.582-3.15-1.251-4.529-2.004c-1.782-0.965-3.341-2.066-4.622-3.269c1.293,3.794,3.451,7.196,6.221,9.964
		C16.627,52.9,19.652,54.898,23.023,56.222L23.023,56.222z"/>
	<path fill="#F01A1A" d="M47.954,45.699c-0.766,2.331-1.725,4.46-2.832,6.335c-0.939,1.588-1.992,2.99-3.139,4.188
		c3.363-1.323,6.389-3.321,8.9-5.833c2.777-2.768,4.93-6.168,6.227-9.962c-1.285,1.2-2.844,2.302-4.63,3.267
		c-1.368,0.753-2.892,1.422-4.526,2.004V45.699z"/>
	<path fill="#F01A1A" d="M48.866,21.549c0.772,3.235,1.199,6.757,1.199,10.455c0,3.685-0.427,7.21-1.199,10.452
		c0.82-0.353,1.599-0.729,2.33-1.13c4.511-2.439,7.303-5.75,7.303-9.321c0-3.581-2.792-6.885-7.303-9.334
		C50.464,22.274,49.687,21.896,48.866,21.549L48.866,21.549z"/>
	<path fill="#F01A1A" d="M41.984,7.781c1.146,1.191,2.198,2.601,3.138,4.185c1.108,1.876,2.066,4.009,2.832,6.336
		c1.635,0.581,3.158,1.256,4.526,2.004c1.786,0.965,3.346,2.067,4.63,3.272c-1.297-3.798-3.449-7.201-6.227-9.972
		C48.372,11.098,45.347,9.1,41.984,7.781L41.984,7.781z"/>
</g>
</svg>
