<?xml version="1.0" encoding="utf-8"?>
<!-- Generator: Adobe Illustrator 16.0.0, SVG Export Plug-In . SVG Version: 6.00 Build 0)  -->
<!DOCTYPE svg PUBLIC "-//W3C//DTD SVG 1.1//EN" "http://www.w3.org/Graphics/SVG/1.1/DTD/svg11.dtd">
<svg version="1.1" id="Layer_1" xmlns="http://www.w3.org/2000/svg" xmlns:xlink="http://www.w3.org/1999/xlink" x="0px" y="0px"
	 width="64px" height="64px" viewBox="0 0 64 64" enable-background="new 0 0 64 64" xml:space="preserve">
<g transform="translate(0.000000,1080.000000) scale(0.100000,-0.100000)">
	<path fill="#9838F4" d="M295.732,10779.198c-0.537-0.708-0.952-1.538-0.952-1.836c0-0.234-0.649-1.895-1.421-3.555
		c-3.257-7.231-3.911-8.711-3.911-9.126c0-0.298-0.532-1.543-1.123-2.842c-0.654-1.309-1.719-3.618-2.373-5.156
		c-0.708-1.602-1.777-3.975-2.427-5.396c-0.654-1.421-1.187-2.842-1.187-3.14c0-0.713-2.549-5.747-3.14-6.221
		c-0.239-0.181-0.415-0.596-0.356-0.889c0.059-0.298-0.356-1.602-0.947-2.905c-0.596-1.304-1.128-2.49-1.187-2.666
		c-0.059-0.181-0.532-1.304-1.069-2.549c-0.532-1.187-1.006-2.432-1.064-2.666c0-0.239-0.649-1.484-1.304-2.788
		c-0.713-1.304-1.304-2.607-1.362-2.959c0-0.298-0.532-1.66-1.128-2.964c-0.649-1.304-1.123-2.49-1.182-2.666
		c-0.063-0.181-0.596-1.362-1.187-2.671c-0.596-1.299-1.128-2.485-1.187-2.666c-0.059-0.176-0.532-1.362-1.187-2.666
		c-0.591-1.304-1.123-2.607-1.123-2.964c-0.059-0.293-0.596-1.655-1.187-2.959c-0.649-1.304-1.479-3.145-1.895-4.15
		c-1.484-3.496-5.039-11.318-6.162-13.628c-0.654-1.304-1.187-2.607-1.187-2.905s-0.532-1.719-1.187-3.14
		c-0.649-1.426-1.719-3.794-2.432-5.332c-0.649-1.602-1.714-3.916-2.368-5.215c-0.591-1.309-1.128-2.549-1.128-2.847
		c0-0.239-0.591-1.719-1.24-3.257c-0.713-1.543-1.782-3.975-2.432-5.454c-0.591-1.479-1.602-3.735-2.251-5.039
		c-0.596-1.304-1.421-3.374-1.836-4.561c-0.415-1.245-1.011-2.251-1.245-2.251c-0.239,0-0.474-0.474-0.474-1.011
		c0-0.591-0.713-2.544-1.543-4.321c-0.83-1.782-2.017-4.326-2.607-5.635c-0.591-1.299-1.602-3.613-2.31-5.093
		c-0.713-1.484-1.245-2.964-1.245-3.203c0-0.234-0.532-1.714-1.245-3.198c-0.713-1.479-1.777-3.911-2.432-5.391
		c-0.649-1.484-1.655-3.618-2.251-4.741c-0.591-1.128-1.245-2.964-1.479-3.97c-0.181-1.069-0.591-1.958-0.889-1.958
		c-0.239,0-0.654-0.708-0.889-1.597c-0.181-0.952-0.947-2.847-1.602-4.326c-0.649-1.484-1.66-3.735-2.251-5.039
		s-1.777-3.853-2.607-5.63s-1.543-3.555-1.543-3.853c0-0.356-0.532-1.719-1.182-3.081c-1.899-3.853-4.092-8.887-6.816-15.586
		c-0.889-2.134-2.075-4.917-2.607-6.221c-0.591-1.304-1.479-3.32-2.017-4.443c-0.474-1.128-1.597-3.618-2.427-5.454
		s-1.543-3.672-1.543-4.087c0-0.356-0.532-1.543-1.123-2.549c-0.654-1.011-1.304-2.788-1.543-3.97
		c-0.415-2.075-0.298-2.314,2.373-4.15c1.479-1.123,4.146-3.14,5.923-4.502c1.719-1.426,3.438-2.549,3.735-2.549
		c0.356,0,0.708-0.415,0.947-0.889c0.176-0.474,0.649-0.889,1.006-0.889s1.958-1.069,3.496-2.373
		c1.543-1.304,3.145-2.368,3.496-2.368c0.298,0,0.889-0.532,1.245-1.187c0.356-0.649,0.889-1.182,1.245-1.182
		s1.719-0.889,3.081-2.017c1.362-1.069,2.788-2.075,3.14-2.192c0.537-0.239,2.905-1.958,13.276-9.839
		c2.251-1.719,4.209-3.14,4.443-3.14c0.239,0,2.31-1.543,4.683-3.379c2.31-1.895,4.683-3.672,5.215-4.028
		c1.362-0.83,7.407-5.273,12.622-9.302c2.432-1.899,4.561-3.438,4.741-3.438c0.234,0,2.192-1.484,4.385-3.267
		c2.251-1.777,4.209-3.252,4.443-3.252c0.239,0,2.432-1.602,4.8-3.564c2.373-1.953,4.507-3.555,4.683-3.555s2.192-1.406,4.502-3.066
		c2.251-1.719,6.104-4.629,8.594-6.406c2.432-1.777,5.747-4.258,7.349-5.508c1.602-1.191,3.198-2.188,3.555-2.188
		c0.298,0,0.889-0.547,1.245-1.191c0.356-0.664,1.006-1.191,1.479-1.191c0.415,0,2.847-1.953,5.278-4.316
		c3.081-3.027,4.614-4.98,4.858-6.289c0.234-0.996,0.654-2.012,0.889-2.188c0.703-0.41,0.703-4.805,0-5.215
		c-0.293-0.176-0.713-1.367-0.947-2.559c-0.244-1.23-0.596-2.48-0.771-2.832c-0.234-0.293-0.41-0.723-0.469-0.898
		c-0.059-0.293-1.016-2.715-1.836-4.746c-0.186-0.469-0.42-1.113-0.483-1.465c0-0.313-0.352-1.367-0.767-2.266
		c-0.415-0.938-0.713-2.012-0.713-2.48s-0.298-1.016-0.591-1.191c-0.356-0.234-0.474-0.645-0.298-0.938
		c0.239-0.293-0.059-1.133-0.532-1.836c-0.532-0.723-0.947-1.719-0.947-2.266c0-0.469-0.356-1.602-0.83-2.48
		c-0.474-0.898-1.011-2.5-1.245-3.555c-0.239-1.074-0.713-2.5-1.128-3.145s-1.064-2.48-1.538-4.141
		c-0.415-1.602-0.952-3.203-1.187-3.555c-0.239-0.313-0.771-1.66-1.187-2.969s-0.947-2.617-1.187-2.969
		c-0.234-0.293-0.767-1.895-1.123-3.555c-0.415-1.602-0.947-3.203-1.187-3.555c-0.234-0.293-0.83-1.777-1.245-3.262
		s-1.006-2.891-1.182-3.262c-0.239-0.293-0.771-1.895-1.187-3.555c-0.474-1.602-1.128-3.496-1.543-4.141s-0.947-2.188-1.123-3.438
		c-0.239-1.191-0.654-2.188-0.889-2.188c-0.239,0-0.654-1.016-0.889-2.266c-0.239-1.172-0.889-3.242-1.484-4.551
		c-0.591-1.367-1.304-3.203-1.538-4.16c-0.239-0.996-0.596-2.012-0.83-2.363c-0.239-0.293-0.596-1.367-0.83-2.363
		c-0.239-0.957-0.947-2.793-1.543-4.16c-0.591-1.289-1.245-3.379-1.479-4.551c-0.239-1.25-0.654-2.266-0.889-2.266
		c-0.239,0-0.654-0.996-0.889-2.188c-0.181-1.25-0.713-2.773-1.128-3.438c-0.415-0.645-1.064-2.48-1.538-4.141
		c-0.415-1.602-0.952-3.203-1.187-3.555c-0.176-0.293-0.771-1.777-1.187-3.262s-1.064-3.027-1.362-3.379
		c-0.298-0.41-0.356-0.781-0.117-0.781c0.234,0,0.176-0.352-0.181-0.703c-0.293-0.41-0.767-1.719-1.006-2.852
		c-0.234-1.113-0.649-2.305-0.889-2.656c-0.298-0.293-0.532-0.84-0.591-1.191c-0.181-0.703-1.069-3.203-1.602-4.434
		c-0.239-0.488-0.474-1.133-0.474-1.484c-0.059-0.293-0.415-1.367-0.771-2.266c-0.415-0.938-0.708-2.012-0.708-2.48
		s-0.239-1.016-0.596-1.191c-0.298-0.176-0.83-1.465-1.187-2.832c-0.352-1.367-0.825-2.91-1.006-3.379
		c-0.234-0.469-0.415-1.016-0.474-1.191c-0.415-1.133-1.064-2.91-1.66-4.141c-0.356-0.84-0.591-1.777-0.474-2.207
		c0.059-0.352-0.176-0.82-0.532-1.055c-0.298-0.176-0.591-0.723-0.591-1.191s-0.298-1.543-0.713-2.48
		c-0.356-0.898-0.713-1.895-0.771-2.266c-0.059-0.586-0.415-1.582-1.602-4.434c-0.293-0.84-0.591-1.602-0.591-1.777
		s-0.176-0.527-0.474-0.898c-0.239-0.293-0.654-1.543-0.889-2.656c-0.239-1.133-0.654-2.305-0.889-2.676
		c-0.298-0.293-0.532-0.82-0.591-1.172c-0.181-0.664-1.011-2.969-1.602-4.453c-0.181-0.469-0.298-1.191-0.239-1.602
		c0.059-0.352-0.176-0.82-0.532-1.055c-0.298-0.195-0.591-0.723-0.591-1.191s-0.298-1.543-0.713-2.5
		c-0.356-0.879-0.713-1.895-0.713-2.246c-0.059-0.293-0.352-1.133-0.767-1.777c-0.356-0.645-0.83-2.188-1.069-3.438
		c-0.234-1.191-0.649-2.188-0.889-2.188c-0.234,0-0.649-1.016-0.889-2.188c-0.176-1.25-0.713-2.793-1.123-3.438
		c-0.415-0.664-1.069-2.5-1.543-4.16c-0.415-1.602-0.947-3.203-1.187-3.555c-0.234-0.293-0.591-1.367-0.83-2.363
		c-0.234-0.957-0.947-2.793-1.538-4.16c-0.596-1.289-1.245-3.359-1.484-4.551c-0.234-1.25-0.649-2.246-0.889-2.246
		c-0.234,0-0.591-0.84-0.83-1.855c-0.176-0.996-0.708-2.656-1.182-3.672c-0.474-1.055-1.187-3.066-1.543-4.551
		c-0.415-1.484-0.889-2.91-1.123-3.262c-0.239-0.293-0.83-1.777-1.245-3.262s-1.011-2.969-1.245-3.262
		c-0.239-0.352-0.771-1.953-1.187-3.555c-0.415-1.66-1.064-3.496-1.538-4.141c-0.415-0.664-0.771-1.543-0.771-2.09
		c0-0.469-0.415-1.641-0.889-2.598c-0.532-0.957-0.771-1.836-0.596-2.012c0.181-0.176,0.356-0.176,0.479-0.059
		c0.117,0.117,1.064,1.367,2.07,2.656c1.069,1.367,1.899,2.676,1.899,2.969c0,0.234,1.064,1.836,2.368,3.555
		s2.373,3.379,2.373,3.613s1.182,2.012,2.666,3.848c1.479,1.895,2.666,3.672,2.666,4.043c0,0.293,0.234,0.586,0.591,0.586
		c0.298,0,0.947,0.957,1.484,2.07c0.532,1.133,1.362,2.324,1.836,2.734c0.474,0.352,0.83,0.996,0.83,1.426
		c0,0.41,0.415,0.879,0.889,1.113c0.474,0.176,0.889,0.664,0.889,1.016c0,0.41,1.064,2.129,2.368,3.848s2.373,3.379,2.373,3.613
		s1.182,2.012,2.666,3.848c1.479,1.895,2.666,3.555,2.666,3.73c0,0.195,1.064,1.797,2.368,3.574s2.373,3.359,2.373,3.555
		c0,0.176,1.064,1.777,2.368,3.555s2.373,3.379,2.373,3.555s0.234,0.645,0.591,1.055c1.958,2.441,4.741,6.465,4.741,6.875
		c0,0.293,0.415,0.664,0.889,0.898c0.474,0.176,0.889,0.586,0.889,0.938s1.069,2.07,2.373,3.867
		c1.304,1.777,2.368,3.359,2.368,3.613c0,0.234,1.064,1.836,2.373,3.555c1.299,1.719,2.368,3.379,2.368,3.613
		s1.187,2.012,2.666,3.848c1.479,1.895,2.666,3.672,2.666,4.023c0,0.293,0.239,0.605,0.596,0.605c0.293,0,0.947,0.938,1.479,2.07
		c0.532,1.113,1.362,2.305,1.836,2.715c0.474,0.371,0.83,1.074,0.83,1.484c0,0.469,0.239,0.84,0.591,0.84
		c0.298,0,0.952,0.938,1.484,2.07s1.362,2.305,1.836,2.715c0.474,0.371,0.83,1.074,0.83,1.484c0,0.488,0.298,0.84,0.591,0.84
		c0.356,0,0.83,0.586,1.128,1.367c0.298,0.703,1.602,2.715,2.964,4.375c1.304,1.719,2.427,3.262,2.427,3.438
		s1.069,1.777,2.373,3.555s2.368,3.379,2.368,3.555s1.069,1.777,2.373,3.555s2.368,3.379,2.368,3.613
		c0,0.176,1.182,1.953,2.666,3.848c1.484,1.973,2.666,3.75,2.666,4.043s0.42,0.645,0.889,0.879c0.479,0.176,0.898,0.605,0.898,0.957
		s0.645,1.543,1.465,2.598c0.84,1.074,1.484,2.266,1.484,2.559c0,0.352,0.41,0.762,0.898,0.996c0.469,0.176,0.879,0.605,0.879,0.957
		s1.074,2.07,2.383,3.848c1.289,1.777,2.363,3.379,2.363,3.613c0,0.176,1.191,1.953,2.656,3.848
		c1.484,1.973,2.676,3.691,2.676,3.867c0,0.117,1.074,1.719,2.363,3.496c1.309,1.777,2.383,3.496,2.383,3.848
		c0,0.293,0.234,0.586,0.586,0.586c0.293,0,0.957,0.957,1.484,2.07c0.527,1.133,1.367,2.324,1.836,2.734
		c0.469,0.352,0.82,1.074,0.82,1.484c0,0.469,0.254,0.82,0.605,0.82c0.293,0,0.938,0.957,1.484,2.07
		c0.527,1.133,1.348,2.324,1.836,2.734c0.469,0.352,0.82,1.016,0.82,1.367s0.547,0.996,1.191,1.426
		c0.645,0.41,1.191,0.996,1.191,1.348c0,0.313,1.055,2.031,2.363,3.809s2.363,3.379,2.363,3.555s1.074,1.777,2.383,3.555
		c1.289,1.777,2.363,3.379,2.363,3.613c0,0.176,1.191,1.953,2.676,3.848c1.465,1.953,2.656,3.789,2.656,4.082
		c0,0.371,0.293,0.605,0.586,0.605c0.371,0,0.84,0.469,1.016,1.055c0.234,0.547,1.016,1.836,1.777,2.852s1.367,2.129,1.367,2.48
		c0,0.43,0.293,0.723,0.586,0.723c0.352,0,0.84,0.469,1.016,1.055c0.234,0.547,1.426,2.383,2.656,4.102
		c1.25,1.719,2.266,3.262,2.266,3.496c0,0.176,1.172,1.953,2.656,3.848c1.484,1.953,2.676,3.672,2.676,3.848
		c0,0.117,0.996,1.66,2.305,3.379c1.25,1.719,2.422,3.555,2.598,4.16c0.254,0.527,0.664,0.996,1.016,0.996
		c0.293,0,0.586,0.293,0.586,0.723c0,0.352,0.664,1.523,1.484,2.598c0.84,1.074,1.484,2.188,1.484,2.539
		c0,0.371,0.234,0.664,0.586,0.664c0.313,0,0.957,0.938,1.484,2.07c0.547,1.133,1.367,2.305,1.836,2.734
		c0.488,0.352,0.84,0.996,0.84,1.348c0,0.371,0.527,1.016,1.172,1.426c0.664,0.41,1.191,1.016,1.191,1.367
		c0,0.293,1.074,2.012,2.383,3.789c1.289,1.777,2.363,3.379,2.363,3.555s1.074,1.777,2.363,3.555
		c1.309,1.777,2.383,3.379,2.383,3.613c0,0.176,1.172,1.953,2.656,3.867c1.484,1.953,2.676,3.672,2.676,3.848
		c0,0.117,1.055,1.719,2.363,3.438s2.363,3.438,2.363,3.789c0,0.41,0.313,0.703,0.605,0.703c0.352,0,0.82,0.488,0.996,1.074
		c0.234,0.527,1.016,1.836,1.777,2.852c0.781,0.996,1.367,2.188,1.367,2.656c0,0.84-22.637,23.052-23.398,23.052
		c-0.234,0-8.008,7.349-17.188,16.299c-9.18,8.945-16.953,16.294-17.188,16.294s-8.066,7.407-17.422,16.475
		c-9.297,9.009-18.496,17.72-20.273,19.316c-3.008,2.607-4.98,5.513-6.211,8.95c-0.488,1.362-0.547,6.46-0.059,7.168
		c0.117,0.298,0.469,1.426,0.703,2.49c0.176,1.006,0.645,1.895,0.957,1.895c0.293,0,0.82,0.596,1.113,1.367
		c0.293,0.708,2.188,3.789,4.16,6.875c1.953,3.018,3.555,5.625,3.555,5.747c0,0.117,0.938,1.597,2.07,3.198s2.07,3.081,2.07,3.262
		c0,0.234,1.133,2.012,2.48,4.028c2.91,4.146,3.691,5.391,4.746,7.524c0.41,0.83,1.074,1.719,1.484,1.958
		c0.41,0.234,0.781,0.767,0.781,1.064c0,0.356,0.82,1.777,1.777,3.198c0.996,1.426,1.777,2.729,1.777,2.905
		c0,0.239,0.938,1.719,2.07,3.32c1.113,1.597,2.07,3.081,2.07,3.257c0,0.181,0.938,1.66,2.07,3.262
		c1.133,1.597,2.07,3.14,2.07,3.379c0,0.293,0.84,1.538,1.777,2.783c1.016,1.304,1.777,2.725,1.777,3.14s0.234,0.771,0.547,0.771
		c0.527,0,1.23,1.064,3.125,4.741c0.43,0.83,1.074,1.719,1.484,1.953c0.43,0.239,0.781,0.771,0.781,1.069
		c0,0.356,0.82,1.777,1.777,3.198c0.996,1.421,1.777,2.725,1.777,2.905c0,0.234,0.938,1.719,2.07,3.315
		c1.133,1.602,2.07,3.086,2.07,3.262s0.957,1.602,2.07,3.198c1.133,1.543,2.09,3.081,2.09,3.379s0.82,1.602,1.777,2.847
		c0.996,1.304,1.777,2.607,1.777,2.842c0,0.298,0.938,1.777,2.07,3.262c1.113,1.479,2.07,2.9,2.07,3.198
		c0,0.239,1.133,2.134,2.539,4.209c3.633,5.508,3.926,5.923,4.688,7.583c0.41,0.83,1.074,1.719,1.484,1.958
		c0.41,0.234,0.762,0.767,0.762,1.182s0.84,1.777,1.777,3.022c1.016,1.304,1.797,2.607,1.797,2.847c0,0.298,0.938,1.777,2.07,3.257
		c1.113,1.484,2.07,2.964,2.07,3.203c0,0.293,0.938,1.836,2.07,3.438c1.133,1.538,2.07,3.081,2.07,3.374
		c0,0.298,0.84,1.602,1.777,2.847c1.016,1.304,1.777,2.725,1.777,3.14s0.293,0.771,0.605,0.771c0.352,0,0.82,0.474,0.996,1.064
		c0.234,0.537,1.016,1.841,1.777,2.847c0.781,1.006,1.367,2.134,1.367,2.49c0,0.415,0.293,0.708,0.586,0.708
		c0.371,0,0.605,0.356,0.605,0.771c0,0.356,0.82,1.777,1.777,3.022c0.996,1.304,1.777,2.607,1.777,2.842
		c0,0.298,0.938,1.782,2.07,3.262s2.07,2.964,2.07,3.198c0,0.298,0.957,1.841,2.07,3.438c1.133,1.543,2.09,3.081,2.09,3.379
		s1.23,2.134,2.656,4.028c1.484,1.958,2.676,3.794,2.676,4.033c0,0.293,0.645,1.421,1.465,2.485c0.84,1.069,1.484,2.134,1.484,2.373
		c0,0.234,1.074,1.953,2.383,3.853c1.289,1.836,2.363,3.555,2.363,3.789c0,0.239,0.957,1.719,2.07,3.32
		c1.133,1.543,2.07,3.14,2.07,3.555c0,0.356,0.313,0.654,0.605,0.654c0.352,0,0.586,0.293,0.586,0.591
		c0,0.415-27.129,0.591-80.234,0.591h-80.293L295.732,10779.198z"/>
	<path fill="#9838F4" d="M237.007,10682.309c-3.438-1.479-16.831-8.115-21.514-10.605c-1.245-0.649-3.555-2.012-5.098-3.081
		c-1.538-1.064-2.9-1.895-3.081-1.895c-0.176,0-1.719-1.069-3.496-2.373s-3.374-2.368-3.555-2.368c-0.234,0-1.245-0.654-2.31-1.484
		c-1.069-0.83-2.251-1.479-2.607-1.479s-0.947-0.532-1.304-1.187c-0.356-0.649-0.947-1.182-1.304-1.182s-2.017-1.187-3.677-2.549
		c-1.655-1.426-3.496-2.847-4.028-3.145c-3.794-2.07-30.757-28.975-31.88-31.821c-0.181-0.415-2.49-3.496-5.156-6.753
		c-2.725-3.32-4.917-6.226-4.917-6.401s-1.069-1.777-2.373-3.496s-2.368-3.32-2.368-3.555c0-0.239-0.83-1.66-1.899-3.203
		c-2.427-3.496-3.672-5.747-8.589-15.522c-2.192-4.385-4.209-8.12-4.39-8.296c-0.176-0.181-0.649-1.245-1.064-2.373
		c-0.415-1.123-1.362-3.257-2.017-4.741c-1.24-2.725-1.655-3.73-2.666-6.812c-0.356-0.952-0.83-2.314-1.064-2.964
		c-0.239-0.654-0.474-1.304-0.474-1.484c-0.059-0.176-0.239-0.532-0.415-0.889c-0.239-0.293-0.596-1.538-0.83-2.666
		c-0.239-1.123-0.713-2.427-1.006-2.783c-0.356-0.415-0.415-0.771-0.181-0.771c0.239,0,0.181-0.356-0.176-0.713
		c-0.356-0.415-0.771-1.836-1.011-3.14c-0.234-1.304-0.708-2.725-1.064-3.081c-0.298-0.415-0.356-0.771-0.117-0.771
		c0.234,0,0.176-0.352-0.181-0.771c-0.356-0.41-0.83-2.129-1.064-3.848c-0.181-1.66-0.654-3.081-0.947-3.081
		c-0.356,0-0.474-0.537-0.298-1.187c0.176-0.654,0.117-1.304-0.176-1.484c-0.239-0.117-0.654-1.953-0.83-3.97
		c-0.239-2.012-0.596-3.97-0.83-4.326c-0.239-0.293-0.474-1.362-0.537-2.368c-0.176-2.134-1.777-14.102-1.953-14.521
		c-0.059-0.176-0.059-1.953,0-3.97c0.059-2.012-0.176-3.789-0.532-4.028c-0.889-0.532-0.889-30.874,0-31.401
		c0.356-0.234,0.532-2.012,0.474-4.219c-0.059-2.07,0.059-3.965,0.234-4.199c0.239-0.176,0.415-1.719,0.474-3.379
		c0-1.66,0.298-4.316,0.596-5.977c0.356-1.602,0.708-3.75,0.771-4.746c0.059-0.957,0.234-2.07,0.474-2.363
		c0.234-0.371,0.591-2.324,0.83-4.336c0.176-2.012,0.591-3.848,0.83-3.965c0.293-0.176,0.352-0.84,0.176-1.484
		s-0.059-1.191,0.298-1.191c0.293,0,0.767-1.484,1.006-3.262c0.176-1.777,0.591-3.379,0.889-3.555
		c0.239-0.176,0.356-0.82,0.176-1.484c-0.176-0.645-0.059-1.172,0.298-1.172c0.298,0,0.771-1.016,1.006-2.188
		c0.239-1.25,0.654-2.617,1.011-2.969c0.356-0.41,0.415-0.781,0.176-0.781c-0.234,0-0.176-0.352,0.181-0.762
		c0.293-0.352,0.767-1.66,1.006-2.793c0.234-1.113,0.649-2.305,0.889-2.656c0.298-0.293,0.532-0.84,0.591-1.191
		c0.181-0.703,0.474-1.777,1.304-4.141c1.011-3.086,1.426-4.102,2.666-6.816c0.654-1.484,1.602-3.613,2.017-4.746
		s0.889-2.188,1.064-2.363c0.181-0.176,2.197-3.926,4.39-8.301c4.917-9.785,6.162-12.031,8.589-15.527
		c1.069-1.543,1.899-2.969,1.899-3.203s1.064-1.836,2.368-3.555s2.373-3.32,2.373-3.438c0-0.469,3.789-5.391,7.109-9.238
		c1.538-1.777,2.905-3.555,3.022-3.965c0.889-2.617,27.969-29.707,31.821-31.836c0.532-0.293,2.373-1.719,4.028-3.145
		c1.66-1.348,3.32-2.539,3.677-2.539s0.947-0.527,1.304-1.191c0.356-0.645,0.947-1.172,1.304-1.172s1.538-0.664,2.607-1.484
		c1.064-0.84,2.251-1.484,2.607-1.484s0.771-0.41,1.006-0.898c0.181-0.527,1.187-1.289,2.192-1.836
		c1.958-0.938,2.788-1.406,6.875-4.082c5.688-3.672,28.682-15.117,30.459-15.117c0.239,0,1.543-0.527,2.905-1.113
		c1.421-0.664,3.315-1.367,4.268-1.602c1.006-0.234,2.368-0.84,3.14-1.309c1.245-0.762,1.421-0.762,2.134,0.176
		c0.415,0.586,1.123,2.363,1.538,4.023c0.415,1.602,1.128,3.613,1.543,4.512c0.474,0.82,1.006,2.422,1.182,3.496
		c0.181,1.016,0.596,1.895,0.83,1.895c0.239,0,0.771,1.602,1.187,3.555s0.947,3.555,1.128,3.555c0.234,0,0.767,1.25,1.182,2.793
		c0.474,1.602,1.011,3.145,1.245,3.438c0.239,0.352,0.771,1.953,1.187,3.555c0.474,1.66,1.128,3.496,1.543,4.141
		c0.41,0.664,0.947,2.188,1.123,3.438c0.239,1.191,0.713,2.188,1.006,2.188c0.356,0,0.479,0.43,0.298,0.898
		c-0.234,0.469-0.117,1.016,0.117,1.191c0.298,0.117,0.713,1.172,0.889,2.246c0.181,1.074,0.889,3.027,1.543,4.258
		c0.649,1.309,1.187,2.793,1.187,3.379c0,0.547,0.234,1.133,0.532,1.309c0.234,0.176,0.649,1.074,0.83,1.953
		c0.176,0.957,0.649,2.5,1.064,3.438c0.415,1.016,0.771,1.895,0.771,2.07c0.059,0.176,0.239,0.605,0.415,0.898
		c0.239,0.352,0.591,1.543,0.83,2.656c0.234,1.133,0.591,2.383,0.83,2.676c0.176,0.352,0.356,0.703,0.415,0.879
		c0.059,0.488,0.889,2.559,1.538,4.16c0.356,0.82,0.713,1.777,0.771,2.07c0,0.352,0.356,1.367,0.771,2.246
		c0.415,0.957,0.708,2.012,0.708,2.441c0,0.41,0.181,0.938,0.415,1.172c0.239,0.254,0.479,0.781,0.479,1.133
		c0.059,0.41,0.352,1.367,0.708,2.188c0.596,1.25,1.245,2.91,1.66,4.16c0.059,0.176,0.239,0.703,0.474,1.172
		c0.181,0.488,0.654,2.031,1.006,3.379c0.356,1.367,0.889,2.676,1.187,2.852c0.356,0.176,0.596,0.703,0.596,1.191
		c0,0.469,0.293,1.543,0.708,2.48c0.356,0.898,0.591,1.953,0.532,2.363c-0.059,0.371,0.181,0.84,0.537,1.074
		c0.293,0.176,0.591,0.84,0.591,1.367c0,0.586,0.474,2.012,1.128,3.203c0.591,1.23,1.421,3.496,1.777,5.039
		c0.415,1.523,0.947,3.066,1.182,3.438c0.239,0.293,0.83,1.777,1.245,3.242c0.415,1.484,1.011,2.969,1.187,3.262
		c0.234,0.352,0.771,1.953,1.187,3.555c0.415,1.66,0.947,3.262,1.182,3.555c0.239,0.371,0.771,1.836,1.245,3.438
		c0.415,1.543,0.947,2.793,1.187,2.793c0.176,0,0.713,1.602,1.128,3.555s0.947,3.555,1.182,3.555c0.239,0,0.771,1.25,1.187,2.793
		c0.356,1.543,0.889,3.066,1.128,3.438c0.234,0.293,0.83,1.953,1.24,3.555c0.479,1.66,1.128,3.496,1.543,4.141
		s0.947,2.188,1.128,3.438c0.234,1.191,0.649,2.188,0.889,2.188c0.234,0,0.649,0.957,0.889,2.148
		c0.293,1.836,0.117,2.422-1.245,3.848c-0.889,0.938-1.899,1.719-2.192,1.719c-0.298,0-2.49,1.602-4.858,3.555
		c-2.373,1.953-4.565,3.555-4.741,3.555c-0.239,0-1.66,0.996-3.203,2.246c-1.479,1.25-3.14,2.422-3.613,2.617
		c-0.474,0.176-2.432,1.523-4.268,3.066c-1.836,1.484-3.496,2.734-3.672,2.734c-0.181,0-0.83,0.41-1.362,0.879
		c-2.373,2.09-7.822,6.23-8.237,6.23c-0.239,0-2.192,1.484-4.448,3.262c-2.192,1.777-4.204,3.262-4.385,3.262
		c-0.234,0-1.895,1.23-3.73,2.715c-1.836,1.543-3.794,2.91-4.268,3.086s-2.783,1.895-5.156,3.789
		c-2.31,1.899-4.385,3.442-4.619,3.442c-0.181,0-2.197,1.479-4.39,3.257c-2.251,1.777-4.204,3.262-4.443,3.262
		c-0.234,0-2.427,1.597-4.8,3.555c-2.368,1.953-4.502,3.555-4.741,3.555c-0.176,0-1.895,1.245-3.73,2.725
		c-1.841,1.543-3.794,2.905-4.268,3.081c-0.474,0.181-2.788,1.899-5.156,3.794c-2.31,1.895-4.385,3.438-4.624,3.438
		c-0.234,0-1.538,0.947-2.9,2.075c-1.426,1.123-2.788,2.07-3.081,2.07c-0.298,0-0.889,0.537-1.304,1.187
		c-0.415,0.654-1.011,1.187-1.367,1.187c-0.352,0-1.953,1.064-3.496,2.368c-1.538,1.304-3.14,2.373-3.433,2.373
		c-0.356,0-0.894,0.415-1.187,0.947c-0.298,0.474-1.069,1.245-1.719,1.602c-2.251,1.304-8.77,5.923-11.499,8.237
		c-1.538,1.24-3.081,2.251-3.438,2.251c-1.24,0-0.649,1.895,2.964,9.185c0.596,1.304,1.128,2.549,1.128,2.842
		c0,0.239,0.591,1.719,1.245,3.262c0.708,1.543,1.777,3.97,2.427,5.449c1.719,3.975,3.081,7.056,4.8,10.728
		c0.889,1.841,1.602,3.618,1.602,4.028c0,0.42,0.474,1.719,1.128,2.905c0.591,1.187,1.655,3.379,2.31,4.858
		c0.649,1.484,1.719,3.911,2.432,5.396c0.708,1.479,1.24,2.964,1.24,3.198c0,0.239,0.537,1.719,1.245,3.203
		c0.713,1.479,1.777,3.848,2.373,5.273c0.591,1.362,1.66,3.613,2.251,5.034c0.591,1.362,1.66,3.735,2.368,5.215
		c0.713,1.484,1.245,2.964,1.245,3.198c0,0.42,0.83,2.314,3.618,8.301c2.07,4.502,4.087,9.243,4.087,9.658
		c0,0.234,0.591,1.602,1.304,3.081s1.777,3.735,2.31,5.034c1.011,2.256,1.543,3.56,4.683,10.967
		c0.771,1.777,1.895,4.443,2.549,5.923c0.649,1.484,1.538,3.496,1.953,4.448c0.415,1.006,1.426,3.315,2.256,5.151
		c0.889,1.841,1.538,3.677,1.538,4.033s0.532,1.655,1.187,2.842c0.649,1.187,1.836,3.794,2.725,5.747
		c0.83,1.958,1.958,4.448,2.432,5.513c0.474,1.069,0.767,2.192,0.649,2.49S238.96,10683.139,237.007,10682.309z"/>
	<path fill="#9838F4" d="M409.746,10682.431c0-0.532-0.41-1.069-0.898-1.245c-0.469-0.239-0.879-0.591-0.879-0.947
		c0-0.298-0.723-1.66-1.602-3.022c-2.676-4.028-3.086-4.8-3.848-6.343c-0.43-0.83-1.074-1.719-1.484-1.953
		c-0.41-0.239-0.781-0.713-0.781-1.011c0-0.352-0.938-1.895-2.07-3.496c-1.113-1.538-2.07-3.081-2.07-3.374
		c0-0.298-0.82-1.602-1.777-2.847c-1.016-1.304-1.777-2.607-1.777-2.847c0-0.293-0.957-1.777-2.07-3.257
		c-1.133-1.479-2.07-2.964-2.07-3.198c0-0.239-1.191-2.192-2.676-4.268c-1.484-2.134-2.656-4.028-2.656-4.209
		c0-0.176-0.957-1.66-2.09-3.257c-1.113-1.543-2.07-3.081-2.07-3.262c0-0.234-0.645-1.304-1.484-2.368
		c-0.82-1.069-1.484-2.134-1.484-2.373c0-0.234-1.055-1.953-2.363-3.853c-1.309-1.836-2.363-3.555-2.363-3.789
		c0-0.239-0.957-1.719-2.07-3.32c-1.133-1.538-2.09-3.081-2.09-3.315c0-0.298-1.055-1.899-2.363-3.618s-2.363-3.379-2.363-3.672
		c0-0.298-0.781-1.543-1.777-2.847c-0.957-1.245-1.777-2.666-1.777-3.022c0-0.415-0.254-0.771-0.605-0.771
		c-0.293,0-0.586-0.293-0.586-0.708c0-0.356-0.664-1.543-1.484-2.607c-0.82-1.069-1.484-2.192-1.484-2.49
		c0-0.234-1.055-1.953-2.363-3.672s-2.383-3.379-2.383-3.677s-0.996-1.895-2.305-3.613c-1.25-1.719-2.422-3.677-2.656-4.385
		c-0.254-0.713-0.781-1.602-1.25-1.958c-2.012-1.66-1.074-3.73,4.023-8.77c2.676-2.666,5.156-4.858,5.508-4.858
		c0.371,0,1.133-0.591,1.777-1.304c1.426-1.602,45.332-43.97,47.773-46.104c0.938-0.83,9.297-8.77,18.477-17.603
		c9.258-8.887,17.07-16.172,17.363-16.172c0.254,0,2.734-2.256,5.527-5.039l4.961-4.98l-1.289-1.426
		c-0.723-0.762-1.309-1.602-1.309-1.895c0-0.234-1.074-1.895-2.363-3.613c-1.309-1.719-2.383-3.32-2.383-3.555
		c0-0.176-1.289-2.188-2.949-4.434c-1.602-2.266-2.969-4.219-2.969-4.453c0-0.176-1.191-1.836-2.676-3.73
		c-1.484-1.836-2.656-3.613-2.656-3.848s-1.074-1.836-2.383-3.555c-1.289-1.719-2.363-3.32-2.363-3.555
		c0-0.254-1.074-1.855-2.363-3.555c-1.309-1.719-2.383-3.32-2.383-3.633c0-0.234-1.289-2.129-2.949-4.199
		c-1.602-2.07-2.969-3.906-2.969-4.141c0-0.254-1.309-2.207-2.969-4.395c-1.602-2.188-2.949-4.141-2.949-4.375
		c0-0.254-1.074-1.836-2.383-3.555s-2.363-3.32-2.363-3.574c0-0.293-1.309-2.129-2.969-4.199c-1.602-2.07-2.969-3.906-2.969-4.199
		c0-0.234-1.055-1.836-2.363-3.555s-2.363-3.32-2.363-3.555c0-0.254-1.074-1.836-2.383-3.555c-1.289-1.719-2.363-3.379-2.363-3.633
		c0-0.234-1.191-2.012-2.676-3.848c-1.465-1.895-2.656-3.672-2.656-3.965s-0.176-0.645-0.469-0.762
		c-0.254-0.078-3.555-4.863-7.422-10.684c-3.848-5.742-7.344-10.781-7.813-11.133c-0.469-0.41-0.898-1.016-0.898-1.367
		s-1.055-2.012-2.363-3.73s-2.363-3.32-2.363-3.555s-1.309-2.188-2.969-4.395c-1.602-2.188-2.969-4.199-2.969-4.434
		s-0.938-1.602-2.07-3.027c-1.133-1.367-2.07-2.773-2.07-3.145c0-0.352-0.293-0.645-0.605-0.645c-0.352,0-0.762-0.469-0.996-1.016
		c-0.176-0.586-1.367-2.422-2.617-4.141c-1.289-1.719-2.305-3.262-2.305-3.496s-1.074-1.836-2.363-3.555
		c-1.309-1.719-2.383-3.379-2.383-3.613s-1.172-2.012-2.656-3.848c-1.484-1.895-2.676-3.555-2.676-3.73
		c0-0.195-1.055-1.777-2.363-3.574c-1.309-1.777-2.363-3.418-2.363-3.789c0-0.293-0.195-0.645-0.43-0.762
		c-0.293-0.059-2.539-3.262-5.088-7.109c-2.549-3.789-4.971-7.227-5.454-7.598c-0.474-0.41-0.889-0.996-0.889-1.348
		c0-0.371-1.064-2.031-2.368-3.75s-2.373-3.301-2.373-3.555c0-0.234-1.064-1.836-2.368-3.555s-2.368-3.379-2.368-3.613
		s-1.187-2.012-2.671-3.848c-3.789-4.863-3.672-5.332,1.782-5.156c2.427,0.059,4.619-0.059,4.858-0.234
		c0.474-0.527,22.388-0.527,22.876-0.059c0.234,0.234,2.539,0.352,5.215,0.293c2.598-0.059,5.098,0.117,5.449,0.41
		c0.41,0.313,4.316,0.898,8.711,1.25c4.375,0.41,8.242,0.957,8.594,1.191c0.293,0.234,2.832,0.762,5.625,1.172
		c2.793,0.43,5.332,0.957,5.625,1.25c0.352,0.234,2.441,0.781,4.688,1.191s4.805,1.113,5.625,1.543
		c0.84,0.469,2.188,0.82,3.027,0.82c0.82,0,2.188,0.352,3.086,0.84c0.879,0.469,2.48,0.996,3.555,1.23
		c1.055,0.254,2.773,0.781,3.73,1.191c0.996,0.41,2.715,1.074,3.848,1.484c2.617,0.879,5.625,2.188,8.418,3.613
		c1.191,0.645,2.48,1.133,2.852,1.133c0.82,0,17.715,8.164,18.945,9.18c0.488,0.41,2.09,1.426,3.574,2.188
		c6.094,3.379,7.52,4.277,9.531,5.879c1.191,0.938,2.363,1.719,2.676,1.719c0.234,0,1.895,1.113,3.73,2.539
		c1.836,1.367,3.613,2.617,3.965,2.793c1.25,0.527,10.898,8.477,17.422,14.395c7.168,6.465,19.727,19.551,20.039,20.859
		c0.117,0.469,0.41,0.879,0.703,0.879s1.602,1.426,2.91,3.086c6.094,8.066,7.637,10.078,10.059,13.516
		c1.426,1.953,3.027,4.375,3.555,5.273c0.547,0.898,2.148,3.613,3.633,6.035c5.625,9.375,13.613,25.371,15.449,31.055
		c0.43,1.309,1.133,2.91,1.543,3.555c0.43,0.664,0.781,1.543,0.781,2.09c0,0.469,0.352,1.523,0.762,2.363
		c0.469,0.82,1.133,2.852,1.543,4.434c0.41,1.602,0.957,3.203,1.191,3.574c0.293,0.293,0.82,2.07,1.23,3.848
		c0.43,1.777,0.957,3.555,1.191,3.848c0.234,0.352,0.781,2.48,1.191,4.746c0.41,2.305,0.938,4.434,1.172,4.727
		c0.254,0.371,0.781,2.969,1.191,5.938c0.41,2.891,0.957,5.742,1.25,6.211c0.527,1.016,1.719,11.797,1.719,15.703
		c0,1.426,0.293,2.793,0.586,2.969c0.352,0.234,0.605,7.109,0.605,18.672c0,11.553-0.254,18.423-0.605,18.662
		c-0.293,0.176-0.586,1.538-0.586,2.964c0,3.911-1.191,14.697-1.719,15.703c-0.293,0.474-0.84,3.32-1.25,6.221
		c-0.41,2.964-0.938,5.63-1.191,5.928c-0.234,0.356-0.762,2.49-1.172,4.741c-0.41,2.31-0.957,4.443-1.191,4.741
		c-0.234,0.352-0.762,2.07-1.191,3.848c-0.41,1.777-0.938,3.56-1.23,3.853c-0.234,0.356-0.781,1.958-1.191,3.56
		c-0.41,1.597-1.074,3.613-1.543,4.443c-0.41,0.83-0.762,1.895-0.762,2.368c0,0.532-0.352,1.421-0.781,2.075
		c-0.41,0.654-1.113,2.251-1.543,3.555c-1.719,5.391-10,22.046-15.449,31.055c-1.484,2.427-3.086,5.151-3.633,6.045
		c-0.527,0.889-2.129,3.315-3.555,5.273c-2.422,3.438-3.965,5.449-10.059,13.511c-1.309,1.655-2.617,3.081-2.91,3.081
		s-0.586,0.415-0.703,0.889c-0.313,1.304-12.871,14.399-20.039,20.859c-6.523,5.923-16.172,13.867-17.422,14.399
		c-0.352,0.176-2.129,1.421-3.965,2.842c-1.836,1.362-3.496,2.49-3.73,2.49c-0.313,0-1.484,0.771-2.676,1.719
		c-2.012,1.602-3.438,2.49-9.531,5.869c-1.484,0.767-3.086,1.777-3.574,2.192c-1.348,1.064-18.184,9.185-19.063,9.185
		c-0.488,0-1.367,0.415-2.031,0.889C410.859,10683.554,409.746,10683.554,409.746,10682.431z"/>
</g>
</svg>
