<?xml version="1.0" encoding="utf-8"?>
<!-- Generator: Adobe Illustrator 16.0.0, SVG Export Plug-In . SVG Version: 6.00 Build 0)  -->
<!DOCTYPE svg PUBLIC "-//W3C//DTD SVG 1.1//EN" "http://www.w3.org/Graphics/SVG/1.1/DTD/svg11.dtd">
<svg version="1.1" id="Layer_1" xmlns="http://www.w3.org/2000/svg" xmlns:xlink="http://www.w3.org/1999/xlink" x="0px" y="0px"
	 width="64px" height="64px" viewBox="0 0 64 64" enable-background="new 0 0 64 64" xml:space="preserve">
<g>
	<path fill="#FFBC04" d="M32.506,2.5c-10.33,0-18.708,7.708-18.708,17.216c0,9.509,8.377,17.216,18.708,17.216
		s18.703-7.706,18.703-17.213C51.209,10.21,42.836,2.501,32.506,2.5L32.506,2.5z M32.506,33.308
		c-8.497,0-15.384-6.339-15.384-14.156c0-7.822,6.888-14.159,15.384-14.159c8.496,0,15.382,6.336,15.382,14.159
		C47.888,26.97,41.002,33.308,32.506,33.308z"/>
	<path fill="#FFBC04" d="M55.214,55.387l-7.193-3.311l-2.526,6.412L36.1,33.547l9.721-3.099L55.214,55.387z"/>
	<path fill="#FFBC04" d="M9.577,56.14l7.194-3.311l2.527,6.412l9.392-24.939l-9.72-3.102L9.577,56.14z"/>
</g>
</svg>
