<?xml version="1.0" encoding="utf-8"?>
<!-- Generator: Adobe Illustrator 16.0.0, SVG Export Plug-In . SVG Version: 6.00 Build 0)  -->
<!DOCTYPE svg PUBLIC "-//W3C//DTD SVG 1.1//EN" "http://www.w3.org/Graphics/SVG/1.1/DTD/svg11.dtd">
<svg version="1.1" id="Layer_1" xmlns="http://www.w3.org/2000/svg" xmlns:xlink="http://www.w3.org/1999/xlink" x="0px" y="0px"
	 width="64px" height="64px" viewBox="0 0 64 64" enable-background="new 0 0 64 64" xml:space="preserve">
<g>
	<path fill="#ffbc04" d="M49.582,40.153c-5.854,0-10.572,4.719-10.572,10.573S43.729,61.3,49.582,61.3
		c5.855,0,10.574-4.719,10.574-10.573S55.377,40.153,49.582,40.153z M54.721,52.16h-3.705v3.704H48.15V52.16h-3.705v-2.867h3.705
		V45.59h2.865v3.703h3.705V52.16z M24.972,53.772H4.246v-6.749c0-1.435,0.597-2.748,1.731-3.644
		c4.719-3.883,9.737-6.75,12.364-8.124c0.299,0.657,3.047,6.929,4.779,9.616c0.06,0.12,0.238,0.061,0.238-0.059
		c0.359-1.075,1.732-4.779,3.823-4.48c0.12,0,0.239-0.18,0.12-0.238c-1.553-1.255-5.555-4.48-7.049-6.272v-4.301
		c-0.717-1.254-1.194-2.509-1.373-3.703c-0.538-0.06-1.195-0.777-1.912-3.345c-0.956-3.345-0.06-4.002,0.776-4.002
		c-0.478-2.031-1.673-8.841,3.404-11.947c0,0-1.016-0.836-0.956-2.091c0,0,5.734,0.657,8.542,0.06s5.794,1.613,6.273,3.703
		c0,0,5.674,0.06,3.463,10.095c0.896-0.06,1.854,0.598,0.896,4.002c-0.717,2.628-1.434,3.345-1.912,3.345
		c-0.178,1.194-0.656,2.509-1.373,3.703v4.301c-1.494,1.792-5.496,5.018-7.048,6.272c-0.12,0.119,0,0.238,0.119,0.238
		c2.091-0.238,3.464,3.465,3.824,4.48c0.059,0.119,0.18,0.119,0.238,0.06c1.732-2.688,4.48-8.96,4.779-9.617
		c1.434,0.776,3.523,1.911,5.854,3.464c-4.539,2.271-7.646,6.871-7.646,12.188c0,1.016,0.121,2.031,0.359,3.046L24.972,53.772z"/>
</g>
<rect x="26.833" y="30.5" fill="none" width="79.333" height="0.333"/>
</svg>
