<?xml version="1.0" encoding="utf-8"?>
<!-- Generator: Adobe Illustrator 16.0.0, SVG Export Plug-In . SVG Version: 6.00 Build 0)  -->
<!DOCTYPE svg PUBLIC "-//W3C//DTD SVG 1.1//EN" "http://www.w3.org/Graphics/SVG/1.1/DTD/svg11.dtd">
<svg version="1.1" id="Layer_1" xmlns="http://www.w3.org/2000/svg" xmlns:xlink="http://www.w3.org/1999/xlink" x="0px" y="0px"
	 width="64px" height="64px" viewBox="0 0 64 64" enable-background="new 0 0 64 64" xml:space="preserve">
<g>
	<path fill="#00AAAA" d="M32.493,31.238c-2.397-2.598-3.779-6.031-3.779-9.65V11.473c0-2.598,1.936-4.732,4.424-5.104
		c0.462,1.393,1.752,2.413,3.227,2.413c1.843,0,3.41-1.577,3.41-3.434c0-1.855-1.567-3.433-3.41-3.433
		c-1.567,0-2.858,1.113-3.227,2.505c-3.502,0.372-6.176,3.341-6.176,6.96v10.115c0,4.269,1.66,8.258,4.518,11.228
		C31.663,32.259,32.032,31.702,32.493,31.238L32.493,31.238z"/>
	<path fill="#00AAAA" d="M51.204,4.513c-0.367-1.485-1.751-2.506-3.317-2.506c-1.844,0-3.411,1.578-3.411,3.434
		c0,1.856,1.567,3.434,3.411,3.434c1.566,0,2.857-1.021,3.226-2.413c2.489,0.371,4.425,2.505,4.425,5.011v10.579
		c0,3.434-1.29,6.774-3.596,9.28c0.462,0.464,0.83,0.927,1.106,1.577c2.766-2.876,4.425-6.681,4.425-10.764V11.473
		C57.381,7.947,54.615,4.978,51.204,4.513L51.204,4.513z"/>
	<path fill="#00AAAA" d="M46.965,32.167c-2.949,1.485-6.545,1.577-9.587,0c-2.213-1.114-4.609,0.463-4.609,2.876
		c0,1.207,0.645,2.228,1.658,2.784c1.384,0.742,2.858,1.205,4.425,1.577v9.743c0,1.855,1.477,3.341,3.319,3.341
		c1.844,0,3.318-1.485,3.318-3.341v-9.836c1.476-0.279,2.95-0.836,4.333-1.484c1.291-0.65,1.936-2.135,1.659-3.527
		C51.021,32.259,48.9,31.238,46.965,32.167L46.965,32.167z"/>
	<path fill="#00AAAA" d="M41.065,54.159c-0.461,3.712-2.121,5.381-5.07,5.381H24.473c-4.056,0-7.467-3.062-7.927-6.959h-1.844
		c0.553,4.918,4.701,8.815,9.864,8.815h11.522c5.254,0,6.637-4.083,7.007-7.238c-0.277,0-0.554,0.093-0.83,0.093
		C41.803,54.252,41.435,54.159,41.065,54.159L41.065,54.159z"/>
	<path fill="#00AAAA" d="M19.496,49.797v-4.083c2.765-1.485,4.701-4.455,4.701-7.795c0-4.824-3.964-8.815-8.758-8.815
		c-4.792,0-8.756,3.897-8.756,8.723c0,3.434,1.936,6.31,4.701,7.795v4.176c0,0.464,0.46,0.928,0.922,0.928h6.268
		C19.126,50.725,19.496,50.261,19.496,49.797L19.496,49.797z M15.439,42.188c-2.396,0-4.332-1.948-4.332-4.361
		c0-2.412,1.935-4.361,4.332-4.361c2.397,0,4.333,1.948,4.333,4.361C19.772,40.238,17.836,42.188,15.439,42.188z"/>
</g>
</svg>
