<?xml version="1.0" encoding="utf-8"?>
<!-- Generator: Adobe Illustrator 16.0.0, SVG Export Plug-In . SVG Version: 6.00 Build 0)  -->
<!DOCTYPE svg PUBLIC "-//W3C//DTD SVG 1.1//EN" "http://www.w3.org/Graphics/SVG/1.1/DTD/svg11.dtd">
<svg version="1.1" id="Layer_1" xmlns="http://www.w3.org/2000/svg" xmlns:xlink="http://www.w3.org/1999/xlink" x="0px" y="0px"
	 width="64px" height="64px" viewBox="0 0 64 64" enable-background="new 0 0 64 64" xml:space="preserve">
<g>
	<path fill="#8F00FF" d="M54.555,12.5H9.447c-0.847,0-1.66,0.375-2.26,1.043c-0.6,0.667-0.937,1.572-0.937,2.515V48.19
		c0,0.945,0.338,1.85,0.938,2.518c0.6,0.667,1.415,1.042,2.262,1.042h45.105c0.849,0,1.66-0.376,2.261-1.044
		c0.599-0.667,0.935-1.571,0.935-2.516V16.059c0-0.943-0.336-1.848-0.935-2.515C56.215,12.875,55.403,12.5,54.555,12.5L54.555,12.5z
		 M49.489,18.083c0.256-0.286,0.603-0.447,0.966-0.446h2.89c0.746,0.017,1.34,0.693,1.34,1.523c0,0.828-0.594,1.505-1.34,1.522
		h-2.89c-0.553-0.001-1.054-0.372-1.265-0.94S49.098,18.518,49.489,18.083L49.489,18.083z M49.489,23.282
		c0.256-0.287,0.603-0.447,0.966-0.447h2.89c0.757,0,1.368,0.682,1.368,1.523c0,0.841-0.611,1.522-1.368,1.522h-2.89
		c-0.553,0-1.054-0.371-1.265-0.94S49.098,23.717,49.489,23.282L49.489,23.282z M49.489,28.479L49.489,28.479
		c0.256-0.286,0.603-0.447,0.966-0.446h2.89c0.757,0,1.368,0.683,1.368,1.523s-0.611,1.523-1.368,1.523h-2.89
		c-0.555,0-1.054-0.372-1.265-0.941C48.979,29.569,49.098,28.916,49.489,28.479L49.489,28.479z M46.283,43.054
		c0,0.944-0.339,1.85-0.939,2.519c-0.598,0.667-1.413,1.042-2.26,1.042H14.357c-0.848,0-1.662-0.376-2.26-1.042
		c-0.601-0.669-0.937-1.574-0.937-2.519v-8.55h8.033c0.292,0,0.564-0.161,0.729-0.431l2.743-4.522l3.812,10.48
		c0.135,0.368,0.456,0.61,0.814,0.609h0.028c0.369-0.014,0.69-0.281,0.806-0.671l3.518-11.839l2.896,9.977
		c0.113,0.389,0.433,0.659,0.799,0.676c0.368,0.018,0.706-0.223,0.847-0.6l1.605-4.277h8.493V43.054z M46.283,31.952h-9.075
		c-0.354,0-0.672,0.237-0.811,0.599l-0.912,2.439L32.49,24.686c-0.116-0.403-0.453-0.676-0.832-0.677
		c-0.379,0-0.716,0.27-0.834,0.67l-3.614,12.152l-3.537-9.714h0.001c-0.121-0.335-0.399-0.567-0.722-0.606
		c-0.322-0.037-0.638,0.126-0.82,0.426l-3.404,5.611h-7.568V21.196c0-0.944,0.337-1.849,0.937-2.517
		c0.6-0.667,1.414-1.042,2.262-1.042h28.727c0.847,0,1.662,0.375,2.26,1.042c0.601,0.667,0.938,1.573,0.938,2.517L46.283,31.952z
		 M51.9,46.557v-0.002c-0.896,0-1.758-0.396-2.39-1.1c-0.634-0.706-0.99-1.663-0.99-2.661c0-0.997,0.356-1.954,0.99-2.659
		c0.632-0.706,1.493-1.103,2.39-1.103s1.756,0.396,2.391,1.103c0.634,0.705,0.989,1.662,0.989,2.659
		c0,0.998-0.357,1.953-0.989,2.659c-0.635,0.705-1.494,1.102-2.391,1.102V46.557z"/>
	<path fill="#8F00FF" d="M51.9,40.29c-0.597,0-1.168,0.263-1.589,0.732c-0.422,0.469-0.657,1.104-0.657,1.767s0.235,1.3,0.657,1.769
		c0.421,0.47,0.992,0.733,1.587,0.733c0.596,0.001,1.168-0.262,1.588-0.731c0.424-0.468,0.661-1.104,0.661-1.767
		s-0.237-1.301-0.657-1.77C53.069,40.554,52.496,40.291,51.9,40.29L51.9,40.29z"/>
</g>
</svg>
