<?xml version="1.0" encoding="utf-8"?>
<!-- Generator: Adobe Illustrator 16.0.0, SVG Export Plug-In . SVG Version: 6.00 Build 0)  -->
<!DOCTYPE svg PUBLIC "-//W3C//DTD SVG 1.1//EN" "http://www.w3.org/Graphics/SVG/1.1/DTD/svg11.dtd">
<svg version="1.1" id="Layer_1" xmlns="http://www.w3.org/2000/svg" xmlns:xlink="http://www.w3.org/1999/xlink" x="0px" y="0px"
	 width="64px" height="64px" viewBox="0 0 64 64" enable-background="new 0 0 64 64" xml:space="preserve">
<g>
	<path fill="#2064D4" d="M56.994,31.043l-5.746-4.301c-0.422-0.307-1.002,0-1.002,0.461v2.304h-6.327
		c-0.316,0-0.58,0.256-0.58,0.563v2.816c0,0.307,0.264,0.563,0.58,0.563h6.327v2.304c0,0.512,0.58,0.768,1.002,0.461l5.746-4.301
		C57.258,31.709,57.258,31.3,56.994,31.043z"/>
	<path fill="#2064D4" d="M21.037,32.938v-2.815c0-0.308-0.264-0.563-0.58-0.563H14.13v-2.304c0-0.512-0.58-0.768-1.002-0.461
		l-5.799,4.25c-0.316,0.256-0.316,0.717,0,0.921l5.747,4.301c0.422,0.307,1.001,0,1.001-0.461v-2.304h6.327
		C20.721,33.501,21.037,33.245,21.037,32.938L21.037,32.938z"/>
	<path fill="#2064D4" d="M41.071,24.848c0.211,0.256,0.634,0.256,0.845,0l4.481-4.352l1.688,1.639
		c0.368,0.358,0.949,0.153,1.054-0.358l0.896-6.963c0.053-0.359-0.264-0.717-0.686-0.666l-7.17,0.871
		c-0.475,0.051-0.686,0.666-0.37,1.024l1.688,1.639l-4.481,4.352c-0.211,0.256-0.211,0.614,0,0.819L41.071,24.848z"/>
	<path fill="#2064D4" d="M23.251,38.16c-0.21-0.205-0.632-0.205-0.844,0l-4.481,4.352l-1.688-1.639
		c-0.37-0.357-0.949-0.153-1.054,0.359l-0.896,6.963c-0.052,0.358,0.264,0.717,0.686,0.666l7.17-0.871
		c0.475-0.051,0.686-0.665,0.369-1.023l-1.687-1.639l4.481-4.352c0.21-0.205,0.21-0.615,0-0.82L23.251,38.16z"/>
	<path fill="#2064D4" d="M32.637,7.389c-0.264-0.307-0.738-0.307-0.949,0l-4.429,5.581c-0.316,0.41,0,0.973,0.474,0.973h2.373v6.144
		c0,0.307,0.264,0.563,0.58,0.563h2.9c0.315,0,0.579-0.256,0.579-0.563v-6.144h2.373c0.527,0,0.79-0.563,0.475-0.973L32.637,7.389z"
		/>
	<path fill="#2064D4" d="M36.591,49.066h-2.373v-6.145c0-0.307-0.264-0.563-0.58-0.563h-2.899c-0.316,0-0.58,0.256-0.58,0.563v6.145
		h-2.373c-0.527,0-0.791,0.563-0.475,0.973l4.429,5.58c0.264,0.308,0.738,0.308,0.949,0l4.429-5.58
		C37.381,49.629,37.117,49.066,36.591,49.066L36.591,49.066z"/>
	<path fill="#2064D4" d="M16.239,22.135l1.688-1.639l4.481,4.352c0.211,0.205,0.633,0.205,0.844,0l2.056-1.997
		c0.211-0.256,0.211-0.614,0-0.819l-4.481-4.352l1.687-1.639c0.369-0.359,0.158-0.921-0.369-1.024l-7.171-0.871
		c-0.369-0.051-0.738,0.256-0.685,0.666l0.896,6.963C15.238,22.237,15.87,22.442,16.239,22.135L16.239,22.135z"/>
	<path fill="#2064D4" d="M48.085,40.874l-1.688,1.638l-4.481-4.352c-0.211-0.205-0.634-0.205-0.845,0l-2.056,1.997
		c-0.263,0.204-0.263,0.614,0,0.819l4.481,4.352l-1.688,1.639c-0.369,0.359-0.158,0.922,0.37,1.024l7.17,0.87
		c0.369,0.051,0.738-0.256,0.686-0.666l-0.896-6.963C49.086,40.771,48.452,40.566,48.085,40.874L48.085,40.874z"/>
	<path fill="#2064D4" d="M37.117,31.504c0,2.658-2.218,4.813-4.956,4.813c-2.737,0-4.956-2.155-4.956-4.813
		c0-2.658,2.219-4.813,4.956-4.813C34.899,26.691,37.117,28.846,37.117,31.504"/>
</g>
</svg>
