<?xml version="1.0" encoding="utf-8"?>
<!-- Generator: Adobe Illustrator 16.0.0, SVG Export Plug-In . SVG Version: 6.00 Build 0)  -->
<!DOCTYPE svg PUBLIC "-//W3C//DTD SVG 1.1//EN" "http://www.w3.org/Graphics/SVG/1.1/DTD/svg11.dtd">
<svg version="1.1" id="Layer_1" xmlns="http://www.w3.org/2000/svg" xmlns:xlink="http://www.w3.org/1999/xlink" x="0px" y="0px"
	 width="64px" height="64px" viewBox="0 0 64 64" enable-background="new 0 0 64 64" xml:space="preserve">
<g>
	<path fill="#08A494" d="M23.139,21.991h5.008c0.48,0,0.853,0.378,0.853,0.865v18.583c0,0.486-0.373,0.864-0.853,0.864h-5.008
		c-0.479,0-0.852-0.378-0.852-0.864V22.856C22.288,22.37,22.66,21.991,23.139,21.991z M13.178,42.303h5.007
		c0.479,0,0.853-0.378,0.853-0.864l0-18.583c0-0.486-0.373-0.865-0.853-0.865h-5.007c-0.479,0-0.853,0.379-0.853,0.865v18.583
		C12.325,41.925,12.698,42.303,13.178,42.303z M33.154,42.303h5.009c0.479,0,0.852-0.378,0.852-0.864V22.855
		c0-0.486-0.373-0.865-0.853-0.865h-5.009c-0.479,0-0.851,0.379-0.851,0.865v18.583C32.302,41.925,32.675,42.303,33.154,42.303z
		 M57.287,21.991h-1.651v-3.349c0-1.836-1.492-3.349-3.302-3.349H8.97c-1.812,0-3.303,1.513-3.303,3.349v27.01
		c0,1.836,1.492,3.349,3.303,3.349h43.256c1.813,0,3.304-1.513,3.304-3.349v-3.35h1.651c0.906,0,1.652-0.757,1.652-1.675V23.72
		C58.939,22.802,58.193,21.991,57.287,21.991L57.287,21.991z M52.278,43.977c0,0.92-0.745,1.676-1.649,1.676H10.674
		c-0.906,0-1.652-0.756-1.652-1.676v-23.66c0-0.918,0.746-1.674,1.652-1.674h39.955c0.904,0,1.649,0.756,1.649,1.674V43.977z"/>
</g>
</svg>
