<?xml version="1.0" encoding="utf-8"?>
<!-- Generator: Adobe Illustrator 16.0.0, SVG Export Plug-In . SVG Version: 6.00 Build 0)  -->
<!DOCTYPE svg PUBLIC "-//W3C//DTD SVG 1.1//EN" "http://www.w3.org/Graphics/SVG/1.1/DTD/svg11.dtd">
<svg version="1.1" id="Layer_1" xmlns="http://www.w3.org/2000/svg" xmlns:xlink="http://www.w3.org/1999/xlink" x="0px" y="0px"
	 width="64px" height="64px" viewBox="0 0 64 64" enable-background="new 0 0 64 64" xml:space="preserve">
<g>
	<path fill="#109C5C" d="M41.433,28.367c3.562,0,6.484-2.909,6.484-6.452c-0.053-3.543-2.923-6.398-6.484-6.398
		c-3.563,0-6.487,2.909-6.487,6.452v2.961h-6.059v-2.961c0-3.543-2.923-6.452-6.485-6.452c-3.562,0-6.432,2.855-6.432,6.399
		s2.924,6.452,6.486,6.452h2.977v6.028h-2.977c-3.562,0-6.486,2.909-6.486,6.452c0,3.542,2.871,6.397,6.433,6.397
		s6.486-2.907,6.486-6.451v-2.961h6.06v2.961c0,3.544,2.923,6.451,6.485,6.451c3.562,0,6.432-2.855,6.432-6.398
		c0-3.542-2.924-6.451-6.486-6.451h-2.977v-6.029H41.433z M38.401,21.915c0-1.639,1.33-2.961,2.977-2.961
		c1.648,0,2.978,1.322,2.978,2.961s-1.329,2.961-2.978,2.961h-2.977V21.915z M25.431,40.848c0,1.639-1.329,2.961-2.977,2.961
		c-1.647,0-2.977-1.322-2.977-2.961c0-1.64,1.329-2.963,2.977-2.963h2.977V40.848z M25.431,24.93h-2.977
		c-1.647,0-2.977-1.322-2.977-2.961s1.329-2.961,2.977-2.961c1.648,0,2.977,1.322,2.977,2.961V24.93z M34.945,34.396h-6.059v-6.029
		h6.059V34.396z M41.432,37.833c1.647,0,2.977,1.322,2.977,2.961c0,1.64-1.329,2.962-2.977,2.962c-1.646,0-2.978-1.322-2.978-2.962
		v-2.961H41.432z"/>
	<path fill="#109C5C" d="M48.875,6.262H14.959c-4.571,0-8.292,3.701-8.292,8.25V48.25c0,4.548,3.721,8.25,8.292,8.25h33.916
		c4.571,0,8.292-3.702,8.292-8.25V14.511C57.167,9.963,53.446,6.261,48.875,6.262L48.875,6.262z M53.712,48.25
		c0,2.644-2.181,4.813-4.837,4.813H14.959c-2.657,0-4.837-2.169-4.837-4.813V14.511c0-2.645,2.18-4.813,4.837-4.813h33.916
		c2.656,0,4.837,2.168,4.837,4.813V48.25z"/>
</g>
</svg>
