<?xml version="1.0" encoding="utf-8"?>
<!-- Generator: Adobe Illustrator 16.0.0, SVG Export Plug-In . SVG Version: 6.00 Build 0)  -->
<!DOCTYPE svg PUBLIC "-//W3C//DTD SVG 1.1//EN" "http://www.w3.org/Graphics/SVG/1.1/DTD/svg11.dtd">
<svg version="1.1" id="Layer_1" xmlns="http://www.w3.org/2000/svg" xmlns:xlink="http://www.w3.org/1999/xlink" x="0px" y="0px"
	 width="64px" height="64px" viewBox="0 0 64 64" enable-background="new 0 0 64 64" xml:space="preserve">
<g>
	<path fill="#FFBC04" d="M32.342,7.349c8.75,0,15.884,7.194,15.823,15.863c0.034,8.402-10.689,20.986-15.823,27.44
		c-5.035-6.328-15.826-19.111-15.826-27.342C16.516,14.545,23.413,7.35,32.342,7.349L32.342,7.349z M32.342,22.903
		c-0.868,0-1.571,0.708-1.571,1.583s0.704,1.584,1.571,1.584s1.57-0.709,1.57-1.584C33.912,23.611,33.209,22.903,32.342,22.903z
		 M29.728,20.876c0.722-0.728,1.667-1.091,2.614-1.091c0.945,0,1.891,0.364,2.612,1.091c0.263,0.266,0.691,0.266,0.953,0
		c0.265-0.265,0.265-0.696,0-0.962c-0.983-0.993-2.275-1.49-3.565-1.49c-1.292,0-2.583,0.497-3.567,1.49
		c-0.263,0.266-0.263,0.697,0,0.962C29.038,21.143,29.465,21.143,29.728,20.876z M26.806,17.93c1.528-1.542,3.532-2.313,5.536-2.313
		c2.003,0,4.007,0.771,5.535,2.313c0.262,0.265,0.69,0.265,0.953,0s0.263-0.697,0-0.962c-1.791-1.807-4.141-2.711-6.488-2.711
		c-2.348,0-4.697,0.904-6.489,2.711c-0.263,0.265-0.263,0.697,0,0.962C26.115,18.195,26.542,18.195,26.806,17.93z M23.883,14.982
		c2.335-2.355,5.397-3.533,8.458-3.533c3.061,0,6.122,1.178,8.458,3.533c0.262,0.266,0.688,0.266,0.953,0
		c0.263-0.265,0.263-0.696,0-0.962c-2.601-2.622-6.006-3.932-9.411-3.932c-3.406,0-6.813,1.311-9.411,3.932
		c-0.263,0.265-0.263,0.696,0,0.962S23.621,15.248,23.883,14.982L23.883,14.982z M39.487,43.775
		c-2.224,2.946-4.415,5.618-6.094,7.729l-1.053,1.322l-1.053-1.322c-1.641-2.063-3.807-4.708-6.015-7.636
		C19.576,45.027,12.88,46.9,12.88,49.97c0,3.515,8.957,6.364,20.005,6.364s20.005-2.85,20.005-6.364
		C52.891,46.709,45.643,44.866,39.487,43.775L39.487,43.775z M21.952,20.132c-0.118,0.444-0.208,0.907-0.27,1.386
		c-0.062,0.475-0.093,0.947-0.093,1.414c0,2.995,1.204,5.706,3.149,7.669c1.946,1.963,4.635,3.178,7.604,3.178
		s5.659-1.214,7.604-3.178c1.944-1.963,3.148-4.674,3.148-7.669c0-0.467-0.032-0.939-0.092-1.414
		c-0.063-0.476-0.154-0.938-0.271-1.384c-0.096-0.362-0.463-0.579-0.823-0.483c-0.358,0.096-0.573,0.467-0.479,0.83
		c0.105,0.399,0.186,0.804,0.24,1.213c0.05,0.392,0.076,0.806,0.076,1.238c0,2.619-1.052,4.991-2.755,6.707
		c-1.7,1.716-4.052,2.778-6.648,2.778c-2.598,0-4.949-1.062-6.65-2.778c-1.702-1.716-2.754-4.088-2.754-6.707
		c0-0.432,0.026-0.846,0.077-1.239c0.053-0.406,0.133-0.81,0.239-1.21c0.096-0.363-0.118-0.735-0.477-0.832
		C22.417,19.555,22.047,19.769,21.952,20.132L21.952,20.132z"/>
</g>
</svg>
