<?xml version="1.0" encoding="utf-8"?>
<!-- Generator: Adobe Illustrator 16.0.0, SVG Export Plug-In . SVG Version: 6.00 Build 0)  -->
<!DOCTYPE svg PUBLIC "-//W3C//DTD SVG 1.1//EN" "http://www.w3.org/Graphics/SVG/1.1/DTD/svg11.dtd">
<svg version="1.1" id="Layer_1" xmlns="http://www.w3.org/2000/svg" xmlns:xlink="http://www.w3.org/1999/xlink" x="0px" y="0px"
	 width="64px" height="64px" viewBox="0 0 64 64" enable-background="new 0 0 64 64" xml:space="preserve">
<g>
	<path fill="#9838F4" d="M56.102,13.11c0-0.493-0.403-0.898-0.92-1.029c-0.342-0.121-0.718-0.143-1.072,0.021l-14.354,6.339
		l-14.354-6.339c-0.045-0.021-0.093-0.023-0.14-0.038c-0.17-0.099-0.383-0.166-0.623-0.166c-0.214,0-0.402,0.059-0.565,0.138
		c-0.08,0.019-0.159,0.028-0.237,0.065L8.854,18.715c-0.051,0.022-0.076,0.066-0.126,0.087c-0.076,0.044-0.151,0.087-0.215,0.153
		C8.45,19,8.424,19.065,8.374,19.12c-0.038,0.066-0.089,0.121-0.113,0.187c-0.038,0.077-0.038,0.153-0.051,0.23
		c-0.013,0.044-0.038,0.098-0.038,0.153v31.747c0,0.012,0.014,0.032,0.014,0.045c0,0.076,0.024,0.143,0.05,0.218
		c0.012,0.066,0.025,0.142,0.063,0.208c0.013,0.012,0.013,0.033,0.025,0.044c0.051,0.098,0.126,0.175,0.214,0.25
		c0.013,0.013,0.025,0.013,0.025,0.023c0.101,0.076,0.215,0.143,0.328,0.186c0.038,0.023,0.076,0.033,0.101,0.044
		c0.139,0.044,0.29,0.076,0.442,0.076c0.151,0,0.29-0.032,0.428-0.076c0.038-0.011,0.063-0.023,0.101-0.032
		c0.013-0.012,0.038-0.012,0.063-0.022l14.089-6.546l0.479-0.25l0.53,0.25l13.723,6.371c0.087,0.076,0.201,0.143,0.315,0.186
		c0.037,0.023,0.076,0.033,0.1,0.044c0.139,0.044,0.29,0.076,0.442,0.076c0.013,0,0.039-0.012,0.051-0.012s0.039,0.012,0.051,0.012
		c0.314,0,0.618-0.109,0.857-0.306l13.772-6.393l0.974-0.481l0.378-0.186c0.253-0.176,0.416-0.45,0.416-0.767v-0.023L56.102,13.11z
		 M32.137,17.522l1.261,0.558v18.381l-1.261-0.438V17.522z M23.308,43.752l-12.613,5.857v-5.146l12.625-6.294L23.308,43.752z
		 M23.333,36.899l-12.638,6.294v-2.43l12.638-6.338V36.899z M23.346,33.166l-12.651,6.328V20.358l12.613-5.572l0.05,13.968
		L23.346,33.166z M25.932,14.786l4.944,2.189v18.61l-4.982-1.74L25.881,28.7L25.932,14.786z M30.876,46.04l-4.944-2.288
		l-0.025-5.265l4.97,1.598L30.876,46.04z M38.442,49.554l-3.783-1.752V41.3l3.783,1.215V49.554z M38.442,41.344l-4.048-1.291
		c-0.101-0.067-0.228-0.111-0.366-0.111c-0.353,0-0.631,0.241-0.631,0.547v6.723l-1.261-0.58V39.46l-1.854-0.722l-4.376-1.412
		l-0.013-2.299l12.549,4.379V41.344z M38.442,38.225l-3.783-1.314v-6.481l3.783,1.258V38.225z M38.442,30.517l-3.783-1.259v-2.967
		l3.783,1.5V30.517z M38.442,26.586l-3.783-1.5v-6.448l3.783,1.675V26.586z M40.967,20.358l3.783-1.675v6.415l-3.783,1.675V20.358z
		 M40.967,27.999l4.691-2.08c0.277-0.11,0.393-0.372,0.315-0.613c0.013-0.054,0.038-0.098,0.038-0.142v-7.028l2.522-1.117v9.983
		l-7.567,3.054V27.999z M40.967,31.261l8.463-3.416c0.025-0.011,0.051-0.033,0.076-0.044c0.037-0.022,0.076-0.044,0.114-0.077
		c0.024-0.022,0.035-0.055,0.063-0.077c0.025-0.033,0.05-0.066,0.063-0.099c0.026-0.033,0.026-0.077,0.026-0.11
		c0.013-0.033,0.024-0.055,0.024-0.087V16.46l3.784-1.675l0.063,17.263l-12.676,5.496v-6.283H40.967z M40.967,38.771l12.675-5.497
		l0.014,2.048l-12.688,5.506V38.771z M40.967,49.608v-7.553l12.688-5.507l0.025,7.158L40.967,49.608z"/>
</g>
</svg>
