<?xml version="1.0" encoding="utf-8"?>
<!-- Generator: Adobe Illustrator 16.0.0, SVG Export Plug-In . SVG Version: 6.00 Build 0)  -->
<!DOCTYPE svg PUBLIC "-//W3C//DTD SVG 1.1//EN" "http://www.w3.org/Graphics/SVG/1.1/DTD/svg11.dtd">
<svg version="1.1" id="Layer_1" xmlns="http://www.w3.org/2000/svg" xmlns:xlink="http://www.w3.org/1999/xlink" x="0px" y="0px"
	 width="64px" height="64px" viewBox="0 0 64 64" enable-background="new 0 0 64 64" xml:space="preserve">
<g>
	<path fill="#9838F4" d="M34.53,42.774H20.234l7.168-9.864L34.53,42.774z M25.985,17.124c3.2-0.069,5.75,2.397,5.831,4.863
		c0.081,2.774-2.753,4.932-5.831,4.932c-2.997,0-5.751-2.089-5.71-4.932C20.315,19.35,22.867,17.192,25.985,17.124z M44.855,35.205
		H34.448V26.37h10.407V35.205z M15.739,51.335h1.985c2.065,0,2.065,0,2.065-1.713c0-1.711,0-1.711-2.065-1.711h-1.985
		c-2.551,0-4.049-1.268-4.049-3.426v-1.678c0-1.746,0-1.746-2.024-1.746c-2.025,0-2.025,0-2.025,1.746v1.678
		C7.64,49.04,10.353,51.335,15.739,51.335z M45.624,51.335h2.513c5.386,0,8.098-2.295,8.098-6.85v-1.678
		c0-1.746,0-1.746-2.023-1.746c-2.025,0-2.025,0-2.025,1.746v1.678c0,2.158-1.498,3.426-4.049,3.426H46.15
		c-2.064,0-2.064,0-2.064,1.711C44.086,51.335,44.086,51.335,45.624,51.335z M9.665,20.514c2.024,0,2.024,0,2.024-1.747v-1.678
		c0-2.157,1.499-3.424,4.049-3.424h1.985c2.065,0,2.065,0,2.065-1.712c0-1.712,0-1.712-2.065-1.712h-1.985
		c-5.386,0-8.099,2.295-8.099,6.849v1.678C7.64,20.514,7.64,20.514,9.665,20.514z M54.211,20.514c2.023,0,2.023,0,2.023-1.747
		v-1.678c0-4.554-2.712-6.849-8.098-6.849H46.15c-2.064,0-2.064,0-2.064,1.712c0,1.712,0,1.712,2.064,1.712h1.986
		c2.551,0,4.049,1.267,4.049,3.424v1.678C52.186,20.514,52.186,20.514,54.211,20.514z"/>
</g>
</svg>
