<?xml version="1.0" encoding="utf-8"?>
<!-- Generator: Adobe Illustrator 16.0.0, SVG Export Plug-In . SVG Version: 6.00 Build 0)  -->
<!DOCTYPE svg PUBLIC "-//W3C//DTD SVG 1.1//EN" "http://www.w3.org/Graphics/SVG/1.1/DTD/svg11.dtd">
<svg version="1.1" id="Layer_1" xmlns="http://www.w3.org/2000/svg" xmlns:xlink="http://www.w3.org/1999/xlink" x="0px" y="0px"
	 width="64px" height="64px" viewBox="0 0 64 64" enable-background="new 0 0 64 64" xml:space="preserve">
<g transform="translate(0.000000,1080.000000) scale(0.100000,-0.100000)">
	<path fill="#F0145C" d="M301.147,10766.132c-8.091-1.133-18.452-4.224-26.411-7.871c-6.147-2.842-15.708-8.701-15.708-9.648
		c0-0.376,2.739-3.213,6.016-6.304c3.35-3.091,6.016-5.928,6.016-6.304s-3.135-3.589-7.012-7.246l-7.026-6.621l-6.548,6.177
		c-3.55,3.34-6.699,6.113-6.958,6.113c-0.737,0-8.691-12.036-10.894-16.577c-2.339-4.727-5.024-12.041-6.294-16.826
		c-1.128-4.478-1.938-9.395-1.538-9.771c0.205-0.195,4.688-0.317,9.966-0.317h9.629l-0.205-9.585l-0.195-9.644l-9.629-0.186
		l-9.629-0.186l0.474-3.472c0.864-7.251,4.209-16.89,8.96-25.781c2.402-4.541,8.618-13.55,9.424-13.55
		c0.273,0,3.14,2.583,6.411,5.669c3.286,3.154,6.484,5.679,7.026,5.679c1.133,0,14.038-11.914,14.038-12.925
		c0-0.376-2.666-3.213-6.016-6.304c-3.276-3.091-6.016-5.928-6.016-6.304c0-1.011,11.631-8.066,17.383-10.586
		c6.284-2.71,14.175-5.176,20.854-6.431c7.9-1.455,7.222-2.271,7.222,8.188v9.146h10.371h10.356v-9.146
		c0-10.459-0.659-9.644,7.227-8.188c6.816,1.318,14.707,3.779,20.859,6.494c5.957,2.578,17.383,9.512,17.383,10.522
		c0,0.376-2.676,3.213-6.016,6.304c-3.281,3.091-6.016,5.928-6.016,6.304c0,1.011,12.969,12.925,14.043,12.925
		c0.605,0,3.73-2.524,7.012-5.679c3.262-3.086,6.211-5.669,6.484-5.669c0.879,0,7.305,9.707,10.234,15.376
		c4.277,8.32,7.285,17.212,8.086,24.019l0.488,3.408l-9.648,0.186l-9.629,0.186l-0.195,9.644l-0.195,9.585h9.629
		c5.254,0,9.746,0.122,9.941,0.317c0.742,0.752-1.328,9.893-3.926,17.329c-3.008,8.447-7.695,16.899-14.375,25.527
		c-0.293,0.381-3.34-2.075-7.227-5.669l-6.68-6.304l-7.031,6.621c-3.867,3.657-7.012,6.87-7.012,7.246s2.734,3.213,6.016,6.304
		c3.34,3.091,6.016,5.928,6.016,6.304c0,0.947-9.551,6.807-15.723,9.648c-8.535,3.901-20.117,7.305-26.719,7.808l-2.695,0.195
		l-0.195-28.813l-0.137-28.804l3.672-1.704c9.961-4.595,16.387-14.746,16.387-25.713c0-5.674-1.133-9.893-3.809-14.185
		c-12.051-19.351-41.182-19.351-53.223,0c-2.671,4.351-3.813,8.511-3.813,14.438c0,10.84,6.421,20.864,16.382,25.459l3.677,1.704
		l-0.127,28.745c-0.137,18.53-0.469,28.809-0.874,28.872C303.149,10766.327,302.085,10766.264,301.147,10766.132z"/>
	<path fill="#F0145C" d="M310.503,10689.486c-9.087-4.541-5.947-17.08,4.355-17.08c10.22,0,13.442,12.539,4.341,17.08
		c-1.602,0.82-3.54,1.45-4.341,1.45S312.119,10690.307,310.503,10689.486z"/>
	<path fill="#F0145C" d="M305.293,10519.042l0.2-57.236h9.365h9.355l0.205,57.236l0.137,57.173h-9.697h-9.692L305.293,10519.042z"/>
	<path fill="#F0145C" d="M482.676,10564.936c-13.574-2.905-24.414-8.262-33.711-16.709c-10.547-9.648-17.383-20.674-20.566-33.535
		c-1.68-6.87-1.68-23.95,0.059-29.878c4.004-13.926,9.766-23.447,19.648-32.588c20.859-19.355,52.617-24.453,78.906-12.793
		c17.305,7.744,29.805,20.615,36.621,37.695c2.031,5.029,2.813,8.32,3.965,16.387c0.781,5.483,0.781,7.437,0,13.237
		c-2.422,16.826-8.652,28.994-20.664,40.146c-10.566,9.902-21.738,15.513-35.977,18.223
		C503.867,10566.508,489.688,10566.381,482.676,10564.936z M502.129,10546.649c1.211-0.693,13.438-9.766,27.344-20.234
		c22.871-17.271,25.078-19.16,24.258-20.166c-3.594-4.731-11.016-13.242-11.758-13.496c-0.469-0.186-8.086,5.107-16.914,11.792
		c-8.828,6.616-16.309,12.227-16.641,12.295c-0.41,0.122-0.684-11.978-0.684-32.212c0-28.994-0.117-32.529-1.055-32.842
		c-1.328-0.508-17.246-0.508-18.594,0c-0.918,0.313-1.074,3.848-1.074,32.773c0,17.842-0.195,32.402-0.527,32.402
		c-0.273,0-7.832-5.547-16.777-12.295c-8.965-6.807-16.523-12.285-16.797-12.158c-1.133,0.371-12.695,14.429-12.363,14.995
		c0.527,0.82,49.473,37.7,51.953,39.087C495.313,10548.163,499.453,10548.227,502.129,10546.649z"/>
	<path fill="#F0145C" d="M122.769,10404.315l0.195-76.143l79.233-0.186c43.599-0.059,79.897,0,80.757,0.186l1.475,0.313
		l-0.127,75.83l-0.2,75.771l-24.878,0.186c-19.717,0.127-24.937,0-24.937-0.625c0-0.439-0.063-21.807-0.2-47.471l-0.132-46.641
		l-30.557-0.186l-30.62-0.127l-0.137,47.393l-0.2,47.471l-24.941,0.186l-24.868,0.127L122.769,10404.315z M163.086,10364.931
		c0.2-0.83,0.264-5.107,0.2-9.648l-0.2-8.203h-10.361h-10.361l-0.21,8.838c-0.068,4.785,0,9.141,0.142,9.57
		c0.259,0.635,2.803,0.82,10.356,0.82C162.549,10366.308,162.744,10366.308,163.086,10364.931z M203.535,10356.532v-9.766h-10.366
		h-10.366v9.336c0,5.166,0.205,9.57,0.474,9.766c0.195,0.254,4.878,0.439,10.361,0.439h9.897V10356.532z"/>
	<path fill="#F0145C" d="M193.506,10442.587v-37.832h9.697h9.688v37.832v37.813h-9.688h-9.697V10442.587z"/>
	<path fill="#F0145C" d="M305.293,10385.106l0.2-56.934h90.601h90.586l0.215,42.861l0.117,42.93l-5.137,0.83
		c-18.184,2.949-36.523,12.021-49.023,24.199c-1.797,1.826-3.594,2.959-4.453,2.959h-1.543l-0.137-47.402l-0.195-47.471
		l-30.566-0.186l-30.625-0.127v47.598v47.588h-30.078h-30.088L305.293,10385.106z"/>
	<path fill="#F0145C" d="M386.055,10404.13v-37.881l9.902,0.186l9.824,0.195v37.5v37.5l-9.824,0.186l-9.902,0.205V10404.13z"/>
	<path fill="#F0145C" d="M71.821,10299.179v-9.141h243.037H557.91v9.141v9.141H314.858H71.821V10299.179z"/>
	<path fill="#F0145C" d="M123.096,10270.058c-0.264-0.186-0.464-8.877-0.464-19.229v-18.779h192.227H507.09l-0.137,19.092
		l-0.215,19.043l-191.616,0.195C209.751,10270.438,123.306,10270.312,123.096,10270.058z"/>
</g>
</svg>
