<?xml version="1.0" encoding="utf-8"?>
<!-- Generator: Adobe Illustrator 16.0.0, SVG Export Plug-In . SVG Version: 6.00 Build 0)  -->
<!DOCTYPE svg PUBLIC "-//W3C//DTD SVG 1.1//EN" "http://www.w3.org/Graphics/SVG/1.1/DTD/svg11.dtd">
<svg version="1.1" id="Layer_1" xmlns="http://www.w3.org/2000/svg" xmlns:xlink="http://www.w3.org/1999/xlink" x="0px" y="0px"
	 width="64px" height="64px" viewBox="0 0 64 64" enable-background="new 0 0 64 64" xml:space="preserve">
<g>
	<path fill="#109C5C" d="M23.911,30.432c-0.598,0-1.084,0.471-1.084,1.049v9.175c0,0.578,0.487,1.051,1.084,1.051h15.208
		c0.599,0,1.084-0.473,1.084-1.051v-9.175c0-0.579-0.485-1.049-1.084-1.049H23.911z M32.219,36.761v2.237
		c0,0.379-0.317,0.682-0.704,0.682c-0.386,0-0.703-0.307-0.703-0.682v-2.237c-0.883-0.282-1.517-1.091-1.517-2.043
		c0-1.188,0.994-2.15,2.221-2.15c1.227,0,2.227,0.962,2.227,2.15C33.742,35.67,33.101,36.479,32.219,36.761L32.219,36.761z"/>
	<path fill="#109C5C" d="M25.455,29.408h1.057v-4.844c0-2.672,2.248-4.844,5.003-4.844c2.76,0,5.003,2.171,5.003,4.844v4.844h1.058
		v-4.844c0-3.236-2.719-5.868-6.061-5.868c-3.336,0-6.06,2.632-6.06,5.868V29.408z"/>
	<path fill="#109C5C" d="M38.659,12.369v4.224v0.005v3.282c0,0.281,0.237,0.512,0.529,0.512c0.29,0,0.53-0.23,0.53-0.512v-2.77
		l14.736,0.072h0.006c0.136,0,0.273-0.057,0.37-0.148c0.101-0.097,0.158-0.226,0.158-0.364v-4.321
		c1.545-0.266,2.719-1.572,2.719-3.144c0-1.762-1.48-3.195-3.301-3.195c-1.819,0-3.3,1.434-3.3,3.195
		c0,1.602,1.227,2.934,2.824,3.159v3.789l-14.215-0.066v-3.738c1.545-0.266,2.719-1.572,2.719-3.144c0-1.761-1.48-3.195-3.301-3.195
		c-1.819,0.005-3.3,1.439-3.3,3.2C35.835,10.813,37.062,12.144,38.659,12.369L38.659,12.369z"/>
	<path fill="#109C5C" d="M39.718,50.432v-5.561c0-0.281-0.239-0.512-0.53-0.512s-0.528,0.23-0.528,0.512v5.539
		c-1.597,0.227-2.824,1.557-2.824,3.16c0,1.762,1.48,3.195,3.3,3.195c1.82,0,3.301-1.434,3.301-3.195
		C42.436,52.004,41.262,50.693,39.718,50.432L39.718,50.432z"/>
	<path fill="#109C5C" d="M54.407,20.802c-1.639,0-2.998,1.162-3.251,2.678h-8.558c-0.291,0-0.529,0.23-0.529,0.512
		s0.238,0.512,0.529,0.512h8.558c0.248,1.521,1.618,2.688,3.257,2.688c1.819,0,3.3-1.434,3.3-3.195
		C57.708,22.235,56.228,20.802,54.407,20.802z"/>
	<path fill="#109C5C" d="M51.156,39.291c0.248,1.52,1.618,2.688,3.257,2.688c1.819,0,3.3-1.434,3.3-3.195s-1.48-3.195-3.3-3.195
		c-1.639,0-2.999,1.162-3.253,2.678h-7.668c-0.29,0-0.528,0.23-0.528,0.514c0,0.281,0.238,0.512,0.528,0.512h2.804l-0.074,14.275
		c0,0.133,0.053,0.266,0.153,0.363c0.102,0.096,0.232,0.148,0.375,0.148h4.406c0.248,1.52,1.618,2.688,3.257,2.688
		c1.819,0,3.3-1.434,3.3-3.195s-1.48-3.195-3.3-3.195c-1.639,0-2.999,1.162-3.252,2.678h-3.877l0.069-13.762H51.156z"/>
	<path fill="#109C5C" d="M24.44,50.432v-4.256v-0.004v-1.295c0-0.281-0.238-0.514-0.529-0.514s-0.529,0.23-0.529,0.514v0.787
		L8.639,45.736c-0.29,0-0.529,0.23-0.529,0.512v4.613c-1.592,0.227-2.824,1.557-2.824,3.16c0,1.76,1.481,3.193,3.3,3.193
		c1.819,0,3.3-1.434,3.3-3.193c0-1.572-1.175-2.879-2.718-3.145v-4.121l14.215-0.072v3.729c-1.592,0.225-2.824,1.557-2.824,3.158
		c0,1.762,1.48,3.195,3.3,3.195c1.819,0,3.299-1.434,3.299-3.195C27.164,52.004,25.99,50.693,24.44,50.432L24.44,50.432z"/>
	<path fill="#109C5C" d="M8.591,41.979c1.639,0,3.003-1.168,3.257-2.688h6.917c0.291,0,0.529-0.23,0.529-0.514
		c0-0.281-0.238-0.512-0.529-0.512h-6.922c-0.254-1.516-1.618-2.678-3.252-2.678c-1.819,0-3.3,1.434-3.3,3.195
		S6.773,41.979,8.591,41.979z"/>
	<path fill="#109C5C" d="M23.382,12.369v7.511c0,0.281,0.238,0.512,0.529,0.512s0.529-0.23,0.529-0.512v-7.527
		c1.544-0.266,2.724-1.572,2.724-3.144c0-1.761-1.481-3.195-3.3-3.195c-1.819,0-3.3,1.434-3.3,3.195
		C20.564,10.813,21.791,12.144,23.382,12.369L23.382,12.369z"/>
	<path fill="#109C5C" d="M8.591,20.802c-1.819,0-3.3,1.434-3.3,3.195c0,1.762,1.481,3.195,3.3,3.195
		c1.639,0,3.003-1.167,3.257-2.688h7.288c0.29,0,0.529-0.23,0.529-0.512c0-0.281-0.239-0.512-0.529-0.512h-2.332L16.73,9.2
		c0-0.281-0.237-0.512-0.529-0.512h-4.357c-0.254-1.51-1.618-2.672-3.252-2.672c-1.819,0-3.299,1.434-3.299,3.195
		c0,1.761,1.481,3.195,3.3,3.195c1.639,0,3.004-1.167,3.257-2.688h3.829l0.074,13.769h-3.903
		C11.59,21.965,10.226,20.803,8.591,20.802L8.591,20.802z"/>
</g>
</svg>
