<?xml version="1.0" encoding="utf-8"?>
<!-- Generator: Adobe Illustrator 16.0.0, SVG Export Plug-In . SVG Version: 6.00 Build 0)  -->
<!DOCTYPE svg PUBLIC "-//W3C//DTD SVG 1.1//EN" "http://www.w3.org/Graphics/SVG/1.1/DTD/svg11.dtd">
<svg version="1.1" id="Layer_1" xmlns="http://www.w3.org/2000/svg" xmlns:xlink="http://www.w3.org/1999/xlink" x="0px" y="0px"
	 width="64px" height="64px" viewBox="0 0 64 64" enable-background="new 0 0 64 64" xml:space="preserve">
<g>
	<path fill="#FF7C14" d="M20.971,6.5c-3.057-0.002-6.051,0.879-8.618,2.537c-2.568,1.658-4.601,4.022-5.853,6.808
		c-1.251,2.785-1.67,5.873-1.205,8.891c0.467,3.017,1.797,5.836,3.831,8.117c2.034,2.279,4.686,3.922,7.634,4.729
		c2.948,0.811,6.068,0.749,8.983-0.173l-1.098-1.883c-1.197,0.344-2.438,0.515-3.683,0.51c-3.642-0.003-7.134-1.449-9.707-4.022
		s-4.018-6.062-4.017-9.698c0.002-3.637,1.451-7.123,4.028-9.692c2.577-2.57,6.069-4.013,9.711-4.01
		c3.642,0.002,7.133,1.449,9.707,4.021c2.574,2.573,4.019,6.062,4.017,9.698c0.003,1.679-0.307,3.344-0.916,4.91
		c0.219,0.244,0.412,0.509,0.572,0.795l0.557,0.944l0.002,0c-0.162-0.638-0.122-1.308,0.114-1.921
		c0.237-0.613,0.658-1.138,1.205-1.503c0.089-0.051,0.183-0.096,0.279-0.134c0.201-1.004,0.299-2.027,0.294-3.051
		c0.007-2.782-0.72-5.517-2.107-7.928c-1.389-2.413-3.389-4.416-5.799-5.811C26.493,7.239,23.757,6.503,20.971,6.5L20.971,6.5z"/>
	<path fill="#FF7C14" d="M20.971,11.791c-2.973,0.003-5.807,1.259-7.805,3.458c-1.997,2.199-2.974,5.137-2.689,8.092
		c0.285,2.956,1.804,5.654,4.185,7.433c2.381,1.778,5.403,2.472,8.322,1.91l-1.153-1.955c-0.285,0.029-0.572,0.042-0.859,0.04
		c-2.24-0.002-4.389-0.893-5.972-2.477c-1.583-1.583-2.471-3.73-2.469-5.967c0.002-2.237,0.894-4.383,2.48-5.964
		c1.586-1.581,3.736-2.467,5.977-2.465c2.241,0.001,4.389,0.893,5.972,2.476c1.583,1.584,2.471,3.73,2.468,5.968
		c0.003,2.068-0.762,4.063-2.148,5.6l1.122,1.891c0.032-0.026,0.062-0.056,0.088-0.087c-0.124-0.605-0.061-1.233,0.183-1.801
		s0.654-1.047,1.178-1.376c0.063-0.039,0.13-0.073,0.198-0.103c0.233-0.128,0.486-0.217,0.748-0.262
		c1.279-3.247,0.868-6.914-1.099-9.797C27.731,13.52,24.465,11.793,20.971,11.791L20.971,11.791z"/>
	<path fill="#FF7C14" d="M26.229,22.332c0,0.928-0.248,1.837-0.717,2.637l-1.893-3.232h0c-0.35-0.809-1.029-1.43-1.867-1.705
		s-1.754-0.177-2.516,0.268c-0.762,0.444-1.295,1.194-1.465,2.059s0.038,1.76,0.574,2.46l1.591,2.669v0
		c-1.315-0.258-2.482-1.007-3.265-2.094c-0.782-1.087-1.121-2.431-0.946-3.758c0.174-1.327,0.848-2.538,1.884-3.387
		c1.036-0.849,2.357-1.272,3.695-1.184c1.337,0.089,2.591,0.684,3.506,1.661C25.726,19.704,26.232,20.993,26.229,22.332
		L26.229,22.332z"/>
	<path fill="#FF7C14" d="M57.041,52.025l-12.935,7.563c-0.483,0.231-1.063,0.097-1.393-0.326l-2.554-3.297l-15.013-7.515l0,0
		c-0.735-0.374-1.32-0.989-1.654-1.743c-0.333-0.754-0.395-1.6-0.175-2.396c0.207-0.661,0.691-1.202,1.328-1.478
		c0.29-0.119,0.601-0.183,0.916-0.183c0.438,0.004,0.869,0.113,1.256,0.318l4.375,2.168l-4.654-7.991l-1.089-1.852l-1.647-2.804
		l-1.106-1.89l-1.758-2.995l-1.862-3.178l0,0c-0.443-0.514-0.636-1.199-0.523-1.869c0.112-0.67,0.516-1.256,1.104-1.599
		c0.587-0.342,1.296-0.407,1.936-0.176c0.639,0.231,1.144,0.734,1.375,1.373l2.085,3.551l1.646,2.836l1.098,1.851l1.592,2.764
		l1.073,1.827l1.36,2.328l1.233-0.723l-1.479-2.534l-1.09-1.859l-0.843-1.446c-0.337-0.563-0.482-1.221-0.414-1.875
		c0.061-0.655,0.426-1.243,0.986-1.589l0.087-0.056l0.088-0.04h0c0.528-0.235,1.122-0.278,1.678-0.121
		c0.557,0.157,1.041,0.503,1.369,0.979c0.072,0.119,0.151,0.222,0.223,0.35l1.042,1.787l2.387,4.044l1.218-0.716l-2.244-3.853l0,0
		c-0.246-0.413-0.387-0.879-0.413-1.358c-0.067-0.653,0.152-1.302,0.604-1.779c0.114-0.127,0.249-0.234,0.398-0.318
		c0.534-0.3,1.176-0.346,1.749-0.127c0.675,0.229,1.241,0.699,1.592,1.318l2.244,3.836l1.232-0.722l-1.48-2.535
		c-0.368-0.601-0.504-1.315-0.382-2.009c0.085-0.606,0.443-1.141,0.972-1.45c0.528-0.31,1.17-0.361,1.741-0.14
		c0.671,0.238,1.234,0.705,1.591,1.32c0.057,0.095,5.936,9.698,7.16,12.035c1.377,2.613,3.421,9.35,4.352,12.551l0.104,0.382
		C57.711,51.178,57.507,51.746,57.041,52.025L57.041,52.025z"/>
</g>
</svg>
