<?xml version="1.0" encoding="utf-8"?>
<!-- Generator: Adobe Illustrator 16.0.0, SVG Export Plug-In . SVG Version: 6.00 Build 0)  -->
<!DOCTYPE svg PUBLIC "-//W3C//DTD SVG 1.1//EN" "http://www.w3.org/Graphics/SVG/1.1/DTD/svg11.dtd">
<svg version="1.1" id="Layer_1" xmlns="http://www.w3.org/2000/svg" xmlns:xlink="http://www.w3.org/1999/xlink" x="0px" y="0px"
	 width="64px" height="64px" viewBox="0 0 64 64" enable-background="new 0 0 64 64" xml:space="preserve">
<g>
	<path fill="#EC008C" d="M11.359,16.306h5.649v1.744h-5.649v5.23h5.649v1.744h-5.649v0.873c0,0.48,0.422,0.872,0.941,0.872h5.65
		c0.52,0,0.941-0.392,0.941-0.872v-4.359h-5.649v-1.744h5.649v-5.231h-7.532V16.306z"/>
	<path fill="#EC008C" d="M13.243,28.512h3.766v1.744h-3.766V28.512z"/>
	<path fill="#EC008C" d="M31.131,40.719h3.766v17.436h-3.766V40.719z"/>
	<path fill="#EC008C" d="M13.243,11.076h3.766v1.744h-3.766V11.076z"/>
	<path fill="#EC008C" d="M13.243,32.001h3.766v1.741h-3.766V32.001z"/>
	<path fill="#EC008C" d="M24.541,9.332h1.883v3.488h1.883V9.332h1.883v3.488h1.883V9.332h1.883v3.488h1.883V9.332h1.883v3.488h1.883
		V9.332h1.885v3.488h1.883V7.588H22.658v5.231h1.882V9.332z"/>
	<path fill="#EC008C" d="M29.248,33.742h7.532v5.232h-7.532V33.742z"/>
	<path fill="#EC008C" d="M49.021,11.076h3.768v1.744h-3.768V11.076z"/>
	<path fill="#EC008C" d="M49.021,28.512h3.768v1.744h-3.768V28.512z"/>
	<path fill="#EC008C" d="M35.839,19.794c0,0.672-0.283,1.28-0.734,1.744h4.5V18.05h-4.5C35.556,18.514,35.839,19.122,35.839,19.794z
		"/>
	<path fill="#EC008C" d="M20.775,22.173l6.189,9.828h12.101l6.189-9.828v-7.61h-24.48L20.775,22.173z M36.78,30.256h-7.532v-1.744
		h7.532V30.256z M36.78,26.769h-7.532v-1.744h7.532V26.769z M24.541,16.306h16.949v6.975H24.541V16.306z"/>
	<path fill="#EC008C" d="M54.671,16.306v-1.744h-7.533v5.231h5.65v1.744h-5.65v4.359c0,0.48,0.422,0.872,0.941,0.872h5.648
		c0.52,0,0.943-0.392,0.943-0.872v-0.873h-5.65v-1.744h5.65v-5.23h-5.65v-1.744H54.671z"/>
	<path fill="#EC008C" d="M49.021,32.001h3.768v1.741h-3.768V32.001z"/>
	<path fill="#EC008C" d="M33.956,19.794c0,0.481-0.422,0.872-0.941,0.872s-0.941-0.39-0.941-0.872c0-0.482,0.422-0.872,0.941-0.872
		S33.956,19.312,33.956,19.794"/>
	<path fill="#EC008C" d="M26.424,18.05v3.487h4.501c-0.453-0.464-0.734-1.072-0.734-1.744c0-0.672,0.283-1.28,0.734-1.744H26.424z"
		/>
</g>
</svg>
