<?xml version="1.0" encoding="utf-8"?>
<!-- Generator: Adobe Illustrator 16.0.0, SVG Export Plug-In . SVG Version: 6.00 Build 0)  -->
<!DOCTYPE svg PUBLIC "-//W3C//DTD SVG 1.1//EN" "http://www.w3.org/Graphics/SVG/1.1/DTD/svg11.dtd">
<svg version="1.1" id="Layer_1" xmlns="http://www.w3.org/2000/svg" xmlns:xlink="http://www.w3.org/1999/xlink" x="0px" y="0px"
	 width="64px" height="64px" viewBox="0 0 64 64" enable-background="new 0 0 64 64" xml:space="preserve">
<g>
	<path fill="#09821D" d="M27,49.25h2.5v2.5H27V49.25z"/>
	<path fill="#09821D" d="M35,49.25h2.5v2.5H35V49.25z"/>
	<path fill="#09821D" d="M41.25,43.4H34.5v-3.5h2.75c0.199,0,0.39-0.078,0.531-0.219C37.922,39.539,38,39.35,38,39.15V36.35
		c-3.705,1.402-7.795,1.402-11.5,0v2.801c0,0.414,0.335,0.75,0.75,0.75H30v3.5h-6.75c-0.464,0-0.909,0.186-1.237,0.514
		c-0.328,0.328-0.513,0.771-0.513,1.236V55.85c0,0.465,0.185,0.91,0.513,1.238c0.328,0.328,0.773,0.512,1.237,0.512h18
		c0.464,0,0.909-0.184,1.237-0.512S43,56.314,43.001,55.85V45.15c-0.001-0.465-0.185-0.908-0.513-1.236S41.715,43.4,41.25,43.4
		L41.25,43.4z M31,52.5c0,0.199-0.078,0.391-0.219,0.531c-0.142,0.141-0.332,0.219-0.531,0.219h-4c-0.414,0-0.75-0.336-0.75-0.75v-4
		c0-0.414,0.336-0.75,0.75-0.75h4c0.199,0,0.39,0.08,0.531,0.221C30.922,48.111,31,48.301,31,48.5V52.5z M39,52.5
		c0,0.199-0.078,0.391-0.219,0.531c-0.142,0.141-0.332,0.219-0.531,0.219h-4c-0.414,0-0.75-0.336-0.75-0.75v-4
		c0-0.414,0.336-0.75,0.75-0.75h4c0.199,0,0.39,0.08,0.531,0.221C38.922,48.111,39,48.301,39,48.5V52.5z"/>
	<path fill="#09821D" d="M32.25,35.9C40.383,35.9,47,29.283,47,21.15C47,13.017,40.383,6.4,32.25,6.4S17.5,13.017,17.5,21.15
		C17.5,29.283,24.117,35.9,32.25,35.9z M32.25,10.4c2.852,0,5.586,1.132,7.602,3.148S43,18.299,43,21.15s-1.133,5.585-3.148,7.602
		S35.102,31.9,32.25,31.9c-2.851,0-5.585-1.132-7.602-3.148S21.5,24.001,21.5,21.15c0.003-2.85,1.137-5.583,3.152-7.598
		C26.667,11.537,29.4,10.403,32.25,10.4z"/>
	<path fill="#09821D" d="M6.65,46.5v8c0,0.414,0.336,0.75,0.75,0.75H20v-9.5H7.4C6.986,45.75,6.65,46.086,6.65,46.5L6.65,46.5z"/>
	<path fill="#09821D" d="M57.1,45.25H44.5v4.5h12.6c0.199,0,0.391-0.078,0.531-0.219c0.141-0.143,0.219-0.332,0.219-0.531v-3
		c0-0.199-0.078-0.389-0.219-0.531C57.49,45.328,57.299,45.25,57.1,45.25L57.1,45.25z"/>
	<path fill="#09821D" d="M57.1,51.25H44.5v4.5h12.6c0.199,0,0.391-0.078,0.531-0.219S57.85,55.199,57.85,55v-3
		c0-0.199-0.078-0.389-0.219-0.529S57.299,51.25,57.1,51.25L57.1,51.25z"/>
	<path fill="#09821D" d="M24.331,21.85h-1.3c0.146,1.923,0.891,3.752,2.132,5.229c1.765-1.558,3.994-2.49,6.341-2.652V19
		c0-0.414,0.336-0.75,0.75-0.75s0.75,0.336,0.75,0.75v5.427c2.349,0.162,4.578,1.094,6.342,2.652
		c1.241-1.477,1.987-3.306,2.133-5.229h-1.301c-0.414,0-0.75-0.336-0.75-0.75c0-0.415,0.336-0.75,0.75-0.75h1.295
		c-0.164-1.925-0.932-3.749-2.191-5.213l-0.893,0.893c-0.293,0.295-0.77,0.297-1.064,0.004c-0.295-0.292-0.297-0.77-0.004-1.065
		l0.888-0.888c-1.468-1.244-3.29-1.996-5.208-2.15v1.249c0,0.415-0.336,0.75-0.75,0.75s-0.75-0.335-0.75-0.75v-1.249
		c-1.918,0.154-3.739,0.906-5.208,2.15l0.888,0.888c0.293,0.293,0.293,0.769,0,1.061c-0.293,0.293-0.768,0.293-1.061,0l-0.892-0.893
		h0c-1.26,1.464-2.027,3.288-2.192,5.213h1.3c0.414,0,0.75,0.335,0.75,0.75c0,0.414-0.336,0.75-0.75,0.75H24.331z"/>
	<path fill="#09821D" d="M26.211,28.149c1.677,1.452,3.82,2.251,6.039,2.251s4.362-0.799,6.039-2.251
		c-1.678-1.451-3.821-2.249-6.039-2.249S27.889,26.698,26.211,28.149z"/>
</g>
</svg>
