<?xml version="1.0" encoding="utf-8"?>
<!-- Generator: Adobe Illustrator 16.0.0, SVG Export Plug-In . SVG Version: 6.00 Build 0)  -->
<!DOCTYPE svg PUBLIC "-//W3C//DTD SVG 1.1//EN" "http://www.w3.org/Graphics/SVG/1.1/DTD/svg11.dtd">
<svg version="1.1" id="Layer_1" xmlns="http://www.w3.org/2000/svg" xmlns:xlink="http://www.w3.org/1999/xlink" x="0px" y="0px"
	 width="64px" height="64px" viewBox="0 0 64 64" enable-background="new 0 0 64 64" xml:space="preserve">
<g>
	<path fill="#8F00FF" d="M43.091,35.545c-1.162,0-2.315,0.286-3.335,0.825l-0.202,0.108l-3.516-3.51l-2.436,2.43l-0.247,0.246
		l3.515,3.514l-0.106,0.203c-1.476,2.796-0.965,6.171,1.271,8.401c1.349,1.349,3.142,2.092,5.049,2.092
		c0.838,0,1.654-0.144,2.434-0.425l-4.798-4.799l4.308-4.299l4.791,4.796c0.945-2.61,0.314-5.505-1.667-7.487
		C46.798,36.29,45.002,35.546,43.091,35.545L43.091,35.545z"/>
	<path fill="#8F00FF" d="M15.63,41.852l7.95,7.95c0.679-0.079,1.336-0.25,1.957-0.514l-9.386-9.385
		C15.885,40.526,15.709,41.182,15.63,41.852L15.63,41.852z"/>
	<path fill="#8F00FF" d="M29.793,32.969l-0.002-0.003l-3.512,3.511l-0.203-0.107c-1.021-0.539-2.174-0.824-3.336-0.824
		c-1.807,0-3.505,0.672-4.827,1.885l10.099,10.1c2.047-2.228,2.481-5.467,1.056-8.169l-0.107-0.202l3.516-3.515l0,0l0.855-0.854
		l8.409-8.404l3.8-0.812l3.998-6.165l-3.51-3.504l-6.164,3.992l-0.806,3.807l-5.704,5.7l0.001,0.001L29.793,32.969z"/>
	<path fill="#8F00FF" d="M27.569,47.969l-10.1-10.1c-0.408,0.443-0.754,0.926-1.031,1.439l9.694,9.694
		C26.648,48.725,27.127,48.374,27.569,47.969L27.569,47.969z"/>
	<path fill="#8F00FF" d="M20.811,24.718l-4.798-4.798c-0.944,2.613-0.313,5.508,1.667,7.489c1.351,1.351,3.146,2.095,5.057,2.094
		c1.163,0,2.316-0.285,3.336-0.825l0.204-0.108l3.512,3.515l2.684-2.682l-3.515-3.513l0.107-0.203c1.475-2.796,0.964-6.172-1.27-8.4
		c-1.35-1.35-3.143-2.092-5.05-2.092c-0.837,0-1.654,0.143-2.433,0.423l4.798,4.799L20.811,24.718z"/>
	<path fill="#8F00FF" d="M16.162,45.505l3.776,3.776c0.891,0.38,1.836,0.572,2.81,0.572h0.005l-7.167-7.167
		C15.587,43.635,15.772,44.591,16.162,45.505L16.162,45.505z"/>
	<path fill="#8F00FF" d="M23.633,54.12c0,0.697-0.565,1.263-1.263,1.263s-1.262-0.565-1.262-1.263s0.565-1.263,1.262-1.263
		S23.633,53.423,23.633,54.12"/>
	<path fill="#8F00FF" d="M10.709,25.134l1.145-0.602L13,25.134l-0.219-1.276l0.927-0.903l-1.281-0.186l-0.573-1.161l-0.573,1.161
		l-1.28,0.186l0.926,0.903L10.709,25.134z"/>
	<path fill="#8F00FF" d="M21.585,12.929l0.818-0.43l0.818,0.43l-0.156-0.911l0.662-0.646l-0.915-0.133l-0.409-0.828l-0.409,0.828
		l-0.915,0.133l0.662,0.646L21.585,12.929z"/>
	<path fill="#8F00FF" d="M52.437,43.18l0.663,0.646l-0.157,0.911l0.818-0.429l0.818,0.429l-0.156-0.911l0.662-0.646l-0.915-0.133
		l-0.409-0.829l-0.408,0.829L52.437,43.18z"/>
	<path fill="#8F00FF" d="M53.762,14.247l-0.53,1.631h-1.714l1.387,1.007l-0.529,1.63l1.387-1.007l1.387,1.007l-0.53-1.63
		l1.387-1.007h-1.713L53.762,14.247z"/>
	<path fill="#8F00FF" d="M50.781,10.93c0,0.697-0.565,1.262-1.263,1.262s-1.263-0.565-1.263-1.262s0.565-1.262,1.263-1.262
		S50.781,10.232,50.781,10.93"/>
	<path fill="#8F00FF" d="M55.6,33.051c0,0.563-0.456,1.02-1.019,1.02c-0.563,0-1.02-0.457-1.02-1.02s0.456-1.019,1.02-1.019
		C55.144,32.032,55.6,32.488,55.6,33.051"/>
	<path fill="#8F00FF" d="M16.619,16.074c0,0.732-0.593,1.326-1.326,1.326s-1.326-0.594-1.326-1.326c0-0.732,0.594-1.326,1.326-1.326
		S16.619,15.342,16.619,16.074"/>
	<path fill="#8F00FF" d="M19.554,54.315l0.079-0.392c-0.172-0.034-0.343-0.073-0.511-0.115l-0.098,0.388
		C19.198,54.241,19.375,54.28,19.554,54.315z"/>
	<path fill="#8F00FF" d="M10.793,43.646c0,0.177,0.004,0.352,0.013,0.526l0.4-0.02c-0.008-0.167-0.012-0.337-0.012-0.507
		c0-0.173,0.004-0.347,0.013-0.521l-0.399-0.02C10.797,43.286,10.793,43.466,10.793,43.646z"/>
	<path fill="#8F00FF" d="M11.506,46.183c-0.083-0.331-0.151-0.67-0.201-1.008l-0.396,0.059c0.052,0.35,0.122,0.702,0.208,1.046
		L11.506,46.183z"/>
	<path fill="#8F00FF" d="M12.34,49.228c0.183,0.305,0.381,0.604,0.593,0.889l0.321-0.238c-0.203-0.274-0.396-0.563-0.571-0.855
		L12.34,49.228z"/>
	<path fill="#8F00FF" d="M18.001,53.886l0.135-0.376c-0.322-0.115-0.642-0.248-0.95-0.395l-0.171,0.362
		C17.335,53.629,17.667,53.767,18.001,53.886L18.001,53.886z"/>
	<path fill="#8F00FF" d="M12.198,48.115c-0.147-0.311-0.279-0.63-0.394-0.95L11.428,47.3c0.119,0.332,0.256,0.664,0.409,0.986
		L12.198,48.115z"/>
	<path fill="#8F00FF" d="M15.186,52.378c0.286,0.212,0.584,0.412,0.887,0.594l0.207-0.342c-0.292-0.176-0.579-0.368-0.854-0.573
		L15.186,52.378z"/>
	<path fill="#8F00FF" d="M14.361,51.698l0.27-0.296c-0.253-0.23-0.498-0.476-0.726-0.729l-0.297,0.268
		C13.845,51.204,14.099,51.46,14.361,51.698z"/>
	<path fill="#8F00FF" d="M11.398,41.578l-0.393-0.079c-0.036,0.18-0.066,0.357-0.093,0.535l0.396,0.059
		C11.334,41.922,11.364,41.75,11.398,41.578z"/>
	<path fill="#8F00FF" d="M55.241,47.466l-0.399-0.01c-0.003,0.175-0.013,0.348-0.028,0.52l0.398,0.036
		C55.228,47.831,55.237,47.649,55.241,47.466z"/>
	<path fill="#8F00FF" d="M49.265,54.71c0.389-0.082,0.774-0.197,1.146-0.343l-0.145-0.372c-0.353,0.136-0.718,0.244-1.086,0.323
		L49.265,54.71z"/>
	<path fill="#8F00FF" d="M51.286,53.502l0.202,0.345c0.344-0.199,0.675-0.43,0.982-0.683l-0.254-0.31
		C51.925,53.095,51.612,53.313,51.286,53.502L51.286,53.502z"/>
	<path fill="#8F00FF" d="M53.034,52.07l0.3,0.266c0.266-0.298,0.509-0.62,0.722-0.954l-0.336-0.215
		C53.516,51.483,53.286,51.787,53.034,52.07L53.034,52.07z"/>
	<path fill="#8F00FF" d="M54.253,50.166l0.367,0.159c0.158-0.365,0.288-0.746,0.388-1.132l-0.388-0.1
		C54.526,49.46,54.403,49.82,54.253,50.166z"/>
	<path fill="#8F00FF" d="M47.534,54.474l-0.008,0.4c0.051,0.001,0.104,0.002,0.154,0.002c0.133,0,0.264-0.004,0.394-0.011
		l-0.021-0.399C47.882,54.476,47.709,54.479,47.534,54.474z"/>
	<path fill="#8F00FF" d="M54.381,28.459h0.399v1.067h-0.399V28.459z"/>
	<path fill="#8F00FF" d="M54.381,26.326h0.399v1.066h-0.399V26.326z"/>
	<path fill="#8F00FF" d="M54.381,22.059h0.399v1.067h-0.399V22.059z"/>
	<path fill="#8F00FF" d="M54.381,24.193h0.399v1.067h-0.399V24.193z"/>
</g>
</svg>
