<?xml version="1.0" encoding="utf-8"?>
<!-- Generator: Adobe Illustrator 16.0.0, SVG Export Plug-In . SVG Version: 6.00 Build 0)  -->
<!DOCTYPE svg PUBLIC "-//W3C//DTD SVG 1.1//EN" "http://www.w3.org/Graphics/SVG/1.1/DTD/svg11.dtd">
<svg version="1.1" id="Layer_1" xmlns="http://www.w3.org/2000/svg" xmlns:xlink="http://www.w3.org/1999/xlink" x="0px" y="0px"
	 width="64px" height="64px" viewBox="0 0 64 64" enable-background="new 0 0 64 64" xml:space="preserve">
<g>
	<path fill="#326ED1" d="M35.513,46.257l0.904,5.191h3.016l-2.195-5.191H35.513z"/>
	<path fill="#326ED1" d="M14.024,43.259c0,1.178,0.947,2.137,2.11,2.137h34.23c1.163,0,2.109-0.959,2.109-2.137v-2.195H14.024
		V43.259z"/>
	<path fill="#326ED1" d="M31.847,46.257l-0.904,5.191h4.606l-0.904-5.191H31.847z"/>
	<path fill="#326ED1" d="M21.29,49.286c0,0.719-0.575,1.301-1.284,1.301c-0.709,0-1.285-0.582-1.285-1.301s0.575-1.301,1.285-1.301
		C20.715,47.985,21.29,48.567,21.29,49.286"/>
	<path fill="#326ED1" d="M39.648,15.747c0,0.285-0.421,0.285-0.421,0S39.648,15.462,39.648,15.747"/>
	<path fill="#326ED1" d="M33.245,20.724c-3.298,0-5.981,2.718-5.981,6.06c0,3.342,2.683,6.06,5.981,6.06
		c3.299,0,5.981-2.718,5.981-6.06C39.227,23.442,36.544,20.724,33.245,20.724z M34.476,28.677c-0.086,0.085-0.192,0.128-0.301,0.128
		s-0.218-0.043-0.302-0.128c-0.343-0.349-0.911-0.349-1.254,0c-0.168,0.171-0.441,0.171-0.604,0c-0.168-0.171-0.168-0.446,0-0.611
		c0.682-0.69,1.785-0.69,2.461,0C34.645,28.231,34.645,28.506,34.476,28.677L34.476,28.677z M35.886,27.248
		c-0.084,0.085-0.192,0.128-0.301,0.128s-0.217-0.043-0.301-0.128c-1.121-1.136-2.948-1.136-4.069,0c-0.169,0.17-0.44,0.17-0.603,0
		c-0.168-0.171-0.168-0.446,0-0.611c1.453-1.472,3.823-1.472,5.282,0C36.051,26.808,36.051,27.077,35.886,27.248L35.886,27.248z
		 M37.34,25.775c-0.085,0.086-0.193,0.128-0.302,0.128c-0.107,0-0.218-0.042-0.301-0.128c-0.936-0.946-2.171-1.466-3.491-1.466
		s-2.556,0.52-3.491,1.466c-0.168,0.171-0.44,0.171-0.603,0c-0.169-0.17-0.169-0.446,0-0.61c1.091-1.105,2.551-1.716,4.094-1.716
		s3.003,0.61,4.094,1.716C37.508,25.33,37.508,25.605,37.34,25.775L37.34,25.775z"/>
	<path fill="#326ED1" d="M29.255,46.257l-2.195,5.191h3.015l0.905-5.191H29.255z"/>
	<path fill="#326ED1" d="M19.149,14.665c0,0.479-0.383,0.867-0.856,0.867s-0.855-0.388-0.855-0.867c0-0.479,0.383-0.867,0.855-0.867
		S19.149,14.186,19.149,14.665"/>
	<path fill="#326ED1" d="M17.443,21.243h5.125v-2.681h-4.956c-1.977,0-3.587,1.63-3.587,3.634v18h3.419V21.243z"/>
	<path fill="#326ED1" d="M48.88,18.563h-4.956v2.681h4.83v18.953h3.714v-18C52.468,20.193,50.857,18.563,48.88,18.563L48.88,18.563z
		"/>
	<path fill="#326ED1" d="M20.005,35.757h5.553v1.209h-5.553V35.757z"/>
	<path fill="#326ED1" d="M20.005,37.833h5.553v1.209h-5.553V37.833z"/>
	<path fill="#326ED1" d="M40.505,35.757h5.554v1.209h-5.554V35.757z"/>
	<path fill="#326ED1" d="M40.505,37.833h5.554v1.209h-5.554V37.833z"/>
	<path fill="#326ED1" d="M36.658,15.747c0,0.285-0.421,0.285-0.421,0S36.658,15.462,36.658,15.747"/>
	<path fill="#326ED1" d="M50.199,14.018c0,0.81-0.647,1.465-1.445,1.465c-0.799,0-1.447-0.656-1.447-1.465s0.648-1.465,1.447-1.465
		C49.552,12.552,50.199,13.208,50.199,14.018"/>
	<path fill="#326ED1" d="M25.257,32.843h4.685c-2.104-1.179-3.533-3.451-3.533-6.059c0-3.818,3.069-6.927,6.837-6.927
		s6.837,3.103,6.837,6.927c0,2.602-1.428,4.874-3.532,6.059h4.684c1.014,0,1.839-0.836,1.839-1.863l0.001-15.753
		c0-1.026-0.825-1.863-1.839-1.863H25.257c-1.013,0-1.839,0.836-1.839,1.863v15.752C23.418,32.006,24.244,32.843,25.257,32.843
		L25.257,32.843z M39.438,14.665c0.592,0,1.067,0.482,1.067,1.081c0,0.599-0.476,1.082-1.067,1.082c-0.59,0-1.067-0.482-1.067-1.082
		C38.37,15.147,38.854,14.665,39.438,14.665z M36.447,14.665c0.591,0,1.067,0.482,1.067,1.081c0,0.599-0.477,1.082-1.067,1.082
		c-0.592,0-1.066-0.482-1.066-1.082C35.381,15.147,35.863,14.665,36.447,14.665z M25.986,17.694h14.524
		c0.235,0,0.429,0.195,0.429,0.434s-0.193,0.434-0.429,0.434l-14.524,0c-0.235,0-0.428-0.196-0.428-0.434
		S25.745,17.694,25.986,17.694z"/>
</g>
</svg>
