<?xml version="1.0" encoding="utf-8"?>
<!-- Generator: Adobe Illustrator 16.0.0, SVG Export Plug-In . SVG Version: 6.00 Build 0)  -->
<!DOCTYPE svg PUBLIC "-//W3C//DTD SVG 1.1//EN" "http://www.w3.org/Graphics/SVG/1.1/DTD/svg11.dtd">
<svg version="1.1" id="Layer_1" xmlns="http://www.w3.org/2000/svg" xmlns:xlink="http://www.w3.org/1999/xlink" x="0px" y="0px"
	 width="64px" height="64px" viewBox="0 0 64 64" enable-background="new 0 0 64 64" xml:space="preserve">
<g>
	<path fill="#01A89E" d="M18.412,28.315c0.464,0,0.838-0.39,0.838-0.873c0-0.483-0.375-0.872-0.838-0.872
		c-0.465,0-0.839,0.39-0.839,0.872C17.572,27.925,17.947,28.315,18.412,28.315z"/>
	<path fill="#01A89E" d="M23.739,28.315c0.464,0,0.839-0.39,0.839-0.873c0-0.483-0.375-0.872-0.839-0.872S22.9,26.96,22.9,27.443
		S23.274,28.315,23.739,28.315z"/>
	<path fill="#01A89E" d="M19.25,42.776c0,0.481-0.375,0.873-0.839,0.873s-0.839-0.392-0.839-0.873s0.376-0.87,0.839-0.87
		S19.25,42.295,19.25,42.776"/>
	<path fill="#01A89E" d="M24.579,42.776c0,0.481-0.375,0.873-0.839,0.873s-0.839-0.392-0.839-0.873s0.375-0.87,0.839-0.87
		S24.579,42.295,24.579,42.776"/>
	<path fill="#01A89E" d="M14.802,53.186h12.54c1.641,0,2.971-1.388,2.971-3.09V20.123c0-1.707-1.335-3.089-2.971-3.089h-5.714
		v-0.966c0-3.643,2.849-6.601,6.347-6.601c3.503,0,6.347,2.963,6.347,6.601v29.354c0,0.982,0.186,1.933,0.549,2.826
		c0.354,0.866,0.854,1.641,1.498,2.309c0.643,0.67,1.387,1.191,2.221,1.56c0.859,0.379,1.777,0.571,2.717,0.571
		s1.857-0.192,2.717-0.571c0.834-0.368,1.578-0.89,2.221-1.56c0.645-0.668,1.145-1.442,1.5-2.309
		c0.363-0.894,0.547-1.849,0.547-2.826v-0.094h1.197v-0.23h-0.627v-0.345h0.627v-0.576h-0.627v-0.575h0.627v-0.578h-0.627v-0.575
		h0.627l0.002-0.505c1.73-0.22,3.074-1.762,3.074-3.621v-2.276h0.053c0.855,0,1.553-0.725,1.553-1.614v-0.57
		c0-0.889-0.697-1.613-1.553-1.613h-1.656v-4.275c0-0.318-0.246-0.576-0.553-0.576s-0.555,0.258-0.555,0.576v4.275h-4.236v-4.275
		c0-0.318-0.248-0.576-0.555-0.576c-0.305,0-0.553,0.258-0.553,0.576v4.275h-1.656c-0.855,0-1.553,0.724-1.553,1.613v0.57
		c0,0.89,0.697,1.614,1.553,1.614h0.051v2.276c0,1.859,1.346,3.401,3.076,3.621v0.159h0.533v0.346H45.98v0.575h0.533V43.6H45.98
		v0.577h0.533v0.576H45.98v0.575h1.199v0.094c0,3.375-2.639,6.112-5.879,6.112c-3.244,0-5.877-2.744-5.877-6.112V16.067
		c0-1.048-0.195-2.063-0.584-3.019c-0.375-0.921-0.914-1.75-1.6-2.463c-0.686-0.713-1.482-1.273-2.369-1.663
		c-0.917-0.406-1.894-0.609-2.901-0.609s-1.984,0.203-2.902,0.609c-0.886,0.39-1.683,0.949-2.369,1.663
		c-0.686,0.713-1.224,1.542-1.599,2.463c-0.39,0.955-0.585,1.97-0.585,3.019v0.965l-5.713,0.001c-1.641,0-2.971,1.388-2.971,3.089
		v29.98C11.831,51.802,13.166,53.186,14.802,53.186L14.802,53.186z M20.521,21.588v2.035h1.108v-2.035
		c2.859,0.291,5.107,2.803,5.107,5.854s-2.242,5.569-5.107,5.854v-2.036h-1.108v2.036c-2.859-0.291-5.107-2.804-5.107-5.854
		S17.662,21.873,20.521,21.588z M20.521,36.918v2.035h1.108v-2.035c2.859,0.291,5.107,2.803,5.107,5.854
		c0,3.05-2.242,5.569-5.107,5.854V46.59h-1.108v2.037c-2.859-0.291-5.107-2.805-5.107-5.854
		C15.414,39.721,17.662,37.208,20.521,36.918z"/>
</g>
</svg>
