<?xml version="1.0" encoding="utf-8"?>
<!-- Generator: Adobe Illustrator 16.0.0, SVG Export Plug-In . SVG Version: 6.00 Build 0)  -->
<!DOCTYPE svg PUBLIC "-//W3C//DTD SVG 1.1//EN" "http://www.w3.org/Graphics/SVG/1.1/DTD/svg11.dtd">
<svg version="1.1" id="Layer_1" xmlns="http://www.w3.org/2000/svg" xmlns:xlink="http://www.w3.org/1999/xlink" x="0px" y="0px"
	 width="64px" height="64px" viewBox="0 0 64 64" enable-background="new 0 0 64 64" xml:space="preserve">
<g>
	<path fill="#F9812A" d="M45.391,29.258c-0.301-0.004-0.59-0.104-0.827-0.282c-0.237-0.178-0.41-0.426-0.493-0.708
		c-0.215-0.667-0.49-1.314-0.818-1.936c-0.145-0.257-0.2-0.553-0.161-0.844c0.04-0.292,0.173-0.563,0.382-0.773l0.668-0.658
		c-1.05-1.529-2.391-2.846-3.948-3.876l-0.669,0.658l0,0c-0.214,0.204-0.491,0.335-0.787,0.374c-0.298,0.039-0.6-0.017-0.861-0.159
		c-0.632-0.323-1.292-0.592-1.971-0.804c-0.287-0.081-0.539-0.251-0.721-0.484c-0.182-0.234-0.283-0.518-0.287-0.81V18.03
		c-1.843-0.36-3.74-0.36-5.583,0v0.925c-0.006,0.292-0.105,0.577-0.288,0.81c-0.181,0.233-0.434,0.403-0.721,0.484
		c-0.679,0.212-1.338,0.481-1.97,0.804c-0.263,0.142-0.564,0.197-0.861,0.159c-0.296-0.039-0.573-0.17-0.787-0.374l-0.669-0.658h0
		c-1.558,1.03-2.899,2.347-3.948,3.876l0.67,0.658c0.208,0.211,0.341,0.482,0.381,0.773s-0.017,0.587-0.162,0.844
		c-0.329,0.622-0.603,1.269-0.819,1.936c-0.083,0.282-0.256,0.53-0.494,0.708c-0.237,0.179-0.527,0.277-0.825,0.282h-0.942
		c-0.366,1.81-0.366,3.672,0,5.482h0.942c0.298,0.006,0.587,0.104,0.825,0.281c0.238,0.179,0.411,0.427,0.494,0.709
		c0.216,0.667,0.49,1.313,0.819,1.936c0.145,0.258,0.201,0.553,0.162,0.845c-0.04,0.291-0.173,0.563-0.381,0.772l-0.67,0.659
		c1.049,1.529,2.39,2.845,3.948,3.876l0.67-0.658c0.215-0.204,0.491-0.335,0.787-0.374c0.297-0.039,0.598,0.017,0.861,0.159
		c0.632,0.322,1.292,0.592,1.97,0.804c0.288,0.082,0.54,0.252,0.721,0.485c0.182,0.232,0.282,0.516,0.288,0.81v0.924
		c1.843,0.36,3.74,0.36,5.583,0v-0.924c0.004-0.294,0.105-0.577,0.287-0.81c0.182-0.233,0.434-0.403,0.721-0.485
		c0.679-0.212,1.339-0.481,1.971-0.804c0.262-0.143,0.563-0.198,0.861-0.159c0.296,0.039,0.573,0.17,0.787,0.374l0.669,0.658
		c1.56-1.031,2.898-2.347,3.948-3.876l-0.668-0.659l0,0c-0.209-0.21-0.342-0.482-0.382-0.772c-0.039-0.292,0.017-0.587,0.161-0.845
		c0.328-0.622,0.604-1.269,0.82-1.937c0.081-0.281,0.254-0.529,0.491-0.708c0.239-0.178,0.526-0.275,0.827-0.281h0.94
		c0.367-1.811,0.367-3.672,0-5.482H45.391z M32.104,40.898c-2.403,0-4.708-0.938-6.408-2.605c-1.7-1.67-2.654-3.934-2.654-6.293
		c0-2.36,0.955-4.624,2.654-6.293s4.005-2.607,6.408-2.607c2.404,0,4.71,0.938,6.409,2.607S41.169,29.64,41.169,32
		c0,2.359-0.956,4.623-2.655,6.293C36.814,39.962,34.509,40.898,32.104,40.898z"/>
	<path fill="#F9812A" d="M32.958,27.016v-0.88h-1.706v0.88c-1.006,0.141-1.868,0.773-2.29,1.681
		c-0.422,0.906-0.344,1.961,0.206,2.799c0.549,0.838,1.496,1.343,2.511,1.341h0.853c0.708,0,1.28,0.563,1.28,1.257
		c0,0.693-0.572,1.256-1.28,1.256h-0.853c-0.707,0-1.278-0.563-1.28-1.256v-0.419h-1.705v0.419c0.002,0.703,0.262,1.382,0.731,1.912
		s1.119,0.877,1.827,0.978v0.879h1.706v-0.879c1.006-0.142,1.868-0.774,2.29-1.682c0.421-0.905,0.344-1.961-0.206-2.799
		s-1.495-1.343-2.511-1.341h-0.853c-0.708,0-1.28-0.562-1.28-1.256c0-0.694,0.572-1.257,1.28-1.257h0.853
		c0.706,0.001,1.278,0.563,1.28,1.257v0.418h1.705v-0.418c-0.002-0.703-0.262-1.382-0.731-1.913
		C34.315,27.462,33.667,27.116,32.958,27.016z"/>
	<path fill="#F9812A" d="M51.617,25.988c0.604-0.462,0.964-1.165,0.979-1.916c0.017-0.75-0.314-1.467-0.897-1.953
		c-0.583-0.485-1.358-0.687-2.107-0.547c-2.318-3.751-5.821-6.655-9.976-8.268c-4.154-1.613-8.731-1.846-13.034-0.664
		c-4.303,1.182-8.093,3.714-10.792,7.209c-2.7,3.496-4.159,7.763-4.157,12.15c0.001,1.924,0.289,3.836,0.854,5.678
		c-0.518,0.454-0.826,1.096-0.852,1.776c-0.026,0.682,0.232,1.344,0.715,1.833c0.483,0.491,1.148,0.767,1.842,0.763
		c0.065,0,0.126-0.014,0.19-0.018c2.248,3.836,5.724,6.836,9.886,8.533s8.779,1.997,13.133,0.854
		c4.354-1.146,8.203-3.669,10.946-7.18c2.744-3.511,4.231-7.814,4.229-12.241C52.573,29.959,52.248,27.931,51.617,25.988
		L51.617,25.988z M32.104,50.426c-3.264,0.002-6.472-0.834-9.305-2.425c-2.834-1.592-5.194-3.884-6.847-6.648
		c0.499-0.463,0.786-1.103,0.798-1.776c0.013-0.673-0.252-1.323-0.733-1.804c-0.481-0.479-1.14-0.749-1.825-0.747
		c-0.042,0-0.08,0.01-0.121,0.012C13.587,35.4,13.34,33.705,13.339,32c-0.002-4.017,1.333-7.924,3.802-11.126
		c2.468-3.203,5.936-5.524,9.873-6.612c3.938-1.088,8.129-0.882,11.936,0.585c3.809,1.469,7.022,4.118,9.152,7.546
		c-0.438,0.483-0.666,1.115-0.642,1.761c0.027,0.647,0.307,1.258,0.783,1.706c0.475,0.448,1.11,0.697,1.769,0.695
		c0.566,1.762,0.855,3.598,0.859,5.445c-0.006,4.886-1.984,9.568-5.502,13.023C41.85,48.478,37.08,50.42,32.104,50.426
		L32.104,50.426z"/>
</g>
</svg>
