<?xml version="1.0" encoding="utf-8"?>
<!-- Generator: Adobe Illustrator 16.0.0, SVG Export Plug-In . SVG Version: 6.00 Build 0)  -->
<!DOCTYPE svg PUBLIC "-//W3C//DTD SVG 1.1//EN" "http://www.w3.org/Graphics/SVG/1.1/DTD/svg11.dtd">
<svg version="1.1" id="Layer_1" xmlns="http://www.w3.org/2000/svg" xmlns:xlink="http://www.w3.org/1999/xlink" x="0px" y="0px"
	 width="64px" height="64px" viewBox="0 0 64 64" enable-background="new 0 0 64 64" xml:space="preserve">
<g>
	<path fill="#DC4437" d="M48.407,10.52h-7.169c-1.479,0-2.688,1.208-2.688,2.685c0,1.477,1.209,2.685,2.688,2.685h7.169
		c1.478,0,2.688-1.208,2.688-2.685C51.095,11.728,49.886,10.52,48.407,10.52z"/>
	<path fill="#DC4437" d="M24.214,48.109h-7.168c-1.479,0-2.688,1.209-2.688,2.686s1.209,2.686,2.688,2.686h7.168
		c1.478,0,2.688-1.209,2.688-2.686S25.693,48.109,24.214,48.109z"/>
	<path fill="#DC4437" d="M25.155,27.524c-2.338,0-4.462,0.895-6.066,2.363l7.545,6.587h13.664c2.194,0,4.202-0.787,5.77-2.094
		l-7.473-6.856H25.155z"/>
	<path fill="#DC4437" d="M16.15,36.52v9.889c0.287-0.063,0.592-0.088,0.896-0.088h7.168c0.304,0,0.609,0.025,0.896,0.088v-8.494
		c0-0.115,0.018-0.24,0.044-0.348v-0.01l-7.266-6.345C16.795,32.697,16.15,34.533,16.15,36.52L16.15,36.52z"/>
	<path fill="#DC4437" d="M41.239,17.68c-0.306,0-0.61-0.027-0.896-0.089v8.494c0,0.179-0.037,0.358-0.099,0.52l7.078,6.498
		c1.235-1.54,1.98-3.5,1.98-5.621v-9.89c-0.287,0.063-0.592,0.09-0.896,0.09H41.239z"/>
</g>
</svg>
