<?xml version="1.0" encoding="utf-8"?>
<!-- Generator: Adobe Illustrator 16.0.0, SVG Export Plug-In . SVG Version: 6.00 Build 0)  -->
<!DOCTYPE svg PUBLIC "-//W3C//DTD SVG 1.1//EN" "http://www.w3.org/Graphics/SVG/1.1/DTD/svg11.dtd">
<svg version="1.1" id="Layer_1" xmlns="http://www.w3.org/2000/svg" xmlns:xlink="http://www.w3.org/1999/xlink" x="0px" y="0px"
	 width="64px" height="64px" viewBox="0 0 64 64" enable-background="new 0 0 64 64" xml:space="preserve">
<g>
	<path fill="#FFBC04" d="M17.234,39.236c1.256,0,2.026,0.945,2.059,0.986c0.176,0.229,0.478,0.34,0.764,0.277
		c0.285-0.064,0.509-0.291,0.569-0.578c0.012-0.063,1.387-6.395,4.192-9.823c0.208-0.254,0.419-0.498,0.63-0.735
		c-0.276-0.472-0.507-0.968-0.688-1.476c-0.395,0.418-0.757,0.83-1.105,1.257c-2.231,2.726-3.574,6.897-4.175,9.138l-0.03,0.113
		l-0.098-0.061c-0.662-0.398-1.375-0.604-2.12-0.604c-1.823,0-2.735,0.855-2.834,0.953c-0.293,0.293-0.293,0.77,0,1.063
		c0.285,0.285,0.779,0.283,1.063,0.002C15.463,39.75,16.031,39.236,17.234,39.236L17.234,39.236z"/>
	<path fill="#FFBC04" d="M22.994,47.881c0.008-0.102,0.913-10.021,5.264-15.55c-0.417-0.273-0.813-0.586-1.18-0.928
		c-2.89,3.672-4.346,8.971-5.061,12.783l-0.046,0.244l-0.116-0.221c-1-1.906-2.372-2.871-4.077-2.871
		c-1.336,0.014-2.483,0.693-3.219,1.262L14.48,42.66l-0.049-0.088c-0.482-0.846-1.573-2.266-3.473-2.266
		c-0.21,0-0.427,0.018-0.646,0.053c-3.101,0.496-3.633,3-3.654,3.107c-0.081,0.406,0.183,0.803,0.589,0.883
		c0.406,0.086,0.805-0.188,0.884-0.59c0.014-0.066,0.367-1.588,2.417-1.914c2.056-0.346,2.852,2.035,2.93,2.291
		c0.077,0.264,0.289,0.465,0.555,0.525c0.265,0.061,0.546-0.031,0.728-0.232c0.014-0.016,1.446-1.57,2.978-1.59
		c2.972,0,3.73,4.873,3.761,5.08c0.053,0.367,0.373,0.645,0.744,0.645l0.023,0.086l-0.002-0.086
		C22.646,48.555,22.96,48.26,22.994,47.881L22.994,47.881z"/>
	<path fill="#FFBC04" d="M26.953,48.592c0.021,0.33,0.271,0.604,0.598,0.652c0.341,0.064,0.649-0.141,0.765-0.445
		c0.011-0.027,1.15-2.959,3.289-4.027c0.849-0.426,1.774-0.641,2.755-0.641c0.838,0,1.389,0.164,1.393,0.164
		c0.064,0.02,0.133,0.031,0.203,0.031l0,0c0.311,0,0.584-0.201,0.676-0.498c0.113-0.371-0.098-0.766-0.467-0.883
		c-0.078-0.021-0.779-0.227-1.813-0.227c-1.191,0-2.331,0.266-3.378,0.789c-0.894,0.447-1.727,1.172-2.476,2.156l-0.163,0.213
		l0.007-0.268c0.08-2.873,0.515-8.246,2.526-12.113c-0.466-0.123-0.92-0.285-1.348-0.475C26.417,39.184,26.929,48.209,26.953,48.592
		L26.953,48.592z"/>
	<path fill="#FFBC04" d="M17.499,31.049c0.49,0,0.891-0.397,0.891-0.892c0-0.49-0.401-0.888-0.891-0.888
		c-0.493,0-0.892,0.399-0.892,0.888C16.607,30.652,17.006,31.049,17.499,31.049"/>
	<path fill="#FFBC04" d="M11.844,34.715c0.492,0,0.891-0.398,0.891-0.891s-0.399-0.891-0.891-0.891
		c-0.493,0-0.891,0.398-0.891,0.891C10.953,34.316,11.351,34.715,11.844,34.715"/>
	<path fill="#FFBC04" d="M14.457,36.889c0.492,0,0.891-0.396,0.891-0.889s-0.399-0.889-0.891-0.889c-0.49,0-0.889,0.396-0.889,0.889
		C13.567,36.492,13.967,36.889,14.457,36.889"/>
	<path fill="#FFBC04" d="M11.947,38.381c0.492,0,0.892-0.398,0.892-0.893c0-0.49-0.399-0.887-0.892-0.887
		c-0.49,0-0.889,0.396-0.889,0.887C11.059,37.982,11.456,38.381,11.947,38.381"/>
	<path fill="#FFBC04" d="M7.551,34.4c0.491,0,0.891-0.398,0.891-0.893c0-0.492-0.4-0.889-0.891-0.889
		c-0.492,0-0.891,0.396-0.891,0.889C6.66,34.002,7.059,34.4,7.551,34.4"/>
	<path fill="#FFBC04" d="M17.409,46.529c0.489,0,0.89-0.395,0.89-0.891c0-0.49-0.401-0.887-0.89-0.887
		c-0.491,0-0.892,0.396-0.892,0.887C16.518,46.135,16.918,46.529,17.409,46.529"/>
	<path fill="#FFBC04" d="M17.394,35.658c0.49,0,0.89-0.396,0.89-0.893c0-0.49-0.399-0.887-0.89-0.887s-0.892,0.396-0.892,0.887
		C16.501,35.262,16.904,35.658,17.394,35.658"/>
	<path fill="#FFBC04" d="M31.218,41.447c0.49,0,0.889-0.398,0.889-0.893c0-0.488-0.398-0.887-0.889-0.887s-0.892,0.398-0.892,0.887
		C30.326,41.049,30.728,41.447,31.218,41.447"/>
	<path fill="#FFBC04" d="M34.215,47.58c0.49,0,0.889-0.396,0.889-0.891c0-0.49-0.398-0.889-0.889-0.889s-0.893,0.398-0.893,0.889
		C33.322,47.184,33.725,47.58,34.215,47.58"/>
	<path fill="#FFBC04" d="M34.502,41.447c0.49,0,0.889-0.398,0.889-0.893c0-0.488-0.398-0.887-0.889-0.887s-0.891,0.398-0.891,0.887
		C33.611,41.049,34.012,41.447,34.502,41.447"/>
	<path fill="#FFBC04" d="M33.119,38.682c0.49,0,0.891-0.398,0.891-0.891c0-0.49-0.4-0.889-0.891-0.889s-0.894,0.398-0.894,0.889
		C32.226,38.283,32.629,38.682,33.119,38.682"/>
	<path fill="#FFBC04" d="M37.785,39.631c0.49,0,0.889-0.396,0.889-0.891c0-0.49-0.398-0.887-0.889-0.887s-0.893,0.396-0.893,0.887
		C36.893,39.234,37.295,39.631,37.785,39.631"/>
	<path fill="#FFBC04" d="M15.298,33.67c0.492,0,0.891-0.4,0.891-0.896c0-0.49-0.399-0.886-0.891-0.886
		c-0.492,0-0.892,0.396-0.892,0.886C14.407,33.27,14.807,33.67,15.298,33.67"/>
	<path fill="#FFBC04" d="M10.321,46.604c0.676-0.307,1.261-0.35,1.795-0.129c1.072,0.439,1.585,1.771,1.59,1.783
		c0.14,0.375,0.586,0.584,0.968,0.439c0.188-0.07,0.337-0.209,0.42-0.393c0.083-0.182,0.09-0.387,0.02-0.574
		c-0.03-0.08-0.754-1.953-2.414-2.643c-0.41-0.17-0.841-0.256-1.28-0.256c-0.552,0-1.13,0.135-1.718,0.402
		c-1.445,0.654-2.107,2.432-2.178,2.633c-0.139,0.391,0.068,0.82,0.459,0.957c0.385,0.139,0.824-0.076,0.959-0.459
		C9.064,48.016,9.584,46.938,10.321,46.604L10.321,46.604z"/>
	<path fill="#FFBC04" d="M33.52,27.832c-1.569,0.868-3.318,2.236-5.069,4.391c-0.022,0.029-0.043,0.059-0.066,0.086
		c0.35,0.224,0.715,0.423,1.096,0.597c0.104-0.203,0.212-0.404,0.325-0.601C30.803,30.552,32.048,29.063,33.52,27.832z"/>
	<path fill="#FFBC04" d="M33.146,16.062c-4.875,0-8.826,3.951-8.826,8.825c0,0.998,0.173,1.953,0.479,2.847
		c4.962-5.2,10.641-6.378,12.977-6.638c0.451-0.057,0.875,0.277,0.926,0.739c0.051,0.459-0.281,0.874-0.74,0.926
		c-2.217,0.248-7.712,1.399-12.401,6.621c0.416,0.699,0.921,1.335,1.507,1.895c0.028-0.036,0.053-0.074,0.082-0.107
		c5.929-7.299,12.085-6.473,12.343-6.436c0.459,0.068,0.789,0.497,0.707,0.953c-0.074,0.395-0.354,0.503-0.943,0.705
		c-3.578,1.267-6.227,3.455-8.075,6.698c-0.064,0.113-0.123,0.234-0.185,0.35c0.69,0.174,1.407,0.275,2.15,0.275
		c4.873,0,8.826-3.953,8.826-8.827C41.973,20.013,38.02,16.062,33.146,16.062L33.146,16.062z"/>
	<path fill="#FFBC04" d="M57.793,24.895c0-4.71-3.705-8.564-8.359-8.79L38.527,16.12c3.039,1.869,4.914,5.2,4.914,8.768
		c0,3.591-1.893,6.932-4.959,8.798l10.951-0.023c4.654-0.225,8.361-4.059,8.361-8.767H57.793z"/>
</g>
</svg>
