<?xml version="1.0" encoding="utf-8"?>
<!-- Generator: Adobe Illustrator 16.0.0, SVG Export Plug-In . SVG Version: 6.00 Build 0)  -->
<!DOCTYPE svg PUBLIC "-//W3C//DTD SVG 1.1//EN" "http://www.w3.org/Graphics/SVG/1.1/DTD/svg11.dtd">
<svg version="1.1" id="Layer_1" xmlns="http://www.w3.org/2000/svg" xmlns:xlink="http://www.w3.org/1999/xlink" x="0px" y="0px"
	 width="64px" height="64px" viewBox="0 0 64 64" enable-background="new 0 0 64 64" xml:space="preserve">
<g>
	<path fill="#2064D4" d="M22.068,15.55c-4.078,0-7.427,3.288-7.427,7.314c0,4.028,3.349,7.315,7.427,7.315
		c4.102,0,7.457-3.288,7.457-7.315C29.524,18.838,26.17,15.55,22.068,15.55z"/>
	<path fill="#2064D4" d="M22.074,37.558c3.542,0,7.085,0.515,10.017,1.524l0,0l0,0c2.292,0.787,4.198,1.87,5.476,3.149
		c1.279,1.279,1.955,2.7,1.955,4.458V49.5H4.645v-2.811c0-2.015,0.882-3.605,2.535-5.002c1.652-1.395,4.089-2.505,6.911-3.209
		C16.561,37.861,19.317,37.556,22.074,37.558L22.074,37.558z"/>
	<path fill="#2064D4" d="M42.496,37.573c2.71,0.03,5.406,0.361,7.814,0.987c2.75,0.718,5.116,1.825,6.715,3.205
		c1.6,1.38,2.455,2.944,2.455,4.923v2.81H42.264v-2.81c0-2.494-1.065-4.686-2.748-6.369c-0.887-0.887-1.94-1.648-3.111-2.302
		c1.959-0.317,4.029-0.469,6.09-0.446L42.496,37.573z"/>
	<path fill="#2064D4" d="M42.057,15.55c-4.078,0-7.426,3.288-7.426,7.314c0,4.028,3.348,7.315,7.426,7.315s7.428-3.288,7.428-7.315
		C49.482,18.838,46.135,15.55,42.057,15.55z"/>
</g>
</svg>
