<?xml version="1.0" encoding="utf-8"?>
<!-- Generator: Adobe Illustrator 16.0.0, SVG Export Plug-In . SVG Version: 6.00 Build 0)  -->
<!DOCTYPE svg PUBLIC "-//W3C//DTD SVG 1.1//EN" "http://www.w3.org/Graphics/SVG/1.1/DTD/svg11.dtd">
<svg version="1.1" id="Layer_1" xmlns="http://www.w3.org/2000/svg" xmlns:xlink="http://www.w3.org/1999/xlink" x="0px" y="0px"
	 width="64px" height="64px" viewBox="0 0 64 64" enable-background="new 0 0 64 64" xml:space="preserve">
<path fill="#FFBC04" d="M26.537,6.334c-0.563,0.042-1.062,0.376-1.314,0.88C24.97,7.719,25,8.319,25.304,8.795
	c0.303,0.475,0.835,0.756,1.398,0.74H37.31h-0.001c0.432,0.01,0.848-0.155,1.155-0.456c0.308-0.301,0.481-0.713,0.481-1.144
	s-0.174-0.843-0.481-1.145c-0.308-0.301-0.724-0.465-1.155-0.456H26.704C26.648,6.332,26.593,6.332,26.537,6.334L26.537,6.334z
	 M26.537,12.241c-0.395,0.04-0.761,0.225-1.027,0.519c-0.267,0.295-0.414,0.678-0.413,1.075v18.828h-7.381
	c-0.41,0.002-0.803,0.16-1.1,0.444c-0.296,0.283-0.472,0.669-0.492,1.079c-0.02,0.408,0.118,0.811,0.385,1.121l14.281,16.57h0
	c0.304,0.354,0.746,0.555,1.21,0.555c0.465,0,0.907-0.201,1.212-0.555l14.289-16.57c0.269-0.313,0.406-0.715,0.386-1.125
	s-0.198-0.797-0.497-1.08c-0.298-0.282-0.693-0.439-1.104-0.439h-7.385V13.834c-0.002-0.422-0.17-0.826-0.469-1.125
	c-0.299-0.298-0.703-0.467-1.125-0.469H26.703C26.647,12.238,26.592,12.238,26.537,12.241L26.537,12.241z M8.005,44.152
	c-0.424,0-0.832,0.166-1.133,0.465s-0.471,0.705-0.473,1.129v10.182c-0.002,0.428,0.167,0.836,0.469,1.139
	c0.302,0.301,0.711,0.471,1.137,0.469h48c0.424-0.002,0.83-0.172,1.129-0.473c0.299-0.303,0.467-0.709,0.465-1.135V45.746
	c-0.002-0.422-0.17-0.826-0.469-1.125c-0.299-0.297-0.703-0.467-1.125-0.469H44.1l-8.466,9.816c-1.876,2.172-5.389,2.172-7.266,0
	l0,0c-0.001-0.002-0.002-0.002-0.003-0.004l-8.457-9.811L8.005,44.152z"/>
</svg>
