<?xml version="1.0" encoding="utf-8"?>
<!-- Generator: Adobe Illustrator 16.0.0, SVG Export Plug-In . SVG Version: 6.00 Build 0)  -->
<!DOCTYPE svg PUBLIC "-//W3C//DTD SVG 1.1//EN" "http://www.w3.org/Graphics/SVG/1.1/DTD/svg11.dtd">
<svg version="1.1" id="Layer_1" xmlns="http://www.w3.org/2000/svg" xmlns:xlink="http://www.w3.org/1999/xlink" x="0px" y="0px"
	 width="64px" height="64px" viewBox="0 0 64 64" enable-background="new 0 0 64 64" xml:space="preserve">
<g>
	<path fill="#0C9C54" d="M53.729,9.168c2.368,0,4.292,1.751,4.292,3.903v25.375c0,2.153-1.924,3.903-4.292,3.903h-6.438v-3.903
		h6.438V13.072H10.812v25.375h17.167v3.903H10.812c-2.366,0-4.292-1.75-4.292-3.903V13.072c0-2.152,1.926-3.903,4.292-3.903H53.729z
		 M35.489,45.277c-0.593,0-1.072,0.438-1.072,0.977c0,0.537,0.479,0.977,1.072,0.977c0.591,0,1.074-0.439,1.074-0.977
		C36.563,45.715,36.08,45.277,35.489,45.277z M35.489,41.374c-0.593,0-1.072,0.438-1.072,0.976c0,0.537,0.479,0.976,1.072,0.976
		c0.591,0,1.074-0.438,1.074-0.976C36.563,41.812,36.08,41.374,35.489,41.374z M35.489,37.47c-0.593,0-1.072,0.438-1.072,0.977
		c0,0.537,0.479,0.977,1.072,0.977c0.591,0,1.074-0.439,1.074-0.977C36.563,37.907,36.08,37.47,35.489,37.47z M39.781,45.277
		c-0.593,0-1.072,0.438-1.072,0.977c0,0.537,0.479,0.977,1.072,0.977c0.59,0,1.073-0.439,1.073-0.977
		C40.854,45.715,40.371,45.277,39.781,45.277z M39.781,41.374c-0.593,0-1.072,0.438-1.072,0.976c0,0.537,0.479,0.976,1.072,0.976
		c0.59,0,1.073-0.438,1.073-0.976C40.854,41.812,40.371,41.374,39.781,41.374z M39.781,37.471c-0.593,0-1.072,0.437-1.072,0.976
		c0,0.537,0.479,0.977,1.072,0.977c0.59,0,1.073-0.439,1.073-0.977C40.854,37.907,40.371,37.471,39.781,37.471z M30.125,54.062
		V32.591h15.021v21.471H30.125z M45.478,21.928c0.503,0.281,0.662,0.882,0.352,1.341c-0.204,0.3-0.555,0.466-0.917,0.466
		c-0.191,0-0.385-0.049-0.558-0.145c-3.949-2.205-8.919-2.303-12.967-0.253c-0.524,0.26-1.174,0.092-1.462-0.379
		c-0.287-0.472-0.102-1.065,0.417-1.327C35.068,19.24,40.869,19.354,45.478,21.928L45.478,21.928z M42.675,27.06
		c-0.191,0-0.385-0.045-0.561-0.143c-2.635-1.469-5.944-1.534-8.646-0.169c-0.517,0.262-1.17,0.092-1.459-0.378
		c-0.285-0.473-0.102-1.066,0.417-1.328c3.376-1.708,7.521-1.624,10.812,0.211c0.504,0.283,0.663,0.881,0.354,1.342
		C43.391,26.894,43.035,27.06,42.675,27.06L42.675,27.06z M34.52,28.466c2.022-1.023,4.506-0.977,6.472,0.12
		c0.503,0.281,0.663,0.884,0.354,1.34c-0.201,0.301-0.556,0.467-0.918,0.467c-0.189,0-0.385-0.045-0.559-0.143
		c-1.307-0.729-2.96-0.759-4.31-0.075c-0.515,0.259-1.171,0.091-1.458-0.379C33.816,29.323,34.002,28.728,34.52,28.466L34.52,28.466
		z"/>
</g>
</svg>
