<?xml version="1.0" encoding="utf-8"?>
<!-- Generator: Adobe Illustrator 16.0.0, SVG Export Plug-In . SVG Version: 6.00 Build 0)  -->
<!DOCTYPE svg PUBLIC "-//W3C//DTD SVG 1.1//EN" "http://www.w3.org/Graphics/SVG/1.1/DTD/svg11.dtd">
<svg version="1.1" id="Layer_1" xmlns="http://www.w3.org/2000/svg" xmlns:xlink="http://www.w3.org/1999/xlink" x="0px" y="0px"
	 width="64px" height="64px" viewBox="0 0 64 64" enable-background="new 0 0 64 64" xml:space="preserve">
<g>
	<path fill="#FF7C14" d="M25.383,27.358h-1.788c-0.917-0.001-1.796-0.313-2.444-0.868c-0.649-0.555-1.014-1.307-1.016-2.091V11.736
		c0.002-0.784,0.367-1.536,1.016-2.091c0.648-0.554,1.527-0.867,2.444-0.869h14.809c0.916,0.002,1.797,0.314,2.444,0.869
		c0.648,0.555,1.013,1.307,1.015,2.091v12.663c-0.002,0.785-0.366,1.537-1.015,2.091c-0.647,0.555-1.528,0.867-2.444,0.868h-6.606
		v2.335h7.916v0c1.294,0,2.532-0.439,3.449-1.22c0.914-0.782,1.429-1.842,1.432-2.948V10.609c-0.003-1.107-0.518-2.167-1.432-2.948
		c-0.917-0.782-2.155-1.221-3.449-1.221H22.286c-1.293,0-2.533,0.439-3.448,1.221s-1.43,1.841-1.431,2.948v14.917
		c0.001,1.106,0.516,2.166,1.431,2.948c0.915,0.781,2.155,1.22,3.448,1.22h3.036L25.383,27.358z"/>
	<path fill="#FF7C14" d="M40.5,24.399V11.736c0-0.475-0.221-0.931-0.614-1.268c-0.394-0.336-0.928-0.525-1.481-0.525H23.596
		c-0.556,0-1.088,0.189-1.481,0.525c-0.393,0.337-0.613,0.792-0.613,1.268v12.663c0,0.475,0.22,0.931,0.613,1.267
		c0.393,0.337,0.925,0.525,1.481,0.525h1.829c0-0.972,0.606-1.87,1.59-2.356c0.984-0.486,2.195-0.486,3.18,0
		c0.983,0.486,1.589,1.384,1.589,2.356h6.62c0.557,0,1.088-0.188,1.481-0.525C40.279,25.33,40.5,24.874,40.5,24.399L40.5,24.399z"/>
	<path fill="#FF7C14" d="M45.517,38.424c-0.029-0.379-0.219-0.734-0.534-1c-0.346-0.293-0.812-0.457-1.299-0.455
		c-0.486,0.002-0.952,0.17-1.294,0.467c-0.343,0.297-0.531,0.699-0.526,1.115v2.756l0,0c0,0.322-0.304,0.584-0.682,0.584
		c-0.377,0-0.682-0.262-0.682-0.584v-5.244c0-0.559-0.352-1.078-0.919-1.359c-0.567-0.279-1.269-0.279-1.836,0
		c-0.567,0.281-0.919,0.801-0.919,1.359v4.592c0,0.32-0.305,0.582-0.682,0.582c-0.375,0-0.682-0.262-0.682-0.582v-6.559
		c-0.039-0.537-0.396-1.02-0.948-1.279c-0.55-0.26-1.219-0.26-1.77,0c-0.55,0.26-0.91,0.742-0.947,1.279l-0.115,5.902
		c0,0.156-0.072,0.305-0.2,0.414s-0.302,0.17-0.483,0.17c-0.377,0-0.682-0.26-0.682-0.584l0.116-5.896v-7.782
		c0.003-0.042,0.003-0.086,0-0.128c-0.031-0.368-0.215-0.713-0.518-0.975c-0.33-0.284-0.774-0.45-1.242-0.461
		c-0.468-0.012-0.922,0.13-1.271,0.398c-0.347,0.268-0.562,0.64-0.6,1.039v0.128v1.039l-0.061,2.335v1.168l-0.307,12.156
		c0,0.061-0.015,0.123-0.042,0.18c-0.123,0.35-0.472,0.604-0.893,0.654c-1.672,0.199-4.621-3.428-4.777-3.584
		c-0.955-1.135-1.897-1.717-2.736-1.717c-0.261,0-0.517,0.061-0.745,0.168c-0.46,0.186-0.752,0.582-0.75,1.018
		c0.198,0.375,0.546,0.875,0.99,1.518H17.48c2.29,3.141,4.002,6.566,5.077,10.152c0.806,2.709,5.016,6.83,12.896,6.357
		c5.543-0.332,10.06-5.324,10.067-11.133v-0.764v-0.211L45.517,38.424z"/>
</g>
</svg>
