<?xml version="1.0" encoding="utf-8"?>
<!-- Generator: Adobe Illustrator 16.0.0, SVG Export Plug-In . SVG Version: 6.00 Build 0)  -->
<!DOCTYPE svg PUBLIC "-//W3C//DTD SVG 1.1//EN" "http://www.w3.org/Graphics/SVG/1.1/DTD/svg11.dtd">
<svg version="1.1" id="Layer_1" xmlns="http://www.w3.org/2000/svg" xmlns:xlink="http://www.w3.org/1999/xlink" x="0px" y="0px"
	 width="64px" height="64px" viewBox="0 0 64 64" enable-background="new 0 0 64 64" xml:space="preserve">
<g>
	<path fill="#0C9C54" d="M22.167,15.436c-3.877,0-7.061,3.185-7.061,7.089c0,3.902,3.183,7.089,7.061,7.089
		c3.899,0,7.088-3.185,7.088-7.089C29.254,18.621,26.065,15.436,22.167,15.436z"/>
	<path fill="#0C9C54" d="M22.171,36.763c3.368,0,6.736,0.499,9.521,1.479v-0.002h0.001c2.178,0.764,3.991,1.813,5.206,3.053
		s1.859,2.615,1.859,4.319v2.723H5.604v-2.723c0-1.952,0.839-3.493,2.41-4.848c1.57-1.351,3.888-2.427,6.57-3.11
		C16.931,37.058,19.551,36.761,22.171,36.763L22.171,36.763z"/>
	<path fill="#0C9C54" d="M41.585,36.777c2.576,0.031,5.142,0.349,7.431,0.959c2.614,0.695,4.862,1.768,6.385,3.105
		c1.52,1.336,2.332,2.854,2.332,4.77v2.722H41.363v-2.722c0-2.417-1.014-4.539-2.612-6.173c-0.842-0.859-1.844-1.598-2.959-2.231
		c1.865-0.307,3.832-0.453,5.791-0.431L41.585,36.777L41.585,36.777z"/>
	<path fill="#0C9C54" d="M41.167,15.436c-3.877,0-7.06,3.185-7.06,7.089c0,3.902,3.183,7.089,7.06,7.089s7.062-3.185,7.062-7.089
		S45.044,15.436,41.167,15.436z"/>
</g>
</svg>
