<?xml version="1.0" encoding="utf-8"?>
<!-- Generator: Adobe Illustrator 16.0.0, SVG Export Plug-In . SVG Version: 6.00 Build 0)  -->
<!DOCTYPE svg PUBLIC "-//W3C//DTD SVG 1.1//EN" "http://www.w3.org/Graphics/SVG/1.1/DTD/svg11.dtd">
<svg version="1.1" id="Layer_1" xmlns="http://www.w3.org/2000/svg" xmlns:xlink="http://www.w3.org/1999/xlink" x="0px" y="0px"
	 width="64px" height="64px" viewBox="0 0 64 64" enable-background="new 0 0 64 64" xml:space="preserve">
<g>
	<path fill="#09821D" d="M56.774,28.427c-0.311-0.307-0.724-0.46-1.137-0.307c-0.466,0.154-0.88,0.717-1.139,1.229
		c-0.466,0.87-1.345,3.532-1.603,4.198c-0.053,0.051-0.053,0.154-0.104,0.256l-1.914,3.943c0.259,0.102,0.517,0.307,0.673,0.563
		l0.051,0.104c0.259,0.409,0.208,0.921-0.155,1.279l-3.619,3.277c-0.155,0.153-0.312,0.256-0.466,0.357l-2.69,1.844
		c-0.103,0.051-0.206,0.051-0.258-0.051c-0.052-0.103-0.052-0.205,0.051-0.256l2.69-1.844c0.154-0.103,0.259-0.205,0.413-0.307
		l3.62-3.277c0.207-0.205,0.259-0.512,0.104-0.768l-0.052-0.154c-0.569-0.922-2.069-0.41-2.534-0.256
		c-0.052,0.051-0.104,0.051-0.207,0.102l-2.224,1.229c-0.207,0.103-0.31,0.153-0.414,0.204l-4.81,1.793
		c-0.724,0.256-1.345,0.717-1.861,1.33l-2.432,2.971c-0.311,0.357-0.518,0.717-0.724,1.126l-2.38,4.966
		c-0.104,0.154,0,0.359,0.155,0.461l5.586,2.1c0.155,0.051,0.362-0.051,0.413-0.205l1.294-4.249c0.104-0.41,0.413-0.769,0.827-0.974
		l10.551-5.223c0.259-0.102,0.414-0.357,0.518-0.613l3.982-14.183c0.052-0.205,0-0.41-0.155-0.563L56.774,28.427z"/>
	<path fill="#09821D" d="M6.401,28.427c0.31-0.307,0.724-0.46,1.137-0.307c0.466,0.154,0.879,0.717,1.138,1.229
		c0.466,0.87,1.345,3.532,1.604,4.198c0,0.103,0.051,0.205,0.103,0.256l1.914,3.943c-0.259,0.102-0.517,0.307-0.672,0.563
		l-0.052,0.103c-0.259,0.409-0.207,0.921,0.155,1.28l3.62,3.276c0.155,0.153,0.311,0.257,0.465,0.358l2.689,1.844
		c0.104,0.051,0.207,0.051,0.259-0.051c0.051-0.104,0.051-0.205-0.052-0.257l-2.741-1.843c-0.155-0.104-0.259-0.205-0.414-0.308
		l-3.621-3.276c-0.207-0.205-0.259-0.513-0.104-0.769l0.051-0.103c0.569-0.921,2.069-0.409,2.535-0.256
		c0.051,0.051,0.104,0.051,0.207,0.103l2.223,1.229c0.207,0.102,0.31,0.152,0.414,0.204l4.81,1.792
		c0.724,0.256,1.345,0.717,1.862,1.331l2.482,2.97c0.31,0.358,0.517,0.717,0.724,1.127l2.379,5.018c0.104,0.152,0,0.357-0.155,0.46
		l-5.586,2.1c-0.155,0.051-0.362-0.052-0.414-0.204l-1.293-4.25c-0.104-0.41-0.414-0.768-0.828-0.973l-10.549-5.326
		c-0.259-0.102-0.414-0.357-0.518-0.613L6.194,29.093c-0.052-0.205,0-0.41,0.155-0.563L6.401,28.427z"/>
	<path fill="#09821D" d="M39.501,28.529c-4.81,0.307-5.585,5.479-5.585,5.479s2.688-2.509,5.895-2.713c0,0-4.861,2.15-6.413,3.788
		l-2.482,2.304c-0.362-1.639-0.673-2.918-0.673-2.969c-0.207-1.689-0.103-3.38,0.414-5.018c0.104-0.256,0.207-0.513,0.31-0.769
		c0.31-0.768,0.673-1.587,1.294-2.252c0.258-0.307,0.619-0.512,0.93-0.768c0.776-0.563,1.5-1.229,2.173-1.946
		c1.655-1.741,3.104-3.942,3.207-6.4c0.258-5.069-4.811-9.37-4.811-9.37c0,0-0.154,2.355-4.809,7.577
		c-4.655,5.223,0,11.417,0,11.417s0.155-5.376,3.259-8.857c0,0-2.793,7.219-2.69,10.445l-0.155,3.533l-3.827-3.123
		c-1.655-1.638-6.879-3.532-6.879-3.532c3.362,0,6.31,2.457,6.31,2.457s-1.138-5.376-6.155-5.376s-6.31-1.024-6.31-1.024
		s-0.052,4.71,2.793,6.963c1.396,1.075,3.258,1.382,4.965,1.331c0.673,0,1.397-0.103,2.069-0.256
		c0.31-0.051,0.569-0.154,0.879-0.154c0.62,0,1.241,0.205,1.81,0.41c0.621,0.205,1.241,0.512,1.758,0.871
		c0.621,0.409,1.086,0.973,1.552,1.484c0,0,0.31,0.409,0.569,0.818c0.207,0.308,0.362,0.615,0.414,0.974l1.914,11.008l1.242-0.769
		c0,0-0.776-3.276-1.397-5.99c0.363-0.512,0.776-0.973,1.241-1.33c0.518-0.41,1.086-0.717,1.655-0.974
		c0.519-0.204,1.139-0.46,1.707-0.46c0.26,0,0.57,0.051,0.828,0.102c0.673,0.104,1.344,0.104,2.017,0.104
		c1.655-0.052,3.413-0.41,4.654-1.537c2.586-2.304,2.276-6.809,2.276-6.809C45.448,27.199,44.311,28.223,39.501,28.529
		L39.501,28.529z"/>
</g>
</svg>
