<?xml version="1.0" encoding="utf-8"?>
<!-- Generator: Adobe Illustrator 16.0.0, SVG Export Plug-In . SVG Version: 6.00 Build 0)  -->
<!DOCTYPE svg PUBLIC "-//W3C//DTD SVG 1.1//EN" "http://www.w3.org/Graphics/SVG/1.1/DTD/svg11.dtd">
<svg version="1.1" id="Layer_1" xmlns="http://www.w3.org/2000/svg" xmlns:xlink="http://www.w3.org/1999/xlink" x="0px" y="0px"
	 width="64px" height="64px" viewBox="0 0 64 64" enable-background="new 0 0 64 64" xml:space="preserve">
<rect id="backgroundrect" y="9.143" fill="none" width="64" height="64"/>
<g>
	<title>Layer 1</title>
	<g id="svg_14">
		<path id="svg_15" fill="#F9812A" d="M54.268,14.87c-7.749-0.36-15.138-3.402-20.913-8.61L33.27,6.149l-0.094-0.025
			c0.001-0.015,0.001-0.029,0-0.042c-0.076-0.056-0.159-0.102-0.245-0.136c-0.096-0.04-0.194-0.069-0.298-0.085
			c-0.1-0.021-0.202-0.03-0.304-0.025c-0.085-0.01-0.17-0.01-0.254,0c-0.105,0.014-0.208,0.042-0.305,0.085
			c-0.078,0.031-0.152,0.071-0.221,0.12c-0.045,0.023-0.088,0.052-0.126,0.085h-0.06L31.305,6.26
			c-5.783,5.2-13.169,8.241-20.916,8.61c-0.374,0.016-0.727,0.176-0.986,0.447S9,15.951,9,16.327v16.564
			c-0.004,2.54,0.405,5.063,1.211,7.471c0.922,2.735,2.36,5.265,4.234,7.452c4.276,4.975,10.093,9.122,17.292,12.4
			c0.376,0.171,0.808,0.171,1.184,0c7.191-3.278,13.018-7.426,17.301-12.4c1.878-2.186,3.315-4.717,4.233-7.452
			c0.809-2.407,1.216-4.931,1.212-7.471V16.327c0-0.378-0.145-0.741-0.405-1.013s-0.616-0.431-0.992-0.444H54.268z M26.181,24.571
			l-3.514,2.265l1.059,4.055l0,0c0.06,0.327-0.076,0.66-0.348,0.852c-0.129,0.081-0.279,0.125-0.432,0.127
			c-0.183-0.003-0.359-0.07-0.5-0.188l-3.226-2.648l-3.515,2.265c-0.289,0.19-0.668,0.167-0.931-0.059
			c-0.251-0.229-0.341-0.589-0.229-0.912l1.516-3.9l-3.21-2.657c-0.263-0.218-0.37-0.575-0.271-0.903
			c0.123-0.331,0.446-0.542,0.797-0.519l4.157,0.238l1.516-3.901c0.126-0.326,0.45-0.53,0.795-0.503
			c0.348,0.013,0.646,0.256,0.729,0.597l1.059,4.088l4.149,0.239c0.345,0.03,0.638,0.27,0.737,0.605
			C26.585,24.04,26.453,24.376,26.181,24.571L26.181,24.571z M48.028,45.939c-4.15,4.651-9.205,8.394-14.854,10.997V41.342h17.783
			c-0.752,1.658-1.739,3.198-2.93,4.574V45.939z M52.771,32.918v1.132v0.563c0,0.195-0.042,0.452-0.06,0.656l-0.093,0.698
			l-0.094,0.588c-0.067,0.357-0.143,0.707-0.219,1.03l-0.119,0.477c0,0.137-0.067,0.273-0.11,0.409h-18.9v-10.74h19.595V32.918z
			 M52.771,24.861H33.175V9.828c5.628,4.519,12.463,7.257,19.638,7.87L52.771,24.861z"/>
	</g>
	
		<rect id="svg_37" x="11.328" y="18.099" fill="#F9812A" stroke="#F9812A" stroke-width="2" stroke-linejoin="round" width="8.033" height="6.521"/>
	
		<rect id="svg_40" x="12.876" y="17.417" fill="#F9812A" stroke="#F9812A" stroke-width="2" stroke-linejoin="round" width="14.807" height="15.67"/>
</g>
</svg>
