<?xml version="1.0" encoding="utf-8"?>
<!-- Generator: Adobe Illustrator 16.0.0, SVG Export Plug-In . SVG Version: 6.00 Build 0)  -->
<!DOCTYPE svg PUBLIC "-//W3C//DTD SVG 1.1//EN" "http://www.w3.org/Graphics/SVG/1.1/DTD/svg11.dtd">
<svg version="1.1" id="Layer_1" xmlns="http://www.w3.org/2000/svg" xmlns:xlink="http://www.w3.org/1999/xlink" x="0px" y="0px"
	 width="64px" height="64px" viewBox="0 0 64 64" enable-background="new 0 0 64 64" xml:space="preserve">
<g>
	<path fill="#f0145c" d="M56.282,10.705v5.231c0,0.23-0.09,0.453-0.25,0.616c-0.161,0.164-0.38,0.256-0.606,0.256H9.172
		c-0.473,0-0.856-0.391-0.856-0.872v-5.231c0-0.481,0.383-0.872,0.856-0.872h46.254c0.227,0,0.445,0.092,0.606,0.256
		C56.192,10.252,56.282,10.474,56.282,10.705z M11.742,21.167c0,0.231,0.09,0.453,0.25,0.617c0.16,0.163,0.378,0.255,0.605,0.255
		h39.401c0.228,0,0.445-0.092,0.605-0.255c0.159-0.164,0.252-0.385,0.252-0.617v-2.615H11.742V21.167z M14.312,31.629h2.295
		c0.453-0.001,0.897-0.124,1.288-0.355c0.392-0.232,0.715-0.564,0.939-0.964l1.458-2.585c0.374-0.667,0.914-1.222,1.567-1.608
		c0.652-0.386,1.393-0.59,2.147-0.591H40.59c0.755,0.001,1.497,0.205,2.15,0.592c0.652,0.387,1.192,0.942,1.568,1.61l1.453,2.577
		c0.224,0.4,0.549,0.734,0.938,0.967c0.393,0.232,0.836,0.354,1.29,0.356h2.297v-7.847H14.312V31.629z M32.298,37.73
		c-0.681,0-1.335,0.276-1.817,0.767c-0.481,0.49-0.751,1.155-0.751,1.85c0,0.692,0.27,1.358,0.751,1.851
		c0.482,0.488,1.137,0.764,1.817,0.764c0.682,0,1.335-0.275,1.818-0.764c0.48-0.492,0.753-1.158,0.753-1.851
		c-0.001-0.694-0.272-1.358-0.754-1.85C33.633,38.008,32.98,37.73,32.298,37.73L32.298,37.73z M41.72,40.347
		c0,2.544-0.992,4.983-2.759,6.781c-1.767,1.799-4.163,2.808-6.663,2.808c-2.499,0-4.895-1.009-6.662-2.808
		c-1.767-1.798-2.759-4.237-2.759-6.781c0-2.543,0.992-4.982,2.759-6.78c1.767-1.799,4.163-2.81,6.662-2.81
		c2.5,0.003,4.894,1.016,6.66,2.812C40.724,35.366,41.717,37.804,41.72,40.347z M35.296,35.063c0.301,0.175,0.675,0.15,0.951-0.064
		c0.274-0.215,0.396-0.577,0.305-0.917c-0.09-0.341-0.372-0.593-0.715-0.639c-0.345-0.047-0.681,0.124-0.854,0.428
		C34.748,34.287,34.888,34.82,35.296,35.063L35.296,35.063z M31.442,33.372c0,0.353,0.208,0.671,0.528,0.804
		c0.32,0.138,0.688,0.063,0.935-0.188c0.245-0.249,0.318-0.624,0.184-0.95c-0.132-0.325-0.443-0.539-0.791-0.539
		C31.825,32.5,31.442,32.892,31.442,33.372z M28.13,34.742c0.174,0.305,0.51,0.475,0.854,0.428c0.344-0.046,0.626-0.298,0.716-0.638
		c0.089-0.341-0.031-0.703-0.306-0.917c-0.275-0.216-0.65-0.24-0.95-0.064c-0.197,0.116-0.34,0.307-0.399,0.53
		C27.987,34.304,28.017,34.542,28.13,34.742z M25.446,41.217c0.346,0,0.659-0.211,0.791-0.536c0.133-0.326,0.06-0.701-0.186-0.95
		c-0.245-0.249-0.613-0.324-0.933-0.189c-0.32,0.135-0.529,0.452-0.529,0.806c0,0.231,0.09,0.453,0.251,0.616
		C25,41.126,25.219,41.217,25.446,41.217z M27.106,43.396c-0.173-0.304-0.51-0.473-0.854-0.427s-0.625,0.298-0.715,0.638
		c-0.09,0.341,0.031,0.703,0.305,0.917c0.275,0.216,0.65,0.241,0.95,0.064c0.41-0.241,0.55-0.774,0.313-1.19V43.396z M26.792,36.104
		c-0.3-0.176-0.675-0.151-0.95,0.063c-0.274,0.215-0.395,0.578-0.305,0.918c0.09,0.341,0.372,0.593,0.715,0.639
		s0.681-0.122,0.854-0.429C27.343,36.878,27.203,36.346,26.792,36.104z M29.301,45.632c-0.3-0.177-0.675-0.151-0.95,0.063
		c-0.274,0.214-0.396,0.576-0.306,0.917c0.089,0.341,0.372,0.594,0.715,0.641c0.343,0.045,0.68-0.124,0.854-0.43
		c0.114-0.2,0.144-0.438,0.085-0.662C29.642,45.938,29.497,45.746,29.301,45.632L29.301,45.632z M33.155,47.321
		c0-0.353-0.208-0.671-0.528-0.807c-0.32-0.134-0.689-0.06-0.935,0.19c-0.244,0.248-0.318,0.623-0.185,0.948
		c0.132,0.326,0.444,0.539,0.791,0.539c0.227,0,0.446-0.092,0.607-0.256C33.065,47.774,33.155,47.552,33.155,47.321z M36.466,45.951
		c-0.173-0.307-0.509-0.475-0.854-0.43c-0.343,0.046-0.624,0.298-0.715,0.639c-0.09,0.342,0.031,0.703,0.306,0.918
		c0.275,0.215,0.65,0.24,0.949,0.063C36.563,46.9,36.702,46.368,36.466,45.951L36.466,45.951z M36.581,40.347
		c0-1.155-0.451-2.265-1.255-3.083c-0.803-0.816-1.892-1.276-3.028-1.276c-1.135,0-2.225,0.46-3.028,1.276
		c-0.803,0.818-1.254,1.928-1.254,3.083c0,1.156,0.451,2.265,1.254,3.082c0.804,0.817,1.893,1.277,3.028,1.277
		c1.136-0.003,2.224-0.462,3.027-1.279S36.58,41.503,36.581,40.347z M38.661,43.078c-0.3-0.176-0.675-0.15-0.949,0.063
		c-0.275,0.215-0.396,0.577-0.307,0.918c0.09,0.34,0.372,0.593,0.716,0.638c0.343,0.047,0.681-0.123,0.854-0.428
		C39.212,43.853,39.07,43.319,38.661,43.078L38.661,43.078z M39.15,39.474c-0.346,0-0.657,0.214-0.791,0.539
		c-0.133,0.325-0.06,0.7,0.186,0.95c0.244,0.249,0.613,0.323,0.934,0.188s0.53-0.452,0.53-0.805c0-0.231-0.093-0.453-0.253-0.616
		C39.596,39.565,39.378,39.474,39.15,39.474z M38.975,36.424c-0.173-0.307-0.511-0.474-0.854-0.43
		c-0.344,0.047-0.626,0.298-0.716,0.639s0.031,0.702,0.307,0.917c0.274,0.216,0.649,0.241,0.949,0.064
		C39.07,37.374,39.212,36.84,38.975,36.424L38.975,36.424z M47.99,33.372h2.296v3.509c-0.006,4.848-1.9,9.496-5.269,12.923
		c-3.367,3.429-7.934,5.357-12.697,5.363h-0.043c-4.763-0.006-9.33-1.935-12.697-5.363c-3.369-3.427-5.263-8.075-5.268-12.923
		v-3.509h2.295c0.755-0.001,1.496-0.204,2.148-0.591c0.653-0.386,1.193-0.941,1.567-1.608l1.459-2.584
		c0.224-0.401,0.548-0.733,0.938-0.965c0.391-0.232,0.835-0.354,1.289-0.355h16.583c0.452,0.001,0.898,0.125,1.289,0.356
		c0.393,0.232,0.717,0.566,0.941,0.967l1.453,2.576c0.373,0.668,0.915,1.225,1.566,1.611c0.653,0.387,1.396,0.591,2.151,0.592H47.99
		z M43.435,40.347c0-3.006-1.173-5.889-3.262-8.015c-2.088-2.125-4.922-3.319-7.875-3.319c-2.953,0-5.786,1.194-7.874,3.319
		c-2.088,2.126-3.261,5.009-3.261,8.015c0,3.005,1.173,5.889,3.261,8.014s4.92,3.319,7.874,3.319
		c2.953-0.003,5.783-1.198,7.871-3.324C42.258,46.232,43.43,43.351,43.435,40.347z"/>
</g>
</svg>
