<?xml version="1.0" encoding="utf-8"?>
<!-- Generator: Adobe Illustrator 16.0.0, SVG Export Plug-In . SVG Version: 6.00 Build 0)  -->
<!DOCTYPE svg PUBLIC "-//W3C//DTD SVG 1.1//EN" "http://www.w3.org/Graphics/SVG/1.1/DTD/svg11.dtd">
<svg version="1.1" id="Layer_1" xmlns="http://www.w3.org/2000/svg" xmlns:xlink="http://www.w3.org/1999/xlink" x="0px" y="0px"
	 width="64px" height="64px" viewBox="0 0 64 64" enable-background="new 0 0 64 64" xml:space="preserve">
<g>
	<path fill="#09821D" d="M56.199,22.358C52.793,10.307,39.457,3.076,26.408,6.236C13.361,9.449,5.625,21.77,9.031,33.875
		c1.616,5.732,5.485,10.337,10.449,13.283l-6.409,9.107L38.766,50C51.811,46.784,59.604,34.41,56.199,22.358L56.199,22.358z
		 M32.701,40.143c-1.443,0-2.598-1.07-2.598-2.41c0-0.214,0.058-0.428,0.116-0.59h4.965c0.059,0.215,0.114,0.376,0.114,0.59
		C35.299,39.072,34.146,40.143,32.701,40.143L32.701,40.143z M43.208,35.535H22.253v-1.607c0-0.215,0.114-0.375,0.288-0.535
		c0,0,2.252-2.25,2.252-8.142c0-4.606,3.348-6.535,6.062-7.124v-1.338c0-0.964,0.866-1.768,1.905-1.768
		c1.038,0,1.904,0.804,1.904,1.768v1.338c2.716,0.589,6.063,2.518,6.063,7.124c0,5.893,2.253,8.142,2.253,8.142
		c0.171,0.16,0.229,0.32,0.229,0.535V35.535z"/>
</g>
</svg>
