<?xml version="1.0" encoding="utf-8"?>
<!-- Generator: Adobe Illustrator 16.0.0, SVG Export Plug-In . SVG Version: 6.00 Build 0)  -->
<!DOCTYPE svg PUBLIC "-//W3C//DTD SVG 1.1//EN" "http://www.w3.org/Graphics/SVG/1.1/DTD/svg11.dtd">
<svg version="1.1" id="Layer_1" xmlns="http://www.w3.org/2000/svg" xmlns:xlink="http://www.w3.org/1999/xlink" x="0px" y="0px"
	 width="64px" height="64px" viewBox="0 0 64 64" enable-background="new 0 0 64 64" xml:space="preserve">
<g>
	<path fill="#FF7C14" d="M34.604,3.723c-0.057-0.007-0.114-0.012-0.172-0.012c-1.524,0-2.58,1.293-2.58,2.889
		c0,1.572,0.585,2.851,2.879,2.883v0.009c10.895,0.156,20.426,9.895,20.426,21.85c0,12.05-9.457,21.993-20.971,21.993
		c-10.989,0-20.112-8.679-20.916-20.079h4.849l-7.483-13.019l-7.48,13.02h4.587c0.811,14.402,12.32,25.852,26.352,25.852
		c14.559,0,26.405-12.458,26.405-27.696C60.5,16.355,48.929,4.007,34.604,3.723L34.604,3.723z"/>
	<path fill="#FF7C14" d="M34.186,45.371c0.912,0,1.657,0.773,1.657,1.735c0,0.959-0.745,1.732-1.657,1.732
		c-0.915,0-1.658-0.773-1.658-1.732C32.529,46.145,33.271,45.371,34.186,45.371z"/>
	<path fill="#FF7C14" d="M45.132,19.172c0.917,0,1.656,0.777,1.656,1.734s-0.739,1.731-1.656,1.731
		c-0.912,0-1.651-0.774-1.651-1.731S44.22,19.172,45.132,19.172z"/>
	<path fill="#FF7C14" d="M45.132,39.966c0.917,0,1.656,0.779,1.656,1.732c0,0.955-0.739,1.735-1.656,1.735
		c-0.912,0-1.651-0.78-1.651-1.735C43.48,40.745,44.22,39.966,45.132,39.966z"/>
	<path fill="#FF7C14" d="M48.813,29.764c0.918,0,1.658,0.775,1.658,1.732c0,0.958-0.74,1.733-1.658,1.733s-1.651-0.776-1.651-1.733
		C47.162,30.539,47.896,29.764,48.813,29.764z"/>
	<path fill="#FF7C14" d="M37.024,17.18c0-1.359-1.044-2.526-2.34-2.526H34.18c-1.297,0-2.316,1.167-2.316,2.526v14.525l-6.798,7.103
		c-1.003,1.05-0.952,2.754-0.003,3.798c0.952,1.057,2.62,1.057,3.624,0l7.513-7.861c0.057-0.065,0.103-0.133,0.16-0.192
		c0.413-0.446,0.664-1.053,0.664-1.723L37.022,17.18L37.024,17.18z"/>
</g>
</svg>
