<?xml version="1.0" encoding="utf-8"?>
<!-- Generator: Adobe Illustrator 16.0.0, SVG Export Plug-In . SVG Version: 6.00 Build 0)  -->
<!DOCTYPE svg PUBLIC "-//W3C//DTD SVG 1.1//EN" "http://www.w3.org/Graphics/SVG/1.1/DTD/svg11.dtd">
<svg version="1.1" id="Layer_1" xmlns="http://www.w3.org/2000/svg" xmlns:xlink="http://www.w3.org/1999/xlink" x="0px" y="0px"
	 width="64px" height="64px" viewBox="0 0 64 64" enable-background="new 0 0 64 64" xml:space="preserve">
<g>
	<path fill="#326ED1" d="M23.278,45.896c-4.857,0.004-9.417-2.32-12.247-6.242c-2.831-3.92-3.584-8.959-2.023-13.529
		c1.56-4.57,5.243-8.112,9.891-9.511c4.648-1.399,9.69-0.485,13.54,2.456l0.831-0.567l1.86-1.232
		c-3.511-3.001-8.042-4.555-12.666-4.345c-4.625,0.21-8.995,2.169-12.215,5.477c-3.219,3.307-5.045,7.711-5.104,12.313
		C5.086,35.315,6.8,39.765,9.934,43.151c3.133,3.387,7.451,5.455,12.069,5.783c4.619,0.326,9.188-1.113,12.772-4.023l-2.621-1.85
		v0.002C29.575,44.923,26.465,45.913,23.278,45.896L23.278,45.896z"/>
	<path fill="#326ED1" d="M40.188,37.481c1.596-4.061,1.654-8.557,0.166-12.659l-2.658,1.799c0.891,2.937,0.85,6.075-0.119,8.989
		L40.188,37.481z"/>
	<path fill="#326ED1" d="M58.801,48.927c-0.305-2.484-1.804-4.668-4.022-5.859c-2.217-1.188-4.875-1.236-7.135-0.129
		c-0.719,0.359-1.524,0.516-2.325,0.451c-0.802-0.063-1.57-0.342-2.225-0.809l-10.37-7.391c-1.219-0.832-1.92-2.229-1.859-3.697
		v-0.517v-0.253c-0.004-1.548,0.765-2.998,2.053-3.868l10.847-7.343c1.226-0.847,2.805-1.007,4.177-0.425
		c2.071,0.896,4.431,0.853,6.468-0.119c2.036-0.972,3.546-2.776,4.137-4.942c0.592-2.166,0.206-4.481-1.059-6.342
		c-1.264-1.86-3.277-3.083-5.521-3.35c-2.243-0.266-4.491,0.451-6.161,1.963c-1.667,1.513-2.592,3.671-2.532,5.916
		c0.053,1.504-0.671,2.93-1.92,3.782l-10.947,7.436c-1.227,0.844-2.806,1.003-4.178,0.419c-1.12-0.481-2.339-0.692-3.558-0.616
		c-1.897,0.185-3.67,1.025-5.006,2.377c-1.337,1.351-2.154,3.126-2.307,5.015c-0.108,2.618,1.127,5.112,3.281,6.625
		c2.153,1.512,4.932,1.836,7.379,0.859c1.395-0.555,2.979-0.359,4.197,0.518l11.263,8.045c1.113,0.762,1.804,2,1.858,3.344
		c0.021,0.883,0.204,1.754,0.54,2.57c1.004,2.463,4.034,4.811,6.713,4.982c2.307,0.145,4.558-0.736,6.145-2.408
		C58.321,53.491,59.077,51.206,58.801,48.927L58.801,48.927z"/>
</g>
</svg>
